<?xml version="1.0" encoding="utf-8" standalone="no"?>
<!DOCTYPE svg PUBLIC "-//W3C//DTD SVG 1.1//EN"
  "http://www.w3.org/Graphics/SVG/1.1/DTD/svg11.dtd">
<svg xmlns:xlink="http://www.w3.org/1999/xlink" width="852.48pt" height="283.27735pt" viewBox="0 0 852.48 283.27735" xmlns="http://www.w3.org/2000/svg" version="1.1">
 <metadata>
  <rdf:RDF xmlns:dc="http://purl.org/dc/elements/1.1/" xmlns:cc="http://creativecommons.org/ns#" xmlns:rdf="http://www.w3.org/1999/02/22-rdf-syntax-ns#">
   <cc:Work>
    <dc:type rdf:resource="http://purl.org/dc/dcmitype/StillImage"/>
    <dc:date>2025-09-10T14:23:25.966830</dc:date>
    <dc:format>image/svg+xml</dc:format>
    <dc:creator>
     <cc:Agent>
      <dc:title>Matplotlib v3.5.3, https://matplotlib.org/</dc:title>
     </cc:Agent>
    </dc:creator>
   </cc:Work>
  </rdf:RDF>
 </metadata>
 <defs>
  <style type="text/css">*{stroke-linejoin: round; stroke-linecap: butt}</style>
 </defs>
 <g id="figure_1">
  <g id="patch_1">
   <path d="M 0 283.27735 
L 852.48 283.27735 
L 852.48 0 
L 0 0 
z
" style="fill: #ffffff"/>
  </g>
  <g id="axes_1">
   <g id="patch_2">
    <path d="M 82.154 228.97115 
L 845.28 228.97115 
L 845.28 13.99735 
L 82.154 13.99735 
z
" style="fill: #ffffff"/>
   </g>
   <g id="PolyCollection_1">
    <defs>
     <path id="m8c3f46a7c2" d="M 116.841545 -259.508464 
L 116.841545 -151.051539 
L 130.999727 -129.451419 
L 145.157909 -118.911708 
L 159.316091 -108.689108 
L 173.474273 -99.496858 
L 187.632455 -89.913107 
L 201.790636 -86.090121 
L 215.948818 -81.664604 
L 230.107 -79.452226 
L 244.265182 -80.50528 
L 258.423364 -77.230099 
L 272.581545 -77.984912 
L 286.739727 -78.526693 
L 300.897909 -80.28363 
L 315.056091 -80.684157 
L 329.214273 -75.799348 
L 343.372455 -77.482282 
L 357.530636 -82.375595 
L 371.688818 -78.179893 
L 385.847 -81.534369 
L 400.005182 -76.817159 
L 414.163364 -84.747612 
L 428.321545 -81.39291 
L 442.479727 -81.50263 
L 456.637909 -77.536693 
L 470.796091 -83.969014 
L 484.954273 -87.254581 
L 499.112455 -75.704316 
L 513.270636 -79.298204 
L 527.428818 -81.020295 
L 541.587 -87.449904 
L 555.745182 -84.71056 
L 569.903364 -81.808823 
L 584.061545 -81.650868 
L 598.219727 -85.866259 
L 612.377909 -86.114756 
L 626.536091 -81.576814 
L 640.694273 -81.489493 
L 654.852455 -81.551762 
L 669.010636 -87.63958 
L 683.168818 -91.581105 
L 697.327 -83.06234 
L 711.485182 -82.883822 
L 725.643364 -89.277009 
L 739.801545 -91.739104 
L 753.959727 -84.048982 
L 768.117909 -90.583952 
L 782.276091 -89.293574 
L 796.434273 -91.187707 
L 810.592455 -82.824389 
L 810.592455 -234.936795 
L 810.592455 -234.936795 
L 796.434273 -235.999613 
L 782.276091 -232.893295 
L 768.117909 -233.872717 
L 753.959727 -234.170405 
L 739.801545 -226.102075 
L 725.643364 -234.073356 
L 711.485182 -236.727042 
L 697.327 -238.81302 
L 683.168818 -238.455801 
L 669.010636 -238.828658 
L 654.852455 -235.241317 
L 640.694273 -237.472747 
L 626.536091 -239.936845 
L 612.377909 -242.340096 
L 598.219727 -238.524325 
L 584.061545 -241.297299 
L 569.903364 -242.305375 
L 555.745182 -243.807661 
L 541.587 -242.254315 
L 527.428818 -237.213467 
L 513.270636 -242.248514 
L 499.112455 -244.829882 
L 484.954273 -241.783643 
L 470.796091 -246.164885 
L 456.637909 -247.918649 
L 442.479727 -247.151332 
L 428.321545 -246.178561 
L 414.163364 -245.590763 
L 400.005182 -243.302105 
L 385.847 -241.506408 
L 371.688818 -249.674709 
L 357.530636 -248.649241 
L 343.372455 -239.521148 
L 329.214273 -246.387531 
L 315.056091 -242.586777 
L 300.897909 -236.044034 
L 286.739727 -236.193527 
L 272.581545 -239.307108 
L 258.423364 -236.724721 
L 244.265182 -234.717027 
L 230.107 -230.946757 
L 215.948818 -224.641429 
L 201.790636 -227.928651 
L 187.632455 -227.872237 
L 173.474273 -223.956724 
L 159.316091 -224.032132 
L 145.157909 -229.861384 
L 130.999727 -238.850046 
L 116.841545 -259.508464 
z
" style="stroke: #707b90; stroke-opacity: 0.2; stroke-width: 2.5"/>
    </defs>
    <g clip-path="url(#p9eb4c28d3b)">
     <use xlink:href="#m8c3f46a7c2" x="0" y="283.27735" style="fill: #707b90; fill-opacity: 0.2; stroke: #707b90; stroke-opacity: 0.2; stroke-width: 2.5"/>
    </g>
   </g>
   <g id="PolyCollection_2">
    <defs>
     <path id="m078d5bf005" d="M 116.841545 -258.60959 
L 116.841545 -152.306721 
L 130.999727 -128.384425 
L 145.157909 -118.195182 
L 159.316091 -104.868616 
L 173.474273 -100.696907 
L 187.632455 -88.731641 
L 201.790636 -82.59961 
L 215.948818 -78.945838 
L 230.107 -75.379437 
L 244.265182 -77.719834 
L 258.423364 -72.334012 
L 272.581545 -71.051072 
L 286.739727 -65.655965 
L 300.897909 -69.93458 
L 315.056091 -64.077736 
L 329.214273 -65.079224 
L 343.372455 -67.879093 
L 357.530636 -68.672724 
L 371.688818 -69.725592 
L 385.847 -72.113283 
L 400.005182 -65.735967 
L 414.163364 -74.087332 
L 428.321545 -73.235864 
L 442.479727 -69.306777 
L 456.637909 -66.724548 
L 470.796091 -73.272329 
L 484.954273 -83.430367 
L 499.112455 -69.985826 
L 513.270636 -76.168832 
L 527.428818 -72.872123 
L 541.587 -80.091603 
L 555.745182 -75.478882 
L 569.903364 -75.813828 
L 584.061545 -77.614276 
L 598.219727 -80.854992 
L 612.377909 -81.117626 
L 626.536091 -79.708014 
L 640.694273 -79.044612 
L 654.852455 -81.757376 
L 669.010636 -86.573157 
L 683.168818 -94.311757 
L 697.327 -77.676743 
L 711.485182 -79.031591 
L 725.643364 -90.822363 
L 739.801545 -89.609349 
L 753.959727 -85.679856 
L 768.117909 -85.608961 
L 782.276091 -88.583429 
L 796.434273 -92.607131 
L 810.592455 -91.383593 
L 810.592455 -223.985772 
L 810.592455 -223.985772 
L 796.434273 -224.758851 
L 782.276091 -215.77468 
L 768.117909 -218.62432 
L 753.959727 -225.261026 
L 739.801545 -218.140635 
L 725.643364 -222.202385 
L 711.485182 -223.726609 
L 697.327 -221.249511 
L 683.168818 -234.597485 
L 669.010636 -224.918221 
L 654.852455 -223.937427 
L 640.694273 -227.084108 
L 626.536091 -228.676032 
L 612.377909 -230.749192 
L 598.219727 -225.736073 
L 584.061545 -228.070043 
L 569.903364 -228.511097 
L 555.745182 -230.320666 
L 541.587 -226.274749 
L 527.428818 -227.957861 
L 513.270636 -229.455753 
L 499.112455 -230.451382 
L 484.954273 -230.016945 
L 470.796091 -235.851369 
L 456.637909 -230.39881 
L 442.479727 -228.445115 
L 428.321545 -229.032766 
L 414.163364 -225.223389 
L 400.005182 -226.36699 
L 385.847 -227.319177 
L 371.688818 -229.42209 
L 357.530636 -233.277974 
L 343.372455 -227.189695 
L 329.214273 -229.980721 
L 315.056091 -228.211063 
L 300.897909 -226.30316 
L 286.739727 -220.960428 
L 272.581545 -224.251338 
L 258.423364 -229.533329 
L 244.265182 -223.70939 
L 230.107 -216.363177 
L 215.948818 -226.056302 
L 201.790636 -225.355145 
L 187.632455 -226.648207 
L 173.474273 -221.452315 
L 159.316091 -231.444465 
L 145.157909 -233.86886 
L 130.999727 -243.532701 
L 116.841545 -258.60959 
z
" style="stroke: #cbdede; stroke-opacity: 0.2; stroke-width: 2.5"/>
    </defs>
    <g clip-path="url(#p9eb4c28d3b)">
     <use xlink:href="#m078d5bf005" x="0" y="283.27735" style="fill: #cbdede; fill-opacity: 0.2; stroke: #cbdede; stroke-opacity: 0.2; stroke-width: 2.5"/>
    </g>
   </g>
   <g id="matplotlib.axis_1">
    <g id="xtick_1">
     <g id="line2d_1">
      <defs>
       <path id="mc38195148d" d="M 0 0 
L 0 8 
" style="stroke: #000000; stroke-width: 2"/>
      </defs>
      <g>
       <use xlink:href="#mc38195148d" x="116.841545" y="228.97115" style="stroke: #000000; stroke-width: 2"/>
      </g>
     </g>
     <g id="text_1">
      <!-- 0 -->
      <g transform="translate(112.036895 252.83985)scale(0.1728 -0.1728)">
       <defs>
        <path id="ArialMT-30" d="M 266 2259 
Q 266 3072 433 3567 
Q 600 4063 929 4331 
Q 1259 4600 1759 4600 
Q 2128 4600 2406 4451 
Q 2684 4303 2865 4023 
Q 3047 3744 3150 3342 
Q 3253 2941 3253 2259 
Q 3253 1453 3087 958 
Q 2922 463 2592 192 
Q 2263 -78 1759 -78 
Q 1097 -78 719 397 
Q 266 969 266 2259 
z
M 844 2259 
Q 844 1131 1108 757 
Q 1372 384 1759 384 
Q 2147 384 2411 759 
Q 2675 1134 2675 2259 
Q 2675 3391 2411 3762 
Q 2147 4134 1753 4134 
Q 1366 4134 1134 3806 
Q 844 3388 844 2259 
z
" transform="scale(0.015625)"/>
       </defs>
       <use xlink:href="#ArialMT-30"/>
      </g>
     </g>
    </g>
    <g id="xtick_2">
     <g id="line2d_2">
      <g>
       <use xlink:href="#mc38195148d" x="258.423364" y="228.97115" style="stroke: #000000; stroke-width: 2"/>
      </g>
     </g>
     <g id="text_2">
      <!-- 10 -->
      <g transform="translate(248.814064 252.83985)scale(0.1728 -0.1728)">
       <defs>
        <path id="ArialMT-31" d="M 2384 0 
L 1822 0 
L 1822 3584 
Q 1619 3391 1289 3197 
Q 959 3003 697 2906 
L 697 3450 
Q 1169 3672 1522 3987 
Q 1875 4303 2022 4600 
L 2384 4600 
L 2384 0 
z
" transform="scale(0.015625)"/>
       </defs>
       <use xlink:href="#ArialMT-31"/>
       <use xlink:href="#ArialMT-30" x="55.615234"/>
      </g>
     </g>
    </g>
    <g id="xtick_3">
     <g id="line2d_3">
      <g>
       <use xlink:href="#mc38195148d" x="400.005182" y="228.97115" style="stroke: #000000; stroke-width: 2"/>
      </g>
     </g>
     <g id="text_3">
      <!-- 20 -->
      <g transform="translate(390.395882 252.83985)scale(0.1728 -0.1728)">
       <defs>
        <path id="ArialMT-32" d="M 3222 541 
L 3222 0 
L 194 0 
Q 188 203 259 391 
Q 375 700 629 1000 
Q 884 1300 1366 1694 
Q 2113 2306 2375 2664 
Q 2638 3022 2638 3341 
Q 2638 3675 2398 3904 
Q 2159 4134 1775 4134 
Q 1369 4134 1125 3890 
Q 881 3647 878 3216 
L 300 3275 
Q 359 3922 746 4261 
Q 1134 4600 1788 4600 
Q 2447 4600 2831 4234 
Q 3216 3869 3216 3328 
Q 3216 3053 3103 2787 
Q 2991 2522 2730 2228 
Q 2469 1934 1863 1422 
Q 1356 997 1212 845 
Q 1069 694 975 541 
L 3222 541 
z
" transform="scale(0.015625)"/>
       </defs>
       <use xlink:href="#ArialMT-32"/>
       <use xlink:href="#ArialMT-30" x="55.615234"/>
      </g>
     </g>
    </g>
    <g id="xtick_4">
     <g id="line2d_4">
      <g>
       <use xlink:href="#mc38195148d" x="541.587" y="228.97115" style="stroke: #000000; stroke-width: 2"/>
      </g>
     </g>
     <g id="text_4">
      <!-- 30 -->
      <g transform="translate(531.9777 252.83985)scale(0.1728 -0.1728)">
       <defs>
        <path id="ArialMT-33" d="M 269 1209 
L 831 1284 
Q 928 806 1161 595 
Q 1394 384 1728 384 
Q 2125 384 2398 659 
Q 2672 934 2672 1341 
Q 2672 1728 2419 1979 
Q 2166 2231 1775 2231 
Q 1616 2231 1378 2169 
L 1441 2663 
Q 1497 2656 1531 2656 
Q 1891 2656 2178 2843 
Q 2466 3031 2466 3422 
Q 2466 3731 2256 3934 
Q 2047 4138 1716 4138 
Q 1388 4138 1169 3931 
Q 950 3725 888 3313 
L 325 3413 
Q 428 3978 793 4289 
Q 1159 4600 1703 4600 
Q 2078 4600 2393 4439 
Q 2709 4278 2876 4000 
Q 3044 3722 3044 3409 
Q 3044 3113 2884 2869 
Q 2725 2625 2413 2481 
Q 2819 2388 3044 2092 
Q 3269 1797 3269 1353 
Q 3269 753 2831 336 
Q 2394 -81 1725 -81 
Q 1122 -81 723 278 
Q 325 638 269 1209 
z
" transform="scale(0.015625)"/>
       </defs>
       <use xlink:href="#ArialMT-33"/>
       <use xlink:href="#ArialMT-30" x="55.615234"/>
      </g>
     </g>
    </g>
    <g id="xtick_5">
     <g id="line2d_5">
      <g>
       <use xlink:href="#mc38195148d" x="683.168818" y="228.97115" style="stroke: #000000; stroke-width: 2"/>
      </g>
     </g>
     <g id="text_5">
      <!-- 40 -->
      <g transform="translate(673.559518 252.83985)scale(0.1728 -0.1728)">
       <defs>
        <path id="ArialMT-34" d="M 2069 0 
L 2069 1097 
L 81 1097 
L 81 1613 
L 2172 4581 
L 2631 4581 
L 2631 1613 
L 3250 1613 
L 3250 1097 
L 2631 1097 
L 2631 0 
L 2069 0 
z
M 2069 1613 
L 2069 3678 
L 634 1613 
L 2069 1613 
z
" transform="scale(0.015625)"/>
       </defs>
       <use xlink:href="#ArialMT-34"/>
       <use xlink:href="#ArialMT-30" x="55.615234"/>
      </g>
     </g>
    </g>
    <g id="xtick_6">
     <g id="line2d_6">
      <g>
       <use xlink:href="#mc38195148d" x="824.750636" y="228.97115" style="stroke: #000000; stroke-width: 2"/>
      </g>
     </g>
     <g id="text_6">
      <!-- 50 -->
      <g transform="translate(815.141336 252.83985)scale(0.1728 -0.1728)">
       <defs>
        <path id="ArialMT-35" d="M 266 1200 
L 856 1250 
Q 922 819 1161 601 
Q 1400 384 1738 384 
Q 2144 384 2425 690 
Q 2706 997 2706 1503 
Q 2706 1984 2436 2262 
Q 2166 2541 1728 2541 
Q 1456 2541 1237 2417 
Q 1019 2294 894 2097 
L 366 2166 
L 809 4519 
L 3088 4519 
L 3088 3981 
L 1259 3981 
L 1013 2750 
Q 1425 3038 1878 3038 
Q 2478 3038 2890 2622 
Q 3303 2206 3303 1553 
Q 3303 931 2941 478 
Q 2500 -78 1738 -78 
Q 1113 -78 717 272 
Q 322 622 266 1200 
z
" transform="scale(0.015625)"/>
       </defs>
       <use xlink:href="#ArialMT-35"/>
       <use xlink:href="#ArialMT-30" x="55.615234"/>
      </g>
     </g>
    </g>
    <g id="text_7">
     <!-- Epoch -->
     <g transform="translate(439.2199 272.64295)scale(0.1728 -0.1728)">
      <defs>
       <path id="ArialMT-45" d="M 506 0 
L 506 4581 
L 3819 4581 
L 3819 4041 
L 1113 4041 
L 1113 2638 
L 3647 2638 
L 3647 2100 
L 1113 2100 
L 1113 541 
L 3925 541 
L 3925 0 
L 506 0 
z
" transform="scale(0.015625)"/>
       <path id="ArialMT-70" d="M 422 -1272 
L 422 3319 
L 934 3319 
L 934 2888 
Q 1116 3141 1344 3267 
Q 1572 3394 1897 3394 
Q 2322 3394 2647 3175 
Q 2972 2956 3137 2557 
Q 3303 2159 3303 1684 
Q 3303 1175 3120 767 
Q 2938 359 2589 142 
Q 2241 -75 1856 -75 
Q 1575 -75 1351 44 
Q 1128 163 984 344 
L 984 -1272 
L 422 -1272 
z
M 931 1641 
Q 931 1000 1190 694 
Q 1450 388 1819 388 
Q 2194 388 2461 705 
Q 2728 1022 2728 1688 
Q 2728 2322 2467 2637 
Q 2206 2953 1844 2953 
Q 1484 2953 1207 2617 
Q 931 2281 931 1641 
z
" transform="scale(0.015625)"/>
       <path id="ArialMT-6f" d="M 213 1659 
Q 213 2581 725 3025 
Q 1153 3394 1769 3394 
Q 2453 3394 2887 2945 
Q 3322 2497 3322 1706 
Q 3322 1066 3130 698 
Q 2938 331 2570 128 
Q 2203 -75 1769 -75 
Q 1072 -75 642 372 
Q 213 819 213 1659 
z
M 791 1659 
Q 791 1022 1069 705 
Q 1347 388 1769 388 
Q 2188 388 2466 706 
Q 2744 1025 2744 1678 
Q 2744 2294 2464 2611 
Q 2184 2928 1769 2928 
Q 1347 2928 1069 2612 
Q 791 2297 791 1659 
z
" transform="scale(0.015625)"/>
       <path id="ArialMT-63" d="M 2588 1216 
L 3141 1144 
Q 3050 572 2676 248 
Q 2303 -75 1759 -75 
Q 1078 -75 664 370 
Q 250 816 250 1647 
Q 250 2184 428 2587 
Q 606 2991 970 3192 
Q 1334 3394 1763 3394 
Q 2303 3394 2647 3120 
Q 2991 2847 3088 2344 
L 2541 2259 
Q 2463 2594 2264 2762 
Q 2066 2931 1784 2931 
Q 1359 2931 1093 2626 
Q 828 2322 828 1663 
Q 828 994 1084 691 
Q 1341 388 1753 388 
Q 2084 388 2306 591 
Q 2528 794 2588 1216 
z
" transform="scale(0.015625)"/>
       <path id="ArialMT-68" d="M 422 0 
L 422 4581 
L 984 4581 
L 984 2938 
Q 1378 3394 1978 3394 
Q 2347 3394 2619 3248 
Q 2891 3103 3008 2847 
Q 3125 2591 3125 2103 
L 3125 0 
L 2563 0 
L 2563 2103 
Q 2563 2525 2380 2717 
Q 2197 2909 1863 2909 
Q 1613 2909 1392 2779 
Q 1172 2650 1078 2428 
Q 984 2206 984 1816 
L 984 0 
L 422 0 
z
" transform="scale(0.015625)"/>
      </defs>
      <use xlink:href="#ArialMT-45"/>
      <use xlink:href="#ArialMT-70" x="66.699219"/>
      <use xlink:href="#ArialMT-6f" x="122.314453"/>
      <use xlink:href="#ArialMT-63" x="177.929688"/>
      <use xlink:href="#ArialMT-68" x="227.929688"/>
     </g>
    </g>
   </g>
   <g id="matplotlib.axis_2">
    <g id="ytick_1">
     <g id="line2d_7">
      <defs>
       <path id="mf9c4c1a259" d="M 0 0 
L -8 0 
" style="stroke: #000000; stroke-width: 2"/>
      </defs>
      <g>
       <use xlink:href="#mf9c4c1a259" x="82.154" y="206.014881" style="stroke: #000000; stroke-width: 2"/>
      </g>
     </g>
     <g id="text_8">
      <!-- 0.375 -->
      <g transform="translate(27.4162 212.199231)scale(0.1728 -0.1728)">
       <defs>
        <path id="ArialMT-2e" d="M 581 0 
L 581 641 
L 1222 641 
L 1222 0 
L 581 0 
z
" transform="scale(0.015625)"/>
        <path id="ArialMT-37" d="M 303 3981 
L 303 4522 
L 3269 4522 
L 3269 4084 
Q 2831 3619 2401 2847 
Q 1972 2075 1738 1259 
Q 1569 684 1522 0 
L 944 0 
Q 953 541 1156 1306 
Q 1359 2072 1739 2783 
Q 2119 3494 2547 3981 
L 303 3981 
z
" transform="scale(0.015625)"/>
       </defs>
       <use xlink:href="#ArialMT-30"/>
       <use xlink:href="#ArialMT-2e" x="55.615234"/>
       <use xlink:href="#ArialMT-33" x="83.398438"/>
       <use xlink:href="#ArialMT-37" x="139.013672"/>
       <use xlink:href="#ArialMT-35" x="194.628906"/>
      </g>
     </g>
    </g>
    <g id="ytick_2">
     <g id="line2d_8">
      <g>
       <use xlink:href="#mf9c4c1a259" x="82.154" y="161.818954" style="stroke: #000000; stroke-width: 2"/>
      </g>
     </g>
     <g id="text_9">
      <!-- 0.400 -->
      <g transform="translate(27.4162 168.003304)scale(0.1728 -0.1728)">
       <use xlink:href="#ArialMT-30"/>
       <use xlink:href="#ArialMT-2e" x="55.615234"/>
       <use xlink:href="#ArialMT-34" x="83.398438"/>
       <use xlink:href="#ArialMT-30" x="139.013672"/>
       <use xlink:href="#ArialMT-30" x="194.628906"/>
      </g>
     </g>
    </g>
    <g id="ytick_3">
     <g id="line2d_9">
      <g>
       <use xlink:href="#mf9c4c1a259" x="82.154" y="117.623027" style="stroke: #000000; stroke-width: 2"/>
      </g>
     </g>
     <g id="text_10">
      <!-- 0.425 -->
      <g transform="translate(27.4162 123.807377)scale(0.1728 -0.1728)">
       <use xlink:href="#ArialMT-30"/>
       <use xlink:href="#ArialMT-2e" x="55.615234"/>
       <use xlink:href="#ArialMT-34" x="83.398438"/>
       <use xlink:href="#ArialMT-32" x="139.013672"/>
       <use xlink:href="#ArialMT-35" x="194.628906"/>
      </g>
     </g>
    </g>
    <g id="ytick_4">
     <g id="line2d_10">
      <g>
       <use xlink:href="#mf9c4c1a259" x="82.154" y="73.427099" style="stroke: #000000; stroke-width: 2"/>
      </g>
     </g>
     <g id="text_11">
      <!-- 0.450 -->
      <g transform="translate(27.4162 79.611449)scale(0.1728 -0.1728)">
       <use xlink:href="#ArialMT-30"/>
       <use xlink:href="#ArialMT-2e" x="55.615234"/>
       <use xlink:href="#ArialMT-34" x="83.398438"/>
       <use xlink:href="#ArialMT-35" x="139.013672"/>
       <use xlink:href="#ArialMT-30" x="194.628906"/>
      </g>
     </g>
    </g>
    <g id="ytick_5">
     <g id="line2d_11">
      <g>
       <use xlink:href="#mf9c4c1a259" x="82.154" y="29.231172" style="stroke: #000000; stroke-width: 2"/>
      </g>
     </g>
     <g id="text_12">
      <!-- 0.475 -->
      <g transform="translate(27.4162 35.415522)scale(0.1728 -0.1728)">
       <use xlink:href="#ArialMT-30"/>
       <use xlink:href="#ArialMT-2e" x="55.615234"/>
       <use xlink:href="#ArialMT-34" x="83.398438"/>
       <use xlink:href="#ArialMT-37" x="139.013672"/>
       <use xlink:href="#ArialMT-35" x="194.628906"/>
      </g>
     </g>
    </g>
    <g id="text_13">
     <!-- Gradient Alignment to L-Norm -->
     <g transform="translate(19.7793 235.7685)rotate(-90)scale(0.1728 -0.1728)">
      <defs>
       <path id="ArialMT-47" d="M 2638 1797 
L 2638 2334 
L 4578 2338 
L 4578 638 
Q 4131 281 3656 101 
Q 3181 -78 2681 -78 
Q 2006 -78 1454 211 
Q 903 500 622 1047 
Q 341 1594 341 2269 
Q 341 2938 620 3517 
Q 900 4097 1425 4378 
Q 1950 4659 2634 4659 
Q 3131 4659 3532 4498 
Q 3934 4338 4162 4050 
Q 4391 3763 4509 3300 
L 3963 3150 
Q 3859 3500 3706 3700 
Q 3553 3900 3268 4020 
Q 2984 4141 2638 4141 
Q 2222 4141 1919 4014 
Q 1616 3888 1430 3681 
Q 1244 3475 1141 3228 
Q 966 2803 966 2306 
Q 966 1694 1177 1281 
Q 1388 869 1791 669 
Q 2194 469 2647 469 
Q 3041 469 3416 620 
Q 3791 772 3984 944 
L 3984 1797 
L 2638 1797 
z
" transform="scale(0.015625)"/>
       <path id="ArialMT-72" d="M 416 0 
L 416 3319 
L 922 3319 
L 922 2816 
Q 1116 3169 1280 3281 
Q 1444 3394 1641 3394 
Q 1925 3394 2219 3213 
L 2025 2691 
Q 1819 2813 1613 2813 
Q 1428 2813 1281 2702 
Q 1134 2591 1072 2394 
Q 978 2094 978 1738 
L 978 0 
L 416 0 
z
" transform="scale(0.015625)"/>
       <path id="ArialMT-61" d="M 2588 409 
Q 2275 144 1986 34 
Q 1697 -75 1366 -75 
Q 819 -75 525 192 
Q 231 459 231 875 
Q 231 1119 342 1320 
Q 453 1522 633 1644 
Q 813 1766 1038 1828 
Q 1203 1872 1538 1913 
Q 2219 1994 2541 2106 
Q 2544 2222 2544 2253 
Q 2544 2597 2384 2738 
Q 2169 2928 1744 2928 
Q 1347 2928 1158 2789 
Q 969 2650 878 2297 
L 328 2372 
Q 403 2725 575 2942 
Q 747 3159 1072 3276 
Q 1397 3394 1825 3394 
Q 2250 3394 2515 3294 
Q 2781 3194 2906 3042 
Q 3031 2891 3081 2659 
Q 3109 2516 3109 2141 
L 3109 1391 
Q 3109 606 3145 398 
Q 3181 191 3288 0 
L 2700 0 
Q 2613 175 2588 409 
z
M 2541 1666 
Q 2234 1541 1622 1453 
Q 1275 1403 1131 1340 
Q 988 1278 909 1158 
Q 831 1038 831 891 
Q 831 666 1001 516 
Q 1172 366 1500 366 
Q 1825 366 2078 508 
Q 2331 650 2450 897 
Q 2541 1088 2541 1459 
L 2541 1666 
z
" transform="scale(0.015625)"/>
       <path id="ArialMT-64" d="M 2575 0 
L 2575 419 
Q 2259 -75 1647 -75 
Q 1250 -75 917 144 
Q 584 363 401 755 
Q 219 1147 219 1656 
Q 219 2153 384 2558 
Q 550 2963 881 3178 
Q 1213 3394 1622 3394 
Q 1922 3394 2156 3267 
Q 2391 3141 2538 2938 
L 2538 4581 
L 3097 4581 
L 3097 0 
L 2575 0 
z
M 797 1656 
Q 797 1019 1065 703 
Q 1334 388 1700 388 
Q 2069 388 2326 689 
Q 2584 991 2584 1609 
Q 2584 2291 2321 2609 
Q 2059 2928 1675 2928 
Q 1300 2928 1048 2622 
Q 797 2316 797 1656 
z
" transform="scale(0.015625)"/>
       <path id="ArialMT-69" d="M 425 3934 
L 425 4581 
L 988 4581 
L 988 3934 
L 425 3934 
z
M 425 0 
L 425 3319 
L 988 3319 
L 988 0 
L 425 0 
z
" transform="scale(0.015625)"/>
       <path id="ArialMT-65" d="M 2694 1069 
L 3275 997 
Q 3138 488 2766 206 
Q 2394 -75 1816 -75 
Q 1088 -75 661 373 
Q 234 822 234 1631 
Q 234 2469 665 2931 
Q 1097 3394 1784 3394 
Q 2450 3394 2872 2941 
Q 3294 2488 3294 1666 
Q 3294 1616 3291 1516 
L 816 1516 
Q 847 969 1125 678 
Q 1403 388 1819 388 
Q 2128 388 2347 550 
Q 2566 713 2694 1069 
z
M 847 1978 
L 2700 1978 
Q 2663 2397 2488 2606 
Q 2219 2931 1791 2931 
Q 1403 2931 1139 2672 
Q 875 2413 847 1978 
z
" transform="scale(0.015625)"/>
       <path id="ArialMT-6e" d="M 422 0 
L 422 3319 
L 928 3319 
L 928 2847 
Q 1294 3394 1984 3394 
Q 2284 3394 2536 3286 
Q 2788 3178 2913 3003 
Q 3038 2828 3088 2588 
Q 3119 2431 3119 2041 
L 3119 0 
L 2556 0 
L 2556 2019 
Q 2556 2363 2490 2533 
Q 2425 2703 2258 2804 
Q 2091 2906 1866 2906 
Q 1506 2906 1245 2678 
Q 984 2450 984 1813 
L 984 0 
L 422 0 
z
" transform="scale(0.015625)"/>
       <path id="ArialMT-74" d="M 1650 503 
L 1731 6 
Q 1494 -44 1306 -44 
Q 1000 -44 831 53 
Q 663 150 594 308 
Q 525 466 525 972 
L 525 2881 
L 113 2881 
L 113 3319 
L 525 3319 
L 525 4141 
L 1084 4478 
L 1084 3319 
L 1650 3319 
L 1650 2881 
L 1084 2881 
L 1084 941 
Q 1084 700 1114 631 
Q 1144 563 1211 522 
Q 1278 481 1403 481 
Q 1497 481 1650 503 
z
" transform="scale(0.015625)"/>
       <path id="ArialMT-20" transform="scale(0.015625)"/>
       <path id="ArialMT-41" d="M -9 0 
L 1750 4581 
L 2403 4581 
L 4278 0 
L 3588 0 
L 3053 1388 
L 1138 1388 
L 634 0 
L -9 0 
z
M 1313 1881 
L 2866 1881 
L 2388 3150 
Q 2169 3728 2063 4100 
Q 1975 3659 1816 3225 
L 1313 1881 
z
" transform="scale(0.015625)"/>
       <path id="ArialMT-6c" d="M 409 0 
L 409 4581 
L 972 4581 
L 972 0 
L 409 0 
z
" transform="scale(0.015625)"/>
       <path id="ArialMT-67" d="M 319 -275 
L 866 -356 
Q 900 -609 1056 -725 
Q 1266 -881 1628 -881 
Q 2019 -881 2231 -725 
Q 2444 -569 2519 -288 
Q 2563 -116 2559 434 
Q 2191 0 1641 0 
Q 956 0 581 494 
Q 206 988 206 1678 
Q 206 2153 378 2554 
Q 550 2956 876 3175 
Q 1203 3394 1644 3394 
Q 2231 3394 2613 2919 
L 2613 3319 
L 3131 3319 
L 3131 450 
Q 3131 -325 2973 -648 
Q 2816 -972 2473 -1159 
Q 2131 -1347 1631 -1347 
Q 1038 -1347 672 -1080 
Q 306 -813 319 -275 
z
M 784 1719 
Q 784 1066 1043 766 
Q 1303 466 1694 466 
Q 2081 466 2343 764 
Q 2606 1063 2606 1700 
Q 2606 2309 2336 2618 
Q 2066 2928 1684 2928 
Q 1309 2928 1046 2623 
Q 784 2319 784 1719 
z
" transform="scale(0.015625)"/>
       <path id="ArialMT-6d" d="M 422 0 
L 422 3319 
L 925 3319 
L 925 2853 
Q 1081 3097 1340 3245 
Q 1600 3394 1931 3394 
Q 2300 3394 2536 3241 
Q 2772 3088 2869 2813 
Q 3263 3394 3894 3394 
Q 4388 3394 4653 3120 
Q 4919 2847 4919 2278 
L 4919 0 
L 4359 0 
L 4359 2091 
Q 4359 2428 4304 2576 
Q 4250 2725 4106 2815 
Q 3963 2906 3769 2906 
Q 3419 2906 3187 2673 
Q 2956 2441 2956 1928 
L 2956 0 
L 2394 0 
L 2394 2156 
Q 2394 2531 2256 2718 
Q 2119 2906 1806 2906 
Q 1569 2906 1367 2781 
Q 1166 2656 1075 2415 
Q 984 2175 984 1722 
L 984 0 
L 422 0 
z
" transform="scale(0.015625)"/>
       <path id="ArialMT-4c" d="M 469 0 
L 469 4581 
L 1075 4581 
L 1075 541 
L 3331 541 
L 3331 0 
L 469 0 
z
" transform="scale(0.015625)"/>
       <path id="ArialMT-2d" d="M 203 1375 
L 203 1941 
L 1931 1941 
L 1931 1375 
L 203 1375 
z
" transform="scale(0.015625)"/>
       <path id="ArialMT-4e" d="M 488 0 
L 488 4581 
L 1109 4581 
L 3516 984 
L 3516 4581 
L 4097 4581 
L 4097 0 
L 3475 0 
L 1069 3600 
L 1069 0 
L 488 0 
z
" transform="scale(0.015625)"/>
      </defs>
      <use xlink:href="#ArialMT-47"/>
      <use xlink:href="#ArialMT-72" x="77.783203"/>
      <use xlink:href="#ArialMT-61" x="111.083984"/>
      <use xlink:href="#ArialMT-64" x="166.699219"/>
      <use xlink:href="#ArialMT-69" x="222.314453"/>
      <use xlink:href="#ArialMT-65" x="244.53125"/>
      <use xlink:href="#ArialMT-6e" x="300.146484"/>
      <use xlink:href="#ArialMT-74" x="355.761719"/>
      <use xlink:href="#ArialMT-20" x="383.544922"/>
      <use xlink:href="#ArialMT-41" x="405.828125"/>
      <use xlink:href="#ArialMT-6c" x="472.527344"/>
      <use xlink:href="#ArialMT-69" x="494.744141"/>
      <use xlink:href="#ArialMT-67" x="516.960938"/>
      <use xlink:href="#ArialMT-6e" x="572.576172"/>
      <use xlink:href="#ArialMT-6d" x="628.191406"/>
      <use xlink:href="#ArialMT-65" x="711.492188"/>
      <use xlink:href="#ArialMT-6e" x="767.107422"/>
      <use xlink:href="#ArialMT-74" x="822.722656"/>
      <use xlink:href="#ArialMT-20" x="850.505859"/>
      <use xlink:href="#ArialMT-74" x="878.289062"/>
      <use xlink:href="#ArialMT-6f" x="906.072266"/>
      <use xlink:href="#ArialMT-20" x="961.6875"/>
      <use xlink:href="#ArialMT-4c" x="989.470703"/>
      <use xlink:href="#ArialMT-2d" x="1045.085938"/>
      <use xlink:href="#ArialMT-4e" x="1078.386719"/>
      <use xlink:href="#ArialMT-6f" x="1150.603516"/>
      <use xlink:href="#ArialMT-72" x="1206.21875"/>
      <use xlink:href="#ArialMT-6d" x="1239.519531"/>
     </g>
    </g>
   </g>
   <g id="line2d_12">
    <path d="M 116.841545 77.997349 
L 130.999727 99.126618 
L 145.157909 108.890804 
L 159.316091 116.91673 
L 173.474273 121.550559 
L 187.632455 124.384678 
L 201.790636 126.267964 
L 215.948818 130.124334 
L 230.107 128.077858 
L 244.265182 125.666196 
L 258.423364 126.29994 
L 272.581545 124.63134 
L 286.739727 125.91724 
L 300.897909 125.113518 
L 315.056091 121.641883 
L 329.214273 122.183911 
L 343.372455 124.775635 
L 357.530636 117.764932 
L 371.688818 119.350049 
L 385.847 121.756961 
L 400.005182 123.217718 
L 414.163364 118.108163 
L 428.321545 119.491614 
L 442.479727 118.950369 
L 456.637909 120.549679 
L 470.796091 118.2104 
L 484.954273 118.758238 
L 499.112455 123.010251 
L 513.270636 122.503991 
L 527.428818 124.160469 
L 541.587 118.425241 
L 555.745182 119.01824 
L 569.903364 121.220251 
L 584.061545 121.803267 
L 598.219727 121.082058 
L 612.377909 119.049924 
L 626.536091 122.52052 
L 640.694273 123.79623 
L 654.852455 124.880811 
L 669.010636 120.043231 
L 683.168818 118.258897 
L 697.327 122.33967 
L 711.485182 123.471918 
L 725.643364 121.602167 
L 739.801545 124.35676 
L 753.959727 124.167657 
L 768.117909 121.049015 
L 782.276091 122.183916 
L 796.434273 119.68369 
L 810.592455 124.396758 
" clip-path="url(#p9eb4c28d3b)" style="fill: none; stroke: #707b90; stroke-width: 2.5; stroke-linecap: square"/>
   </g>
   <g id="line2d_13">
    <path d="M 116.841545 77.819195 
L 130.999727 97.318787 
L 145.157909 107.245329 
L 159.316091 115.120809 
L 173.474273 122.202739 
L 187.632455 125.587426 
L 201.790636 129.299973 
L 215.948818 130.77628 
L 230.107 137.406043 
L 244.265182 132.562738 
L 258.423364 132.34368 
L 272.581545 135.626145 
L 286.739727 139.969153 
L 300.897909 135.15848 
L 315.056091 137.13295 
L 329.214273 135.747377 
L 343.372455 135.742956 
L 357.530636 132.302001 
L 371.688818 133.703509 
L 385.847 133.56112 
L 400.005182 137.225872 
L 414.163364 133.62199 
L 428.321545 132.143035 
L 442.479727 134.401404 
L 456.637909 134.715671 
L 470.796091 128.715501 
L 484.954273 126.553694 
L 499.112455 133.058746 
L 513.270636 130.465057 
L 527.428818 132.862358 
L 541.587 130.094174 
L 555.745182 130.377576 
L 569.903364 131.114887 
L 584.061545 130.435191 
L 598.219727 129.981818 
L 612.377909 127.343941 
L 626.536091 129.085327 
L 640.694273 130.21299 
L 654.852455 130.429949 
L 669.010636 127.531661 
L 683.168818 118.822729 
L 697.327 133.814223 
L 711.485182 131.89825 
L 725.643364 126.764976 
L 739.801545 129.402358 
L 753.959727 127.806909 
L 768.117909 131.16071 
L 782.276091 131.098295 
L 796.434273 124.594359 
L 810.592455 125.592668 
" clip-path="url(#p9eb4c28d3b)" style="fill: none; stroke-dasharray: 20,10; stroke-dashoffset: 0; stroke: #707b90; stroke-width: 2.5"/>
   </g>
   <g id="patch_3">
    <path d="M 82.154 228.97115 
L 82.154 13.99735 
" style="fill: none; stroke: #000000; stroke-width: 1.5; stroke-linejoin: miter; stroke-linecap: square"/>
   </g>
   <g id="patch_4">
    <path d="M 82.154 228.97115 
L 845.28 228.97115 
" style="fill: none; stroke: #000000; stroke-width: 1.5; stroke-linejoin: miter; stroke-linecap: square"/>
   </g>
   <g id="legend_1">
    <g id="patch_5">
     <path d="M 657.8217 76.70755 
L 833.184 76.70755 
Q 836.64 76.70755 836.64 73.25155 
L 836.64 26.09335 
Q 836.64 22.63735 833.184 22.63735 
L 657.8217 22.63735 
Q 654.3657 22.63735 654.3657 26.09335 
L 654.3657 73.25155 
Q 654.3657 76.70755 657.8217 76.70755 
z
" style="fill: #ffffff; opacity: 0.8; stroke: #cccccc; stroke-width: 2.5; stroke-linejoin: miter"/>
    </g>
    <g id="line2d_14">
     <path d="M 661.2777 35.87005 
L 678.5577 35.87005 
L 695.8377 35.87005 
" style="fill: none; stroke: #707b90; stroke-width: 2.5; stroke-linecap: square"/>
    </g>
    <g id="text_14">
     <!-- center -->
     <g transform="translate(709.6617 41.91805)scale(0.1728 -0.1728)">
      <use xlink:href="#ArialMT-63"/>
      <use xlink:href="#ArialMT-65" x="50"/>
      <use xlink:href="#ArialMT-6e" x="105.615234"/>
      <use xlink:href="#ArialMT-74" x="161.230469"/>
      <use xlink:href="#ArialMT-65" x="189.013672"/>
      <use xlink:href="#ArialMT-72" x="244.628906"/>
     </g>
    </g>
    <g id="line2d_15">
     <path d="M 661.2777 60.31315 
L 678.5577 60.31315 
L 695.8377 60.31315 
" style="fill: none; stroke-dasharray: 20,10; stroke-dashoffset: 0; stroke: #707b90; stroke-width: 2.5"/>
    </g>
    <g id="text_15">
     <!-- lateral inhibition -->
     <g transform="translate(709.6617 66.36115)scale(0.1728 -0.1728)">
      <defs>
       <path id="ArialMT-62" d="M 941 0 
L 419 0 
L 419 4581 
L 981 4581 
L 981 2947 
Q 1338 3394 1891 3394 
Q 2197 3394 2470 3270 
Q 2744 3147 2920 2923 
Q 3097 2700 3197 2384 
Q 3297 2069 3297 1709 
Q 3297 856 2875 390 
Q 2453 -75 1863 -75 
Q 1275 -75 941 416 
L 941 0 
z
M 934 1684 
Q 934 1088 1097 822 
Q 1363 388 1816 388 
Q 2184 388 2453 708 
Q 2722 1028 2722 1663 
Q 2722 2313 2464 2622 
Q 2206 2931 1841 2931 
Q 1472 2931 1203 2611 
Q 934 2291 934 1684 
z
" transform="scale(0.015625)"/>
      </defs>
      <use xlink:href="#ArialMT-6c"/>
      <use xlink:href="#ArialMT-61" x="22.216797"/>
      <use xlink:href="#ArialMT-74" x="77.832031"/>
      <use xlink:href="#ArialMT-65" x="105.615234"/>
      <use xlink:href="#ArialMT-72" x="161.230469"/>
      <use xlink:href="#ArialMT-61" x="194.53125"/>
      <use xlink:href="#ArialMT-6c" x="250.146484"/>
      <use xlink:href="#ArialMT-20" x="272.363281"/>
      <use xlink:href="#ArialMT-69" x="300.146484"/>
      <use xlink:href="#ArialMT-6e" x="322.363281"/>
      <use xlink:href="#ArialMT-68" x="377.978516"/>
      <use xlink:href="#ArialMT-69" x="433.59375"/>
      <use xlink:href="#ArialMT-62" x="455.810547"/>
      <use xlink:href="#ArialMT-69" x="511.425781"/>
      <use xlink:href="#ArialMT-74" x="533.642578"/>
      <use xlink:href="#ArialMT-69" x="561.425781"/>
      <use xlink:href="#ArialMT-6f" x="583.642578"/>
      <use xlink:href="#ArialMT-6e" x="639.257812"/>
     </g>
    </g>
   </g>
  </g>
 </g>
 <defs>
  <clipPath id="p9eb4c28d3b">
   <rect x="82.154" y="13.99735" width="763.126" height="214.9738"/>
  </clipPath>
 </defs>
</svg>
