<?xml version="1.0" encoding="utf-8" standalone="no"?>
<!DOCTYPE svg PUBLIC "-//W3C//DTD SVG 1.1//EN"
  "http://www.w3.org/Graphics/SVG/1.1/DTD/svg11.dtd">
<svg xmlns:xlink="http://www.w3.org/1999/xlink" width="852.48pt" height="276.48pt" viewBox="0 0 852.48 276.48" xmlns="http://www.w3.org/2000/svg" version="1.1">
 <metadata>
  <rdf:RDF xmlns:dc="http://purl.org/dc/elements/1.1/" xmlns:cc="http://creativecommons.org/ns#" xmlns:rdf="http://www.w3.org/1999/02/22-rdf-syntax-ns#">
   <cc:Work>
    <dc:type rdf:resource="http://purl.org/dc/dcmitype/StillImage"/>
    <dc:date>2025-10-03T10:23:52.754822</dc:date>
    <dc:format>image/svg+xml</dc:format>
    <dc:creator>
     <cc:Agent>
      <dc:title>Matplotlib v3.5.3, https://matplotlib.org/</dc:title>
     </cc:Agent>
    </dc:creator>
   </cc:Work>
  </rdf:RDF>
 </metadata>
 <defs>
  <style type="text/css">*{stroke-linejoin: round; stroke-linecap: butt}</style>
 </defs>
 <g id="figure_1">
  <g id="patch_1">
   <path d="M 0 276.48 
L 852.48 276.48 
L 852.48 0 
L 0 0 
z
" style="fill: #ffffff"/>
  </g>
  <g id="axes_1">
   <g id="patch_2">
    <path d="M 72.5447 222.1738 
L 845.28 222.1738 
L 845.28 25.5687 
L 72.5447 25.5687 
z
" style="fill: #ffffff"/>
   </g>
   <g id="PolyCollection_1">
    <defs>
     <path id="m3cc0621183" d="M 107.669032 -220.437516 
L 107.669032 -215.725832 
L 122.005494 -219.830162 
L 136.341956 -221.328417 
L 150.678418 -223.891659 
L 165.01488 -226.284071 
L 179.351342 -227.507286 
L 193.687804 -227.899127 
L 208.024266 -227.820198 
L 222.360728 -227.744268 
L 236.69719 -227.625069 
L 251.033651 -228.154869 
L 265.370113 -228.070504 
L 279.706575 -227.701537 
L 294.043037 -229.136389 
L 308.379499 -228.593544 
L 322.715961 -227.886051 
L 337.052423 -229.676205 
L 351.388885 -228.452897 
L 365.725347 -227.903354 
L 380.061809 -227.516175 
L 394.398271 -227.964256 
L 408.734733 -228.537387 
L 423.071195 -228.826691 
L 437.407657 -228.819642 
L 451.744119 -228.675966 
L 466.080581 -228.81868 
L 480.417043 -228.92131 
L 494.753505 -228.923491 
L 509.089967 -229.293719 
L 523.426429 -228.571827 
L 537.762891 -229.833173 
L 552.099353 -228.924659 
L 566.435815 -230.859264 
L 580.772277 -230.408092 
L 595.108739 -230.2464 
L 609.445201 -231.727135 
L 623.781663 -229.672588 
L 638.118125 -231.892961 
L 652.454587 -230.835614 
L 666.791049 -231.929625 
L 681.12751 -232.209512 
L 695.463972 -231.247384 
L 709.800434 -233.099566 
L 724.136896 -233.323048 
L 738.473358 -232.985566 
L 752.80982 -232.489194 
L 767.146282 -234.61652 
L 781.482744 -233.806294 
L 795.819206 -233.603102 
L 810.155668 -233.861604 
L 810.155668 -238.069225 
L 810.155668 -238.069225 
L 795.819206 -236.718067 
L 781.482744 -237.795301 
L 767.146282 -238.202905 
L 752.80982 -238.593764 
L 738.473358 -238.35762 
L 724.136896 -238.27651 
L 709.800434 -238.850871 
L 695.463972 -237.134271 
L 681.12751 -237.870354 
L 666.791049 -239.275695 
L 652.454587 -239.889913 
L 638.118125 -239.705884 
L 623.781663 -239.418027 
L 609.445201 -239.617581 
L 595.108739 -240.125737 
L 580.772277 -239.997473 
L 566.435815 -240.450133 
L 552.099353 -240.672447 
L 537.762891 -240.922639 
L 523.426429 -241.730911 
L 509.089967 -241.405275 
L 494.753505 -241.17343 
L 480.417043 -240.910742 
L 466.080581 -240.884467 
L 451.744119 -240.5112 
L 437.407657 -240.459312 
L 423.071195 -240.784514 
L 408.734733 -240.425532 
L 394.398271 -241.323597 
L 380.061809 -240.37814 
L 365.725347 -240.66362 
L 351.388885 -240.733339 
L 337.052423 -240.124972 
L 322.715961 -240.108661 
L 308.379499 -240.330583 
L 294.043037 -240.368858 
L 279.706575 -239.758 
L 265.370113 -239.931134 
L 251.033651 -239.533401 
L 236.69719 -239.321434 
L 222.360728 -237.905632 
L 208.024266 -237.207793 
L 193.687804 -237.032892 
L 179.351342 -235.537334 
L 165.01488 -235.271586 
L 150.678418 -232.341756 
L 136.341956 -229.256332 
L 122.005494 -225.036834 
L 107.669032 -220.437516 
z
" style="stroke: #595c79; stroke-opacity: 0.15; stroke-width: 2.5"/>
    </defs>
    <g clip-path="url(#p66e2543a85)">
     <use xlink:href="#m3cc0621183" x="0" y="276.48" style="fill: #595c79; fill-opacity: 0.15; stroke: #595c79; stroke-opacity: 0.15; stroke-width: 2.5"/>
    </g>
   </g>
   <g id="PolyCollection_2">
    <defs>
     <path id="m14e18c3bb5" d="M 107.669032 -232.345177 
L 107.669032 -158.374991 
L 122.005494 -151.20898 
L 136.341956 -165.435489 
L 150.678418 -204.529416 
L 165.01488 -204.88508 
L 179.351342 -219.464627 
L 193.687804 -218.178071 
L 208.024266 -198.069947 
L 222.360728 -219.160077 
L 236.69719 -219.946839 
L 251.033651 -209.222433 
L 265.370113 -221.798391 
L 279.706575 -221.124822 
L 294.043037 -216.756605 
L 308.379499 -216.887556 
L 322.715961 -213.336852 
L 337.052423 -217.240274 
L 351.388885 -214.922273 
L 365.725347 -221.969137 
L 380.061809 -209.731137 
L 394.398271 -215.093815 
L 408.734733 -210.568816 
L 423.071195 -218.70661 
L 437.407657 -214.587427 
L 451.744119 -214.647243 
L 466.080581 -216.934514 
L 480.417043 -213.980135 
L 494.753505 -216.545547 
L 509.089967 -218.907094 
L 523.426429 -219.399891 
L 537.762891 -217.647237 
L 552.099353 -214.499733 
L 566.435815 -216.302952 
L 580.772277 -216.890347 
L 595.108739 -216.920477 
L 609.445201 -215.761172 
L 623.781663 -212.771484 
L 638.118125 -219.729579 
L 652.454587 -216.253038 
L 666.791049 -214.13887 
L 681.12751 -217.430256 
L 695.463972 -211.764102 
L 709.800434 -211.6657 
L 724.136896 -215.930471 
L 738.473358 -215.18461 
L 752.80982 -219.924451 
L 767.146282 -217.977184 
L 781.482744 -217.077559 
L 795.819206 -216.211992 
L 810.155668 -220.051174 
L 810.155668 -237.633692 
L 810.155668 -237.633692 
L 795.819206 -237.12687 
L 781.482744 -236.899346 
L 767.146282 -238.03712 
L 752.80982 -238.323624 
L 738.473358 -238.163141 
L 724.136896 -238.7479 
L 709.800434 -238.092585 
L 695.463972 -237.292365 
L 681.12751 -237.652784 
L 666.791049 -239.033638 
L 652.454587 -239.27307 
L 638.118125 -238.91445 
L 623.781663 -239.989297 
L 609.445201 -238.554238 
L 595.108739 -238.501068 
L 580.772277 -239.386356 
L 566.435815 -238.513503 
L 552.099353 -239.543624 
L 537.762891 -239.9731 
L 523.426429 -238.310217 
L 509.089967 -239.153354 
L 494.753505 -239.217832 
L 480.417043 -239.018826 
L 466.080581 -240.176891 
L 451.744119 -240.286643 
L 437.407657 -240.292752 
L 423.071195 -239.425624 
L 408.734733 -239.884279 
L 394.398271 -239.496128 
L 380.061809 -239.215858 
L 365.725347 -239.281618 
L 351.388885 -239.589693 
L 337.052423 -239.726598 
L 322.715961 -239.441325 
L 308.379499 -240.093229 
L 294.043037 -239.776533 
L 279.706575 -239.334437 
L 265.370113 -240.052163 
L 251.033651 -237.766525 
L 236.69719 -239.189356 
L 222.360728 -238.5844 
L 208.024266 -236.783217 
L 193.687804 -235.374805 
L 179.351342 -239.201625 
L 165.01488 -241.052236 
L 150.678418 -239.637426 
L 136.341956 -236.452267 
L 122.005494 -234.898661 
L 107.669032 -232.345177 
z
" style="stroke: #92aab1; stroke-opacity: 0.15; stroke-width: 2.5"/>
    </defs>
    <g clip-path="url(#p66e2543a85)">
     <use xlink:href="#m14e18c3bb5" x="0" y="276.48" style="fill: #92aab1; fill-opacity: 0.15; stroke: #92aab1; stroke-opacity: 0.15; stroke-width: 2.5"/>
    </g>
   </g>
   <g id="PolyCollection_3">
    <defs>
     <path id="m0404edf047" d="M 107.669032 -232.41778 
L 107.669032 -78.488976 
L 122.005494 -63.242795 
L 136.341956 -83.905972 
L 150.678418 -135.359962 
L 165.01488 -134.506437 
L 179.351342 -165.84333 
L 193.687804 -186.149934 
L 208.024266 -138.743507 
L 222.360728 -177.078053 
L 236.69719 -178.960076 
L 251.033651 -165.300858 
L 265.370113 -197.387137 
L 279.706575 -206.325493 
L 294.043037 -198.554019 
L 308.379499 -194.828061 
L 322.715961 -197.337512 
L 337.052423 -202.33693 
L 351.388885 -202.669182 
L 365.725347 -212.395747 
L 380.061809 -202.288618 
L 394.398271 -205.081016 
L 408.734733 -206.530649 
L 423.071195 -205.369741 
L 437.407657 -205.038906 
L 451.744119 -197.935677 
L 466.080581 -209.465007 
L 480.417043 -199.26237 
L 494.753505 -208.06689 
L 509.089967 -206.674035 
L 523.426429 -214.434655 
L 537.762891 -205.965808 
L 552.099353 -208.410088 
L 566.435815 -209.923166 
L 580.772277 -210.931829 
L 595.108739 -203.674041 
L 609.445201 -208.896383 
L 623.781663 -209.024791 
L 638.118125 -202.880023 
L 652.454587 -204.776083 
L 666.791049 -210.271253 
L 681.12751 -204.423696 
L 695.463972 -202.06867 
L 709.800434 -206.218387 
L 724.136896 -206.797255 
L 738.473358 -204.982066 
L 752.80982 -212.620873 
L 767.146282 -204.446632 
L 781.482744 -206.609784 
L 795.819206 -210.914619 
L 810.155668 -204.895685 
L 810.155668 -234.652542 
L 810.155668 -234.652542 
L 795.819206 -236.966088 
L 781.482744 -236.730439 
L 767.146282 -236.986275 
L 752.80982 -236.767857 
L 738.473358 -236.017034 
L 724.136896 -236.218107 
L 709.800434 -238.70825 
L 695.463972 -237.33063 
L 681.12751 -237.344667 
L 666.791049 -239.699713 
L 652.454587 -237.627118 
L 638.118125 -235.827569 
L 623.781663 -237.291549 
L 609.445201 -238.216529 
L 595.108739 -237.85518 
L 580.772277 -236.035433 
L 566.435815 -237.088822 
L 552.099353 -235.245053 
L 537.762891 -237.433043 
L 523.426429 -236.274058 
L 509.089967 -238.060698 
L 494.753505 -236.548778 
L 480.417043 -236.964465 
L 466.080581 -236.923429 
L 451.744119 -238.246246 
L 437.407657 -237.828998 
L 423.071195 -237.138043 
L 408.734733 -238.458058 
L 394.398271 -237.431596 
L 380.061809 -237.424402 
L 365.725347 -239.17749 
L 351.388885 -238.963258 
L 337.052423 -235.198229 
L 322.715961 -235.753839 
L 308.379499 -237.413114 
L 294.043037 -238.514329 
L 279.706575 -238.285276 
L 265.370113 -240.323812 
L 251.033651 -236.716547 
L 236.69719 -237.978968 
L 222.360728 -237.526525 
L 208.024266 -233.154928 
L 193.687804 -236.846703 
L 179.351342 -240.045041 
L 165.01488 -241.974705 
L 150.678418 -241.06034 
L 136.341956 -235.183893 
L 122.005494 -233.617304 
L 107.669032 -232.41778 
z
" style="stroke: #b2cece; stroke-opacity: 0.15; stroke-width: 2.5"/>
    </defs>
    <g clip-path="url(#p66e2543a85)">
     <use xlink:href="#m0404edf047" x="0" y="276.48" style="fill: #b2cece; fill-opacity: 0.15; stroke: #b2cece; stroke-opacity: 0.15; stroke-width: 2.5"/>
    </g>
   </g>
   <g id="matplotlib.axis_1">
    <g id="xtick_1">
     <g id="line2d_1">
      <defs>
       <path id="m4863f4f870" d="M 0 0 
L 0 8 
" style="stroke: #000000; stroke-width: 2"/>
      </defs>
      <g>
       <use xlink:href="#m4863f4f870" x="107.669032" y="222.1738" style="stroke: #000000; stroke-width: 2"/>
      </g>
     </g>
     <g id="text_1">
      <!-- 0 -->
      <g transform="translate(102.864382 246.0425)scale(0.1728 -0.1728)">
       <defs>
        <path id="ArialMT-30" d="M 266 2259 
Q 266 3072 433 3567 
Q 600 4063 929 4331 
Q 1259 4600 1759 4600 
Q 2128 4600 2406 4451 
Q 2684 4303 2865 4023 
Q 3047 3744 3150 3342 
Q 3253 2941 3253 2259 
Q 3253 1453 3087 958 
Q 2922 463 2592 192 
Q 2263 -78 1759 -78 
Q 1097 -78 719 397 
Q 266 969 266 2259 
z
M 844 2259 
Q 844 1131 1108 757 
Q 1372 384 1759 384 
Q 2147 384 2411 759 
Q 2675 1134 2675 2259 
Q 2675 3391 2411 3762 
Q 2147 4134 1753 4134 
Q 1366 4134 1134 3806 
Q 844 3388 844 2259 
z
" transform="scale(0.015625)"/>
       </defs>
       <use xlink:href="#ArialMT-30"/>
      </g>
     </g>
    </g>
    <g id="xtick_2">
     <g id="line2d_2">
      <g>
       <use xlink:href="#m4863f4f870" x="251.033651" y="222.1738" style="stroke: #000000; stroke-width: 2"/>
      </g>
     </g>
     <g id="text_2">
      <!-- 10 -->
      <g transform="translate(241.424351 246.0425)scale(0.1728 -0.1728)">
       <defs>
        <path id="ArialMT-31" d="M 2384 0 
L 1822 0 
L 1822 3584 
Q 1619 3391 1289 3197 
Q 959 3003 697 2906 
L 697 3450 
Q 1169 3672 1522 3987 
Q 1875 4303 2022 4600 
L 2384 4600 
L 2384 0 
z
" transform="scale(0.015625)"/>
       </defs>
       <use xlink:href="#ArialMT-31"/>
       <use xlink:href="#ArialMT-30" x="55.615234"/>
      </g>
     </g>
    </g>
    <g id="xtick_3">
     <g id="line2d_3">
      <g>
       <use xlink:href="#m4863f4f870" x="394.398271" y="222.1738" style="stroke: #000000; stroke-width: 2"/>
      </g>
     </g>
     <g id="text_3">
      <!-- 20 -->
      <g transform="translate(384.788971 246.0425)scale(0.1728 -0.1728)">
       <defs>
        <path id="ArialMT-32" d="M 3222 541 
L 3222 0 
L 194 0 
Q 188 203 259 391 
Q 375 700 629 1000 
Q 884 1300 1366 1694 
Q 2113 2306 2375 2664 
Q 2638 3022 2638 3341 
Q 2638 3675 2398 3904 
Q 2159 4134 1775 4134 
Q 1369 4134 1125 3890 
Q 881 3647 878 3216 
L 300 3275 
Q 359 3922 746 4261 
Q 1134 4600 1788 4600 
Q 2447 4600 2831 4234 
Q 3216 3869 3216 3328 
Q 3216 3053 3103 2787 
Q 2991 2522 2730 2228 
Q 2469 1934 1863 1422 
Q 1356 997 1212 845 
Q 1069 694 975 541 
L 3222 541 
z
" transform="scale(0.015625)"/>
       </defs>
       <use xlink:href="#ArialMT-32"/>
       <use xlink:href="#ArialMT-30" x="55.615234"/>
      </g>
     </g>
    </g>
    <g id="xtick_4">
     <g id="line2d_4">
      <g>
       <use xlink:href="#m4863f4f870" x="537.762891" y="222.1738" style="stroke: #000000; stroke-width: 2"/>
      </g>
     </g>
     <g id="text_4">
      <!-- 30 -->
      <g transform="translate(528.153591 246.0425)scale(0.1728 -0.1728)">
       <defs>
        <path id="ArialMT-33" d="M 269 1209 
L 831 1284 
Q 928 806 1161 595 
Q 1394 384 1728 384 
Q 2125 384 2398 659 
Q 2672 934 2672 1341 
Q 2672 1728 2419 1979 
Q 2166 2231 1775 2231 
Q 1616 2231 1378 2169 
L 1441 2663 
Q 1497 2656 1531 2656 
Q 1891 2656 2178 2843 
Q 2466 3031 2466 3422 
Q 2466 3731 2256 3934 
Q 2047 4138 1716 4138 
Q 1388 4138 1169 3931 
Q 950 3725 888 3313 
L 325 3413 
Q 428 3978 793 4289 
Q 1159 4600 1703 4600 
Q 2078 4600 2393 4439 
Q 2709 4278 2876 4000 
Q 3044 3722 3044 3409 
Q 3044 3113 2884 2869 
Q 2725 2625 2413 2481 
Q 2819 2388 3044 2092 
Q 3269 1797 3269 1353 
Q 3269 753 2831 336 
Q 2394 -81 1725 -81 
Q 1122 -81 723 278 
Q 325 638 269 1209 
z
" transform="scale(0.015625)"/>
       </defs>
       <use xlink:href="#ArialMT-33"/>
       <use xlink:href="#ArialMT-30" x="55.615234"/>
      </g>
     </g>
    </g>
    <g id="xtick_5">
     <g id="line2d_5">
      <g>
       <use xlink:href="#m4863f4f870" x="681.12751" y="222.1738" style="stroke: #000000; stroke-width: 2"/>
      </g>
     </g>
     <g id="text_5">
      <!-- 40 -->
      <g transform="translate(671.51821 246.0425)scale(0.1728 -0.1728)">
       <defs>
        <path id="ArialMT-34" d="M 2069 0 
L 2069 1097 
L 81 1097 
L 81 1613 
L 2172 4581 
L 2631 4581 
L 2631 1613 
L 3250 1613 
L 3250 1097 
L 2631 1097 
L 2631 0 
L 2069 0 
z
M 2069 1613 
L 2069 3678 
L 634 1613 
L 2069 1613 
z
" transform="scale(0.015625)"/>
       </defs>
       <use xlink:href="#ArialMT-34"/>
       <use xlink:href="#ArialMT-30" x="55.615234"/>
      </g>
     </g>
    </g>
    <g id="xtick_6">
     <g id="line2d_6">
      <g>
       <use xlink:href="#m4863f4f870" x="824.49213" y="222.1738" style="stroke: #000000; stroke-width: 2"/>
      </g>
     </g>
     <g id="text_6">
      <!-- 50 -->
      <g transform="translate(814.88283 246.0425)scale(0.1728 -0.1728)">
       <defs>
        <path id="ArialMT-35" d="M 266 1200 
L 856 1250 
Q 922 819 1161 601 
Q 1400 384 1738 384 
Q 2144 384 2425 690 
Q 2706 997 2706 1503 
Q 2706 1984 2436 2262 
Q 2166 2541 1728 2541 
Q 1456 2541 1237 2417 
Q 1019 2294 894 2097 
L 366 2166 
L 809 4519 
L 3088 4519 
L 3088 3981 
L 1259 3981 
L 1013 2750 
Q 1425 3038 1878 3038 
Q 2478 3038 2890 2622 
Q 3303 2206 3303 1553 
Q 3303 931 2941 478 
Q 2500 -78 1738 -78 
Q 1113 -78 717 272 
Q 322 622 266 1200 
z
" transform="scale(0.015625)"/>
       </defs>
       <use xlink:href="#ArialMT-35"/>
       <use xlink:href="#ArialMT-30" x="55.615234"/>
      </g>
     </g>
    </g>
    <g id="text_7">
     <!-- Epoch -->
     <g transform="translate(434.41525 265.8456)scale(0.1728 -0.1728)">
      <defs>
       <path id="ArialMT-45" d="M 506 0 
L 506 4581 
L 3819 4581 
L 3819 4041 
L 1113 4041 
L 1113 2638 
L 3647 2638 
L 3647 2100 
L 1113 2100 
L 1113 541 
L 3925 541 
L 3925 0 
L 506 0 
z
" transform="scale(0.015625)"/>
       <path id="ArialMT-70" d="M 422 -1272 
L 422 3319 
L 934 3319 
L 934 2888 
Q 1116 3141 1344 3267 
Q 1572 3394 1897 3394 
Q 2322 3394 2647 3175 
Q 2972 2956 3137 2557 
Q 3303 2159 3303 1684 
Q 3303 1175 3120 767 
Q 2938 359 2589 142 
Q 2241 -75 1856 -75 
Q 1575 -75 1351 44 
Q 1128 163 984 344 
L 984 -1272 
L 422 -1272 
z
M 931 1641 
Q 931 1000 1190 694 
Q 1450 388 1819 388 
Q 2194 388 2461 705 
Q 2728 1022 2728 1688 
Q 2728 2322 2467 2637 
Q 2206 2953 1844 2953 
Q 1484 2953 1207 2617 
Q 931 2281 931 1641 
z
" transform="scale(0.015625)"/>
       <path id="ArialMT-6f" d="M 213 1659 
Q 213 2581 725 3025 
Q 1153 3394 1769 3394 
Q 2453 3394 2887 2945 
Q 3322 2497 3322 1706 
Q 3322 1066 3130 698 
Q 2938 331 2570 128 
Q 2203 -75 1769 -75 
Q 1072 -75 642 372 
Q 213 819 213 1659 
z
M 791 1659 
Q 791 1022 1069 705 
Q 1347 388 1769 388 
Q 2188 388 2466 706 
Q 2744 1025 2744 1678 
Q 2744 2294 2464 2611 
Q 2184 2928 1769 2928 
Q 1347 2928 1069 2612 
Q 791 2297 791 1659 
z
" transform="scale(0.015625)"/>
       <path id="ArialMT-63" d="M 2588 1216 
L 3141 1144 
Q 3050 572 2676 248 
Q 2303 -75 1759 -75 
Q 1078 -75 664 370 
Q 250 816 250 1647 
Q 250 2184 428 2587 
Q 606 2991 970 3192 
Q 1334 3394 1763 3394 
Q 2303 3394 2647 3120 
Q 2991 2847 3088 2344 
L 2541 2259 
Q 2463 2594 2264 2762 
Q 2066 2931 1784 2931 
Q 1359 2931 1093 2626 
Q 828 2322 828 1663 
Q 828 994 1084 691 
Q 1341 388 1753 388 
Q 2084 388 2306 591 
Q 2528 794 2588 1216 
z
" transform="scale(0.015625)"/>
       <path id="ArialMT-68" d="M 422 0 
L 422 4581 
L 984 4581 
L 984 2938 
Q 1378 3394 1978 3394 
Q 2347 3394 2619 3248 
Q 2891 3103 3008 2847 
Q 3125 2591 3125 2103 
L 3125 0 
L 2563 0 
L 2563 2103 
Q 2563 2525 2380 2717 
Q 2197 2909 1863 2909 
Q 1613 2909 1392 2779 
Q 1172 2650 1078 2428 
Q 984 2206 984 1816 
L 984 0 
L 422 0 
z
" transform="scale(0.015625)"/>
      </defs>
      <use xlink:href="#ArialMT-45"/>
      <use xlink:href="#ArialMT-70" x="66.699219"/>
      <use xlink:href="#ArialMT-6f" x="122.314453"/>
      <use xlink:href="#ArialMT-63" x="177.929688"/>
      <use xlink:href="#ArialMT-68" x="227.929688"/>
     </g>
    </g>
   </g>
   <g id="matplotlib.axis_2">
    <g id="ytick_1">
     <g id="line2d_7">
      <defs>
       <path id="m9568833660" d="M 0 0 
L -8 0 
" style="stroke: #000000; stroke-width: 2"/>
      </defs>
      <g>
       <use xlink:href="#m9568833660" x="72.5447" y="183.174861" style="stroke: #000000; stroke-width: 2"/>
      </g>
     </g>
     <g id="text_8">
      <!-- 0.97 -->
      <g transform="translate(27.4162 189.359211)scale(0.1728 -0.1728)">
       <defs>
        <path id="ArialMT-2e" d="M 581 0 
L 581 641 
L 1222 641 
L 1222 0 
L 581 0 
z
" transform="scale(0.015625)"/>
        <path id="ArialMT-39" d="M 350 1059 
L 891 1109 
Q 959 728 1153 556 
Q 1347 384 1650 384 
Q 1909 384 2104 503 
Q 2300 622 2425 820 
Q 2550 1019 2634 1356 
Q 2719 1694 2719 2044 
Q 2719 2081 2716 2156 
Q 2547 1888 2255 1720 
Q 1963 1553 1622 1553 
Q 1053 1553 659 1965 
Q 266 2378 266 3053 
Q 266 3750 677 4175 
Q 1088 4600 1706 4600 
Q 2153 4600 2523 4359 
Q 2894 4119 3086 3673 
Q 3278 3228 3278 2384 
Q 3278 1506 3087 986 
Q 2897 466 2520 194 
Q 2144 -78 1638 -78 
Q 1100 -78 759 220 
Q 419 519 350 1059 
z
M 2653 3081 
Q 2653 3566 2395 3850 
Q 2138 4134 1775 4134 
Q 1400 4134 1122 3828 
Q 844 3522 844 3034 
Q 844 2597 1108 2323 
Q 1372 2050 1759 2050 
Q 2150 2050 2401 2323 
Q 2653 2597 2653 3081 
z
" transform="scale(0.015625)"/>
        <path id="ArialMT-37" d="M 303 3981 
L 303 4522 
L 3269 4522 
L 3269 4084 
Q 2831 3619 2401 2847 
Q 1972 2075 1738 1259 
Q 1569 684 1522 0 
L 944 0 
Q 953 541 1156 1306 
Q 1359 2072 1739 2783 
Q 2119 3494 2547 3981 
L 303 3981 
z
" transform="scale(0.015625)"/>
       </defs>
       <use xlink:href="#ArialMT-30"/>
       <use xlink:href="#ArialMT-2e" x="55.615234"/>
       <use xlink:href="#ArialMT-39" x="83.398438"/>
       <use xlink:href="#ArialMT-37" x="139.013672"/>
      </g>
     </g>
    </g>
    <g id="ytick_2">
     <g id="line2d_8">
      <g>
       <use xlink:href="#m9568833660" x="72.5447" y="131.150265" style="stroke: #000000; stroke-width: 2"/>
      </g>
     </g>
     <g id="text_9">
      <!-- 0.98 -->
      <g transform="translate(27.4162 137.334615)scale(0.1728 -0.1728)">
       <defs>
        <path id="ArialMT-38" d="M 1131 2484 
Q 781 2613 612 2850 
Q 444 3088 444 3419 
Q 444 3919 803 4259 
Q 1163 4600 1759 4600 
Q 2359 4600 2725 4251 
Q 3091 3903 3091 3403 
Q 3091 3084 2923 2848 
Q 2756 2613 2416 2484 
Q 2838 2347 3058 2040 
Q 3278 1734 3278 1309 
Q 3278 722 2862 322 
Q 2447 -78 1769 -78 
Q 1091 -78 675 323 
Q 259 725 259 1325 
Q 259 1772 486 2073 
Q 713 2375 1131 2484 
z
M 1019 3438 
Q 1019 3113 1228 2906 
Q 1438 2700 1772 2700 
Q 2097 2700 2305 2904 
Q 2513 3109 2513 3406 
Q 2513 3716 2298 3927 
Q 2084 4138 1766 4138 
Q 1444 4138 1231 3931 
Q 1019 3725 1019 3438 
z
M 838 1322 
Q 838 1081 952 856 
Q 1066 631 1291 507 
Q 1516 384 1775 384 
Q 2178 384 2440 643 
Q 2703 903 2703 1303 
Q 2703 1709 2433 1975 
Q 2163 2241 1756 2241 
Q 1359 2241 1098 1978 
Q 838 1716 838 1322 
z
" transform="scale(0.015625)"/>
       </defs>
       <use xlink:href="#ArialMT-30"/>
       <use xlink:href="#ArialMT-2e" x="55.615234"/>
       <use xlink:href="#ArialMT-39" x="83.398438"/>
       <use xlink:href="#ArialMT-38" x="139.013672"/>
      </g>
     </g>
    </g>
    <g id="ytick_3">
     <g id="line2d_9">
      <g>
       <use xlink:href="#m9568833660" x="72.5447" y="79.125669" style="stroke: #000000; stroke-width: 2"/>
      </g>
     </g>
     <g id="text_10">
      <!-- 0.99 -->
      <g transform="translate(27.4162 85.310019)scale(0.1728 -0.1728)">
       <use xlink:href="#ArialMT-30"/>
       <use xlink:href="#ArialMT-2e" x="55.615234"/>
       <use xlink:href="#ArialMT-39" x="83.398438"/>
       <use xlink:href="#ArialMT-39" x="139.013672"/>
      </g>
     </g>
    </g>
    <g id="ytick_4">
     <g id="line2d_10">
      <g>
       <use xlink:href="#m9568833660" x="72.5447" y="27.101072" style="stroke: #000000; stroke-width: 2"/>
      </g>
     </g>
     <g id="text_11">
      <!-- 1.00 -->
      <g transform="translate(27.4162 33.285422)scale(0.1728 -0.1728)">
       <use xlink:href="#ArialMT-31"/>
       <use xlink:href="#ArialMT-2e" x="55.615234"/>
       <use xlink:href="#ArialMT-30" x="83.398438"/>
       <use xlink:href="#ArialMT-30" x="139.013672"/>
      </g>
     </g>
    </g>
    <g id="text_12">
     <!-- Gradient Alignment -->
     <g transform="translate(19.7793 197.3504)rotate(-90)scale(0.1728 -0.1728)">
      <defs>
       <path id="ArialMT-47" d="M 2638 1797 
L 2638 2334 
L 4578 2338 
L 4578 638 
Q 4131 281 3656 101 
Q 3181 -78 2681 -78 
Q 2006 -78 1454 211 
Q 903 500 622 1047 
Q 341 1594 341 2269 
Q 341 2938 620 3517 
Q 900 4097 1425 4378 
Q 1950 4659 2634 4659 
Q 3131 4659 3532 4498 
Q 3934 4338 4162 4050 
Q 4391 3763 4509 3300 
L 3963 3150 
Q 3859 3500 3706 3700 
Q 3553 3900 3268 4020 
Q 2984 4141 2638 4141 
Q 2222 4141 1919 4014 
Q 1616 3888 1430 3681 
Q 1244 3475 1141 3228 
Q 966 2803 966 2306 
Q 966 1694 1177 1281 
Q 1388 869 1791 669 
Q 2194 469 2647 469 
Q 3041 469 3416 620 
Q 3791 772 3984 944 
L 3984 1797 
L 2638 1797 
z
" transform="scale(0.015625)"/>
       <path id="ArialMT-72" d="M 416 0 
L 416 3319 
L 922 3319 
L 922 2816 
Q 1116 3169 1280 3281 
Q 1444 3394 1641 3394 
Q 1925 3394 2219 3213 
L 2025 2691 
Q 1819 2813 1613 2813 
Q 1428 2813 1281 2702 
Q 1134 2591 1072 2394 
Q 978 2094 978 1738 
L 978 0 
L 416 0 
z
" transform="scale(0.015625)"/>
       <path id="ArialMT-61" d="M 2588 409 
Q 2275 144 1986 34 
Q 1697 -75 1366 -75 
Q 819 -75 525 192 
Q 231 459 231 875 
Q 231 1119 342 1320 
Q 453 1522 633 1644 
Q 813 1766 1038 1828 
Q 1203 1872 1538 1913 
Q 2219 1994 2541 2106 
Q 2544 2222 2544 2253 
Q 2544 2597 2384 2738 
Q 2169 2928 1744 2928 
Q 1347 2928 1158 2789 
Q 969 2650 878 2297 
L 328 2372 
Q 403 2725 575 2942 
Q 747 3159 1072 3276 
Q 1397 3394 1825 3394 
Q 2250 3394 2515 3294 
Q 2781 3194 2906 3042 
Q 3031 2891 3081 2659 
Q 3109 2516 3109 2141 
L 3109 1391 
Q 3109 606 3145 398 
Q 3181 191 3288 0 
L 2700 0 
Q 2613 175 2588 409 
z
M 2541 1666 
Q 2234 1541 1622 1453 
Q 1275 1403 1131 1340 
Q 988 1278 909 1158 
Q 831 1038 831 891 
Q 831 666 1001 516 
Q 1172 366 1500 366 
Q 1825 366 2078 508 
Q 2331 650 2450 897 
Q 2541 1088 2541 1459 
L 2541 1666 
z
" transform="scale(0.015625)"/>
       <path id="ArialMT-64" d="M 2575 0 
L 2575 419 
Q 2259 -75 1647 -75 
Q 1250 -75 917 144 
Q 584 363 401 755 
Q 219 1147 219 1656 
Q 219 2153 384 2558 
Q 550 2963 881 3178 
Q 1213 3394 1622 3394 
Q 1922 3394 2156 3267 
Q 2391 3141 2538 2938 
L 2538 4581 
L 3097 4581 
L 3097 0 
L 2575 0 
z
M 797 1656 
Q 797 1019 1065 703 
Q 1334 388 1700 388 
Q 2069 388 2326 689 
Q 2584 991 2584 1609 
Q 2584 2291 2321 2609 
Q 2059 2928 1675 2928 
Q 1300 2928 1048 2622 
Q 797 2316 797 1656 
z
" transform="scale(0.015625)"/>
       <path id="ArialMT-69" d="M 425 3934 
L 425 4581 
L 988 4581 
L 988 3934 
L 425 3934 
z
M 425 0 
L 425 3319 
L 988 3319 
L 988 0 
L 425 0 
z
" transform="scale(0.015625)"/>
       <path id="ArialMT-65" d="M 2694 1069 
L 3275 997 
Q 3138 488 2766 206 
Q 2394 -75 1816 -75 
Q 1088 -75 661 373 
Q 234 822 234 1631 
Q 234 2469 665 2931 
Q 1097 3394 1784 3394 
Q 2450 3394 2872 2941 
Q 3294 2488 3294 1666 
Q 3294 1616 3291 1516 
L 816 1516 
Q 847 969 1125 678 
Q 1403 388 1819 388 
Q 2128 388 2347 550 
Q 2566 713 2694 1069 
z
M 847 1978 
L 2700 1978 
Q 2663 2397 2488 2606 
Q 2219 2931 1791 2931 
Q 1403 2931 1139 2672 
Q 875 2413 847 1978 
z
" transform="scale(0.015625)"/>
       <path id="ArialMT-6e" d="M 422 0 
L 422 3319 
L 928 3319 
L 928 2847 
Q 1294 3394 1984 3394 
Q 2284 3394 2536 3286 
Q 2788 3178 2913 3003 
Q 3038 2828 3088 2588 
Q 3119 2431 3119 2041 
L 3119 0 
L 2556 0 
L 2556 2019 
Q 2556 2363 2490 2533 
Q 2425 2703 2258 2804 
Q 2091 2906 1866 2906 
Q 1506 2906 1245 2678 
Q 984 2450 984 1813 
L 984 0 
L 422 0 
z
" transform="scale(0.015625)"/>
       <path id="ArialMT-74" d="M 1650 503 
L 1731 6 
Q 1494 -44 1306 -44 
Q 1000 -44 831 53 
Q 663 150 594 308 
Q 525 466 525 972 
L 525 2881 
L 113 2881 
L 113 3319 
L 525 3319 
L 525 4141 
L 1084 4478 
L 1084 3319 
L 1650 3319 
L 1650 2881 
L 1084 2881 
L 1084 941 
Q 1084 700 1114 631 
Q 1144 563 1211 522 
Q 1278 481 1403 481 
Q 1497 481 1650 503 
z
" transform="scale(0.015625)"/>
       <path id="ArialMT-20" transform="scale(0.015625)"/>
       <path id="ArialMT-41" d="M -9 0 
L 1750 4581 
L 2403 4581 
L 4278 0 
L 3588 0 
L 3053 1388 
L 1138 1388 
L 634 0 
L -9 0 
z
M 1313 1881 
L 2866 1881 
L 2388 3150 
Q 2169 3728 2063 4100 
Q 1975 3659 1816 3225 
L 1313 1881 
z
" transform="scale(0.015625)"/>
       <path id="ArialMT-6c" d="M 409 0 
L 409 4581 
L 972 4581 
L 972 0 
L 409 0 
z
" transform="scale(0.015625)"/>
       <path id="ArialMT-67" d="M 319 -275 
L 866 -356 
Q 900 -609 1056 -725 
Q 1266 -881 1628 -881 
Q 2019 -881 2231 -725 
Q 2444 -569 2519 -288 
Q 2563 -116 2559 434 
Q 2191 0 1641 0 
Q 956 0 581 494 
Q 206 988 206 1678 
Q 206 2153 378 2554 
Q 550 2956 876 3175 
Q 1203 3394 1644 3394 
Q 2231 3394 2613 2919 
L 2613 3319 
L 3131 3319 
L 3131 450 
Q 3131 -325 2973 -648 
Q 2816 -972 2473 -1159 
Q 2131 -1347 1631 -1347 
Q 1038 -1347 672 -1080 
Q 306 -813 319 -275 
z
M 784 1719 
Q 784 1066 1043 766 
Q 1303 466 1694 466 
Q 2081 466 2343 764 
Q 2606 1063 2606 1700 
Q 2606 2309 2336 2618 
Q 2066 2928 1684 2928 
Q 1309 2928 1046 2623 
Q 784 2319 784 1719 
z
" transform="scale(0.015625)"/>
       <path id="ArialMT-6d" d="M 422 0 
L 422 3319 
L 925 3319 
L 925 2853 
Q 1081 3097 1340 3245 
Q 1600 3394 1931 3394 
Q 2300 3394 2536 3241 
Q 2772 3088 2869 2813 
Q 3263 3394 3894 3394 
Q 4388 3394 4653 3120 
Q 4919 2847 4919 2278 
L 4919 0 
L 4359 0 
L 4359 2091 
Q 4359 2428 4304 2576 
Q 4250 2725 4106 2815 
Q 3963 2906 3769 2906 
Q 3419 2906 3187 2673 
Q 2956 2441 2956 1928 
L 2956 0 
L 2394 0 
L 2394 2156 
Q 2394 2531 2256 2718 
Q 2119 2906 1806 2906 
Q 1569 2906 1367 2781 
Q 1166 2656 1075 2415 
Q 984 2175 984 1722 
L 984 0 
L 422 0 
z
" transform="scale(0.015625)"/>
      </defs>
      <use xlink:href="#ArialMT-47"/>
      <use xlink:href="#ArialMT-72" x="77.783203"/>
      <use xlink:href="#ArialMT-61" x="111.083984"/>
      <use xlink:href="#ArialMT-64" x="166.699219"/>
      <use xlink:href="#ArialMT-69" x="222.314453"/>
      <use xlink:href="#ArialMT-65" x="244.53125"/>
      <use xlink:href="#ArialMT-6e" x="300.146484"/>
      <use xlink:href="#ArialMT-74" x="355.761719"/>
      <use xlink:href="#ArialMT-20" x="383.544922"/>
      <use xlink:href="#ArialMT-41" x="405.828125"/>
      <use xlink:href="#ArialMT-6c" x="472.527344"/>
      <use xlink:href="#ArialMT-69" x="494.744141"/>
      <use xlink:href="#ArialMT-67" x="516.960938"/>
      <use xlink:href="#ArialMT-6e" x="572.576172"/>
      <use xlink:href="#ArialMT-6d" x="628.191406"/>
      <use xlink:href="#ArialMT-65" x="711.492188"/>
      <use xlink:href="#ArialMT-6e" x="767.107422"/>
      <use xlink:href="#ArialMT-74" x="822.722656"/>
     </g>
    </g>
   </g>
   <g id="line2d_11">
    <path d="M 107.669032 58.398326 
L 122.005494 54.046502 
L 136.341956 51.187625 
L 150.678418 48.363293 
L 165.01488 45.702171 
L 179.351342 44.95769 
L 193.687804 44.013991 
L 208.024266 43.966004 
L 222.360728 43.65505 
L 236.69719 43.006749 
L 251.033651 42.635865 
L 265.370113 42.479181 
L 279.706575 42.750231 
L 294.043037 41.727376 
L 308.379499 42.017937 
L 322.715961 42.482644 
L 337.052423 41.579411 
L 351.388885 41.886882 
L 365.725347 42.196513 
L 380.061809 42.532842 
L 394.398271 41.836074 
L 408.734733 41.99854 
L 423.071195 41.674397 
L 437.407657 41.840523 
L 451.744119 41.886417 
L 466.080581 41.628426 
L 480.417043 41.563974 
L 494.753505 41.431539 
L 509.089967 41.130503 
L 523.426429 41.328631 
L 537.762891 41.102094 
L 552.099353 41.681447 
L 566.435815 40.825302 
L 580.772277 41.277218 
L 595.108739 41.293932 
L 609.445201 40.807642 
L 623.781663 41.934693 
L 638.118125 40.680577 
L 652.454587 41.117237 
L 666.791049 40.87734 
L 681.12751 41.440067 
L 695.463972 42.289173 
L 709.800434 40.504782 
L 724.136896 40.680221 
L 738.473358 40.808407 
L 752.80982 40.938521 
L 767.146282 40.070288 
L 781.482744 40.679202 
L 795.819206 41.319416 
L 810.155668 40.514586 
" clip-path="url(#p66e2543a85)" style="fill: none; stroke-dasharray: 20,10; stroke-dashoffset: 0; stroke: #595c79; stroke-width: 2.5"/>
   </g>
   <g id="line2d_12">
    <path d="M 107.669032 81.119916 
L 122.005494 83.42618 
L 136.341956 75.536122 
L 150.678418 54.396579 
L 165.01488 53.511342 
L 179.351342 47.146874 
L 193.687804 49.703562 
L 208.024266 59.053418 
L 222.360728 47.607762 
L 236.69719 46.911903 
L 251.033651 52.985521 
L 265.370113 45.554723 
L 279.706575 46.25037 
L 294.043037 48.213431 
L 308.379499 47.989608 
L 322.715961 50.090912 
L 337.052423 47.996564 
L 351.388885 49.224017 
L 365.725347 45.854622 
L 380.061809 52.006503 
L 394.398271 49.185028 
L 408.734733 51.253452 
L 423.071195 47.413883 
L 437.407657 49.039911 
L 451.744119 49.013057 
L 466.080581 47.924297 
L 480.417043 49.980519 
L 494.753505 48.598311 
L 509.089967 47.449776 
L 523.426429 47.624946 
L 537.762891 47.669832 
L 552.099353 49.458321 
L 566.435815 49.071773 
L 580.772277 48.341648 
L 595.108739 48.769227 
L 609.445201 49.322295 
L 623.781663 50.09961 
L 638.118125 47.157985 
L 652.454587 48.716946 
L 666.791049 49.893746 
L 681.12751 48.93848 
L 695.463972 51.951766 
L 709.800434 51.600857 
L 724.136896 49.140814 
L 738.473358 49.806124 
L 752.80982 47.355963 
L 767.146282 48.472848 
L 781.482744 49.491548 
L 795.819206 49.810569 
L 810.155668 47.637567 
" clip-path="url(#p66e2543a85)" style="fill: none; stroke-dasharray: 20,10; stroke-dashoffset: 0; stroke: #92aab1; stroke-width: 2.5"/>
   </g>
   <g id="line2d_13">
    <path d="M 107.669032 121.026622 
L 122.005494 128.04995 
L 136.341956 116.935068 
L 150.678418 88.269849 
L 165.01488 88.239429 
L 179.351342 73.535814 
L 193.687804 64.981682 
L 208.024266 90.530783 
L 222.360728 69.177711 
L 236.69719 68.010478 
L 251.033651 75.471298 
L 265.370113 57.624525 
L 279.706575 54.174616 
L 294.043037 57.945826 
L 308.379499 60.359412 
L 322.715961 59.934324 
L 337.052423 57.712421 
L 351.388885 55.66378 
L 365.725347 50.693382 
L 380.061809 56.62349 
L 394.398271 55.223694 
L 408.734733 53.985646 
L 423.071195 55.226108 
L 437.407657 55.046048 
L 451.744119 58.389039 
L 466.080581 53.285782 
L 480.417043 58.366583 
L 494.753505 54.172166 
L 509.089967 54.112634 
L 523.426429 51.125643 
L 537.762891 54.780574 
L 552.099353 54.652429 
L 566.435815 52.974006 
L 580.772277 52.996369 
L 595.108739 55.71539 
L 609.445201 52.923544 
L 623.781663 53.32183 
L 638.118125 57.126204 
L 652.454587 55.278399 
L 666.791049 51.494517 
L 681.12751 55.595819 
L 695.463972 56.78035 
L 709.800434 54.016681 
L 724.136896 54.972319 
L 738.473358 55.98045 
L 752.80982 51.785635 
L 767.146282 55.763547 
L 781.482744 54.809888 
L 795.819206 52.539647 
L 810.155668 56.705887 
" clip-path="url(#p66e2543a85)" style="fill: none; stroke-dasharray: 20,10; stroke-dashoffset: 0; stroke: #b2cece; stroke-width: 2.5"/>
   </g>
   <g id="patch_3">
    <path d="M 72.5447 222.1738 
L 72.5447 25.5687 
" style="fill: none; stroke: #000000; stroke-width: 1.5; stroke-linejoin: miter; stroke-linecap: square"/>
   </g>
   <g id="patch_4">
    <path d="M 72.5447 222.1738 
L 845.28 222.1738 
" style="fill: none; stroke: #000000; stroke-width: 1.5; stroke-linejoin: miter; stroke-linecap: square"/>
   </g>
   <g id="text_13">
    <!-- I-Norm /w GradNorm -->
    <g transform="translate(378.75205 19.5687)scale(0.1728 -0.1728)">
     <defs>
      <path id="ArialMT-49" d="M 597 0 
L 597 4581 
L 1203 4581 
L 1203 0 
L 597 0 
z
" transform="scale(0.015625)"/>
      <path id="ArialMT-2d" d="M 203 1375 
L 203 1941 
L 1931 1941 
L 1931 1375 
L 203 1375 
z
" transform="scale(0.015625)"/>
      <path id="ArialMT-4e" d="M 488 0 
L 488 4581 
L 1109 4581 
L 3516 984 
L 3516 4581 
L 4097 4581 
L 4097 0 
L 3475 0 
L 1069 3600 
L 1069 0 
L 488 0 
z
" transform="scale(0.015625)"/>
      <path id="ArialMT-2f" d="M 0 -78 
L 1328 4659 
L 1778 4659 
L 453 -78 
L 0 -78 
z
" transform="scale(0.015625)"/>
      <path id="ArialMT-77" d="M 1034 0 
L 19 3319 
L 600 3319 
L 1128 1403 
L 1325 691 
Q 1338 744 1497 1375 
L 2025 3319 
L 2603 3319 
L 3100 1394 
L 3266 759 
L 3456 1400 
L 4025 3319 
L 4572 3319 
L 3534 0 
L 2950 0 
L 2422 1988 
L 2294 2553 
L 1622 0 
L 1034 0 
z
" transform="scale(0.015625)"/>
     </defs>
     <use xlink:href="#ArialMT-49"/>
     <use xlink:href="#ArialMT-2d" x="27.783203"/>
     <use xlink:href="#ArialMT-4e" x="61.083984"/>
     <use xlink:href="#ArialMT-6f" x="133.300781"/>
     <use xlink:href="#ArialMT-72" x="188.916016"/>
     <use xlink:href="#ArialMT-6d" x="222.216797"/>
     <use xlink:href="#ArialMT-20" x="305.517578"/>
     <use xlink:href="#ArialMT-2f" x="333.300781"/>
     <use xlink:href="#ArialMT-77" x="361.083984"/>
     <use xlink:href="#ArialMT-20" x="433.300781"/>
     <use xlink:href="#ArialMT-47" x="461.083984"/>
     <use xlink:href="#ArialMT-72" x="538.867188"/>
     <use xlink:href="#ArialMT-61" x="572.167969"/>
     <use xlink:href="#ArialMT-64" x="627.783203"/>
     <use xlink:href="#ArialMT-4e" x="683.398438"/>
     <use xlink:href="#ArialMT-6f" x="755.615234"/>
     <use xlink:href="#ArialMT-72" x="811.230469"/>
     <use xlink:href="#ArialMT-6d" x="844.53125"/>
    </g>
   </g>
  </g>
 </g>
 <defs>
  <clipPath id="p66e2543a85">
   <rect x="72.5447" y="25.5687" width="772.7353" height="196.6051"/>
  </clipPath>
 </defs>
</svg>
