<?xml version="1.0" encoding="utf-8" standalone="no"?>
<!DOCTYPE svg PUBLIC "-//W3C//DTD SVG 1.1//EN"
  "http://www.w3.org/Graphics/SVG/1.1/DTD/svg11.dtd">
<svg xmlns:xlink="http://www.w3.org/1999/xlink" width="564.48pt" height="276.48pt" viewBox="0 0 564.48 276.48" xmlns="http://www.w3.org/2000/svg" version="1.1">
 <metadata>
  <rdf:RDF xmlns:dc="http://purl.org/dc/elements/1.1/" xmlns:cc="http://creativecommons.org/ns#" xmlns:rdf="http://www.w3.org/1999/02/22-rdf-syntax-ns#">
   <cc:Work>
    <dc:type rdf:resource="http://purl.org/dc/dcmitype/StillImage"/>
    <dc:date>2025-07-25T22:17:56.773587</dc:date>
    <dc:format>image/svg+xml</dc:format>
    <dc:creator>
     <cc:Agent>
      <dc:title>Matplotlib v3.5.3, https://matplotlib.org/</dc:title>
     </cc:Agent>
    </dc:creator>
   </cc:Work>
  </rdf:RDF>
 </metadata>
 <defs>
  <style type="text/css">*{stroke-linejoin: round; stroke-linecap: butt}</style>
 </defs>
 <g id="figure_1">
  <g id="patch_1">
   <path d="M 0 276.48 
L 564.48 276.48 
L 564.48 0 
L 0 0 
z
" style="fill: #ffffff"/>
  </g>
  <g id="axes_1">
   <g id="patch_2">
    <path d="M 64.8632 222.1738 
L 557.28 222.1738 
L 557.28 7.2 
L 64.8632 7.2 
z
" style="fill: #ffffff"/>
   </g>
   <g id="PolyCollection_1">
    <defs>
     <path id="m3d711cb986" d="M 87.245782 -107.023094 
L 87.245782 -81.594253 
L 96.381529 -79.591308 
L 105.517277 -72.733801 
L 114.653025 -72.276385 
L 123.788773 -72.151336 
L 132.92452 -71.876881 
L 142.060268 -70.997085 
L 151.196016 -74.915962 
L 160.331763 -73.321939 
L 169.467511 -67.23911 
L 178.603259 -68.414588 
L 187.739006 -67.399295 
L 196.874754 -65.681034 
L 206.010502 -69.623571 
L 215.146249 -67.565109 
L 224.281997 -67.561777 
L 233.417745 -70.130672 
L 242.553492 -70.970015 
L 251.68924 -68.668097 
L 260.824988 -66.515811 
L 269.960735 -67.326943 
L 279.096483 -66.957928 
L 288.232231 -66.962728 
L 297.367978 -66.143643 
L 306.503726 -65.869031 
L 315.639474 -67.132291 
L 324.775222 -67.637731 
L 333.910969 -68.092885 
L 343.046717 -65.690593 
L 352.182465 -68.528777 
L 361.318212 -67.534739 
L 370.45396 -70.75407 
L 379.589708 -66.647468 
L 388.725455 -66.3544 
L 397.861203 -67.240193 
L 406.996951 -66.933588 
L 416.132698 -68.351241 
L 425.268446 -67.104893 
L 434.404194 -68.023498 
L 443.539941 -68.112719 
L 452.675689 -69.208769 
L 461.811437 -70.106364 
L 470.947184 -70.124298 
L 480.082932 -71.126449 
L 489.21868 -66.491955 
L 498.354427 -69.491683 
L 507.490175 -68.706681 
L 516.625923 -68.975452 
L 525.761671 -69.777634 
L 534.897418 -64.077736 
L 534.897418 -97.809154 
L 534.897418 -97.809154 
L 525.761671 -93.522827 
L 516.625923 -93.50417 
L 507.490175 -94.057526 
L 498.354427 -93.152056 
L 489.21868 -96.352284 
L 480.082932 -97.158644 
L 470.947184 -96.119222 
L 461.811437 -95.863332 
L 452.675689 -94.797919 
L 443.539941 -94.47777 
L 434.404194 -94.848663 
L 425.268446 -97.841814 
L 416.132698 -94.630299 
L 406.996951 -93.628267 
L 397.861203 -95.506388 
L 388.725455 -95.332209 
L 379.589708 -93.453864 
L 370.45396 -95.923338 
L 361.318212 -92.471367 
L 352.182465 -94.377836 
L 343.046717 -92.225447 
L 333.910969 -92.276521 
L 324.775222 -93.180388 
L 315.639474 -95.881691 
L 306.503726 -95.508535 
L 297.367978 -95.914796 
L 288.232231 -93.74192 
L 279.096483 -92.547657 
L 269.960735 -95.565355 
L 260.824988 -95.91015 
L 251.68924 -95.387597 
L 242.553492 -96.91224 
L 233.417745 -96.49858 
L 224.281997 -95.426492 
L 215.146249 -96.552637 
L 206.010502 -93.753472 
L 196.874754 -96.981432 
L 187.739006 -95.20239 
L 178.603259 -93.03951 
L 169.467511 -90.334375 
L 160.331763 -94.083127 
L 151.196016 -93.846983 
L 142.060268 -93.595105 
L 132.92452 -95.419135 
L 123.788773 -97.207255 
L 114.653025 -95.55319 
L 105.517277 -99.340725 
L 96.381529 -101.82621 
L 87.245782 -107.023094 
z
" style="stroke: #ff0000; stroke-opacity: 0.2; stroke-width: 2.5"/>
    </defs>
    <g clip-path="url(#p146ae9b022)">
     <use xlink:href="#m3d711cb986" x="0" y="276.48" style="fill: #ff0000; fill-opacity: 0.2; stroke: #ff0000; stroke-opacity: 0.2; stroke-width: 2.5"/>
    </g>
   </g>
   <g id="PolyCollection_2">
    <defs>
     <path id="mdc1b8138db" d="M 87.245782 -259.339199 
L 87.245782 -246.814314 
L 96.381529 -246.281758 
L 105.517277 -239.854448 
L 114.653025 -237.883887 
L 123.788773 -234.091195 
L 132.92452 -235.184449 
L 142.060268 -234.906265 
L 151.196016 -238.842074 
L 160.331763 -239.552013 
L 169.467511 -231.980952 
L 178.603259 -232.086143 
L 187.739006 -237.071069 
L 196.874754 -236.11275 
L 206.010502 -237.559421 
L 215.146249 -233.46356 
L 224.281997 -234.601062 
L 233.417745 -234.088163 
L 242.553492 -237.406017 
L 251.68924 -234.062721 
L 260.824988 -236.356438 
L 269.960735 -235.031632 
L 279.096483 -233.033294 
L 288.232231 -233.83813 
L 297.367978 -232.429612 
L 306.503726 -232.446942 
L 315.639474 -232.859292 
L 324.775222 -233.540082 
L 333.910969 -233.682831 
L 343.046717 -233.169077 
L 352.182465 -235.884517 
L 361.318212 -233.462024 
L 370.45396 -234.69028 
L 379.589708 -235.258868 
L 388.725455 -235.513813 
L 397.861203 -235.950117 
L 406.996951 -235.105888 
L 416.132698 -236.439304 
L 425.268446 -234.93051 
L 434.404194 -235.030792 
L 443.539941 -234.070688 
L 452.675689 -232.512356 
L 461.811437 -232.764387 
L 470.947184 -234.076878 
L 480.082932 -233.388421 
L 489.21868 -232.836007 
L 498.354427 -231.478968 
L 507.490175 -232.278788 
L 516.625923 -232.920652 
L 525.761671 -232.616636 
L 534.897418 -232.266563 
L 534.897418 -247.448473 
L 534.897418 -247.448473 
L 525.761671 -249.124466 
L 516.625923 -248.467537 
L 507.490175 -248.04897 
L 498.354427 -246.978463 
L 489.21868 -246.501041 
L 480.082932 -248.546979 
L 470.947184 -249.977124 
L 461.811437 -249.409601 
L 452.675689 -248.798317 
L 443.539941 -249.589776 
L 434.404194 -248.3054 
L 425.268446 -246.608993 
L 416.132698 -249.125608 
L 406.996951 -247.657337 
L 397.861203 -249.943569 
L 388.725455 -249.145025 
L 379.589708 -248.585689 
L 370.45396 -248.536322 
L 361.318212 -248.451106 
L 352.182465 -248.998997 
L 343.046717 -247.948374 
L 333.910969 -249.80754 
L 324.775222 -248.371825 
L 315.639474 -249.320258 
L 306.503726 -249.245985 
L 297.367978 -250.33583 
L 288.232231 -249.896697 
L 279.096483 -252.171864 
L 269.960735 -250.404719 
L 260.824988 -252.780018 
L 251.68924 -254.053738 
L 242.553492 -252.692984 
L 233.417745 -251.440882 
L 224.281997 -253.355279 
L 215.146249 -252.314249 
L 206.010502 -253.248572 
L 196.874754 -253.28573 
L 187.739006 -253.081552 
L 178.603259 -254.894712 
L 169.467511 -255.318479 
L 160.331763 -254.214885 
L 151.196016 -255.907182 
L 142.060268 -256.622392 
L 132.92452 -257.539632 
L 123.788773 -258.597922 
L 114.653025 -258.581182 
L 105.517277 -259.508464 
L 96.381529 -257.979104 
L 87.245782 -259.339199 
z
" style="stroke: #000000; stroke-opacity: 0.2; stroke-width: 2.5"/>
    </defs>
    <g clip-path="url(#p146ae9b022)">
     <use xlink:href="#mdc1b8138db" x="0" y="276.48" style="fill-opacity: 0.2; stroke: #000000; stroke-opacity: 0.2; stroke-width: 2.5"/>
    </g>
   </g>
   <g id="matplotlib.axis_1">
    <g id="xtick_1">
     <g id="line2d_1">
      <defs>
       <path id="m98f5fb1219" d="M 0 0 
L 0 8 
" style="stroke: #000000; stroke-width: 2"/>
      </defs>
      <g>
       <use xlink:href="#m98f5fb1219" x="87.245782" y="222.1738" style="stroke: #000000; stroke-width: 2"/>
      </g>
     </g>
     <g id="text_1">
      <!-- 0 -->
      <g transform="translate(82.441132 246.0425)scale(0.1728 -0.1728)">
       <defs>
        <path id="ArialMT-30" d="M 266 2259 
Q 266 3072 433 3567 
Q 600 4063 929 4331 
Q 1259 4600 1759 4600 
Q 2128 4600 2406 4451 
Q 2684 4303 2865 4023 
Q 3047 3744 3150 3342 
Q 3253 2941 3253 2259 
Q 3253 1453 3087 958 
Q 2922 463 2592 192 
Q 2263 -78 1759 -78 
Q 1097 -78 719 397 
Q 266 969 266 2259 
z
M 844 2259 
Q 844 1131 1108 757 
Q 1372 384 1759 384 
Q 2147 384 2411 759 
Q 2675 1134 2675 2259 
Q 2675 3391 2411 3762 
Q 2147 4134 1753 4134 
Q 1366 4134 1134 3806 
Q 844 3388 844 2259 
z
" transform="scale(0.015625)"/>
       </defs>
       <use xlink:href="#ArialMT-30"/>
      </g>
     </g>
    </g>
    <g id="xtick_2">
     <g id="line2d_2">
      <g>
       <use xlink:href="#m98f5fb1219" x="178.603259" y="222.1738" style="stroke: #000000; stroke-width: 2"/>
      </g>
     </g>
     <g id="text_2">
      <!-- 10 -->
      <g transform="translate(168.993959 246.0425)scale(0.1728 -0.1728)">
       <defs>
        <path id="ArialMT-31" d="M 2384 0 
L 1822 0 
L 1822 3584 
Q 1619 3391 1289 3197 
Q 959 3003 697 2906 
L 697 3450 
Q 1169 3672 1522 3987 
Q 1875 4303 2022 4600 
L 2384 4600 
L 2384 0 
z
" transform="scale(0.015625)"/>
       </defs>
       <use xlink:href="#ArialMT-31"/>
       <use xlink:href="#ArialMT-30" x="55.615234"/>
      </g>
     </g>
    </g>
    <g id="xtick_3">
     <g id="line2d_3">
      <g>
       <use xlink:href="#m98f5fb1219" x="269.960735" y="222.1738" style="stroke: #000000; stroke-width: 2"/>
      </g>
     </g>
     <g id="text_3">
      <!-- 20 -->
      <g transform="translate(260.351435 246.0425)scale(0.1728 -0.1728)">
       <defs>
        <path id="ArialMT-32" d="M 3222 541 
L 3222 0 
L 194 0 
Q 188 203 259 391 
Q 375 700 629 1000 
Q 884 1300 1366 1694 
Q 2113 2306 2375 2664 
Q 2638 3022 2638 3341 
Q 2638 3675 2398 3904 
Q 2159 4134 1775 4134 
Q 1369 4134 1125 3890 
Q 881 3647 878 3216 
L 300 3275 
Q 359 3922 746 4261 
Q 1134 4600 1788 4600 
Q 2447 4600 2831 4234 
Q 3216 3869 3216 3328 
Q 3216 3053 3103 2787 
Q 2991 2522 2730 2228 
Q 2469 1934 1863 1422 
Q 1356 997 1212 845 
Q 1069 694 975 541 
L 3222 541 
z
" transform="scale(0.015625)"/>
       </defs>
       <use xlink:href="#ArialMT-32"/>
       <use xlink:href="#ArialMT-30" x="55.615234"/>
      </g>
     </g>
    </g>
    <g id="xtick_4">
     <g id="line2d_4">
      <g>
       <use xlink:href="#m98f5fb1219" x="361.318212" y="222.1738" style="stroke: #000000; stroke-width: 2"/>
      </g>
     </g>
     <g id="text_4">
      <!-- 30 -->
      <g transform="translate(351.708912 246.0425)scale(0.1728 -0.1728)">
       <defs>
        <path id="ArialMT-33" d="M 269 1209 
L 831 1284 
Q 928 806 1161 595 
Q 1394 384 1728 384 
Q 2125 384 2398 659 
Q 2672 934 2672 1341 
Q 2672 1728 2419 1979 
Q 2166 2231 1775 2231 
Q 1616 2231 1378 2169 
L 1441 2663 
Q 1497 2656 1531 2656 
Q 1891 2656 2178 2843 
Q 2466 3031 2466 3422 
Q 2466 3731 2256 3934 
Q 2047 4138 1716 4138 
Q 1388 4138 1169 3931 
Q 950 3725 888 3313 
L 325 3413 
Q 428 3978 793 4289 
Q 1159 4600 1703 4600 
Q 2078 4600 2393 4439 
Q 2709 4278 2876 4000 
Q 3044 3722 3044 3409 
Q 3044 3113 2884 2869 
Q 2725 2625 2413 2481 
Q 2819 2388 3044 2092 
Q 3269 1797 3269 1353 
Q 3269 753 2831 336 
Q 2394 -81 1725 -81 
Q 1122 -81 723 278 
Q 325 638 269 1209 
z
" transform="scale(0.015625)"/>
       </defs>
       <use xlink:href="#ArialMT-33"/>
       <use xlink:href="#ArialMT-30" x="55.615234"/>
      </g>
     </g>
    </g>
    <g id="xtick_5">
     <g id="line2d_5">
      <g>
       <use xlink:href="#m98f5fb1219" x="452.675689" y="222.1738" style="stroke: #000000; stroke-width: 2"/>
      </g>
     </g>
     <g id="text_5">
      <!-- 40 -->
      <g transform="translate(443.066389 246.0425)scale(0.1728 -0.1728)">
       <defs>
        <path id="ArialMT-34" d="M 2069 0 
L 2069 1097 
L 81 1097 
L 81 1613 
L 2172 4581 
L 2631 4581 
L 2631 1613 
L 3250 1613 
L 3250 1097 
L 2631 1097 
L 2631 0 
L 2069 0 
z
M 2069 1613 
L 2069 3678 
L 634 1613 
L 2069 1613 
z
" transform="scale(0.015625)"/>
       </defs>
       <use xlink:href="#ArialMT-34"/>
       <use xlink:href="#ArialMT-30" x="55.615234"/>
      </g>
     </g>
    </g>
    <g id="xtick_6">
     <g id="line2d_6">
      <g>
       <use xlink:href="#m98f5fb1219" x="544.033166" y="222.1738" style="stroke: #000000; stroke-width: 2"/>
      </g>
     </g>
     <g id="text_6">
      <!-- 50 -->
      <g transform="translate(534.423866 246.0425)scale(0.1728 -0.1728)">
       <defs>
        <path id="ArialMT-35" d="M 266 1200 
L 856 1250 
Q 922 819 1161 601 
Q 1400 384 1738 384 
Q 2144 384 2425 690 
Q 2706 997 2706 1503 
Q 2706 1984 2436 2262 
Q 2166 2541 1728 2541 
Q 1456 2541 1237 2417 
Q 1019 2294 894 2097 
L 366 2166 
L 809 4519 
L 3088 4519 
L 3088 3981 
L 1259 3981 
L 1013 2750 
Q 1425 3038 1878 3038 
Q 2478 3038 2890 2622 
Q 3303 2206 3303 1553 
Q 3303 931 2941 478 
Q 2500 -78 1738 -78 
Q 1113 -78 717 272 
Q 322 622 266 1200 
z
" transform="scale(0.015625)"/>
       </defs>
       <use xlink:href="#ArialMT-35"/>
       <use xlink:href="#ArialMT-30" x="55.615234"/>
      </g>
     </g>
    </g>
    <g id="text_7">
     <!-- Epochs -->
     <g transform="translate(282.2545 265.8456)scale(0.1728 -0.1728)">
      <defs>
       <path id="ArialMT-45" d="M 506 0 
L 506 4581 
L 3819 4581 
L 3819 4041 
L 1113 4041 
L 1113 2638 
L 3647 2638 
L 3647 2100 
L 1113 2100 
L 1113 541 
L 3925 541 
L 3925 0 
L 506 0 
z
" transform="scale(0.015625)"/>
       <path id="ArialMT-70" d="M 422 -1272 
L 422 3319 
L 934 3319 
L 934 2888 
Q 1116 3141 1344 3267 
Q 1572 3394 1897 3394 
Q 2322 3394 2647 3175 
Q 2972 2956 3137 2557 
Q 3303 2159 3303 1684 
Q 3303 1175 3120 767 
Q 2938 359 2589 142 
Q 2241 -75 1856 -75 
Q 1575 -75 1351 44 
Q 1128 163 984 344 
L 984 -1272 
L 422 -1272 
z
M 931 1641 
Q 931 1000 1190 694 
Q 1450 388 1819 388 
Q 2194 388 2461 705 
Q 2728 1022 2728 1688 
Q 2728 2322 2467 2637 
Q 2206 2953 1844 2953 
Q 1484 2953 1207 2617 
Q 931 2281 931 1641 
z
" transform="scale(0.015625)"/>
       <path id="ArialMT-6f" d="M 213 1659 
Q 213 2581 725 3025 
Q 1153 3394 1769 3394 
Q 2453 3394 2887 2945 
Q 3322 2497 3322 1706 
Q 3322 1066 3130 698 
Q 2938 331 2570 128 
Q 2203 -75 1769 -75 
Q 1072 -75 642 372 
Q 213 819 213 1659 
z
M 791 1659 
Q 791 1022 1069 705 
Q 1347 388 1769 388 
Q 2188 388 2466 706 
Q 2744 1025 2744 1678 
Q 2744 2294 2464 2611 
Q 2184 2928 1769 2928 
Q 1347 2928 1069 2612 
Q 791 2297 791 1659 
z
" transform="scale(0.015625)"/>
       <path id="ArialMT-63" d="M 2588 1216 
L 3141 1144 
Q 3050 572 2676 248 
Q 2303 -75 1759 -75 
Q 1078 -75 664 370 
Q 250 816 250 1647 
Q 250 2184 428 2587 
Q 606 2991 970 3192 
Q 1334 3394 1763 3394 
Q 2303 3394 2647 3120 
Q 2991 2847 3088 2344 
L 2541 2259 
Q 2463 2594 2264 2762 
Q 2066 2931 1784 2931 
Q 1359 2931 1093 2626 
Q 828 2322 828 1663 
Q 828 994 1084 691 
Q 1341 388 1753 388 
Q 2084 388 2306 591 
Q 2528 794 2588 1216 
z
" transform="scale(0.015625)"/>
       <path id="ArialMT-68" d="M 422 0 
L 422 4581 
L 984 4581 
L 984 2938 
Q 1378 3394 1978 3394 
Q 2347 3394 2619 3248 
Q 2891 3103 3008 2847 
Q 3125 2591 3125 2103 
L 3125 0 
L 2563 0 
L 2563 2103 
Q 2563 2525 2380 2717 
Q 2197 2909 1863 2909 
Q 1613 2909 1392 2779 
Q 1172 2650 1078 2428 
Q 984 2206 984 1816 
L 984 0 
L 422 0 
z
" transform="scale(0.015625)"/>
       <path id="ArialMT-73" d="M 197 991 
L 753 1078 
Q 800 744 1014 566 
Q 1228 388 1613 388 
Q 2000 388 2187 545 
Q 2375 703 2375 916 
Q 2375 1106 2209 1216 
Q 2094 1291 1634 1406 
Q 1016 1563 777 1677 
Q 538 1791 414 1992 
Q 291 2194 291 2438 
Q 291 2659 392 2848 
Q 494 3038 669 3163 
Q 800 3259 1026 3326 
Q 1253 3394 1513 3394 
Q 1903 3394 2198 3281 
Q 2494 3169 2634 2976 
Q 2775 2784 2828 2463 
L 2278 2388 
Q 2241 2644 2061 2787 
Q 1881 2931 1553 2931 
Q 1166 2931 1000 2803 
Q 834 2675 834 2503 
Q 834 2394 903 2306 
Q 972 2216 1119 2156 
Q 1203 2125 1616 2013 
Q 2213 1853 2448 1751 
Q 2684 1650 2818 1456 
Q 2953 1263 2953 975 
Q 2953 694 2789 445 
Q 2625 197 2315 61 
Q 2006 -75 1616 -75 
Q 969 -75 630 194 
Q 291 463 197 991 
z
" transform="scale(0.015625)"/>
      </defs>
      <use xlink:href="#ArialMT-45"/>
      <use xlink:href="#ArialMT-70" x="66.699219"/>
      <use xlink:href="#ArialMT-6f" x="122.314453"/>
      <use xlink:href="#ArialMT-63" x="177.929688"/>
      <use xlink:href="#ArialMT-68" x="227.929688"/>
      <use xlink:href="#ArialMT-73" x="283.544922"/>
     </g>
    </g>
   </g>
   <g id="matplotlib.axis_2">
    <g id="ytick_1">
     <g id="line2d_7">
      <defs>
       <path id="md2a13e11c4" d="M 0 0 
L -8 0 
" style="stroke: #000000; stroke-width: 2"/>
      </defs>
      <g>
       <use xlink:href="#md2a13e11c4" x="64.8632" y="190.812692" style="stroke: #000000; stroke-width: 2"/>
      </g>
     </g>
     <g id="text_8">
      <!-- 0.2 -->
      <g transform="translate(29.344 196.997042)scale(0.1728 -0.1728)">
       <defs>
        <path id="ArialMT-2e" d="M 581 0 
L 581 641 
L 1222 641 
L 1222 0 
L 581 0 
z
" transform="scale(0.015625)"/>
       </defs>
       <use xlink:href="#ArialMT-30"/>
       <use xlink:href="#ArialMT-2e" x="55.615234"/>
       <use xlink:href="#ArialMT-32" x="83.398438"/>
      </g>
     </g>
    </g>
    <g id="ytick_2">
     <g id="line2d_8">
      <g>
       <use xlink:href="#md2a13e11c4" x="64.8632" y="147.957541" style="stroke: #000000; stroke-width: 2"/>
      </g>
     </g>
     <g id="text_9">
      <!-- 0.4 -->
      <g transform="translate(29.344 154.141891)scale(0.1728 -0.1728)">
       <use xlink:href="#ArialMT-30"/>
       <use xlink:href="#ArialMT-2e" x="55.615234"/>
       <use xlink:href="#ArialMT-34" x="83.398438"/>
      </g>
     </g>
    </g>
    <g id="ytick_3">
     <g id="line2d_9">
      <g>
       <use xlink:href="#md2a13e11c4" x="64.8632" y="105.102391" style="stroke: #000000; stroke-width: 2"/>
      </g>
     </g>
     <g id="text_10">
      <!-- 0.6 -->
      <g transform="translate(29.344 111.286741)scale(0.1728 -0.1728)">
       <defs>
        <path id="ArialMT-36" d="M 3184 3459 
L 2625 3416 
Q 2550 3747 2413 3897 
Q 2184 4138 1850 4138 
Q 1581 4138 1378 3988 
Q 1113 3794 959 3422 
Q 806 3050 800 2363 
Q 1003 2672 1297 2822 
Q 1591 2972 1913 2972 
Q 2475 2972 2870 2558 
Q 3266 2144 3266 1488 
Q 3266 1056 3080 686 
Q 2894 316 2569 119 
Q 2244 -78 1831 -78 
Q 1128 -78 684 439 
Q 241 956 241 2144 
Q 241 3472 731 4075 
Q 1159 4600 1884 4600 
Q 2425 4600 2770 4297 
Q 3116 3994 3184 3459 
z
M 888 1484 
Q 888 1194 1011 928 
Q 1134 663 1356 523 
Q 1578 384 1822 384 
Q 2178 384 2434 671 
Q 2691 959 2691 1453 
Q 2691 1928 2437 2201 
Q 2184 2475 1800 2475 
Q 1419 2475 1153 2201 
Q 888 1928 888 1484 
z
" transform="scale(0.015625)"/>
       </defs>
       <use xlink:href="#ArialMT-30"/>
       <use xlink:href="#ArialMT-2e" x="55.615234"/>
       <use xlink:href="#ArialMT-36" x="83.398438"/>
      </g>
     </g>
    </g>
    <g id="ytick_4">
     <g id="line2d_10">
      <g>
       <use xlink:href="#md2a13e11c4" x="64.8632" y="62.24724" style="stroke: #000000; stroke-width: 2"/>
      </g>
     </g>
     <g id="text_11">
      <!-- 0.8 -->
      <g transform="translate(29.344 68.43159)scale(0.1728 -0.1728)">
       <defs>
        <path id="ArialMT-38" d="M 1131 2484 
Q 781 2613 612 2850 
Q 444 3088 444 3419 
Q 444 3919 803 4259 
Q 1163 4600 1759 4600 
Q 2359 4600 2725 4251 
Q 3091 3903 3091 3403 
Q 3091 3084 2923 2848 
Q 2756 2613 2416 2484 
Q 2838 2347 3058 2040 
Q 3278 1734 3278 1309 
Q 3278 722 2862 322 
Q 2447 -78 1769 -78 
Q 1091 -78 675 323 
Q 259 725 259 1325 
Q 259 1772 486 2073 
Q 713 2375 1131 2484 
z
M 1019 3438 
Q 1019 3113 1228 2906 
Q 1438 2700 1772 2700 
Q 2097 2700 2305 2904 
Q 2513 3109 2513 3406 
Q 2513 3716 2298 3927 
Q 2084 4138 1766 4138 
Q 1444 4138 1231 3931 
Q 1019 3725 1019 3438 
z
M 838 1322 
Q 838 1081 952 856 
Q 1066 631 1291 507 
Q 1516 384 1775 384 
Q 2178 384 2440 643 
Q 2703 903 2703 1303 
Q 2703 1709 2433 1975 
Q 2163 2241 1756 2241 
Q 1359 2241 1098 1978 
Q 838 1716 838 1322 
z
" transform="scale(0.015625)"/>
       </defs>
       <use xlink:href="#ArialMT-30"/>
       <use xlink:href="#ArialMT-2e" x="55.615234"/>
       <use xlink:href="#ArialMT-38" x="83.398438"/>
      </g>
     </g>
    </g>
    <g id="ytick_5">
     <g id="line2d_11">
      <g>
       <use xlink:href="#md2a13e11c4" x="64.8632" y="19.392089" style="stroke: #000000; stroke-width: 2"/>
      </g>
     </g>
     <g id="text_12">
      <!-- 1.0 -->
      <g transform="translate(29.344 25.576439)scale(0.1728 -0.1728)">
       <use xlink:href="#ArialMT-31"/>
       <use xlink:href="#ArialMT-2e" x="55.615234"/>
       <use xlink:href="#ArialMT-30" x="83.398438"/>
      </g>
     </g>
    </g>
    <g id="text_13">
     <!-- Alignment to LN$^+$ -->
     <g transform="translate(21.5424 183.9797)rotate(-90)scale(0.1728 -0.1728)">
      <defs>
       <path id="ArialMT-41" d="M -9 0 
L 1750 4581 
L 2403 4581 
L 4278 0 
L 3588 0 
L 3053 1388 
L 1138 1388 
L 634 0 
L -9 0 
z
M 1313 1881 
L 2866 1881 
L 2388 3150 
Q 2169 3728 2063 4100 
Q 1975 3659 1816 3225 
L 1313 1881 
z
" transform="scale(0.015625)"/>
       <path id="ArialMT-6c" d="M 409 0 
L 409 4581 
L 972 4581 
L 972 0 
L 409 0 
z
" transform="scale(0.015625)"/>
       <path id="ArialMT-69" d="M 425 3934 
L 425 4581 
L 988 4581 
L 988 3934 
L 425 3934 
z
M 425 0 
L 425 3319 
L 988 3319 
L 988 0 
L 425 0 
z
" transform="scale(0.015625)"/>
       <path id="ArialMT-67" d="M 319 -275 
L 866 -356 
Q 900 -609 1056 -725 
Q 1266 -881 1628 -881 
Q 2019 -881 2231 -725 
Q 2444 -569 2519 -288 
Q 2563 -116 2559 434 
Q 2191 0 1641 0 
Q 956 0 581 494 
Q 206 988 206 1678 
Q 206 2153 378 2554 
Q 550 2956 876 3175 
Q 1203 3394 1644 3394 
Q 2231 3394 2613 2919 
L 2613 3319 
L 3131 3319 
L 3131 450 
Q 3131 -325 2973 -648 
Q 2816 -972 2473 -1159 
Q 2131 -1347 1631 -1347 
Q 1038 -1347 672 -1080 
Q 306 -813 319 -275 
z
M 784 1719 
Q 784 1066 1043 766 
Q 1303 466 1694 466 
Q 2081 466 2343 764 
Q 2606 1063 2606 1700 
Q 2606 2309 2336 2618 
Q 2066 2928 1684 2928 
Q 1309 2928 1046 2623 
Q 784 2319 784 1719 
z
" transform="scale(0.015625)"/>
       <path id="ArialMT-6e" d="M 422 0 
L 422 3319 
L 928 3319 
L 928 2847 
Q 1294 3394 1984 3394 
Q 2284 3394 2536 3286 
Q 2788 3178 2913 3003 
Q 3038 2828 3088 2588 
Q 3119 2431 3119 2041 
L 3119 0 
L 2556 0 
L 2556 2019 
Q 2556 2363 2490 2533 
Q 2425 2703 2258 2804 
Q 2091 2906 1866 2906 
Q 1506 2906 1245 2678 
Q 984 2450 984 1813 
L 984 0 
L 422 0 
z
" transform="scale(0.015625)"/>
       <path id="ArialMT-6d" d="M 422 0 
L 422 3319 
L 925 3319 
L 925 2853 
Q 1081 3097 1340 3245 
Q 1600 3394 1931 3394 
Q 2300 3394 2536 3241 
Q 2772 3088 2869 2813 
Q 3263 3394 3894 3394 
Q 4388 3394 4653 3120 
Q 4919 2847 4919 2278 
L 4919 0 
L 4359 0 
L 4359 2091 
Q 4359 2428 4304 2576 
Q 4250 2725 4106 2815 
Q 3963 2906 3769 2906 
Q 3419 2906 3187 2673 
Q 2956 2441 2956 1928 
L 2956 0 
L 2394 0 
L 2394 2156 
Q 2394 2531 2256 2718 
Q 2119 2906 1806 2906 
Q 1569 2906 1367 2781 
Q 1166 2656 1075 2415 
Q 984 2175 984 1722 
L 984 0 
L 422 0 
z
" transform="scale(0.015625)"/>
       <path id="ArialMT-65" d="M 2694 1069 
L 3275 997 
Q 3138 488 2766 206 
Q 2394 -75 1816 -75 
Q 1088 -75 661 373 
Q 234 822 234 1631 
Q 234 2469 665 2931 
Q 1097 3394 1784 3394 
Q 2450 3394 2872 2941 
Q 3294 2488 3294 1666 
Q 3294 1616 3291 1516 
L 816 1516 
Q 847 969 1125 678 
Q 1403 388 1819 388 
Q 2128 388 2347 550 
Q 2566 713 2694 1069 
z
M 847 1978 
L 2700 1978 
Q 2663 2397 2488 2606 
Q 2219 2931 1791 2931 
Q 1403 2931 1139 2672 
Q 875 2413 847 1978 
z
" transform="scale(0.015625)"/>
       <path id="ArialMT-74" d="M 1650 503 
L 1731 6 
Q 1494 -44 1306 -44 
Q 1000 -44 831 53 
Q 663 150 594 308 
Q 525 466 525 972 
L 525 2881 
L 113 2881 
L 113 3319 
L 525 3319 
L 525 4141 
L 1084 4478 
L 1084 3319 
L 1650 3319 
L 1650 2881 
L 1084 2881 
L 1084 941 
Q 1084 700 1114 631 
Q 1144 563 1211 522 
Q 1278 481 1403 481 
Q 1497 481 1650 503 
z
" transform="scale(0.015625)"/>
       <path id="ArialMT-20" transform="scale(0.015625)"/>
       <path id="ArialMT-4c" d="M 469 0 
L 469 4581 
L 1075 4581 
L 1075 541 
L 3331 541 
L 3331 0 
L 469 0 
z
" transform="scale(0.015625)"/>
       <path id="ArialMT-4e" d="M 488 0 
L 488 4581 
L 1109 4581 
L 3516 984 
L 3516 4581 
L 4097 4581 
L 4097 0 
L 3475 0 
L 1069 3600 
L 1069 0 
L 488 0 
z
" transform="scale(0.015625)"/>
       <path id="DejaVuSans-2b" d="M 2944 4013 
L 2944 2272 
L 4684 2272 
L 4684 1741 
L 2944 1741 
L 2944 0 
L 2419 0 
L 2419 1741 
L 678 1741 
L 678 2272 
L 2419 2272 
L 2419 4013 
L 2944 4013 
z
" transform="scale(0.015625)"/>
      </defs>
      <use xlink:href="#ArialMT-41" transform="translate(0 0.826562)"/>
      <use xlink:href="#ArialMT-6c" transform="translate(66.699219 0.826562)"/>
      <use xlink:href="#ArialMT-69" transform="translate(88.916016 0.826562)"/>
      <use xlink:href="#ArialMT-67" transform="translate(111.132812 0.826562)"/>
      <use xlink:href="#ArialMT-6e" transform="translate(166.748047 0.826562)"/>
      <use xlink:href="#ArialMT-6d" transform="translate(222.363281 0.826562)"/>
      <use xlink:href="#ArialMT-65" transform="translate(305.664062 0.826562)"/>
      <use xlink:href="#ArialMT-6e" transform="translate(361.279297 0.826562)"/>
      <use xlink:href="#ArialMT-74" transform="translate(416.894531 0.826562)"/>
      <use xlink:href="#ArialMT-20" transform="translate(444.677734 0.826562)"/>
      <use xlink:href="#ArialMT-74" transform="translate(472.460938 0.826562)"/>
      <use xlink:href="#ArialMT-6f" transform="translate(500.244141 0.826562)"/>
      <use xlink:href="#ArialMT-20" transform="translate(555.859375 0.826562)"/>
      <use xlink:href="#ArialMT-4c" transform="translate(583.642578 0.826562)"/>
      <use xlink:href="#ArialMT-4e" transform="translate(639.257812 0.826562)"/>
      <use xlink:href="#DejaVuSans-2b" transform="translate(726.069336 39.107812)scale(0.7)"/>
     </g>
    </g>
   </g>
   <g id="line2d_12">
    <path d="M 87.245782 182.171327 
L 96.381529 185.771241 
L 105.517277 190.442737 
L 114.653025 192.565213 
L 123.788773 191.800705 
L 132.92452 192.831992 
L 142.060268 194.183905 
L 151.196016 192.098528 
L 160.331763 192.777467 
L 169.467511 197.693257 
L 178.603259 195.752951 
L 187.739006 195.179157 
L 196.874754 195.148767 
L 206.010502 194.791478 
L 215.146249 194.421127 
L 224.281997 194.985865 
L 233.417745 193.165374 
L 242.553492 192.538872 
L 251.68924 194.452153 
L 260.824988 195.26702 
L 269.960735 195.033851 
L 279.096483 196.727208 
L 288.232231 196.127676 
L 297.367978 195.450781 
L 306.503726 195.791217 
L 315.639474 194.973009 
L 324.775222 196.07094 
L 333.910969 196.295297 
L 343.046717 197.52198 
L 352.182465 195.026694 
L 361.318212 196.476947 
L 370.45396 193.141296 
L 379.589708 196.429334 
L 388.725455 195.636696 
L 397.861203 195.106709 
L 406.996951 196.199073 
L 416.132698 194.98923 
L 425.268446 194.006646 
L 434.404194 195.04392 
L 443.539941 195.184756 
L 452.675689 194.476656 
L 461.811437 193.495152 
L 470.947184 193.35824 
L 480.082932 192.337453 
L 489.21868 195.05788 
L 498.354427 195.158131 
L 507.490175 195.097896 
L 516.625923 195.240189 
L 525.761671 194.82977 
L 534.897418 195.536555 
" clip-path="url(#p146ae9b022)" style="fill: none; stroke: #ff0000; stroke-width: 2.5; stroke-linecap: square"/>
   </g>
   <g id="line2d_13">
    <path d="M 87.245782 23.403243 
L 96.381529 24.349569 
L 105.517277 26.798544 
L 114.653025 28.247466 
L 123.788773 30.135441 
L 132.92452 30.117959 
L 142.060268 30.715672 
L 151.196016 29.105372 
L 160.331763 29.596551 
L 169.467511 32.830285 
L 178.603259 32.989573 
L 187.739006 31.403689 
L 196.874754 31.78076 
L 206.010502 31.076004 
L 215.146249 33.591096 
L 224.281997 32.50183 
L 233.417745 33.715478 
L 242.553492 31.4305 
L 251.68924 32.42177 
L 260.824988 31.911772 
L 269.960735 33.761825 
L 279.096483 33.877421 
L 288.232231 34.612586 
L 297.367978 35.097279 
L 306.503726 35.633537 
L 315.639474 35.390225 
L 324.775222 35.524046 
L 333.910969 34.734814 
L 343.046717 35.921275 
L 352.182465 34.038243 
L 361.318212 35.523435 
L 370.45396 34.866699 
L 379.589708 34.557722 
L 388.725455 34.150581 
L 397.861203 33.533157 
L 406.996951 35.098388 
L 416.132698 33.697544 
L 425.268446 35.710248 
L 434.404194 34.811904 
L 443.539941 34.649768 
L 452.675689 35.824664 
L 461.811437 35.393006 
L 470.947184 34.452999 
L 480.082932 35.5123 
L 489.21868 36.811476 
L 498.354427 37.251284 
L 507.490175 36.316121 
L 516.625923 35.785906 
L 525.761671 35.609449 
L 534.897418 36.622482 
" clip-path="url(#p146ae9b022)" style="fill: none; stroke: #000000; stroke-width: 2.5; stroke-linecap: square"/>
   </g>
   <g id="patch_3">
    <path d="M 64.8632 222.1738 
L 64.8632 7.2 
" style="fill: none; stroke: #000000; stroke-width: 1.5; stroke-linejoin: miter; stroke-linecap: square"/>
   </g>
   <g id="patch_4">
    <path d="M 64.8632 222.1738 
L 557.28 222.1738 
" style="fill: none; stroke: #000000; stroke-width: 1.5; stroke-linejoin: miter; stroke-linecap: square"/>
   </g>
   <g id="legend_1">
    <g id="patch_5">
     <path d="M 313.1703 142.0298 
L 545.184 142.0298 
Q 548.64 142.0298 548.64 138.5738 
L 548.64 90.8 
Q 548.64 87.344 545.184 87.344 
L 313.1703 87.344 
Q 309.7143 87.344 309.7143 90.8 
L 309.7143 138.5738 
Q 309.7143 142.0298 313.1703 142.0298 
z
" style="fill: #ffffff; opacity: 0.8; stroke: #cccccc; stroke-width: 2.5; stroke-linejoin: miter"/>
    </g>
    <g id="line2d_14">
     <path d="M 316.6263 100.7873 
L 333.9063 100.7873 
L 351.1863 100.7873 
" style="fill: none; stroke: #ff0000; stroke-width: 2.5; stroke-linecap: square"/>
    </g>
    <g id="text_14">
     <!-- Gradient Alignment -->
     <g transform="translate(365.0103 106.8353)scale(0.1728 -0.1728)">
      <defs>
       <path id="ArialMT-47" d="M 2638 1797 
L 2638 2334 
L 4578 2338 
L 4578 638 
Q 4131 281 3656 101 
Q 3181 -78 2681 -78 
Q 2006 -78 1454 211 
Q 903 500 622 1047 
Q 341 1594 341 2269 
Q 341 2938 620 3517 
Q 900 4097 1425 4378 
Q 1950 4659 2634 4659 
Q 3131 4659 3532 4498 
Q 3934 4338 4162 4050 
Q 4391 3763 4509 3300 
L 3963 3150 
Q 3859 3500 3706 3700 
Q 3553 3900 3268 4020 
Q 2984 4141 2638 4141 
Q 2222 4141 1919 4014 
Q 1616 3888 1430 3681 
Q 1244 3475 1141 3228 
Q 966 2803 966 2306 
Q 966 1694 1177 1281 
Q 1388 869 1791 669 
Q 2194 469 2647 469 
Q 3041 469 3416 620 
Q 3791 772 3984 944 
L 3984 1797 
L 2638 1797 
z
" transform="scale(0.015625)"/>
       <path id="ArialMT-72" d="M 416 0 
L 416 3319 
L 922 3319 
L 922 2816 
Q 1116 3169 1280 3281 
Q 1444 3394 1641 3394 
Q 1925 3394 2219 3213 
L 2025 2691 
Q 1819 2813 1613 2813 
Q 1428 2813 1281 2702 
Q 1134 2591 1072 2394 
Q 978 2094 978 1738 
L 978 0 
L 416 0 
z
" transform="scale(0.015625)"/>
       <path id="ArialMT-61" d="M 2588 409 
Q 2275 144 1986 34 
Q 1697 -75 1366 -75 
Q 819 -75 525 192 
Q 231 459 231 875 
Q 231 1119 342 1320 
Q 453 1522 633 1644 
Q 813 1766 1038 1828 
Q 1203 1872 1538 1913 
Q 2219 1994 2541 2106 
Q 2544 2222 2544 2253 
Q 2544 2597 2384 2738 
Q 2169 2928 1744 2928 
Q 1347 2928 1158 2789 
Q 969 2650 878 2297 
L 328 2372 
Q 403 2725 575 2942 
Q 747 3159 1072 3276 
Q 1397 3394 1825 3394 
Q 2250 3394 2515 3294 
Q 2781 3194 2906 3042 
Q 3031 2891 3081 2659 
Q 3109 2516 3109 2141 
L 3109 1391 
Q 3109 606 3145 398 
Q 3181 191 3288 0 
L 2700 0 
Q 2613 175 2588 409 
z
M 2541 1666 
Q 2234 1541 1622 1453 
Q 1275 1403 1131 1340 
Q 988 1278 909 1158 
Q 831 1038 831 891 
Q 831 666 1001 516 
Q 1172 366 1500 366 
Q 1825 366 2078 508 
Q 2331 650 2450 897 
Q 2541 1088 2541 1459 
L 2541 1666 
z
" transform="scale(0.015625)"/>
       <path id="ArialMT-64" d="M 2575 0 
L 2575 419 
Q 2259 -75 1647 -75 
Q 1250 -75 917 144 
Q 584 363 401 755 
Q 219 1147 219 1656 
Q 219 2153 384 2558 
Q 550 2963 881 3178 
Q 1213 3394 1622 3394 
Q 1922 3394 2156 3267 
Q 2391 3141 2538 2938 
L 2538 4581 
L 3097 4581 
L 3097 0 
L 2575 0 
z
M 797 1656 
Q 797 1019 1065 703 
Q 1334 388 1700 388 
Q 2069 388 2326 689 
Q 2584 991 2584 1609 
Q 2584 2291 2321 2609 
Q 2059 2928 1675 2928 
Q 1300 2928 1048 2622 
Q 797 2316 797 1656 
z
" transform="scale(0.015625)"/>
      </defs>
      <use xlink:href="#ArialMT-47"/>
      <use xlink:href="#ArialMT-72" x="77.783203"/>
      <use xlink:href="#ArialMT-61" x="111.083984"/>
      <use xlink:href="#ArialMT-64" x="166.699219"/>
      <use xlink:href="#ArialMT-69" x="222.314453"/>
      <use xlink:href="#ArialMT-65" x="244.53125"/>
      <use xlink:href="#ArialMT-6e" x="300.146484"/>
      <use xlink:href="#ArialMT-74" x="355.761719"/>
      <use xlink:href="#ArialMT-20" x="383.544922"/>
      <use xlink:href="#ArialMT-41" x="405.828125"/>
      <use xlink:href="#ArialMT-6c" x="472.527344"/>
      <use xlink:href="#ArialMT-69" x="494.744141"/>
      <use xlink:href="#ArialMT-67" x="516.960938"/>
      <use xlink:href="#ArialMT-6e" x="572.576172"/>
      <use xlink:href="#ArialMT-6d" x="628.191406"/>
      <use xlink:href="#ArialMT-65" x="711.492188"/>
      <use xlink:href="#ArialMT-6e" x="767.107422"/>
      <use xlink:href="#ArialMT-74" x="822.722656"/>
     </g>
    </g>
    <g id="line2d_15">
     <path d="M 316.6263 125.4329 
L 333.9063 125.4329 
L 351.1863 125.4329 
" style="fill: none; stroke: #000000; stroke-width: 2.5; stroke-linecap: square"/>
    </g>
    <g id="text_15">
     <!-- Homeostatic Alignment -->
     <g transform="translate(365.0103 131.4809)scale(0.1728 -0.1728)">
      <defs>
       <path id="ArialMT-48" d="M 513 0 
L 513 4581 
L 1119 4581 
L 1119 2700 
L 3500 2700 
L 3500 4581 
L 4106 4581 
L 4106 0 
L 3500 0 
L 3500 2159 
L 1119 2159 
L 1119 0 
L 513 0 
z
" transform="scale(0.015625)"/>
      </defs>
      <use xlink:href="#ArialMT-48"/>
      <use xlink:href="#ArialMT-6f" x="72.216797"/>
      <use xlink:href="#ArialMT-6d" x="127.832031"/>
      <use xlink:href="#ArialMT-65" x="211.132812"/>
      <use xlink:href="#ArialMT-6f" x="266.748047"/>
      <use xlink:href="#ArialMT-73" x="322.363281"/>
      <use xlink:href="#ArialMT-74" x="372.363281"/>
      <use xlink:href="#ArialMT-61" x="400.146484"/>
      <use xlink:href="#ArialMT-74" x="455.761719"/>
      <use xlink:href="#ArialMT-69" x="483.544922"/>
      <use xlink:href="#ArialMT-63" x="505.761719"/>
      <use xlink:href="#ArialMT-20" x="555.761719"/>
      <use xlink:href="#ArialMT-41" x="578.044922"/>
      <use xlink:href="#ArialMT-6c" x="644.744141"/>
      <use xlink:href="#ArialMT-69" x="666.960938"/>
      <use xlink:href="#ArialMT-67" x="689.177734"/>
      <use xlink:href="#ArialMT-6e" x="744.792969"/>
      <use xlink:href="#ArialMT-6d" x="800.408203"/>
      <use xlink:href="#ArialMT-65" x="883.708984"/>
      <use xlink:href="#ArialMT-6e" x="939.324219"/>
      <use xlink:href="#ArialMT-74" x="994.939453"/>
     </g>
    </g>
   </g>
  </g>
 </g>
 <defs>
  <clipPath id="p146ae9b022">
   <rect x="64.8632" y="7.2" width="492.4168" height="214.9738"/>
  </clipPath>
 </defs>
</svg>
