<?xml version="1.0" encoding="utf-8" standalone="no"?>
<!DOCTYPE svg PUBLIC "-//W3C//DTD SVG 1.1//EN"
  "http://www.w3.org/Graphics/SVG/1.1/DTD/svg11.dtd">
<svg xmlns:xlink="http://www.w3.org/1999/xlink" width="852.48pt" height="276.48pt" viewBox="0 0 852.48 276.48" xmlns="http://www.w3.org/2000/svg" version="1.1">
 <metadata>
  <rdf:RDF xmlns:dc="http://purl.org/dc/elements/1.1/" xmlns:cc="http://creativecommons.org/ns#" xmlns:rdf="http://www.w3.org/1999/02/22-rdf-syntax-ns#">
   <cc:Work>
    <dc:type rdf:resource="http://purl.org/dc/dcmitype/StillImage"/>
    <dc:date>2025-09-08T15:39:44.998605</dc:date>
    <dc:format>image/svg+xml</dc:format>
    <dc:creator>
     <cc:Agent>
      <dc:title>Matplotlib v3.5.3, https://matplotlib.org/</dc:title>
     </cc:Agent>
    </dc:creator>
   </cc:Work>
  </rdf:RDF>
 </metadata>
 <defs>
  <style type="text/css">*{stroke-linejoin: round; stroke-linecap: butt}</style>
 </defs>
 <g id="figure_1">
  <g id="patch_1">
   <path d="M 0 276.48 
L 852.48 276.48 
L 852.48 0 
L 0 0 
z
" style="fill: #ffffff"/>
  </g>
  <g id="axes_1">
   <g id="patch_2">
    <path d="M 72.5447 222.1738 
L 845.28 222.1738 
L 845.28 25.5687 
L 72.5447 25.5687 
z
" style="fill: #ffffff"/>
   </g>
   <g id="PolyCollection_1">
    <defs>
     <path id="mc914541537" d="M 107.669032 -227.860268 
L 107.669032 -223.059941 
L 122.005494 -223.100412 
L 136.341956 -221.953123 
L 150.678418 -221.530682 
L 165.01488 -221.661404 
L 179.351342 -223.375 
L 193.687804 -224.373476 
L 208.024266 -225.243852 
L 222.360728 -226.198695 
L 236.69719 -227.6752 
L 251.033651 -228.798466 
L 265.370113 -229.182852 
L 279.706575 -230.101272 
L 294.043037 -230.439356 
L 308.379499 -231.591836 
L 322.715961 -231.730782 
L 337.052423 -231.652346 
L 351.388885 -232.008973 
L 365.725347 -232.109795 
L 380.061809 -232.58282 
L 394.398271 -232.504807 
L 408.734733 -232.750695 
L 423.071195 -233.082594 
L 437.407657 -233.315929 
L 451.744119 -233.503711 
L 466.080581 -233.751601 
L 480.417043 -233.528234 
L 494.753505 -233.231343 
L 509.089967 -234.431242 
L 523.426429 -234.701693 
L 537.762891 -234.574699 
L 552.099353 -234.252121 
L 566.435815 -234.520304 
L 580.772277 -234.438041 
L 595.108739 -234.979065 
L 609.445201 -235.098861 
L 623.781663 -234.853281 
L 638.118125 -235.158665 
L 652.454587 -235.107401 
L 666.791049 -235.082628 
L 681.12751 -234.815949 
L 695.463972 -235.246633 
L 709.800434 -235.194811 
L 724.136896 -235.520733 
L 738.473358 -235.630828 
L 752.80982 -235.787341 
L 767.146282 -235.69642 
L 781.482744 -236.506561 
L 795.819206 -235.997011 
L 810.155668 -235.933709 
L 810.155668 -240.194629 
L 810.155668 -240.194629 
L 795.819206 -239.972501 
L 781.482744 -240.322887 
L 767.146282 -240.316705 
L 752.80982 -240.380333 
L 738.473358 -240.370518 
L 724.136896 -239.944839 
L 709.800434 -240.161795 
L 695.463972 -240.007065 
L 681.12751 -240.063366 
L 666.791049 -240.130457 
L 652.454587 -240.376714 
L 638.118125 -240.37939 
L 623.781663 -239.930629 
L 609.445201 -240.392263 
L 595.108739 -240.341425 
L 580.772277 -240.258232 
L 566.435815 -240.359715 
L 552.099353 -240.277129 
L 537.762891 -239.586094 
L 523.426429 -240.111954 
L 509.089967 -239.762476 
L 494.753505 -239.513395 
L 480.417043 -239.063729 
L 466.080581 -239.321329 
L 451.744119 -239.002756 
L 437.407657 -239.013476 
L 423.071195 -238.554305 
L 408.734733 -238.257501 
L 394.398271 -237.809697 
L 380.061809 -237.032298 
L 365.725347 -237.137776 
L 351.388885 -237.210006 
L 337.052423 -236.519944 
L 322.715961 -236.267977 
L 308.379499 -235.326241 
L 294.043037 -235.396086 
L 279.706575 -234.931768 
L 265.370113 -233.920764 
L 251.033651 -233.43997 
L 236.69719 -232.700943 
L 222.360728 -231.670587 
L 208.024266 -231.117213 
L 193.687804 -230.204611 
L 179.351342 -229.293971 
L 165.01488 -228.095549 
L 150.678418 -226.679695 
L 136.341956 -225.246048 
L 122.005494 -223.605959 
L 107.669032 -227.860268 
z
" style="stroke: #595c79; stroke-opacity: 0.15; stroke-width: 2.5"/>
    </defs>
    <g clip-path="url(#pccfcece087)">
     <use xlink:href="#mc914541537" x="0" y="276.48" style="fill: #595c79; fill-opacity: 0.15; stroke: #595c79; stroke-opacity: 0.15; stroke-width: 2.5"/>
    </g>
   </g>
   <g id="PolyCollection_2">
    <defs>
     <path id="m1e07dc78a9" d="M 107.669032 -232.71436 
L 107.669032 -186.538835 
L 122.005494 -177.103894 
L 136.341956 -183.864695 
L 150.678418 -201.36854 
L 165.01488 -205.660332 
L 179.351342 -209.980412 
L 193.687804 -212.615595 
L 208.024266 -205.466218 
L 222.360728 -218.476845 
L 236.69719 -220.05086 
L 251.033651 -216.675327 
L 265.370113 -226.384343 
L 279.706575 -226.492352 
L 294.043037 -223.591035 
L 308.379499 -227.931962 
L 322.715961 -223.985856 
L 337.052423 -226.949017 
L 351.388885 -224.262031 
L 365.725347 -230.55307 
L 380.061809 -226.154942 
L 394.398271 -228.379265 
L 408.734733 -224.3616 
L 423.071195 -228.607032 
L 437.407657 -227.763041 
L 451.744119 -227.276677 
L 466.080581 -230.092061 
L 480.417043 -225.621404 
L 494.753505 -225.530198 
L 509.089967 -229.964668 
L 523.426429 -230.926919 
L 537.762891 -228.953255 
L 552.099353 -227.40546 
L 566.435815 -229.879861 
L 580.772277 -227.378019 
L 595.108739 -228.829796 
L 609.445201 -226.948669 
L 623.781663 -225.480874 
L 638.118125 -231.587648 
L 652.454587 -227.39851 
L 666.791049 -224.792752 
L 681.12751 -228.148821 
L 695.463972 -224.168679 
L 709.800434 -227.571053 
L 724.136896 -227.843038 
L 738.473358 -227.0651 
L 752.80982 -226.113924 
L 767.146282 -231.528213 
L 781.482744 -227.05249 
L 795.819206 -227.765984 
L 810.155668 -228.280933 
L 810.155668 -239.13888 
L 810.155668 -239.13888 
L 795.819206 -239.765608 
L 781.482744 -239.672016 
L 767.146282 -239.916683 
L 752.80982 -240.029958 
L 738.473358 -239.225923 
L 724.136896 -239.470504 
L 709.800434 -239.772016 
L 695.463972 -238.778801 
L 681.12751 -240.206683 
L 666.791049 -240.051686 
L 652.454587 -239.716556 
L 638.118125 -239.862245 
L 623.781663 -239.402944 
L 609.445201 -239.877702 
L 595.108739 -239.465244 
L 580.772277 -239.747803 
L 566.435815 -239.662821 
L 552.099353 -239.163707 
L 537.762891 -239.155329 
L 523.426429 -239.243351 
L 509.089967 -239.392319 
L 494.753505 -238.845118 
L 480.417043 -239.089853 
L 466.080581 -239.131563 
L 451.744119 -239.146708 
L 437.407657 -239.338508 
L 423.071195 -238.991634 
L 408.734733 -238.499001 
L 394.398271 -238.798576 
L 380.061809 -238.667337 
L 365.725347 -238.448602 
L 351.388885 -238.353224 
L 337.052423 -237.957021 
L 322.715961 -237.911615 
L 308.379499 -238.71509 
L 294.043037 -238.553194 
L 279.706575 -237.626224 
L 265.370113 -239.340462 
L 251.033651 -237.586408 
L 236.69719 -238.247279 
L 222.360728 -237.592789 
L 208.024266 -237.114892 
L 193.687804 -236.376972 
L 179.351342 -238.023748 
L 165.01488 -238.918348 
L 150.678418 -238.282611 
L 136.341956 -236.019981 
L 122.005494 -234.920169 
L 107.669032 -232.71436 
z
" style="stroke: #92aab1; stroke-opacity: 0.15; stroke-width: 2.5"/>
    </defs>
    <g clip-path="url(#pccfcece087)">
     <use xlink:href="#m1e07dc78a9" x="0" y="276.48" style="fill: #92aab1; fill-opacity: 0.15; stroke: #92aab1; stroke-opacity: 0.15; stroke-width: 2.5"/>
    </g>
   </g>
   <g id="PolyCollection_3">
    <defs>
     <path id="m954fc557d8" d="M 107.669032 -234.631935 
L 107.669032 -144.380112 
L 122.005494 -139.736527 
L 136.341956 -155.87206 
L 150.678418 -180.8808 
L 165.01488 -185.390289 
L 179.351342 -193.593197 
L 193.687804 -196.090849 
L 208.024266 -188.23647 
L 222.360728 -201.617953 
L 236.69719 -198.799265 
L 251.033651 -195.267388 
L 265.370113 -205.785343 
L 279.706575 -208.203139 
L 294.043037 -201.956212 
L 308.379499 -206.890311 
L 322.715961 -200.81353 
L 337.052423 -210.544466 
L 351.388885 -206.805261 
L 365.725347 -213.350885 
L 380.061809 -213.1455 
L 394.398271 -213.142609 
L 408.734733 -207.672019 
L 423.071195 -212.522877 
L 437.407657 -210.935177 
L 451.744119 -214.599716 
L 466.080581 -217.349726 
L 480.417043 -212.890127 
L 494.753505 -211.858127 
L 509.089967 -215.052538 
L 523.426429 -220.002749 
L 537.762891 -218.089424 
L 552.099353 -216.194761 
L 566.435815 -218.218556 
L 580.772277 -217.129089 
L 595.108739 -216.511063 
L 609.445201 -216.114393 
L 623.781663 -211.741961 
L 638.118125 -218.844906 
L 652.454587 -216.869371 
L 666.791049 -213.043457 
L 681.12751 -212.766374 
L 695.463972 -209.411917 
L 709.800434 -215.34931 
L 724.136896 -218.273468 
L 738.473358 -218.565096 
L 752.80982 -213.917159 
L 767.146282 -217.970469 
L 781.482744 -214.033603 
L 795.819206 -218.5637 
L 810.155668 -214.546558 
L 810.155668 -237.984759 
L 810.155668 -237.984759 
L 795.819206 -238.291668 
L 781.482744 -238.761435 
L 767.146282 -238.444361 
L 752.80982 -239.056324 
L 738.473358 -238.600457 
L 724.136896 -238.252523 
L 709.800434 -238.582495 
L 695.463972 -238.109842 
L 681.12751 -238.872172 
L 666.791049 -239.008857 
L 652.454587 -237.960659 
L 638.118125 -238.508625 
L 623.781663 -238.278849 
L 609.445201 -239.516642 
L 595.108739 -237.861578 
L 580.772277 -238.197885 
L 566.435815 -238.449349 
L 552.099353 -237.785006 
L 537.762891 -237.872554 
L 523.426429 -238.226866 
L 509.089967 -239.006539 
L 494.753505 -238.034435 
L 480.417043 -238.297357 
L 466.080581 -238.809501 
L 451.744119 -238.12745 
L 437.407657 -237.980369 
L 423.071195 -238.867022 
L 408.734733 -238.383069 
L 394.398271 -238.562853 
L 380.061809 -238.388526 
L 365.725347 -239.042256 
L 351.388885 -238.746466 
L 337.052423 -236.689379 
L 322.715961 -237.703598 
L 308.379499 -238.754855 
L 294.043037 -239.479834 
L 279.706575 -239.059334 
L 265.370113 -240.343562 
L 251.033651 -238.225831 
L 236.69719 -240.075441 
L 222.360728 -239.64928 
L 208.024266 -238.93864 
L 193.687804 -240.030454 
L 179.351342 -241.033605 
L 165.01488 -241.974705 
L 150.678418 -241.330891 
L 136.341956 -237.769137 
L 122.005494 -238.10051 
L 107.669032 -234.631935 
z
" style="stroke: #b2cece; stroke-opacity: 0.15; stroke-width: 2.5"/>
    </defs>
    <g clip-path="url(#pccfcece087)">
     <use xlink:href="#m954fc557d8" x="0" y="276.48" style="fill: #b2cece; fill-opacity: 0.15; stroke: #b2cece; stroke-opacity: 0.15; stroke-width: 2.5"/>
    </g>
   </g>
   <g id="PolyCollection_4">
    <defs>
     <path id="m04523142e8" d="M 107.669032 -227.810766 
L 107.669032 -63.242795 
L 122.005494 -76.239692 
L 136.341956 -76.627925 
L 150.678418 -106.560515 
L 165.01488 -112.220726 
L 179.351342 -111.023334 
L 193.687804 -123.799469 
L 208.024266 -137.838104 
L 222.360728 -133.842121 
L 236.69719 -133.606255 
L 251.033651 -126.102678 
L 265.370113 -142.61497 
L 279.706575 -139.960633 
L 294.043037 -150.941589 
L 308.379499 -144.313103 
L 322.715961 -155.530926 
L 337.052423 -147.957175 
L 351.388885 -152.18942 
L 365.725347 -153.385177 
L 380.061809 -161.858521 
L 394.398271 -123.510459 
L 408.734733 -145.376829 
L 423.071195 -150.858369 
L 437.407657 -155.688188 
L 451.744119 -163.579267 
L 466.080581 -142.60472 
L 480.417043 -132.82435 
L 494.753505 -142.75746 
L 509.089967 -145.057999 
L 523.426429 -163.878963 
L 537.762891 -146.678855 
L 552.099353 -155.765415 
L 566.435815 -148.469133 
L 580.772277 -158.611759 
L 595.108739 -144.460536 
L 609.445201 -152.483693 
L 623.781663 -159.586859 
L 638.118125 -148.580876 
L 652.454587 -149.695049 
L 666.791049 -147.327675 
L 681.12751 -147.08969 
L 695.463972 -157.629924 
L 709.800434 -164.232563 
L 724.136896 -153.724343 
L 738.473358 -152.05694 
L 752.80982 -152.348067 
L 767.146282 -156.56748 
L 781.482744 -150.800627 
L 795.819206 -146.283712 
L 810.155668 -141.911745 
L 810.155668 -222.702544 
L 810.155668 -222.702544 
L 795.819206 -226.64445 
L 781.482744 -228.031554 
L 767.146282 -224.779145 
L 752.80982 -228.935856 
L 738.473358 -219.942205 
L 724.136896 -224.347876 
L 709.800434 -228.777253 
L 695.463972 -223.866325 
L 681.12751 -226.293031 
L 666.791049 -224.687564 
L 652.454587 -224.178139 
L 638.118125 -220.400207 
L 623.781663 -228.85899 
L 609.445201 -227.863419 
L 595.108739 -229.253436 
L 580.772277 -228.809972 
L 566.435815 -226.212192 
L 552.099353 -225.46686 
L 537.762891 -222.432513 
L 523.426429 -230.662371 
L 509.089967 -224.387098 
L 494.753505 -222.100762 
L 480.417043 -223.220184 
L 466.080581 -226.328103 
L 451.744119 -227.814548 
L 437.407657 -228.2251 
L 423.071195 -229.410978 
L 408.734733 -226.617079 
L 394.398271 -223.430884 
L 380.061809 -227.284366 
L 365.725347 -229.46871 
L 351.388885 -230.140885 
L 337.052423 -224.66662 
L 322.715961 -228.232359 
L 308.379499 -225.952806 
L 294.043037 -229.0534 
L 279.706575 -226.567598 
L 265.370113 -232.836693 
L 251.033651 -227.117735 
L 236.69719 -228.614142 
L 222.360728 -221.559249 
L 208.024266 -228.791403 
L 193.687804 -225.163953 
L 179.351342 -228.058967 
L 165.01488 -226.72199 
L 150.678418 -230.93663 
L 136.341956 -227.383063 
L 122.005494 -231.987738 
L 107.669032 -227.810766 
z
" style="stroke: #dde9e9; stroke-opacity: 0.15; stroke-width: 2.5"/>
    </defs>
    <g clip-path="url(#pccfcece087)">
     <use xlink:href="#m04523142e8" x="0" y="276.48" style="fill: #dde9e9; fill-opacity: 0.15; stroke: #dde9e9; stroke-opacity: 0.15; stroke-width: 2.5"/>
    </g>
   </g>
   <g id="matplotlib.axis_1">
    <g id="xtick_1">
     <g id="line2d_1">
      <defs>
       <path id="m387a34f230" d="M 0 0 
L 0 8 
" style="stroke: #000000; stroke-width: 2"/>
      </defs>
      <g>
       <use xlink:href="#m387a34f230" x="107.669032" y="222.1738" style="stroke: #000000; stroke-width: 2"/>
      </g>
     </g>
     <g id="text_1">
      <!-- 0 -->
      <g transform="translate(102.864382 246.0425)scale(0.1728 -0.1728)">
       <defs>
        <path id="ArialMT-30" d="M 266 2259 
Q 266 3072 433 3567 
Q 600 4063 929 4331 
Q 1259 4600 1759 4600 
Q 2128 4600 2406 4451 
Q 2684 4303 2865 4023 
Q 3047 3744 3150 3342 
Q 3253 2941 3253 2259 
Q 3253 1453 3087 958 
Q 2922 463 2592 192 
Q 2263 -78 1759 -78 
Q 1097 -78 719 397 
Q 266 969 266 2259 
z
M 844 2259 
Q 844 1131 1108 757 
Q 1372 384 1759 384 
Q 2147 384 2411 759 
Q 2675 1134 2675 2259 
Q 2675 3391 2411 3762 
Q 2147 4134 1753 4134 
Q 1366 4134 1134 3806 
Q 844 3388 844 2259 
z
" transform="scale(0.015625)"/>
       </defs>
       <use xlink:href="#ArialMT-30"/>
      </g>
     </g>
    </g>
    <g id="xtick_2">
     <g id="line2d_2">
      <g>
       <use xlink:href="#m387a34f230" x="251.033651" y="222.1738" style="stroke: #000000; stroke-width: 2"/>
      </g>
     </g>
     <g id="text_2">
      <!-- 10 -->
      <g transform="translate(241.424351 246.0425)scale(0.1728 -0.1728)">
       <defs>
        <path id="ArialMT-31" d="M 2384 0 
L 1822 0 
L 1822 3584 
Q 1619 3391 1289 3197 
Q 959 3003 697 2906 
L 697 3450 
Q 1169 3672 1522 3987 
Q 1875 4303 2022 4600 
L 2384 4600 
L 2384 0 
z
" transform="scale(0.015625)"/>
       </defs>
       <use xlink:href="#ArialMT-31"/>
       <use xlink:href="#ArialMT-30" x="55.615234"/>
      </g>
     </g>
    </g>
    <g id="xtick_3">
     <g id="line2d_3">
      <g>
       <use xlink:href="#m387a34f230" x="394.398271" y="222.1738" style="stroke: #000000; stroke-width: 2"/>
      </g>
     </g>
     <g id="text_3">
      <!-- 20 -->
      <g transform="translate(384.788971 246.0425)scale(0.1728 -0.1728)">
       <defs>
        <path id="ArialMT-32" d="M 3222 541 
L 3222 0 
L 194 0 
Q 188 203 259 391 
Q 375 700 629 1000 
Q 884 1300 1366 1694 
Q 2113 2306 2375 2664 
Q 2638 3022 2638 3341 
Q 2638 3675 2398 3904 
Q 2159 4134 1775 4134 
Q 1369 4134 1125 3890 
Q 881 3647 878 3216 
L 300 3275 
Q 359 3922 746 4261 
Q 1134 4600 1788 4600 
Q 2447 4600 2831 4234 
Q 3216 3869 3216 3328 
Q 3216 3053 3103 2787 
Q 2991 2522 2730 2228 
Q 2469 1934 1863 1422 
Q 1356 997 1212 845 
Q 1069 694 975 541 
L 3222 541 
z
" transform="scale(0.015625)"/>
       </defs>
       <use xlink:href="#ArialMT-32"/>
       <use xlink:href="#ArialMT-30" x="55.615234"/>
      </g>
     </g>
    </g>
    <g id="xtick_4">
     <g id="line2d_4">
      <g>
       <use xlink:href="#m387a34f230" x="537.762891" y="222.1738" style="stroke: #000000; stroke-width: 2"/>
      </g>
     </g>
     <g id="text_4">
      <!-- 30 -->
      <g transform="translate(528.153591 246.0425)scale(0.1728 -0.1728)">
       <defs>
        <path id="ArialMT-33" d="M 269 1209 
L 831 1284 
Q 928 806 1161 595 
Q 1394 384 1728 384 
Q 2125 384 2398 659 
Q 2672 934 2672 1341 
Q 2672 1728 2419 1979 
Q 2166 2231 1775 2231 
Q 1616 2231 1378 2169 
L 1441 2663 
Q 1497 2656 1531 2656 
Q 1891 2656 2178 2843 
Q 2466 3031 2466 3422 
Q 2466 3731 2256 3934 
Q 2047 4138 1716 4138 
Q 1388 4138 1169 3931 
Q 950 3725 888 3313 
L 325 3413 
Q 428 3978 793 4289 
Q 1159 4600 1703 4600 
Q 2078 4600 2393 4439 
Q 2709 4278 2876 4000 
Q 3044 3722 3044 3409 
Q 3044 3113 2884 2869 
Q 2725 2625 2413 2481 
Q 2819 2388 3044 2092 
Q 3269 1797 3269 1353 
Q 3269 753 2831 336 
Q 2394 -81 1725 -81 
Q 1122 -81 723 278 
Q 325 638 269 1209 
z
" transform="scale(0.015625)"/>
       </defs>
       <use xlink:href="#ArialMT-33"/>
       <use xlink:href="#ArialMT-30" x="55.615234"/>
      </g>
     </g>
    </g>
    <g id="xtick_5">
     <g id="line2d_5">
      <g>
       <use xlink:href="#m387a34f230" x="681.12751" y="222.1738" style="stroke: #000000; stroke-width: 2"/>
      </g>
     </g>
     <g id="text_5">
      <!-- 40 -->
      <g transform="translate(671.51821 246.0425)scale(0.1728 -0.1728)">
       <defs>
        <path id="ArialMT-34" d="M 2069 0 
L 2069 1097 
L 81 1097 
L 81 1613 
L 2172 4581 
L 2631 4581 
L 2631 1613 
L 3250 1613 
L 3250 1097 
L 2631 1097 
L 2631 0 
L 2069 0 
z
M 2069 1613 
L 2069 3678 
L 634 1613 
L 2069 1613 
z
" transform="scale(0.015625)"/>
       </defs>
       <use xlink:href="#ArialMT-34"/>
       <use xlink:href="#ArialMT-30" x="55.615234"/>
      </g>
     </g>
    </g>
    <g id="xtick_6">
     <g id="line2d_6">
      <g>
       <use xlink:href="#m387a34f230" x="824.49213" y="222.1738" style="stroke: #000000; stroke-width: 2"/>
      </g>
     </g>
     <g id="text_6">
      <!-- 50 -->
      <g transform="translate(814.88283 246.0425)scale(0.1728 -0.1728)">
       <defs>
        <path id="ArialMT-35" d="M 266 1200 
L 856 1250 
Q 922 819 1161 601 
Q 1400 384 1738 384 
Q 2144 384 2425 690 
Q 2706 997 2706 1503 
Q 2706 1984 2436 2262 
Q 2166 2541 1728 2541 
Q 1456 2541 1237 2417 
Q 1019 2294 894 2097 
L 366 2166 
L 809 4519 
L 3088 4519 
L 3088 3981 
L 1259 3981 
L 1013 2750 
Q 1425 3038 1878 3038 
Q 2478 3038 2890 2622 
Q 3303 2206 3303 1553 
Q 3303 931 2941 478 
Q 2500 -78 1738 -78 
Q 1113 -78 717 272 
Q 322 622 266 1200 
z
" transform="scale(0.015625)"/>
       </defs>
       <use xlink:href="#ArialMT-35"/>
       <use xlink:href="#ArialMT-30" x="55.615234"/>
      </g>
     </g>
    </g>
    <g id="text_7">
     <!-- Epoch -->
     <g transform="translate(434.41525 265.8456)scale(0.1728 -0.1728)">
      <defs>
       <path id="ArialMT-45" d="M 506 0 
L 506 4581 
L 3819 4581 
L 3819 4041 
L 1113 4041 
L 1113 2638 
L 3647 2638 
L 3647 2100 
L 1113 2100 
L 1113 541 
L 3925 541 
L 3925 0 
L 506 0 
z
" transform="scale(0.015625)"/>
       <path id="ArialMT-70" d="M 422 -1272 
L 422 3319 
L 934 3319 
L 934 2888 
Q 1116 3141 1344 3267 
Q 1572 3394 1897 3394 
Q 2322 3394 2647 3175 
Q 2972 2956 3137 2557 
Q 3303 2159 3303 1684 
Q 3303 1175 3120 767 
Q 2938 359 2589 142 
Q 2241 -75 1856 -75 
Q 1575 -75 1351 44 
Q 1128 163 984 344 
L 984 -1272 
L 422 -1272 
z
M 931 1641 
Q 931 1000 1190 694 
Q 1450 388 1819 388 
Q 2194 388 2461 705 
Q 2728 1022 2728 1688 
Q 2728 2322 2467 2637 
Q 2206 2953 1844 2953 
Q 1484 2953 1207 2617 
Q 931 2281 931 1641 
z
" transform="scale(0.015625)"/>
       <path id="ArialMT-6f" d="M 213 1659 
Q 213 2581 725 3025 
Q 1153 3394 1769 3394 
Q 2453 3394 2887 2945 
Q 3322 2497 3322 1706 
Q 3322 1066 3130 698 
Q 2938 331 2570 128 
Q 2203 -75 1769 -75 
Q 1072 -75 642 372 
Q 213 819 213 1659 
z
M 791 1659 
Q 791 1022 1069 705 
Q 1347 388 1769 388 
Q 2188 388 2466 706 
Q 2744 1025 2744 1678 
Q 2744 2294 2464 2611 
Q 2184 2928 1769 2928 
Q 1347 2928 1069 2612 
Q 791 2297 791 1659 
z
" transform="scale(0.015625)"/>
       <path id="ArialMT-63" d="M 2588 1216 
L 3141 1144 
Q 3050 572 2676 248 
Q 2303 -75 1759 -75 
Q 1078 -75 664 370 
Q 250 816 250 1647 
Q 250 2184 428 2587 
Q 606 2991 970 3192 
Q 1334 3394 1763 3394 
Q 2303 3394 2647 3120 
Q 2991 2847 3088 2344 
L 2541 2259 
Q 2463 2594 2264 2762 
Q 2066 2931 1784 2931 
Q 1359 2931 1093 2626 
Q 828 2322 828 1663 
Q 828 994 1084 691 
Q 1341 388 1753 388 
Q 2084 388 2306 591 
Q 2528 794 2588 1216 
z
" transform="scale(0.015625)"/>
       <path id="ArialMT-68" d="M 422 0 
L 422 4581 
L 984 4581 
L 984 2938 
Q 1378 3394 1978 3394 
Q 2347 3394 2619 3248 
Q 2891 3103 3008 2847 
Q 3125 2591 3125 2103 
L 3125 0 
L 2563 0 
L 2563 2103 
Q 2563 2525 2380 2717 
Q 2197 2909 1863 2909 
Q 1613 2909 1392 2779 
Q 1172 2650 1078 2428 
Q 984 2206 984 1816 
L 984 0 
L 422 0 
z
" transform="scale(0.015625)"/>
      </defs>
      <use xlink:href="#ArialMT-45"/>
      <use xlink:href="#ArialMT-70" x="66.699219"/>
      <use xlink:href="#ArialMT-6f" x="122.314453"/>
      <use xlink:href="#ArialMT-63" x="177.929688"/>
      <use xlink:href="#ArialMT-68" x="227.929688"/>
     </g>
    </g>
   </g>
   <g id="matplotlib.axis_2">
    <g id="ytick_1">
     <g id="line2d_7">
      <defs>
       <path id="m5b76ee1e6d" d="M 0 0 
L -8 0 
" style="stroke: #000000; stroke-width: 2"/>
      </defs>
      <g>
       <use xlink:href="#m5b76ee1e6d" x="72.5447" y="165.436647" style="stroke: #000000; stroke-width: 2"/>
      </g>
     </g>
     <g id="text_8">
      <!-- 0.90 -->
      <g transform="translate(27.4162 171.620997)scale(0.1728 -0.1728)">
       <defs>
        <path id="ArialMT-2e" d="M 581 0 
L 581 641 
L 1222 641 
L 1222 0 
L 581 0 
z
" transform="scale(0.015625)"/>
        <path id="ArialMT-39" d="M 350 1059 
L 891 1109 
Q 959 728 1153 556 
Q 1347 384 1650 384 
Q 1909 384 2104 503 
Q 2300 622 2425 820 
Q 2550 1019 2634 1356 
Q 2719 1694 2719 2044 
Q 2719 2081 2716 2156 
Q 2547 1888 2255 1720 
Q 1963 1553 1622 1553 
Q 1053 1553 659 1965 
Q 266 2378 266 3053 
Q 266 3750 677 4175 
Q 1088 4600 1706 4600 
Q 2153 4600 2523 4359 
Q 2894 4119 3086 3673 
Q 3278 3228 3278 2384 
Q 3278 1506 3087 986 
Q 2897 466 2520 194 
Q 2144 -78 1638 -78 
Q 1100 -78 759 220 
Q 419 519 350 1059 
z
M 2653 3081 
Q 2653 3566 2395 3850 
Q 2138 4134 1775 4134 
Q 1400 4134 1122 3828 
Q 844 3522 844 3034 
Q 844 2597 1108 2323 
Q 1372 2050 1759 2050 
Q 2150 2050 2401 2323 
Q 2653 2597 2653 3081 
z
" transform="scale(0.015625)"/>
       </defs>
       <use xlink:href="#ArialMT-30"/>
       <use xlink:href="#ArialMT-2e" x="55.615234"/>
       <use xlink:href="#ArialMT-39" x="83.398438"/>
       <use xlink:href="#ArialMT-30" x="139.013672"/>
      </g>
     </g>
    </g>
    <g id="ytick_2">
     <g id="line2d_8">
      <g>
       <use xlink:href="#m5b76ee1e6d" x="72.5447" y="97.61881" style="stroke: #000000; stroke-width: 2"/>
      </g>
     </g>
     <g id="text_9">
      <!-- 0.95 -->
      <g transform="translate(27.4162 103.80316)scale(0.1728 -0.1728)">
       <use xlink:href="#ArialMT-30"/>
       <use xlink:href="#ArialMT-2e" x="55.615234"/>
       <use xlink:href="#ArialMT-39" x="83.398438"/>
       <use xlink:href="#ArialMT-35" x="139.013672"/>
      </g>
     </g>
    </g>
    <g id="ytick_3">
     <g id="line2d_9">
      <g>
       <use xlink:href="#m5b76ee1e6d" x="72.5447" y="29.800972" style="stroke: #000000; stroke-width: 2"/>
      </g>
     </g>
     <g id="text_10">
      <!-- 1.00 -->
      <g transform="translate(27.4162 35.985322)scale(0.1728 -0.1728)">
       <use xlink:href="#ArialMT-31"/>
       <use xlink:href="#ArialMT-2e" x="55.615234"/>
       <use xlink:href="#ArialMT-30" x="83.398438"/>
       <use xlink:href="#ArialMT-30" x="139.013672"/>
      </g>
     </g>
    </g>
    <g id="text_11">
     <!-- Gradient Alignment -->
     <g transform="translate(19.7793 197.3504)rotate(-90)scale(0.1728 -0.1728)">
      <defs>
       <path id="ArialMT-47" d="M 2638 1797 
L 2638 2334 
L 4578 2338 
L 4578 638 
Q 4131 281 3656 101 
Q 3181 -78 2681 -78 
Q 2006 -78 1454 211 
Q 903 500 622 1047 
Q 341 1594 341 2269 
Q 341 2938 620 3517 
Q 900 4097 1425 4378 
Q 1950 4659 2634 4659 
Q 3131 4659 3532 4498 
Q 3934 4338 4162 4050 
Q 4391 3763 4509 3300 
L 3963 3150 
Q 3859 3500 3706 3700 
Q 3553 3900 3268 4020 
Q 2984 4141 2638 4141 
Q 2222 4141 1919 4014 
Q 1616 3888 1430 3681 
Q 1244 3475 1141 3228 
Q 966 2803 966 2306 
Q 966 1694 1177 1281 
Q 1388 869 1791 669 
Q 2194 469 2647 469 
Q 3041 469 3416 620 
Q 3791 772 3984 944 
L 3984 1797 
L 2638 1797 
z
" transform="scale(0.015625)"/>
       <path id="ArialMT-72" d="M 416 0 
L 416 3319 
L 922 3319 
L 922 2816 
Q 1116 3169 1280 3281 
Q 1444 3394 1641 3394 
Q 1925 3394 2219 3213 
L 2025 2691 
Q 1819 2813 1613 2813 
Q 1428 2813 1281 2702 
Q 1134 2591 1072 2394 
Q 978 2094 978 1738 
L 978 0 
L 416 0 
z
" transform="scale(0.015625)"/>
       <path id="ArialMT-61" d="M 2588 409 
Q 2275 144 1986 34 
Q 1697 -75 1366 -75 
Q 819 -75 525 192 
Q 231 459 231 875 
Q 231 1119 342 1320 
Q 453 1522 633 1644 
Q 813 1766 1038 1828 
Q 1203 1872 1538 1913 
Q 2219 1994 2541 2106 
Q 2544 2222 2544 2253 
Q 2544 2597 2384 2738 
Q 2169 2928 1744 2928 
Q 1347 2928 1158 2789 
Q 969 2650 878 2297 
L 328 2372 
Q 403 2725 575 2942 
Q 747 3159 1072 3276 
Q 1397 3394 1825 3394 
Q 2250 3394 2515 3294 
Q 2781 3194 2906 3042 
Q 3031 2891 3081 2659 
Q 3109 2516 3109 2141 
L 3109 1391 
Q 3109 606 3145 398 
Q 3181 191 3288 0 
L 2700 0 
Q 2613 175 2588 409 
z
M 2541 1666 
Q 2234 1541 1622 1453 
Q 1275 1403 1131 1340 
Q 988 1278 909 1158 
Q 831 1038 831 891 
Q 831 666 1001 516 
Q 1172 366 1500 366 
Q 1825 366 2078 508 
Q 2331 650 2450 897 
Q 2541 1088 2541 1459 
L 2541 1666 
z
" transform="scale(0.015625)"/>
       <path id="ArialMT-64" d="M 2575 0 
L 2575 419 
Q 2259 -75 1647 -75 
Q 1250 -75 917 144 
Q 584 363 401 755 
Q 219 1147 219 1656 
Q 219 2153 384 2558 
Q 550 2963 881 3178 
Q 1213 3394 1622 3394 
Q 1922 3394 2156 3267 
Q 2391 3141 2538 2938 
L 2538 4581 
L 3097 4581 
L 3097 0 
L 2575 0 
z
M 797 1656 
Q 797 1019 1065 703 
Q 1334 388 1700 388 
Q 2069 388 2326 689 
Q 2584 991 2584 1609 
Q 2584 2291 2321 2609 
Q 2059 2928 1675 2928 
Q 1300 2928 1048 2622 
Q 797 2316 797 1656 
z
" transform="scale(0.015625)"/>
       <path id="ArialMT-69" d="M 425 3934 
L 425 4581 
L 988 4581 
L 988 3934 
L 425 3934 
z
M 425 0 
L 425 3319 
L 988 3319 
L 988 0 
L 425 0 
z
" transform="scale(0.015625)"/>
       <path id="ArialMT-65" d="M 2694 1069 
L 3275 997 
Q 3138 488 2766 206 
Q 2394 -75 1816 -75 
Q 1088 -75 661 373 
Q 234 822 234 1631 
Q 234 2469 665 2931 
Q 1097 3394 1784 3394 
Q 2450 3394 2872 2941 
Q 3294 2488 3294 1666 
Q 3294 1616 3291 1516 
L 816 1516 
Q 847 969 1125 678 
Q 1403 388 1819 388 
Q 2128 388 2347 550 
Q 2566 713 2694 1069 
z
M 847 1978 
L 2700 1978 
Q 2663 2397 2488 2606 
Q 2219 2931 1791 2931 
Q 1403 2931 1139 2672 
Q 875 2413 847 1978 
z
" transform="scale(0.015625)"/>
       <path id="ArialMT-6e" d="M 422 0 
L 422 3319 
L 928 3319 
L 928 2847 
Q 1294 3394 1984 3394 
Q 2284 3394 2536 3286 
Q 2788 3178 2913 3003 
Q 3038 2828 3088 2588 
Q 3119 2431 3119 2041 
L 3119 0 
L 2556 0 
L 2556 2019 
Q 2556 2363 2490 2533 
Q 2425 2703 2258 2804 
Q 2091 2906 1866 2906 
Q 1506 2906 1245 2678 
Q 984 2450 984 1813 
L 984 0 
L 422 0 
z
" transform="scale(0.015625)"/>
       <path id="ArialMT-74" d="M 1650 503 
L 1731 6 
Q 1494 -44 1306 -44 
Q 1000 -44 831 53 
Q 663 150 594 308 
Q 525 466 525 972 
L 525 2881 
L 113 2881 
L 113 3319 
L 525 3319 
L 525 4141 
L 1084 4478 
L 1084 3319 
L 1650 3319 
L 1650 2881 
L 1084 2881 
L 1084 941 
Q 1084 700 1114 631 
Q 1144 563 1211 522 
Q 1278 481 1403 481 
Q 1497 481 1650 503 
z
" transform="scale(0.015625)"/>
       <path id="ArialMT-20" transform="scale(0.015625)"/>
       <path id="ArialMT-41" d="M -9 0 
L 1750 4581 
L 2403 4581 
L 4278 0 
L 3588 0 
L 3053 1388 
L 1138 1388 
L 634 0 
L -9 0 
z
M 1313 1881 
L 2866 1881 
L 2388 3150 
Q 2169 3728 2063 4100 
Q 1975 3659 1816 3225 
L 1313 1881 
z
" transform="scale(0.015625)"/>
       <path id="ArialMT-6c" d="M 409 0 
L 409 4581 
L 972 4581 
L 972 0 
L 409 0 
z
" transform="scale(0.015625)"/>
       <path id="ArialMT-67" d="M 319 -275 
L 866 -356 
Q 900 -609 1056 -725 
Q 1266 -881 1628 -881 
Q 2019 -881 2231 -725 
Q 2444 -569 2519 -288 
Q 2563 -116 2559 434 
Q 2191 0 1641 0 
Q 956 0 581 494 
Q 206 988 206 1678 
Q 206 2153 378 2554 
Q 550 2956 876 3175 
Q 1203 3394 1644 3394 
Q 2231 3394 2613 2919 
L 2613 3319 
L 3131 3319 
L 3131 450 
Q 3131 -325 2973 -648 
Q 2816 -972 2473 -1159 
Q 2131 -1347 1631 -1347 
Q 1038 -1347 672 -1080 
Q 306 -813 319 -275 
z
M 784 1719 
Q 784 1066 1043 766 
Q 1303 466 1694 466 
Q 2081 466 2343 764 
Q 2606 1063 2606 1700 
Q 2606 2309 2336 2618 
Q 2066 2928 1684 2928 
Q 1309 2928 1046 2623 
Q 784 2319 784 1719 
z
" transform="scale(0.015625)"/>
       <path id="ArialMT-6d" d="M 422 0 
L 422 3319 
L 925 3319 
L 925 2853 
Q 1081 3097 1340 3245 
Q 1600 3394 1931 3394 
Q 2300 3394 2536 3241 
Q 2772 3088 2869 2813 
Q 3263 3394 3894 3394 
Q 4388 3394 4653 3120 
Q 4919 2847 4919 2278 
L 4919 0 
L 4359 0 
L 4359 2091 
Q 4359 2428 4304 2576 
Q 4250 2725 4106 2815 
Q 3963 2906 3769 2906 
Q 3419 2906 3187 2673 
Q 2956 2441 2956 1928 
L 2956 0 
L 2394 0 
L 2394 2156 
Q 2394 2531 2256 2718 
Q 2119 2906 1806 2906 
Q 1569 2906 1367 2781 
Q 1166 2656 1075 2415 
Q 984 2175 984 1722 
L 984 0 
L 422 0 
z
" transform="scale(0.015625)"/>
      </defs>
      <use xlink:href="#ArialMT-47"/>
      <use xlink:href="#ArialMT-72" x="77.783203"/>
      <use xlink:href="#ArialMT-61" x="111.083984"/>
      <use xlink:href="#ArialMT-64" x="166.699219"/>
      <use xlink:href="#ArialMT-69" x="222.314453"/>
      <use xlink:href="#ArialMT-65" x="244.53125"/>
      <use xlink:href="#ArialMT-6e" x="300.146484"/>
      <use xlink:href="#ArialMT-74" x="355.761719"/>
      <use xlink:href="#ArialMT-20" x="383.544922"/>
      <use xlink:href="#ArialMT-41" x="405.828125"/>
      <use xlink:href="#ArialMT-6c" x="472.527344"/>
      <use xlink:href="#ArialMT-69" x="494.744141"/>
      <use xlink:href="#ArialMT-67" x="516.960938"/>
      <use xlink:href="#ArialMT-6e" x="572.576172"/>
      <use xlink:href="#ArialMT-6d" x="628.191406"/>
      <use xlink:href="#ArialMT-65" x="711.492188"/>
      <use xlink:href="#ArialMT-6e" x="767.107422"/>
      <use xlink:href="#ArialMT-74" x="822.722656"/>
     </g>
    </g>
   </g>
   <g id="line2d_10">
    <path d="M 107.669032 51.019895 
L 122.005494 53.126814 
L 136.341956 52.880415 
L 150.678418 52.374812 
L 165.01488 51.601524 
L 179.351342 50.145514 
L 193.687804 49.190957 
L 208.024266 48.299468 
L 222.360728 47.545359 
L 236.69719 46.291929 
L 251.033651 45.360782 
L 265.370113 44.928192 
L 279.706575 43.96348 
L 294.043037 43.562279 
L 308.379499 43.020962 
L 322.715961 42.480621 
L 337.052423 42.393855 
L 351.388885 41.870511 
L 365.725347 41.856215 
L 380.061809 41.672441 
L 394.398271 41.322748 
L 408.734733 40.975902 
L 423.071195 40.661551 
L 437.407657 40.315298 
L 451.744119 40.226767 
L 466.080581 39.943535 
L 480.417043 40.184019 
L 494.753505 40.107631 
L 509.089967 39.383141 
L 523.426429 39.073176 
L 537.762891 39.399604 
L 552.099353 39.215375 
L 566.435815 39.039991 
L 580.772277 39.131863 
L 595.108739 38.819755 
L 609.445201 38.734438 
L 623.781663 39.088045 
L 638.118125 38.710973 
L 652.454587 38.737943 
L 666.791049 38.873458 
L 681.12751 39.040343 
L 695.463972 38.853151 
L 709.800434 38.801697 
L 724.136896 38.747214 
L 738.473358 38.479327 
L 752.80982 38.396163 
L 767.146282 38.473437 
L 781.482744 38.065276 
L 795.819206 38.495244 
L 810.155668 38.415831 
" clip-path="url(#pccfcece087)" style="fill: none; stroke-dasharray: 20,10; stroke-dashoffset: 0; stroke: #595c79; stroke-width: 2.5"/>
   </g>
   <g id="line2d_11">
    <path d="M 107.669032 66.853403 
L 122.005494 70.467968 
L 136.341956 66.537662 
L 150.678418 56.654424 
L 165.01488 54.19066 
L 179.351342 52.47792 
L 193.687804 51.983716 
L 208.024266 55.189445 
L 222.360728 48.445183 
L 236.69719 47.33093 
L 251.033651 49.349133 
L 265.370113 43.617598 
L 279.706575 44.420712 
L 294.043037 45.407885 
L 308.379499 43.156474 
L 322.715961 45.531265 
L 337.052423 44.026981 
L 351.388885 45.172373 
L 365.725347 41.979164 
L 380.061809 44.06886 
L 394.398271 42.89108 
L 408.734733 45.0497 
L 423.071195 42.680667 
L 437.407657 42.929225 
L 451.744119 43.268307 
L 466.080581 41.868188 
L 480.417043 44.124371 
L 494.753505 44.292342 
L 509.089967 41.801507 
L 523.426429 41.394865 
L 537.762891 42.425708 
L 552.099353 43.195416 
L 566.435815 41.708659 
L 580.772277 42.917089 
L 595.108739 42.33248 
L 609.445201 43.066814 
L 623.781663 44.038091 
L 638.118125 40.755054 
L 652.454587 42.922467 
L 666.791049 44.057781 
L 681.12751 42.302248 
L 695.463972 45.00626 
L 709.800434 42.808466 
L 724.136896 42.823229 
L 738.473358 43.334489 
L 752.80982 43.408059 
L 767.146282 40.757552 
L 781.482744 43.117747 
L 795.819206 42.714204 
L 810.155668 42.770094 
" clip-path="url(#pccfcece087)" style="fill: none; stroke-dasharray: 20,10; stroke-dashoffset: 0; stroke: #92aab1; stroke-width: 2.5"/>
   </g>
   <g id="line2d_12">
    <path d="M 107.669032 86.973977 
L 122.005494 87.561481 
L 136.341956 79.659402 
L 150.678418 65.374155 
L 165.01488 62.797503 
L 179.351342 59.166599 
L 193.687804 58.419348 
L 208.024266 62.892445 
L 222.360728 55.846384 
L 236.69719 57.042647 
L 251.033651 59.733391 
L 265.370113 53.415548 
L 279.706575 52.848764 
L 294.043037 55.761977 
L 308.379499 53.657417 
L 322.715961 57.221436 
L 337.052423 52.863077 
L 351.388885 53.704136 
L 365.725347 50.283429 
L 380.061809 50.712987 
L 394.398271 50.627269 
L 408.734733 53.452456 
L 423.071195 50.785051 
L 437.407657 52.022227 
L 451.744119 50.116417 
L 466.080581 48.400387 
L 480.417043 50.886258 
L 494.753505 51.533719 
L 509.089967 49.450462 
L 523.426429 47.365193 
L 537.762891 48.499011 
L 552.099353 49.490116 
L 566.435815 48.146048 
L 580.772277 48.816513 
L 595.108739 49.29368 
L 609.445201 48.664482 
L 623.781663 51.469595 
L 638.118125 47.803235 
L 652.454587 49.064985 
L 666.791049 50.453843 
L 681.12751 50.660727 
L 695.463972 52.71912 
L 709.800434 49.514097 
L 724.136896 48.217004 
L 738.473358 47.897224 
L 752.80982 49.993259 
L 767.146282 48.272585 
L 781.482744 50.082481 
L 795.819206 48.052316 
L 810.155668 50.214342 
" clip-path="url(#pccfcece087)" style="fill: none; stroke-dasharray: 20,10; stroke-dashoffset: 0; stroke: #b2cece; stroke-width: 2.5"/>
   </g>
   <g id="line2d_13">
    <path d="M 107.669032 130.953219 
L 122.005494 122.366285 
L 136.341956 124.474506 
L 150.678418 107.731427 
L 165.01488 107.008642 
L 179.351342 106.93885 
L 193.687804 101.998289 
L 208.024266 93.165246 
L 222.360728 98.779315 
L 236.69719 95.369801 
L 251.033651 99.869793 
L 265.370113 88.754168 
L 279.706575 93.215884 
L 294.043037 86.482506 
L 308.379499 91.347046 
L 322.715961 84.598357 
L 337.052423 90.168102 
L 351.388885 85.314847 
L 365.725347 85.053056 
L 380.061809 81.908556 
L 394.398271 103.009329 
L 408.734733 90.483046 
L 423.071195 86.345327 
L 437.407657 84.523356 
L 451.744119 80.783092 
L 466.080581 92.013588 
L 480.417043 98.457733 
L 494.753505 94.050889 
L 509.089967 91.757452 
L 523.426429 79.209333 
L 537.762891 91.924316 
L 552.099353 85.863863 
L 566.435815 89.139338 
L 580.772277 82.769134 
L 595.108739 89.623014 
L 609.445201 86.306444 
L 623.781663 82.257076 
L 638.118125 91.989459 
L 652.454587 89.543406 
L 666.791049 90.47238 
L 681.12751 89.78864 
L 695.463972 85.731876 
L 709.800434 79.975092 
L 724.136896 87.44389 
L 738.473358 90.480427 
L 752.80982 85.838038 
L 767.146282 85.806688 
L 781.482744 87.063909 
L 795.819206 90.015919 
L 810.155668 94.172856 
" clip-path="url(#pccfcece087)" style="fill: none; stroke-dasharray: 20,10; stroke-dashoffset: 0; stroke: #dde9e9; stroke-width: 2.5"/>
   </g>
   <g id="patch_3">
    <path d="M 72.5447 222.1738 
L 72.5447 25.5687 
" style="fill: none; stroke: #000000; stroke-width: 1.5; stroke-linejoin: miter; stroke-linecap: square"/>
   </g>
   <g id="patch_4">
    <path d="M 72.5447 222.1738 
L 845.28 222.1738 
" style="fill: none; stroke: #000000; stroke-width: 1.5; stroke-linejoin: miter; stroke-linecap: square"/>
   </g>
   <g id="text_12">
    <!-- I-Norm /w GradNorm -->
    <g transform="translate(378.75205 19.5687)scale(0.1728 -0.1728)">
     <defs>
      <path id="ArialMT-49" d="M 597 0 
L 597 4581 
L 1203 4581 
L 1203 0 
L 597 0 
z
" transform="scale(0.015625)"/>
      <path id="ArialMT-2d" d="M 203 1375 
L 203 1941 
L 1931 1941 
L 1931 1375 
L 203 1375 
z
" transform="scale(0.015625)"/>
      <path id="ArialMT-4e" d="M 488 0 
L 488 4581 
L 1109 4581 
L 3516 984 
L 3516 4581 
L 4097 4581 
L 4097 0 
L 3475 0 
L 1069 3600 
L 1069 0 
L 488 0 
z
" transform="scale(0.015625)"/>
      <path id="ArialMT-2f" d="M 0 -78 
L 1328 4659 
L 1778 4659 
L 453 -78 
L 0 -78 
z
" transform="scale(0.015625)"/>
      <path id="ArialMT-77" d="M 1034 0 
L 19 3319 
L 600 3319 
L 1128 1403 
L 1325 691 
Q 1338 744 1497 1375 
L 2025 3319 
L 2603 3319 
L 3100 1394 
L 3266 759 
L 3456 1400 
L 4025 3319 
L 4572 3319 
L 3534 0 
L 2950 0 
L 2422 1988 
L 2294 2553 
L 1622 0 
L 1034 0 
z
" transform="scale(0.015625)"/>
     </defs>
     <use xlink:href="#ArialMT-49"/>
     <use xlink:href="#ArialMT-2d" x="27.783203"/>
     <use xlink:href="#ArialMT-4e" x="61.083984"/>
     <use xlink:href="#ArialMT-6f" x="133.300781"/>
     <use xlink:href="#ArialMT-72" x="188.916016"/>
     <use xlink:href="#ArialMT-6d" x="222.216797"/>
     <use xlink:href="#ArialMT-20" x="305.517578"/>
     <use xlink:href="#ArialMT-2f" x="333.300781"/>
     <use xlink:href="#ArialMT-77" x="361.083984"/>
     <use xlink:href="#ArialMT-20" x="433.300781"/>
     <use xlink:href="#ArialMT-47" x="461.083984"/>
     <use xlink:href="#ArialMT-72" x="538.867188"/>
     <use xlink:href="#ArialMT-61" x="572.167969"/>
     <use xlink:href="#ArialMT-64" x="627.783203"/>
     <use xlink:href="#ArialMT-4e" x="683.398438"/>
     <use xlink:href="#ArialMT-6f" x="755.615234"/>
     <use xlink:href="#ArialMT-72" x="811.230469"/>
     <use xlink:href="#ArialMT-6d" x="844.53125"/>
    </g>
   </g>
  </g>
 </g>
 <defs>
  <clipPath id="pccfcece087">
   <rect x="72.5447" y="25.5687" width="772.7353" height="196.6051"/>
  </clipPath>
 </defs>
</svg>
