<?xml version="1.0" encoding="utf-8" standalone="no"?>
<!DOCTYPE svg PUBLIC "-//W3C//DTD SVG 1.1//EN"
  "http://www.w3.org/Graphics/SVG/1.1/DTD/svg11.dtd">
<svg xmlns:xlink="http://www.w3.org/1999/xlink" width="855.202771pt" height="276.48pt" viewBox="0 0 855.202771 276.48" xmlns="http://www.w3.org/2000/svg" version="1.1">
 <metadata>
  <rdf:RDF xmlns:dc="http://purl.org/dc/elements/1.1/" xmlns:cc="http://creativecommons.org/ns#" xmlns:rdf="http://www.w3.org/1999/02/22-rdf-syntax-ns#">
   <cc:Work>
    <dc:type rdf:resource="http://purl.org/dc/dcmitype/StillImage"/>
    <dc:date>2025-09-29T16:47:21.056564</dc:date>
    <dc:format>image/svg+xml</dc:format>
    <dc:creator>
     <cc:Agent>
      <dc:title>Matplotlib v3.5.3, https://matplotlib.org/</dc:title>
     </cc:Agent>
    </dc:creator>
   </cc:Work>
  </rdf:RDF>
 </metadata>
 <defs>
  <style type="text/css">*{stroke-linejoin: round; stroke-linecap: butt}</style>
 </defs>
 <g id="figure_1">
  <g id="patch_1">
   <path d="M 0 276.48 
L 855.202771 276.48 
L 855.202771 0 
L 0 0 
z
" style="fill: #ffffff"/>
  </g>
  <g id="axes_1">
   <g id="patch_2">
    <path d="M 64.5176 216.3094 
L 758.718748 216.3094 
L 758.718748 7.2 
L 64.5176 7.2 
z
" style="fill: #ffffff"/>
   </g>
   <g id="matplotlib.axis_1">
    <g id="xtick_1">
     <g id="line2d_1">
      <defs>
       <path id="m31cb3c9d99" d="M 0 0 
L 0 8 
" style="stroke: #000000; stroke-width: 2"/>
      </defs>
      <g>
       <use xlink:href="#m31cb3c9d99" x="96.072198" y="216.3094" style="stroke: #000000; stroke-width: 2"/>
      </g>
     </g>
     <g id="text_1">
      <!-- $\mathdefault{10^{-5}}$ -->
      <g transform="translate(78.964998 245.4566)scale(0.1728 -0.1728)">
       <defs>
        <path id="ArialMT-31" d="M 2384 0 
L 1822 0 
L 1822 3584 
Q 1619 3391 1289 3197 
Q 959 3003 697 2906 
L 697 3450 
Q 1169 3672 1522 3987 
Q 1875 4303 2022 4600 
L 2384 4600 
L 2384 0 
z
" transform="scale(0.015625)"/>
        <path id="ArialMT-30" d="M 266 2259 
Q 266 3072 433 3567 
Q 600 4063 929 4331 
Q 1259 4600 1759 4600 
Q 2128 4600 2406 4451 
Q 2684 4303 2865 4023 
Q 3047 3744 3150 3342 
Q 3253 2941 3253 2259 
Q 3253 1453 3087 958 
Q 2922 463 2592 192 
Q 2263 -78 1759 -78 
Q 1097 -78 719 397 
Q 266 969 266 2259 
z
M 844 2259 
Q 844 1131 1108 757 
Q 1372 384 1759 384 
Q 2147 384 2411 759 
Q 2675 1134 2675 2259 
Q 2675 3391 2411 3762 
Q 2147 4134 1753 4134 
Q 1366 4134 1134 3806 
Q 844 3388 844 2259 
z
" transform="scale(0.015625)"/>
        <path id="ArialMT-2212" d="M 3381 1997 
L 356 1997 
L 356 2522 
L 3381 2522 
L 3381 1997 
z
" transform="scale(0.015625)"/>
        <path id="ArialMT-35" d="M 266 1200 
L 856 1250 
Q 922 819 1161 601 
Q 1400 384 1738 384 
Q 2144 384 2425 690 
Q 2706 997 2706 1503 
Q 2706 1984 2436 2262 
Q 2166 2541 1728 2541 
Q 1456 2541 1237 2417 
Q 1019 2294 894 2097 
L 366 2166 
L 809 4519 
L 3088 4519 
L 3088 3981 
L 1259 3981 
L 1013 2750 
Q 1425 3038 1878 3038 
Q 2478 3038 2890 2622 
Q 3303 2206 3303 1553 
Q 3303 931 2941 478 
Q 2500 -78 1738 -78 
Q 1113 -78 717 272 
Q 322 622 266 1200 
z
" transform="scale(0.015625)"/>
       </defs>
       <use xlink:href="#ArialMT-31" transform="translate(0 0.879688)"/>
       <use xlink:href="#ArialMT-30" transform="translate(55.615234 0.879688)"/>
       <use xlink:href="#ArialMT-2212" transform="translate(112.972813 70.573438)scale(0.7)"/>
       <use xlink:href="#ArialMT-35" transform="translate(153.851719 70.573438)scale(0.7)"/>
      </g>
     </g>
    </g>
    <g id="xtick_2">
     <g id="line2d_2">
      <g>
       <use xlink:href="#m31cb3c9d99" x="222.290588" y="216.3094" style="stroke: #000000; stroke-width: 2"/>
      </g>
     </g>
     <g id="text_2">
      <!-- $\mathdefault{10^{-4}}$ -->
      <g transform="translate(205.183388 245.4566)scale(0.1728 -0.1728)">
       <defs>
        <path id="ArialMT-34" d="M 2069 0 
L 2069 1097 
L 81 1097 
L 81 1613 
L 2172 4581 
L 2631 4581 
L 2631 1613 
L 3250 1613 
L 3250 1097 
L 2631 1097 
L 2631 0 
L 2069 0 
z
M 2069 1613 
L 2069 3678 
L 634 1613 
L 2069 1613 
z
" transform="scale(0.015625)"/>
       </defs>
       <use xlink:href="#ArialMT-31" transform="translate(0 0.201563)"/>
       <use xlink:href="#ArialMT-30" transform="translate(55.615234 0.201563)"/>
       <use xlink:href="#ArialMT-2212" transform="translate(112.972813 69.895313)scale(0.7)"/>
       <use xlink:href="#ArialMT-34" transform="translate(153.851719 69.895313)scale(0.7)"/>
      </g>
     </g>
    </g>
    <g id="xtick_3">
     <g id="line2d_3">
      <g>
       <use xlink:href="#m31cb3c9d99" x="348.508979" y="216.3094" style="stroke: #000000; stroke-width: 2"/>
      </g>
     </g>
     <g id="text_3">
      <!-- $\mathdefault{10^{-3}}$ -->
      <g transform="translate(331.401779 245.6294)scale(0.1728 -0.1728)">
       <defs>
        <path id="ArialMT-33" d="M 269 1209 
L 831 1284 
Q 928 806 1161 595 
Q 1394 384 1728 384 
Q 2125 384 2398 659 
Q 2672 934 2672 1341 
Q 2672 1728 2419 1979 
Q 2166 2231 1775 2231 
Q 1616 2231 1378 2169 
L 1441 2663 
Q 1497 2656 1531 2656 
Q 1891 2656 2178 2843 
Q 2466 3031 2466 3422 
Q 2466 3731 2256 3934 
Q 2047 4138 1716 4138 
Q 1388 4138 1169 3931 
Q 950 3725 888 3313 
L 325 3413 
Q 428 3978 793 4289 
Q 1159 4600 1703 4600 
Q 2078 4600 2393 4439 
Q 2709 4278 2876 4000 
Q 3044 3722 3044 3409 
Q 3044 3113 2884 2869 
Q 2725 2625 2413 2481 
Q 2819 2388 3044 2092 
Q 3269 1797 3269 1353 
Q 3269 753 2831 336 
Q 2394 -81 1725 -81 
Q 1122 -81 723 278 
Q 325 638 269 1209 
z
" transform="scale(0.015625)"/>
       </defs>
       <use xlink:href="#ArialMT-31" transform="translate(0 0.99375)"/>
       <use xlink:href="#ArialMT-30" transform="translate(55.615234 0.99375)"/>
       <use xlink:href="#ArialMT-2212" transform="translate(112.972813 70.6875)scale(0.7)"/>
       <use xlink:href="#ArialMT-33" transform="translate(153.851719 70.6875)scale(0.7)"/>
      </g>
     </g>
    </g>
    <g id="xtick_4">
     <g id="line2d_4">
      <g>
       <use xlink:href="#m31cb3c9d99" x="474.727369" y="216.3094" style="stroke: #000000; stroke-width: 2"/>
      </g>
     </g>
     <g id="text_4">
      <!-- $\mathdefault{10^{-2}}$ -->
      <g transform="translate(457.620169 245.6294)scale(0.1728 -0.1728)">
       <defs>
        <path id="ArialMT-32" d="M 3222 541 
L 3222 0 
L 194 0 
Q 188 203 259 391 
Q 375 700 629 1000 
Q 884 1300 1366 1694 
Q 2113 2306 2375 2664 
Q 2638 3022 2638 3341 
Q 2638 3675 2398 3904 
Q 2159 4134 1775 4134 
Q 1369 4134 1125 3890 
Q 881 3647 878 3216 
L 300 3275 
Q 359 3922 746 4261 
Q 1134 4600 1788 4600 
Q 2447 4600 2831 4234 
Q 3216 3869 3216 3328 
Q 3216 3053 3103 2787 
Q 2991 2522 2730 2228 
Q 2469 1934 1863 1422 
Q 1356 997 1212 845 
Q 1069 694 975 541 
L 3222 541 
z
" transform="scale(0.015625)"/>
       </defs>
       <use xlink:href="#ArialMT-31" transform="translate(0 0.99375)"/>
       <use xlink:href="#ArialMT-30" transform="translate(55.615234 0.99375)"/>
       <use xlink:href="#ArialMT-2212" transform="translate(112.972813 70.6875)scale(0.7)"/>
       <use xlink:href="#ArialMT-32" transform="translate(153.851719 70.6875)scale(0.7)"/>
      </g>
     </g>
    </g>
    <g id="xtick_5">
     <g id="line2d_5">
      <g>
       <use xlink:href="#m31cb3c9d99" x="600.94576" y="216.3094" style="stroke: #000000; stroke-width: 2"/>
      </g>
     </g>
     <g id="text_5">
      <!-- $\mathdefault{10^{-1}}$ -->
      <g transform="translate(583.83856 245.6294)scale(0.1728 -0.1728)">
       <use xlink:href="#ArialMT-31" transform="translate(0 0.99375)"/>
       <use xlink:href="#ArialMT-30" transform="translate(55.615234 0.99375)"/>
       <use xlink:href="#ArialMT-2212" transform="translate(112.972813 70.6875)scale(0.7)"/>
       <use xlink:href="#ArialMT-31" transform="translate(153.851719 70.6875)scale(0.7)"/>
      </g>
     </g>
    </g>
    <g id="xtick_6">
     <g id="line2d_6">
      <g>
       <use xlink:href="#m31cb3c9d99" x="727.16415" y="216.3094" style="stroke: #000000; stroke-width: 2"/>
      </g>
     </g>
     <g id="text_6">
      <!-- $\mathdefault{10^{0}}$ -->
      <g transform="translate(713.59935 245.6294)scale(0.1728 -0.1728)">
       <use xlink:href="#ArialMT-31" transform="translate(0 0.99375)"/>
       <use xlink:href="#ArialMT-30" transform="translate(55.615234 0.99375)"/>
       <use xlink:href="#ArialMT-30" transform="translate(112.972813 70.6875)scale(0.7)"/>
      </g>
     </g>
    </g>
    <g id="xtick_7">
     <g id="line2d_7">
      <defs>
       <path id="me3c9a8b506" d="M 0 0 
L 0 2 
" style="stroke: #000000; stroke-width: 0.6"/>
      </defs>
      <g>
       <use xlink:href="#me3c9a8b506" x="68.070806" y="216.3094" style="stroke: #000000; stroke-width: 0.6"/>
      </g>
     </g>
    </g>
    <g id="xtick_8">
     <g id="line2d_8">
      <g>
       <use xlink:href="#me3c9a8b506" x="76.520722" y="216.3094" style="stroke: #000000; stroke-width: 0.6"/>
      </g>
     </g>
    </g>
    <g id="xtick_9">
     <g id="line2d_9">
      <g>
       <use xlink:href="#me3c9a8b506" x="83.840372" y="216.3094" style="stroke: #000000; stroke-width: 0.6"/>
      </g>
     </g>
    </g>
    <g id="xtick_10">
     <g id="line2d_10">
      <g>
       <use xlink:href="#me3c9a8b506" x="90.296761" y="216.3094" style="stroke: #000000; stroke-width: 0.6"/>
      </g>
     </g>
    </g>
    <g id="xtick_11">
     <g id="line2d_11">
      <g>
       <use xlink:href="#me3c9a8b506" x="134.067719" y="216.3094" style="stroke: #000000; stroke-width: 0.6"/>
      </g>
     </g>
    </g>
    <g id="xtick_12">
     <g id="line2d_12">
      <g>
       <use xlink:href="#me3c9a8b506" x="156.293675" y="216.3094" style="stroke: #000000; stroke-width: 0.6"/>
      </g>
     </g>
    </g>
    <g id="xtick_13">
     <g id="line2d_13">
      <g>
       <use xlink:href="#me3c9a8b506" x="172.063241" y="216.3094" style="stroke: #000000; stroke-width: 0.6"/>
      </g>
     </g>
    </g>
    <g id="xtick_14">
     <g id="line2d_14">
      <g>
       <use xlink:href="#me3c9a8b506" x="184.295067" y="216.3094" style="stroke: #000000; stroke-width: 0.6"/>
      </g>
     </g>
    </g>
    <g id="xtick_15">
     <g id="line2d_15">
      <g>
       <use xlink:href="#me3c9a8b506" x="194.289196" y="216.3094" style="stroke: #000000; stroke-width: 0.6"/>
      </g>
     </g>
    </g>
    <g id="xtick_16">
     <g id="line2d_16">
      <g>
       <use xlink:href="#me3c9a8b506" x="202.739112" y="216.3094" style="stroke: #000000; stroke-width: 0.6"/>
      </g>
     </g>
    </g>
    <g id="xtick_17">
     <g id="line2d_17">
      <g>
       <use xlink:href="#me3c9a8b506" x="210.058762" y="216.3094" style="stroke: #000000; stroke-width: 0.6"/>
      </g>
     </g>
    </g>
    <g id="xtick_18">
     <g id="line2d_18">
      <g>
       <use xlink:href="#me3c9a8b506" x="216.515151" y="216.3094" style="stroke: #000000; stroke-width: 0.6"/>
      </g>
     </g>
    </g>
    <g id="xtick_19">
     <g id="line2d_19">
      <g>
       <use xlink:href="#me3c9a8b506" x="260.28611" y="216.3094" style="stroke: #000000; stroke-width: 0.6"/>
      </g>
     </g>
    </g>
    <g id="xtick_20">
     <g id="line2d_20">
      <g>
       <use xlink:href="#me3c9a8b506" x="282.512065" y="216.3094" style="stroke: #000000; stroke-width: 0.6"/>
      </g>
     </g>
    </g>
    <g id="xtick_21">
     <g id="line2d_21">
      <g>
       <use xlink:href="#me3c9a8b506" x="298.281631" y="216.3094" style="stroke: #000000; stroke-width: 0.6"/>
      </g>
     </g>
    </g>
    <g id="xtick_22">
     <g id="line2d_22">
      <g>
       <use xlink:href="#me3c9a8b506" x="310.513457" y="216.3094" style="stroke: #000000; stroke-width: 0.6"/>
      </g>
     </g>
    </g>
    <g id="xtick_23">
     <g id="line2d_23">
      <g>
       <use xlink:href="#me3c9a8b506" x="320.507587" y="216.3094" style="stroke: #000000; stroke-width: 0.6"/>
      </g>
     </g>
    </g>
    <g id="xtick_24">
     <g id="line2d_24">
      <g>
       <use xlink:href="#me3c9a8b506" x="328.957503" y="216.3094" style="stroke: #000000; stroke-width: 0.6"/>
      </g>
     </g>
    </g>
    <g id="xtick_25">
     <g id="line2d_25">
      <g>
       <use xlink:href="#me3c9a8b506" x="336.277153" y="216.3094" style="stroke: #000000; stroke-width: 0.6"/>
      </g>
     </g>
    </g>
    <g id="xtick_26">
     <g id="line2d_26">
      <g>
       <use xlink:href="#me3c9a8b506" x="342.733542" y="216.3094" style="stroke: #000000; stroke-width: 0.6"/>
      </g>
     </g>
    </g>
    <g id="xtick_27">
     <g id="line2d_27">
      <g>
       <use xlink:href="#me3c9a8b506" x="386.5045" y="216.3094" style="stroke: #000000; stroke-width: 0.6"/>
      </g>
     </g>
    </g>
    <g id="xtick_28">
     <g id="line2d_28">
      <g>
       <use xlink:href="#me3c9a8b506" x="408.730456" y="216.3094" style="stroke: #000000; stroke-width: 0.6"/>
      </g>
     </g>
    </g>
    <g id="xtick_29">
     <g id="line2d_29">
      <g>
       <use xlink:href="#me3c9a8b506" x="424.500022" y="216.3094" style="stroke: #000000; stroke-width: 0.6"/>
      </g>
     </g>
    </g>
    <g id="xtick_30">
     <g id="line2d_30">
      <g>
       <use xlink:href="#me3c9a8b506" x="436.731848" y="216.3094" style="stroke: #000000; stroke-width: 0.6"/>
      </g>
     </g>
    </g>
    <g id="xtick_31">
     <g id="line2d_31">
      <g>
       <use xlink:href="#me3c9a8b506" x="446.725977" y="216.3094" style="stroke: #000000; stroke-width: 0.6"/>
      </g>
     </g>
    </g>
    <g id="xtick_32">
     <g id="line2d_32">
      <g>
       <use xlink:href="#me3c9a8b506" x="455.175893" y="216.3094" style="stroke: #000000; stroke-width: 0.6"/>
      </g>
     </g>
    </g>
    <g id="xtick_33">
     <g id="line2d_33">
      <g>
       <use xlink:href="#me3c9a8b506" x="462.495543" y="216.3094" style="stroke: #000000; stroke-width: 0.6"/>
      </g>
     </g>
    </g>
    <g id="xtick_34">
     <g id="line2d_34">
      <g>
       <use xlink:href="#me3c9a8b506" x="468.951932" y="216.3094" style="stroke: #000000; stroke-width: 0.6"/>
      </g>
     </g>
    </g>
    <g id="xtick_35">
     <g id="line2d_35">
      <g>
       <use xlink:href="#me3c9a8b506" x="512.722891" y="216.3094" style="stroke: #000000; stroke-width: 0.6"/>
      </g>
     </g>
    </g>
    <g id="xtick_36">
     <g id="line2d_36">
      <g>
       <use xlink:href="#me3c9a8b506" x="534.948846" y="216.3094" style="stroke: #000000; stroke-width: 0.6"/>
      </g>
     </g>
    </g>
    <g id="xtick_37">
     <g id="line2d_37">
      <g>
       <use xlink:href="#me3c9a8b506" x="550.718412" y="216.3094" style="stroke: #000000; stroke-width: 0.6"/>
      </g>
     </g>
    </g>
    <g id="xtick_38">
     <g id="line2d_38">
      <g>
       <use xlink:href="#me3c9a8b506" x="562.950238" y="216.3094" style="stroke: #000000; stroke-width: 0.6"/>
      </g>
     </g>
    </g>
    <g id="xtick_39">
     <g id="line2d_39">
      <g>
       <use xlink:href="#me3c9a8b506" x="572.944368" y="216.3094" style="stroke: #000000; stroke-width: 0.6"/>
      </g>
     </g>
    </g>
    <g id="xtick_40">
     <g id="line2d_40">
      <g>
       <use xlink:href="#me3c9a8b506" x="581.394284" y="216.3094" style="stroke: #000000; stroke-width: 0.6"/>
      </g>
     </g>
    </g>
    <g id="xtick_41">
     <g id="line2d_41">
      <g>
       <use xlink:href="#me3c9a8b506" x="588.713934" y="216.3094" style="stroke: #000000; stroke-width: 0.6"/>
      </g>
     </g>
    </g>
    <g id="xtick_42">
     <g id="line2d_42">
      <g>
       <use xlink:href="#me3c9a8b506" x="595.170323" y="216.3094" style="stroke: #000000; stroke-width: 0.6"/>
      </g>
     </g>
    </g>
    <g id="xtick_43">
     <g id="line2d_43">
      <g>
       <use xlink:href="#me3c9a8b506" x="638.941281" y="216.3094" style="stroke: #000000; stroke-width: 0.6"/>
      </g>
     </g>
    </g>
    <g id="xtick_44">
     <g id="line2d_44">
      <g>
       <use xlink:href="#me3c9a8b506" x="661.167237" y="216.3094" style="stroke: #000000; stroke-width: 0.6"/>
      </g>
     </g>
    </g>
    <g id="xtick_45">
     <g id="line2d_45">
      <g>
       <use xlink:href="#me3c9a8b506" x="676.936803" y="216.3094" style="stroke: #000000; stroke-width: 0.6"/>
      </g>
     </g>
    </g>
    <g id="xtick_46">
     <g id="line2d_46">
      <g>
       <use xlink:href="#me3c9a8b506" x="689.168629" y="216.3094" style="stroke: #000000; stroke-width: 0.6"/>
      </g>
     </g>
    </g>
    <g id="xtick_47">
     <g id="line2d_47">
      <g>
       <use xlink:href="#me3c9a8b506" x="699.162758" y="216.3094" style="stroke: #000000; stroke-width: 0.6"/>
      </g>
     </g>
    </g>
    <g id="xtick_48">
     <g id="line2d_48">
      <g>
       <use xlink:href="#me3c9a8b506" x="707.612674" y="216.3094" style="stroke: #000000; stroke-width: 0.6"/>
      </g>
     </g>
    </g>
    <g id="xtick_49">
     <g id="line2d_49">
      <g>
       <use xlink:href="#me3c9a8b506" x="714.932325" y="216.3094" style="stroke: #000000; stroke-width: 0.6"/>
      </g>
     </g>
    </g>
    <g id="xtick_50">
     <g id="line2d_50">
      <g>
       <use xlink:href="#me3c9a8b506" x="721.388714" y="216.3094" style="stroke: #000000; stroke-width: 0.6"/>
      </g>
     </g>
    </g>
    <g id="text_7">
     <!-- λ (I-Norm Loss Weight) -->
     <g transform="translate(322.960974 265.6431)scale(0.1728 -0.1728)">
      <defs>
       <path id="ArialMT-3bb" d="M 1597 2481 
L 669 0 
L 75 0 
L 1306 3256 
L 813 4581 
L 1406 4581 
L 3119 0 
L 2525 0 
L 1597 2481 
z
" transform="scale(0.015625)"/>
       <path id="ArialMT-20" transform="scale(0.015625)"/>
       <path id="ArialMT-28" d="M 1497 -1347 
Q 1031 -759 709 28 
Q 388 816 388 1659 
Q 388 2403 628 3084 
Q 909 3875 1497 4659 
L 1900 4659 
Q 1522 4009 1400 3731 
Q 1209 3300 1100 2831 
Q 966 2247 966 1656 
Q 966 153 1900 -1347 
L 1497 -1347 
z
" transform="scale(0.015625)"/>
       <path id="ArialMT-49" d="M 597 0 
L 597 4581 
L 1203 4581 
L 1203 0 
L 597 0 
z
" transform="scale(0.015625)"/>
       <path id="ArialMT-2d" d="M 203 1375 
L 203 1941 
L 1931 1941 
L 1931 1375 
L 203 1375 
z
" transform="scale(0.015625)"/>
       <path id="ArialMT-4e" d="M 488 0 
L 488 4581 
L 1109 4581 
L 3516 984 
L 3516 4581 
L 4097 4581 
L 4097 0 
L 3475 0 
L 1069 3600 
L 1069 0 
L 488 0 
z
" transform="scale(0.015625)"/>
       <path id="ArialMT-6f" d="M 213 1659 
Q 213 2581 725 3025 
Q 1153 3394 1769 3394 
Q 2453 3394 2887 2945 
Q 3322 2497 3322 1706 
Q 3322 1066 3130 698 
Q 2938 331 2570 128 
Q 2203 -75 1769 -75 
Q 1072 -75 642 372 
Q 213 819 213 1659 
z
M 791 1659 
Q 791 1022 1069 705 
Q 1347 388 1769 388 
Q 2188 388 2466 706 
Q 2744 1025 2744 1678 
Q 2744 2294 2464 2611 
Q 2184 2928 1769 2928 
Q 1347 2928 1069 2612 
Q 791 2297 791 1659 
z
" transform="scale(0.015625)"/>
       <path id="ArialMT-72" d="M 416 0 
L 416 3319 
L 922 3319 
L 922 2816 
Q 1116 3169 1280 3281 
Q 1444 3394 1641 3394 
Q 1925 3394 2219 3213 
L 2025 2691 
Q 1819 2813 1613 2813 
Q 1428 2813 1281 2702 
Q 1134 2591 1072 2394 
Q 978 2094 978 1738 
L 978 0 
L 416 0 
z
" transform="scale(0.015625)"/>
       <path id="ArialMT-6d" d="M 422 0 
L 422 3319 
L 925 3319 
L 925 2853 
Q 1081 3097 1340 3245 
Q 1600 3394 1931 3394 
Q 2300 3394 2536 3241 
Q 2772 3088 2869 2813 
Q 3263 3394 3894 3394 
Q 4388 3394 4653 3120 
Q 4919 2847 4919 2278 
L 4919 0 
L 4359 0 
L 4359 2091 
Q 4359 2428 4304 2576 
Q 4250 2725 4106 2815 
Q 3963 2906 3769 2906 
Q 3419 2906 3187 2673 
Q 2956 2441 2956 1928 
L 2956 0 
L 2394 0 
L 2394 2156 
Q 2394 2531 2256 2718 
Q 2119 2906 1806 2906 
Q 1569 2906 1367 2781 
Q 1166 2656 1075 2415 
Q 984 2175 984 1722 
L 984 0 
L 422 0 
z
" transform="scale(0.015625)"/>
       <path id="ArialMT-4c" d="M 469 0 
L 469 4581 
L 1075 4581 
L 1075 541 
L 3331 541 
L 3331 0 
L 469 0 
z
" transform="scale(0.015625)"/>
       <path id="ArialMT-73" d="M 197 991 
L 753 1078 
Q 800 744 1014 566 
Q 1228 388 1613 388 
Q 2000 388 2187 545 
Q 2375 703 2375 916 
Q 2375 1106 2209 1216 
Q 2094 1291 1634 1406 
Q 1016 1563 777 1677 
Q 538 1791 414 1992 
Q 291 2194 291 2438 
Q 291 2659 392 2848 
Q 494 3038 669 3163 
Q 800 3259 1026 3326 
Q 1253 3394 1513 3394 
Q 1903 3394 2198 3281 
Q 2494 3169 2634 2976 
Q 2775 2784 2828 2463 
L 2278 2388 
Q 2241 2644 2061 2787 
Q 1881 2931 1553 2931 
Q 1166 2931 1000 2803 
Q 834 2675 834 2503 
Q 834 2394 903 2306 
Q 972 2216 1119 2156 
Q 1203 2125 1616 2013 
Q 2213 1853 2448 1751 
Q 2684 1650 2818 1456 
Q 2953 1263 2953 975 
Q 2953 694 2789 445 
Q 2625 197 2315 61 
Q 2006 -75 1616 -75 
Q 969 -75 630 194 
Q 291 463 197 991 
z
" transform="scale(0.015625)"/>
       <path id="ArialMT-57" d="M 1294 0 
L 78 4581 
L 700 4581 
L 1397 1578 
Q 1509 1106 1591 641 
Q 1766 1375 1797 1488 
L 2669 4581 
L 3400 4581 
L 4056 2263 
Q 4303 1400 4413 641 
Q 4500 1075 4641 1638 
L 5359 4581 
L 5969 4581 
L 4713 0 
L 4128 0 
L 3163 3491 
Q 3041 3928 3019 4028 
Q 2947 3713 2884 3491 
L 1913 0 
L 1294 0 
z
" transform="scale(0.015625)"/>
       <path id="ArialMT-65" d="M 2694 1069 
L 3275 997 
Q 3138 488 2766 206 
Q 2394 -75 1816 -75 
Q 1088 -75 661 373 
Q 234 822 234 1631 
Q 234 2469 665 2931 
Q 1097 3394 1784 3394 
Q 2450 3394 2872 2941 
Q 3294 2488 3294 1666 
Q 3294 1616 3291 1516 
L 816 1516 
Q 847 969 1125 678 
Q 1403 388 1819 388 
Q 2128 388 2347 550 
Q 2566 713 2694 1069 
z
M 847 1978 
L 2700 1978 
Q 2663 2397 2488 2606 
Q 2219 2931 1791 2931 
Q 1403 2931 1139 2672 
Q 875 2413 847 1978 
z
" transform="scale(0.015625)"/>
       <path id="ArialMT-69" d="M 425 3934 
L 425 4581 
L 988 4581 
L 988 3934 
L 425 3934 
z
M 425 0 
L 425 3319 
L 988 3319 
L 988 0 
L 425 0 
z
" transform="scale(0.015625)"/>
       <path id="ArialMT-67" d="M 319 -275 
L 866 -356 
Q 900 -609 1056 -725 
Q 1266 -881 1628 -881 
Q 2019 -881 2231 -725 
Q 2444 -569 2519 -288 
Q 2563 -116 2559 434 
Q 2191 0 1641 0 
Q 956 0 581 494 
Q 206 988 206 1678 
Q 206 2153 378 2554 
Q 550 2956 876 3175 
Q 1203 3394 1644 3394 
Q 2231 3394 2613 2919 
L 2613 3319 
L 3131 3319 
L 3131 450 
Q 3131 -325 2973 -648 
Q 2816 -972 2473 -1159 
Q 2131 -1347 1631 -1347 
Q 1038 -1347 672 -1080 
Q 306 -813 319 -275 
z
M 784 1719 
Q 784 1066 1043 766 
Q 1303 466 1694 466 
Q 2081 466 2343 764 
Q 2606 1063 2606 1700 
Q 2606 2309 2336 2618 
Q 2066 2928 1684 2928 
Q 1309 2928 1046 2623 
Q 784 2319 784 1719 
z
" transform="scale(0.015625)"/>
       <path id="ArialMT-68" d="M 422 0 
L 422 4581 
L 984 4581 
L 984 2938 
Q 1378 3394 1978 3394 
Q 2347 3394 2619 3248 
Q 2891 3103 3008 2847 
Q 3125 2591 3125 2103 
L 3125 0 
L 2563 0 
L 2563 2103 
Q 2563 2525 2380 2717 
Q 2197 2909 1863 2909 
Q 1613 2909 1392 2779 
Q 1172 2650 1078 2428 
Q 984 2206 984 1816 
L 984 0 
L 422 0 
z
" transform="scale(0.015625)"/>
       <path id="ArialMT-74" d="M 1650 503 
L 1731 6 
Q 1494 -44 1306 -44 
Q 1000 -44 831 53 
Q 663 150 594 308 
Q 525 466 525 972 
L 525 2881 
L 113 2881 
L 113 3319 
L 525 3319 
L 525 4141 
L 1084 4478 
L 1084 3319 
L 1650 3319 
L 1650 2881 
L 1084 2881 
L 1084 941 
Q 1084 700 1114 631 
Q 1144 563 1211 522 
Q 1278 481 1403 481 
Q 1497 481 1650 503 
z
" transform="scale(0.015625)"/>
       <path id="ArialMT-29" d="M 791 -1347 
L 388 -1347 
Q 1322 153 1322 1656 
Q 1322 2244 1188 2822 
Q 1081 3291 891 3722 
Q 769 4003 388 4659 
L 791 4659 
Q 1378 3875 1659 3084 
Q 1900 2403 1900 1659 
Q 1900 816 1576 28 
Q 1253 -759 791 -1347 
z
" transform="scale(0.015625)"/>
      </defs>
      <use xlink:href="#ArialMT-3bb"/>
      <use xlink:href="#ArialMT-20" x="50"/>
      <use xlink:href="#ArialMT-28" x="77.783203"/>
      <use xlink:href="#ArialMT-49" x="111.083984"/>
      <use xlink:href="#ArialMT-2d" x="138.867188"/>
      <use xlink:href="#ArialMT-4e" x="172.167969"/>
      <use xlink:href="#ArialMT-6f" x="244.384766"/>
      <use xlink:href="#ArialMT-72" x="300"/>
      <use xlink:href="#ArialMT-6d" x="333.300781"/>
      <use xlink:href="#ArialMT-20" x="416.601562"/>
      <use xlink:href="#ArialMT-4c" x="444.384766"/>
      <use xlink:href="#ArialMT-6f" x="500"/>
      <use xlink:href="#ArialMT-73" x="555.615234"/>
      <use xlink:href="#ArialMT-73" x="605.615234"/>
      <use xlink:href="#ArialMT-20" x="655.615234"/>
      <use xlink:href="#ArialMT-57" x="683.398438"/>
      <use xlink:href="#ArialMT-65" x="776.033203"/>
      <use xlink:href="#ArialMT-69" x="831.648438"/>
      <use xlink:href="#ArialMT-67" x="853.865234"/>
      <use xlink:href="#ArialMT-68" x="909.480469"/>
      <use xlink:href="#ArialMT-74" x="965.095703"/>
      <use xlink:href="#ArialMT-29" x="992.878906"/>
     </g>
    </g>
   </g>
   <g id="matplotlib.axis_2">
    <g id="ytick_1">
     <g id="line2d_51">
      <defs>
       <path id="m42c2f89bb8" d="M 0 0 
L -8 0 
" style="stroke: #000000; stroke-width: 2"/>
      </defs>
      <g>
       <use xlink:href="#m42c2f89bb8" x="64.5176" y="176.280163" style="stroke: #000000; stroke-width: 2"/>
      </g>
     </g>
     <g id="text_8">
      <!-- 0.8 -->
      <g transform="translate(28.9984 182.464513)scale(0.1728 -0.1728)">
       <defs>
        <path id="ArialMT-2e" d="M 581 0 
L 581 641 
L 1222 641 
L 1222 0 
L 581 0 
z
" transform="scale(0.015625)"/>
        <path id="ArialMT-38" d="M 1131 2484 
Q 781 2613 612 2850 
Q 444 3088 444 3419 
Q 444 3919 803 4259 
Q 1163 4600 1759 4600 
Q 2359 4600 2725 4251 
Q 3091 3903 3091 3403 
Q 3091 3084 2923 2848 
Q 2756 2613 2416 2484 
Q 2838 2347 3058 2040 
Q 3278 1734 3278 1309 
Q 3278 722 2862 322 
Q 2447 -78 1769 -78 
Q 1091 -78 675 323 
Q 259 725 259 1325 
Q 259 1772 486 2073 
Q 713 2375 1131 2484 
z
M 1019 3438 
Q 1019 3113 1228 2906 
Q 1438 2700 1772 2700 
Q 2097 2700 2305 2904 
Q 2513 3109 2513 3406 
Q 2513 3716 2298 3927 
Q 2084 4138 1766 4138 
Q 1444 4138 1231 3931 
Q 1019 3725 1019 3438 
z
M 838 1322 
Q 838 1081 952 856 
Q 1066 631 1291 507 
Q 1516 384 1775 384 
Q 2178 384 2440 643 
Q 2703 903 2703 1303 
Q 2703 1709 2433 1975 
Q 2163 2241 1756 2241 
Q 1359 2241 1098 1978 
Q 838 1716 838 1322 
z
" transform="scale(0.015625)"/>
       </defs>
       <use xlink:href="#ArialMT-30"/>
       <use xlink:href="#ArialMT-2e" x="55.615234"/>
       <use xlink:href="#ArialMT-38" x="83.398438"/>
      </g>
     </g>
    </g>
    <g id="ytick_2">
     <g id="line2d_52">
      <g>
       <use xlink:href="#m42c2f89bb8" x="64.5176" y="107.343844" style="stroke: #000000; stroke-width: 2"/>
      </g>
     </g>
     <g id="text_9">
      <!-- 0.9 -->
      <g transform="translate(28.9984 113.528194)scale(0.1728 -0.1728)">
       <defs>
        <path id="ArialMT-39" d="M 350 1059 
L 891 1109 
Q 959 728 1153 556 
Q 1347 384 1650 384 
Q 1909 384 2104 503 
Q 2300 622 2425 820 
Q 2550 1019 2634 1356 
Q 2719 1694 2719 2044 
Q 2719 2081 2716 2156 
Q 2547 1888 2255 1720 
Q 1963 1553 1622 1553 
Q 1053 1553 659 1965 
Q 266 2378 266 3053 
Q 266 3750 677 4175 
Q 1088 4600 1706 4600 
Q 2153 4600 2523 4359 
Q 2894 4119 3086 3673 
Q 3278 3228 3278 2384 
Q 3278 1506 3087 986 
Q 2897 466 2520 194 
Q 2144 -78 1638 -78 
Q 1100 -78 759 220 
Q 419 519 350 1059 
z
M 2653 3081 
Q 2653 3566 2395 3850 
Q 2138 4134 1775 4134 
Q 1400 4134 1122 3828 
Q 844 3522 844 3034 
Q 844 2597 1108 2323 
Q 1372 2050 1759 2050 
Q 2150 2050 2401 2323 
Q 2653 2597 2653 3081 
z
" transform="scale(0.015625)"/>
       </defs>
       <use xlink:href="#ArialMT-30"/>
       <use xlink:href="#ArialMT-2e" x="55.615234"/>
       <use xlink:href="#ArialMT-39" x="83.398438"/>
      </g>
     </g>
    </g>
    <g id="ytick_3">
     <g id="line2d_53">
      <g>
       <use xlink:href="#m42c2f89bb8" x="64.5176" y="38.407525" style="stroke: #000000; stroke-width: 2"/>
      </g>
     </g>
     <g id="text_10">
      <!-- 1.0 -->
      <g transform="translate(28.9984 44.591875)scale(0.1728 -0.1728)">
       <use xlink:href="#ArialMT-31"/>
       <use xlink:href="#ArialMT-2e" x="55.615234"/>
       <use xlink:href="#ArialMT-30" x="83.398438"/>
      </g>
     </g>
    </g>
    <g id="text_11">
     <!-- Repr Sim. w.r.t. LN$^+$ -->
     <g transform="translate(21.5424 192.5387)rotate(-90)scale(0.1728 -0.1728)">
      <defs>
       <path id="ArialMT-52" d="M 503 0 
L 503 4581 
L 2534 4581 
Q 3147 4581 3465 4457 
Q 3784 4334 3975 4021 
Q 4166 3709 4166 3331 
Q 4166 2844 3850 2509 
Q 3534 2175 2875 2084 
Q 3116 1969 3241 1856 
Q 3506 1613 3744 1247 
L 4541 0 
L 3778 0 
L 3172 953 
Q 2906 1366 2734 1584 
Q 2563 1803 2427 1890 
Q 2291 1978 2150 2013 
Q 2047 2034 1813 2034 
L 1109 2034 
L 1109 0 
L 503 0 
z
M 1109 2559 
L 2413 2559 
Q 2828 2559 3062 2645 
Q 3297 2731 3419 2920 
Q 3541 3109 3541 3331 
Q 3541 3656 3305 3865 
Q 3069 4075 2559 4075 
L 1109 4075 
L 1109 2559 
z
" transform="scale(0.015625)"/>
       <path id="ArialMT-70" d="M 422 -1272 
L 422 3319 
L 934 3319 
L 934 2888 
Q 1116 3141 1344 3267 
Q 1572 3394 1897 3394 
Q 2322 3394 2647 3175 
Q 2972 2956 3137 2557 
Q 3303 2159 3303 1684 
Q 3303 1175 3120 767 
Q 2938 359 2589 142 
Q 2241 -75 1856 -75 
Q 1575 -75 1351 44 
Q 1128 163 984 344 
L 984 -1272 
L 422 -1272 
z
M 931 1641 
Q 931 1000 1190 694 
Q 1450 388 1819 388 
Q 2194 388 2461 705 
Q 2728 1022 2728 1688 
Q 2728 2322 2467 2637 
Q 2206 2953 1844 2953 
Q 1484 2953 1207 2617 
Q 931 2281 931 1641 
z
" transform="scale(0.015625)"/>
       <path id="ArialMT-53" d="M 288 1472 
L 859 1522 
Q 900 1178 1048 958 
Q 1197 738 1509 602 
Q 1822 466 2213 466 
Q 2559 466 2825 569 
Q 3091 672 3220 851 
Q 3350 1031 3350 1244 
Q 3350 1459 3225 1620 
Q 3100 1781 2813 1891 
Q 2628 1963 1997 2114 
Q 1366 2266 1113 2400 
Q 784 2572 623 2826 
Q 463 3081 463 3397 
Q 463 3744 659 4045 
Q 856 4347 1234 4503 
Q 1613 4659 2075 4659 
Q 2584 4659 2973 4495 
Q 3363 4331 3572 4012 
Q 3781 3694 3797 3291 
L 3216 3247 
Q 3169 3681 2898 3903 
Q 2628 4125 2100 4125 
Q 1550 4125 1298 3923 
Q 1047 3722 1047 3438 
Q 1047 3191 1225 3031 
Q 1400 2872 2139 2705 
Q 2878 2538 3153 2413 
Q 3553 2228 3743 1945 
Q 3934 1663 3934 1294 
Q 3934 928 3725 604 
Q 3516 281 3123 101 
Q 2731 -78 2241 -78 
Q 1619 -78 1198 103 
Q 778 284 539 648 
Q 300 1013 288 1472 
z
" transform="scale(0.015625)"/>
       <path id="ArialMT-77" d="M 1034 0 
L 19 3319 
L 600 3319 
L 1128 1403 
L 1325 691 
Q 1338 744 1497 1375 
L 2025 3319 
L 2603 3319 
L 3100 1394 
L 3266 759 
L 3456 1400 
L 4025 3319 
L 4572 3319 
L 3534 0 
L 2950 0 
L 2422 1988 
L 2294 2553 
L 1622 0 
L 1034 0 
z
" transform="scale(0.015625)"/>
       <path id="DejaVuSans-2b" d="M 2944 4013 
L 2944 2272 
L 4684 2272 
L 4684 1741 
L 2944 1741 
L 2944 0 
L 2419 0 
L 2419 1741 
L 678 1741 
L 678 2272 
L 2419 2272 
L 2419 4013 
L 2944 4013 
z
" transform="scale(0.015625)"/>
      </defs>
      <use xlink:href="#ArialMT-52" transform="translate(0 0.826562)"/>
      <use xlink:href="#ArialMT-65" transform="translate(72.216797 0.826562)"/>
      <use xlink:href="#ArialMT-70" transform="translate(127.832031 0.826562)"/>
      <use xlink:href="#ArialMT-72" transform="translate(183.447266 0.826562)"/>
      <use xlink:href="#ArialMT-20" transform="translate(216.748047 0.826562)"/>
      <use xlink:href="#ArialMT-53" transform="translate(244.53125 0.826562)"/>
      <use xlink:href="#ArialMT-69" transform="translate(311.230469 0.826562)"/>
      <use xlink:href="#ArialMT-6d" transform="translate(333.447266 0.826562)"/>
      <use xlink:href="#ArialMT-2e" transform="translate(416.748047 0.826562)"/>
      <use xlink:href="#ArialMT-20" transform="translate(444.53125 0.826562)"/>
      <use xlink:href="#ArialMT-77" transform="translate(472.314453 0.826562)"/>
      <use xlink:href="#ArialMT-2e" transform="translate(544.53125 0.826562)"/>
      <use xlink:href="#ArialMT-72" transform="translate(572.314453 0.826562)"/>
      <use xlink:href="#ArialMT-2e" transform="translate(605.615234 0.826562)"/>
      <use xlink:href="#ArialMT-74" transform="translate(633.398438 0.826562)"/>
      <use xlink:href="#ArialMT-2e" transform="translate(661.181641 0.826562)"/>
      <use xlink:href="#ArialMT-20" transform="translate(688.964844 0.826562)"/>
      <use xlink:href="#ArialMT-4c" transform="translate(716.748047 0.826562)"/>
      <use xlink:href="#ArialMT-4e" transform="translate(772.363281 0.826562)"/>
      <use xlink:href="#DejaVuSans-2b" transform="translate(859.174805 39.107812)scale(0.7)"/>
     </g>
    </g>
   </g>
   <g id="LineCollection_1">
    <path d="M 96.072198 179.043795 
L 96.072198 133.742992 
" clip-path="url(#pdaaa557d7a)" style="fill: none; stroke: #1f77b4; stroke-width: 2.5"/>
    <path d="M 222.290588 174.247719 
L 222.290588 110.653687 
" clip-path="url(#pdaaa557d7a)" style="fill: none; stroke: #1f77b4; stroke-width: 2.5"/>
    <path d="M 348.508979 111.843002 
L 348.508979 16.704973 
" clip-path="url(#pdaaa557d7a)" style="fill: none; stroke: #1f77b4; stroke-width: 2.5"/>
    <path d="M 474.727369 39.612214 
L 474.727369 38.544426 
" clip-path="url(#pdaaa557d7a)" style="fill: none; stroke: #1f77b4; stroke-width: 2.5"/>
    <path d="M 600.94576 39.191801 
L 600.94576 38.479106 
" clip-path="url(#pdaaa557d7a)" style="fill: none; stroke: #1f77b4; stroke-width: 2.5"/>
    <path d="M 727.16415 39.315953 
L 727.16415 38.385458 
" clip-path="url(#pdaaa557d7a)" style="fill: none; stroke: #1f77b4; stroke-width: 2.5"/>
   </g>
   <g id="line2d_54">
    <defs>
     <path id="m6c5efa9ba6" d="M 4 0 
L -4 -0 
" style="stroke: #1f77b4; stroke-width: 2.5"/>
    </defs>
    <g clip-path="url(#pdaaa557d7a)">
     <use xlink:href="#m6c5efa9ba6" x="96.072198" y="179.043795" style="fill: #1f77b4; stroke: #1f77b4; stroke-width: 2.5"/>
     <use xlink:href="#m6c5efa9ba6" x="222.290588" y="174.247719" style="fill: #1f77b4; stroke: #1f77b4; stroke-width: 2.5"/>
     <use xlink:href="#m6c5efa9ba6" x="348.508979" y="111.843002" style="fill: #1f77b4; stroke: #1f77b4; stroke-width: 2.5"/>
     <use xlink:href="#m6c5efa9ba6" x="474.727369" y="39.612214" style="fill: #1f77b4; stroke: #1f77b4; stroke-width: 2.5"/>
     <use xlink:href="#m6c5efa9ba6" x="600.94576" y="39.191801" style="fill: #1f77b4; stroke: #1f77b4; stroke-width: 2.5"/>
     <use xlink:href="#m6c5efa9ba6" x="727.16415" y="39.315953" style="fill: #1f77b4; stroke: #1f77b4; stroke-width: 2.5"/>
    </g>
   </g>
   <g id="line2d_55">
    <g clip-path="url(#pdaaa557d7a)">
     <use xlink:href="#m6c5efa9ba6" x="96.072198" y="133.742992" style="fill: #1f77b4; stroke: #1f77b4; stroke-width: 2.5"/>
     <use xlink:href="#m6c5efa9ba6" x="222.290588" y="110.653687" style="fill: #1f77b4; stroke: #1f77b4; stroke-width: 2.5"/>
     <use xlink:href="#m6c5efa9ba6" x="348.508979" y="16.704973" style="fill: #1f77b4; stroke: #1f77b4; stroke-width: 2.5"/>
     <use xlink:href="#m6c5efa9ba6" x="474.727369" y="38.544426" style="fill: #1f77b4; stroke: #1f77b4; stroke-width: 2.5"/>
     <use xlink:href="#m6c5efa9ba6" x="600.94576" y="38.479106" style="fill: #1f77b4; stroke: #1f77b4; stroke-width: 2.5"/>
     <use xlink:href="#m6c5efa9ba6" x="727.16415" y="38.385458" style="fill: #1f77b4; stroke: #1f77b4; stroke-width: 2.5"/>
    </g>
   </g>
   <g id="LineCollection_2">
    <path d="M 96.072198 191.868678 
L 96.072198 140.573669 
" clip-path="url(#pdaaa557d7a)" style="fill: none; stroke: #ff7f0e; stroke-width: 2.5"/>
    <path d="M 222.290588 177.29606 
L 222.290588 135.562601 
" clip-path="url(#pdaaa557d7a)" style="fill: none; stroke: #ff7f0e; stroke-width: 2.5"/>
    <path d="M 348.508979 143.753843 
L 348.508979 49.555569 
" clip-path="url(#pdaaa557d7a)" style="fill: none; stroke: #ff7f0e; stroke-width: 2.5"/>
    <path d="M 474.727369 39.069241 
L 474.727369 38.394059 
" clip-path="url(#pdaaa557d7a)" style="fill: none; stroke: #ff7f0e; stroke-width: 2.5"/>
    <path d="M 600.94576 40.061705 
L 600.94576 38.183399 
" clip-path="url(#pdaaa557d7a)" style="fill: none; stroke: #ff7f0e; stroke-width: 2.5"/>
    <path d="M 727.16415 43.457986 
L 727.16415 37.518205 
" clip-path="url(#pdaaa557d7a)" style="fill: none; stroke: #ff7f0e; stroke-width: 2.5"/>
   </g>
   <g id="line2d_56">
    <defs>
     <path id="mfc0266bcdf" d="M 4 0 
L -4 -0 
" style="stroke: #ff7f0e; stroke-width: 2.5"/>
    </defs>
    <g clip-path="url(#pdaaa557d7a)">
     <use xlink:href="#mfc0266bcdf" x="96.072198" y="191.868678" style="fill: #ff7f0e; stroke: #ff7f0e; stroke-width: 2.5"/>
     <use xlink:href="#mfc0266bcdf" x="222.290588" y="177.29606" style="fill: #ff7f0e; stroke: #ff7f0e; stroke-width: 2.5"/>
     <use xlink:href="#mfc0266bcdf" x="348.508979" y="143.753843" style="fill: #ff7f0e; stroke: #ff7f0e; stroke-width: 2.5"/>
     <use xlink:href="#mfc0266bcdf" x="474.727369" y="39.069241" style="fill: #ff7f0e; stroke: #ff7f0e; stroke-width: 2.5"/>
     <use xlink:href="#mfc0266bcdf" x="600.94576" y="40.061705" style="fill: #ff7f0e; stroke: #ff7f0e; stroke-width: 2.5"/>
     <use xlink:href="#mfc0266bcdf" x="727.16415" y="43.457986" style="fill: #ff7f0e; stroke: #ff7f0e; stroke-width: 2.5"/>
    </g>
   </g>
   <g id="line2d_57">
    <g clip-path="url(#pdaaa557d7a)">
     <use xlink:href="#mfc0266bcdf" x="96.072198" y="140.573669" style="fill: #ff7f0e; stroke: #ff7f0e; stroke-width: 2.5"/>
     <use xlink:href="#mfc0266bcdf" x="222.290588" y="135.562601" style="fill: #ff7f0e; stroke: #ff7f0e; stroke-width: 2.5"/>
     <use xlink:href="#mfc0266bcdf" x="348.508979" y="49.555569" style="fill: #ff7f0e; stroke: #ff7f0e; stroke-width: 2.5"/>
     <use xlink:href="#mfc0266bcdf" x="474.727369" y="38.394059" style="fill: #ff7f0e; stroke: #ff7f0e; stroke-width: 2.5"/>
     <use xlink:href="#mfc0266bcdf" x="600.94576" y="38.183399" style="fill: #ff7f0e; stroke: #ff7f0e; stroke-width: 2.5"/>
     <use xlink:href="#mfc0266bcdf" x="727.16415" y="37.518205" style="fill: #ff7f0e; stroke: #ff7f0e; stroke-width: 2.5"/>
    </g>
   </g>
   <g id="LineCollection_3">
    <path d="M 96.072198 203.674911 
L 96.072198 171.010947 
" clip-path="url(#pdaaa557d7a)" style="fill: none; stroke: #2ca02c; stroke-width: 2.5"/>
    <path d="M 222.290588 194.909361 
L 222.290588 154.459168 
" clip-path="url(#pdaaa557d7a)" style="fill: none; stroke: #2ca02c; stroke-width: 2.5"/>
    <path d="M 348.508979 160.775822 
L 348.508979 76.572397 
" clip-path="url(#pdaaa557d7a)" style="fill: none; stroke: #2ca02c; stroke-width: 2.5"/>
    <path d="M 474.727369 46.94524 
L 474.727369 37.619136 
" clip-path="url(#pdaaa557d7a)" style="fill: none; stroke: #2ca02c; stroke-width: 2.5"/>
    <path d="M 600.94576 48.516087 
L 600.94576 37.380584 
" clip-path="url(#pdaaa557d7a)" style="fill: none; stroke: #2ca02c; stroke-width: 2.5"/>
    <path clip-path="url(#pdaaa557d7a)" style="fill: none; stroke: #2ca02c; stroke-width: 2.5"/>
   </g>
   <g id="line2d_58">
    <defs>
     <path id="m785869d473" d="M 4 0 
L -4 -0 
" style="stroke: #2ca02c; stroke-width: 2.5"/>
    </defs>
    <g clip-path="url(#pdaaa557d7a)">
     <use xlink:href="#m785869d473" x="96.072198" y="203.674911" style="fill: #2ca02c; stroke: #2ca02c; stroke-width: 2.5"/>
     <use xlink:href="#m785869d473" x="222.290588" y="194.909361" style="fill: #2ca02c; stroke: #2ca02c; stroke-width: 2.5"/>
     <use xlink:href="#m785869d473" x="348.508979" y="160.775822" style="fill: #2ca02c; stroke: #2ca02c; stroke-width: 2.5"/>
     <use xlink:href="#m785869d473" x="474.727369" y="46.94524" style="fill: #2ca02c; stroke: #2ca02c; stroke-width: 2.5"/>
     <use xlink:href="#m785869d473" x="600.94576" y="48.516087" style="fill: #2ca02c; stroke: #2ca02c; stroke-width: 2.5"/>
    </g>
   </g>
   <g id="line2d_59">
    <g clip-path="url(#pdaaa557d7a)">
     <use xlink:href="#m785869d473" x="96.072198" y="171.010947" style="fill: #2ca02c; stroke: #2ca02c; stroke-width: 2.5"/>
     <use xlink:href="#m785869d473" x="222.290588" y="154.459168" style="fill: #2ca02c; stroke: #2ca02c; stroke-width: 2.5"/>
     <use xlink:href="#m785869d473" x="348.508979" y="76.572397" style="fill: #2ca02c; stroke: #2ca02c; stroke-width: 2.5"/>
     <use xlink:href="#m785869d473" x="474.727369" y="37.619136" style="fill: #2ca02c; stroke: #2ca02c; stroke-width: 2.5"/>
     <use xlink:href="#m785869d473" x="600.94576" y="37.380584" style="fill: #2ca02c; stroke: #2ca02c; stroke-width: 2.5"/>
    </g>
   </g>
   <g id="LineCollection_4">
    <path d="M 96.072198 206.804427 
L 96.072198 171.738536 
" clip-path="url(#pdaaa557d7a)" style="fill: none; stroke: #d62728; stroke-width: 2.5"/>
    <path d="M 222.290588 191.032983 
L 222.290588 148.288978 
" clip-path="url(#pdaaa557d7a)" style="fill: none; stroke: #d62728; stroke-width: 2.5"/>
    <path d="M 348.508979 179.969877 
L 348.508979 122.361538 
" clip-path="url(#pdaaa557d7a)" style="fill: none; stroke: #d62728; stroke-width: 2.5"/>
    <path d="M 474.727369 105.663991 
L 474.727369 66.736007 
" clip-path="url(#pdaaa557d7a)" style="fill: none; stroke: #d62728; stroke-width: 2.5"/>
    <path d="M 600.94576 145.81233 
L 600.94576 72.599851 
" clip-path="url(#pdaaa557d7a)" style="fill: none; stroke: #d62728; stroke-width: 2.5"/>
    <path clip-path="url(#pdaaa557d7a)" style="fill: none; stroke: #d62728; stroke-width: 2.5"/>
   </g>
   <g id="line2d_60">
    <defs>
     <path id="mb07cfba1a3" d="M 4 0 
L -4 -0 
" style="stroke: #d62728; stroke-width: 2.5"/>
    </defs>
    <g clip-path="url(#pdaaa557d7a)">
     <use xlink:href="#mb07cfba1a3" x="96.072198" y="206.804427" style="fill: #d62728; stroke: #d62728; stroke-width: 2.5"/>
     <use xlink:href="#mb07cfba1a3" x="222.290588" y="191.032983" style="fill: #d62728; stroke: #d62728; stroke-width: 2.5"/>
     <use xlink:href="#mb07cfba1a3" x="348.508979" y="179.969877" style="fill: #d62728; stroke: #d62728; stroke-width: 2.5"/>
     <use xlink:href="#mb07cfba1a3" x="474.727369" y="105.663991" style="fill: #d62728; stroke: #d62728; stroke-width: 2.5"/>
     <use xlink:href="#mb07cfba1a3" x="600.94576" y="145.81233" style="fill: #d62728; stroke: #d62728; stroke-width: 2.5"/>
    </g>
   </g>
   <g id="line2d_61">
    <g clip-path="url(#pdaaa557d7a)">
     <use xlink:href="#mb07cfba1a3" x="96.072198" y="171.738536" style="fill: #d62728; stroke: #d62728; stroke-width: 2.5"/>
     <use xlink:href="#mb07cfba1a3" x="222.290588" y="148.288978" style="fill: #d62728; stroke: #d62728; stroke-width: 2.5"/>
     <use xlink:href="#mb07cfba1a3" x="348.508979" y="122.361538" style="fill: #d62728; stroke: #d62728; stroke-width: 2.5"/>
     <use xlink:href="#mb07cfba1a3" x="474.727369" y="66.736007" style="fill: #d62728; stroke: #d62728; stroke-width: 2.5"/>
     <use xlink:href="#mb07cfba1a3" x="600.94576" y="72.599851" style="fill: #d62728; stroke: #d62728; stroke-width: 2.5"/>
    </g>
   </g>
   <g id="line2d_62">
    <path d="M 96.072198 156.393394 
L 222.290588 142.450703 
L 348.508979 64.273988 
L 474.727369 39.07832 
L 600.94576 38.835453 
L 727.16415 38.850706 
" clip-path="url(#pdaaa557d7a)" style="fill: none; stroke: #1f77b4; stroke-width: 2.5; stroke-linecap: square"/>
    <defs>
     <path id="m978ee2eaed" d="M 0 5 
C 1.326016 5 2.597899 4.473168 3.535534 3.535534 
C 4.473168 2.597899 5 1.326016 5 0 
C 5 -1.326016 4.473168 -2.597899 3.535534 -3.535534 
C 2.597899 -4.473168 1.326016 -5 0 -5 
C -1.326016 -5 -2.597899 -4.473168 -3.535534 -3.535534 
C -4.473168 -2.597899 -5 -1.326016 -5 0 
C -5 1.326016 -4.473168 2.597899 -3.535534 3.535534 
C -2.597899 4.473168 -1.326016 5 0 5 
z
" style="stroke: #1f77b4; stroke-width: 2.5"/>
    </defs>
    <g clip-path="url(#pdaaa557d7a)">
     <use xlink:href="#m978ee2eaed" x="96.072198" y="156.393394" style="fill: #1f77b4; stroke: #1f77b4; stroke-width: 2.5"/>
     <use xlink:href="#m978ee2eaed" x="222.290588" y="142.450703" style="fill: #1f77b4; stroke: #1f77b4; stroke-width: 2.5"/>
     <use xlink:href="#m978ee2eaed" x="348.508979" y="64.273988" style="fill: #1f77b4; stroke: #1f77b4; stroke-width: 2.5"/>
     <use xlink:href="#m978ee2eaed" x="474.727369" y="39.07832" style="fill: #1f77b4; stroke: #1f77b4; stroke-width: 2.5"/>
     <use xlink:href="#m978ee2eaed" x="600.94576" y="38.835453" style="fill: #1f77b4; stroke: #1f77b4; stroke-width: 2.5"/>
     <use xlink:href="#m978ee2eaed" x="727.16415" y="38.850706" style="fill: #1f77b4; stroke: #1f77b4; stroke-width: 2.5"/>
    </g>
   </g>
   <g id="line2d_63">
    <path d="M 96.072198 166.221174 
L 222.290588 156.429331 
L 348.508979 96.654706 
L 474.727369 38.73165 
L 600.94576 39.122552 
L 727.16415 40.488096 
" clip-path="url(#pdaaa557d7a)" style="fill: none; stroke: #ff7f0e; stroke-width: 2.5; stroke-linecap: square"/>
    <defs>
     <path id="m7cd05a4a91" d="M 0 5 
C 1.326016 5 2.597899 4.473168 3.535534 3.535534 
C 4.473168 2.597899 5 1.326016 5 0 
C 5 -1.326016 4.473168 -2.597899 3.535534 -3.535534 
C 2.597899 -4.473168 1.326016 -5 0 -5 
C -1.326016 -5 -2.597899 -4.473168 -3.535534 -3.535534 
C -4.473168 -2.597899 -5 -1.326016 -5 0 
C -5 1.326016 -4.473168 2.597899 -3.535534 3.535534 
C -2.597899 4.473168 -1.326016 5 0 5 
z
" style="stroke: #ff7f0e; stroke-width: 2.5"/>
    </defs>
    <g clip-path="url(#pdaaa557d7a)">
     <use xlink:href="#m7cd05a4a91" x="96.072198" y="166.221174" style="fill: #ff7f0e; stroke: #ff7f0e; stroke-width: 2.5"/>
     <use xlink:href="#m7cd05a4a91" x="222.290588" y="156.429331" style="fill: #ff7f0e; stroke: #ff7f0e; stroke-width: 2.5"/>
     <use xlink:href="#m7cd05a4a91" x="348.508979" y="96.654706" style="fill: #ff7f0e; stroke: #ff7f0e; stroke-width: 2.5"/>
     <use xlink:href="#m7cd05a4a91" x="474.727369" y="38.73165" style="fill: #ff7f0e; stroke: #ff7f0e; stroke-width: 2.5"/>
     <use xlink:href="#m7cd05a4a91" x="600.94576" y="39.122552" style="fill: #ff7f0e; stroke: #ff7f0e; stroke-width: 2.5"/>
     <use xlink:href="#m7cd05a4a91" x="727.16415" y="40.488096" style="fill: #ff7f0e; stroke: #ff7f0e; stroke-width: 2.5"/>
    </g>
   </g>
   <g id="line2d_64">
    <path d="M 96.072198 187.342929 
L 222.290588 174.684264 
L 348.508979 118.67411 
L 474.727369 42.282188 
L 600.94576 42.948335 
" clip-path="url(#pdaaa557d7a)" style="fill: none; stroke: #2ca02c; stroke-width: 2.5; stroke-linecap: square"/>
    <defs>
     <path id="mc98aa9cff9" d="M 0 5 
C 1.326016 5 2.597899 4.473168 3.535534 3.535534 
C 4.473168 2.597899 5 1.326016 5 0 
C 5 -1.326016 4.473168 -2.597899 3.535534 -3.535534 
C 2.597899 -4.473168 1.326016 -5 0 -5 
C -1.326016 -5 -2.597899 -4.473168 -3.535534 -3.535534 
C -4.473168 -2.597899 -5 -1.326016 -5 0 
C -5 1.326016 -4.473168 2.597899 -3.535534 3.535534 
C -2.597899 4.473168 -1.326016 5 0 5 
z
" style="stroke: #2ca02c; stroke-width: 2.5"/>
    </defs>
    <g clip-path="url(#pdaaa557d7a)">
     <use xlink:href="#mc98aa9cff9" x="96.072198" y="187.342929" style="fill: #2ca02c; stroke: #2ca02c; stroke-width: 2.5"/>
     <use xlink:href="#mc98aa9cff9" x="222.290588" y="174.684264" style="fill: #2ca02c; stroke: #2ca02c; stroke-width: 2.5"/>
     <use xlink:href="#mc98aa9cff9" x="348.508979" y="118.67411" style="fill: #2ca02c; stroke: #2ca02c; stroke-width: 2.5"/>
     <use xlink:href="#mc98aa9cff9" x="474.727369" y="42.282188" style="fill: #2ca02c; stroke: #2ca02c; stroke-width: 2.5"/>
     <use xlink:href="#mc98aa9cff9" x="600.94576" y="42.948335" style="fill: #2ca02c; stroke: #2ca02c; stroke-width: 2.5"/>
    </g>
   </g>
   <g id="line2d_65">
    <path d="M 96.072198 189.271482 
L 222.290588 169.660981 
L 348.508979 151.165708 
L 474.727369 86.199999 
L 600.94576 109.206091 
" clip-path="url(#pdaaa557d7a)" style="fill: none; stroke: #d62728; stroke-width: 2.5; stroke-linecap: square"/>
    <defs>
     <path id="m67fbeefa14" d="M 0 5 
C 1.326016 5 2.597899 4.473168 3.535534 3.535534 
C 4.473168 2.597899 5 1.326016 5 0 
C 5 -1.326016 4.473168 -2.597899 3.535534 -3.535534 
C 2.597899 -4.473168 1.326016 -5 0 -5 
C -1.326016 -5 -2.597899 -4.473168 -3.535534 -3.535534 
C -4.473168 -2.597899 -5 -1.326016 -5 0 
C -5 1.326016 -4.473168 2.597899 -3.535534 3.535534 
C -2.597899 4.473168 -1.326016 5 0 5 
z
" style="stroke: #d62728; stroke-width: 2.5"/>
    </defs>
    <g clip-path="url(#pdaaa557d7a)">
     <use xlink:href="#m67fbeefa14" x="96.072198" y="189.271482" style="fill: #d62728; stroke: #d62728; stroke-width: 2.5"/>
     <use xlink:href="#m67fbeefa14" x="222.290588" y="169.660981" style="fill: #d62728; stroke: #d62728; stroke-width: 2.5"/>
     <use xlink:href="#m67fbeefa14" x="348.508979" y="151.165708" style="fill: #d62728; stroke: #d62728; stroke-width: 2.5"/>
     <use xlink:href="#m67fbeefa14" x="474.727369" y="86.199999" style="fill: #d62728; stroke: #d62728; stroke-width: 2.5"/>
     <use xlink:href="#m67fbeefa14" x="600.94576" y="109.206091" style="fill: #d62728; stroke: #d62728; stroke-width: 2.5"/>
    </g>
   </g>
   <g id="patch_3">
    <path d="M 64.5176 216.3094 
L 64.5176 7.2 
" style="fill: none; stroke: #000000; stroke-width: 1.5; stroke-linejoin: miter; stroke-linecap: square"/>
   </g>
   <g id="patch_4">
    <path d="M 64.5176 216.3094 
L 758.718748 216.3094 
" style="fill: none; stroke: #000000; stroke-width: 1.5; stroke-linejoin: miter; stroke-linecap: square"/>
   </g>
   <g id="legend_1">
    <g id="LineCollection_5">
     <path d="M 786.602771 94.621887 
L 786.602771 84.621887 
" style="fill: none; stroke: #1f77b4; stroke-width: 2.5"/>
    </g>
    <g id="line2d_66">
     <g>
      <use xlink:href="#m6c5efa9ba6" x="786.602771" y="94.621887" style="fill: #1f77b4; stroke: #1f77b4; stroke-width: 2.5"/>
     </g>
    </g>
    <g id="line2d_67">
     <g>
      <use xlink:href="#m6c5efa9ba6" x="786.602771" y="84.621887" style="fill: #1f77b4; stroke: #1f77b4; stroke-width: 2.5"/>
     </g>
    </g>
    <g id="line2d_68">
     <path d="M 776.602771 89.621887 
L 796.602771 89.621887 
" style="fill: none; stroke: #1f77b4; stroke-width: 2.5; stroke-linecap: square"/>
    </g>
    <g id="line2d_69">
     <g>
      <use xlink:href="#m978ee2eaed" x="786.602771" y="89.621887" style="fill: #1f77b4; stroke: #1f77b4; stroke-width: 2.5"/>
     </g>
    </g>
    <g id="text_12">
     <!-- $\epsilon=0$ -->
     <g transform="translate(804.602771 93.121887)scale(0.1 -0.1)">
      <defs>
       <path id="DejaVuSans-Oblique-3b5" d="M 1263 1888 
Q 925 1963 778 2166 
Q 669 2309 669 2503 
Q 669 3034 1175 3344 
Q 1575 3588 2188 3588 
Q 2425 3588 2684 3550 
Q 2944 3513 3234 3438 
L 3134 2916 
Q 2847 3006 2606 3047 
Q 2359 3088 2138 3088 
Q 1766 3088 1522 2944 
Q 1228 2772 1228 2522 
Q 1228 2356 1381 2241 
Q 1563 2103 1925 2103 
L 2409 2103 
L 2319 1628 
L 1856 1628 
Q 1425 1628 1172 1469 
Q 828 1253 828 916 
Q 828 703 1013 563 
Q 1244 388 1716 388 
Q 2006 388 2284 444 
Q 2563 503 2806 619 
L 2700 84 
Q 2403 -3 2131 -47 
Q 1859 -91 1609 -91 
Q 866 -91 516 194 
Q 250 413 250 781 
Q 250 1278 600 1584 
Q 859 1813 1263 1888 
z
" transform="scale(0.015625)"/>
       <path id="DejaVuSans-3d" d="M 678 2906 
L 4684 2906 
L 4684 2381 
L 678 2381 
L 678 2906 
z
M 678 1631 
L 4684 1631 
L 4684 1100 
L 678 1100 
L 678 1631 
z
" transform="scale(0.015625)"/>
       <path id="DejaVuSans-30" d="M 2034 4250 
Q 1547 4250 1301 3770 
Q 1056 3291 1056 2328 
Q 1056 1369 1301 889 
Q 1547 409 2034 409 
Q 2525 409 2770 889 
Q 3016 1369 3016 2328 
Q 3016 3291 2770 3770 
Q 2525 4250 2034 4250 
z
M 2034 4750 
Q 2819 4750 3233 4129 
Q 3647 3509 3647 2328 
Q 3647 1150 3233 529 
Q 2819 -91 2034 -91 
Q 1250 -91 836 529 
Q 422 1150 422 2328 
Q 422 3509 836 4129 
Q 1250 4750 2034 4750 
z
" transform="scale(0.015625)"/>
      </defs>
      <use xlink:href="#DejaVuSans-Oblique-3b5" transform="translate(0 0.78125)"/>
      <use xlink:href="#DejaVuSans-3d" transform="translate(73.535156 0.78125)"/>
      <use xlink:href="#DejaVuSans-30" transform="translate(176.806641 0.78125)"/>
     </g>
    </g>
    <g id="LineCollection_6">
     <path d="M 786.602771 108.7672 
L 786.602771 98.7672 
" style="fill: none; stroke: #ff7f0e; stroke-width: 2.5"/>
    </g>
    <g id="line2d_70">
     <g>
      <use xlink:href="#mfc0266bcdf" x="786.602771" y="108.7672" style="fill: #ff7f0e; stroke: #ff7f0e; stroke-width: 2.5"/>
     </g>
    </g>
    <g id="line2d_71">
     <g>
      <use xlink:href="#mfc0266bcdf" x="786.602771" y="98.7672" style="fill: #ff7f0e; stroke: #ff7f0e; stroke-width: 2.5"/>
     </g>
    </g>
    <g id="line2d_72">
     <path d="M 776.602771 103.7672 
L 796.602771 103.7672 
" style="fill: none; stroke: #ff7f0e; stroke-width: 2.5; stroke-linecap: square"/>
    </g>
    <g id="line2d_73">
     <g>
      <use xlink:href="#m7cd05a4a91" x="786.602771" y="103.7672" style="fill: #ff7f0e; stroke: #ff7f0e; stroke-width: 2.5"/>
     </g>
    </g>
    <g id="text_13">
     <!-- $\epsilon=0.25$ -->
     <g transform="translate(804.602771 107.2672)scale(0.1 -0.1)">
      <defs>
       <path id="DejaVuSans-2e" d="M 684 794 
L 1344 794 
L 1344 0 
L 684 0 
L 684 794 
z
" transform="scale(0.015625)"/>
       <path id="DejaVuSans-32" d="M 1228 531 
L 3431 531 
L 3431 0 
L 469 0 
L 469 531 
Q 828 903 1448 1529 
Q 2069 2156 2228 2338 
Q 2531 2678 2651 2914 
Q 2772 3150 2772 3378 
Q 2772 3750 2511 3984 
Q 2250 4219 1831 4219 
Q 1534 4219 1204 4116 
Q 875 4013 500 3803 
L 500 4441 
Q 881 4594 1212 4672 
Q 1544 4750 1819 4750 
Q 2544 4750 2975 4387 
Q 3406 4025 3406 3419 
Q 3406 3131 3298 2873 
Q 3191 2616 2906 2266 
Q 2828 2175 2409 1742 
Q 1991 1309 1228 531 
z
" transform="scale(0.015625)"/>
       <path id="DejaVuSans-35" d="M 691 4666 
L 3169 4666 
L 3169 4134 
L 1269 4134 
L 1269 2991 
Q 1406 3038 1543 3061 
Q 1681 3084 1819 3084 
Q 2600 3084 3056 2656 
Q 3513 2228 3513 1497 
Q 3513 744 3044 326 
Q 2575 -91 1722 -91 
Q 1428 -91 1123 -41 
Q 819 9 494 109 
L 494 744 
Q 775 591 1075 516 
Q 1375 441 1709 441 
Q 2250 441 2565 725 
Q 2881 1009 2881 1497 
Q 2881 1984 2565 2268 
Q 2250 2553 1709 2553 
Q 1456 2553 1204 2497 
Q 953 2441 691 2322 
L 691 4666 
z
" transform="scale(0.015625)"/>
      </defs>
      <use xlink:href="#DejaVuSans-Oblique-3b5" transform="translate(0 0.78125)"/>
      <use xlink:href="#DejaVuSans-3d" transform="translate(73.535156 0.78125)"/>
      <use xlink:href="#DejaVuSans-30" transform="translate(176.806641 0.78125)"/>
      <use xlink:href="#DejaVuSans-2e" transform="translate(240.429688 0.78125)"/>
      <use xlink:href="#DejaVuSans-32" transform="translate(266.716797 0.78125)"/>
      <use xlink:href="#DejaVuSans-35" transform="translate(330.339844 0.78125)"/>
     </g>
    </g>
    <g id="LineCollection_7">
     <path d="M 786.602771 122.912512 
L 786.602771 112.912512 
" style="fill: none; stroke: #2ca02c; stroke-width: 2.5"/>
    </g>
    <g id="line2d_74">
     <g>
      <use xlink:href="#m785869d473" x="786.602771" y="122.912512" style="fill: #2ca02c; stroke: #2ca02c; stroke-width: 2.5"/>
     </g>
    </g>
    <g id="line2d_75">
     <g>
      <use xlink:href="#m785869d473" x="786.602771" y="112.912512" style="fill: #2ca02c; stroke: #2ca02c; stroke-width: 2.5"/>
     </g>
    </g>
    <g id="line2d_76">
     <path d="M 776.602771 117.912512 
L 796.602771 117.912512 
" style="fill: none; stroke: #2ca02c; stroke-width: 2.5; stroke-linecap: square"/>
    </g>
    <g id="line2d_77">
     <g>
      <use xlink:href="#mc98aa9cff9" x="786.602771" y="117.912512" style="fill: #2ca02c; stroke: #2ca02c; stroke-width: 2.5"/>
     </g>
    </g>
    <g id="text_14">
     <!-- $\epsilon=0.5$ -->
     <g transform="translate(804.602771 121.412512)scale(0.1 -0.1)">
      <use xlink:href="#DejaVuSans-Oblique-3b5" transform="translate(0 0.78125)"/>
      <use xlink:href="#DejaVuSans-3d" transform="translate(73.535156 0.78125)"/>
      <use xlink:href="#DejaVuSans-30" transform="translate(176.806641 0.78125)"/>
      <use xlink:href="#DejaVuSans-2e" transform="translate(240.429688 0.78125)"/>
      <use xlink:href="#DejaVuSans-35" transform="translate(272.216797 0.78125)"/>
     </g>
    </g>
    <g id="LineCollection_8">
     <path d="M 786.602771 137.057825 
L 786.602771 127.057825 
" style="fill: none; stroke: #d62728; stroke-width: 2.5"/>
    </g>
    <g id="line2d_78">
     <g>
      <use xlink:href="#mb07cfba1a3" x="786.602771" y="137.057825" style="fill: #d62728; stroke: #d62728; stroke-width: 2.5"/>
     </g>
    </g>
    <g id="line2d_79">
     <g>
      <use xlink:href="#mb07cfba1a3" x="786.602771" y="127.057825" style="fill: #d62728; stroke: #d62728; stroke-width: 2.5"/>
     </g>
    </g>
    <g id="line2d_80">
     <path d="M 776.602771 132.057825 
L 796.602771 132.057825 
" style="fill: none; stroke: #d62728; stroke-width: 2.5; stroke-linecap: square"/>
    </g>
    <g id="line2d_81">
     <g>
      <use xlink:href="#m67fbeefa14" x="786.602771" y="132.057825" style="fill: #d62728; stroke: #d62728; stroke-width: 2.5"/>
     </g>
    </g>
    <g id="text_15">
     <!-- $\epsilon=0.75$ -->
     <g transform="translate(804.602771 135.557825)scale(0.1 -0.1)">
      <defs>
       <path id="DejaVuSans-37" d="M 525 4666 
L 3525 4666 
L 3525 4397 
L 1831 0 
L 1172 0 
L 2766 4134 
L 525 4134 
L 525 4666 
z
" transform="scale(0.015625)"/>
      </defs>
      <use xlink:href="#DejaVuSans-Oblique-3b5" transform="translate(0 0.78125)"/>
      <use xlink:href="#DejaVuSans-3d" transform="translate(73.535156 0.78125)"/>
      <use xlink:href="#DejaVuSans-30" transform="translate(176.806641 0.78125)"/>
      <use xlink:href="#DejaVuSans-2e" transform="translate(240.429688 0.78125)"/>
      <use xlink:href="#DejaVuSans-37" transform="translate(264.466797 0.78125)"/>
      <use xlink:href="#DejaVuSans-35" transform="translate(328.089844 0.78125)"/>
     </g>
    </g>
   </g>
  </g>
 </g>
 <defs>
  <clipPath id="pdaaa557d7a">
   <rect x="64.5176" y="7.2" width="694.201148" height="209.1094"/>
  </clipPath>
 </defs>
</svg>
