<?xml version="1.0" encoding="utf-8" standalone="no"?>
<!DOCTYPE svg PUBLIC "-//W3C//DTD SVG 1.1//EN"
  "http://www.w3.org/Graphics/SVG/1.1/DTD/svg11.dtd">
<svg xmlns:xlink="http://www.w3.org/1999/xlink" width="449.28pt" height="334.08pt" viewBox="0 0 449.28 334.08" xmlns="http://www.w3.org/2000/svg" version="1.1">
 <metadata>
  <rdf:RDF xmlns:dc="http://purl.org/dc/elements/1.1/" xmlns:cc="http://creativecommons.org/ns#" xmlns:rdf="http://www.w3.org/1999/02/22-rdf-syntax-ns#">
   <cc:Work>
    <dc:type rdf:resource="http://purl.org/dc/dcmitype/StillImage"/>
    <dc:date>2025-09-08T15:34:03.195453</dc:date>
    <dc:format>image/svg+xml</dc:format>
    <dc:creator>
     <cc:Agent>
      <dc:title>Matplotlib v3.5.3, https://matplotlib.org/</dc:title>
     </cc:Agent>
    </dc:creator>
   </cc:Work>
  </rdf:RDF>
 </metadata>
 <defs>
  <style type="text/css">*{stroke-linejoin: round; stroke-linecap: butt}</style>
 </defs>
 <g id="figure_1">
  <g id="patch_1">
   <path d="M 0 334.08 
L 449.28 334.08 
L 449.28 0 
L 0 0 
z
" style="fill: #ffffff"/>
  </g>
  <g id="axes_1">
   <g id="patch_2">
    <path d="M 64.8632 279.7738 
L 442.08 279.7738 
L 442.08 25.5687 
L 64.8632 25.5687 
z
" style="fill: #ffffff"/>
   </g>
   <g id="PolyCollection_1">
    <defs>
     <path id="m6ef4dba5ec" d="M 82.009418 -296.956523 
L 82.009418 -291.248701 
L 89.007875 -290.618226 
L 96.006331 -289.776329 
L 103.004787 -290.936105 
L 110.003244 -290.507377 
L 117.0017 -289.743991 
L 124.000157 -291.233253 
L 130.998613 -291.304585 
L 137.997069 -291.209169 
L 144.995526 -290.401711 
L 151.993982 -290.546824 
L 158.992439 -291.08133 
L 165.990895 -291.131192 
L 172.989351 -291.188481 
L 179.987808 -290.981929 
L 186.986264 -291.290692 
L 193.984721 -291.479564 
L 200.983177 -291.482609 
L 207.981633 -291.206165 
L 214.98009 -291.793741 
L 221.978546 -291.432824 
L 228.977003 -291.242351 
L 235.975459 -291.224961 
L 242.973915 -290.996209 
L 249.972372 -290.89019 
L 256.970828 -290.335753 
L 263.969285 -290.872169 
L 270.967741 -290.647203 
L 277.966197 -290.26131 
L 284.964654 -289.68258 
L 291.96311 -289.550914 
L 298.961567 -289.142759 
L 305.960023 -289.23512 
L 312.958479 -289.15099 
L 319.956936 -288.38719 
L 326.955392 -288.382725 
L 333.953849 -287.926548 
L 340.952305 -288.041132 
L 347.950761 -287.738311 
L 354.949218 -287.443987 
L 361.947674 -287.386384 
L 368.946131 -287.268034 
L 375.944587 -287.328233 
L 382.943043 -286.865435 
L 389.9415 -286.772583 
L 396.939956 -286.892326 
L 403.938413 -286.37976 
L 410.936869 -286.546242 
L 417.935325 -286.330193 
L 424.933782 -286.313997 
L 424.933782 -296.812792 
L 424.933782 -296.812792 
L 417.935325 -296.804807 
L 410.936869 -296.798821 
L 403.938413 -296.797741 
L 396.939956 -296.790956 
L 389.9415 -296.79636 
L 382.943043 -296.797873 
L 375.944587 -296.79445 
L 368.946131 -296.799467 
L 361.947674 -296.805647 
L 354.949218 -296.795391 
L 347.950761 -296.798635 
L 340.952305 -296.803279 
L 333.953849 -296.808623 
L 326.955392 -296.81819 
L 319.956936 -296.815915 
L 312.958479 -296.823029 
L 305.960023 -296.83447 
L 298.961567 -296.834618 
L 291.96311 -296.851762 
L 284.964654 -296.85418 
L 277.966197 -296.855646 
L 270.967741 -296.869739 
L 263.969285 -296.878065 
L 256.970828 -296.881779 
L 249.972372 -296.890968 
L 242.973915 -296.891511 
L 235.975459 -296.901092 
L 228.977003 -296.902041 
L 221.978546 -296.902865 
L 214.98009 -296.906258 
L 207.981633 -296.904668 
L 200.983177 -296.910699 
L 193.984721 -296.90973 
L 186.986264 -296.909042 
L 179.987808 -296.887638 
L 172.989351 -296.912969 
L 165.990895 -296.90796 
L 158.992439 -296.91736 
L 151.993982 -296.910829 
L 144.995526 -296.910264 
L 137.997069 -296.929167 
L 130.998613 -296.922359 
L 124.000157 -296.941093 
L 117.0017 -296.936153 
L 110.003244 -296.941591 
L 103.004787 -296.940102 
L 96.006331 -296.945955 
L 89.007875 -296.950403 
L 82.009418 -296.956523 
z
" style="stroke: #595c79; stroke-opacity: 0.15; stroke-width: 2.5"/>
    </defs>
    <g clip-path="url(#p27cdc008c6)">
     <use xlink:href="#m6ef4dba5ec" x="0" y="334.08" style="fill: #595c79; fill-opacity: 0.15; stroke: #595c79; stroke-opacity: 0.15; stroke-width: 2.5"/>
    </g>
   </g>
   <g id="PolyCollection_2">
    <defs>
     <path id="m8d4df4d314" d="M 82.009418 -296.94996 
L 82.009418 -292.114513 
L 89.007875 -289.642855 
L 96.006331 -287.71227 
L 103.004787 -284.529179 
L 110.003244 -285.832638 
L 117.0017 -289.293275 
L 124.000157 -283.744609 
L 130.998613 -285.40831 
L 137.997069 -284.397971 
L 144.995526 -282.706924 
L 151.993982 -284.735804 
L 158.992439 -284.162797 
L 165.990895 -284.769471 
L 172.989351 -285.861434 
L 179.987808 -284.99506 
L 186.986264 -284.183191 
L 193.984721 -284.187418 
L 200.983177 -284.573522 
L 207.981633 -281.214209 
L 214.98009 -282.948304 
L 221.978546 -283.564549 
L 228.977003 -283.20559 
L 235.975459 -283.078465 
L 242.973915 -282.217115 
L 249.972372 -281.400015 
L 256.970828 -282.072773 
L 263.969285 -282.246558 
L 270.967741 -281.651686 
L 277.966197 -280.524318 
L 284.964654 -282.818446 
L 291.96311 -279.819937 
L 298.961567 -280.539461 
L 305.960023 -280.162507 
L 312.958479 -281.499638 
L 319.956936 -279.51242 
L 326.955392 -278.856282 
L 333.953849 -279.345018 
L 340.952305 -278.888779 
L 347.950761 -279.189074 
L 354.949218 -278.975864 
L 361.947674 -277.790087 
L 368.946131 -276.218392 
L 375.944587 -278.648442 
L 382.943043 -276.454874 
L 389.9415 -275.980934 
L 396.939956 -275.711289 
L 403.938413 -275.78779 
L 410.936869 -276.159198 
L 417.935325 -275.79783 
L 424.933782 -274.718972 
L 424.933782 -296.693933 
L 424.933782 -296.693933 
L 417.935325 -296.724615 
L 410.936869 -296.688101 
L 403.938413 -296.701591 
L 396.939956 -296.1688 
L 389.9415 -296.712709 
L 382.943043 -296.625601 
L 375.944587 -296.719075 
L 368.946131 -296.715173 
L 361.947674 -296.728258 
L 354.949218 -296.733803 
L 347.950761 -296.749562 
L 340.952305 -296.722248 
L 333.953849 -296.693748 
L 326.955392 -296.733704 
L 319.956936 -296.749922 
L 312.958479 -296.756802 
L 305.960023 -296.765089 
L 298.961567 -296.731604 
L 291.96311 -296.750446 
L 284.964654 -296.780928 
L 277.966197 -296.772475 
L 270.967741 -296.781181 
L 263.969285 -296.733108 
L 256.970828 -296.785934 
L 249.972372 -296.811639 
L 242.973915 -296.823488 
L 235.975459 -296.822282 
L 228.977003 -296.828868 
L 221.978546 -296.856742 
L 214.98009 -296.838296 
L 207.981633 -296.860975 
L 200.983177 -296.870786 
L 193.984721 -296.845826 
L 186.986264 -296.852592 
L 179.987808 -296.871366 
L 172.989351 -296.869211 
L 165.990895 -296.872386 
L 158.992439 -296.88619 
L 151.993982 -296.887675 
L 144.995526 -296.852795 
L 137.997069 -296.865846 
L 130.998613 -296.904376 
L 124.000157 -296.885331 
L 117.0017 -296.90948 
L 110.003244 -296.928732 
L 103.004787 -296.915193 
L 96.006331 -296.932125 
L 89.007875 -296.943138 
L 82.009418 -296.94996 
z
" style="stroke: #92aab1; stroke-opacity: 0.15; stroke-width: 2.5"/>
    </defs>
    <g clip-path="url(#p27cdc008c6)">
     <use xlink:href="#m8d4df4d314" x="0" y="334.08" style="fill: #92aab1; fill-opacity: 0.15; stroke: #92aab1; stroke-opacity: 0.15; stroke-width: 2.5"/>
    </g>
   </g>
   <g id="PolyCollection_3">
    <defs>
     <path id="m43ba890ba0" d="M 82.009418 -296.941741 
L 82.009418 -288.042899 
L 89.007875 -285.943077 
L 96.006331 -280.554896 
L 103.004787 -277.289061 
L 110.003244 -273.123807 
L 117.0017 -273.154779 
L 124.000157 -271.877188 
L 130.998613 -275.406922 
L 137.997069 -274.894783 
L 144.995526 -267.461986 
L 151.993982 -267.034138 
L 158.992439 -270.59605 
L 165.990895 -269.585309 
L 172.989351 -271.233842 
L 179.987808 -265.682363 
L 186.986264 -268.325738 
L 193.984721 -265.494498 
L 200.983177 -270.781582 
L 207.981633 -268.705133 
L 214.98009 -269.590651 
L 221.978546 -265.389209 
L 228.977003 -265.436421 
L 235.975459 -263.670266 
L 242.973915 -262.59378 
L 249.972372 -261.309339 
L 256.970828 -262.106088 
L 263.969285 -261.71363 
L 270.967741 -263.596251 
L 277.966197 -261.404162 
L 284.964654 -265.219962 
L 291.96311 -261.908645 
L 298.961567 -263.008084 
L 305.960023 -264.190501 
L 312.958479 -265.053906 
L 319.956936 -266.513678 
L 326.955392 -263.627336 
L 333.953849 -266.081922 
L 340.952305 -261.137856 
L 347.950761 -263.255156 
L 354.949218 -263.975176 
L 361.947674 -261.525281 
L 368.946131 -262.018656 
L 375.944587 -263.957104 
L 382.943043 -261.646333 
L 389.9415 -259.127446 
L 396.939956 -258.383915 
L 403.938413 -260.095103 
L 410.936869 -261.36054 
L 417.935325 -261.912975 
L 424.933782 -259.746581 
L 424.933782 -295.593527 
L 424.933782 -295.593527 
L 417.935325 -295.565338 
L 410.936869 -295.810159 
L 403.938413 -295.705807 
L 396.939956 -295.573252 
L 389.9415 -295.757324 
L 382.943043 -295.877003 
L 375.944587 -295.777575 
L 368.946131 -295.934182 
L 361.947674 -295.600368 
L 354.949218 -295.904705 
L 347.950761 -296.004574 
L 340.952305 -296.070916 
L 333.953849 -295.833802 
L 326.955392 -295.84549 
L 319.956936 -296.178571 
L 312.958479 -296.161673 
L 305.960023 -296.100369 
L 298.961567 -296.127637 
L 291.96311 -295.959472 
L 284.964654 -296.042331 
L 277.966197 -296.128895 
L 270.967741 -296.106687 
L 263.969285 -296.136976 
L 256.970828 -296.150704 
L 249.972372 -296.267529 
L 242.973915 -296.235145 
L 235.975459 -296.31857 
L 228.977003 -296.172585 
L 221.978546 -296.527283 
L 214.98009 -296.482344 
L 207.981633 -296.281462 
L 200.983177 -296.294368 
L 193.984721 -296.284481 
L 186.986264 -296.419989 
L 179.987808 -296.597609 
L 172.989351 -296.644727 
L 165.990895 -296.722579 
L 158.992439 -296.552476 
L 151.993982 -296.578835 
L 144.995526 -296.506103 
L 137.997069 -296.282559 
L 130.998613 -296.865449 
L 124.000157 -296.805198 
L 117.0017 -296.86014 
L 110.003244 -296.852138 
L 103.004787 -296.895918 
L 96.006331 -296.860295 
L 89.007875 -296.931833 
L 82.009418 -296.941741 
z
" style="stroke: #b2cece; stroke-opacity: 0.15; stroke-width: 2.5"/>
    </defs>
    <g clip-path="url(#p27cdc008c6)">
     <use xlink:href="#m43ba890ba0" x="0" y="334.08" style="fill: #b2cece; fill-opacity: 0.15; stroke: #b2cece; stroke-opacity: 0.15; stroke-width: 2.5"/>
    </g>
   </g>
   <g id="PolyCollection_4">
    <defs>
     <path id="m0d01302b04" d="M 82.009418 -295.572022 
L 82.009418 -246.383097 
L 89.007875 -225.155107 
L 96.006331 -205.790411 
L 103.004787 -191.136072 
L 110.003244 -196.786107 
L 117.0017 -180.463138 
L 124.000157 -187.069042 
L 130.998613 -169.319329 
L 137.997069 -184.321371 
L 144.995526 -205.672817 
L 151.993982 -191.947116 
L 158.992439 -191.930203 
L 165.990895 -192.312511 
L 172.989351 -183.353958 
L 179.987808 -197.543868 
L 186.986264 -191.459366 
L 193.984721 -184.190679 
L 200.983177 -197.015956 
L 207.981633 -181.91622 
L 214.98009 -195.170895 
L 221.978546 -172.156636 
L 228.977003 -186.559682 
L 235.975459 -195.095867 
L 242.973915 -190.258998 
L 249.972372 -196.482668 
L 256.970828 -190.174847 
L 263.969285 -195.534086 
L 270.967741 -199.265213 
L 277.966197 -186.049873 
L 284.964654 -194.975708 
L 291.96311 -192.200615 
L 298.961567 -185.152182 
L 305.960023 -192.497633 
L 312.958479 -196.816835 
L 319.956936 -204.584254 
L 326.955392 -200.867118 
L 333.953849 -209.580519 
L 340.952305 -213.275581 
L 347.950761 -212.715395 
L 354.949218 -226.56055 
L 361.947674 -200.135681 
L 368.946131 -205.174105 
L 375.944587 -203.934481 
L 382.943043 -195.980298 
L 389.9415 -191.644851 
L 396.939956 -208.618664 
L 403.938413 -198.345379 
L 410.936869 -203.701958 
L 417.935325 -193.886509 
L 424.933782 -211.642165 
L 424.933782 -255.939696 
L 424.933782 -255.939696 
L 417.935325 -265.923142 
L 410.936869 -260.662979 
L 403.938413 -262.272207 
L 396.939956 -260.509795 
L 389.9415 -259.217257 
L 382.943043 -261.963454 
L 375.944587 -260.570319 
L 368.946131 -262.055603 
L 361.947674 -263.873995 
L 354.949218 -264.466511 
L 347.950761 -267.375234 
L 340.952305 -262.9814 
L 333.953849 -266.467004 
L 326.955392 -262.881786 
L 319.956936 -266.039667 
L 312.958479 -266.481901 
L 305.960023 -268.253097 
L 298.961567 -269.712848 
L 291.96311 -272.153376 
L 284.964654 -273.645047 
L 277.966197 -269.327383 
L 270.967741 -272.280496 
L 263.969285 -275.895271 
L 256.970828 -273.139001 
L 249.972372 -276.747097 
L 242.973915 -272.535969 
L 235.975459 -281.232637 
L 228.977003 -281.500375 
L 221.978546 -279.990549 
L 214.98009 -279.600182 
L 207.981633 -282.717172 
L 200.983177 -285.851988 
L 193.984721 -284.898556 
L 186.986264 -287.115425 
L 179.987808 -288.078862 
L 172.989351 -288.318147 
L 165.990895 -289.172604 
L 158.992439 -291.822526 
L 151.993982 -291.309682 
L 144.995526 -292.75955 
L 137.997069 -291.774411 
L 130.998613 -294.134042 
L 124.000157 -293.058489 
L 117.0017 -294.096297 
L 110.003244 -294.385102 
L 103.004787 -294.699466 
L 96.006331 -294.997442 
L 89.007875 -295.415688 
L 82.009418 -295.572022 
z
" style="stroke: #dde9e9; stroke-opacity: 0.15; stroke-width: 2.5"/>
    </defs>
    <g clip-path="url(#p27cdc008c6)">
     <use xlink:href="#m0d01302b04" x="0" y="334.08" style="fill: #dde9e9; fill-opacity: 0.15; stroke: #dde9e9; stroke-opacity: 0.15; stroke-width: 2.5"/>
    </g>
   </g>
   <g id="PolyCollection_5">
    <defs>
     <path id="m2f53c90161" d="M 82.009418 -126.401152 
L 82.009418 -111.859277 
L 89.007875 -107.091058 
L 96.006331 -102.647721 
L 103.004787 -98.984835 
L 110.003244 -95.906667 
L 117.0017 -92.855779 
L 124.000157 -94.007665 
L 130.998613 -92.285069 
L 137.997069 -92.758639 
L 144.995526 -92.173773 
L 151.993982 -91.438647 
L 158.992439 -92.734391 
L 165.990895 -92.330328 
L 172.989351 -92.57364 
L 179.987808 -91.497746 
L 186.986264 -92.73774 
L 193.984721 -93.602456 
L 200.983177 -92.955908 
L 207.981633 -93.816359 
L 214.98009 -93.401281 
L 221.978546 -93.794897 
L 228.977003 -93.12264 
L 235.975459 -93.253833 
L 242.973915 -94.499208 
L 249.972372 -94.397585 
L 256.970828 -94.446363 
L 263.969285 -94.869021 
L 270.967741 -96.360615 
L 277.966197 -96.649613 
L 284.964654 -96.143043 
L 291.96311 -96.198004 
L 298.961567 -95.9403 
L 305.960023 -96.048966 
L 312.958479 -96.719357 
L 319.956936 -96.356772 
L 326.955392 -97.417803 
L 333.953849 -96.744737 
L 340.952305 -96.553275 
L 347.950761 -97.814054 
L 354.949218 -97.800446 
L 361.947674 -97.966614 
L 368.946131 -98.41859 
L 375.944587 -99.515705 
L 382.943043 -98.139255 
L 389.9415 -98.26203 
L 396.939956 -99.584776 
L 403.938413 -98.953511 
L 410.936869 -98.391799 
L 417.935325 -98.882368 
L 424.933782 -99.583128 
L 424.933782 -108.168046 
L 424.933782 -108.168046 
L 417.935325 -109.013126 
L 410.936869 -108.982413 
L 403.938413 -109.720479 
L 396.939956 -109.87117 
L 389.9415 -109.599467 
L 382.943043 -109.827225 
L 375.944587 -109.789819 
L 368.946131 -109.646263 
L 361.947674 -110.262456 
L 354.949218 -110.823027 
L 347.950761 -110.83669 
L 340.952305 -110.791769 
L 333.953849 -110.941839 
L 326.955392 -110.844503 
L 319.956936 -111.267617 
L 312.958479 -111.415343 
L 305.960023 -110.849233 
L 298.961567 -111.313986 
L 291.96311 -111.312743 
L 284.964654 -111.619816 
L 277.966197 -111.510245 
L 270.967741 -112.295907 
L 263.969285 -112.3908 
L 256.970828 -112.082603 
L 249.972372 -112.485196 
L 242.973915 -113.018581 
L 235.975459 -113.530465 
L 228.977003 -113.236273 
L 221.978546 -113.200061 
L 214.98009 -114.341755 
L 207.981633 -114.447508 
L 200.983177 -114.180244 
L 193.984721 -114.539106 
L 186.986264 -114.562268 
L 179.987808 -114.715714 
L 172.989351 -115.126024 
L 165.990895 -115.010096 
L 158.992439 -115.336054 
L 151.993982 -115.105129 
L 144.995526 -115.597907 
L 137.997069 -116.258348 
L 130.998613 -116.636883 
L 124.000157 -117.311033 
L 117.0017 -117.950991 
L 110.003244 -118.885399 
L 103.004787 -119.934229 
L 96.006331 -121.057856 
L 89.007875 -123.688366 
L 82.009418 -126.401152 
z
" style="stroke: #595c79; stroke-opacity: 0.15; stroke-width: 2.5"/>
    </defs>
    <g clip-path="url(#p27cdc008c6)">
     <use xlink:href="#m2f53c90161" x="0" y="334.08" style="fill: #595c79; fill-opacity: 0.15; stroke: #595c79; stroke-opacity: 0.15; stroke-width: 2.5"/>
    </g>
   </g>
   <g id="PolyCollection_6">
    <defs>
     <path id="m9f4c250f3c" d="M 82.009418 -124.834144 
L 82.009418 -112.366451 
L 89.007875 -105.003392 
L 96.006331 -98.567582 
L 103.004787 -88.099985 
L 110.003244 -90.100104 
L 117.0017 -96.787191 
L 124.000157 -86.261206 
L 130.998613 -93.594228 
L 137.997069 -90.756588 
L 144.995526 -87.870184 
L 151.993982 -94.131036 
L 158.992439 -86.034933 
L 165.990895 -88.066139 
L 172.989351 -95.658701 
L 179.987808 -91.63161 
L 186.986264 -92.608751 
L 193.984721 -92.860967 
L 200.983177 -94.053516 
L 207.981633 -87.556502 
L 214.98009 -92.712894 
L 221.978546 -93.747994 
L 228.977003 -94.161373 
L 235.975459 -96.438227 
L 242.973915 -92.795519 
L 249.972372 -93.884172 
L 256.970828 -94.799793 
L 263.969285 -96.134493 
L 270.967741 -97.048898 
L 277.966197 -100.561921 
L 284.964654 -96.047267 
L 291.96311 -96.548036 
L 298.961567 -96.278133 
L 305.960023 -93.702073 
L 312.958479 -98.39791 
L 319.956936 -95.334833 
L 326.955392 -97.880939 
L 333.953849 -98.17109 
L 340.952305 -98.269934 
L 347.950761 -98.43155 
L 354.949218 -99.481099 
L 361.947674 -99.426638 
L 368.946131 -98.521577 
L 375.944587 -101.337636 
L 382.943043 -100.593517 
L 389.9415 -101.969935 
L 396.939956 -99.395448 
L 403.938413 -100.794645 
L 410.936869 -99.577594 
L 417.935325 -100.534134 
L 424.933782 -100.628029 
L 424.933782 -101.667212 
L 424.933782 -101.667212 
L 417.935325 -103.037637 
L 410.936869 -102.606453 
L 403.938413 -102.865087 
L 396.939956 -102.297718 
L 389.9415 -102.980996 
L 382.943043 -103.086539 
L 375.944587 -102.804796 
L 368.946131 -104.136809 
L 361.947674 -103.10369 
L 354.949218 -103.009662 
L 347.950761 -103.810327 
L 340.952305 -103.769852 
L 333.953849 -103.817115 
L 326.955392 -105.354833 
L 319.956936 -104.422732 
L 312.958479 -104.797193 
L 305.960023 -104.89118 
L 298.961567 -105.116939 
L 291.96311 -106.062017 
L 284.964654 -107.75612 
L 277.966197 -106.31925 
L 270.967741 -107.422817 
L 263.969285 -106.777055 
L 256.970828 -106.759913 
L 249.972372 -107.870295 
L 242.973915 -106.38789 
L 235.975459 -108.080366 
L 228.977003 -108.454532 
L 221.978546 -109.620269 
L 214.98009 -107.197833 
L 207.981633 -108.063741 
L 200.983177 -109.06251 
L 193.984721 -109.410322 
L 186.986264 -110.061077 
L 179.987808 -110.572271 
L 172.989351 -111.316911 
L 165.990895 -111.818381 
L 158.992439 -111.193314 
L 151.993982 -112.769676 
L 144.995526 -112.315565 
L 137.997069 -112.917552 
L 130.998613 -113.071937 
L 124.000157 -114.538098 
L 117.0017 -115.610739 
L 110.003244 -115.261518 
L 103.004787 -116.148642 
L 96.006331 -118.239685 
L 89.007875 -120.456417 
L 82.009418 -124.834144 
z
" style="stroke: #92aab1; stroke-opacity: 0.15; stroke-width: 2.5"/>
    </defs>
    <g clip-path="url(#p27cdc008c6)">
     <use xlink:href="#m9f4c250f3c" x="0" y="334.08" style="fill: #92aab1; fill-opacity: 0.15; stroke: #92aab1; stroke-opacity: 0.15; stroke-width: 2.5"/>
    </g>
   </g>
   <g id="PolyCollection_7">
    <defs>
     <path id="me0b3399ec2" d="M 82.009418 -123.452916 
L 82.009418 -107.575758 
L 89.007875 -102.898789 
L 96.006331 -94.772848 
L 103.004787 -91.727487 
L 110.003244 -91.558675 
L 117.0017 -90.834008 
L 124.000157 -90.266287 
L 130.998613 -95.482684 
L 137.997069 -94.692635 
L 144.995526 -84.73644 
L 151.993982 -89.05719 
L 158.992439 -89.850693 
L 165.990895 -90.429448 
L 172.989351 -90.656382 
L 179.987808 -91.489152 
L 186.986264 -90.408574 
L 193.984721 -94.093917 
L 200.983177 -97.320344 
L 207.981633 -94.625992 
L 214.98009 -93.846017 
L 221.978546 -94.118838 
L 228.977003 -91.252036 
L 235.975459 -94.061156 
L 242.973915 -93.903583 
L 249.972372 -93.593765 
L 256.970828 -96.703797 
L 263.969285 -94.164621 
L 270.967741 -94.931337 
L 277.966197 -92.924951 
L 284.964654 -96.189673 
L 291.96311 -94.311299 
L 298.961567 -100.868004 
L 305.960023 -96.037662 
L 312.958479 -96.896274 
L 319.956936 -99.64332 
L 326.955392 -96.947622 
L 333.953849 -97.996513 
L 340.952305 -99.773734 
L 347.950761 -97.572254 
L 354.949218 -97.063792 
L 361.947674 -100.710082 
L 368.946131 -102.171271 
L 375.944587 -102.344907 
L 382.943043 -102.981985 
L 389.9415 -99.774267 
L 396.939956 -100.291533 
L 403.938413 -100.83319 
L 410.936869 -100.297204 
L 417.935325 -101.247103 
L 424.933782 -100.085219 
L 424.933782 -101.201414 
L 424.933782 -101.201414 
L 417.935325 -101.577074 
L 410.936869 -101.490608 
L 403.938413 -101.616389 
L 396.939956 -102.048345 
L 389.9415 -102.590727 
L 382.943043 -105.440437 
L 375.944587 -104.001298 
L 368.946131 -103.664627 
L 361.947674 -103.07548 
L 354.949218 -103.897113 
L 347.950761 -103.56034 
L 340.952305 -104.775552 
L 333.953849 -103.327617 
L 326.955392 -103.128939 
L 319.956936 -103.511552 
L 312.958479 -104.468097 
L 305.960023 -103.969561 
L 298.961567 -105.297953 
L 291.96311 -104.499666 
L 284.964654 -105.336615 
L 277.966197 -104.702193 
L 270.967741 -105.094632 
L 263.969285 -106.056004 
L 256.970828 -105.979915 
L 249.972372 -107.791281 
L 242.973915 -106.774506 
L 235.975459 -106.066661 
L 228.977003 -107.810902 
L 221.978546 -108.753938 
L 214.98009 -108.311941 
L 207.981633 -109.384166 
L 200.983177 -111.05788 
L 193.984721 -111.303827 
L 186.986264 -111.995569 
L 179.987808 -112.193843 
L 172.989351 -112.289644 
L 165.990895 -111.667451 
L 158.992439 -112.178455 
L 151.993982 -111.692748 
L 144.995526 -111.687799 
L 137.997069 -112.690818 
L 130.998613 -113.414388 
L 124.000157 -113.981667 
L 117.0017 -116.427886 
L 110.003244 -118.002362 
L 103.004787 -116.129162 
L 96.006331 -117.815627 
L 89.007875 -120.104273 
L 82.009418 -123.452916 
z
" style="stroke: #b2cece; stroke-opacity: 0.15; stroke-width: 2.5"/>
    </defs>
    <g clip-path="url(#p27cdc008c6)">
     <use xlink:href="#me0b3399ec2" x="0" y="334.08" style="fill: #b2cece; fill-opacity: 0.15; stroke: #b2cece; stroke-opacity: 0.15; stroke-width: 2.5"/>
    </g>
   </g>
   <g id="PolyCollection_8">
    <defs>
     <path id="m808479869e" d="M 82.009418 -127.820483 
L 82.009418 -109.102697 
L 89.007875 -95.32125 
L 96.006331 -90.630922 
L 103.004787 -86.010691 
L 110.003244 -81.443636 
L 117.0017 -82.663285 
L 124.000157 -78.563045 
L 130.998613 -77.161602 
L 137.997069 -73.046415 
L 144.995526 -72.49122 
L 151.993982 -69.400598 
L 158.992439 -67.795736 
L 165.990895 -69.610681 
L 172.989351 -68.351126 
L 179.987808 -65.860977 
L 186.986264 -67.525612 
L 193.984721 -67.914887 
L 200.983177 -69.333203 
L 207.981633 -70.880244 
L 214.98009 -70.457968 
L 221.978546 -70.144222 
L 228.977003 -69.022353 
L 235.975459 -72.803035 
L 242.973915 -71.077922 
L 249.972372 -70.550373 
L 256.970828 -70.552278 
L 263.969285 -70.253362 
L 270.967741 -74.590786 
L 277.966197 -74.924923 
L 284.964654 -72.627653 
L 291.96311 -75.171528 
L 298.961567 -77.541201 
L 305.960023 -75.008275 
L 312.958479 -73.684594 
L 319.956936 -72.204864 
L 326.955392 -74.749716 
L 333.953849 -72.303554 
L 340.952305 -71.372251 
L 347.950761 -75.184109 
L 354.949218 -74.02239 
L 361.947674 -74.614103 
L 368.946131 -72.373442 
L 375.944587 -74.633728 
L 382.943043 -75.984172 
L 389.9415 -70.840056 
L 396.939956 -75.621211 
L 403.938413 -72.534433 
L 410.936869 -72.052206 
L 417.935325 -74.134647 
L 424.933782 -74.428028 
L 424.933782 -110.162326 
L 424.933782 -110.162326 
L 417.935325 -108.535738 
L 410.936869 -107.181766 
L 403.938413 -107.993735 
L 396.939956 -109.218055 
L 389.9415 -109.958263 
L 382.943043 -109.103781 
L 375.944587 -108.252108 
L 368.946131 -108.973153 
L 361.947674 -109.810907 
L 354.949218 -109.586529 
L 347.950761 -110.092628 
L 340.952305 -110.593144 
L 333.953849 -110.436696 
L 326.955392 -108.452334 
L 319.956936 -110.394018 
L 312.958479 -109.676365 
L 305.960023 -110.65541 
L 298.961567 -110.61317 
L 291.96311 -108.391517 
L 284.964654 -109.450524 
L 277.966197 -110.687793 
L 270.967741 -110.160003 
L 263.969285 -109.298885 
L 256.970828 -110.343192 
L 249.972372 -111.24083 
L 242.973915 -110.842456 
L 235.975459 -112.79482 
L 228.977003 -111.859052 
L 221.978546 -112.86375 
L 214.98009 -110.323693 
L 207.981633 -111.42819 
L 200.983177 -114.389787 
L 193.984721 -114.504631 
L 186.986264 -113.047256 
L 179.987808 -115.717404 
L 172.989351 -115.818627 
L 165.990895 -115.848247 
L 158.992439 -116.545073 
L 151.993982 -118.226141 
L 144.995526 -117.430676 
L 137.997069 -117.29792 
L 130.998613 -118.998781 
L 124.000157 -117.724988 
L 117.0017 -119.93311 
L 110.003244 -120.908686 
L 103.004787 -122.340452 
L 96.006331 -124.343366 
L 89.007875 -125.068763 
L 82.009418 -127.820483 
z
" style="stroke: #dde9e9; stroke-opacity: 0.15; stroke-width: 2.5"/>
    </defs>
    <g clip-path="url(#p27cdc008c6)">
     <use xlink:href="#m808479869e" x="0" y="334.08" style="fill: #dde9e9; fill-opacity: 0.15; stroke: #dde9e9; stroke-opacity: 0.15; stroke-width: 2.5"/>
    </g>
   </g>
   <g id="matplotlib.axis_1">
    <g id="xtick_1">
     <g id="line2d_1">
      <defs>
       <path id="m1a979873a0" d="M 0 0 
L 0 8 
" style="stroke: #000000; stroke-width: 2"/>
      </defs>
      <g>
       <use xlink:href="#m1a979873a0" x="82.009418" y="279.7738" style="stroke: #000000; stroke-width: 2"/>
      </g>
     </g>
     <g id="text_1">
      <!-- 0 -->
      <g transform="translate(77.204768 303.6425)scale(0.1728 -0.1728)">
       <defs>
        <path id="ArialMT-30" d="M 266 2259 
Q 266 3072 433 3567 
Q 600 4063 929 4331 
Q 1259 4600 1759 4600 
Q 2128 4600 2406 4451 
Q 2684 4303 2865 4023 
Q 3047 3744 3150 3342 
Q 3253 2941 3253 2259 
Q 3253 1453 3087 958 
Q 2922 463 2592 192 
Q 2263 -78 1759 -78 
Q 1097 -78 719 397 
Q 266 969 266 2259 
z
M 844 2259 
Q 844 1131 1108 757 
Q 1372 384 1759 384 
Q 2147 384 2411 759 
Q 2675 1134 2675 2259 
Q 2675 3391 2411 3762 
Q 2147 4134 1753 4134 
Q 1366 4134 1134 3806 
Q 844 3388 844 2259 
z
" transform="scale(0.015625)"/>
       </defs>
       <use xlink:href="#ArialMT-30"/>
      </g>
     </g>
    </g>
    <g id="xtick_2">
     <g id="line2d_2">
      <g>
       <use xlink:href="#m1a979873a0" x="151.993982" y="279.7738" style="stroke: #000000; stroke-width: 2"/>
      </g>
     </g>
     <g id="text_2">
      <!-- 10 -->
      <g transform="translate(142.384682 303.6425)scale(0.1728 -0.1728)">
       <defs>
        <path id="ArialMT-31" d="M 2384 0 
L 1822 0 
L 1822 3584 
Q 1619 3391 1289 3197 
Q 959 3003 697 2906 
L 697 3450 
Q 1169 3672 1522 3987 
Q 1875 4303 2022 4600 
L 2384 4600 
L 2384 0 
z
" transform="scale(0.015625)"/>
       </defs>
       <use xlink:href="#ArialMT-31"/>
       <use xlink:href="#ArialMT-30" x="55.615234"/>
      </g>
     </g>
    </g>
    <g id="xtick_3">
     <g id="line2d_3">
      <g>
       <use xlink:href="#m1a979873a0" x="221.978546" y="279.7738" style="stroke: #000000; stroke-width: 2"/>
      </g>
     </g>
     <g id="text_3">
      <!-- 20 -->
      <g transform="translate(212.369246 303.6425)scale(0.1728 -0.1728)">
       <defs>
        <path id="ArialMT-32" d="M 3222 541 
L 3222 0 
L 194 0 
Q 188 203 259 391 
Q 375 700 629 1000 
Q 884 1300 1366 1694 
Q 2113 2306 2375 2664 
Q 2638 3022 2638 3341 
Q 2638 3675 2398 3904 
Q 2159 4134 1775 4134 
Q 1369 4134 1125 3890 
Q 881 3647 878 3216 
L 300 3275 
Q 359 3922 746 4261 
Q 1134 4600 1788 4600 
Q 2447 4600 2831 4234 
Q 3216 3869 3216 3328 
Q 3216 3053 3103 2787 
Q 2991 2522 2730 2228 
Q 2469 1934 1863 1422 
Q 1356 997 1212 845 
Q 1069 694 975 541 
L 3222 541 
z
" transform="scale(0.015625)"/>
       </defs>
       <use xlink:href="#ArialMT-32"/>
       <use xlink:href="#ArialMT-30" x="55.615234"/>
      </g>
     </g>
    </g>
    <g id="xtick_4">
     <g id="line2d_4">
      <g>
       <use xlink:href="#m1a979873a0" x="291.96311" y="279.7738" style="stroke: #000000; stroke-width: 2"/>
      </g>
     </g>
     <g id="text_4">
      <!-- 30 -->
      <g transform="translate(282.35381 303.6425)scale(0.1728 -0.1728)">
       <defs>
        <path id="ArialMT-33" d="M 269 1209 
L 831 1284 
Q 928 806 1161 595 
Q 1394 384 1728 384 
Q 2125 384 2398 659 
Q 2672 934 2672 1341 
Q 2672 1728 2419 1979 
Q 2166 2231 1775 2231 
Q 1616 2231 1378 2169 
L 1441 2663 
Q 1497 2656 1531 2656 
Q 1891 2656 2178 2843 
Q 2466 3031 2466 3422 
Q 2466 3731 2256 3934 
Q 2047 4138 1716 4138 
Q 1388 4138 1169 3931 
Q 950 3725 888 3313 
L 325 3413 
Q 428 3978 793 4289 
Q 1159 4600 1703 4600 
Q 2078 4600 2393 4439 
Q 2709 4278 2876 4000 
Q 3044 3722 3044 3409 
Q 3044 3113 2884 2869 
Q 2725 2625 2413 2481 
Q 2819 2388 3044 2092 
Q 3269 1797 3269 1353 
Q 3269 753 2831 336 
Q 2394 -81 1725 -81 
Q 1122 -81 723 278 
Q 325 638 269 1209 
z
" transform="scale(0.015625)"/>
       </defs>
       <use xlink:href="#ArialMT-33"/>
       <use xlink:href="#ArialMT-30" x="55.615234"/>
      </g>
     </g>
    </g>
    <g id="xtick_5">
     <g id="line2d_5">
      <g>
       <use xlink:href="#m1a979873a0" x="361.947674" y="279.7738" style="stroke: #000000; stroke-width: 2"/>
      </g>
     </g>
     <g id="text_5">
      <!-- 40 -->
      <g transform="translate(352.338374 303.6425)scale(0.1728 -0.1728)">
       <defs>
        <path id="ArialMT-34" d="M 2069 0 
L 2069 1097 
L 81 1097 
L 81 1613 
L 2172 4581 
L 2631 4581 
L 2631 1613 
L 3250 1613 
L 3250 1097 
L 2631 1097 
L 2631 0 
L 2069 0 
z
M 2069 1613 
L 2069 3678 
L 634 1613 
L 2069 1613 
z
" transform="scale(0.015625)"/>
       </defs>
       <use xlink:href="#ArialMT-34"/>
       <use xlink:href="#ArialMT-30" x="55.615234"/>
      </g>
     </g>
    </g>
    <g id="xtick_6">
     <g id="line2d_6">
      <g>
       <use xlink:href="#m1a979873a0" x="431.932238" y="279.7738" style="stroke: #000000; stroke-width: 2"/>
      </g>
     </g>
     <g id="text_6">
      <!-- 50 -->
      <g transform="translate(422.322938 303.6425)scale(0.1728 -0.1728)">
       <defs>
        <path id="ArialMT-35" d="M 266 1200 
L 856 1250 
Q 922 819 1161 601 
Q 1400 384 1738 384 
Q 2144 384 2425 690 
Q 2706 997 2706 1503 
Q 2706 1984 2436 2262 
Q 2166 2541 1728 2541 
Q 1456 2541 1237 2417 
Q 1019 2294 894 2097 
L 366 2166 
L 809 4519 
L 3088 4519 
L 3088 3981 
L 1259 3981 
L 1013 2750 
Q 1425 3038 1878 3038 
Q 2478 3038 2890 2622 
Q 3303 2206 3303 1553 
Q 3303 931 2941 478 
Q 2500 -78 1738 -78 
Q 1113 -78 717 272 
Q 322 622 266 1200 
z
" transform="scale(0.015625)"/>
       </defs>
       <use xlink:href="#ArialMT-35"/>
       <use xlink:href="#ArialMT-30" x="55.615234"/>
      </g>
     </g>
    </g>
    <g id="text_7">
     <!-- Epoch -->
     <g transform="translate(228.9745 323.4456)scale(0.1728 -0.1728)">
      <defs>
       <path id="ArialMT-45" d="M 506 0 
L 506 4581 
L 3819 4581 
L 3819 4041 
L 1113 4041 
L 1113 2638 
L 3647 2638 
L 3647 2100 
L 1113 2100 
L 1113 541 
L 3925 541 
L 3925 0 
L 506 0 
z
" transform="scale(0.015625)"/>
       <path id="ArialMT-70" d="M 422 -1272 
L 422 3319 
L 934 3319 
L 934 2888 
Q 1116 3141 1344 3267 
Q 1572 3394 1897 3394 
Q 2322 3394 2647 3175 
Q 2972 2956 3137 2557 
Q 3303 2159 3303 1684 
Q 3303 1175 3120 767 
Q 2938 359 2589 142 
Q 2241 -75 1856 -75 
Q 1575 -75 1351 44 
Q 1128 163 984 344 
L 984 -1272 
L 422 -1272 
z
M 931 1641 
Q 931 1000 1190 694 
Q 1450 388 1819 388 
Q 2194 388 2461 705 
Q 2728 1022 2728 1688 
Q 2728 2322 2467 2637 
Q 2206 2953 1844 2953 
Q 1484 2953 1207 2617 
Q 931 2281 931 1641 
z
" transform="scale(0.015625)"/>
       <path id="ArialMT-6f" d="M 213 1659 
Q 213 2581 725 3025 
Q 1153 3394 1769 3394 
Q 2453 3394 2887 2945 
Q 3322 2497 3322 1706 
Q 3322 1066 3130 698 
Q 2938 331 2570 128 
Q 2203 -75 1769 -75 
Q 1072 -75 642 372 
Q 213 819 213 1659 
z
M 791 1659 
Q 791 1022 1069 705 
Q 1347 388 1769 388 
Q 2188 388 2466 706 
Q 2744 1025 2744 1678 
Q 2744 2294 2464 2611 
Q 2184 2928 1769 2928 
Q 1347 2928 1069 2612 
Q 791 2297 791 1659 
z
" transform="scale(0.015625)"/>
       <path id="ArialMT-63" d="M 2588 1216 
L 3141 1144 
Q 3050 572 2676 248 
Q 2303 -75 1759 -75 
Q 1078 -75 664 370 
Q 250 816 250 1647 
Q 250 2184 428 2587 
Q 606 2991 970 3192 
Q 1334 3394 1763 3394 
Q 2303 3394 2647 3120 
Q 2991 2847 3088 2344 
L 2541 2259 
Q 2463 2594 2264 2762 
Q 2066 2931 1784 2931 
Q 1359 2931 1093 2626 
Q 828 2322 828 1663 
Q 828 994 1084 691 
Q 1341 388 1753 388 
Q 2084 388 2306 591 
Q 2528 794 2588 1216 
z
" transform="scale(0.015625)"/>
       <path id="ArialMT-68" d="M 422 0 
L 422 4581 
L 984 4581 
L 984 2938 
Q 1378 3394 1978 3394 
Q 2347 3394 2619 3248 
Q 2891 3103 3008 2847 
Q 3125 2591 3125 2103 
L 3125 0 
L 2563 0 
L 2563 2103 
Q 2563 2525 2380 2717 
Q 2197 2909 1863 2909 
Q 1613 2909 1392 2779 
Q 1172 2650 1078 2428 
Q 984 2206 984 1816 
L 984 0 
L 422 0 
z
" transform="scale(0.015625)"/>
      </defs>
      <use xlink:href="#ArialMT-45"/>
      <use xlink:href="#ArialMT-70" x="66.699219"/>
      <use xlink:href="#ArialMT-6f" x="122.314453"/>
      <use xlink:href="#ArialMT-63" x="177.929688"/>
      <use xlink:href="#ArialMT-68" x="227.929688"/>
     </g>
    </g>
   </g>
   <g id="matplotlib.axis_2">
    <g id="ytick_1">
     <g id="line2d_7">
      <defs>
       <path id="m9ea9673980" d="M 0 0 
L -8 0 
" style="stroke: #000000; stroke-width: 2"/>
      </defs>
      <g>
       <use xlink:href="#m9ea9673980" x="64.8632" y="275.96857" style="stroke: #000000; stroke-width: 2"/>
      </g>
     </g>
     <g id="text_8">
      <!-- 0.0 -->
      <g transform="translate(29.344 282.15292)scale(0.1728 -0.1728)">
       <defs>
        <path id="ArialMT-2e" d="M 581 0 
L 581 641 
L 1222 641 
L 1222 0 
L 581 0 
z
" transform="scale(0.015625)"/>
       </defs>
       <use xlink:href="#ArialMT-30"/>
       <use xlink:href="#ArialMT-2e" x="55.615234"/>
       <use xlink:href="#ArialMT-30" x="83.398438"/>
      </g>
     </g>
    </g>
    <g id="ytick_2">
     <g id="line2d_8">
      <g>
       <use xlink:href="#m9ea9673980" x="64.8632" y="228.198149" style="stroke: #000000; stroke-width: 2"/>
      </g>
     </g>
     <g id="text_9">
      <!-- 0.2 -->
      <g transform="translate(29.344 234.382499)scale(0.1728 -0.1728)">
       <use xlink:href="#ArialMT-30"/>
       <use xlink:href="#ArialMT-2e" x="55.615234"/>
       <use xlink:href="#ArialMT-32" x="83.398438"/>
      </g>
     </g>
    </g>
    <g id="ytick_3">
     <g id="line2d_9">
      <g>
       <use xlink:href="#m9ea9673980" x="64.8632" y="180.427729" style="stroke: #000000; stroke-width: 2"/>
      </g>
     </g>
     <g id="text_10">
      <!-- 0.4 -->
      <g transform="translate(29.344 186.612079)scale(0.1728 -0.1728)">
       <use xlink:href="#ArialMT-30"/>
       <use xlink:href="#ArialMT-2e" x="55.615234"/>
       <use xlink:href="#ArialMT-34" x="83.398438"/>
      </g>
     </g>
    </g>
    <g id="ytick_4">
     <g id="line2d_10">
      <g>
       <use xlink:href="#m9ea9673980" x="64.8632" y="132.657308" style="stroke: #000000; stroke-width: 2"/>
      </g>
     </g>
     <g id="text_11">
      <!-- 0.6 -->
      <g transform="translate(29.344 138.841658)scale(0.1728 -0.1728)">
       <defs>
        <path id="ArialMT-36" d="M 3184 3459 
L 2625 3416 
Q 2550 3747 2413 3897 
Q 2184 4138 1850 4138 
Q 1581 4138 1378 3988 
Q 1113 3794 959 3422 
Q 806 3050 800 2363 
Q 1003 2672 1297 2822 
Q 1591 2972 1913 2972 
Q 2475 2972 2870 2558 
Q 3266 2144 3266 1488 
Q 3266 1056 3080 686 
Q 2894 316 2569 119 
Q 2244 -78 1831 -78 
Q 1128 -78 684 439 
Q 241 956 241 2144 
Q 241 3472 731 4075 
Q 1159 4600 1884 4600 
Q 2425 4600 2770 4297 
Q 3116 3994 3184 3459 
z
M 888 1484 
Q 888 1194 1011 928 
Q 1134 663 1356 523 
Q 1578 384 1822 384 
Q 2178 384 2434 671 
Q 2691 959 2691 1453 
Q 2691 1928 2437 2201 
Q 2184 2475 1800 2475 
Q 1419 2475 1153 2201 
Q 888 1928 888 1484 
z
" transform="scale(0.015625)"/>
       </defs>
       <use xlink:href="#ArialMT-30"/>
       <use xlink:href="#ArialMT-2e" x="55.615234"/>
       <use xlink:href="#ArialMT-36" x="83.398438"/>
      </g>
     </g>
    </g>
    <g id="ytick_5">
     <g id="line2d_11">
      <g>
       <use xlink:href="#m9ea9673980" x="64.8632" y="84.886888" style="stroke: #000000; stroke-width: 2"/>
      </g>
     </g>
     <g id="text_12">
      <!-- 0.8 -->
      <g transform="translate(29.344 91.071238)scale(0.1728 -0.1728)">
       <defs>
        <path id="ArialMT-38" d="M 1131 2484 
Q 781 2613 612 2850 
Q 444 3088 444 3419 
Q 444 3919 803 4259 
Q 1163 4600 1759 4600 
Q 2359 4600 2725 4251 
Q 3091 3903 3091 3403 
Q 3091 3084 2923 2848 
Q 2756 2613 2416 2484 
Q 2838 2347 3058 2040 
Q 3278 1734 3278 1309 
Q 3278 722 2862 322 
Q 2447 -78 1769 -78 
Q 1091 -78 675 323 
Q 259 725 259 1325 
Q 259 1772 486 2073 
Q 713 2375 1131 2484 
z
M 1019 3438 
Q 1019 3113 1228 2906 
Q 1438 2700 1772 2700 
Q 2097 2700 2305 2904 
Q 2513 3109 2513 3406 
Q 2513 3716 2298 3927 
Q 2084 4138 1766 4138 
Q 1444 4138 1231 3931 
Q 1019 3725 1019 3438 
z
M 838 1322 
Q 838 1081 952 856 
Q 1066 631 1291 507 
Q 1516 384 1775 384 
Q 2178 384 2440 643 
Q 2703 903 2703 1303 
Q 2703 1709 2433 1975 
Q 2163 2241 1756 2241 
Q 1359 2241 1098 1978 
Q 838 1716 838 1322 
z
" transform="scale(0.015625)"/>
       </defs>
       <use xlink:href="#ArialMT-30"/>
       <use xlink:href="#ArialMT-2e" x="55.615234"/>
       <use xlink:href="#ArialMT-38" x="83.398438"/>
      </g>
     </g>
    </g>
    <g id="ytick_6">
     <g id="line2d_12">
      <g>
       <use xlink:href="#m9ea9673980" x="64.8632" y="37.116467" style="stroke: #000000; stroke-width: 2"/>
      </g>
     </g>
     <g id="text_13">
      <!-- 1.0 -->
      <g transform="translate(29.344 43.300817)scale(0.1728 -0.1728)">
       <use xlink:href="#ArialMT-31"/>
       <use xlink:href="#ArialMT-2e" x="55.615234"/>
       <use xlink:href="#ArialMT-30" x="83.398438"/>
      </g>
     </g>
    </g>
    <g id="text_14">
     <!-- Cosine Similarity \wrt LN$^+$ -->
     <g transform="translate(21.5424 254.53685)rotate(-90)scale(0.1728 -0.1728)">
      <defs>
       <path id="ArialMT-43" d="M 3763 1606 
L 4369 1453 
Q 4178 706 3683 314 
Q 3188 -78 2472 -78 
Q 1731 -78 1267 223 
Q 803 525 561 1097 
Q 319 1669 319 2325 
Q 319 3041 592 3573 
Q 866 4106 1370 4382 
Q 1875 4659 2481 4659 
Q 3169 4659 3637 4309 
Q 4106 3959 4291 3325 
L 3694 3184 
Q 3534 3684 3231 3912 
Q 2928 4141 2469 4141 
Q 1941 4141 1586 3887 
Q 1231 3634 1087 3207 
Q 944 2781 944 2328 
Q 944 1744 1114 1308 
Q 1284 872 1643 656 
Q 2003 441 2422 441 
Q 2931 441 3284 734 
Q 3638 1028 3763 1606 
z
" transform="scale(0.015625)"/>
       <path id="ArialMT-73" d="M 197 991 
L 753 1078 
Q 800 744 1014 566 
Q 1228 388 1613 388 
Q 2000 388 2187 545 
Q 2375 703 2375 916 
Q 2375 1106 2209 1216 
Q 2094 1291 1634 1406 
Q 1016 1563 777 1677 
Q 538 1791 414 1992 
Q 291 2194 291 2438 
Q 291 2659 392 2848 
Q 494 3038 669 3163 
Q 800 3259 1026 3326 
Q 1253 3394 1513 3394 
Q 1903 3394 2198 3281 
Q 2494 3169 2634 2976 
Q 2775 2784 2828 2463 
L 2278 2388 
Q 2241 2644 2061 2787 
Q 1881 2931 1553 2931 
Q 1166 2931 1000 2803 
Q 834 2675 834 2503 
Q 834 2394 903 2306 
Q 972 2216 1119 2156 
Q 1203 2125 1616 2013 
Q 2213 1853 2448 1751 
Q 2684 1650 2818 1456 
Q 2953 1263 2953 975 
Q 2953 694 2789 445 
Q 2625 197 2315 61 
Q 2006 -75 1616 -75 
Q 969 -75 630 194 
Q 291 463 197 991 
z
" transform="scale(0.015625)"/>
       <path id="ArialMT-69" d="M 425 3934 
L 425 4581 
L 988 4581 
L 988 3934 
L 425 3934 
z
M 425 0 
L 425 3319 
L 988 3319 
L 988 0 
L 425 0 
z
" transform="scale(0.015625)"/>
       <path id="ArialMT-6e" d="M 422 0 
L 422 3319 
L 928 3319 
L 928 2847 
Q 1294 3394 1984 3394 
Q 2284 3394 2536 3286 
Q 2788 3178 2913 3003 
Q 3038 2828 3088 2588 
Q 3119 2431 3119 2041 
L 3119 0 
L 2556 0 
L 2556 2019 
Q 2556 2363 2490 2533 
Q 2425 2703 2258 2804 
Q 2091 2906 1866 2906 
Q 1506 2906 1245 2678 
Q 984 2450 984 1813 
L 984 0 
L 422 0 
z
" transform="scale(0.015625)"/>
       <path id="ArialMT-65" d="M 2694 1069 
L 3275 997 
Q 3138 488 2766 206 
Q 2394 -75 1816 -75 
Q 1088 -75 661 373 
Q 234 822 234 1631 
Q 234 2469 665 2931 
Q 1097 3394 1784 3394 
Q 2450 3394 2872 2941 
Q 3294 2488 3294 1666 
Q 3294 1616 3291 1516 
L 816 1516 
Q 847 969 1125 678 
Q 1403 388 1819 388 
Q 2128 388 2347 550 
Q 2566 713 2694 1069 
z
M 847 1978 
L 2700 1978 
Q 2663 2397 2488 2606 
Q 2219 2931 1791 2931 
Q 1403 2931 1139 2672 
Q 875 2413 847 1978 
z
" transform="scale(0.015625)"/>
       <path id="ArialMT-20" transform="scale(0.015625)"/>
       <path id="ArialMT-53" d="M 288 1472 
L 859 1522 
Q 900 1178 1048 958 
Q 1197 738 1509 602 
Q 1822 466 2213 466 
Q 2559 466 2825 569 
Q 3091 672 3220 851 
Q 3350 1031 3350 1244 
Q 3350 1459 3225 1620 
Q 3100 1781 2813 1891 
Q 2628 1963 1997 2114 
Q 1366 2266 1113 2400 
Q 784 2572 623 2826 
Q 463 3081 463 3397 
Q 463 3744 659 4045 
Q 856 4347 1234 4503 
Q 1613 4659 2075 4659 
Q 2584 4659 2973 4495 
Q 3363 4331 3572 4012 
Q 3781 3694 3797 3291 
L 3216 3247 
Q 3169 3681 2898 3903 
Q 2628 4125 2100 4125 
Q 1550 4125 1298 3923 
Q 1047 3722 1047 3438 
Q 1047 3191 1225 3031 
Q 1400 2872 2139 2705 
Q 2878 2538 3153 2413 
Q 3553 2228 3743 1945 
Q 3934 1663 3934 1294 
Q 3934 928 3725 604 
Q 3516 281 3123 101 
Q 2731 -78 2241 -78 
Q 1619 -78 1198 103 
Q 778 284 539 648 
Q 300 1013 288 1472 
z
" transform="scale(0.015625)"/>
       <path id="ArialMT-6d" d="M 422 0 
L 422 3319 
L 925 3319 
L 925 2853 
Q 1081 3097 1340 3245 
Q 1600 3394 1931 3394 
Q 2300 3394 2536 3241 
Q 2772 3088 2869 2813 
Q 3263 3394 3894 3394 
Q 4388 3394 4653 3120 
Q 4919 2847 4919 2278 
L 4919 0 
L 4359 0 
L 4359 2091 
Q 4359 2428 4304 2576 
Q 4250 2725 4106 2815 
Q 3963 2906 3769 2906 
Q 3419 2906 3187 2673 
Q 2956 2441 2956 1928 
L 2956 0 
L 2394 0 
L 2394 2156 
Q 2394 2531 2256 2718 
Q 2119 2906 1806 2906 
Q 1569 2906 1367 2781 
Q 1166 2656 1075 2415 
Q 984 2175 984 1722 
L 984 0 
L 422 0 
z
" transform="scale(0.015625)"/>
       <path id="ArialMT-6c" d="M 409 0 
L 409 4581 
L 972 4581 
L 972 0 
L 409 0 
z
" transform="scale(0.015625)"/>
       <path id="ArialMT-61" d="M 2588 409 
Q 2275 144 1986 34 
Q 1697 -75 1366 -75 
Q 819 -75 525 192 
Q 231 459 231 875 
Q 231 1119 342 1320 
Q 453 1522 633 1644 
Q 813 1766 1038 1828 
Q 1203 1872 1538 1913 
Q 2219 1994 2541 2106 
Q 2544 2222 2544 2253 
Q 2544 2597 2384 2738 
Q 2169 2928 1744 2928 
Q 1347 2928 1158 2789 
Q 969 2650 878 2297 
L 328 2372 
Q 403 2725 575 2942 
Q 747 3159 1072 3276 
Q 1397 3394 1825 3394 
Q 2250 3394 2515 3294 
Q 2781 3194 2906 3042 
Q 3031 2891 3081 2659 
Q 3109 2516 3109 2141 
L 3109 1391 
Q 3109 606 3145 398 
Q 3181 191 3288 0 
L 2700 0 
Q 2613 175 2588 409 
z
M 2541 1666 
Q 2234 1541 1622 1453 
Q 1275 1403 1131 1340 
Q 988 1278 909 1158 
Q 831 1038 831 891 
Q 831 666 1001 516 
Q 1172 366 1500 366 
Q 1825 366 2078 508 
Q 2331 650 2450 897 
Q 2541 1088 2541 1459 
L 2541 1666 
z
" transform="scale(0.015625)"/>
       <path id="ArialMT-72" d="M 416 0 
L 416 3319 
L 922 3319 
L 922 2816 
Q 1116 3169 1280 3281 
Q 1444 3394 1641 3394 
Q 1925 3394 2219 3213 
L 2025 2691 
Q 1819 2813 1613 2813 
Q 1428 2813 1281 2702 
Q 1134 2591 1072 2394 
Q 978 2094 978 1738 
L 978 0 
L 416 0 
z
" transform="scale(0.015625)"/>
       <path id="ArialMT-74" d="M 1650 503 
L 1731 6 
Q 1494 -44 1306 -44 
Q 1000 -44 831 53 
Q 663 150 594 308 
Q 525 466 525 972 
L 525 2881 
L 113 2881 
L 113 3319 
L 525 3319 
L 525 4141 
L 1084 4478 
L 1084 3319 
L 1650 3319 
L 1650 2881 
L 1084 2881 
L 1084 941 
Q 1084 700 1114 631 
Q 1144 563 1211 522 
Q 1278 481 1403 481 
Q 1497 481 1650 503 
z
" transform="scale(0.015625)"/>
       <path id="ArialMT-79" d="M 397 -1278 
L 334 -750 
Q 519 -800 656 -800 
Q 844 -800 956 -737 
Q 1069 -675 1141 -563 
Q 1194 -478 1313 -144 
Q 1328 -97 1363 -6 
L 103 3319 
L 709 3319 
L 1400 1397 
Q 1534 1031 1641 628 
Q 1738 1016 1872 1384 
L 2581 3319 
L 3144 3319 
L 1881 -56 
Q 1678 -603 1566 -809 
Q 1416 -1088 1222 -1217 
Q 1028 -1347 759 -1347 
Q 597 -1347 397 -1278 
z
" transform="scale(0.015625)"/>
       <path id="ArialMT-5c" d="M 1328 -78 
L 0 4659 
L 453 4659 
L 1778 -78 
L 1328 -78 
z
" transform="scale(0.015625)"/>
       <path id="ArialMT-77" d="M 1034 0 
L 19 3319 
L 600 3319 
L 1128 1403 
L 1325 691 
Q 1338 744 1497 1375 
L 2025 3319 
L 2603 3319 
L 3100 1394 
L 3266 759 
L 3456 1400 
L 4025 3319 
L 4572 3319 
L 3534 0 
L 2950 0 
L 2422 1988 
L 2294 2553 
L 1622 0 
L 1034 0 
z
" transform="scale(0.015625)"/>
       <path id="ArialMT-4c" d="M 469 0 
L 469 4581 
L 1075 4581 
L 1075 541 
L 3331 541 
L 3331 0 
L 469 0 
z
" transform="scale(0.015625)"/>
       <path id="ArialMT-4e" d="M 488 0 
L 488 4581 
L 1109 4581 
L 3516 984 
L 3516 4581 
L 4097 4581 
L 4097 0 
L 3475 0 
L 1069 3600 
L 1069 0 
L 488 0 
z
" transform="scale(0.015625)"/>
       <path id="DejaVuSans-2b" d="M 2944 4013 
L 2944 2272 
L 4684 2272 
L 4684 1741 
L 2944 1741 
L 2944 0 
L 2419 0 
L 2419 1741 
L 678 1741 
L 678 2272 
L 2419 2272 
L 2419 4013 
L 2944 4013 
z
" transform="scale(0.015625)"/>
      </defs>
      <use xlink:href="#ArialMT-43" transform="translate(0 0.826562)"/>
      <use xlink:href="#ArialMT-6f" transform="translate(72.216797 0.826562)"/>
      <use xlink:href="#ArialMT-73" transform="translate(127.832031 0.826562)"/>
      <use xlink:href="#ArialMT-69" transform="translate(177.832031 0.826562)"/>
      <use xlink:href="#ArialMT-6e" transform="translate(200.048828 0.826562)"/>
      <use xlink:href="#ArialMT-65" transform="translate(255.664062 0.826562)"/>
      <use xlink:href="#ArialMT-20" transform="translate(311.279297 0.826562)"/>
      <use xlink:href="#ArialMT-53" transform="translate(339.0625 0.826562)"/>
      <use xlink:href="#ArialMT-69" transform="translate(405.761719 0.826562)"/>
      <use xlink:href="#ArialMT-6d" transform="translate(427.978516 0.826562)"/>
      <use xlink:href="#ArialMT-69" transform="translate(511.279297 0.826562)"/>
      <use xlink:href="#ArialMT-6c" transform="translate(533.496094 0.826562)"/>
      <use xlink:href="#ArialMT-61" transform="translate(555.712891 0.826562)"/>
      <use xlink:href="#ArialMT-72" transform="translate(611.328125 0.826562)"/>
      <use xlink:href="#ArialMT-69" transform="translate(644.628906 0.826562)"/>
      <use xlink:href="#ArialMT-74" transform="translate(666.845703 0.826562)"/>
      <use xlink:href="#ArialMT-79" transform="translate(694.628906 0.826562)"/>
      <use xlink:href="#ArialMT-20" transform="translate(744.628906 0.826562)"/>
      <use xlink:href="#ArialMT-5c" transform="translate(772.412109 0.826562)"/>
      <use xlink:href="#ArialMT-77" transform="translate(800.195312 0.826562)"/>
      <use xlink:href="#ArialMT-72" transform="translate(872.412109 0.826562)"/>
      <use xlink:href="#ArialMT-74" transform="translate(905.712891 0.826562)"/>
      <use xlink:href="#ArialMT-20" transform="translate(933.496094 0.826562)"/>
      <use xlink:href="#ArialMT-4c" transform="translate(961.279297 0.826562)"/>
      <use xlink:href="#ArialMT-4e" transform="translate(1016.894531 0.826562)"/>
      <use xlink:href="#DejaVuSans-2b" transform="translate(1103.706055 39.107812)scale(0.7)"/>
     </g>
    </g>
   </g>
   <g id="line2d_13">
    <path d="M 82.009418 39.977388 
L 89.007875 40.295685 
L 96.006331 40.718858 
L 103.004787 40.141896 
L 110.003244 40.355516 
L 117.0017 40.739928 
L 124.000157 39.992827 
L 130.998613 39.966528 
L 137.997069 40.010832 
L 144.995526 40.424013 
L 151.993982 40.351174 
L 158.992439 40.080655 
L 165.990895 40.060424 
L 172.989351 40.029275 
L 179.987808 40.145216 
L 186.986264 39.980133 
L 193.984721 39.885353 
L 200.983177 39.883346 
L 207.981633 40.024583 
L 214.98009 39.730001 
L 221.978546 39.912156 
L 228.977003 40.007804 
L 235.975459 40.016973 
L 242.973915 40.13614 
L 249.972372 40.189421 
L 256.970828 40.471234 
L 263.969285 40.204883 
L 270.967741 40.321529 
L 277.966197 40.521522 
L 284.964654 40.81162 
L 291.96311 40.878662 
L 298.961567 41.091311 
L 305.960023 41.045205 
L 312.958479 41.092991 
L 319.956936 41.478447 
L 326.955392 41.479543 
L 333.953849 41.712415 
L 340.952305 41.657795 
L 347.950761 41.811527 
L 354.949218 41.960311 
L 361.947674 41.983985 
L 368.946131 42.046249 
L 375.944587 42.018658 
L 382.943043 42.248346 
L 389.9415 42.295528 
L 396.939956 42.238359 
L 403.938413 42.491249 
L 410.936869 42.407468 
L 417.935325 42.5125 
L 424.933782 42.516605 
" clip-path="url(#p27cdc008c6)" style="fill: none; stroke: #595c79; stroke-width: 2.5; stroke-linecap: square"/>
   </g>
   <g id="line2d_14">
    <path d="M 82.009418 39.547764 
L 89.007875 40.787004 
L 96.006331 41.757802 
L 103.004787 43.357814 
L 110.003244 42.699315 
L 117.0017 40.978623 
L 124.000157 43.76503 
L 130.998613 42.923657 
L 137.997069 43.448091 
L 144.995526 44.30014 
L 151.993982 43.268261 
L 158.992439 43.555507 
L 165.990895 43.259072 
L 172.989351 42.714678 
L 179.987808 43.146787 
L 186.986264 43.562108 
L 193.984721 43.563378 
L 200.983177 43.357846 
L 207.981633 45.042408 
L 214.98009 44.1867 
L 221.978546 43.869354 
L 228.977003 44.062771 
L 235.975459 44.129627 
L 242.973915 44.559698 
L 249.972372 44.974173 
L 256.970828 44.650646 
L 263.969285 44.590167 
L 270.967741 44.863566 
L 277.966197 45.431603 
L 284.964654 44.280313 
L 291.96311 45.794808 
L 298.961567 45.444468 
L 305.960023 45.616202 
L 312.958479 44.95178 
L 319.956936 45.948829 
L 326.955392 46.285007 
L 333.953849 46.060617 
L 340.952305 46.274487 
L 347.950761 46.110682 
L 354.949218 46.225167 
L 361.947674 46.820828 
L 368.946131 47.613218 
L 375.944587 46.396241 
L 382.943043 47.539763 
L 389.9415 47.733179 
L 396.939956 48.139956 
L 403.938413 47.83531 
L 410.936869 47.65635 
L 417.935325 47.818777 
L 424.933782 48.373548 
" clip-path="url(#p27cdc008c6)" style="fill: none; stroke: #92aab1; stroke-width: 2.5; stroke-linecap: square"/>
   </g>
   <g id="line2d_15">
    <path d="M 82.009418 41.58768 
L 89.007875 42.642545 
L 96.006331 45.372405 
L 103.004787 46.98751 
L 110.003244 49.092027 
L 117.0017 49.07254 
L 124.000157 49.738807 
L 130.998613 47.943814 
L 137.997069 48.491329 
L 144.995526 52.095955 
L 151.993982 52.273513 
L 158.992439 50.505737 
L 165.990895 50.926056 
L 172.989351 50.140716 
L 179.987808 52.940014 
L 186.986264 51.707137 
L 193.984721 53.19051 
L 200.983177 50.542025 
L 207.981633 51.586703 
L 214.98009 51.043502 
L 221.978546 53.121754 
L 228.977003 53.275497 
L 235.975459 54.085582 
L 242.973915 54.665537 
L 249.972372 55.291566 
L 256.970828 54.951604 
L 263.969285 55.154697 
L 270.967741 54.228531 
L 277.966197 55.313472 
L 284.964654 53.448853 
L 291.96311 55.145942 
L 298.961567 54.51214 
L 305.960023 53.934565 
L 312.958479 53.47221 
L 319.956936 52.733875 
L 326.955392 54.343587 
L 333.953849 53.122138 
L 340.952305 55.475614 
L 347.950761 54.450135 
L 354.949218 54.140059 
L 361.947674 55.517176 
L 368.946131 55.103581 
L 375.944587 54.212661 
L 382.943043 55.318332 
L 389.9415 56.637615 
L 396.939956 57.101416 
L 403.938413 56.179545 
L 410.936869 55.494651 
L 417.935325 55.340844 
L 424.933782 56.409946 
" clip-path="url(#p27cdc008c6)" style="fill: none; stroke: #b2cece; stroke-width: 2.5; stroke-linecap: square"/>
   </g>
   <g id="line2d_16">
    <path d="M 82.009418 63.10244 
L 89.007875 73.794602 
L 96.006331 83.686074 
L 103.004787 91.162231 
L 110.003244 88.494395 
L 117.0017 96.800283 
L 124.000157 94.016234 
L 130.998613 102.353315 
L 137.997069 96.032109 
L 144.995526 84.863817 
L 151.993982 92.451601 
L 158.992439 92.203635 
L 165.990895 93.337442 
L 172.989351 98.243948 
L 179.987808 91.268635 
L 186.986264 94.792605 
L 193.984721 99.535383 
L 200.983177 92.646028 
L 207.981633 101.763304 
L 214.98009 96.694461 
L 221.978546 108.006408 
L 228.977003 100.049971 
L 235.975459 95.915748 
L 242.973915 102.682516 
L 249.972372 97.465118 
L 256.970828 102.423076 
L 263.969285 98.365321 
L 270.967741 98.307145 
L 277.966197 106.391372 
L 284.964654 99.769623 
L 291.96311 101.903004 
L 298.961567 106.647485 
L 305.960023 103.704635 
L 312.958479 102.430632 
L 319.956936 98.76804 
L 326.955392 102.205548 
L 333.953849 96.056239 
L 340.952305 95.95151 
L 347.950761 94.034685 
L 354.949218 88.566469 
L 361.947674 102.075162 
L 368.946131 100.465146 
L 375.944587 101.8276 
L 382.943043 105.108124 
L 389.9415 108.648946 
L 396.939956 99.515771 
L 403.938413 103.771207 
L 410.936869 101.897531 
L 417.935325 104.175174 
L 424.933782 100.28907 
" clip-path="url(#p27cdc008c6)" style="fill: none; stroke: #dde9e9; stroke-width: 2.5; stroke-linecap: square"/>
   </g>
   <g id="line2d_17">
    <path d="M 82.009418 214.949786 
L 89.007875 218.690288 
L 96.006331 222.227212 
L 103.004787 224.620468 
L 110.003244 226.683967 
L 117.0017 228.676615 
L 124.000157 228.420651 
L 130.998613 229.619024 
L 137.997069 229.571507 
L 144.995526 230.19416 
L 151.993982 230.808112 
L 158.992439 230.044778 
L 165.990895 230.409788 
L 172.989351 230.230168 
L 179.987808 230.97327 
L 186.986264 230.429996 
L 193.984721 230.009219 
L 200.983177 230.511924 
L 207.981633 229.948067 
L 214.98009 230.208482 
L 221.978546 230.582521 
L 228.977003 230.900544 
L 235.975459 230.687851 
L 242.973915 230.321105 
L 249.972372 230.63861 
L 256.970828 230.815517 
L 263.969285 230.45009 
L 270.967741 229.751739 
L 277.966197 230.000071 
L 284.964654 230.198571 
L 291.96311 230.324626 
L 298.961567 230.452857 
L 305.960023 230.6309 
L 312.958479 230.01265 
L 319.956936 230.267806 
L 326.955392 229.948847 
L 333.953849 230.236712 
L 340.952305 230.407478 
L 347.950761 229.754628 
L 354.949218 229.768263 
L 361.947674 229.965465 
L 368.946131 230.047573 
L 375.944587 229.427238 
L 382.943043 230.09676 
L 389.9415 230.149251 
L 396.939956 229.352027 
L 403.938413 229.743005 
L 410.936869 230.392894 
L 417.935325 230.132253 
L 424.933782 230.204413 
" clip-path="url(#p27cdc008c6)" style="fill: none; stroke-dasharray: 20,10; stroke-dashoffset: 0; stroke: #595c79; stroke-width: 2.5"/>
   </g>
   <g id="line2d_18">
    <path d="M 82.009418 215.479702 
L 89.007875 221.350095 
L 96.006331 225.676367 
L 103.004787 231.955686 
L 110.003244 231.399189 
L 117.0017 227.881035 
L 124.000157 233.680348 
L 130.998613 230.746918 
L 137.997069 232.24293 
L 144.995526 233.987125 
L 151.993982 230.629644 
L 158.992439 235.465876 
L 165.990895 234.13774 
L 172.989351 230.592194 
L 179.987808 232.97806 
L 186.986264 232.745086 
L 193.984721 232.944356 
L 200.983177 232.521987 
L 207.981633 236.269878 
L 214.98009 234.124636 
L 221.978546 232.395869 
L 228.977003 232.772047 
L 235.975459 231.820704 
L 242.973915 234.488296 
L 249.972372 233.202767 
L 256.970828 233.300147 
L 263.969285 232.624226 
L 270.967741 231.844142 
L 277.966197 230.639414 
L 284.964654 232.178306 
L 291.96311 232.774973 
L 298.961567 233.382464 
L 305.960023 234.783374 
L 312.958479 232.482449 
L 319.956936 234.201217 
L 326.955392 232.462114 
L 333.953849 233.085897 
L 340.952305 233.060107 
L 347.950761 232.959062 
L 354.949218 232.834619 
L 361.947674 232.814836 
L 368.946131 232.750807 
L 375.944587 232.008784 
L 382.943043 232.239972 
L 389.9415 231.604534 
L 396.939956 233.233417 
L 403.938413 232.250134 
L 410.936869 232.987977 
L 417.935325 232.294115 
L 424.933782 232.932379 
" clip-path="url(#p27cdc008c6)" style="fill: none; stroke-dasharray: 20,10; stroke-dashoffset: 0; stroke: #92aab1; stroke-width: 2.5"/>
   </g>
   <g id="line2d_19">
    <path d="M 82.009418 218.565663 
L 89.007875 222.578469 
L 96.006331 227.785762 
L 103.004787 230.151675 
L 110.003244 229.299482 
L 117.0017 230.449053 
L 124.000157 231.956023 
L 130.998613 229.631464 
L 137.997069 230.388274 
L 144.995526 235.867881 
L 151.993982 233.705031 
L 158.992439 233.065426 
L 165.990895 233.03155 
L 172.989351 232.606987 
L 179.987808 232.238502 
L 186.986264 232.877928 
L 193.984721 231.381128 
L 200.983177 229.890888 
L 207.981633 232.074921 
L 214.98009 233.001021 
L 221.978546 232.643612 
L 228.977003 234.548531 
L 235.975459 234.016091 
L 242.973915 233.740955 
L 249.972372 233.387477 
L 256.970828 232.738144 
L 263.969285 233.969687 
L 270.967741 234.067016 
L 277.966197 235.266428 
L 284.964654 233.316856 
L 291.96311 234.674518 
L 298.961567 230.997022 
L 305.960023 234.076388 
L 312.958479 233.397815 
L 319.956936 232.502564 
L 326.955392 234.041719 
L 333.953849 233.417935 
L 340.952305 231.805357 
L 347.950761 233.513703 
L 354.949218 233.599548 
L 361.947674 232.187219 
L 368.946131 231.162051 
L 375.944587 230.906898 
L 382.943043 229.868789 
L 389.9415 232.897503 
L 396.939956 232.910061 
L 403.938413 232.85521 
L 410.936869 233.186094 
L 417.935325 232.667911 
L 424.933782 233.436683 
" clip-path="url(#p27cdc008c6)" style="fill: none; stroke-dasharray: 20,10; stroke-dashoffset: 0; stroke: #b2cece; stroke-width: 2.5"/>
   </g>
   <g id="line2d_20">
    <path d="M 82.009418 215.61841 
L 89.007875 223.884993 
L 96.006331 226.592856 
L 103.004787 229.904428 
L 110.003244 232.903839 
L 117.0017 232.781803 
L 124.000157 235.935984 
L 130.998613 235.999808 
L 137.997069 238.907832 
L 144.995526 239.119052 
L 151.993982 240.26663 
L 158.992439 241.909595 
L 165.990895 241.350536 
L 172.989351 241.995124 
L 179.987808 243.290809 
L 186.986264 243.793566 
L 193.984721 242.870241 
L 200.983177 242.218505 
L 207.981633 242.925783 
L 214.98009 243.689169 
L 221.978546 242.576014 
L 228.977003 243.639297 
L 235.975459 241.281072 
L 242.973915 243.119811 
L 249.972372 243.184398 
L 256.970828 243.632265 
L 263.969285 244.303877 
L 270.967741 241.704606 
L 277.966197 241.273642 
L 284.964654 243.040911 
L 291.96311 242.298477 
L 298.961567 240.002814 
L 305.960023 241.248158 
L 312.958479 242.39952 
L 319.956936 242.780559 
L 326.955392 242.478975 
L 333.953849 242.709875 
L 340.952305 243.097302 
L 347.950761 241.441632 
L 354.949218 242.27554 
L 361.947674 241.867495 
L 368.946131 243.406703 
L 375.944587 242.637082 
L 382.943043 241.536023 
L 389.9415 243.68084 
L 396.939956 241.660367 
L 403.938413 243.815916 
L 410.936869 244.463014 
L 417.935325 242.744808 
L 424.933782 241.784823 
" clip-path="url(#p27cdc008c6)" style="fill: none; stroke-dasharray: 20,10; stroke-dashoffset: 0; stroke: #dde9e9; stroke-width: 2.5"/>
   </g>
   <g id="patch_3">
    <path d="M 64.8632 279.7738 
L 64.8632 25.5687 
" style="fill: none; stroke: #000000; stroke-width: 1.5; stroke-linejoin: miter; stroke-linecap: square"/>
   </g>
   <g id="patch_4">
    <path d="M 64.8632 279.7738 
L 442.08 279.7738 
" style="fill: none; stroke: #000000; stroke-width: 1.5; stroke-linejoin: miter; stroke-linecap: square"/>
   </g>
   <g id="text_15">
    <!-- I-Norm -->
    <g transform="translate(227.0764 19.5687)scale(0.1728 -0.1728)">
     <defs>
      <path id="ArialMT-49" d="M 597 0 
L 597 4581 
L 1203 4581 
L 1203 0 
L 597 0 
z
" transform="scale(0.015625)"/>
      <path id="ArialMT-2d" d="M 203 1375 
L 203 1941 
L 1931 1941 
L 1931 1375 
L 203 1375 
z
" transform="scale(0.015625)"/>
     </defs>
     <use xlink:href="#ArialMT-49"/>
     <use xlink:href="#ArialMT-2d" x="27.783203"/>
     <use xlink:href="#ArialMT-4e" x="61.083984"/>
     <use xlink:href="#ArialMT-6f" x="133.300781"/>
     <use xlink:href="#ArialMT-72" x="188.916016"/>
     <use xlink:href="#ArialMT-6d" x="222.216797"/>
    </g>
   </g>
   <g id="legend_1">
    <g id="patch_5">
     <path d="M 227.7297 180.12485 
L 429.984 180.12485 
Q 433.44 180.12485 433.44 176.66885 
L 433.44 128.67365 
Q 433.44 125.21765 429.984 125.21765 
L 227.7297 125.21765 
Q 224.2737 125.21765 224.2737 128.67365 
L 224.2737 176.66885 
Q 224.2737 180.12485 227.7297 180.12485 
z
" style="fill: #ffffff; opacity: 0.8; stroke: #cccccc; stroke-width: 2.5; stroke-linejoin: miter"/>
    </g>
    <g id="line2d_21">
     <path d="M 231.1857 138.67175 
L 248.4657 138.67175 
L 265.7457 138.67175 
" style="fill: none; stroke: #000000; stroke-width: 2.5; stroke-linecap: square"/>
    </g>
    <g id="text_16">
     <!-- Output Alignment -->
     <g transform="translate(279.5697 144.71975)scale(0.1728 -0.1728)">
      <defs>
       <path id="ArialMT-4f" d="M 309 2231 
Q 309 3372 921 4017 
Q 1534 4663 2503 4663 
Q 3138 4663 3647 4359 
Q 4156 4056 4423 3514 
Q 4691 2972 4691 2284 
Q 4691 1588 4409 1038 
Q 4128 488 3612 205 
Q 3097 -78 2500 -78 
Q 1853 -78 1343 234 
Q 834 547 571 1087 
Q 309 1628 309 2231 
z
M 934 2222 
Q 934 1394 1379 917 
Q 1825 441 2497 441 
Q 3181 441 3623 922 
Q 4066 1403 4066 2288 
Q 4066 2847 3877 3264 
Q 3688 3681 3323 3911 
Q 2959 4141 2506 4141 
Q 1863 4141 1398 3698 
Q 934 3256 934 2222 
z
" transform="scale(0.015625)"/>
       <path id="ArialMT-75" d="M 2597 0 
L 2597 488 
Q 2209 -75 1544 -75 
Q 1250 -75 995 37 
Q 741 150 617 320 
Q 494 491 444 738 
Q 409 903 409 1263 
L 409 3319 
L 972 3319 
L 972 1478 
Q 972 1038 1006 884 
Q 1059 663 1231 536 
Q 1403 409 1656 409 
Q 1909 409 2131 539 
Q 2353 669 2445 892 
Q 2538 1116 2538 1541 
L 2538 3319 
L 3100 3319 
L 3100 0 
L 2597 0 
z
" transform="scale(0.015625)"/>
       <path id="ArialMT-41" d="M -9 0 
L 1750 4581 
L 2403 4581 
L 4278 0 
L 3588 0 
L 3053 1388 
L 1138 1388 
L 634 0 
L -9 0 
z
M 1313 1881 
L 2866 1881 
L 2388 3150 
Q 2169 3728 2063 4100 
Q 1975 3659 1816 3225 
L 1313 1881 
z
" transform="scale(0.015625)"/>
       <path id="ArialMT-67" d="M 319 -275 
L 866 -356 
Q 900 -609 1056 -725 
Q 1266 -881 1628 -881 
Q 2019 -881 2231 -725 
Q 2444 -569 2519 -288 
Q 2563 -116 2559 434 
Q 2191 0 1641 0 
Q 956 0 581 494 
Q 206 988 206 1678 
Q 206 2153 378 2554 
Q 550 2956 876 3175 
Q 1203 3394 1644 3394 
Q 2231 3394 2613 2919 
L 2613 3319 
L 3131 3319 
L 3131 450 
Q 3131 -325 2973 -648 
Q 2816 -972 2473 -1159 
Q 2131 -1347 1631 -1347 
Q 1038 -1347 672 -1080 
Q 306 -813 319 -275 
z
M 784 1719 
Q 784 1066 1043 766 
Q 1303 466 1694 466 
Q 2081 466 2343 764 
Q 2606 1063 2606 1700 
Q 2606 2309 2336 2618 
Q 2066 2928 1684 2928 
Q 1309 2928 1046 2623 
Q 784 2319 784 1719 
z
" transform="scale(0.015625)"/>
      </defs>
      <use xlink:href="#ArialMT-4f"/>
      <use xlink:href="#ArialMT-75" x="77.783203"/>
      <use xlink:href="#ArialMT-74" x="133.398438"/>
      <use xlink:href="#ArialMT-70" x="161.181641"/>
      <use xlink:href="#ArialMT-75" x="216.796875"/>
      <use xlink:href="#ArialMT-74" x="272.412109"/>
      <use xlink:href="#ArialMT-20" x="300.195312"/>
      <use xlink:href="#ArialMT-41" x="322.478516"/>
      <use xlink:href="#ArialMT-6c" x="389.177734"/>
      <use xlink:href="#ArialMT-69" x="411.394531"/>
      <use xlink:href="#ArialMT-67" x="433.611328"/>
      <use xlink:href="#ArialMT-6e" x="489.226562"/>
      <use xlink:href="#ArialMT-6d" x="544.841797"/>
      <use xlink:href="#ArialMT-65" x="628.142578"/>
      <use xlink:href="#ArialMT-6e" x="683.757812"/>
      <use xlink:href="#ArialMT-74" x="739.373047"/>
     </g>
    </g>
    <g id="line2d_22">
     <path d="M 231.1857 163.52795 
L 248.4657 163.52795 
L 265.7457 163.52795 
" style="fill: none; stroke-dasharray: 20,10; stroke-dashoffset: 0; stroke: #000000; stroke-width: 2.5"/>
    </g>
    <g id="text_17">
     <!-- Gradient Alignment -->
     <g transform="translate(279.5697 169.57595)scale(0.1728 -0.1728)">
      <defs>
       <path id="ArialMT-47" d="M 2638 1797 
L 2638 2334 
L 4578 2338 
L 4578 638 
Q 4131 281 3656 101 
Q 3181 -78 2681 -78 
Q 2006 -78 1454 211 
Q 903 500 622 1047 
Q 341 1594 341 2269 
Q 341 2938 620 3517 
Q 900 4097 1425 4378 
Q 1950 4659 2634 4659 
Q 3131 4659 3532 4498 
Q 3934 4338 4162 4050 
Q 4391 3763 4509 3300 
L 3963 3150 
Q 3859 3500 3706 3700 
Q 3553 3900 3268 4020 
Q 2984 4141 2638 4141 
Q 2222 4141 1919 4014 
Q 1616 3888 1430 3681 
Q 1244 3475 1141 3228 
Q 966 2803 966 2306 
Q 966 1694 1177 1281 
Q 1388 869 1791 669 
Q 2194 469 2647 469 
Q 3041 469 3416 620 
Q 3791 772 3984 944 
L 3984 1797 
L 2638 1797 
z
" transform="scale(0.015625)"/>
       <path id="ArialMT-64" d="M 2575 0 
L 2575 419 
Q 2259 -75 1647 -75 
Q 1250 -75 917 144 
Q 584 363 401 755 
Q 219 1147 219 1656 
Q 219 2153 384 2558 
Q 550 2963 881 3178 
Q 1213 3394 1622 3394 
Q 1922 3394 2156 3267 
Q 2391 3141 2538 2938 
L 2538 4581 
L 3097 4581 
L 3097 0 
L 2575 0 
z
M 797 1656 
Q 797 1019 1065 703 
Q 1334 388 1700 388 
Q 2069 388 2326 689 
Q 2584 991 2584 1609 
Q 2584 2291 2321 2609 
Q 2059 2928 1675 2928 
Q 1300 2928 1048 2622 
Q 797 2316 797 1656 
z
" transform="scale(0.015625)"/>
      </defs>
      <use xlink:href="#ArialMT-47"/>
      <use xlink:href="#ArialMT-72" x="77.783203"/>
      <use xlink:href="#ArialMT-61" x="111.083984"/>
      <use xlink:href="#ArialMT-64" x="166.699219"/>
      <use xlink:href="#ArialMT-69" x="222.314453"/>
      <use xlink:href="#ArialMT-65" x="244.53125"/>
      <use xlink:href="#ArialMT-6e" x="300.146484"/>
      <use xlink:href="#ArialMT-74" x="355.761719"/>
      <use xlink:href="#ArialMT-20" x="383.544922"/>
      <use xlink:href="#ArialMT-41" x="405.828125"/>
      <use xlink:href="#ArialMT-6c" x="472.527344"/>
      <use xlink:href="#ArialMT-69" x="494.744141"/>
      <use xlink:href="#ArialMT-67" x="516.960938"/>
      <use xlink:href="#ArialMT-6e" x="572.576172"/>
      <use xlink:href="#ArialMT-6d" x="628.191406"/>
      <use xlink:href="#ArialMT-65" x="711.492188"/>
      <use xlink:href="#ArialMT-6e" x="767.107422"/>
      <use xlink:href="#ArialMT-74" x="822.722656"/>
     </g>
    </g>
   </g>
  </g>
 </g>
 <defs>
  <clipPath id="p27cdc008c6">
   <rect x="64.8632" y="25.5687" width="377.2168" height="254.2051"/>
  </clipPath>
 </defs>
</svg>
