<?xml version="1.0" encoding="utf-8" standalone="no"?>
<!DOCTYPE svg PUBLIC "-//W3C//DTD SVG 1.1//EN"
  "http://www.w3.org/Graphics/SVG/1.1/DTD/svg11.dtd">
<svg xmlns:xlink="http://www.w3.org/1999/xlink" width="1428.48pt" height="420.484466pt" viewBox="0 0 1428.48 420.484466" xmlns="http://www.w3.org/2000/svg" version="1.1">
 <metadata>
  <rdf:RDF xmlns:dc="http://purl.org/dc/elements/1.1/" xmlns:cc="http://creativecommons.org/ns#" xmlns:rdf="http://www.w3.org/1999/02/22-rdf-syntax-ns#">
   <cc:Work>
    <dc:type rdf:resource="http://purl.org/dc/dcmitype/StillImage"/>
    <dc:date>2025-09-29T16:00:58.688425</dc:date>
    <dc:format>image/svg+xml</dc:format>
    <dc:creator>
     <cc:Agent>
      <dc:title>Matplotlib v3.5.3, https://matplotlib.org/</dc:title>
     </cc:Agent>
    </dc:creator>
   </cc:Work>
  </rdf:RDF>
 </metadata>
 <defs>
  <style type="text/css">*{stroke-linejoin: round; stroke-linecap: butt}</style>
 </defs>
 <g id="figure_1">
  <g id="patch_1">
   <path d="M 0 420.484466 
L 1428.48 420.484466 
L 1428.48 0 
L 0 0 
z
" style="fill: #ffffff"/>
  </g>
  <g id="axes_1">
   <g id="patch_2">
    <path d="M 62.8496 195.80158 
L 1421.28 195.80158 
L 1421.28 20.838537 
L 62.8496 20.838537 
z
" style="fill: #ffffff"/>
   </g>
   <g id="matplotlib.axis_1">
    <g id="xtick_1">
     <g id="line2d_1">
      <defs>
       <path id="mdb4a2e7140" d="M 0 0 
L 0 8 
" style="stroke: #000000; stroke-width: 2"/>
      </defs>
      <g>
       <use xlink:href="#mdb4a2e7140" x="147.7515" y="195.80158" style="stroke: #000000; stroke-width: 2"/>
      </g>
     </g>
    </g>
    <g id="xtick_2">
     <g id="line2d_2">
      <g>
       <use xlink:href="#mdb4a2e7140" x="317.5553" y="195.80158" style="stroke: #000000; stroke-width: 2"/>
      </g>
     </g>
    </g>
    <g id="xtick_3">
     <g id="line2d_3">
      <g>
       <use xlink:href="#mdb4a2e7140" x="487.3591" y="195.80158" style="stroke: #000000; stroke-width: 2"/>
      </g>
     </g>
    </g>
    <g id="xtick_4">
     <g id="line2d_4">
      <g>
       <use xlink:href="#mdb4a2e7140" x="657.1629" y="195.80158" style="stroke: #000000; stroke-width: 2"/>
      </g>
     </g>
    </g>
    <g id="xtick_5">
     <g id="line2d_5">
      <g>
       <use xlink:href="#mdb4a2e7140" x="826.9667" y="195.80158" style="stroke: #000000; stroke-width: 2"/>
      </g>
     </g>
    </g>
    <g id="xtick_6">
     <g id="line2d_6">
      <g>
       <use xlink:href="#mdb4a2e7140" x="996.7705" y="195.80158" style="stroke: #000000; stroke-width: 2"/>
      </g>
     </g>
    </g>
    <g id="xtick_7">
     <g id="line2d_7">
      <g>
       <use xlink:href="#mdb4a2e7140" x="1166.5743" y="195.80158" style="stroke: #000000; stroke-width: 2"/>
      </g>
     </g>
    </g>
    <g id="xtick_8">
     <g id="line2d_8">
      <g>
       <use xlink:href="#mdb4a2e7140" x="1336.3781" y="195.80158" style="stroke: #000000; stroke-width: 2"/>
      </g>
     </g>
    </g>
   </g>
   <g id="matplotlib.axis_2">
    <g id="ytick_1">
     <g id="line2d_9">
      <defs>
       <path id="m030dc29080" d="M 0 0 
L -8 0 
" style="stroke: #000000; stroke-width: 2"/>
      </defs>
      <g>
       <use xlink:href="#m030dc29080" x="62.8496" y="179.163569" style="stroke: #000000; stroke-width: 2"/>
      </g>
     </g>
     <g id="text_1">
      <!-- −2 -->
      <g transform="translate(31.6477 185.347919)scale(0.1728 -0.1728)">
       <defs>
        <path id="ArialMT-2212" d="M 3381 1997 
L 356 1997 
L 356 2522 
L 3381 2522 
L 3381 1997 
z
" transform="scale(0.015625)"/>
        <path id="ArialMT-32" d="M 3222 541 
L 3222 0 
L 194 0 
Q 188 203 259 391 
Q 375 700 629 1000 
Q 884 1300 1366 1694 
Q 2113 2306 2375 2664 
Q 2638 3022 2638 3341 
Q 2638 3675 2398 3904 
Q 2159 4134 1775 4134 
Q 1369 4134 1125 3890 
Q 881 3647 878 3216 
L 300 3275 
Q 359 3922 746 4261 
Q 1134 4600 1788 4600 
Q 2447 4600 2831 4234 
Q 3216 3869 3216 3328 
Q 3216 3053 3103 2787 
Q 2991 2522 2730 2228 
Q 2469 1934 1863 1422 
Q 1356 997 1212 845 
Q 1069 694 975 541 
L 3222 541 
z
" transform="scale(0.015625)"/>
       </defs>
       <use xlink:href="#ArialMT-2212"/>
       <use xlink:href="#ArialMT-32" x="58.398438"/>
      </g>
     </g>
    </g>
    <g id="ytick_2">
     <g id="line2d_10">
      <g>
       <use xlink:href="#m030dc29080" x="62.8496" y="143.741813" style="stroke: #000000; stroke-width: 2"/>
      </g>
     </g>
     <g id="text_2">
      <!-- −1 -->
      <g transform="translate(31.6477 149.926163)scale(0.1728 -0.1728)">
       <defs>
        <path id="ArialMT-31" d="M 2384 0 
L 1822 0 
L 1822 3584 
Q 1619 3391 1289 3197 
Q 959 3003 697 2906 
L 697 3450 
Q 1169 3672 1522 3987 
Q 1875 4303 2022 4600 
L 2384 4600 
L 2384 0 
z
" transform="scale(0.015625)"/>
       </defs>
       <use xlink:href="#ArialMT-2212"/>
       <use xlink:href="#ArialMT-31" x="58.398438"/>
      </g>
     </g>
    </g>
    <g id="ytick_3">
     <g id="line2d_11">
      <g>
       <use xlink:href="#m030dc29080" x="62.8496" y="108.320058" style="stroke: #000000; stroke-width: 2"/>
      </g>
     </g>
     <g id="text_3">
      <!-- 0 -->
      <g transform="translate(41.7403 114.504408)scale(0.1728 -0.1728)">
       <defs>
        <path id="ArialMT-30" d="M 266 2259 
Q 266 3072 433 3567 
Q 600 4063 929 4331 
Q 1259 4600 1759 4600 
Q 2128 4600 2406 4451 
Q 2684 4303 2865 4023 
Q 3047 3744 3150 3342 
Q 3253 2941 3253 2259 
Q 3253 1453 3087 958 
Q 2922 463 2592 192 
Q 2263 -78 1759 -78 
Q 1097 -78 719 397 
Q 266 969 266 2259 
z
M 844 2259 
Q 844 1131 1108 757 
Q 1372 384 1759 384 
Q 2147 384 2411 759 
Q 2675 1134 2675 2259 
Q 2675 3391 2411 3762 
Q 2147 4134 1753 4134 
Q 1366 4134 1134 3806 
Q 844 3388 844 2259 
z
" transform="scale(0.015625)"/>
       </defs>
       <use xlink:href="#ArialMT-30"/>
      </g>
     </g>
    </g>
    <g id="ytick_4">
     <g id="line2d_12">
      <g>
       <use xlink:href="#m030dc29080" x="62.8496" y="72.898303" style="stroke: #000000; stroke-width: 2"/>
      </g>
     </g>
     <g id="text_4">
      <!-- 1 -->
      <g transform="translate(41.7403 79.082653)scale(0.1728 -0.1728)">
       <use xlink:href="#ArialMT-31"/>
      </g>
     </g>
    </g>
    <g id="ytick_5">
     <g id="line2d_13">
      <g>
       <use xlink:href="#m030dc29080" x="62.8496" y="37.476548" style="stroke: #000000; stroke-width: 2"/>
      </g>
     </g>
     <g id="text_5">
      <!-- 2 -->
      <g transform="translate(41.7403 43.660898)scale(0.1728 -0.1728)">
       <use xlink:href="#ArialMT-32"/>
      </g>
     </g>
    </g>
    <g id="text_6">
     <!-- $\mu$ -->
     <g transform="translate(24.7077 112.800058)rotate(-90)scale(0.14 -0.14)">
      <defs>
       <path id="DejaVuSans-Oblique-3bc" d="M -84 -1331 
L 856 3500 
L 1434 3500 
L 1009 1322 
Q 997 1256 987 1175 
Q 978 1094 978 1013 
Q 978 722 1161 565 
Q 1344 409 1684 409 
Q 2147 409 2431 671 
Q 2716 934 2816 1459 
L 3213 3500 
L 3788 3500 
L 3266 809 
Q 3253 750 3248 706 
Q 3244 663 3244 628 
Q 3244 531 3283 486 
Q 3322 441 3406 441 
Q 3438 441 3492 456 
Q 3547 472 3647 513 
L 3559 50 
Q 3422 -19 3297 -55 
Q 3172 -91 3053 -91 
Q 2847 -91 2730 40 
Q 2613 172 2613 403 
Q 2438 153 2195 31 
Q 1953 -91 1625 -91 
Q 1334 -91 1117 43 
Q 900 178 831 397 
L 494 -1331 
L -84 -1331 
z
" transform="scale(0.015625)"/>
      </defs>
      <use xlink:href="#DejaVuSans-Oblique-3bc" transform="translate(0 0.3125)"/>
     </g>
    </g>
   </g>
   <g id="patch_3">
    <path d="M 96.81036 108.412291 
L 198.69264 108.412291 
L 198.69264 108.402678 
L 96.81036 108.402678 
L 96.81036 108.412291 
L 96.81036 108.412291 
z
" clip-path="url(#p375ae0723f)" style="fill: none; stroke: #000000; stroke-linejoin: miter"/>
   </g>
   <g id="line2d_14">
    <path d="M 147.7515 108.412291 
L 147.7515 108.412291 
" clip-path="url(#p375ae0723f)" style="fill: none; stroke: #000000; stroke-linecap: square"/>
   </g>
   <g id="line2d_15">
    <path d="M 147.7515 108.402678 
L 147.7515 108.402678 
" clip-path="url(#p375ae0723f)" style="fill: none; stroke: #000000; stroke-linecap: square"/>
   </g>
   <g id="line2d_16">
    <path d="M 122.28093 108.412291 
L 173.22207 108.412291 
" clip-path="url(#p375ae0723f)" style="fill: none; stroke: #000000; stroke-linecap: square"/>
   </g>
   <g id="line2d_17">
    <path d="M 122.28093 108.402678 
L 173.22207 108.402678 
" clip-path="url(#p375ae0723f)" style="fill: none; stroke: #000000; stroke-linecap: square"/>
   </g>
   <g id="patch_4">
    <path d="M 266.61416 131.554365 
L 368.49644 131.554365 
L 368.49644 118.514288 
L 266.61416 118.514288 
L 266.61416 131.554365 
L 266.61416 131.554365 
z
" clip-path="url(#p375ae0723f)" style="fill: none; stroke: #000000; stroke-linejoin: miter"/>
   </g>
   <g id="line2d_18">
    <path d="M 317.5553 131.554365 
L 317.5553 131.80696 
" clip-path="url(#p375ae0723f)" style="fill: none; stroke: #000000; stroke-linecap: square"/>
   </g>
   <g id="line2d_19">
    <path d="M 317.5553 118.514288 
L 317.5553 114.312857 
" clip-path="url(#p375ae0723f)" style="fill: none; stroke: #000000; stroke-linecap: square"/>
   </g>
   <g id="line2d_20">
    <path d="M 292.08473 131.80696 
L 343.02587 131.80696 
" clip-path="url(#p375ae0723f)" style="fill: none; stroke: #000000; stroke-linecap: square"/>
   </g>
   <g id="line2d_21">
    <path d="M 292.08473 114.312857 
L 343.02587 114.312857 
" clip-path="url(#p375ae0723f)" style="fill: none; stroke: #000000; stroke-linecap: square"/>
   </g>
   <g id="patch_5">
    <path d="M 436.41796 108.37785 
L 538.30024 108.37785 
L 538.30024 107.997372 
L 436.41796 107.997372 
L 436.41796 108.37785 
L 436.41796 108.37785 
z
" clip-path="url(#p375ae0723f)" style="fill: none; stroke: #000000; stroke-linejoin: miter"/>
   </g>
   <g id="line2d_22">
    <path d="M 487.3591 108.37785 
L 487.3591 108.37785 
" clip-path="url(#p375ae0723f)" style="fill: none; stroke: #000000; stroke-linecap: square"/>
   </g>
   <g id="line2d_23">
    <path d="M 487.3591 107.997372 
L 487.3591 107.997372 
" clip-path="url(#p375ae0723f)" style="fill: none; stroke: #000000; stroke-linecap: square"/>
   </g>
   <g id="line2d_24">
    <path d="M 461.88853 108.37785 
L 512.82967 108.37785 
" clip-path="url(#p375ae0723f)" style="fill: none; stroke: #000000; stroke-linecap: square"/>
   </g>
   <g id="line2d_25">
    <path d="M 461.88853 107.997372 
L 512.82967 107.997372 
" clip-path="url(#p375ae0723f)" style="fill: none; stroke: #000000; stroke-linecap: square"/>
   </g>
   <g id="patch_6">
    <path d="M 606.22176 128.989468 
L 708.10404 128.989468 
L 708.10404 119.578965 
L 606.22176 119.578965 
L 606.22176 128.989468 
L 606.22176 128.989468 
z
" clip-path="url(#p375ae0723f)" style="fill: none; stroke: #000000; stroke-linejoin: miter"/>
   </g>
   <g id="line2d_26">
    <path d="M 657.1629 128.989468 
L 657.1629 131.651694 
" clip-path="url(#p375ae0723f)" style="fill: none; stroke: #000000; stroke-linecap: square"/>
   </g>
   <g id="line2d_27">
    <path d="M 657.1629 119.578965 
L 657.1629 112.612542 
" clip-path="url(#p375ae0723f)" style="fill: none; stroke: #000000; stroke-linecap: square"/>
   </g>
   <g id="line2d_28">
    <path d="M 631.69233 131.651694 
L 682.63347 131.651694 
" clip-path="url(#p375ae0723f)" style="fill: none; stroke: #000000; stroke-linecap: square"/>
   </g>
   <g id="line2d_29">
    <path d="M 631.69233 112.612542 
L 682.63347 112.612542 
" clip-path="url(#p375ae0723f)" style="fill: none; stroke: #000000; stroke-linecap: square"/>
   </g>
   <g id="patch_7">
    <path d="M 776.02556 108.609425 
L 877.90784 108.609425 
L 877.90784 108.192007 
L 776.02556 108.192007 
L 776.02556 108.609425 
L 776.02556 108.609425 
z
" clip-path="url(#p375ae0723f)" style="fill: none; stroke: #000000; stroke-linejoin: miter"/>
   </g>
   <g id="line2d_30">
    <path d="M 826.9667 108.609425 
L 826.9667 108.609425 
" clip-path="url(#p375ae0723f)" style="fill: none; stroke: #000000; stroke-linecap: square"/>
   </g>
   <g id="line2d_31">
    <path d="M 826.9667 108.192007 
L 826.9667 108.192007 
" clip-path="url(#p375ae0723f)" style="fill: none; stroke: #000000; stroke-linecap: square"/>
   </g>
   <g id="line2d_32">
    <path d="M 801.49613 108.609425 
L 852.43727 108.609425 
" clip-path="url(#p375ae0723f)" style="fill: none; stroke: #000000; stroke-linecap: square"/>
   </g>
   <g id="line2d_33">
    <path d="M 801.49613 108.192007 
L 852.43727 108.192007 
" clip-path="url(#p375ae0723f)" style="fill: none; stroke: #000000; stroke-linecap: square"/>
   </g>
   <g id="patch_8">
    <path d="M 945.82936 136.194365 
L 1047.71164 136.194365 
L 1047.71164 121.523251 
L 945.82936 121.523251 
L 945.82936 136.194365 
L 945.82936 136.194365 
z
" clip-path="url(#p375ae0723f)" style="fill: none; stroke: #000000; stroke-linejoin: miter"/>
   </g>
   <g id="line2d_34">
    <path d="M 996.7705 136.194365 
L 996.7705 139.200253 
" clip-path="url(#p375ae0723f)" style="fill: none; stroke: #000000; stroke-linecap: square"/>
   </g>
   <g id="line2d_35">
    <path d="M 996.7705 121.523251 
L 996.7705 117.739199 
" clip-path="url(#p375ae0723f)" style="fill: none; stroke: #000000; stroke-linecap: square"/>
   </g>
   <g id="line2d_36">
    <path d="M 971.29993 139.200253 
L 1022.24107 139.200253 
" clip-path="url(#p375ae0723f)" style="fill: none; stroke: #000000; stroke-linecap: square"/>
   </g>
   <g id="line2d_37">
    <path d="M 971.29993 117.739199 
L 1022.24107 117.739199 
" clip-path="url(#p375ae0723f)" style="fill: none; stroke: #000000; stroke-linecap: square"/>
   </g>
   <g id="patch_9">
    <path d="M 1115.63316 110.905173 
L 1217.51544 110.905173 
L 1217.51544 110.146606 
L 1115.63316 110.146606 
L 1115.63316 110.905173 
L 1115.63316 110.905173 
z
" clip-path="url(#p375ae0723f)" style="fill: none; stroke: #000000; stroke-linejoin: miter"/>
   </g>
   <g id="line2d_38">
    <path d="M 1166.5743 110.905173 
L 1166.5743 110.905173 
" clip-path="url(#p375ae0723f)" style="fill: none; stroke: #000000; stroke-linecap: square"/>
   </g>
   <g id="line2d_39">
    <path d="M 1166.5743 110.146606 
L 1166.5743 110.146606 
" clip-path="url(#p375ae0723f)" style="fill: none; stroke: #000000; stroke-linecap: square"/>
   </g>
   <g id="line2d_40">
    <path d="M 1141.10373 110.905173 
L 1192.04487 110.905173 
" clip-path="url(#p375ae0723f)" style="fill: none; stroke: #000000; stroke-linecap: square"/>
   </g>
   <g id="line2d_41">
    <path d="M 1141.10373 110.146606 
L 1192.04487 110.146606 
" clip-path="url(#p375ae0723f)" style="fill: none; stroke: #000000; stroke-linecap: square"/>
   </g>
   <g id="patch_10">
    <path d="M 1285.43696 143.296306 
L 1387.31924 143.296306 
L 1387.31924 130.972525 
L 1285.43696 130.972525 
L 1285.43696 143.296306 
L 1285.43696 143.296306 
z
" clip-path="url(#p375ae0723f)" style="fill: none; stroke: #000000; stroke-linejoin: miter"/>
   </g>
   <g id="line2d_42">
    <path d="M 1336.3781 143.296306 
L 1336.3781 158.312582 
" clip-path="url(#p375ae0723f)" style="fill: none; stroke: #000000; stroke-linecap: square"/>
   </g>
   <g id="line2d_43">
    <path d="M 1336.3781 130.972525 
L 1336.3781 127.606733 
" clip-path="url(#p375ae0723f)" style="fill: none; stroke: #000000; stroke-linecap: square"/>
   </g>
   <g id="line2d_44">
    <path d="M 1310.90753 158.312582 
L 1361.84867 158.312582 
" clip-path="url(#p375ae0723f)" style="fill: none; stroke: #000000; stroke-linecap: square"/>
   </g>
   <g id="line2d_45">
    <path d="M 1310.90753 127.606733 
L 1361.84867 127.606733 
" clip-path="url(#p375ae0723f)" style="fill: none; stroke: #000000; stroke-linecap: square"/>
   </g>
   <g id="line2d_46">
    <path d="M 62.8496 108.320058 
L 1421.28 108.320058 
" clip-path="url(#p375ae0723f)" style="fill: none; stroke-dasharray: 1.5,2.475; stroke-dashoffset: 0; stroke: #000000; stroke-width: 1.5"/>
   </g>
   <g id="line2d_47">
    <path d="M 402.4572 195.80158 
L 402.4572 20.838537 
" clip-path="url(#p375ae0723f)" style="fill: none; stroke-dasharray: 1,1.65; stroke-dashoffset: 0; stroke: #808080"/>
   </g>
   <g id="line2d_48">
    <path d="M 742.0648 195.80158 
L 742.0648 20.838537 
" clip-path="url(#p375ae0723f)" style="fill: none; stroke-dasharray: 1,1.65; stroke-dashoffset: 0; stroke: #808080"/>
   </g>
   <g id="line2d_49">
    <path d="M 1081.6724 195.80158 
L 1081.6724 20.838537 
" clip-path="url(#p375ae0723f)" style="fill: none; stroke-dasharray: 1,1.65; stroke-dashoffset: 0; stroke: #808080"/>
   </g>
   <g id="line2d_50">
    <path d="M 96.81036 108.407485 
L 198.69264 108.407485 
" clip-path="url(#p375ae0723f)" style="fill: none; stroke: #000000; stroke-width: 2.5; stroke-linecap: square"/>
   </g>
   <g id="line2d_51">
    <path d="M 266.61416 120.171124 
L 368.49644 120.171124 
" clip-path="url(#p375ae0723f)" style="fill: none; stroke: #000000; stroke-width: 2.5; stroke-linecap: square"/>
   </g>
   <g id="line2d_52">
    <path d="M 436.41796 108.187611 
L 538.30024 108.187611 
" clip-path="url(#p375ae0723f)" style="fill: none; stroke: #000000; stroke-width: 2.5; stroke-linecap: square"/>
   </g>
   <g id="line2d_53">
    <path d="M 606.22176 121.18591 
L 708.10404 121.18591 
" clip-path="url(#p375ae0723f)" style="fill: none; stroke: #000000; stroke-width: 2.5; stroke-linecap: square"/>
   </g>
   <g id="line2d_54">
    <path d="M 776.02556 108.400716 
L 877.90784 108.400716 
" clip-path="url(#p375ae0723f)" style="fill: none; stroke: #000000; stroke-width: 2.5; stroke-linecap: square"/>
   </g>
   <g id="line2d_55">
    <path d="M 945.82936 124.687904 
L 1047.71164 124.687904 
" clip-path="url(#p375ae0723f)" style="fill: none; stroke: #000000; stroke-width: 2.5; stroke-linecap: square"/>
   </g>
   <g id="line2d_56">
    <path d="M 1115.63316 110.52589 
L 1217.51544 110.52589 
" clip-path="url(#p375ae0723f)" style="fill: none; stroke: #000000; stroke-width: 2.5; stroke-linecap: square"/>
   </g>
   <g id="line2d_57">
    <path d="M 1285.43696 134.573474 
L 1387.31924 134.573474 
" clip-path="url(#p375ae0723f)" style="fill: none; stroke: #000000; stroke-width: 2.5; stroke-linecap: square"/>
   </g>
   <g id="patch_11">
    <path d="M 62.8496 195.80158 
L 62.8496 20.838537 
" style="fill: none; stroke: #000000; stroke-width: 1.5; stroke-linejoin: miter; stroke-linecap: square"/>
   </g>
   <g id="patch_12">
    <path d="M 62.8496 195.80158 
L 1421.28 195.80158 
" style="fill: none; stroke: #000000; stroke-width: 1.5; stroke-linejoin: miter; stroke-linecap: square"/>
   </g>
   <g id="text_7">
    <!-- $\epsilon=0$ -->
    <g transform="translate(216.9884 16.505156)scale(0.13 -0.13)">
     <defs>
      <path id="DejaVuSans-Oblique-3b5" d="M 1263 1888 
Q 925 1963 778 2166 
Q 669 2309 669 2503 
Q 669 3034 1175 3344 
Q 1575 3588 2188 3588 
Q 2425 3588 2684 3550 
Q 2944 3513 3234 3438 
L 3134 2916 
Q 2847 3006 2606 3047 
Q 2359 3088 2138 3088 
Q 1766 3088 1522 2944 
Q 1228 2772 1228 2522 
Q 1228 2356 1381 2241 
Q 1563 2103 1925 2103 
L 2409 2103 
L 2319 1628 
L 1856 1628 
Q 1425 1628 1172 1469 
Q 828 1253 828 916 
Q 828 703 1013 563 
Q 1244 388 1716 388 
Q 2006 388 2284 444 
Q 2563 503 2806 619 
L 2700 84 
Q 2403 -3 2131 -47 
Q 1859 -91 1609 -91 
Q 866 -91 516 194 
Q 250 413 250 781 
Q 250 1278 600 1584 
Q 859 1813 1263 1888 
z
" transform="scale(0.015625)"/>
      <path id="DejaVuSans-3d" d="M 678 2906 
L 4684 2906 
L 4684 2381 
L 678 2381 
L 678 2906 
z
M 678 1631 
L 4684 1631 
L 4684 1100 
L 678 1100 
L 678 1631 
z
" transform="scale(0.015625)"/>
      <path id="DejaVuSans-30" d="M 2034 4250 
Q 1547 4250 1301 3770 
Q 1056 3291 1056 2328 
Q 1056 1369 1301 889 
Q 1547 409 2034 409 
Q 2525 409 2770 889 
Q 3016 1369 3016 2328 
Q 3016 3291 2770 3770 
Q 2525 4250 2034 4250 
z
M 2034 4750 
Q 2819 4750 3233 4129 
Q 3647 3509 3647 2328 
Q 3647 1150 3233 529 
Q 2819 -91 2034 -91 
Q 1250 -91 836 529 
Q 422 1150 422 2328 
Q 422 3509 836 4129 
Q 1250 4750 2034 4750 
z
" transform="scale(0.015625)"/>
     </defs>
     <use xlink:href="#DejaVuSans-Oblique-3b5" transform="translate(0 0.78125)"/>
     <use xlink:href="#DejaVuSans-3d" transform="translate(73.535156 0.78125)"/>
     <use xlink:href="#DejaVuSans-30" transform="translate(176.806641 0.78125)"/>
    </g>
   </g>
   <g id="text_8">
    <!-- $\epsilon=0.25$ -->
    <g transform="translate(546.651 16.505156)scale(0.13 -0.13)">
     <defs>
      <path id="DejaVuSans-2e" d="M 684 794 
L 1344 794 
L 1344 0 
L 684 0 
L 684 794 
z
" transform="scale(0.015625)"/>
      <path id="DejaVuSans-32" d="M 1228 531 
L 3431 531 
L 3431 0 
L 469 0 
L 469 531 
Q 828 903 1448 1529 
Q 2069 2156 2228 2338 
Q 2531 2678 2651 2914 
Q 2772 3150 2772 3378 
Q 2772 3750 2511 3984 
Q 2250 4219 1831 4219 
Q 1534 4219 1204 4116 
Q 875 4013 500 3803 
L 500 4441 
Q 881 4594 1212 4672 
Q 1544 4750 1819 4750 
Q 2544 4750 2975 4387 
Q 3406 4025 3406 3419 
Q 3406 3131 3298 2873 
Q 3191 2616 2906 2266 
Q 2828 2175 2409 1742 
Q 1991 1309 1228 531 
z
" transform="scale(0.015625)"/>
      <path id="DejaVuSans-35" d="M 691 4666 
L 3169 4666 
L 3169 4134 
L 1269 4134 
L 1269 2991 
Q 1406 3038 1543 3061 
Q 1681 3084 1819 3084 
Q 2600 3084 3056 2656 
Q 3513 2228 3513 1497 
Q 3513 744 3044 326 
Q 2575 -91 1722 -91 
Q 1428 -91 1123 -41 
Q 819 9 494 109 
L 494 744 
Q 775 591 1075 516 
Q 1375 441 1709 441 
Q 2250 441 2565 725 
Q 2881 1009 2881 1497 
Q 2881 1984 2565 2268 
Q 2250 2553 1709 2553 
Q 1456 2553 1204 2497 
Q 953 2441 691 2322 
L 691 4666 
z
" transform="scale(0.015625)"/>
     </defs>
     <use xlink:href="#DejaVuSans-Oblique-3b5" transform="translate(0 0.78125)"/>
     <use xlink:href="#DejaVuSans-3d" transform="translate(73.535156 0.78125)"/>
     <use xlink:href="#DejaVuSans-30" transform="translate(176.806641 0.78125)"/>
     <use xlink:href="#DejaVuSans-2e" transform="translate(240.429688 0.78125)"/>
     <use xlink:href="#DejaVuSans-32" transform="translate(266.716797 0.78125)"/>
     <use xlink:href="#DejaVuSans-35" transform="translate(330.339844 0.78125)"/>
    </g>
   </g>
   <g id="text_9">
    <!-- $\epsilon=0.5$ -->
    <g transform="translate(890.0286 16.505156)scale(0.13 -0.13)">
     <use xlink:href="#DejaVuSans-Oblique-3b5" transform="translate(0 0.78125)"/>
     <use xlink:href="#DejaVuSans-3d" transform="translate(73.535156 0.78125)"/>
     <use xlink:href="#DejaVuSans-30" transform="translate(176.806641 0.78125)"/>
     <use xlink:href="#DejaVuSans-2e" transform="translate(240.429688 0.78125)"/>
     <use xlink:href="#DejaVuSans-35" transform="translate(272.216797 0.78125)"/>
    </g>
   </g>
   <g id="text_10">
    <!-- $\epsilon=0.75$ -->
    <g transform="translate(1225.9962 16.505156)scale(0.13 -0.13)">
     <defs>
      <path id="DejaVuSans-37" d="M 525 4666 
L 3525 4666 
L 3525 4397 
L 1831 0 
L 1172 0 
L 2766 4134 
L 525 4134 
L 525 4666 
z
" transform="scale(0.015625)"/>
     </defs>
     <use xlink:href="#DejaVuSans-Oblique-3b5" transform="translate(0 0.78125)"/>
     <use xlink:href="#DejaVuSans-3d" transform="translate(73.535156 0.78125)"/>
     <use xlink:href="#DejaVuSans-30" transform="translate(176.806641 0.78125)"/>
     <use xlink:href="#DejaVuSans-2e" transform="translate(240.429688 0.78125)"/>
     <use xlink:href="#DejaVuSans-37" transform="translate(264.466797 0.78125)"/>
     <use xlink:href="#DejaVuSans-35" transform="translate(328.089844 0.78125)"/>
    </g>
   </g>
  </g>
  <g id="axes_2">
   <g id="patch_13">
    <path d="M 62.8496 391.724622 
L 1421.28 391.724622 
L 1421.28 216.76158 
L 62.8496 216.76158 
z
" style="fill: #ffffff"/>
   </g>
   <g id="matplotlib.axis_3">
    <g id="xtick_9">
     <g id="line2d_58">
      <g>
       <use xlink:href="#mdb4a2e7140" x="147.7515" y="391.724622" style="stroke: #000000; stroke-width: 2"/>
      </g>
     </g>
     <g id="text_11">
      <!-- I-Norm -->
      <g transform="translate(130.949 411.098216)scale(0.11 -0.11)">
       <defs>
        <path id="ArialMT-49" d="M 597 0 
L 597 4581 
L 1203 4581 
L 1203 0 
L 597 0 
z
" transform="scale(0.015625)"/>
        <path id="ArialMT-2d" d="M 203 1375 
L 203 1941 
L 1931 1941 
L 1931 1375 
L 203 1375 
z
" transform="scale(0.015625)"/>
        <path id="ArialMT-4e" d="M 488 0 
L 488 4581 
L 1109 4581 
L 3516 984 
L 3516 4581 
L 4097 4581 
L 4097 0 
L 3475 0 
L 1069 3600 
L 1069 0 
L 488 0 
z
" transform="scale(0.015625)"/>
        <path id="ArialMT-6f" d="M 213 1659 
Q 213 2581 725 3025 
Q 1153 3394 1769 3394 
Q 2453 3394 2887 2945 
Q 3322 2497 3322 1706 
Q 3322 1066 3130 698 
Q 2938 331 2570 128 
Q 2203 -75 1769 -75 
Q 1072 -75 642 372 
Q 213 819 213 1659 
z
M 791 1659 
Q 791 1022 1069 705 
Q 1347 388 1769 388 
Q 2188 388 2466 706 
Q 2744 1025 2744 1678 
Q 2744 2294 2464 2611 
Q 2184 2928 1769 2928 
Q 1347 2928 1069 2612 
Q 791 2297 791 1659 
z
" transform="scale(0.015625)"/>
        <path id="ArialMT-72" d="M 416 0 
L 416 3319 
L 922 3319 
L 922 2816 
Q 1116 3169 1280 3281 
Q 1444 3394 1641 3394 
Q 1925 3394 2219 3213 
L 2025 2691 
Q 1819 2813 1613 2813 
Q 1428 2813 1281 2702 
Q 1134 2591 1072 2394 
Q 978 2094 978 1738 
L 978 0 
L 416 0 
z
" transform="scale(0.015625)"/>
        <path id="ArialMT-6d" d="M 422 0 
L 422 3319 
L 925 3319 
L 925 2853 
Q 1081 3097 1340 3245 
Q 1600 3394 1931 3394 
Q 2300 3394 2536 3241 
Q 2772 3088 2869 2813 
Q 3263 3394 3894 3394 
Q 4388 3394 4653 3120 
Q 4919 2847 4919 2278 
L 4919 0 
L 4359 0 
L 4359 2091 
Q 4359 2428 4304 2576 
Q 4250 2725 4106 2815 
Q 3963 2906 3769 2906 
Q 3419 2906 3187 2673 
Q 2956 2441 2956 1928 
L 2956 0 
L 2394 0 
L 2394 2156 
Q 2394 2531 2256 2718 
Q 2119 2906 1806 2906 
Q 1569 2906 1367 2781 
Q 1166 2656 1075 2415 
Q 984 2175 984 1722 
L 984 0 
L 422 0 
z
" transform="scale(0.015625)"/>
       </defs>
       <use xlink:href="#ArialMT-49"/>
       <use xlink:href="#ArialMT-2d" x="27.783203"/>
       <use xlink:href="#ArialMT-4e" x="61.083984"/>
       <use xlink:href="#ArialMT-6f" x="133.300781"/>
       <use xlink:href="#ArialMT-72" x="188.916016"/>
       <use xlink:href="#ArialMT-6d" x="222.216797"/>
      </g>
     </g>
    </g>
    <g id="xtick_10">
     <g id="line2d_59">
      <g>
       <use xlink:href="#mdb4a2e7140" x="317.5553" y="391.724622" style="stroke: #000000; stroke-width: 2"/>
      </g>
     </g>
     <g id="text_12">
      <!-- No-Norm -->
      <g transform="translate(295.250222 411.098216)scale(0.11 -0.11)">
       <use xlink:href="#ArialMT-4e"/>
       <use xlink:href="#ArialMT-6f" x="72.216797"/>
       <use xlink:href="#ArialMT-2d" x="127.832031"/>
       <use xlink:href="#ArialMT-4e" x="161.132812"/>
       <use xlink:href="#ArialMT-6f" x="233.349609"/>
       <use xlink:href="#ArialMT-72" x="288.964844"/>
       <use xlink:href="#ArialMT-6d" x="322.265625"/>
      </g>
     </g>
    </g>
    <g id="xtick_11">
     <g id="line2d_60">
      <g>
       <use xlink:href="#mdb4a2e7140" x="487.3591" y="391.724622" style="stroke: #000000; stroke-width: 2"/>
      </g>
     </g>
     <g id="text_13">
      <!-- I-Norm -->
      <g transform="translate(470.5566 411.098216)scale(0.11 -0.11)">
       <use xlink:href="#ArialMT-49"/>
       <use xlink:href="#ArialMT-2d" x="27.783203"/>
       <use xlink:href="#ArialMT-4e" x="61.083984"/>
       <use xlink:href="#ArialMT-6f" x="133.300781"/>
       <use xlink:href="#ArialMT-72" x="188.916016"/>
       <use xlink:href="#ArialMT-6d" x="222.216797"/>
      </g>
     </g>
    </g>
    <g id="xtick_12">
     <g id="line2d_61">
      <g>
       <use xlink:href="#mdb4a2e7140" x="657.1629" y="391.724622" style="stroke: #000000; stroke-width: 2"/>
      </g>
     </g>
     <g id="text_14">
      <!-- No-Norm -->
      <g transform="translate(634.857822 411.098216)scale(0.11 -0.11)">
       <use xlink:href="#ArialMT-4e"/>
       <use xlink:href="#ArialMT-6f" x="72.216797"/>
       <use xlink:href="#ArialMT-2d" x="127.832031"/>
       <use xlink:href="#ArialMT-4e" x="161.132812"/>
       <use xlink:href="#ArialMT-6f" x="233.349609"/>
       <use xlink:href="#ArialMT-72" x="288.964844"/>
       <use xlink:href="#ArialMT-6d" x="322.265625"/>
      </g>
     </g>
    </g>
    <g id="xtick_13">
     <g id="line2d_62">
      <g>
       <use xlink:href="#mdb4a2e7140" x="826.9667" y="391.724622" style="stroke: #000000; stroke-width: 2"/>
      </g>
     </g>
     <g id="text_15">
      <!-- I-Norm -->
      <g transform="translate(810.1642 411.098216)scale(0.11 -0.11)">
       <use xlink:href="#ArialMT-49"/>
       <use xlink:href="#ArialMT-2d" x="27.783203"/>
       <use xlink:href="#ArialMT-4e" x="61.083984"/>
       <use xlink:href="#ArialMT-6f" x="133.300781"/>
       <use xlink:href="#ArialMT-72" x="188.916016"/>
       <use xlink:href="#ArialMT-6d" x="222.216797"/>
      </g>
     </g>
    </g>
    <g id="xtick_14">
     <g id="line2d_63">
      <g>
       <use xlink:href="#mdb4a2e7140" x="996.7705" y="391.724622" style="stroke: #000000; stroke-width: 2"/>
      </g>
     </g>
     <g id="text_16">
      <!-- No-Norm -->
      <g transform="translate(974.465422 411.098216)scale(0.11 -0.11)">
       <use xlink:href="#ArialMT-4e"/>
       <use xlink:href="#ArialMT-6f" x="72.216797"/>
       <use xlink:href="#ArialMT-2d" x="127.832031"/>
       <use xlink:href="#ArialMT-4e" x="161.132812"/>
       <use xlink:href="#ArialMT-6f" x="233.349609"/>
       <use xlink:href="#ArialMT-72" x="288.964844"/>
       <use xlink:href="#ArialMT-6d" x="322.265625"/>
      </g>
     </g>
    </g>
    <g id="xtick_15">
     <g id="line2d_64">
      <g>
       <use xlink:href="#mdb4a2e7140" x="1166.5743" y="391.724622" style="stroke: #000000; stroke-width: 2"/>
      </g>
     </g>
     <g id="text_17">
      <!-- I-Norm -->
      <g transform="translate(1149.7718 411.098216)scale(0.11 -0.11)">
       <use xlink:href="#ArialMT-49"/>
       <use xlink:href="#ArialMT-2d" x="27.783203"/>
       <use xlink:href="#ArialMT-4e" x="61.083984"/>
       <use xlink:href="#ArialMT-6f" x="133.300781"/>
       <use xlink:href="#ArialMT-72" x="188.916016"/>
       <use xlink:href="#ArialMT-6d" x="222.216797"/>
      </g>
     </g>
    </g>
    <g id="xtick_16">
     <g id="line2d_65">
      <g>
       <use xlink:href="#mdb4a2e7140" x="1336.3781" y="391.724622" style="stroke: #000000; stroke-width: 2"/>
      </g>
     </g>
     <g id="text_18">
      <!-- No-Norm -->
      <g transform="translate(1314.073022 411.098216)scale(0.11 -0.11)">
       <use xlink:href="#ArialMT-4e"/>
       <use xlink:href="#ArialMT-6f" x="72.216797"/>
       <use xlink:href="#ArialMT-2d" x="127.832031"/>
       <use xlink:href="#ArialMT-4e" x="161.132812"/>
       <use xlink:href="#ArialMT-6f" x="233.349609"/>
       <use xlink:href="#ArialMT-72" x="288.964844"/>
       <use xlink:href="#ArialMT-6d" x="322.265625"/>
      </g>
     </g>
    </g>
   </g>
   <g id="matplotlib.axis_4">
    <g id="ytick_6">
     <g id="line2d_66">
      <g>
       <use xlink:href="#m030dc29080" x="62.8496" y="339.217557" style="stroke: #000000; stroke-width: 2"/>
      </g>
     </g>
     <g id="text_19">
      <!-- $\mathdefault{10^{0}}$ -->
      <g transform="translate(24.22 348.127557)scale(0.1728 -0.1728)">
       <use xlink:href="#ArialMT-31" transform="translate(0 0.99375)"/>
       <use xlink:href="#ArialMT-30" transform="translate(55.615234 0.99375)"/>
       <use xlink:href="#ArialMT-30" transform="translate(112.972813 70.6875)scale(0.7)"/>
      </g>
     </g>
    </g>
    <g id="ytick_7">
     <g id="line2d_67">
      <defs>
       <path id="m58626a6e3c" d="M 0 0 
L -2 0 
" style="stroke: #000000; stroke-width: 0.6"/>
      </defs>
      <g>
       <use xlink:href="#m58626a6e3c" x="62.8496" y="386.428664" style="stroke: #000000; stroke-width: 0.6"/>
      </g>
     </g>
    </g>
    <g id="ytick_8">
     <g id="line2d_68">
      <g>
       <use xlink:href="#m58626a6e3c" x="62.8496" y="374.010519" style="stroke: #000000; stroke-width: 0.6"/>
      </g>
     </g>
    </g>
    <g id="ytick_9">
     <g id="line2d_69">
      <g>
       <use xlink:href="#m58626a6e3c" x="62.8496" y="363.511126" style="stroke: #000000; stroke-width: 0.6"/>
      </g>
     </g>
    </g>
    <g id="ytick_10">
     <g id="line2d_70">
      <g>
       <use xlink:href="#m58626a6e3c" x="62.8496" y="354.416139" style="stroke: #000000; stroke-width: 0.6"/>
      </g>
     </g>
    </g>
    <g id="ytick_11">
     <g id="line2d_71">
      <g>
       <use xlink:href="#m58626a6e3c" x="62.8496" y="346.393791" style="stroke: #000000; stroke-width: 0.6"/>
      </g>
     </g>
    </g>
    <g id="ytick_12">
     <g id="line2d_72">
      <g>
       <use xlink:href="#m58626a6e3c" x="62.8496" y="292.006449" style="stroke: #000000; stroke-width: 0.6"/>
      </g>
     </g>
    </g>
    <g id="ytick_13">
     <g id="line2d_73">
      <g>
       <use xlink:href="#m58626a6e3c" x="62.8496" y="264.389722" style="stroke: #000000; stroke-width: 0.6"/>
      </g>
     </g>
    </g>
    <g id="ytick_14">
     <g id="line2d_74">
      <g>
       <use xlink:href="#m58626a6e3c" x="62.8496" y="244.795342" style="stroke: #000000; stroke-width: 0.6"/>
      </g>
     </g>
    </g>
    <g id="ytick_15">
     <g id="line2d_75">
      <g>
       <use xlink:href="#m58626a6e3c" x="62.8496" y="229.59676" style="stroke: #000000; stroke-width: 0.6"/>
      </g>
     </g>
    </g>
    <g id="ytick_16">
     <g id="line2d_76">
      <g>
       <use xlink:href="#m58626a6e3c" x="62.8496" y="217.178614" style="stroke: #000000; stroke-width: 0.6"/>
      </g>
     </g>
    </g>
    <g id="text_20">
     <!-- $\sigma^2$ -->
     <g transform="translate(17.4375 312.363101)rotate(-90)scale(0.14 -0.14)">
      <defs>
       <path id="DejaVuSans-Oblique-3c3" d="M 2219 3044 
Q 1744 3044 1422 2700 
Q 1081 2341 969 1747 
Q 844 1119 1044 756 
Q 1241 397 1706 397 
Q 2166 397 2503 759 
Q 2844 1122 2966 1747 
Q 3075 2319 2881 2700 
Q 2700 3044 2219 3044 
z
M 2309 3503 
L 4219 3500 
L 4106 2925 
L 3463 2925 
Q 3706 2438 3575 1747 
Q 3406 888 2884 400 
Q 2359 -91 1609 -91 
Q 856 -91 525 400 
Q 194 888 363 1747 
Q 528 2609 1050 3097 
Q 1484 3503 2309 3503 
z
" transform="scale(0.015625)"/>
      </defs>
      <use xlink:href="#DejaVuSans-Oblique-3c3" transform="translate(0 0.765625)"/>
      <use xlink:href="#DejaVuSans-32" transform="translate(67.851615 39.046875)scale(0.7)"/>
     </g>
    </g>
   </g>
   <g id="patch_14">
    <path d="M 96.81036 340.187932 
L 198.69264 340.187932 
L 198.69264 339.397745 
L 96.81036 339.397745 
L 96.81036 340.187932 
L 96.81036 340.187932 
z
" clip-path="url(#p00a0361583)" style="fill: none; stroke: #000000; stroke-linejoin: miter"/>
   </g>
   <g id="line2d_77">
    <path d="M 147.7515 340.187932 
L 147.7515 340.187932 
" clip-path="url(#p00a0361583)" style="fill: none; stroke: #000000; stroke-linecap: square"/>
   </g>
   <g id="line2d_78">
    <path d="M 147.7515 339.397745 
L 147.7515 339.397745 
" clip-path="url(#p00a0361583)" style="fill: none; stroke: #000000; stroke-linecap: square"/>
   </g>
   <g id="line2d_79">
    <path d="M 122.28093 340.187932 
L 173.22207 340.187932 
" clip-path="url(#p00a0361583)" style="fill: none; stroke: #000000; stroke-linecap: square"/>
   </g>
   <g id="line2d_80">
    <path d="M 122.28093 339.397745 
L 173.22207 339.397745 
" clip-path="url(#p00a0361583)" style="fill: none; stroke: #000000; stroke-linecap: square"/>
   </g>
   <g id="patch_15">
    <path d="M 266.61416 354.061709 
L 368.49644 354.061709 
L 368.49644 308.881868 
L 266.61416 308.881868 
L 266.61416 354.061709 
L 266.61416 354.061709 
z
" clip-path="url(#p00a0361583)" style="fill: none; stroke: #000000; stroke-linejoin: miter"/>
   </g>
   <g id="line2d_81">
    <path d="M 317.5553 354.061709 
L 317.5553 375.591329 
" clip-path="url(#p00a0361583)" style="fill: none; stroke: #000000; stroke-linecap: square"/>
   </g>
   <g id="line2d_82">
    <path d="M 317.5553 308.881868 
L 317.5553 282.260119 
" clip-path="url(#p00a0361583)" style="fill: none; stroke: #000000; stroke-linecap: square"/>
   </g>
   <g id="line2d_83">
    <path d="M 292.08473 375.591329 
L 343.02587 375.591329 
" clip-path="url(#p00a0361583)" style="fill: none; stroke: #000000; stroke-linecap: square"/>
   </g>
   <g id="line2d_84">
    <path d="M 292.08473 282.260119 
L 343.02587 282.260119 
" clip-path="url(#p00a0361583)" style="fill: none; stroke: #000000; stroke-linecap: square"/>
   </g>
   <g id="patch_16">
    <path d="M 436.41796 339.687789 
L 538.30024 339.687789 
L 538.30024 339.579454 
L 436.41796 339.579454 
L 436.41796 339.687789 
L 436.41796 339.687789 
z
" clip-path="url(#p00a0361583)" style="fill: none; stroke: #000000; stroke-linejoin: miter"/>
   </g>
   <g id="line2d_85">
    <path d="M 487.3591 339.687789 
L 487.3591 339.687789 
" clip-path="url(#p00a0361583)" style="fill: none; stroke: #000000; stroke-linecap: square"/>
   </g>
   <g id="line2d_86">
    <path d="M 487.3591 339.579454 
L 487.3591 339.579454 
" clip-path="url(#p00a0361583)" style="fill: none; stroke: #000000; stroke-linecap: square"/>
   </g>
   <g id="line2d_87">
    <path d="M 461.88853 339.687789 
L 512.82967 339.687789 
" clip-path="url(#p00a0361583)" style="fill: none; stroke: #000000; stroke-linecap: square"/>
   </g>
   <g id="line2d_88">
    <path d="M 461.88853 339.579454 
L 512.82967 339.579454 
" clip-path="url(#p00a0361583)" style="fill: none; stroke: #000000; stroke-linecap: square"/>
   </g>
   <g id="patch_17">
    <path d="M 606.22176 365.88619 
L 708.10404 365.88619 
L 708.10404 328.350621 
L 606.22176 328.350621 
L 606.22176 365.88619 
L 606.22176 365.88619 
z
" clip-path="url(#p00a0361583)" style="fill: none; stroke: #000000; stroke-linejoin: miter"/>
   </g>
   <g id="line2d_89">
    <path d="M 657.1629 365.88619 
L 657.1629 385.466384 
" clip-path="url(#p00a0361583)" style="fill: none; stroke: #000000; stroke-linecap: square"/>
   </g>
   <g id="line2d_90">
    <path d="M 657.1629 328.350621 
L 657.1629 304.466153 
" clip-path="url(#p00a0361583)" style="fill: none; stroke: #000000; stroke-linecap: square"/>
   </g>
   <g id="line2d_91">
    <path d="M 631.69233 385.466384 
L 682.63347 385.466384 
" clip-path="url(#p00a0361583)" style="fill: none; stroke: #000000; stroke-linecap: square"/>
   </g>
   <g id="line2d_92">
    <path d="M 631.69233 304.466153 
L 682.63347 304.466153 
" clip-path="url(#p00a0361583)" style="fill: none; stroke: #000000; stroke-linecap: square"/>
   </g>
   <g id="patch_18">
    <path d="M 776.02556 340.45436 
L 877.90784 340.45436 
L 877.90784 339.908127 
L 776.02556 339.908127 
L 776.02556 340.45436 
L 776.02556 340.45436 
z
" clip-path="url(#p00a0361583)" style="fill: none; stroke: #000000; stroke-linejoin: miter"/>
   </g>
   <g id="line2d_93">
    <path d="M 826.9667 340.45436 
L 826.9667 340.45436 
" clip-path="url(#p00a0361583)" style="fill: none; stroke: #000000; stroke-linecap: square"/>
   </g>
   <g id="line2d_94">
    <path d="M 826.9667 339.908127 
L 826.9667 339.908127 
" clip-path="url(#p00a0361583)" style="fill: none; stroke: #000000; stroke-linecap: square"/>
   </g>
   <g id="line2d_95">
    <path d="M 801.49613 340.45436 
L 852.43727 340.45436 
" clip-path="url(#p00a0361583)" style="fill: none; stroke: #000000; stroke-linecap: square"/>
   </g>
   <g id="line2d_96">
    <path d="M 801.49613 339.908127 
L 852.43727 339.908127 
" clip-path="url(#p00a0361583)" style="fill: none; stroke: #000000; stroke-linecap: square"/>
   </g>
   <g id="patch_19">
    <path d="M 945.82936 350.483036 
L 1047.71164 350.483036 
L 1047.71164 308.024061 
L 945.82936 308.024061 
L 945.82936 350.483036 
L 945.82936 350.483036 
z
" clip-path="url(#p00a0361583)" style="fill: none; stroke: #000000; stroke-linejoin: miter"/>
   </g>
   <g id="line2d_97">
    <path d="M 996.7705 350.483036 
L 996.7705 367.023994 
" clip-path="url(#p00a0361583)" style="fill: none; stroke: #000000; stroke-linecap: square"/>
   </g>
   <g id="line2d_98">
    <path d="M 996.7705 308.024061 
L 996.7705 300.093124 
" clip-path="url(#p00a0361583)" style="fill: none; stroke: #000000; stroke-linecap: square"/>
   </g>
   <g id="line2d_99">
    <path d="M 971.29993 367.023994 
L 1022.24107 367.023994 
" clip-path="url(#p00a0361583)" style="fill: none; stroke: #000000; stroke-linecap: square"/>
   </g>
   <g id="line2d_100">
    <path d="M 971.29993 300.093124 
L 1022.24107 300.093124 
" clip-path="url(#p00a0361583)" style="fill: none; stroke: #000000; stroke-linecap: square"/>
   </g>
   <g id="patch_20">
    <path d="M 1115.63316 384.329245 
L 1217.51544 384.329245 
L 1217.51544 341.620095 
L 1115.63316 341.620095 
L 1115.63316 384.329245 
L 1115.63316 384.329245 
z
" clip-path="url(#p00a0361583)" style="fill: none; stroke: #000000; stroke-linejoin: miter"/>
   </g>
   <g id="line2d_101">
    <path d="M 1166.5743 384.329245 
L 1166.5743 384.329245 
" clip-path="url(#p00a0361583)" style="fill: none; stroke: #000000; stroke-linecap: square"/>
   </g>
   <g id="line2d_102">
    <path d="M 1166.5743 341.620095 
L 1166.5743 341.620095 
" clip-path="url(#p00a0361583)" style="fill: none; stroke: #000000; stroke-linecap: square"/>
   </g>
   <g id="line2d_103">
    <path d="M 1141.10373 384.329245 
L 1192.04487 384.329245 
" clip-path="url(#p00a0361583)" style="fill: none; stroke: #000000; stroke-linecap: square"/>
   </g>
   <g id="line2d_104">
    <path d="M 1141.10373 341.620095 
L 1192.04487 341.620095 
" clip-path="url(#p00a0361583)" style="fill: none; stroke: #000000; stroke-linecap: square"/>
   </g>
   <g id="patch_21">
    <path d="M 1285.43696 313.93416 
L 1387.31924 313.93416 
L 1387.31924 282.984123 
L 1285.43696 282.984123 
L 1285.43696 313.93416 
L 1285.43696 313.93416 
z
" clip-path="url(#p00a0361583)" style="fill: none; stroke: #000000; stroke-linejoin: miter"/>
   </g>
   <g id="line2d_105">
    <path d="M 1336.3781 313.93416 
L 1336.3781 335.430998 
" clip-path="url(#p00a0361583)" style="fill: none; stroke: #000000; stroke-linecap: square"/>
   </g>
   <g id="line2d_106">
    <path d="M 1336.3781 282.984123 
L 1336.3781 260.301615 
" clip-path="url(#p00a0361583)" style="fill: none; stroke: #000000; stroke-linecap: square"/>
   </g>
   <g id="line2d_107">
    <path d="M 1310.90753 335.430998 
L 1361.84867 335.430998 
" clip-path="url(#p00a0361583)" style="fill: none; stroke: #000000; stroke-linecap: square"/>
   </g>
   <g id="line2d_108">
    <path d="M 1310.90753 260.301615 
L 1361.84867 260.301615 
" clip-path="url(#p00a0361583)" style="fill: none; stroke: #000000; stroke-linecap: square"/>
   </g>
   <g id="line2d_109">
    <path d="M 62.8496 339.217557 
L 1421.28 339.217557 
" clip-path="url(#p00a0361583)" style="fill: none; stroke-dasharray: 1.5,2.475; stroke-dashoffset: 0; stroke: #000000; stroke-width: 1.5"/>
   </g>
   <g id="line2d_110">
    <path d="M 402.4572 391.724622 
L 402.4572 216.76158 
" clip-path="url(#p00a0361583)" style="fill: none; stroke-dasharray: 1,1.65; stroke-dashoffset: 0; stroke: #808080"/>
   </g>
   <g id="line2d_111">
    <path d="M 742.0648 391.724622 
L 742.0648 216.76158 
" clip-path="url(#p00a0361583)" style="fill: none; stroke-dasharray: 1,1.65; stroke-dashoffset: 0; stroke: #808080"/>
   </g>
   <g id="line2d_112">
    <path d="M 1081.6724 391.724622 
L 1081.6724 216.76158 
" clip-path="url(#p00a0361583)" style="fill: none; stroke-dasharray: 1,1.65; stroke-dashoffset: 0; stroke: #808080"/>
   </g>
   <g id="line2d_113">
    <path d="M 96.81036 339.791693 
L 198.69264 339.791693 
" clip-path="url(#p00a0361583)" style="fill: none; stroke: #000000; stroke-width: 2.5; stroke-linecap: square"/>
   </g>
   <g id="line2d_114">
    <path d="M 266.61416 326.751995 
L 368.49644 326.751995 
" clip-path="url(#p00a0361583)" style="fill: none; stroke: #000000; stroke-width: 2.5; stroke-linecap: square"/>
   </g>
   <g id="line2d_115">
    <path d="M 436.41796 339.6336 
L 538.30024 339.6336 
" clip-path="url(#p00a0361583)" style="fill: none; stroke: #000000; stroke-width: 2.5; stroke-linecap: square"/>
   </g>
   <g id="line2d_116">
    <path d="M 606.22176 338.308115 
L 708.10404 338.308115 
" clip-path="url(#p00a0361583)" style="fill: none; stroke: #000000; stroke-width: 2.5; stroke-linecap: square"/>
   </g>
   <g id="line2d_117">
    <path d="M 776.02556 340.180696 
L 877.90784 340.180696 
" clip-path="url(#p00a0361583)" style="fill: none; stroke: #000000; stroke-width: 2.5; stroke-linecap: square"/>
   </g>
   <g id="line2d_118">
    <path d="M 945.82936 326.120679 
L 1047.71164 326.120679 
" clip-path="url(#p00a0361583)" style="fill: none; stroke: #000000; stroke-width: 2.5; stroke-linecap: square"/>
   </g>
   <g id="line2d_119">
    <path d="M 1115.63316 359.680521 
L 1217.51544 359.680521 
" clip-path="url(#p00a0361583)" style="fill: none; stroke: #000000; stroke-width: 2.5; stroke-linecap: square"/>
   </g>
   <g id="line2d_120">
    <path d="M 1285.43696 302.340259 
L 1387.31924 302.340259 
" clip-path="url(#p00a0361583)" style="fill: none; stroke: #000000; stroke-width: 2.5; stroke-linecap: square"/>
   </g>
   <g id="patch_22">
    <path d="M 62.8496 391.724622 
L 62.8496 216.76158 
" style="fill: none; stroke: #000000; stroke-width: 1.5; stroke-linejoin: miter; stroke-linecap: square"/>
   </g>
   <g id="patch_23">
    <path d="M 62.8496 391.724622 
L 1421.28 391.724622 
" style="fill: none; stroke: #000000; stroke-width: 1.5; stroke-linejoin: miter; stroke-linecap: square"/>
   </g>
  </g>
 </g>
 <defs>
  <clipPath id="p375ae0723f">
   <rect x="62.8496" y="20.838537" width="1358.4304" height="174.963043"/>
  </clipPath>
  <clipPath id="p00a0361583">
   <rect x="62.8496" y="216.76158" width="1358.4304" height="174.963043"/>
  </clipPath>
 </defs>
</svg>
