<?xml version="1.0" encoding="utf-8" standalone="no"?>
<!DOCTYPE svg PUBLIC "-//W3C//DTD SVG 1.1//EN"
  "http://www.w3.org/Graphics/SVG/1.1/DTD/svg11.dtd">
<svg xmlns:xlink="http://www.w3.org/1999/xlink" width="449.28pt" height="334.08pt" viewBox="0 0 449.28 334.08" xmlns="http://www.w3.org/2000/svg" version="1.1">
 <metadata>
  <rdf:RDF xmlns:dc="http://purl.org/dc/elements/1.1/" xmlns:cc="http://creativecommons.org/ns#" xmlns:rdf="http://www.w3.org/1999/02/22-rdf-syntax-ns#">
   <cc:Work>
    <dc:type rdf:resource="http://purl.org/dc/dcmitype/StillImage"/>
    <dc:date>2025-07-30T20:51:26.693509</dc:date>
    <dc:format>image/svg+xml</dc:format>
    <dc:creator>
     <cc:Agent>
      <dc:title>Matplotlib v3.5.3, https://matplotlib.org/</dc:title>
     </cc:Agent>
    </dc:creator>
   </cc:Work>
  </rdf:RDF>
 </metadata>
 <defs>
  <style type="text/css">*{stroke-linejoin: round; stroke-linecap: butt}</style>
 </defs>
 <g id="figure_1">
  <g id="patch_1">
   <path d="M 0 334.08 
L 449.28 334.08 
L 449.28 0 
L 0 0 
z
" style="fill: #ffffff"/>
  </g>
  <g id="axes_1">
   <g id="patch_2">
    <path d="M 63.234375 274.79875 
L 442.08 274.79875 
L 442.08 7.2 
L 63.234375 7.2 
z
" style="fill: #ffffff"/>
   </g>
   <g id="PathCollection_1">
    <defs>
     <path id="m5d64b013ed" d="M 0 5 
C 1.326016 5 2.597899 4.473168 3.535534 3.535534 
C 4.473168 2.597899 5 1.326016 5 0 
C 5 -1.326016 4.473168 -2.597899 3.535534 -3.535534 
C 2.597899 -4.473168 1.326016 -5 0 -5 
C -1.326016 -5 -2.597899 -4.473168 -3.535534 -3.535534 
C -4.473168 -2.597899 -5 -1.326016 -5 0 
C -5 1.326016 -4.473168 2.597899 -3.535534 3.535534 
C -2.597899 4.473168 -1.326016 5 0 5 
z
" style="stroke: #000000; stroke-width: 2.5"/>
    </defs>
    <g clip-path="url(#pa6c28b6371)">
     <use xlink:href="#m5d64b013ed" x="394.934767" y="69.19371" style="stroke: #000000; stroke-width: 2.5"/>
    </g>
   </g>
   <g id="PathCollection_2">
    <g clip-path="url(#pa6c28b6371)">
     <use xlink:href="#m5d64b013ed" x="350.73611" y="84.654972" style="stroke: #000000; stroke-width: 2.5"/>
    </g>
   </g>
   <g id="PathCollection_3">
    <g clip-path="url(#pa6c28b6371)">
     <use xlink:href="#m5d64b013ed" x="395.987116" y="86.290297" style="stroke: #000000; stroke-width: 2.5"/>
    </g>
   </g>
   <g id="PathCollection_4">
    <g clip-path="url(#pa6c28b6371)">
     <use xlink:href="#m5d64b013ed" x="368.415573" y="90.304278" style="stroke: #000000; stroke-width: 2.5"/>
    </g>
   </g>
   <g id="PathCollection_5">
    <g clip-path="url(#pa6c28b6371)">
     <use xlink:href="#m5d64b013ed" x="386.515975" y="93.128932" style="stroke: #000000; stroke-width: 2.5"/>
    </g>
   </g>
   <g id="PathCollection_6">
    <g clip-path="url(#pa6c28b6371)">
     <use xlink:href="#m5d64b013ed" x="371.15168" y="94.912924" style="stroke: #000000; stroke-width: 2.5"/>
    </g>
   </g>
   <g id="PathCollection_7">
    <g clip-path="url(#pa6c28b6371)">
     <use xlink:href="#m5d64b013ed" x="377.886714" y="96.845581" style="stroke: #000000; stroke-width: 2.5"/>
    </g>
   </g>
   <g id="PathCollection_8">
    <g clip-path="url(#pa6c28b6371)">
     <use xlink:href="#m5d64b013ed" x="364.206177" y="98.480907" style="stroke: #000000; stroke-width: 2.5"/>
    </g>
   </g>
   <g id="PathCollection_9">
    <g clip-path="url(#pa6c28b6371)">
     <use xlink:href="#m5d64b013ed" x="372.624969" y="103.684216" style="stroke: #000000; stroke-width: 2.5"/>
    </g>
   </g>
   <g id="PathCollection_10">
    <g clip-path="url(#pa6c28b6371)">
     <use xlink:href="#m5d64b013ed" x="362.522419" y="107.698197" style="stroke: #000000; stroke-width: 2.5"/>
    </g>
   </g>
   <g id="PathCollection_11">
    <g clip-path="url(#pa6c28b6371)">
     <use xlink:href="#m5d64b013ed" x="378.518123" y="108.144195" style="stroke: #000000; stroke-width: 2.5"/>
    </g>
   </g>
   <g id="PathCollection_12">
    <g clip-path="url(#pa6c28b6371)">
     <use xlink:href="#m5d64b013ed" x="316.850474" y="113.793502" style="stroke: #000000; stroke-width: 2.5"/>
    </g>
   </g>
   <g id="PathCollection_13">
    <g clip-path="url(#pa6c28b6371)">
     <use xlink:href="#m5d64b013ed" x="379.149532" y="117.807483" style="stroke: #000000; stroke-width: 2.5"/>
    </g>
   </g>
   <g id="PathCollection_14">
    <g clip-path="url(#pa6c28b6371)">
     <use xlink:href="#m5d64b013ed" x="360.417721" y="125.240782" style="stroke: #000000; stroke-width: 2.5"/>
    </g>
   </g>
   <g id="PathCollection_15">
    <g clip-path="url(#pa6c28b6371)">
     <use xlink:href="#m5d64b013ed" x="324.848326" y="126.727442" style="stroke: #000000; stroke-width: 2.5"/>
    </g>
   </g>
   <g id="PathCollection_16">
    <g clip-path="url(#pa6c28b6371)">
     <use xlink:href="#m5d64b013ed" x="347.579064" y="132.376749" style="stroke: #000000; stroke-width: 2.5"/>
    </g>
   </g>
   <g id="PathCollection_17">
    <g clip-path="url(#pa6c28b6371)">
     <use xlink:href="#m5d64b013ed" x="359.154902" y="134.16074" style="stroke: #000000; stroke-width: 2.5"/>
    </g>
   </g>
   <g id="PathCollection_18">
    <g clip-path="url(#pa6c28b6371)">
     <use xlink:href="#m5d64b013ed" x="377.255304" y="134.755404" style="stroke: #000000; stroke-width: 2.5"/>
    </g>
   </g>
   <g id="PathCollection_19">
    <g clip-path="url(#pa6c28b6371)">
     <use xlink:href="#m5d64b013ed" x="345.684835" y="135.498734" style="stroke: #000000; stroke-width: 2.5"/>
    </g>
   </g>
   <g id="PathCollection_20">
    <g clip-path="url(#pa6c28b6371)">
     <use xlink:href="#m5d64b013ed" x="307.168864" y="143.378031" style="stroke: #000000; stroke-width: 2.5"/>
    </g>
   </g>
   <g id="PathCollection_21">
    <g clip-path="url(#pa6c28b6371)">
     <use xlink:href="#m5d64b013ed" x="388.831143" y="145.310688" style="stroke: #000000; stroke-width: 2.5"/>
    </g>
   </g>
   <g id="PathCollection_22">
    <g clip-path="url(#pa6c28b6371)">
     <use xlink:href="#m5d64b013ed" x="290.54175" y="145.756686" style="stroke: #000000; stroke-width: 2.5"/>
    </g>
   </g>
   <g id="PathCollection_23">
    <g clip-path="url(#pa6c28b6371)">
     <use xlink:href="#m5d64b013ed" x="336.634634" y="146.202684" style="stroke: #000000; stroke-width: 2.5"/>
    </g>
   </g>
   <g id="PathCollection_24">
    <g clip-path="url(#pa6c28b6371)">
     <use xlink:href="#m5d64b013ed" x="302.748998" y="148.135342" style="stroke: #000000; stroke-width: 2.5"/>
    </g>
   </g>
   <g id="PathCollection_25">
    <g clip-path="url(#pa6c28b6371)">
     <use xlink:href="#m5d64b013ed" x="350.315171" y="151.703325" style="stroke: #000000; stroke-width: 2.5"/>
    </g>
   </g>
   <g id="PathCollection_26">
    <g clip-path="url(#pa6c28b6371)">
     <use xlink:href="#m5d64b013ed" x="306.537454" y="152.595321" style="stroke: #000000; stroke-width: 2.5"/>
    </g>
   </g>
   <g id="PathCollection_27">
    <g clip-path="url(#pa6c28b6371)">
     <use xlink:href="#m5d64b013ed" x="324.848326" y="172.367895" style="stroke: #000000; stroke-width: 2.5"/>
    </g>
   </g>
   <g id="PathCollection_28">
    <g clip-path="url(#pa6c28b6371)">
     <use xlink:href="#m5d64b013ed" x="302.748998" y="172.962559" style="stroke: #000000; stroke-width: 2.5"/>
    </g>
   </g>
   <g id="PathCollection_29">
    <g clip-path="url(#pa6c28b6371)">
     <use xlink:href="#m5d64b013ed" x="311.16779" y="176.530542" style="stroke: #000000; stroke-width: 2.5"/>
    </g>
   </g>
   <g id="PathCollection_30">
    <g clip-path="url(#pa6c28b6371)">
     <use xlink:href="#m5d64b013ed" x="272.651818" y="209.08839" style="stroke: #000000; stroke-width: 2.5"/>
    </g>
   </g>
   <g id="PathCollection_31">
    <g clip-path="url(#pa6c28b6371)">
     <use xlink:href="#m5d64b013ed" x="272.651818" y="209.08839" style="stroke: #000000; stroke-width: 2.5"/>
    </g>
   </g>
   <g id="matplotlib.axis_1">
    <g id="xtick_1">
     <g id="line2d_1">
      <defs>
       <path id="m09d9c7f826" d="M 0 0 
L 0 8 
" style="stroke: #000000; stroke-width: 2"/>
      </defs>
      <g>
       <use xlink:href="#m09d9c7f826" x="84.281354" y="274.79875" style="stroke: #000000; stroke-width: 2"/>
      </g>
     </g>
     <g id="text_1">
      <!-- 65 -->
      <g transform="translate(73.159479 300.614375)scale(0.2 -0.2)">
       <defs>
        <path id="ArialMT-36" d="M 3184 3459 
L 2625 3416 
Q 2550 3747 2413 3897 
Q 2184 4138 1850 4138 
Q 1581 4138 1378 3988 
Q 1113 3794 959 3422 
Q 806 3050 800 2363 
Q 1003 2672 1297 2822 
Q 1591 2972 1913 2972 
Q 2475 2972 2870 2558 
Q 3266 2144 3266 1488 
Q 3266 1056 3080 686 
Q 2894 316 2569 119 
Q 2244 -78 1831 -78 
Q 1128 -78 684 439 
Q 241 956 241 2144 
Q 241 3472 731 4075 
Q 1159 4600 1884 4600 
Q 2425 4600 2770 4297 
Q 3116 3994 3184 3459 
z
M 888 1484 
Q 888 1194 1011 928 
Q 1134 663 1356 523 
Q 1578 384 1822 384 
Q 2178 384 2434 671 
Q 2691 959 2691 1453 
Q 2691 1928 2437 2201 
Q 2184 2475 1800 2475 
Q 1419 2475 1153 2201 
Q 888 1928 888 1484 
z
" transform="scale(0.015625)"/>
        <path id="ArialMT-35" d="M 266 1200 
L 856 1250 
Q 922 819 1161 601 
Q 1400 384 1738 384 
Q 2144 384 2425 690 
Q 2706 997 2706 1503 
Q 2706 1984 2436 2262 
Q 2166 2541 1728 2541 
Q 1456 2541 1237 2417 
Q 1019 2294 894 2097 
L 366 2166 
L 809 4519 
L 3088 4519 
L 3088 3981 
L 1259 3981 
L 1013 2750 
Q 1425 3038 1878 3038 
Q 2478 3038 2890 2622 
Q 3303 2206 3303 1553 
Q 3303 931 2941 478 
Q 2500 -78 1738 -78 
Q 1113 -78 717 272 
Q 322 622 266 1200 
z
" transform="scale(0.015625)"/>
       </defs>
       <use xlink:href="#ArialMT-36"/>
       <use xlink:href="#ArialMT-35" x="55.615234"/>
      </g>
     </g>
    </g>
    <g id="xtick_2">
     <g id="line2d_2">
      <g>
       <use xlink:href="#m09d9c7f826" x="189.51625" y="274.79875" style="stroke: #000000; stroke-width: 2"/>
      </g>
     </g>
     <g id="text_2">
      <!-- 70 -->
      <g transform="translate(178.394375 300.614375)scale(0.2 -0.2)">
       <defs>
        <path id="ArialMT-37" d="M 303 3981 
L 303 4522 
L 3269 4522 
L 3269 4084 
Q 2831 3619 2401 2847 
Q 1972 2075 1738 1259 
Q 1569 684 1522 0 
L 944 0 
Q 953 541 1156 1306 
Q 1359 2072 1739 2783 
Q 2119 3494 2547 3981 
L 303 3981 
z
" transform="scale(0.015625)"/>
        <path id="ArialMT-30" d="M 266 2259 
Q 266 3072 433 3567 
Q 600 4063 929 4331 
Q 1259 4600 1759 4600 
Q 2128 4600 2406 4451 
Q 2684 4303 2865 4023 
Q 3047 3744 3150 3342 
Q 3253 2941 3253 2259 
Q 3253 1453 3087 958 
Q 2922 463 2592 192 
Q 2263 -78 1759 -78 
Q 1097 -78 719 397 
Q 266 969 266 2259 
z
M 844 2259 
Q 844 1131 1108 757 
Q 1372 384 1759 384 
Q 2147 384 2411 759 
Q 2675 1134 2675 2259 
Q 2675 3391 2411 3762 
Q 2147 4134 1753 4134 
Q 1366 4134 1134 3806 
Q 844 3388 844 2259 
z
" transform="scale(0.015625)"/>
       </defs>
       <use xlink:href="#ArialMT-37"/>
       <use xlink:href="#ArialMT-30" x="55.615234"/>
      </g>
     </g>
    </g>
    <g id="xtick_3">
     <g id="line2d_3">
      <g>
       <use xlink:href="#m09d9c7f826" x="294.751146" y="274.79875" style="stroke: #000000; stroke-width: 2"/>
      </g>
     </g>
     <g id="text_3">
      <!-- 75 -->
      <g transform="translate(283.629271 300.614375)scale(0.2 -0.2)">
       <use xlink:href="#ArialMT-37"/>
       <use xlink:href="#ArialMT-35" x="55.615234"/>
      </g>
     </g>
    </g>
    <g id="xtick_4">
     <g id="line2d_4">
      <g>
       <use xlink:href="#m09d9c7f826" x="399.986042" y="274.79875" style="stroke: #000000; stroke-width: 2"/>
      </g>
     </g>
     <g id="text_4">
      <!-- 80 -->
      <g transform="translate(388.864167 300.614375)scale(0.2 -0.2)">
       <defs>
        <path id="ArialMT-38" d="M 1131 2484 
Q 781 2613 612 2850 
Q 444 3088 444 3419 
Q 444 3919 803 4259 
Q 1163 4600 1759 4600 
Q 2359 4600 2725 4251 
Q 3091 3903 3091 3403 
Q 3091 3084 2923 2848 
Q 2756 2613 2416 2484 
Q 2838 2347 3058 2040 
Q 3278 1734 3278 1309 
Q 3278 722 2862 322 
Q 2447 -78 1769 -78 
Q 1091 -78 675 323 
Q 259 725 259 1325 
Q 259 1772 486 2073 
Q 713 2375 1131 2484 
z
M 1019 3438 
Q 1019 3113 1228 2906 
Q 1438 2700 1772 2700 
Q 2097 2700 2305 2904 
Q 2513 3109 2513 3406 
Q 2513 3716 2298 3927 
Q 2084 4138 1766 4138 
Q 1444 4138 1231 3931 
Q 1019 3725 1019 3438 
z
M 838 1322 
Q 838 1081 952 856 
Q 1066 631 1291 507 
Q 1516 384 1775 384 
Q 2178 384 2440 643 
Q 2703 903 2703 1303 
Q 2703 1709 2433 1975 
Q 2163 2241 1756 2241 
Q 1359 2241 1098 1978 
Q 838 1716 838 1322 
z
" transform="scale(0.015625)"/>
       </defs>
       <use xlink:href="#ArialMT-38"/>
       <use xlink:href="#ArialMT-30" x="55.615234"/>
      </g>
     </g>
    </g>
    <g id="text_5">
     <!-- LN$^+$ -->
     <g transform="translate(230.857187 322.905)scale(0.2 -0.2)">
      <defs>
       <path id="ArialMT-4c" d="M 469 0 
L 469 4581 
L 1075 4581 
L 1075 541 
L 3331 541 
L 3331 0 
L 469 0 
z
" transform="scale(0.015625)"/>
       <path id="ArialMT-4e" d="M 488 0 
L 488 4581 
L 1109 4581 
L 3516 984 
L 3516 4581 
L 4097 4581 
L 4097 0 
L 3475 0 
L 1069 3600 
L 1069 0 
L 488 0 
z
" transform="scale(0.015625)"/>
       <path id="DejaVuSans-2b" d="M 2944 4013 
L 2944 2272 
L 4684 2272 
L 4684 1741 
L 2944 1741 
L 2944 0 
L 2419 0 
L 2419 1741 
L 678 1741 
L 678 2272 
L 2419 2272 
L 2419 4013 
L 2944 4013 
z
" transform="scale(0.015625)"/>
      </defs>
      <use xlink:href="#ArialMT-4c" transform="translate(0 0.826562)"/>
      <use xlink:href="#ArialMT-4e" transform="translate(55.615234 0.826562)"/>
      <use xlink:href="#DejaVuSans-2b" transform="translate(142.426758 39.107812)scale(0.7)"/>
     </g>
    </g>
   </g>
   <g id="matplotlib.axis_2">
    <g id="ytick_1">
     <g id="line2d_5">
      <defs>
       <path id="m9de2f80d7c" d="M 0 0 
L -8 0 
" style="stroke: #000000; stroke-width: 2"/>
      </defs>
      <g>
       <use xlink:href="#m9de2f80d7c" x="63.234375" y="259.932153" style="stroke: #000000; stroke-width: 2"/>
      </g>
     </g>
     <g id="text_6">
      <!-- 65 -->
      <g transform="translate(29.490625 267.089965)scale(0.2 -0.2)">
       <use xlink:href="#ArialMT-36"/>
       <use xlink:href="#ArialMT-35" x="55.615234"/>
      </g>
     </g>
    </g>
    <g id="ytick_2">
     <g id="line2d_6">
      <g>
       <use xlink:href="#m9de2f80d7c" x="63.234375" y="185.599167" style="stroke: #000000; stroke-width: 2"/>
      </g>
     </g>
     <g id="text_7">
      <!-- 70 -->
      <g transform="translate(29.490625 192.756979)scale(0.2 -0.2)">
       <use xlink:href="#ArialMT-37"/>
       <use xlink:href="#ArialMT-30" x="55.615234"/>
      </g>
     </g>
    </g>
    <g id="ytick_3">
     <g id="line2d_7">
      <g>
       <use xlink:href="#m9de2f80d7c" x="63.234375" y="111.266181" style="stroke: #000000; stroke-width: 2"/>
      </g>
     </g>
     <g id="text_8">
      <!-- 75 -->
      <g transform="translate(29.490625 118.423993)scale(0.2 -0.2)">
       <use xlink:href="#ArialMT-37"/>
       <use xlink:href="#ArialMT-35" x="55.615234"/>
      </g>
     </g>
    </g>
    <g id="ytick_4">
     <g id="line2d_8">
      <g>
       <use xlink:href="#m9de2f80d7c" x="63.234375" y="36.933194" style="stroke: #000000; stroke-width: 2"/>
      </g>
     </g>
     <g id="text_9">
      <!-- 80 -->
      <g transform="translate(29.490625 44.091007)scale(0.2 -0.2)">
       <use xlink:href="#ArialMT-38"/>
       <use xlink:href="#ArialMT-30" x="55.615234"/>
      </g>
     </g>
    </g>
    <g id="text_10">
     <!-- LN$^-$ -->
     <g transform="translate(21.515625 162.799375)rotate(-90)scale(0.2 -0.2)">
      <defs>
       <path id="DejaVuSans-2212" d="M 678 2272 
L 4684 2272 
L 4684 1741 
L 678 1741 
L 678 2272 
z
" transform="scale(0.015625)"/>
      </defs>
      <use xlink:href="#ArialMT-4c" transform="translate(0 0.421875)"/>
      <use xlink:href="#ArialMT-4e" transform="translate(55.615234 0.421875)"/>
      <use xlink:href="#DejaVuSans-2212" transform="translate(142.426758 38.703125)scale(0.7)"/>
     </g>
    </g>
   </g>
   <g id="line2d_9">
    <path d="M -1 320.170895 
L 0.093437 319.398542 
L 21.140417 304.531944 
L 42.187396 289.665347 
L 63.234375 274.79875 
L 84.281354 259.932153 
L 105.328333 245.065556 
L 126.375313 230.198958 
L 147.422292 215.332361 
L 168.469271 200.465764 
L 189.51625 185.599167 
L 210.563229 170.732569 
L 231.610208 155.865972 
L 252.657187 140.999375 
L 273.704167 126.132778 
L 294.751146 111.266181 
L 315.798125 96.399583 
L 336.845104 81.532986 
L 357.892083 66.666389 
L 378.939062 51.799792 
L 399.986042 36.933194 
L 421.033021 22.066597 
L 442.08 7.2 
L 450.28 1.407905 
" clip-path="url(#pa6c28b6371)" style="fill: none; stroke-dasharray: 20,10; stroke-dashoffset: 0; stroke: #000000; stroke-width: 2.5"/>
   </g>
   <g id="patch_3">
    <path d="M 63.234375 274.79875 
L 63.234375 7.2 
" style="fill: none; stroke: #000000; stroke-width: 1.5; stroke-linejoin: miter; stroke-linecap: square"/>
   </g>
   <g id="patch_4">
    <path d="M 63.234375 274.79875 
L 442.08 274.79875 
" style="fill: none; stroke: #000000; stroke-width: 1.5; stroke-linejoin: miter; stroke-linecap: square"/>
   </g>
   <g id="legend_1">
    <g id="patch_5">
     <path d="M 75.330375 45.4671 
L 159.829575 45.4671 
Q 163.285575 45.4671 163.285575 42.0111 
L 163.285575 19.296 
Q 163.285575 15.84 159.829575 15.84 
L 75.330375 15.84 
Q 71.874375 15.84 71.874375 19.296 
L 71.874375 42.0111 
Q 71.874375 45.4671 75.330375 45.4671 
z
" style="fill: #ffffff; opacity: 0.8; stroke: #cccccc; stroke-width: 2.5; stroke-linejoin: miter"/>
    </g>
    <g id="PathCollection_32">
     <g>
      <use xlink:href="#m5d64b013ed" x="96.066375" y="30.5847" style="stroke: #000000; stroke-width: 2.5"/>
     </g>
    </g>
    <g id="text_11">
     <!-- $\epsilon$=1 -->
     <g transform="translate(127.170375 35.1207)scale(0.1728 -0.1728)">
      <defs>
       <path id="DejaVuSans-Oblique-3b5" d="M 1263 1888 
Q 925 1963 778 2166 
Q 669 2309 669 2503 
Q 669 3034 1175 3344 
Q 1575 3588 2188 3588 
Q 2425 3588 2684 3550 
Q 2944 3513 3234 3438 
L 3134 2916 
Q 2847 3006 2606 3047 
Q 2359 3088 2138 3088 
Q 1766 3088 1522 2944 
Q 1228 2772 1228 2522 
Q 1228 2356 1381 2241 
Q 1563 2103 1925 2103 
L 2409 2103 
L 2319 1628 
L 1856 1628 
Q 1425 1628 1172 1469 
Q 828 1253 828 916 
Q 828 703 1013 563 
Q 1244 388 1716 388 
Q 2006 388 2284 444 
Q 2563 503 2806 619 
L 2700 84 
Q 2403 -3 2131 -47 
Q 1859 -91 1609 -91 
Q 866 -91 516 194 
Q 250 413 250 781 
Q 250 1278 600 1584 
Q 859 1813 1263 1888 
z
" transform="scale(0.015625)"/>
       <path id="ArialMT-3d" d="M 3381 2694 
L 356 2694 
L 356 3219 
L 3381 3219 
L 3381 2694 
z
M 3381 1303 
L 356 1303 
L 356 1828 
L 3381 1828 
L 3381 1303 
z
" transform="scale(0.015625)"/>
       <path id="ArialMT-31" d="M 2384 0 
L 1822 0 
L 1822 3584 
Q 1619 3391 1289 3197 
Q 959 3003 697 2906 
L 697 3450 
Q 1169 3672 1522 3987 
Q 1875 4303 2022 4600 
L 2384 4600 
L 2384 0 
z
" transform="scale(0.015625)"/>
      </defs>
      <use xlink:href="#DejaVuSans-Oblique-3b5" transform="translate(0 0.125)"/>
      <use xlink:href="#ArialMT-3d" transform="translate(54.052734 0.125)"/>
      <use xlink:href="#ArialMT-31" transform="translate(112.451172 0.125)"/>
     </g>
    </g>
   </g>
  </g>
 </g>
 <defs>
  <clipPath id="pa6c28b6371">
   <rect x="63.234375" y="7.2" width="378.845625" height="267.59875"/>
  </clipPath>
 </defs>
</svg>
