<?xml version="1.0" encoding="utf-8" standalone="no"?>
<!DOCTYPE svg PUBLIC "-//W3C//DTD SVG 1.1//EN"
  "http://www.w3.org/Graphics/SVG/1.1/DTD/svg11.dtd">
<svg xmlns:xlink="http://www.w3.org/1999/xlink" width="1428.503173pt" height="348.48pt" viewBox="0 0 1428.503173 348.48" xmlns="http://www.w3.org/2000/svg" version="1.1">
 <metadata>
  <rdf:RDF xmlns:dc="http://purl.org/dc/elements/1.1/" xmlns:cc="http://creativecommons.org/ns#" xmlns:rdf="http://www.w3.org/1999/02/22-rdf-syntax-ns#">
   <cc:Work>
    <dc:type rdf:resource="http://purl.org/dc/dcmitype/StillImage"/>
    <dc:date>2025-09-21T11:40:51.289519</dc:date>
    <dc:format>image/svg+xml</dc:format>
    <dc:creator>
     <cc:Agent>
      <dc:title>Matplotlib v3.5.3, https://matplotlib.org/</dc:title>
     </cc:Agent>
    </dc:creator>
   </cc:Work>
  </rdf:RDF>
 </metadata>
 <defs>
  <style type="text/css">*{stroke-linejoin: round; stroke-linecap: butt}</style>
 </defs>
 <g id="figure_1">
  <g id="patch_1">
   <path d="M 0 348.48 
L 1428.503173 348.48 
L 1428.503173 0 
L 0 0 
z
" style="fill: #ffffff"/>
  </g>
  <g id="axes_1">
   <g id="patch_2">
    <path d="M 74.1269 294.1738 
L 356.675758 294.1738 
L 356.675758 25.5687 
L 74.1269 25.5687 
z
" style="fill: #ffffff"/>
   </g>
   <g id="PolyCollection_1">
    <defs>
     <path id="mec9686d9fa" d="M 86.97003 -310.701977 
L 86.97003 -309.474029 
L 92.212124 -307.987093 
L 97.454218 -307.377534 
L 102.696311 -306.135826 
L 107.938405 -297.848791 
L 113.180499 -296.610619 
L 118.422593 -295.706812 
L 123.664687 -296.486946 
L 128.906781 -296.495007 
L 134.148874 -298.447853 
L 139.390968 -297.512098 
L 144.633062 -298.449265 
L 149.875156 -300.003856 
L 155.11725 -299.418569 
L 160.359344 -301.41851 
L 165.601437 -303.040257 
L 170.843531 -304.158748 
L 176.085625 -304.904812 
L 181.327719 -305.859817 
L 186.569813 -306.02421 
L 191.811907 -306.374838 
L 197.054 -306.335759 
L 202.296094 -306.146119 
L 207.538188 -306.243257 
L 212.780282 -306.251667 
L 218.022376 -306.064411 
L 223.26447 -305.756547 
L 228.506563 -305.506712 
L 233.748657 -305.08925 
L 238.990751 -304.88028 
L 244.232845 -304.527092 
L 249.474939 -304.264129 
L 254.717033 -303.956343 
L 259.959126 -303.635009 
L 265.20122 -303.511179 
L 270.443314 -302.844549 
L 275.685408 -301.85059 
L 280.927502 -301.756142 
L 286.169596 -301.076348 
L 291.411689 -300.63262 
L 296.653783 -300.017405 
L 301.895877 -299.317386 
L 307.137971 -298.474063 
L 312.380065 -296.97674 
L 317.622159 -296.196736 
L 322.864252 -295.70193 
L 328.106346 -294.590115 
L 333.34844 -295.461847 
L 338.590534 -292.237241 
L 343.832628 -293.787281 
L 343.832628 -310.632253 
L 343.832628 -310.632253 
L 338.590534 -310.637978 
L 333.34844 -310.641817 
L 328.106346 -310.636816 
L 322.864252 -310.63727 
L 317.622159 -310.642463 
L 312.380065 -310.6425 
L 307.137971 -310.640089 
L 301.895877 -310.638701 
L 296.653783 -310.638549 
L 291.411689 -310.642221 
L 286.169596 -310.645313 
L 280.927502 -310.644093 
L 275.685408 -310.647677 
L 270.443314 -310.649067 
L 265.20122 -310.652144 
L 259.959126 -310.654935 
L 254.717033 -310.656368 
L 249.474939 -310.656116 
L 244.232845 -310.65811 
L 238.990751 -310.65975 
L 233.748657 -310.66062 
L 228.506563 -310.661726 
L 223.26447 -310.662069 
L 218.022376 -310.663507 
L 212.780282 -310.663643 
L 207.538188 -310.66389 
L 202.296094 -310.665198 
L 197.054 -310.666395 
L 191.811907 -310.667105 
L 186.569813 -310.667142 
L 181.327719 -310.668535 
L 176.085625 -310.669117 
L 170.843531 -310.669588 
L 165.601437 -310.669436 
L 160.359344 -310.669306 
L 155.11725 -310.664581 
L 149.875156 -310.670048 
L 144.633062 -310.667482 
L 139.390968 -310.66368 
L 134.148874 -310.672135 
L 128.906781 -310.667179 
L 123.664687 -310.676594 
L 118.422593 -310.680072 
L 113.180499 -310.686758 
L 107.938405 -310.68955 
L 102.696311 -310.690922 
L 97.454218 -310.693706 
L 92.212124 -310.696474 
L 86.97003 -310.701977 
z
" style="stroke: #707b90; stroke-opacity: 0.2; stroke-width: 2.5"/>
    </defs>
    <g clip-path="url(#paac12cb609)">
     <use xlink:href="#mec9686d9fa" x="0" y="348.48" style="fill: #707b90; fill-opacity: 0.2; stroke: #707b90; stroke-opacity: 0.2; stroke-width: 2.5"/>
    </g>
   </g>
   <g id="PolyCollection_2">
    <defs>
     <path id="m87948908e7" d="M 86.97003 -254.373875 
L 86.97003 -227.858568 
L 92.212124 -228.953526 
L 97.454218 -227.912731 
L 102.696311 -227.770615 
L 107.938405 -227.866036 
L 113.180499 -227.115186 
L 118.422593 -226.800188 
L 123.664687 -227.327998 
L 128.906781 -226.814807 
L 134.148874 -226.839298 
L 139.390968 -225.118972 
L 144.633062 -226.552359 
L 149.875156 -225.666071 
L 155.11725 -225.881032 
L 160.359344 -225.803331 
L 165.601437 -225.612583 
L 170.843531 -225.118613 
L 176.085625 -225.135732 
L 181.327719 -223.513427 
L 186.569813 -225.123145 
L 191.811907 -224.801919 
L 197.054 -225.005313 
L 202.296094 -224.631711 
L 207.538188 -223.357401 
L 212.780282 -223.804827 
L 218.022376 -222.982228 
L 223.26447 -222.385215 
L 228.506563 -223.241417 
L 233.748657 -222.447988 
L 238.990751 -222.436871 
L 244.232845 -222.222896 
L 249.474939 -222.063557 
L 254.717033 -222.20528 
L 259.959126 -222.675136 
L 265.20122 -222.922219 
L 270.443314 -221.635364 
L 275.685408 -221.018172 
L 280.927502 -221.963025 
L 286.169596 -221.513406 
L 291.411689 -222.428018 
L 296.653783 -220.587841 
L 301.895877 -220.914415 
L 307.137971 -220.43681 
L 312.380065 -220.772143 
L 317.622159 -220.817105 
L 322.864252 -220.343194 
L 328.106346 -218.080007 
L 333.34844 -216.084288 
L 338.590534 -216.7486 
L 343.832628 -216.992234 
L 343.832628 -221.913431 
L 343.832628 -221.913431 
L 338.590534 -221.52437 
L 333.34844 -222.113196 
L 328.106346 -220.885053 
L 322.864252 -222.569597 
L 317.622159 -221.289837 
L 312.380065 -221.559556 
L 307.137971 -222.02329 
L 301.895877 -222.704522 
L 296.653783 -221.983541 
L 291.411689 -222.487548 
L 286.169596 -221.747526 
L 280.927502 -222.34397 
L 275.685408 -222.357882 
L 270.443314 -223.356174 
L 265.20122 -224.875085 
L 259.959126 -225.983442 
L 254.717033 -224.866138 
L 249.474939 -225.611437 
L 244.232845 -228.103841 
L 238.990751 -227.933712 
L 233.748657 -229.064734 
L 228.506563 -229.574515 
L 223.26447 -229.690131 
L 218.022376 -231.759399 
L 212.780282 -231.488566 
L 207.538188 -232.783869 
L 202.296094 -233.28775 
L 197.054 -234.540772 
L 191.811907 -234.999786 
L 186.569813 -234.299828 
L 181.327719 -237.211204 
L 176.085625 -237.108861 
L 170.843531 -238.963745 
L 165.601437 -239.349822 
L 160.359344 -239.903945 
L 155.11725 -241.530283 
L 149.875156 -242.47918 
L 144.633062 -242.735833 
L 139.390968 -244.004034 
L 134.148874 -245.58686 
L 128.906781 -245.820699 
L 123.664687 -246.795662 
L 118.422593 -247.47136 
L 113.180499 -248.929387 
L 107.938405 -250.53239 
L 102.696311 -252.414851 
L 97.454218 -254.044373 
L 92.212124 -254.179701 
L 86.97003 -254.373875 
z
" style="stroke: #cbdede; stroke-opacity: 0.2; stroke-width: 2.5"/>
    </defs>
    <g clip-path="url(#paac12cb609)">
     <use xlink:href="#m87948908e7" x="0" y="348.48" style="fill: #cbdede; fill-opacity: 0.2; stroke: #cbdede; stroke-opacity: 0.2; stroke-width: 2.5"/>
    </g>
   </g>
   <g id="matplotlib.axis_1">
    <g id="xtick_1">
     <g id="line2d_1">
      <defs>
       <path id="m11207852a8" d="M 0 0 
L 0 8 
" style="stroke: #000000; stroke-width: 2"/>
      </defs>
      <g>
       <use xlink:href="#m11207852a8" x="86.97003" y="294.1738" style="stroke: #000000; stroke-width: 2"/>
      </g>
     </g>
     <g id="text_1">
      <!-- 0 -->
      <g transform="translate(82.16538 318.0425)scale(0.1728 -0.1728)">
       <defs>
        <path id="ArialMT-30" d="M 266 2259 
Q 266 3072 433 3567 
Q 600 4063 929 4331 
Q 1259 4600 1759 4600 
Q 2128 4600 2406 4451 
Q 2684 4303 2865 4023 
Q 3047 3744 3150 3342 
Q 3253 2941 3253 2259 
Q 3253 1453 3087 958 
Q 2922 463 2592 192 
Q 2263 -78 1759 -78 
Q 1097 -78 719 397 
Q 266 969 266 2259 
z
M 844 2259 
Q 844 1131 1108 757 
Q 1372 384 1759 384 
Q 2147 384 2411 759 
Q 2675 1134 2675 2259 
Q 2675 3391 2411 3762 
Q 2147 4134 1753 4134 
Q 1366 4134 1134 3806 
Q 844 3388 844 2259 
z
" transform="scale(0.015625)"/>
       </defs>
       <use xlink:href="#ArialMT-30"/>
      </g>
     </g>
    </g>
    <g id="xtick_2">
     <g id="line2d_2">
      <g>
       <use xlink:href="#m11207852a8" x="191.811907" y="294.1738" style="stroke: #000000; stroke-width: 2"/>
      </g>
     </g>
     <g id="text_2">
      <!-- 20 -->
      <g transform="translate(182.202607 318.0425)scale(0.1728 -0.1728)">
       <defs>
        <path id="ArialMT-32" d="M 3222 541 
L 3222 0 
L 194 0 
Q 188 203 259 391 
Q 375 700 629 1000 
Q 884 1300 1366 1694 
Q 2113 2306 2375 2664 
Q 2638 3022 2638 3341 
Q 2638 3675 2398 3904 
Q 2159 4134 1775 4134 
Q 1369 4134 1125 3890 
Q 881 3647 878 3216 
L 300 3275 
Q 359 3922 746 4261 
Q 1134 4600 1788 4600 
Q 2447 4600 2831 4234 
Q 3216 3869 3216 3328 
Q 3216 3053 3103 2787 
Q 2991 2522 2730 2228 
Q 2469 1934 1863 1422 
Q 1356 997 1212 845 
Q 1069 694 975 541 
L 3222 541 
z
" transform="scale(0.015625)"/>
       </defs>
       <use xlink:href="#ArialMT-32"/>
       <use xlink:href="#ArialMT-30" x="55.615234"/>
      </g>
     </g>
    </g>
    <g id="xtick_3">
     <g id="line2d_3">
      <g>
       <use xlink:href="#m11207852a8" x="296.653783" y="294.1738" style="stroke: #000000; stroke-width: 2"/>
      </g>
     </g>
     <g id="text_3">
      <!-- 40 -->
      <g transform="translate(287.044483 318.0425)scale(0.1728 -0.1728)">
       <defs>
        <path id="ArialMT-34" d="M 2069 0 
L 2069 1097 
L 81 1097 
L 81 1613 
L 2172 4581 
L 2631 4581 
L 2631 1613 
L 3250 1613 
L 3250 1097 
L 2631 1097 
L 2631 0 
L 2069 0 
z
M 2069 1613 
L 2069 3678 
L 634 1613 
L 2069 1613 
z
" transform="scale(0.015625)"/>
       </defs>
       <use xlink:href="#ArialMT-34"/>
       <use xlink:href="#ArialMT-30" x="55.615234"/>
      </g>
     </g>
    </g>
    <g id="text_4">
     <!-- Epoch -->
     <g transform="translate(190.904229 337.8456)scale(0.1728 -0.1728)">
      <defs>
       <path id="ArialMT-45" d="M 506 0 
L 506 4581 
L 3819 4581 
L 3819 4041 
L 1113 4041 
L 1113 2638 
L 3647 2638 
L 3647 2100 
L 1113 2100 
L 1113 541 
L 3925 541 
L 3925 0 
L 506 0 
z
" transform="scale(0.015625)"/>
       <path id="ArialMT-70" d="M 422 -1272 
L 422 3319 
L 934 3319 
L 934 2888 
Q 1116 3141 1344 3267 
Q 1572 3394 1897 3394 
Q 2322 3394 2647 3175 
Q 2972 2956 3137 2557 
Q 3303 2159 3303 1684 
Q 3303 1175 3120 767 
Q 2938 359 2589 142 
Q 2241 -75 1856 -75 
Q 1575 -75 1351 44 
Q 1128 163 984 344 
L 984 -1272 
L 422 -1272 
z
M 931 1641 
Q 931 1000 1190 694 
Q 1450 388 1819 388 
Q 2194 388 2461 705 
Q 2728 1022 2728 1688 
Q 2728 2322 2467 2637 
Q 2206 2953 1844 2953 
Q 1484 2953 1207 2617 
Q 931 2281 931 1641 
z
" transform="scale(0.015625)"/>
       <path id="ArialMT-6f" d="M 213 1659 
Q 213 2581 725 3025 
Q 1153 3394 1769 3394 
Q 2453 3394 2887 2945 
Q 3322 2497 3322 1706 
Q 3322 1066 3130 698 
Q 2938 331 2570 128 
Q 2203 -75 1769 -75 
Q 1072 -75 642 372 
Q 213 819 213 1659 
z
M 791 1659 
Q 791 1022 1069 705 
Q 1347 388 1769 388 
Q 2188 388 2466 706 
Q 2744 1025 2744 1678 
Q 2744 2294 2464 2611 
Q 2184 2928 1769 2928 
Q 1347 2928 1069 2612 
Q 791 2297 791 1659 
z
" transform="scale(0.015625)"/>
       <path id="ArialMT-63" d="M 2588 1216 
L 3141 1144 
Q 3050 572 2676 248 
Q 2303 -75 1759 -75 
Q 1078 -75 664 370 
Q 250 816 250 1647 
Q 250 2184 428 2587 
Q 606 2991 970 3192 
Q 1334 3394 1763 3394 
Q 2303 3394 2647 3120 
Q 2991 2847 3088 2344 
L 2541 2259 
Q 2463 2594 2264 2762 
Q 2066 2931 1784 2931 
Q 1359 2931 1093 2626 
Q 828 2322 828 1663 
Q 828 994 1084 691 
Q 1341 388 1753 388 
Q 2084 388 2306 591 
Q 2528 794 2588 1216 
z
" transform="scale(0.015625)"/>
       <path id="ArialMT-68" d="M 422 0 
L 422 4581 
L 984 4581 
L 984 2938 
Q 1378 3394 1978 3394 
Q 2347 3394 2619 3248 
Q 2891 3103 3008 2847 
Q 3125 2591 3125 2103 
L 3125 0 
L 2563 0 
L 2563 2103 
Q 2563 2525 2380 2717 
Q 2197 2909 1863 2909 
Q 1613 2909 1392 2779 
Q 1172 2650 1078 2428 
Q 984 2206 984 1816 
L 984 0 
L 422 0 
z
" transform="scale(0.015625)"/>
      </defs>
      <use xlink:href="#ArialMT-45"/>
      <use xlink:href="#ArialMT-70" x="66.699219"/>
      <use xlink:href="#ArialMT-6f" x="122.314453"/>
      <use xlink:href="#ArialMT-63" x="177.929688"/>
      <use xlink:href="#ArialMT-68" x="227.929688"/>
     </g>
    </g>
   </g>
   <g id="matplotlib.axis_2">
    <g id="ytick_1">
     <g id="line2d_4">
      <defs>
       <path id="m089f0564f6" d="M 0 0 
L -8 0 
" style="stroke: #000000; stroke-width: 2"/>
      </defs>
      <g>
       <use xlink:href="#m089f0564f6" x="74.1269" y="271.946455" style="stroke: #000000; stroke-width: 2"/>
      </g>
     </g>
     <g id="text_5">
      <!-- 0.75 -->
      <g transform="translate(28.9984 278.130805)scale(0.1728 -0.1728)">
       <defs>
        <path id="ArialMT-2e" d="M 581 0 
L 581 641 
L 1222 641 
L 1222 0 
L 581 0 
z
" transform="scale(0.015625)"/>
        <path id="ArialMT-37" d="M 303 3981 
L 303 4522 
L 3269 4522 
L 3269 4084 
Q 2831 3619 2401 2847 
Q 1972 2075 1738 1259 
Q 1569 684 1522 0 
L 944 0 
Q 953 541 1156 1306 
Q 1359 2072 1739 2783 
Q 2119 3494 2547 3981 
L 303 3981 
z
" transform="scale(0.015625)"/>
        <path id="ArialMT-35" d="M 266 1200 
L 856 1250 
Q 922 819 1161 601 
Q 1400 384 1738 384 
Q 2144 384 2425 690 
Q 2706 997 2706 1503 
Q 2706 1984 2436 2262 
Q 2166 2541 1728 2541 
Q 1456 2541 1237 2417 
Q 1019 2294 894 2097 
L 366 2166 
L 809 4519 
L 3088 4519 
L 3088 3981 
L 1259 3981 
L 1013 2750 
Q 1425 3038 1878 3038 
Q 2478 3038 2890 2622 
Q 3303 2206 3303 1553 
Q 3303 931 2941 478 
Q 2500 -78 1738 -78 
Q 1113 -78 717 272 
Q 322 622 266 1200 
z
" transform="scale(0.015625)"/>
       </defs>
       <use xlink:href="#ArialMT-30"/>
       <use xlink:href="#ArialMT-2e" x="55.615234"/>
       <use xlink:href="#ArialMT-37" x="83.398438"/>
       <use xlink:href="#ArialMT-35" x="139.013672"/>
      </g>
     </g>
    </g>
    <g id="ytick_2">
     <g id="line2d_5">
      <g>
       <use xlink:href="#m089f0564f6" x="74.1269" y="225.109025" style="stroke: #000000; stroke-width: 2"/>
      </g>
     </g>
     <g id="text_6">
      <!-- 0.80 -->
      <g transform="translate(28.9984 231.293375)scale(0.1728 -0.1728)">
       <defs>
        <path id="ArialMT-38" d="M 1131 2484 
Q 781 2613 612 2850 
Q 444 3088 444 3419 
Q 444 3919 803 4259 
Q 1163 4600 1759 4600 
Q 2359 4600 2725 4251 
Q 3091 3903 3091 3403 
Q 3091 3084 2923 2848 
Q 2756 2613 2416 2484 
Q 2838 2347 3058 2040 
Q 3278 1734 3278 1309 
Q 3278 722 2862 322 
Q 2447 -78 1769 -78 
Q 1091 -78 675 323 
Q 259 725 259 1325 
Q 259 1772 486 2073 
Q 713 2375 1131 2484 
z
M 1019 3438 
Q 1019 3113 1228 2906 
Q 1438 2700 1772 2700 
Q 2097 2700 2305 2904 
Q 2513 3109 2513 3406 
Q 2513 3716 2298 3927 
Q 2084 4138 1766 4138 
Q 1444 4138 1231 3931 
Q 1019 3725 1019 3438 
z
M 838 1322 
Q 838 1081 952 856 
Q 1066 631 1291 507 
Q 1516 384 1775 384 
Q 2178 384 2440 643 
Q 2703 903 2703 1303 
Q 2703 1709 2433 1975 
Q 2163 2241 1756 2241 
Q 1359 2241 1098 1978 
Q 838 1716 838 1322 
z
" transform="scale(0.015625)"/>
       </defs>
       <use xlink:href="#ArialMT-30"/>
       <use xlink:href="#ArialMT-2e" x="55.615234"/>
       <use xlink:href="#ArialMT-38" x="83.398438"/>
       <use xlink:href="#ArialMT-30" x="139.013672"/>
      </g>
     </g>
    </g>
    <g id="ytick_3">
     <g id="line2d_6">
      <g>
       <use xlink:href="#m089f0564f6" x="74.1269" y="178.271595" style="stroke: #000000; stroke-width: 2"/>
      </g>
     </g>
     <g id="text_7">
      <!-- 0.85 -->
      <g transform="translate(28.9984 184.455945)scale(0.1728 -0.1728)">
       <use xlink:href="#ArialMT-30"/>
       <use xlink:href="#ArialMT-2e" x="55.615234"/>
       <use xlink:href="#ArialMT-38" x="83.398438"/>
       <use xlink:href="#ArialMT-35" x="139.013672"/>
      </g>
     </g>
    </g>
    <g id="ytick_4">
     <g id="line2d_7">
      <g>
       <use xlink:href="#m089f0564f6" x="74.1269" y="131.434165" style="stroke: #000000; stroke-width: 2"/>
      </g>
     </g>
     <g id="text_8">
      <!-- 0.90 -->
      <g transform="translate(28.9984 137.618515)scale(0.1728 -0.1728)">
       <defs>
        <path id="ArialMT-39" d="M 350 1059 
L 891 1109 
Q 959 728 1153 556 
Q 1347 384 1650 384 
Q 1909 384 2104 503 
Q 2300 622 2425 820 
Q 2550 1019 2634 1356 
Q 2719 1694 2719 2044 
Q 2719 2081 2716 2156 
Q 2547 1888 2255 1720 
Q 1963 1553 1622 1553 
Q 1053 1553 659 1965 
Q 266 2378 266 3053 
Q 266 3750 677 4175 
Q 1088 4600 1706 4600 
Q 2153 4600 2523 4359 
Q 2894 4119 3086 3673 
Q 3278 3228 3278 2384 
Q 3278 1506 3087 986 
Q 2897 466 2520 194 
Q 2144 -78 1638 -78 
Q 1100 -78 759 220 
Q 419 519 350 1059 
z
M 2653 3081 
Q 2653 3566 2395 3850 
Q 2138 4134 1775 4134 
Q 1400 4134 1122 3828 
Q 844 3522 844 3034 
Q 844 2597 1108 2323 
Q 1372 2050 1759 2050 
Q 2150 2050 2401 2323 
Q 2653 2597 2653 3081 
z
" transform="scale(0.015625)"/>
       </defs>
       <use xlink:href="#ArialMT-30"/>
       <use xlink:href="#ArialMT-2e" x="55.615234"/>
       <use xlink:href="#ArialMT-39" x="83.398438"/>
       <use xlink:href="#ArialMT-30" x="139.013672"/>
      </g>
     </g>
    </g>
    <g id="ytick_5">
     <g id="line2d_8">
      <g>
       <use xlink:href="#m089f0564f6" x="74.1269" y="84.596735" style="stroke: #000000; stroke-width: 2"/>
      </g>
     </g>
     <g id="text_9">
      <!-- 0.95 -->
      <g transform="translate(28.9984 90.781085)scale(0.1728 -0.1728)">
       <use xlink:href="#ArialMT-30"/>
       <use xlink:href="#ArialMT-2e" x="55.615234"/>
       <use xlink:href="#ArialMT-39" x="83.398438"/>
       <use xlink:href="#ArialMT-35" x="139.013672"/>
      </g>
     </g>
    </g>
    <g id="ytick_6">
     <g id="line2d_9">
      <g>
       <use xlink:href="#m089f0564f6" x="74.1269" y="37.759305" style="stroke: #000000; stroke-width: 2"/>
      </g>
     </g>
     <g id="text_10">
      <!-- 1.00 -->
      <g transform="translate(28.9984 43.943655)scale(0.1728 -0.1728)">
       <defs>
        <path id="ArialMT-31" d="M 2384 0 
L 1822 0 
L 1822 3584 
Q 1619 3391 1289 3197 
Q 959 3003 697 2906 
L 697 3450 
Q 1169 3672 1522 3987 
Q 1875 4303 2022 4600 
L 2384 4600 
L 2384 0 
z
" transform="scale(0.015625)"/>
       </defs>
       <use xlink:href="#ArialMT-31"/>
       <use xlink:href="#ArialMT-2e" x="55.615234"/>
       <use xlink:href="#ArialMT-30" x="83.398438"/>
       <use xlink:href="#ArialMT-30" x="139.013672"/>
      </g>
     </g>
    </g>
    <g id="text_11">
     <!-- Representation Sim. \wrt LN$^+$ -->
     <g transform="translate(21.5424 275.73365)rotate(-90)scale(0.1728 -0.1728)">
      <defs>
       <path id="ArialMT-52" d="M 503 0 
L 503 4581 
L 2534 4581 
Q 3147 4581 3465 4457 
Q 3784 4334 3975 4021 
Q 4166 3709 4166 3331 
Q 4166 2844 3850 2509 
Q 3534 2175 2875 2084 
Q 3116 1969 3241 1856 
Q 3506 1613 3744 1247 
L 4541 0 
L 3778 0 
L 3172 953 
Q 2906 1366 2734 1584 
Q 2563 1803 2427 1890 
Q 2291 1978 2150 2013 
Q 2047 2034 1813 2034 
L 1109 2034 
L 1109 0 
L 503 0 
z
M 1109 2559 
L 2413 2559 
Q 2828 2559 3062 2645 
Q 3297 2731 3419 2920 
Q 3541 3109 3541 3331 
Q 3541 3656 3305 3865 
Q 3069 4075 2559 4075 
L 1109 4075 
L 1109 2559 
z
" transform="scale(0.015625)"/>
       <path id="ArialMT-65" d="M 2694 1069 
L 3275 997 
Q 3138 488 2766 206 
Q 2394 -75 1816 -75 
Q 1088 -75 661 373 
Q 234 822 234 1631 
Q 234 2469 665 2931 
Q 1097 3394 1784 3394 
Q 2450 3394 2872 2941 
Q 3294 2488 3294 1666 
Q 3294 1616 3291 1516 
L 816 1516 
Q 847 969 1125 678 
Q 1403 388 1819 388 
Q 2128 388 2347 550 
Q 2566 713 2694 1069 
z
M 847 1978 
L 2700 1978 
Q 2663 2397 2488 2606 
Q 2219 2931 1791 2931 
Q 1403 2931 1139 2672 
Q 875 2413 847 1978 
z
" transform="scale(0.015625)"/>
       <path id="ArialMT-72" d="M 416 0 
L 416 3319 
L 922 3319 
L 922 2816 
Q 1116 3169 1280 3281 
Q 1444 3394 1641 3394 
Q 1925 3394 2219 3213 
L 2025 2691 
Q 1819 2813 1613 2813 
Q 1428 2813 1281 2702 
Q 1134 2591 1072 2394 
Q 978 2094 978 1738 
L 978 0 
L 416 0 
z
" transform="scale(0.015625)"/>
       <path id="ArialMT-73" d="M 197 991 
L 753 1078 
Q 800 744 1014 566 
Q 1228 388 1613 388 
Q 2000 388 2187 545 
Q 2375 703 2375 916 
Q 2375 1106 2209 1216 
Q 2094 1291 1634 1406 
Q 1016 1563 777 1677 
Q 538 1791 414 1992 
Q 291 2194 291 2438 
Q 291 2659 392 2848 
Q 494 3038 669 3163 
Q 800 3259 1026 3326 
Q 1253 3394 1513 3394 
Q 1903 3394 2198 3281 
Q 2494 3169 2634 2976 
Q 2775 2784 2828 2463 
L 2278 2388 
Q 2241 2644 2061 2787 
Q 1881 2931 1553 2931 
Q 1166 2931 1000 2803 
Q 834 2675 834 2503 
Q 834 2394 903 2306 
Q 972 2216 1119 2156 
Q 1203 2125 1616 2013 
Q 2213 1853 2448 1751 
Q 2684 1650 2818 1456 
Q 2953 1263 2953 975 
Q 2953 694 2789 445 
Q 2625 197 2315 61 
Q 2006 -75 1616 -75 
Q 969 -75 630 194 
Q 291 463 197 991 
z
" transform="scale(0.015625)"/>
       <path id="ArialMT-6e" d="M 422 0 
L 422 3319 
L 928 3319 
L 928 2847 
Q 1294 3394 1984 3394 
Q 2284 3394 2536 3286 
Q 2788 3178 2913 3003 
Q 3038 2828 3088 2588 
Q 3119 2431 3119 2041 
L 3119 0 
L 2556 0 
L 2556 2019 
Q 2556 2363 2490 2533 
Q 2425 2703 2258 2804 
Q 2091 2906 1866 2906 
Q 1506 2906 1245 2678 
Q 984 2450 984 1813 
L 984 0 
L 422 0 
z
" transform="scale(0.015625)"/>
       <path id="ArialMT-74" d="M 1650 503 
L 1731 6 
Q 1494 -44 1306 -44 
Q 1000 -44 831 53 
Q 663 150 594 308 
Q 525 466 525 972 
L 525 2881 
L 113 2881 
L 113 3319 
L 525 3319 
L 525 4141 
L 1084 4478 
L 1084 3319 
L 1650 3319 
L 1650 2881 
L 1084 2881 
L 1084 941 
Q 1084 700 1114 631 
Q 1144 563 1211 522 
Q 1278 481 1403 481 
Q 1497 481 1650 503 
z
" transform="scale(0.015625)"/>
       <path id="ArialMT-61" d="M 2588 409 
Q 2275 144 1986 34 
Q 1697 -75 1366 -75 
Q 819 -75 525 192 
Q 231 459 231 875 
Q 231 1119 342 1320 
Q 453 1522 633 1644 
Q 813 1766 1038 1828 
Q 1203 1872 1538 1913 
Q 2219 1994 2541 2106 
Q 2544 2222 2544 2253 
Q 2544 2597 2384 2738 
Q 2169 2928 1744 2928 
Q 1347 2928 1158 2789 
Q 969 2650 878 2297 
L 328 2372 
Q 403 2725 575 2942 
Q 747 3159 1072 3276 
Q 1397 3394 1825 3394 
Q 2250 3394 2515 3294 
Q 2781 3194 2906 3042 
Q 3031 2891 3081 2659 
Q 3109 2516 3109 2141 
L 3109 1391 
Q 3109 606 3145 398 
Q 3181 191 3288 0 
L 2700 0 
Q 2613 175 2588 409 
z
M 2541 1666 
Q 2234 1541 1622 1453 
Q 1275 1403 1131 1340 
Q 988 1278 909 1158 
Q 831 1038 831 891 
Q 831 666 1001 516 
Q 1172 366 1500 366 
Q 1825 366 2078 508 
Q 2331 650 2450 897 
Q 2541 1088 2541 1459 
L 2541 1666 
z
" transform="scale(0.015625)"/>
       <path id="ArialMT-69" d="M 425 3934 
L 425 4581 
L 988 4581 
L 988 3934 
L 425 3934 
z
M 425 0 
L 425 3319 
L 988 3319 
L 988 0 
L 425 0 
z
" transform="scale(0.015625)"/>
       <path id="ArialMT-20" transform="scale(0.015625)"/>
       <path id="ArialMT-53" d="M 288 1472 
L 859 1522 
Q 900 1178 1048 958 
Q 1197 738 1509 602 
Q 1822 466 2213 466 
Q 2559 466 2825 569 
Q 3091 672 3220 851 
Q 3350 1031 3350 1244 
Q 3350 1459 3225 1620 
Q 3100 1781 2813 1891 
Q 2628 1963 1997 2114 
Q 1366 2266 1113 2400 
Q 784 2572 623 2826 
Q 463 3081 463 3397 
Q 463 3744 659 4045 
Q 856 4347 1234 4503 
Q 1613 4659 2075 4659 
Q 2584 4659 2973 4495 
Q 3363 4331 3572 4012 
Q 3781 3694 3797 3291 
L 3216 3247 
Q 3169 3681 2898 3903 
Q 2628 4125 2100 4125 
Q 1550 4125 1298 3923 
Q 1047 3722 1047 3438 
Q 1047 3191 1225 3031 
Q 1400 2872 2139 2705 
Q 2878 2538 3153 2413 
Q 3553 2228 3743 1945 
Q 3934 1663 3934 1294 
Q 3934 928 3725 604 
Q 3516 281 3123 101 
Q 2731 -78 2241 -78 
Q 1619 -78 1198 103 
Q 778 284 539 648 
Q 300 1013 288 1472 
z
" transform="scale(0.015625)"/>
       <path id="ArialMT-6d" d="M 422 0 
L 422 3319 
L 925 3319 
L 925 2853 
Q 1081 3097 1340 3245 
Q 1600 3394 1931 3394 
Q 2300 3394 2536 3241 
Q 2772 3088 2869 2813 
Q 3263 3394 3894 3394 
Q 4388 3394 4653 3120 
Q 4919 2847 4919 2278 
L 4919 0 
L 4359 0 
L 4359 2091 
Q 4359 2428 4304 2576 
Q 4250 2725 4106 2815 
Q 3963 2906 3769 2906 
Q 3419 2906 3187 2673 
Q 2956 2441 2956 1928 
L 2956 0 
L 2394 0 
L 2394 2156 
Q 2394 2531 2256 2718 
Q 2119 2906 1806 2906 
Q 1569 2906 1367 2781 
Q 1166 2656 1075 2415 
Q 984 2175 984 1722 
L 984 0 
L 422 0 
z
" transform="scale(0.015625)"/>
       <path id="ArialMT-5c" d="M 1328 -78 
L 0 4659 
L 453 4659 
L 1778 -78 
L 1328 -78 
z
" transform="scale(0.015625)"/>
       <path id="ArialMT-77" d="M 1034 0 
L 19 3319 
L 600 3319 
L 1128 1403 
L 1325 691 
Q 1338 744 1497 1375 
L 2025 3319 
L 2603 3319 
L 3100 1394 
L 3266 759 
L 3456 1400 
L 4025 3319 
L 4572 3319 
L 3534 0 
L 2950 0 
L 2422 1988 
L 2294 2553 
L 1622 0 
L 1034 0 
z
" transform="scale(0.015625)"/>
       <path id="ArialMT-4c" d="M 469 0 
L 469 4581 
L 1075 4581 
L 1075 541 
L 3331 541 
L 3331 0 
L 469 0 
z
" transform="scale(0.015625)"/>
       <path id="ArialMT-4e" d="M 488 0 
L 488 4581 
L 1109 4581 
L 3516 984 
L 3516 4581 
L 4097 4581 
L 4097 0 
L 3475 0 
L 1069 3600 
L 1069 0 
L 488 0 
z
" transform="scale(0.015625)"/>
       <path id="DejaVuSans-2b" d="M 2944 4013 
L 2944 2272 
L 4684 2272 
L 4684 1741 
L 2944 1741 
L 2944 0 
L 2419 0 
L 2419 1741 
L 678 1741 
L 678 2272 
L 2419 2272 
L 2419 4013 
L 2944 4013 
z
" transform="scale(0.015625)"/>
      </defs>
      <use xlink:href="#ArialMT-52" transform="translate(0 0.826562)"/>
      <use xlink:href="#ArialMT-65" transform="translate(72.216797 0.826562)"/>
      <use xlink:href="#ArialMT-70" transform="translate(127.832031 0.826562)"/>
      <use xlink:href="#ArialMT-72" transform="translate(183.447266 0.826562)"/>
      <use xlink:href="#ArialMT-65" transform="translate(216.748047 0.826562)"/>
      <use xlink:href="#ArialMT-73" transform="translate(272.363281 0.826562)"/>
      <use xlink:href="#ArialMT-65" transform="translate(322.363281 0.826562)"/>
      <use xlink:href="#ArialMT-6e" transform="translate(377.978516 0.826562)"/>
      <use xlink:href="#ArialMT-74" transform="translate(433.59375 0.826562)"/>
      <use xlink:href="#ArialMT-61" transform="translate(461.376953 0.826562)"/>
      <use xlink:href="#ArialMT-74" transform="translate(516.992188 0.826562)"/>
      <use xlink:href="#ArialMT-69" transform="translate(544.775391 0.826562)"/>
      <use xlink:href="#ArialMT-6f" transform="translate(566.992188 0.826562)"/>
      <use xlink:href="#ArialMT-6e" transform="translate(622.607422 0.826562)"/>
      <use xlink:href="#ArialMT-20" transform="translate(678.222656 0.826562)"/>
      <use xlink:href="#ArialMT-53" transform="translate(706.005859 0.826562)"/>
      <use xlink:href="#ArialMT-69" transform="translate(772.705078 0.826562)"/>
      <use xlink:href="#ArialMT-6d" transform="translate(794.921875 0.826562)"/>
      <use xlink:href="#ArialMT-2e" transform="translate(878.222656 0.826562)"/>
      <use xlink:href="#ArialMT-20" transform="translate(906.005859 0.826562)"/>
      <use xlink:href="#ArialMT-5c" transform="translate(933.789062 0.826562)"/>
      <use xlink:href="#ArialMT-77" transform="translate(961.572266 0.826562)"/>
      <use xlink:href="#ArialMT-72" transform="translate(1033.789062 0.826562)"/>
      <use xlink:href="#ArialMT-74" transform="translate(1067.089844 0.826562)"/>
      <use xlink:href="#ArialMT-20" transform="translate(1094.873047 0.826562)"/>
      <use xlink:href="#ArialMT-4c" transform="translate(1122.65625 0.826562)"/>
      <use xlink:href="#ArialMT-4e" transform="translate(1178.271484 0.826562)"/>
      <use xlink:href="#DejaVuSans-2b" transform="translate(1265.083008 39.107812)scale(0.7)"/>
     </g>
    </g>
   </g>
   <g id="line2d_10">
    <path d="M 86.97003 38.391997 
L 92.212124 39.138217 
L 97.454218 39.44438 
L 102.696311 40.066626 
L 107.938405 44.21083 
L 113.180499 44.831311 
L 118.422593 45.286558 
L 123.664687 44.89823 
L 128.906781 44.898907 
L 134.148874 43.920006 
L 139.390968 44.392111 
L 144.633062 43.921626 
L 149.875156 43.143048 
L 155.11725 43.438425 
L 160.359344 42.436092 
L 165.601437 41.625153 
L 170.843531 41.065832 
L 176.085625 40.693035 
L 181.327719 40.215824 
L 186.569813 40.134324 
L 191.811907 39.959029 
L 197.054 39.978923 
L 202.296094 40.074342 
L 207.538188 40.026426 
L 212.780282 40.022345 
L 218.022376 40.116041 
L 223.26447 40.270692 
L 228.506563 40.395781 
L 233.748657 40.605065 
L 238.990751 40.709985 
L 244.232845 40.887399 
L 249.474939 41.019877 
L 254.717033 41.173644 
L 259.959126 41.335028 
L 265.20122 41.398339 
L 270.443314 41.733192 
L 275.685408 42.230867 
L 280.927502 42.279883 
L 286.169596 42.61917 
L 291.411689 42.84258 
L 296.653783 43.152023 
L 301.895877 43.501957 
L 307.137971 43.922924 
L 312.380065 44.67038 
L 317.622159 45.0604 
L 322.864252 45.3104 
L 328.106346 45.866535 
L 333.34844 45.428168 
L 338.590534 47.042391 
L 343.832628 46.270233 
" clip-path="url(#paac12cb609)" style="fill: none; stroke: #707b90; stroke-width: 2.5; stroke-linecap: square"/>
   </g>
   <g id="line2d_11">
    <path d="M 86.97003 107.363779 
L 92.212124 106.913386 
L 97.454218 107.501448 
L 102.696311 108.387267 
L 107.938405 109.280787 
L 113.180499 110.457713 
L 118.422593 111.344226 
L 123.664687 111.41817 
L 128.906781 112.162247 
L 134.148874 112.266921 
L 139.390968 113.918497 
L 144.633062 113.835904 
L 149.875156 114.407374 
L 155.11725 114.774342 
L 160.359344 115.626362 
L 165.601437 115.998797 
L 170.843531 116.438821 
L 176.085625 117.357704 
L 181.327719 118.117685 
L 186.569813 118.768514 
L 191.811907 118.579147 
L 197.054 118.706957 
L 202.296094 119.52027 
L 207.538188 120.409365 
L 212.780282 120.833303 
L 218.022376 121.109186 
L 223.26447 122.442327 
L 228.506563 122.072034 
L 233.748657 122.723639 
L 238.990751 123.294709 
L 244.232845 123.316631 
L 249.474939 124.642503 
L 254.717033 124.944291 
L 259.959126 124.150711 
L 265.20122 124.581348 
L 270.443314 125.984231 
L 275.685408 126.791973 
L 280.927502 126.326502 
L 286.169596 126.849534 
L 291.411689 126.022217 
L 296.653783 127.194309 
L 301.895877 126.670532 
L 307.137971 127.24995 
L 312.380065 127.314151 
L 317.622159 127.426529 
L 322.864252 127.023604 
L 328.106346 128.99747 
L 333.34844 129.381258 
L 338.590534 129.343515 
L 343.832628 129.027167 
" clip-path="url(#paac12cb609)" style="fill: none; stroke: #cbdede; stroke-width: 2.5; stroke-linecap: square"/>
   </g>
   <g id="patch_3">
    <path d="M 74.1269 294.1738 
L 74.1269 25.5687 
" style="fill: none; stroke: #000000; stroke-width: 1.5; stroke-linejoin: miter; stroke-linecap: square"/>
   </g>
   <g id="patch_4">
    <path d="M 74.1269 294.1738 
L 356.675758 294.1738 
" style="fill: none; stroke: #000000; stroke-width: 1.5; stroke-linejoin: miter; stroke-linecap: square"/>
   </g>
   <g id="text_12">
    <!-- $\epsilon$: 0 -->
    <g transform="translate(201.058929 19.5687)scale(0.1728 -0.1728)">
     <defs>
      <path id="DejaVuSans-Oblique-3b5" d="M 1263 1888 
Q 925 1963 778 2166 
Q 669 2309 669 2503 
Q 669 3034 1175 3344 
Q 1575 3588 2188 3588 
Q 2425 3588 2684 3550 
Q 2944 3513 3234 3438 
L 3134 2916 
Q 2847 3006 2606 3047 
Q 2359 3088 2138 3088 
Q 1766 3088 1522 2944 
Q 1228 2772 1228 2522 
Q 1228 2356 1381 2241 
Q 1563 2103 1925 2103 
L 2409 2103 
L 2319 1628 
L 1856 1628 
Q 1425 1628 1172 1469 
Q 828 1253 828 916 
Q 828 703 1013 563 
Q 1244 388 1716 388 
Q 2006 388 2284 444 
Q 2563 503 2806 619 
L 2700 84 
Q 2403 -3 2131 -47 
Q 1859 -91 1609 -91 
Q 866 -91 516 194 
Q 250 413 250 781 
Q 250 1278 600 1584 
Q 859 1813 1263 1888 
z
" transform="scale(0.015625)"/>
      <path id="ArialMT-3a" d="M 578 2678 
L 578 3319 
L 1219 3319 
L 1219 2678 
L 578 2678 
z
M 578 0 
L 578 641 
L 1219 641 
L 1219 0 
L 578 0 
z
" transform="scale(0.015625)"/>
     </defs>
     <use xlink:href="#DejaVuSans-Oblique-3b5" transform="translate(0 0.125)"/>
     <use xlink:href="#ArialMT-3a" transform="translate(54.052734 0.125)"/>
     <use xlink:href="#ArialMT-20" transform="translate(81.835938 0.125)"/>
     <use xlink:href="#ArialMT-30" transform="translate(109.619141 0.125)"/>
    </g>
   </g>
  </g>
  <g id="axes_2">
   <g id="patch_5">
    <path d="M 377.635758 294.1738 
L 660.184615 294.1738 
L 660.184615 25.5687 
L 377.635758 25.5687 
z
" style="fill: #ffffff"/>
   </g>
   <g id="PolyCollection_3">
    <defs>
     <path id="m8b1e3919f1" d="M 390.478887 -310.69923 
L 390.478887 -309.375957 
L 395.720981 -307.06122 
L 400.963075 -295.402469 
L 406.205169 -294.365724 
L 411.447263 -295.233008 
L 416.689357 -294.777451 
L 421.93145 -294.803144 
L 427.173544 -296.473987 
L 432.415638 -298.242733 
L 437.657732 -298.885619 
L 442.899826 -299.68919 
L 448.14192 -302.29435 
L 453.384013 -303.610634 
L 458.626107 -305.294527 
L 463.868201 -305.682745 
L 469.110295 -304.986113 
L 474.352389 -306.627606 
L 479.594483 -306.402695 
L 484.836576 -305.6309 
L 490.07867 -306.409249 
L 495.320764 -305.088628 
L 500.562858 -304.523688 
L 505.804952 -304.46999 
L 511.047046 -304.479467 
L 516.289139 -303.516594 
L 521.531233 -304.776256 
L 526.773327 -304.161461 
L 532.015421 -303.375996 
L 537.257515 -302.811384 
L 542.499609 -302.095328 
L 547.741702 -301.633477 
L 552.983796 -300.231043 
L 558.22589 -301.81895 
L 563.467984 -299.294892 
L 568.710078 -301.008449 
L 573.952172 -298.380871 
L 579.194265 -298.981294 
L 584.436359 -299.01991 
L 589.678453 -298.311239 
L 594.920547 -296.872727 
L 600.162641 -290.060298 
L 605.404735 -293.476747 
L 610.646828 -294.362439 
L 615.888922 -296.041142 
L 621.131016 -293.056152 
L 626.37311 -294.808985 
L 631.615204 -296.879591 
L 636.857298 -293.233129 
L 642.099391 -292.007507 
L 647.341485 -288.82373 
L 647.341485 -310.645833 
L 647.341485 -310.645833 
L 642.099391 -310.652288 
L 636.857298 -310.644304 
L 631.615204 -310.636472 
L 626.37311 -310.64673 
L 621.131016 -310.644419 
L 615.888922 -310.639043 
L 610.646828 -310.642313 
L 605.404735 -310.64905 
L 600.162641 -310.6465 
L 594.920547 -310.657239 
L 589.678453 -310.643122 
L 584.436359 -310.659823 
L 579.194265 -310.661545 
L 573.952172 -310.660614 
L 568.710078 -310.659218 
L 563.467984 -310.661048 
L 558.22589 -310.664467 
L 552.983796 -310.658043 
L 547.741702 -310.664606 
L 542.499609 -310.665186 
L 537.257515 -310.664277 
L 532.015421 -310.667398 
L 526.773327 -310.669876 
L 521.531233 -310.662782 
L 516.289139 -310.670553 
L 511.047046 -310.670639 
L 505.804952 -310.671989 
L 500.562858 -310.672721 
L 495.320764 -310.674145 
L 490.07867 -310.677216 
L 484.836576 -310.675826 
L 479.594483 -310.675773 
L 474.352389 -310.680423 
L 469.110295 -310.678518 
L 463.868201 -310.678894 
L 458.626107 -310.679458 
L 453.384013 -310.67729 
L 448.14192 -310.680314 
L 442.899826 -310.681201 
L 437.657732 -310.679179 
L 432.415638 -310.682976 
L 427.173544 -310.682129 
L 421.93145 -310.683444 
L 416.689357 -310.687961 
L 411.447263 -310.690355 
L 406.205169 -310.690296 
L 400.963075 -310.689319 
L 395.720981 -310.69213 
L 390.478887 -310.69923 
z
" style="stroke: #707b90; stroke-opacity: 0.2; stroke-width: 2.5"/>
    </defs>
    <g clip-path="url(#p9c636b5f5c)">
     <use xlink:href="#m8b1e3919f1" x="0" y="348.48" style="fill: #707b90; fill-opacity: 0.2; stroke: #707b90; stroke-opacity: 0.2; stroke-width: 2.5"/>
    </g>
   </g>
   <g id="PolyCollection_4">
    <defs>
     <path id="m4d9c24e973" d="M 390.478887 -237.662083 
L 390.478887 -201.891991 
L 395.720981 -220.417394 
L 400.963075 -205.200893 
L 406.205169 -218.866068 
L 411.447263 -215.481012 
L 416.689357 -207.230126 
L 421.93145 -221.205224 
L 427.173544 -200.876029 
L 432.415638 -199.236918 
L 437.657732 -215.408284 
L 442.899826 -215.829676 
L 448.14192 -208.31731 
L 453.384013 -213.234223 
L 458.626107 -208.966996 
L 463.868201 -213.602268 
L 469.110295 -213.598534 
L 474.352389 -211.209807 
L 479.594483 -217.07016 
L 484.836576 -215.215306 
L 490.07867 -206.2304 
L 495.320764 -221.924896 
L 500.562858 -202.615499 
L 505.804952 -214.987814 
L 511.047046 -212.628398 
L 516.289139 -209.005955 
L 521.531233 -217.685413 
L 526.773327 -213.674544 
L 532.015421 -216.165508 
L 537.257515 -218.280797 
L 542.499609 -208.530468 
L 547.741702 -217.301852 
L 552.983796 -215.109262 
L 558.22589 -217.898371 
L 563.467984 -213.579688 
L 568.710078 -217.806038 
L 573.952172 -219.801083 
L 579.194265 -215.406735 
L 584.436359 -212.31007 
L 589.678453 -213.244244 
L 594.920547 -210.986028 
L 600.162641 -215.353992 
L 605.404735 -214.864219 
L 610.646828 -211.508926 
L 615.888922 -213.657976 
L 621.131016 -209.060976 
L 626.37311 -212.77951 
L 631.615204 -213.253101 
L 636.857298 -209.416739 
L 642.099391 -212.473034 
L 647.341485 -215.757596 
L 647.341485 -218.08356 
L 647.341485 -218.08356 
L 642.099391 -222.25005 
L 636.857298 -209.868108 
L 631.615204 -216.067906 
L 626.37311 -215.439519 
L 621.131016 -216.846225 
L 615.888922 -215.174048 
L 610.646828 -218.410143 
L 605.404735 -219.348683 
L 600.162641 -216.467307 
L 594.920547 -216.459178 
L 589.678453 -223.000582 
L 584.436359 -222.36322 
L 579.194265 -216.944088 
L 573.952172 -219.801872 
L 568.710078 -225.937412 
L 563.467984 -220.482637 
L 558.22589 -224.965881 
L 552.983796 -226.660952 
L 547.741702 -223.546702 
L 542.499609 -219.19412 
L 537.257515 -229.457882 
L 532.015421 -225.990911 
L 526.773327 -229.03548 
L 521.531233 -223.569425 
L 516.289139 -223.962095 
L 511.047046 -225.181458 
L 505.804952 -226.843145 
L 500.562858 -229.366069 
L 495.320764 -228.97406 
L 490.07867 -225.381823 
L 484.836576 -222.562063 
L 479.594483 -229.556871 
L 474.352389 -226.696302 
L 469.110295 -232.073407 
L 463.868201 -233.717721 
L 458.626107 -231.492268 
L 453.384013 -236.349948 
L 448.14192 -234.366243 
L 442.899826 -232.666838 
L 437.657732 -233.051104 
L 432.415638 -230.94698 
L 427.173544 -229.025596 
L 421.93145 -243.797945 
L 416.689357 -236.856865 
L 411.447263 -242.708554 
L 406.205169 -239.536302 
L 400.963075 -236.061561 
L 395.720981 -252.639627 
L 390.478887 -237.662083 
z
" style="stroke: #cbdede; stroke-opacity: 0.2; stroke-width: 2.5"/>
    </defs>
    <g clip-path="url(#p9c636b5f5c)">
     <use xlink:href="#m4d9c24e973" x="0" y="348.48" style="fill: #cbdede; fill-opacity: 0.2; stroke: #cbdede; stroke-opacity: 0.2; stroke-width: 2.5"/>
    </g>
   </g>
   <g id="matplotlib.axis_3">
    <g id="xtick_4">
     <g id="line2d_12">
      <g>
       <use xlink:href="#m11207852a8" x="390.478887" y="294.1738" style="stroke: #000000; stroke-width: 2"/>
      </g>
     </g>
     <g id="text_13">
      <!-- 0 -->
      <g transform="translate(385.674237 318.0425)scale(0.1728 -0.1728)">
       <use xlink:href="#ArialMT-30"/>
      </g>
     </g>
    </g>
    <g id="xtick_5">
     <g id="line2d_13">
      <g>
       <use xlink:href="#m11207852a8" x="495.320764" y="294.1738" style="stroke: #000000; stroke-width: 2"/>
      </g>
     </g>
     <g id="text_14">
      <!-- 20 -->
      <g transform="translate(485.711464 318.0425)scale(0.1728 -0.1728)">
       <use xlink:href="#ArialMT-32"/>
       <use xlink:href="#ArialMT-30" x="55.615234"/>
      </g>
     </g>
    </g>
    <g id="xtick_6">
     <g id="line2d_14">
      <g>
       <use xlink:href="#m11207852a8" x="600.162641" y="294.1738" style="stroke: #000000; stroke-width: 2"/>
      </g>
     </g>
     <g id="text_15">
      <!-- 40 -->
      <g transform="translate(590.553341 318.0425)scale(0.1728 -0.1728)">
       <use xlink:href="#ArialMT-34"/>
       <use xlink:href="#ArialMT-30" x="55.615234"/>
      </g>
     </g>
    </g>
    <g id="text_16">
     <!-- Epoch -->
     <g transform="translate(494.413086 337.8456)scale(0.1728 -0.1728)">
      <use xlink:href="#ArialMT-45"/>
      <use xlink:href="#ArialMT-70" x="66.699219"/>
      <use xlink:href="#ArialMT-6f" x="122.314453"/>
      <use xlink:href="#ArialMT-63" x="177.929688"/>
      <use xlink:href="#ArialMT-68" x="227.929688"/>
     </g>
    </g>
   </g>
   <g id="matplotlib.axis_4">
    <g id="ytick_7">
     <g id="line2d_15">
      <g>
       <use xlink:href="#m089f0564f6" x="377.635758" y="271.946455" style="stroke: #000000; stroke-width: 2"/>
      </g>
     </g>
    </g>
    <g id="ytick_8">
     <g id="line2d_16">
      <g>
       <use xlink:href="#m089f0564f6" x="377.635758" y="225.109025" style="stroke: #000000; stroke-width: 2"/>
      </g>
     </g>
    </g>
    <g id="ytick_9">
     <g id="line2d_17">
      <g>
       <use xlink:href="#m089f0564f6" x="377.635758" y="178.271595" style="stroke: #000000; stroke-width: 2"/>
      </g>
     </g>
    </g>
    <g id="ytick_10">
     <g id="line2d_18">
      <g>
       <use xlink:href="#m089f0564f6" x="377.635758" y="131.434165" style="stroke: #000000; stroke-width: 2"/>
      </g>
     </g>
    </g>
    <g id="ytick_11">
     <g id="line2d_19">
      <g>
       <use xlink:href="#m089f0564f6" x="377.635758" y="84.596735" style="stroke: #000000; stroke-width: 2"/>
      </g>
     </g>
    </g>
    <g id="ytick_12">
     <g id="line2d_20">
      <g>
       <use xlink:href="#m089f0564f6" x="377.635758" y="37.759305" style="stroke: #000000; stroke-width: 2"/>
      </g>
     </g>
    </g>
   </g>
   <g id="line2d_21">
    <path d="M 390.478887 38.442407 
L 395.720981 39.603325 
L 400.963075 45.434106 
L 406.205169 45.95199 
L 411.447263 45.518318 
L 416.689357 45.747294 
L 421.93145 45.736706 
L 427.173544 44.901942 
L 432.415638 44.017145 
L 437.657732 43.697601 
L 442.899826 43.294804 
L 448.14192 41.992668 
L 453.384013 41.336038 
L 458.626107 40.493007 
L 463.868201 40.299181 
L 469.110295 40.647684 
L 474.352389 39.825986 
L 479.594483 39.940766 
L 484.836576 40.326637 
L 490.07867 39.936768 
L 495.320764 40.598614 
L 500.562858 40.881796 
L 505.804952 40.90901 
L 511.047046 40.904947 
L 516.289139 41.386427 
L 521.531233 40.760481 
L 526.773327 41.064331 
L 532.015421 41.458303 
L 537.257515 41.742169 
L 542.499609 42.099743 
L 547.741702 42.330959 
L 552.983796 43.035457 
L 558.22589 42.238292 
L 563.467984 43.50203 
L 568.710078 42.646166 
L 573.952172 43.959257 
L 579.194265 43.658581 
L 584.436359 43.640133 
L 589.678453 44.002819 
L 594.920547 44.715017 
L 600.162641 48.126601 
L 605.404735 46.417101 
L 610.646828 45.977624 
L 615.888922 45.139907 
L 621.131016 46.629715 
L 626.37311 45.752143 
L 631.615204 44.721968 
L 636.857298 46.541284 
L 642.099391 47.150102 
L 647.341485 48.745218 
" clip-path="url(#p9c636b5f5c)" style="fill: none; stroke: #707b90; stroke-width: 2.5; stroke-linecap: square"/>
   </g>
   <g id="line2d_22">
    <path d="M 390.478887 128.702963 
L 395.720981 111.951489 
L 400.963075 127.848773 
L 406.205169 119.278815 
L 411.447263 119.385217 
L 416.689357 126.436505 
L 421.93145 115.978416 
L 427.173544 133.529188 
L 432.415638 133.388051 
L 437.657732 124.250306 
L 442.899826 124.231743 
L 448.14192 127.138223 
L 453.384013 123.687914 
L 458.626107 128.250368 
L 463.868201 124.820006 
L 469.110295 125.644029 
L 474.352389 129.526945 
L 479.594483 125.166484 
L 484.836576 129.591315 
L 490.07867 132.673889 
L 495.320764 123.030522 
L 500.562858 132.489216 
L 505.804952 127.56452 
L 511.047046 129.575072 
L 516.289139 131.995975 
L 521.531233 127.852581 
L 526.773327 127.124988 
L 532.015421 127.401791 
L 537.257515 124.610661 
L 542.499609 134.617706 
L 547.741702 128.055723 
L 552.983796 127.594893 
L 558.22589 127.047874 
L 563.467984 131.448837 
L 568.710078 126.608275 
L 573.952172 128.678522 
L 579.194265 132.304589 
L 584.436359 131.143355 
L 589.678453 130.357587 
L 594.920547 134.757397 
L 600.162641 132.56935 
L 605.404735 131.373549 
L 610.646828 133.520465 
L 615.888922 134.063988 
L 621.131016 135.526399 
L 626.37311 134.370485 
L 631.615204 133.819497 
L 636.857298 138.837576 
L 642.099391 131.118458 
L 647.341485 131.559422 
" clip-path="url(#p9c636b5f5c)" style="fill: none; stroke: #cbdede; stroke-width: 2.5; stroke-linecap: square"/>
   </g>
   <g id="patch_6">
    <path d="M 377.635758 294.1738 
L 377.635758 25.5687 
" style="fill: none; stroke: #000000; stroke-width: 1.5; stroke-linejoin: miter; stroke-linecap: square"/>
   </g>
   <g id="patch_7">
    <path d="M 377.635758 294.1738 
L 660.184615 294.1738 
" style="fill: none; stroke: #000000; stroke-width: 1.5; stroke-linejoin: miter; stroke-linecap: square"/>
   </g>
   <g id="text_17">
    <!-- $\epsilon$: 0.25 -->
    <g transform="translate(492.558186 19.5687)scale(0.1728 -0.1728)">
     <use xlink:href="#DejaVuSans-Oblique-3b5" transform="translate(0 0.125)"/>
     <use xlink:href="#ArialMT-3a" transform="translate(54.052734 0.125)"/>
     <use xlink:href="#ArialMT-20" transform="translate(81.835938 0.125)"/>
     <use xlink:href="#ArialMT-30" transform="translate(109.619141 0.125)"/>
     <use xlink:href="#ArialMT-2e" transform="translate(165.234375 0.125)"/>
     <use xlink:href="#ArialMT-32" transform="translate(193.017578 0.125)"/>
     <use xlink:href="#ArialMT-35" transform="translate(248.632812 0.125)"/>
    </g>
   </g>
  </g>
  <g id="axes_3">
   <g id="patch_8">
    <path d="M 681.144615 294.1738 
L 963.693473 294.1738 
L 963.693473 25.5687 
L 681.144615 25.5687 
z
" style="fill: #ffffff"/>
   </g>
   <g id="PolyCollection_5">
    <defs>
     <path id="m2cad3a6793" d="M 693.987745 -310.68883 
L 693.987745 -309.166822 
L 699.229839 -298.496748 
L 704.471933 -288.164571 
L 709.714027 -291.664124 
L 714.95612 -292.062599 
L 720.198214 -293.516216 
L 725.440308 -288.169097 
L 730.682402 -290.877599 
L 735.924496 -291.545791 
L 741.16659 -280.671854 
L 746.408683 -282.66595 
L 751.650777 -289.56953 
L 756.892871 -291.343617 
L 762.134965 -294.659773 
L 767.377059 -300.610654 
L 772.619153 -301.149678 
L 777.861246 -288.685297 
L 783.10334 -288.693416 
L 788.345434 -288.77366 
L 793.587528 -293.615805 
L 798.829622 -290.320794 
L 804.071716 -293.357698 
L 809.313809 -290.954854 
L 814.555903 -292.598489 
L 819.797997 -289.169846 
L 825.040091 -288.912797 
L 830.282185 -285.358066 
L 835.524279 -284.089429 
L 840.766372 -283.867224 
L 846.008466 -280.158344 
L 851.25056 -284.284026 
L 856.492654 -279.438676 
L 861.734748 -281.503704 
L 866.976842 -275.77445 
L 872.218935 -282.382172 
L 877.461029 -276.633889 
L 882.703123 -279.935994 
L 887.945217 -270.229401 
L 893.187311 -271.669375 
L 898.429405 -276.147044 
L 903.671498 -273.580336 
L 908.913592 -264.134601 
L 914.155686 -274.283717 
L 919.39778 -264.204868 
L 924.639874 -261.176831 
L 929.881968 -259.921798 
L 935.124061 -263.408263 
L 940.366155 -258.310182 
L 945.608249 -253.614893 
L 950.850343 -259.268895 
L 950.850343 -310.571472 
L 950.850343 -310.571472 
L 945.608249 -310.435472 
L 940.366155 -310.341844 
L 935.124061 -310.285678 
L 929.881968 -310.496549 
L 924.639874 -310.509079 
L 919.39778 -310.485793 
L 914.155686 -310.501032 
L 908.913592 -310.550718 
L 903.671498 -310.608198 
L 898.429405 -310.59979 
L 893.187311 -310.605393 
L 887.945217 -310.47522 
L 882.703123 -310.625248 
L 877.461029 -310.627731 
L 872.218935 -310.644997 
L 866.976842 -310.62127 
L 861.734748 -310.631908 
L 856.492654 -310.630476 
L 851.25056 -310.648163 
L 846.008466 -310.623651 
L 840.766372 -310.646215 
L 835.524279 -310.639817 
L 830.282185 -310.631406 
L 825.040091 -310.639098 
L 819.797997 -310.635955 
L 814.555903 -310.648557 
L 809.313809 -310.642803 
L 804.071716 -310.643745 
L 798.829622 -310.636428 
L 793.587528 -310.641269 
L 788.345434 -310.612767 
L 783.10334 -310.605866 
L 777.861246 -310.628775 
L 772.619153 -310.660026 
L 767.377059 -310.655779 
L 762.134965 -310.651805 
L 756.892871 -310.65598 
L 751.650777 -310.658407 
L 746.408683 -310.653119 
L 741.16659 -310.6524 
L 735.924496 -310.668243 
L 730.682402 -310.674747 
L 725.440308 -310.676188 
L 720.198214 -310.679713 
L 714.95612 -310.679456 
L 709.714027 -310.673686 
L 704.471933 -310.666766 
L 699.229839 -310.671117 
L 693.987745 -310.68883 
z
" style="stroke: #707b90; stroke-opacity: 0.2; stroke-width: 2.5"/>
    </defs>
    <g clip-path="url(#p80200ba2ff)">
     <use xlink:href="#m2cad3a6793" x="0" y="348.48" style="fill: #707b90; fill-opacity: 0.2; stroke: #707b90; stroke-opacity: 0.2; stroke-width: 2.5"/>
    </g>
   </g>
   <g id="PolyCollection_6">
    <defs>
     <path id="m39a738f66a" d="M 693.987745 -195.567708 
L 693.987745 -156.043916 
L 699.229839 -189.945 
L 704.471933 -156.966024 
L 709.714027 -192.693116 
L 714.95612 -177.787311 
L 720.198214 -172.011694 
L 725.440308 -191.378282 
L 730.682402 -160.350647 
L 735.924496 -149.581459 
L 741.16659 -191.979165 
L 746.408683 -186.140408 
L 751.650777 -180.535898 
L 756.892871 -189.722099 
L 762.134965 -185.531335 
L 767.377059 -182.601723 
L 772.619153 -189.031712 
L 777.861246 -187.51623 
L 783.10334 -188.171216 
L 788.345434 -179.289929 
L 793.587528 -179.243868 
L 798.829622 -202.561511 
L 804.071716 -174.491791 
L 809.313809 -182.024446 
L 814.555903 -185.472731 
L 819.797997 -188.551883 
L 825.040091 -189.416326 
L 830.282185 -185.19056 
L 835.524279 -189.752618 
L 840.766372 -204.123946 
L 846.008466 -181.943949 
L 851.25056 -191.767412 
L 856.492654 -189.924572 
L 861.734748 -190.621298 
L 866.976842 -187.234239 
L 872.218935 -185.616955 
L 877.461029 -198.448463 
L 882.703123 -187.813217 
L 887.945217 -177.60031 
L 893.187311 -181.76585 
L 898.429405 -177.238318 
L 903.671498 -180.406239 
L 908.913592 -182.15258 
L 914.155686 -183.196905 
L 919.39778 -185.724495 
L 924.639874 -173.292779 
L 929.881968 -183.393169 
L 935.124061 -179.623859 
L 940.366155 -173.443665 
L 945.608249 -184.923771 
L 950.850343 -187.896846 
L 950.850343 -192.133618 
L 950.850343 -192.133618 
L 945.608249 -199.635249 
L 940.366155 -173.993533 
L 935.124061 -185.761652 
L 929.881968 -190.101208 
L 924.639874 -182.78857 
L 919.39778 -185.957382 
L 914.155686 -187.313874 
L 908.913592 -196.226448 
L 903.671498 -186.268748 
L 898.429405 -193.841765 
L 893.187311 -205.039715 
L 887.945217 -196.692086 
L 882.703123 -192.599061 
L 877.461029 -202.235165 
L 872.218935 -209.139649 
L 866.976842 -192.988665 
L 861.734748 -204.098683 
L 856.492654 -203.917034 
L 851.25056 -196.007508 
L 846.008466 -191.327862 
L 840.766372 -205.014753 
L 835.524279 -197.920858 
L 830.282185 -208.988472 
L 825.040091 -193.658786 
L 819.797997 -202.382505 
L 814.555903 -194.305611 
L 809.313809 -204.152846 
L 804.071716 -209.120783 
L 798.829622 -208.94067 
L 793.587528 -191.166117 
L 788.345434 -197.414096 
L 783.10334 -209.89864 
L 777.861246 -198.157837 
L 772.619153 -213.180637 
L 767.377059 -211.00095 
L 762.134965 -207.677628 
L 756.892871 -212.668649 
L 751.650777 -212.813108 
L 746.408683 -206.587297 
L 741.16659 -212.256824 
L 735.924496 -204.12165 
L 730.682402 -208.064445 
L 725.440308 -226.447539 
L 720.198214 -220.714888 
L 714.95612 -216.359513 
L 709.714027 -217.54612 
L 704.471933 -207.040202 
L 699.229839 -227.427836 
L 693.987745 -195.567708 
z
" style="stroke: #cbdede; stroke-opacity: 0.2; stroke-width: 2.5"/>
    </defs>
    <g clip-path="url(#p80200ba2ff)">
     <use xlink:href="#m39a738f66a" x="0" y="348.48" style="fill: #cbdede; fill-opacity: 0.2; stroke: #cbdede; stroke-opacity: 0.2; stroke-width: 2.5"/>
    </g>
   </g>
   <g id="matplotlib.axis_5">
    <g id="xtick_7">
     <g id="line2d_23">
      <g>
       <use xlink:href="#m11207852a8" x="693.987745" y="294.1738" style="stroke: #000000; stroke-width: 2"/>
      </g>
     </g>
     <g id="text_18">
      <!-- 0 -->
      <g transform="translate(689.183095 318.0425)scale(0.1728 -0.1728)">
       <use xlink:href="#ArialMT-30"/>
      </g>
     </g>
    </g>
    <g id="xtick_8">
     <g id="line2d_24">
      <g>
       <use xlink:href="#m11207852a8" x="798.829622" y="294.1738" style="stroke: #000000; stroke-width: 2"/>
      </g>
     </g>
     <g id="text_19">
      <!-- 20 -->
      <g transform="translate(789.220322 318.0425)scale(0.1728 -0.1728)">
       <use xlink:href="#ArialMT-32"/>
       <use xlink:href="#ArialMT-30" x="55.615234"/>
      </g>
     </g>
    </g>
    <g id="xtick_9">
     <g id="line2d_25">
      <g>
       <use xlink:href="#m11207852a8" x="903.671498" y="294.1738" style="stroke: #000000; stroke-width: 2"/>
      </g>
     </g>
     <g id="text_20">
      <!-- 40 -->
      <g transform="translate(894.062198 318.0425)scale(0.1728 -0.1728)">
       <use xlink:href="#ArialMT-34"/>
       <use xlink:href="#ArialMT-30" x="55.615234"/>
      </g>
     </g>
    </g>
    <g id="text_21">
     <!-- Epoch -->
     <g transform="translate(797.921944 337.8456)scale(0.1728 -0.1728)">
      <use xlink:href="#ArialMT-45"/>
      <use xlink:href="#ArialMT-70" x="66.699219"/>
      <use xlink:href="#ArialMT-6f" x="122.314453"/>
      <use xlink:href="#ArialMT-63" x="177.929688"/>
      <use xlink:href="#ArialMT-68" x="227.929688"/>
     </g>
    </g>
   </g>
   <g id="matplotlib.axis_6">
    <g id="ytick_13">
     <g id="line2d_26">
      <g>
       <use xlink:href="#m089f0564f6" x="681.144615" y="271.946455" style="stroke: #000000; stroke-width: 2"/>
      </g>
     </g>
    </g>
    <g id="ytick_14">
     <g id="line2d_27">
      <g>
       <use xlink:href="#m089f0564f6" x="681.144615" y="225.109025" style="stroke: #000000; stroke-width: 2"/>
      </g>
     </g>
    </g>
    <g id="ytick_15">
     <g id="line2d_28">
      <g>
       <use xlink:href="#m089f0564f6" x="681.144615" y="178.271595" style="stroke: #000000; stroke-width: 2"/>
      </g>
     </g>
    </g>
    <g id="ytick_16">
     <g id="line2d_29">
      <g>
       <use xlink:href="#m089f0564f6" x="681.144615" y="131.434165" style="stroke: #000000; stroke-width: 2"/>
      </g>
     </g>
    </g>
    <g id="ytick_17">
     <g id="line2d_30">
      <g>
       <use xlink:href="#m089f0564f6" x="681.144615" y="84.596735" style="stroke: #000000; stroke-width: 2"/>
      </g>
     </g>
    </g>
    <g id="ytick_18">
     <g id="line2d_31">
      <g>
       <use xlink:href="#m089f0564f6" x="681.144615" y="37.759305" style="stroke: #000000; stroke-width: 2"/>
      </g>
     </g>
    </g>
   </g>
   <g id="line2d_32">
    <path d="M 693.987745 38.552174 
L 699.229839 43.896067 
L 704.471933 49.064332 
L 709.714027 47.311095 
L 714.95612 47.108972 
L 720.198214 46.382036 
L 725.440308 49.057357 
L 730.682402 47.703827 
L 735.924496 47.372983 
L 741.16659 52.817873 
L 746.408683 51.820466 
L 751.650777 48.366032 
L 756.892871 47.480202 
L 762.134965 45.824211 
L 767.377059 42.846783 
L 772.619153 42.575148 
L 777.861246 48.822964 
L 783.10334 48.830359 
L 788.345434 48.786786 
L 793.587528 46.351463 
L 798.829622 48.001389 
L 804.071716 46.479278 
L 809.313809 47.681172 
L 814.555903 46.856477 
L 819.797997 48.5771 
L 825.040091 48.704053 
L 830.282185 50.485264 
L 835.524279 51.115377 
L 840.766372 51.22328 
L 846.008466 53.089002 
L 851.25056 51.013906 
L 856.492654 53.445424 
L 861.734748 52.412194 
L 866.976842 55.28214 
L 872.218935 51.966415 
L 877.461029 54.84919 
L 882.703123 53.199379 
L 887.945217 58.127689 
L 893.187311 57.342616 
L 898.429405 55.106583 
L 903.671498 56.385733 
L 908.913592 61.13734 
L 914.155686 56.087626 
L 919.39778 61.13467 
L 924.639874 62.637045 
L 929.881968 63.270827 
L 935.124061 61.63303 
L 940.366155 64.153987 
L 945.608249 66.454817 
L 950.850343 63.559816 
" clip-path="url(#p80200ba2ff)" style="fill: none; stroke: #707b90; stroke-width: 2.5; stroke-linecap: square"/>
   </g>
   <g id="line2d_33">
    <path d="M 693.987745 172.674188 
L 699.229839 139.793582 
L 704.471933 166.476887 
L 709.714027 143.360382 
L 714.95612 151.406588 
L 720.198214 152.116709 
L 725.440308 139.567089 
L 730.682402 164.272454 
L 735.924496 171.628445 
L 741.16659 146.362006 
L 746.408683 152.116148 
L 751.650777 151.805497 
L 756.892871 147.284626 
L 762.134965 151.875518 
L 767.377059 151.678663 
L 772.619153 147.373826 
L 777.861246 155.642967 
L 783.10334 149.445072 
L 788.345434 160.127987 
L 793.587528 163.275008 
L 798.829622 142.72891 
L 804.071716 156.673713 
L 809.313809 155.391354 
L 814.555903 158.590829 
L 819.797997 153.012806 
L 825.040091 156.942444 
L 830.282185 151.390484 
L 835.524279 154.643262 
L 840.766372 143.91065 
L 846.008466 161.844095 
L 851.25056 154.59254 
L 856.492654 151.559197 
L 861.734748 151.12001 
L 866.976842 158.368548 
L 872.218935 151.101698 
L 877.461029 148.138186 
L 882.703123 158.273861 
L 887.945217 161.333802 
L 893.187311 155.077218 
L 898.429405 162.939959 
L 903.671498 165.142507 
L 908.913592 159.290486 
L 914.155686 163.224611 
L 919.39778 162.639062 
L 924.639874 170.439326 
L 929.881968 161.732812 
L 935.124061 165.787244 
L 940.366155 174.761401 
L 945.608249 156.20049 
L 950.850343 158.464768 
" clip-path="url(#p80200ba2ff)" style="fill: none; stroke: #cbdede; stroke-width: 2.5; stroke-linecap: square"/>
   </g>
   <g id="patch_9">
    <path d="M 681.144615 294.1738 
L 681.144615 25.5687 
" style="fill: none; stroke: #000000; stroke-width: 1.5; stroke-linejoin: miter; stroke-linecap: square"/>
   </g>
   <g id="patch_10">
    <path d="M 681.144615 294.1738 
L 963.693473 294.1738 
" style="fill: none; stroke: #000000; stroke-width: 1.5; stroke-linejoin: miter; stroke-linecap: square"/>
   </g>
   <g id="text_22">
    <!-- $\epsilon$: 0.5 -->
    <g transform="translate(800.905444 19.5687)scale(0.1728 -0.1728)">
     <use xlink:href="#DejaVuSans-Oblique-3b5" transform="translate(0 0.125)"/>
     <use xlink:href="#ArialMT-3a" transform="translate(54.052734 0.125)"/>
     <use xlink:href="#ArialMT-20" transform="translate(81.835938 0.125)"/>
     <use xlink:href="#ArialMT-30" transform="translate(109.619141 0.125)"/>
     <use xlink:href="#ArialMT-2e" transform="translate(165.234375 0.125)"/>
     <use xlink:href="#ArialMT-35" transform="translate(193.017578 0.125)"/>
    </g>
   </g>
  </g>
  <g id="axes_4">
   <g id="patch_11">
    <path d="M 984.653473 294.1738 
L 1267.20233 294.1738 
L 1267.20233 25.5687 
L 984.653473 25.5687 
z
" style="fill: #ffffff"/>
   </g>
   <g id="PolyCollection_7">
    <defs>
     <path id="mda0978e561" d="M 997.496603 -310.667881 
L 997.496603 -290.961403 
L 1002.738697 -279.323652 
L 1007.98079 -278.22385 
L 1013.222884 -254.570099 
L 1018.464978 -261.619848 
L 1023.707072 -246.407835 
L 1028.949166 -237.855271 
L 1034.19126 -217.136855 
L 1039.433353 -217.155514 
L 1044.675447 -223.223126 
L 1049.917541 -196.109985 
L 1055.159635 -221.034653 
L 1060.401729 -201.179729 
L 1065.643823 -210.282933 
L 1070.885916 -193.328932 
L 1076.12801 -190.228356 
L 1081.370104 -194.384378 
L 1086.612198 -192.322551 
L 1091.854292 -171.153414 
L 1097.096386 -187.504865 
L 1102.338479 -160.757962 
L 1107.580573 -167.12817 
L 1112.822667 -154.072386 
L 1118.064761 -145.908357 
L 1123.306855 -142.352623 
L 1128.548949 -142.522012 
L 1133.791042 -149.795889 
L 1139.033136 -151.018208 
L 1144.27523 -138.680096 
L 1149.517324 -146.381448 
L 1154.759418 -129.184816 
L 1160.001512 -132.471466 
L 1165.243605 -133.446854 
L 1170.485699 -133.582374 
L 1175.727793 -135.552698 
L 1180.969887 -125.831967 
L 1186.211981 -118.219819 
L 1191.454075 -118.554437 
L 1196.696168 -109.327783 
L 1201.938262 -117.235835 
L 1207.180356 -94.806202 
L 1212.42245 -100.484636 
L 1217.664544 -107.537382 
L 1222.906638 -99.30775 
L 1228.148731 -87.380957 
L 1233.390825 -84.102184 
L 1238.632919 -73.463383 
L 1243.875013 -76.172657 
L 1249.117107 -67.155101 
L 1254.359201 -67.977158 
L 1254.359201 -306.911945 
L 1254.359201 -306.911945 
L 1249.117107 -307.349255 
L 1243.875013 -307.482628 
L 1238.632919 -307.250345 
L 1233.390825 -307.559286 
L 1228.148731 -307.528322 
L 1222.906638 -307.586688 
L 1217.664544 -308.217682 
L 1212.42245 -308.112708 
L 1207.180356 -307.766241 
L 1201.938262 -308.434522 
L 1196.696168 -307.885131 
L 1191.454075 -308.583555 
L 1186.211981 -308.315238 
L 1180.969887 -308.581543 
L 1175.727793 -308.429912 
L 1170.485699 -308.360366 
L 1165.243605 -308.472333 
L 1160.001512 -308.780058 
L 1154.759418 -308.910065 
L 1149.517324 -309.144001 
L 1144.27523 -308.897433 
L 1139.033136 -308.916207 
L 1133.791042 -308.474452 
L 1128.548949 -309.319394 
L 1123.306855 -308.777275 
L 1118.064761 -309.160108 
L 1112.822667 -308.215906 
L 1107.580573 -309.059439 
L 1102.338479 -309.321207 
L 1097.096386 -309.718526 
L 1091.854292 -309.642564 
L 1086.612198 -309.568065 
L 1081.370104 -309.799441 
L 1076.12801 -309.73705 
L 1070.885916 -309.299081 
L 1065.643823 -310.001567 
L 1060.401729 -309.939575 
L 1055.159635 -310.303151 
L 1049.917541 -310.130962 
L 1044.675447 -310.237981 
L 1039.433353 -309.830187 
L 1034.19126 -309.960771 
L 1028.949166 -310.426131 
L 1023.707072 -310.419337 
L 1018.464978 -310.627228 
L 1013.222884 -310.624224 
L 1007.98079 -310.46886 
L 1002.738697 -310.651556 
L 997.496603 -310.667881 
z
" style="stroke: #707b90; stroke-opacity: 0.2; stroke-width: 2.5"/>
    </defs>
    <g clip-path="url(#pafc5c4f977)">
     <use xlink:href="#mda0978e561" x="0" y="348.48" style="fill: #707b90; fill-opacity: 0.2; stroke: #707b90; stroke-opacity: 0.2; stroke-width: 2.5"/>
    </g>
   </g>
   <g id="PolyCollection_8">
    <defs>
     <path id="mf88bcd2cf4" d="M 997.496603 -156.473522 
L 997.496603 -94.950506 
L 1002.738697 -132.624613 
L 1007.98079 -81.934756 
L 1013.222884 -149.503071 
L 1018.464978 -118.137575 
L 1023.707072 -126.302247 
L 1028.949166 -143.470098 
L 1034.19126 -96.806967 
L 1039.433353 -66.515523 
L 1044.675447 -150.490681 
L 1049.917541 -133.695148 
L 1055.159635 -128.110714 
L 1060.401729 -150.044051 
L 1065.643823 -136.601825 
L 1070.885916 -141.422084 
L 1076.12801 -137.367164 
L 1081.370104 -138.87005 
L 1086.612198 -142.489284 
L 1091.854292 -125.036768 
L 1097.096386 -117.800211 
L 1102.338479 -158.416855 
L 1107.580573 -123.119273 
L 1112.822667 -127.61566 
L 1118.064761 -125.594116 
L 1123.306855 -142.723875 
L 1128.548949 -132.390997 
L 1133.791042 -120.196996 
L 1139.033136 -129.972129 
L 1144.27523 -152.085195 
L 1149.517324 -120.317263 
L 1154.759418 -133.359349 
L 1160.001512 -130.506342 
L 1165.243605 -122.376588 
L 1170.485699 -133.559178 
L 1175.727793 -137.008883 
L 1180.969887 -145.427051 
L 1186.211981 -130.73613 
L 1191.454075 -109.838658 
L 1196.696168 -113.194131 
L 1201.938262 -111.107996 
L 1207.180356 -118.256389 
L 1212.42245 -111.604758 
L 1217.664544 -123.923534 
L 1222.906638 -132.656068 
L 1228.148731 -104.992813 
L 1233.390825 -131.480687 
L 1238.632919 -117.036506 
L 1243.875013 -113.211836 
L 1249.117107 -133.207226 
L 1254.359201 -126.457473 
L 1254.359201 -131.781848 
L 1254.359201 -131.781848 
L 1249.117107 -146.749685 
L 1243.875013 -126.190989 
L 1238.632919 -140.007445 
L 1233.390825 -139.944718 
L 1228.148731 -139.063027 
L 1222.906638 -138.191498 
L 1217.664544 -135.905616 
L 1212.42245 -145.607924 
L 1207.180356 -131.031742 
L 1201.938262 -142.360866 
L 1196.696168 -164.232534 
L 1191.454075 -139.935225 
L 1186.211981 -149.810999 
L 1180.969887 -146.197496 
L 1175.727793 -159.328753 
L 1170.485699 -148.335176 
L 1165.243605 -155.015328 
L 1160.001512 -161.415808 
L 1154.759418 -141.24923 
L 1149.517324 -150.740907 
L 1144.27523 -159.235066 
L 1139.033136 -154.828935 
L 1133.791042 -153.270859 
L 1128.548949 -142.307053 
L 1123.306855 -152.039381 
L 1118.064761 -133.693205 
L 1112.822667 -155.803165 
L 1107.580573 -167.432487 
L 1102.338479 -162.298188 
L 1097.096386 -143.033016 
L 1091.854292 -145.252589 
L 1086.612198 -161.039958 
L 1081.370104 -142.634212 
L 1076.12801 -166.467301 
L 1070.885916 -156.52856 
L 1065.643823 -165.1971 
L 1060.401729 -167.291274 
L 1055.159635 -168.149107 
L 1049.917541 -158.346647 
L 1044.675447 -160.79039 
L 1039.433353 -161.443824 
L 1034.19126 -166.950134 
L 1028.949166 -190.208327 
L 1023.707072 -192.715122 
L 1018.464978 -185.099536 
L 1013.222884 -182.481956 
L 1007.98079 -158.472031 
L 1002.738697 -187.482256 
L 997.496603 -156.473522 
z
" style="stroke: #cbdede; stroke-opacity: 0.2; stroke-width: 2.5"/>
    </defs>
    <g clip-path="url(#pafc5c4f977)">
     <use xlink:href="#mf88bcd2cf4" x="0" y="348.48" style="fill: #cbdede; fill-opacity: 0.2; stroke: #cbdede; stroke-opacity: 0.2; stroke-width: 2.5"/>
    </g>
   </g>
   <g id="matplotlib.axis_7">
    <g id="xtick_10">
     <g id="line2d_34">
      <g>
       <use xlink:href="#m11207852a8" x="997.496603" y="294.1738" style="stroke: #000000; stroke-width: 2"/>
      </g>
     </g>
     <g id="text_23">
      <!-- 0 -->
      <g transform="translate(992.691953 318.0425)scale(0.1728 -0.1728)">
       <use xlink:href="#ArialMT-30"/>
      </g>
     </g>
    </g>
    <g id="xtick_11">
     <g id="line2d_35">
      <g>
       <use xlink:href="#m11207852a8" x="1102.338479" y="294.1738" style="stroke: #000000; stroke-width: 2"/>
      </g>
     </g>
     <g id="text_24">
      <!-- 20 -->
      <g transform="translate(1092.729179 318.0425)scale(0.1728 -0.1728)">
       <use xlink:href="#ArialMT-32"/>
       <use xlink:href="#ArialMT-30" x="55.615234"/>
      </g>
     </g>
    </g>
    <g id="xtick_12">
     <g id="line2d_36">
      <g>
       <use xlink:href="#m11207852a8" x="1207.180356" y="294.1738" style="stroke: #000000; stroke-width: 2"/>
      </g>
     </g>
     <g id="text_25">
      <!-- 40 -->
      <g transform="translate(1197.571056 318.0425)scale(0.1728 -0.1728)">
       <use xlink:href="#ArialMT-34"/>
       <use xlink:href="#ArialMT-30" x="55.615234"/>
      </g>
     </g>
    </g>
    <g id="text_26">
     <!-- Epoch -->
     <g transform="translate(1101.430802 337.8456)scale(0.1728 -0.1728)">
      <use xlink:href="#ArialMT-45"/>
      <use xlink:href="#ArialMT-70" x="66.699219"/>
      <use xlink:href="#ArialMT-6f" x="122.314453"/>
      <use xlink:href="#ArialMT-63" x="177.929688"/>
      <use xlink:href="#ArialMT-68" x="227.929688"/>
     </g>
    </g>
   </g>
   <g id="matplotlib.axis_8">
    <g id="ytick_19">
     <g id="line2d_37">
      <g>
       <use xlink:href="#m089f0564f6" x="984.653473" y="271.946455" style="stroke: #000000; stroke-width: 2"/>
      </g>
     </g>
    </g>
    <g id="ytick_20">
     <g id="line2d_38">
      <g>
       <use xlink:href="#m089f0564f6" x="984.653473" y="225.109025" style="stroke: #000000; stroke-width: 2"/>
      </g>
     </g>
    </g>
    <g id="ytick_21">
     <g id="line2d_39">
      <g>
       <use xlink:href="#m089f0564f6" x="984.653473" y="178.271595" style="stroke: #000000; stroke-width: 2"/>
      </g>
     </g>
    </g>
    <g id="ytick_22">
     <g id="line2d_40">
      <g>
       <use xlink:href="#m089f0564f6" x="984.653473" y="131.434165" style="stroke: #000000; stroke-width: 2"/>
      </g>
     </g>
    </g>
    <g id="ytick_23">
     <g id="line2d_41">
      <g>
       <use xlink:href="#m089f0564f6" x="984.653473" y="84.596735" style="stroke: #000000; stroke-width: 2"/>
      </g>
     </g>
    </g>
    <g id="ytick_24">
     <g id="line2d_42">
      <g>
       <use xlink:href="#m089f0564f6" x="984.653473" y="37.759305" style="stroke: #000000; stroke-width: 2"/>
      </g>
     </g>
    </g>
   </g>
   <g id="line2d_43">
    <path d="M 997.496603 47.665358 
L 1002.738697 53.492396 
L 1007.98079 54.133645 
L 1013.222884 65.882839 
L 1018.464978 62.356462 
L 1023.707072 70.066414 
L 1028.949166 74.339299 
L 1034.19126 84.931187 
L 1039.433353 84.987149 
L 1044.675447 81.749446 
L 1049.917541 95.359526 
L 1055.159635 82.811098 
L 1060.401729 92.920348 
L 1065.643823 88.33775 
L 1070.885916 97.165994 
L 1076.12801 98.497297 
L 1081.370104 96.388091 
L 1086.612198 97.534692 
L 1091.854292 108.082011 
L 1097.096386 99.868305 
L 1102.338479 113.440416 
L 1107.580573 110.386196 
L 1112.822667 117.335854 
L 1118.064761 120.945767 
L 1123.306855 122.915051 
L 1128.548949 122.559297 
L 1133.791042 119.344829 
L 1139.033136 118.512793 
L 1144.27523 124.691235 
L 1149.517324 120.717275 
L 1154.759418 129.432559 
L 1160.001512 127.854238 
L 1165.243605 127.520407 
L 1170.485699 127.50863 
L 1175.727793 126.488695 
L 1180.969887 131.273245 
L 1186.211981 135.212471 
L 1191.454075 134.911004 
L 1196.696168 139.873543 
L 1201.938262 135.644822 
L 1207.180356 147.193778 
L 1212.42245 144.181328 
L 1217.664544 140.602468 
L 1222.906638 145.032781 
L 1228.148731 151.02536 
L 1233.390825 152.649265 
L 1238.632919 158.123136 
L 1243.875013 156.652358 
L 1249.117107 161.227822 
L 1254.359201 161.035448 
" clip-path="url(#pafc5c4f977)" style="fill: none; stroke: #707b90; stroke-width: 2.5; stroke-linecap: square"/>
   </g>
   <g id="line2d_44">
    <path d="M 997.496603 222.767986 
L 1002.738697 188.426565 
L 1007.98079 228.276606 
L 1013.222884 182.487486 
L 1018.464978 196.861444 
L 1023.707072 188.971315 
L 1028.949166 181.640788 
L 1034.19126 216.601449 
L 1039.433353 234.500327 
L 1044.675447 192.839464 
L 1049.917541 202.459103 
L 1055.159635 200.35009 
L 1060.401729 189.812338 
L 1065.643823 197.580538 
L 1070.885916 199.504678 
L 1076.12801 196.562768 
L 1081.370104 207.727869 
L 1086.612198 196.715379 
L 1091.854292 213.335322 
L 1097.096386 218.063386 
L 1102.338479 188.122478 
L 1107.580573 203.20412 
L 1112.822667 206.770587 
L 1118.064761 218.83634 
L 1123.306855 201.098372 
L 1128.548949 211.130975 
L 1133.791042 211.746073 
L 1139.033136 206.079468 
L 1144.27523 192.819869 
L 1149.517324 212.950915 
L 1154.759418 211.17571 
L 1160.001512 202.518925 
L 1165.243605 209.784042 
L 1170.485699 207.532823 
L 1175.727793 200.311182 
L 1180.969887 202.667727 
L 1186.211981 208.206436 
L 1191.454075 223.593059 
L 1196.696168 209.766667 
L 1201.938262 221.745569 
L 1207.180356 223.835934 
L 1212.42245 219.873659 
L 1217.664544 218.565425 
L 1222.906638 213.056217 
L 1228.148731 226.45208 
L 1233.390825 212.767297 
L 1238.632919 219.958025 
L 1243.875013 228.778587 
L 1249.117107 208.501545 
L 1254.359201 219.36034 
" clip-path="url(#pafc5c4f977)" style="fill: none; stroke: #cbdede; stroke-width: 2.5; stroke-linecap: square"/>
   </g>
   <g id="patch_12">
    <path d="M 984.653473 294.1738 
L 984.653473 25.5687 
" style="fill: none; stroke: #000000; stroke-width: 1.5; stroke-linejoin: miter; stroke-linecap: square"/>
   </g>
   <g id="patch_13">
    <path d="M 984.653473 294.1738 
L 1267.20233 294.1738 
" style="fill: none; stroke: #000000; stroke-width: 1.5; stroke-linejoin: miter; stroke-linecap: square"/>
   </g>
   <g id="text_27">
    <!-- $\epsilon$: 0.75 -->
    <g transform="translate(1099.575902 19.5687)scale(0.1728 -0.1728)">
     <use xlink:href="#DejaVuSans-Oblique-3b5" transform="translate(0 0.125)"/>
     <use xlink:href="#ArialMT-3a" transform="translate(54.052734 0.125)"/>
     <use xlink:href="#ArialMT-20" transform="translate(81.835938 0.125)"/>
     <use xlink:href="#ArialMT-30" transform="translate(109.619141 0.125)"/>
     <use xlink:href="#ArialMT-2e" transform="translate(165.234375 0.125)"/>
     <use xlink:href="#ArialMT-37" transform="translate(193.017578 0.125)"/>
     <use xlink:href="#ArialMT-35" transform="translate(248.632812 0.125)"/>
    </g>
   </g>
   <g id="legend_1">
    <g id="line2d_45">
     <path d="M 1296.881773 146.06885 
L 1314.161773 146.06885 
L 1331.441773 146.06885 
" style="fill: none; stroke: #707b90; stroke-width: 2.5; stroke-linecap: square"/>
    </g>
    <g id="text_28">
     <!-- I-Norm -->
     <g transform="translate(1345.265773 152.11685)scale(0.1728 -0.1728)">
      <defs>
       <path id="ArialMT-49" d="M 597 0 
L 597 4581 
L 1203 4581 
L 1203 0 
L 597 0 
z
" transform="scale(0.015625)"/>
       <path id="ArialMT-2d" d="M 203 1375 
L 203 1941 
L 1931 1941 
L 1931 1375 
L 203 1375 
z
" transform="scale(0.015625)"/>
      </defs>
      <use xlink:href="#ArialMT-49"/>
      <use xlink:href="#ArialMT-2d" x="27.783203"/>
      <use xlink:href="#ArialMT-4e" x="61.083984"/>
      <use xlink:href="#ArialMT-6f" x="133.300781"/>
      <use xlink:href="#ArialMT-72" x="188.916016"/>
      <use xlink:href="#ArialMT-6d" x="222.216797"/>
     </g>
    </g>
    <g id="line2d_46">
     <path d="M 1296.881773 170.51195 
L 1314.161773 170.51195 
L 1331.441773 170.51195 
" style="fill: none; stroke: #cbdede; stroke-width: 2.5; stroke-linecap: square"/>
    </g>
    <g id="text_29">
     <!-- No Norm -->
     <g transform="translate(1345.265773 176.55995)scale(0.1728 -0.1728)">
      <use xlink:href="#ArialMT-4e"/>
      <use xlink:href="#ArialMT-6f" x="72.216797"/>
      <use xlink:href="#ArialMT-20" x="127.832031"/>
      <use xlink:href="#ArialMT-4e" x="155.615234"/>
      <use xlink:href="#ArialMT-6f" x="227.832031"/>
      <use xlink:href="#ArialMT-72" x="283.447266"/>
      <use xlink:href="#ArialMT-6d" x="316.748047"/>
     </g>
    </g>
   </g>
  </g>
 </g>
 <defs>
  <clipPath id="paac12cb609">
   <rect x="74.1269" y="25.5687" width="282.548858" height="268.6051"/>
  </clipPath>
  <clipPath id="p9c636b5f5c">
   <rect x="377.635758" y="25.5687" width="282.548858" height="268.6051"/>
  </clipPath>
  <clipPath id="p80200ba2ff">
   <rect x="681.144615" y="25.5687" width="282.548858" height="268.6051"/>
  </clipPath>
  <clipPath id="pafc5c4f977">
   <rect x="984.653473" y="25.5687" width="282.548858" height="268.6051"/>
  </clipPath>
 </defs>
</svg>
