<?xml version="1.0" encoding="utf-8" standalone="no"?>
<!DOCTYPE svg PUBLIC "-//W3C//DTD SVG 1.1//EN"
  "http://www.w3.org/Graphics/SVG/1.1/DTD/svg11.dtd">
<svg xmlns:xlink="http://www.w3.org/1999/xlink" width="449.28pt" height="334.08pt" viewBox="0 0 449.28 334.08" xmlns="http://www.w3.org/2000/svg" version="1.1">
 <metadata>
  <rdf:RDF xmlns:dc="http://purl.org/dc/elements/1.1/" xmlns:cc="http://creativecommons.org/ns#" xmlns:rdf="http://www.w3.org/1999/02/22-rdf-syntax-ns#">
   <cc:Work>
    <dc:type rdf:resource="http://purl.org/dc/dcmitype/StillImage"/>
    <dc:date>2025-06-19T12:03:11.578756</dc:date>
    <dc:format>image/svg+xml</dc:format>
    <dc:creator>
     <cc:Agent>
      <dc:title>Matplotlib v3.5.3, https://matplotlib.org/</dc:title>
     </cc:Agent>
    </dc:creator>
   </cc:Work>
  </rdf:RDF>
 </metadata>
 <defs>
  <style type="text/css">*{stroke-linejoin: round; stroke-linecap: butt}</style>
 </defs>
 <g id="figure_1">
  <g id="patch_1">
   <path d="M 0 334.08 
L 449.28 334.08 
L 449.28 0 
L 0 0 
z
" style="fill: #ffffff"/>
  </g>
  <g id="axes_1">
   <g id="patch_2">
    <path d="M 79.9125 274.79875 
L 430.958125 274.79875 
L 430.958125 31.16875 
L 79.9125 31.16875 
z
" style="fill: #ffffff"/>
   </g>
   <g id="PathCollection_1">
    <defs>
     <path id="mc387b379f4" d="M 0 5 
C 1.326016 5 2.597899 4.473168 3.535534 3.535534 
C 4.473168 2.597899 5 1.326016 5 0 
C 5 -1.326016 4.473168 -2.597899 3.535534 -3.535534 
C 2.597899 -4.473168 1.326016 -5 0 -5 
C -1.326016 -5 -2.597899 -4.473168 -3.535534 -3.535534 
C -4.473168 -2.597899 -5 -1.326016 -5 0 
C -5 1.326016 -4.473168 2.597899 -3.535534 3.535534 
C -2.597899 4.473168 -1.326016 5 0 5 
z
" style="stroke: #000000; stroke-width: 2.5"/>
    </defs>
    <g clip-path="url(#p89ffe772b0)">
     <use xlink:href="#mc387b379f4" x="407.920756" y="94.208012" style="stroke: #000000; stroke-width: 2.5"/>
    </g>
   </g>
   <g id="PathCollection_2">
    <g clip-path="url(#p89ffe772b0)">
     <use xlink:href="#mc387b379f4" x="397.389387" y="109.13035" style="stroke: #000000; stroke-width: 2.5"/>
    </g>
   </g>
   <g id="PathCollection_3">
    <g clip-path="url(#p89ffe772b0)">
     <use xlink:href="#mc387b379f4" x="402.655071" y="112.937069" style="stroke: #000000; stroke-width: 2.5"/>
    </g>
   </g>
   <g id="PathCollection_4">
    <g clip-path="url(#p89ffe772b0)">
     <use xlink:href="#mc387b379f4" x="387.516229" y="113.241606" style="stroke: #000000; stroke-width: 2.5"/>
    </g>
   </g>
   <g id="PathCollection_5">
    <g clip-path="url(#p89ffe772b0)">
     <use xlink:href="#mc387b379f4" x="379.398299" y="114.764294" style="stroke: #000000; stroke-width: 2.5"/>
    </g>
   </g>
   <g id="PathCollection_6">
    <g clip-path="url(#p89ffe772b0)">
     <use xlink:href="#mc387b379f4" x="409.45658" y="116.286981" style="stroke: #000000; stroke-width: 2.5"/>
    </g>
   </g>
   <g id="PathCollection_7">
    <g clip-path="url(#p89ffe772b0)">
     <use xlink:href="#mc387b379f4" x="371.280369" y="117.200594" style="stroke: #000000; stroke-width: 2.5"/>
    </g>
   </g>
   <g id="PathCollection_8">
    <g clip-path="url(#p89ffe772b0)">
     <use xlink:href="#mc387b379f4" x="393.659527" y="117.809669" style="stroke: #000000; stroke-width: 2.5"/>
    </g>
   </g>
   <g id="PathCollection_9">
    <g clip-path="url(#p89ffe772b0)">
     <use xlink:href="#mc387b379f4" x="385.980404" y="120.550506" style="stroke: #000000; stroke-width: 2.5"/>
    </g>
   </g>
   <g id="PathCollection_10">
    <g clip-path="url(#p89ffe772b0)">
     <use xlink:href="#mc387b379f4" x="350.875842" y="121.159581" style="stroke: #000000; stroke-width: 2.5"/>
    </g>
   </g>
   <g id="PathCollection_11">
    <g clip-path="url(#p89ffe772b0)">
     <use xlink:href="#mc387b379f4" x="391.465492" y="121.31185" style="stroke: #000000; stroke-width: 2.5"/>
    </g>
   </g>
   <g id="PathCollection_12">
    <g clip-path="url(#p89ffe772b0)">
     <use xlink:href="#mc387b379f4" x="393.22072" y="121.616387" style="stroke: #000000; stroke-width: 2.5"/>
    </g>
   </g>
   <g id="PathCollection_13">
    <g clip-path="url(#p89ffe772b0)">
     <use xlink:href="#mc387b379f4" x="392.123703" y="124.661762" style="stroke: #000000; stroke-width: 2.5"/>
    </g>
   </g>
   <g id="PathCollection_14">
    <g clip-path="url(#p89ffe772b0)">
     <use xlink:href="#mc387b379f4" x="352.850473" y="125.575375" style="stroke: #000000; stroke-width: 2.5"/>
    </g>
   </g>
   <g id="PathCollection_15">
    <g clip-path="url(#p89ffe772b0)">
     <use xlink:href="#mc387b379f4" x="373.693807" y="127.4026" style="stroke: #000000; stroke-width: 2.5"/>
    </g>
   </g>
   <g id="PathCollection_16">
    <g clip-path="url(#p89ffe772b0)">
     <use xlink:href="#mc387b379f4" x="392.56251" y="128.62075" style="stroke: #000000; stroke-width: 2.5"/>
    </g>
   </g>
   <g id="PathCollection_17">
    <g clip-path="url(#p89ffe772b0)">
     <use xlink:href="#mc387b379f4" x="404.4103" y="128.62075" style="stroke: #000000; stroke-width: 2.5"/>
    </g>
   </g>
   <g id="PathCollection_18">
    <g clip-path="url(#p89ffe772b0)">
     <use xlink:href="#mc387b379f4" x="393.22072" y="128.773019" style="stroke: #000000; stroke-width: 2.5"/>
    </g>
   </g>
   <g id="PathCollection_19">
    <g clip-path="url(#p89ffe772b0)">
     <use xlink:href="#mc387b379f4" x="346.048964" y="132.884275" style="stroke: #000000; stroke-width: 2.5"/>
    </g>
   </g>
   <g id="PathCollection_20">
    <g clip-path="url(#p89ffe772b0)">
     <use xlink:href="#mc387b379f4" x="395.634159" y="134.254694" style="stroke: #000000; stroke-width: 2.5"/>
    </g>
   </g>
   <g id="PathCollection_21">
    <g clip-path="url(#p89ffe772b0)">
     <use xlink:href="#mc387b379f4" x="388.174439" y="135.016037" style="stroke: #000000; stroke-width: 2.5"/>
    </g>
   </g>
   <g id="PathCollection_22">
    <g clip-path="url(#p89ffe772b0)">
     <use xlink:href="#mc387b379f4" x="394.317738" y="135.320575" style="stroke: #000000; stroke-width: 2.5"/>
    </g>
   </g>
   <g id="PathCollection_23">
    <g clip-path="url(#p89ffe772b0)">
     <use xlink:href="#mc387b379f4" x="380.275913" y="135.625112" style="stroke: #000000; stroke-width: 2.5"/>
    </g>
   </g>
   <g id="PathCollection_24">
    <g clip-path="url(#p89ffe772b0)">
     <use xlink:href="#mc387b379f4" x="339.686263" y="136.690994" style="stroke: #000000; stroke-width: 2.5"/>
    </g>
   </g>
   <g id="PathCollection_25">
    <g clip-path="url(#p89ffe772b0)">
     <use xlink:href="#mc387b379f4" x="396.731177" y="137.452337" style="stroke: #000000; stroke-width: 2.5"/>
    </g>
   </g>
   <g id="PathCollection_26">
    <g clip-path="url(#p89ffe772b0)">
     <use xlink:href="#mc387b379f4" x="348.681807" y="139.888637" style="stroke: #000000; stroke-width: 2.5"/>
    </g>
   </g>
   <g id="PathCollection_27">
    <g clip-path="url(#p89ffe772b0)">
     <use xlink:href="#mc387b379f4" x="404.629703" y="140.80225" style="stroke: #000000; stroke-width: 2.5"/>
    </g>
   </g>
   <g id="PathCollection_28">
    <g clip-path="url(#p89ffe772b0)">
     <use xlink:href="#mc387b379f4" x="369.525141" y="141.868131" style="stroke: #000000; stroke-width: 2.5"/>
    </g>
   </g>
   <g id="PathCollection_29">
    <g clip-path="url(#p89ffe772b0)">
     <use xlink:href="#mc387b379f4" x="380.495316" y="142.781744" style="stroke: #000000; stroke-width: 2.5"/>
    </g>
   </g>
   <g id="PathCollection_30">
    <g clip-path="url(#p89ffe772b0)">
     <use xlink:href="#mc387b379f4" x="387.516229" y="142.934012" style="stroke: #000000; stroke-width: 2.5"/>
    </g>
   </g>
   <g id="PathCollection_31">
    <g clip-path="url(#p89ffe772b0)">
     <use xlink:href="#mc387b379f4" x="362.504228" y="143.999894" style="stroke: #000000; stroke-width: 2.5"/>
    </g>
   </g>
   <g id="PathCollection_32">
    <g clip-path="url(#p89ffe772b0)">
     <use xlink:href="#mc387b379f4" x="403.752089" y="144.152163" style="stroke: #000000; stroke-width: 2.5"/>
    </g>
   </g>
   <g id="PathCollection_33">
    <g clip-path="url(#p89ffe772b0)">
     <use xlink:href="#mc387b379f4" x="363.820649" y="145.827119" style="stroke: #000000; stroke-width: 2.5"/>
    </g>
   </g>
   <g id="PathCollection_34">
    <g clip-path="url(#p89ffe772b0)">
     <use xlink:href="#mc387b379f4" x="404.629703" y="147.349806" style="stroke: #000000; stroke-width: 2.5"/>
    </g>
   </g>
   <g id="PathCollection_35">
    <g clip-path="url(#p89ffe772b0)">
     <use xlink:href="#mc387b379f4" x="320.81756" y="147.349806" style="stroke: #000000; stroke-width: 2.5"/>
    </g>
   </g>
   <g id="PathCollection_36">
    <g clip-path="url(#p89ffe772b0)">
     <use xlink:href="#mc387b379f4" x="376.107246" y="147.806612" style="stroke: #000000; stroke-width: 2.5"/>
    </g>
   </g>
   <g id="PathCollection_37">
    <g clip-path="url(#p89ffe772b0)">
     <use xlink:href="#mc387b379f4" x="367.111702" y="148.872494" style="stroke: #000000; stroke-width: 2.5"/>
    </g>
   </g>
   <g id="PathCollection_38">
    <g clip-path="url(#p89ffe772b0)">
     <use xlink:href="#mc387b379f4" x="369.525141" y="148.872494" style="stroke: #000000; stroke-width: 2.5"/>
    </g>
   </g>
   <g id="PathCollection_39">
    <g clip-path="url(#p89ffe772b0)">
     <use xlink:href="#mc387b379f4" x="383.566966" y="150.395181" style="stroke: #000000; stroke-width: 2.5"/>
    </g>
   </g>
   <g id="PathCollection_40">
    <g clip-path="url(#p89ffe772b0)">
     <use xlink:href="#mc387b379f4" x="395.853563" y="150.851987" style="stroke: #000000; stroke-width: 2.5"/>
    </g>
   </g>
   <g id="PathCollection_41">
    <g clip-path="url(#p89ffe772b0)">
     <use xlink:href="#mc387b379f4" x="406.823738" y="151.461063" style="stroke: #000000; stroke-width: 2.5"/>
    </g>
   </g>
   <g id="PathCollection_42">
    <g clip-path="url(#p89ffe772b0)">
     <use xlink:href="#mc387b379f4" x="332.66535" y="152.070137" style="stroke: #000000; stroke-width: 2.5"/>
    </g>
   </g>
   <g id="PathCollection_43">
    <g clip-path="url(#p89ffe772b0)">
     <use xlink:href="#mc387b379f4" x="362.065421" y="152.374675" style="stroke: #000000; stroke-width: 2.5"/>
    </g>
   </g>
   <g id="PathCollection_44">
    <g clip-path="url(#p89ffe772b0)">
     <use xlink:href="#mc387b379f4" x="293.830928" y="152.526944" style="stroke: #000000; stroke-width: 2.5"/>
    </g>
   </g>
   <g id="PathCollection_45">
    <g clip-path="url(#p89ffe772b0)">
     <use xlink:href="#mc387b379f4" x="367.331105" y="153.136019" style="stroke: #000000; stroke-width: 2.5"/>
    </g>
   </g>
   <g id="PathCollection_46">
    <g clip-path="url(#p89ffe772b0)">
     <use xlink:href="#mc387b379f4" x="394.537141" y="153.745094" style="stroke: #000000; stroke-width: 2.5"/>
    </g>
   </g>
   <g id="PathCollection_47">
    <g clip-path="url(#p89ffe772b0)">
     <use xlink:href="#mc387b379f4" x="381.811737" y="154.2019" style="stroke: #000000; stroke-width: 2.5"/>
    </g>
   </g>
   <g id="PathCollection_48">
    <g clip-path="url(#p89ffe772b0)">
     <use xlink:href="#mc387b379f4" x="376.546053" y="154.658706" style="stroke: #000000; stroke-width: 2.5"/>
    </g>
   </g>
   <g id="PathCollection_49">
    <g clip-path="url(#p89ffe772b0)">
     <use xlink:href="#mc387b379f4" x="327.399666" y="157.551812" style="stroke: #000000; stroke-width: 2.5"/>
    </g>
   </g>
   <g id="PathCollection_50">
    <g clip-path="url(#p89ffe772b0)">
     <use xlink:href="#mc387b379f4" x="383.786369" y="157.704081" style="stroke: #000000; stroke-width: 2.5"/>
    </g>
   </g>
   <g id="PathCollection_51">
    <g clip-path="url(#p89ffe772b0)">
     <use xlink:href="#mc387b379f4" x="331.348929" y="158.617694" style="stroke: #000000; stroke-width: 2.5"/>
    </g>
   </g>
   <g id="PathCollection_52">
    <g clip-path="url(#p89ffe772b0)">
     <use xlink:href="#mc387b379f4" x="317.526507" y="159.0745" style="stroke: #000000; stroke-width: 2.5"/>
    </g>
   </g>
   <g id="PathCollection_53">
    <g clip-path="url(#p89ffe772b0)">
     <use xlink:href="#mc387b379f4" x="332.884754" y="160.29265" style="stroke: #000000; stroke-width: 2.5"/>
    </g>
   </g>
   <g id="PathCollection_54">
    <g clip-path="url(#p89ffe772b0)">
     <use xlink:href="#mc387b379f4" x="379.178895" y="161.206262" style="stroke: #000000; stroke-width: 2.5"/>
    </g>
   </g>
   <g id="PathCollection_55">
    <g clip-path="url(#p89ffe772b0)">
     <use xlink:href="#mc387b379f4" x="379.178895" y="161.358531" style="stroke: #000000; stroke-width: 2.5"/>
    </g>
   </g>
   <g id="PathCollection_56">
    <g clip-path="url(#p89ffe772b0)">
     <use xlink:href="#mc387b379f4" x="357.238544" y="162.119875" style="stroke: #000000; stroke-width: 2.5"/>
    </g>
   </g>
   <g id="PathCollection_57">
    <g clip-path="url(#p89ffe772b0)">
     <use xlink:href="#mc387b379f4" x="326.960859" y="166.687938" style="stroke: #000000; stroke-width: 2.5"/>
    </g>
   </g>
   <g id="PathCollection_58">
    <g clip-path="url(#p89ffe772b0)">
     <use xlink:href="#mc387b379f4" x="321.036964" y="171.712806" style="stroke: #000000; stroke-width: 2.5"/>
    </g>
   </g>
   <g id="PathCollection_59">
    <g clip-path="url(#p89ffe772b0)">
     <use xlink:href="#mc387b379f4" x="340.563877" y="172.626419" style="stroke: #000000; stroke-width: 2.5"/>
    </g>
   </g>
   <g id="PathCollection_60">
    <g clip-path="url(#p89ffe772b0)">
     <use xlink:href="#mc387b379f4" x="344.293736" y="172.778687" style="stroke: #000000; stroke-width: 2.5"/>
    </g>
   </g>
   <g id="PathCollection_61">
    <g clip-path="url(#p89ffe772b0)">
     <use xlink:href="#mc387b379f4" x="349.998228" y="172.930956" style="stroke: #000000; stroke-width: 2.5"/>
    </g>
   </g>
   <g id="PathCollection_62">
    <g clip-path="url(#p89ffe772b0)">
     <use xlink:href="#mc387b379f4" x="400.68044" y="173.083225" style="stroke: #000000; stroke-width: 2.5"/>
    </g>
   </g>
   <g id="PathCollection_63">
    <g clip-path="url(#p89ffe772b0)">
     <use xlink:href="#mc387b379f4" x="295.805559" y="173.235494" style="stroke: #000000; stroke-width: 2.5"/>
    </g>
   </g>
   <g id="PathCollection_64">
    <g clip-path="url(#p89ffe772b0)">
     <use xlink:href="#mc387b379f4" x="314.235455" y="174.605912" style="stroke: #000000; stroke-width: 2.5"/>
    </g>
   </g>
   <g id="PathCollection_65">
    <g clip-path="url(#p89ffe772b0)">
     <use xlink:href="#mc387b379f4" x="343.416122" y="174.605912" style="stroke: #000000; stroke-width: 2.5"/>
    </g>
   </g>
   <g id="PathCollection_66">
    <g clip-path="url(#p89ffe772b0)">
     <use xlink:href="#mc387b379f4" x="338.369841" y="175.062719" style="stroke: #000000; stroke-width: 2.5"/>
    </g>
   </g>
   <g id="PathCollection_67">
    <g clip-path="url(#p89ffe772b0)">
     <use xlink:href="#mc387b379f4" x="360.968404" y="179.78305" style="stroke: #000000; stroke-width: 2.5"/>
    </g>
   </g>
   <g id="PathCollection_68">
    <g clip-path="url(#p89ffe772b0)">
     <use xlink:href="#mc387b379f4" x="345.829561" y="179.935319" style="stroke: #000000; stroke-width: 2.5"/>
    </g>
   </g>
   <g id="PathCollection_69">
    <g clip-path="url(#p89ffe772b0)">
     <use xlink:href="#mc387b379f4" x="292.0757" y="180.544394" style="stroke: #000000; stroke-width: 2.5"/>
    </g>
   </g>
   <g id="PathCollection_70">
    <g clip-path="url(#p89ffe772b0)">
     <use xlink:href="#mc387b379f4" x="393.001317" y="180.696663" style="stroke: #000000; stroke-width: 2.5"/>
    </g>
   </g>
   <g id="PathCollection_71">
    <g clip-path="url(#p89ffe772b0)">
     <use xlink:href="#mc387b379f4" x="316.648893" y="181.458006" style="stroke: #000000; stroke-width: 2.5"/>
    </g>
   </g>
   <g id="PathCollection_72">
    <g clip-path="url(#p89ffe772b0)">
     <use xlink:href="#mc387b379f4" x="368.647527" y="181.762544" style="stroke: #000000; stroke-width: 2.5"/>
    </g>
   </g>
   <g id="PathCollection_73">
    <g clip-path="url(#p89ffe772b0)">
     <use xlink:href="#mc387b379f4" x="401.996861" y="181.914812" style="stroke: #000000; stroke-width: 2.5"/>
    </g>
   </g>
   <g id="PathCollection_74">
    <g clip-path="url(#p89ffe772b0)">
     <use xlink:href="#mc387b379f4" x="349.998228" y="182.21935" style="stroke: #000000; stroke-width: 2.5"/>
    </g>
   </g>
   <g id="PathCollection_75">
    <g clip-path="url(#p89ffe772b0)">
     <use xlink:href="#mc387b379f4" x="355.922123" y="183.742037" style="stroke: #000000; stroke-width: 2.5"/>
    </g>
   </g>
   <g id="PathCollection_76">
    <g clip-path="url(#p89ffe772b0)">
     <use xlink:href="#mc387b379f4" x="333.323561" y="187.548756" style="stroke: #000000; stroke-width: 2.5"/>
    </g>
   </g>
   <g id="PathCollection_77">
    <g clip-path="url(#p89ffe772b0)">
     <use xlink:href="#mc387b379f4" x="328.496683" y="187.701025" style="stroke: #000000; stroke-width: 2.5"/>
    </g>
   </g>
   <g id="PathCollection_78">
    <g clip-path="url(#p89ffe772b0)">
     <use xlink:href="#mc387b379f4" x="317.745911" y="188.157831" style="stroke: #000000; stroke-width: 2.5"/>
    </g>
   </g>
   <g id="PathCollection_79">
    <g clip-path="url(#p89ffe772b0)">
     <use xlink:href="#mc387b379f4" x="283.738366" y="188.614638" style="stroke: #000000; stroke-width: 2.5"/>
    </g>
   </g>
   <g id="PathCollection_80">
    <g clip-path="url(#p89ffe772b0)">
     <use xlink:href="#mc387b379f4" x="319.281736" y="188.614638" style="stroke: #000000; stroke-width: 2.5"/>
    </g>
   </g>
   <g id="PathCollection_81">
    <g clip-path="url(#p89ffe772b0)">
     <use xlink:href="#mc387b379f4" x="349.340017" y="189.832787" style="stroke: #000000; stroke-width: 2.5"/>
    </g>
   </g>
   <g id="PathCollection_82">
    <g clip-path="url(#p89ffe772b0)">
     <use xlink:href="#mc387b379f4" x="310.286191" y="190.594131" style="stroke: #000000; stroke-width: 2.5"/>
    </g>
   </g>
   <g id="PathCollection_83">
    <g clip-path="url(#p89ffe772b0)">
     <use xlink:href="#mc387b379f4" x="331.568332" y="193.334969" style="stroke: #000000; stroke-width: 2.5"/>
    </g>
   </g>
   <g id="PathCollection_84">
    <g clip-path="url(#p89ffe772b0)">
     <use xlink:href="#mc387b379f4" x="325.863841" y="193.944044" style="stroke: #000000; stroke-width: 2.5"/>
    </g>
   </g>
   <g id="PathCollection_85">
    <g clip-path="url(#p89ffe772b0)">
     <use xlink:href="#mc387b379f4" x="304.801104" y="194.553119" style="stroke: #000000; stroke-width: 2.5"/>
    </g>
   </g>
   <g id="PathCollection_86">
    <g clip-path="url(#p89ffe772b0)">
     <use xlink:href="#mc387b379f4" x="328.27728" y="195.466731" style="stroke: #000000; stroke-width: 2.5"/>
    </g>
   </g>
   <g id="PathCollection_87">
    <g clip-path="url(#p89ffe772b0)">
     <use xlink:href="#mc387b379f4" x="254.996505" y="200.4916" style="stroke: #000000; stroke-width: 2.5"/>
    </g>
   </g>
   <g id="PathCollection_88">
    <g clip-path="url(#p89ffe772b0)">
     <use xlink:href="#mc387b379f4" x="334.420578" y="201.252944" style="stroke: #000000; stroke-width: 2.5"/>
    </g>
   </g>
   <g id="PathCollection_89">
    <g clip-path="url(#p89ffe772b0)">
     <use xlink:href="#mc387b379f4" x="297.341384" y="202.775631" style="stroke: #000000; stroke-width: 2.5"/>
    </g>
   </g>
   <g id="PathCollection_90">
    <g clip-path="url(#p89ffe772b0)">
     <use xlink:href="#mc387b379f4" x="330.251911" y="203.080169" style="stroke: #000000; stroke-width: 2.5"/>
    </g>
   </g>
   <g id="PathCollection_91">
    <g clip-path="url(#p89ffe772b0)">
     <use xlink:href="#mc387b379f4" x="302.607068" y="203.536975" style="stroke: #000000; stroke-width: 2.5"/>
    </g>
   </g>
   <g id="PathCollection_92">
    <g clip-path="url(#p89ffe772b0)">
     <use xlink:href="#mc387b379f4" x="298.218998" y="204.450587" style="stroke: #000000; stroke-width: 2.5"/>
    </g>
   </g>
   <g id="PathCollection_93">
    <g clip-path="url(#p89ffe772b0)">
     <use xlink:href="#mc387b379f4" x="341.002684" y="204.450587" style="stroke: #000000; stroke-width: 2.5"/>
    </g>
   </g>
   <g id="PathCollection_94">
    <g clip-path="url(#p89ffe772b0)">
     <use xlink:href="#mc387b379f4" x="306.775735" y="206.58235" style="stroke: #000000; stroke-width: 2.5"/>
    </g>
   </g>
   <g id="PathCollection_95">
    <g clip-path="url(#p89ffe772b0)">
     <use xlink:href="#mc387b379f4" x="314.893665" y="208.714112" style="stroke: #000000; stroke-width: 2.5"/>
    </g>
   </g>
   <g id="PathCollection_96">
    <g clip-path="url(#p89ffe772b0)">
     <use xlink:href="#mc387b379f4" x="323.669806" y="217.697969" style="stroke: #000000; stroke-width: 2.5"/>
    </g>
   </g>
   <g id="PathCollection_97">
    <g clip-path="url(#p89ffe772b0)">
     <use xlink:href="#mc387b379f4" x="299.096612" y="219.372925" style="stroke: #000000; stroke-width: 2.5"/>
    </g>
   </g>
   <g id="PathCollection_98">
    <g clip-path="url(#p89ffe772b0)">
     <use xlink:href="#mc387b379f4" x="292.514507" y="229.7272" style="stroke: #000000; stroke-width: 2.5"/>
    </g>
   </g>
   <g id="PathCollection_99">
    <g clip-path="url(#p89ffe772b0)">
     <use xlink:href="#mc387b379f4" x="307.214542" y="234.142994" style="stroke: #000000; stroke-width: 2.5"/>
    </g>
   </g>
   <g id="PathCollection_100">
    <g clip-path="url(#p89ffe772b0)">
     <use xlink:href="#mc387b379f4" x="333.762368" y="247.542644" style="stroke: #000000; stroke-width: 2.5"/>
    </g>
   </g>
   <g id="matplotlib.axis_1">
    <g id="xtick_1">
     <g id="line2d_1">
      <defs>
       <path id="mcc82c79535" d="M 0 0 
L 0 8 
" style="stroke: #000000; stroke-width: 2"/>
      </defs>
      <g>
       <use xlink:href="#mcc82c79535" x="101.852852" y="274.79875" style="stroke: #000000; stroke-width: 2"/>
      </g>
     </g>
     <g id="text_1">
      <!-- 65 -->
      <g transform="translate(90.730977 300.614375)scale(0.2 -0.2)">
       <defs>
        <path id="ArialMT-36" d="M 3184 3459 
L 2625 3416 
Q 2550 3747 2413 3897 
Q 2184 4138 1850 4138 
Q 1581 4138 1378 3988 
Q 1113 3794 959 3422 
Q 806 3050 800 2363 
Q 1003 2672 1297 2822 
Q 1591 2972 1913 2972 
Q 2475 2972 2870 2558 
Q 3266 2144 3266 1488 
Q 3266 1056 3080 686 
Q 2894 316 2569 119 
Q 2244 -78 1831 -78 
Q 1128 -78 684 439 
Q 241 956 241 2144 
Q 241 3472 731 4075 
Q 1159 4600 1884 4600 
Q 2425 4600 2770 4297 
Q 3116 3994 3184 3459 
z
M 888 1484 
Q 888 1194 1011 928 
Q 1134 663 1356 523 
Q 1578 384 1822 384 
Q 2178 384 2434 671 
Q 2691 959 2691 1453 
Q 2691 1928 2437 2201 
Q 2184 2475 1800 2475 
Q 1419 2475 1153 2201 
Q 888 1928 888 1484 
z
" transform="scale(0.015625)"/>
        <path id="ArialMT-35" d="M 266 1200 
L 856 1250 
Q 922 819 1161 601 
Q 1400 384 1738 384 
Q 2144 384 2425 690 
Q 2706 997 2706 1503 
Q 2706 1984 2436 2262 
Q 2166 2541 1728 2541 
Q 1456 2541 1237 2417 
Q 1019 2294 894 2097 
L 366 2166 
L 809 4519 
L 3088 4519 
L 3088 3981 
L 1259 3981 
L 1013 2750 
Q 1425 3038 1878 3038 
Q 2478 3038 2890 2622 
Q 3303 2206 3303 1553 
Q 3303 931 2941 478 
Q 2500 -78 1738 -78 
Q 1113 -78 717 272 
Q 322 622 266 1200 
z
" transform="scale(0.015625)"/>
       </defs>
       <use xlink:href="#ArialMT-36"/>
       <use xlink:href="#ArialMT-35" x="55.615234"/>
      </g>
     </g>
    </g>
    <g id="xtick_2">
     <g id="line2d_2">
      <g>
       <use xlink:href="#mcc82c79535" x="211.554609" y="274.79875" style="stroke: #000000; stroke-width: 2"/>
      </g>
     </g>
     <g id="text_2">
      <!-- 70 -->
      <g transform="translate(200.432734 300.614375)scale(0.2 -0.2)">
       <defs>
        <path id="ArialMT-37" d="M 303 3981 
L 303 4522 
L 3269 4522 
L 3269 4084 
Q 2831 3619 2401 2847 
Q 1972 2075 1738 1259 
Q 1569 684 1522 0 
L 944 0 
Q 953 541 1156 1306 
Q 1359 2072 1739 2783 
Q 2119 3494 2547 3981 
L 303 3981 
z
" transform="scale(0.015625)"/>
        <path id="ArialMT-30" d="M 266 2259 
Q 266 3072 433 3567 
Q 600 4063 929 4331 
Q 1259 4600 1759 4600 
Q 2128 4600 2406 4451 
Q 2684 4303 2865 4023 
Q 3047 3744 3150 3342 
Q 3253 2941 3253 2259 
Q 3253 1453 3087 958 
Q 2922 463 2592 192 
Q 2263 -78 1759 -78 
Q 1097 -78 719 397 
Q 266 969 266 2259 
z
M 844 2259 
Q 844 1131 1108 757 
Q 1372 384 1759 384 
Q 2147 384 2411 759 
Q 2675 1134 2675 2259 
Q 2675 3391 2411 3762 
Q 2147 4134 1753 4134 
Q 1366 4134 1134 3806 
Q 844 3388 844 2259 
z
" transform="scale(0.015625)"/>
       </defs>
       <use xlink:href="#ArialMT-37"/>
       <use xlink:href="#ArialMT-30" x="55.615234"/>
      </g>
     </g>
    </g>
    <g id="xtick_3">
     <g id="line2d_3">
      <g>
       <use xlink:href="#mcc82c79535" x="321.256367" y="274.79875" style="stroke: #000000; stroke-width: 2"/>
      </g>
     </g>
     <g id="text_3">
      <!-- 75 -->
      <g transform="translate(310.134492 300.614375)scale(0.2 -0.2)">
       <use xlink:href="#ArialMT-37"/>
       <use xlink:href="#ArialMT-35" x="55.615234"/>
      </g>
     </g>
    </g>
    <g id="xtick_4">
     <g id="line2d_4">
      <g>
       <use xlink:href="#mcc82c79535" x="430.958125" y="274.79875" style="stroke: #000000; stroke-width: 2"/>
      </g>
     </g>
     <g id="text_4">
      <!-- 80 -->
      <g transform="translate(419.83625 300.614375)scale(0.2 -0.2)">
       <defs>
        <path id="ArialMT-38" d="M 1131 2484 
Q 781 2613 612 2850 
Q 444 3088 444 3419 
Q 444 3919 803 4259 
Q 1163 4600 1759 4600 
Q 2359 4600 2725 4251 
Q 3091 3903 3091 3403 
Q 3091 3084 2923 2848 
Q 2756 2613 2416 2484 
Q 2838 2347 3058 2040 
Q 3278 1734 3278 1309 
Q 3278 722 2862 322 
Q 2447 -78 1769 -78 
Q 1091 -78 675 323 
Q 259 725 259 1325 
Q 259 1772 486 2073 
Q 713 2375 1131 2484 
z
M 1019 3438 
Q 1019 3113 1228 2906 
Q 1438 2700 1772 2700 
Q 2097 2700 2305 2904 
Q 2513 3109 2513 3406 
Q 2513 3716 2298 3927 
Q 2084 4138 1766 4138 
Q 1444 4138 1231 3931 
Q 1019 3725 1019 3438 
z
M 838 1322 
Q 838 1081 952 856 
Q 1066 631 1291 507 
Q 1516 384 1775 384 
Q 2178 384 2440 643 
Q 2703 903 2703 1303 
Q 2703 1709 2433 1975 
Q 2163 2241 1756 2241 
Q 1359 2241 1098 1978 
Q 838 1716 838 1322 
z
" transform="scale(0.015625)"/>
       </defs>
       <use xlink:href="#ArialMT-38"/>
       <use xlink:href="#ArialMT-30" x="55.615234"/>
      </g>
     </g>
    </g>
    <g id="text_5">
     <!-- LN$^+$ -->
     <g transform="translate(233.635313 322.905)scale(0.2 -0.2)">
      <defs>
       <path id="ArialMT-4c" d="M 469 0 
L 469 4581 
L 1075 4581 
L 1075 541 
L 3331 541 
L 3331 0 
L 469 0 
z
" transform="scale(0.015625)"/>
       <path id="ArialMT-4e" d="M 488 0 
L 488 4581 
L 1109 4581 
L 3516 984 
L 3516 4581 
L 4097 4581 
L 4097 0 
L 3475 0 
L 1069 3600 
L 1069 0 
L 488 0 
z
" transform="scale(0.015625)"/>
       <path id="DejaVuSans-2b" d="M 2944 4013 
L 2944 2272 
L 4684 2272 
L 4684 1741 
L 2944 1741 
L 2944 0 
L 2419 0 
L 2419 1741 
L 678 1741 
L 678 2272 
L 2419 2272 
L 2419 4013 
L 2944 4013 
z
" transform="scale(0.015625)"/>
      </defs>
      <use xlink:href="#ArialMT-4c" transform="translate(0 0.826562)"/>
      <use xlink:href="#ArialMT-4e" transform="translate(55.615234 0.826562)"/>
      <use xlink:href="#DejaVuSans-2b" transform="translate(142.426758 39.107812)scale(0.7)"/>
     </g>
    </g>
   </g>
   <g id="matplotlib.axis_2">
    <g id="ytick_1">
     <g id="line2d_5">
      <defs>
       <path id="m42da0760eb" d="M 0 0 
L -8 0 
" style="stroke: #000000; stroke-width: 2"/>
      </defs>
      <g>
       <use xlink:href="#m42da0760eb" x="79.9125" y="259.571875" style="stroke: #000000; stroke-width: 2"/>
      </g>
     </g>
     <g id="text_6">
      <!-- 65.0 -->
      <g transform="translate(29.490625 266.729688)scale(0.2 -0.2)">
       <defs>
        <path id="ArialMT-2e" d="M 581 0 
L 581 641 
L 1222 641 
L 1222 0 
L 581 0 
z
" transform="scale(0.015625)"/>
       </defs>
       <use xlink:href="#ArialMT-36"/>
       <use xlink:href="#ArialMT-35" x="55.615234"/>
       <use xlink:href="#ArialMT-2e" x="111.230469"/>
       <use xlink:href="#ArialMT-30" x="139.013672"/>
      </g>
     </g>
    </g>
    <g id="ytick_2">
     <g id="line2d_6">
      <g>
       <use xlink:href="#m42da0760eb" x="79.9125" y="221.504687" style="stroke: #000000; stroke-width: 2"/>
      </g>
     </g>
     <g id="text_7">
      <!-- 67.5 -->
      <g transform="translate(29.490625 228.6625)scale(0.2 -0.2)">
       <use xlink:href="#ArialMT-36"/>
       <use xlink:href="#ArialMT-37" x="55.615234"/>
       <use xlink:href="#ArialMT-2e" x="111.230469"/>
       <use xlink:href="#ArialMT-35" x="139.013672"/>
      </g>
     </g>
    </g>
    <g id="ytick_3">
     <g id="line2d_7">
      <g>
       <use xlink:href="#m42da0760eb" x="79.9125" y="183.4375" style="stroke: #000000; stroke-width: 2"/>
      </g>
     </g>
     <g id="text_8">
      <!-- 70.0 -->
      <g transform="translate(29.490625 190.595313)scale(0.2 -0.2)">
       <use xlink:href="#ArialMT-37"/>
       <use xlink:href="#ArialMT-30" x="55.615234"/>
       <use xlink:href="#ArialMT-2e" x="111.230469"/>
       <use xlink:href="#ArialMT-30" x="139.013672"/>
      </g>
     </g>
    </g>
    <g id="ytick_4">
     <g id="line2d_8">
      <g>
       <use xlink:href="#m42da0760eb" x="79.9125" y="145.370312" style="stroke: #000000; stroke-width: 2"/>
      </g>
     </g>
     <g id="text_9">
      <!-- 72.5 -->
      <g transform="translate(29.490625 152.528125)scale(0.2 -0.2)">
       <defs>
        <path id="ArialMT-32" d="M 3222 541 
L 3222 0 
L 194 0 
Q 188 203 259 391 
Q 375 700 629 1000 
Q 884 1300 1366 1694 
Q 2113 2306 2375 2664 
Q 2638 3022 2638 3341 
Q 2638 3675 2398 3904 
Q 2159 4134 1775 4134 
Q 1369 4134 1125 3890 
Q 881 3647 878 3216 
L 300 3275 
Q 359 3922 746 4261 
Q 1134 4600 1788 4600 
Q 2447 4600 2831 4234 
Q 3216 3869 3216 3328 
Q 3216 3053 3103 2787 
Q 2991 2522 2730 2228 
Q 2469 1934 1863 1422 
Q 1356 997 1212 845 
Q 1069 694 975 541 
L 3222 541 
z
" transform="scale(0.015625)"/>
       </defs>
       <use xlink:href="#ArialMT-37"/>
       <use xlink:href="#ArialMT-32" x="55.615234"/>
       <use xlink:href="#ArialMT-2e" x="111.230469"/>
       <use xlink:href="#ArialMT-35" x="139.013672"/>
      </g>
     </g>
    </g>
    <g id="ytick_5">
     <g id="line2d_9">
      <g>
       <use xlink:href="#m42da0760eb" x="79.9125" y="107.303125" style="stroke: #000000; stroke-width: 2"/>
      </g>
     </g>
     <g id="text_10">
      <!-- 75.0 -->
      <g transform="translate(29.490625 114.460937)scale(0.2 -0.2)">
       <use xlink:href="#ArialMT-37"/>
       <use xlink:href="#ArialMT-35" x="55.615234"/>
       <use xlink:href="#ArialMT-2e" x="111.230469"/>
       <use xlink:href="#ArialMT-30" x="139.013672"/>
      </g>
     </g>
    </g>
    <g id="ytick_6">
     <g id="line2d_10">
      <g>
       <use xlink:href="#m42da0760eb" x="79.9125" y="69.235937" style="stroke: #000000; stroke-width: 2"/>
      </g>
     </g>
     <g id="text_11">
      <!-- 77.5 -->
      <g transform="translate(29.490625 76.39375)scale(0.2 -0.2)">
       <use xlink:href="#ArialMT-37"/>
       <use xlink:href="#ArialMT-37" x="55.615234"/>
       <use xlink:href="#ArialMT-2e" x="111.230469"/>
       <use xlink:href="#ArialMT-35" x="139.013672"/>
      </g>
     </g>
    </g>
    <g id="ytick_7">
     <g id="line2d_11">
      <g>
       <use xlink:href="#m42da0760eb" x="79.9125" y="31.16875" style="stroke: #000000; stroke-width: 2"/>
      </g>
     </g>
     <g id="text_12">
      <!-- 80.0 -->
      <g transform="translate(29.490625 38.326562)scale(0.2 -0.2)">
       <use xlink:href="#ArialMT-38"/>
       <use xlink:href="#ArialMT-30" x="55.615234"/>
       <use xlink:href="#ArialMT-2e" x="111.230469"/>
       <use xlink:href="#ArialMT-30" x="139.013672"/>
      </g>
     </g>
    </g>
    <g id="text_13">
     <!-- LN$^-$ -->
     <g transform="translate(21.515625 174.78375)rotate(-90)scale(0.2 -0.2)">
      <defs>
       <path id="DejaVuSans-2212" d="M 678 2272 
L 4684 2272 
L 4684 1741 
L 678 1741 
L 678 2272 
z
" transform="scale(0.015625)"/>
      </defs>
      <use xlink:href="#ArialMT-4c" transform="translate(0 0.421875)"/>
      <use xlink:href="#ArialMT-4e" transform="translate(55.615234 0.421875)"/>
      <use xlink:href="#DejaVuSans-2212" transform="translate(142.426758 38.703125)scale(0.7)"/>
     </g>
    </g>
   </g>
   <g id="line2d_12">
    <path d="M -1 330.953024 
L 14.091445 320.479375 
L 36.031797 305.2525 
L 57.972148 290.025625 
L 79.9125 274.79875 
L 101.852852 259.571875 
L 123.793203 244.345 
L 145.733555 229.118125 
L 167.673906 213.89125 
L 189.614258 198.664375 
L 211.554609 183.4375 
L 233.494961 168.210625 
L 255.435313 152.98375 
L 277.375664 137.756875 
L 299.316016 122.53 
L 321.256367 107.303125 
L 343.196719 92.07625 
L 365.13707 76.849375 
L 387.077422 61.6225 
L 409.017773 46.395625 
L 430.958125 31.16875 
L 450.28 17.75913 
" clip-path="url(#p89ffe772b0)" style="fill: none; stroke-dasharray: 20,10; stroke-dashoffset: 0; stroke: #000000; stroke-width: 2.5"/>
   </g>
   <g id="patch_3">
    <path d="M 79.9125 274.79875 
L 79.9125 31.16875 
" style="fill: none; stroke: #000000; stroke-width: 1.5; stroke-linejoin: miter; stroke-linecap: square"/>
   </g>
   <g id="patch_4">
    <path d="M 79.9125 274.79875 
L 430.958125 274.79875 
" style="fill: none; stroke: #000000; stroke-width: 1.5; stroke-linejoin: miter; stroke-linecap: square"/>
   </g>
   <g id="text_14">
    <!-- Brightness Variability: 1 -->
    <g transform="translate(125.747813 25.16875)scale(0.25 -0.25)">
     <defs>
      <path id="ArialMT-42" d="M 469 0 
L 469 4581 
L 2188 4581 
Q 2713 4581 3030 4442 
Q 3347 4303 3526 4014 
Q 3706 3725 3706 3409 
Q 3706 3116 3547 2856 
Q 3388 2597 3066 2438 
Q 3481 2316 3704 2022 
Q 3928 1728 3928 1328 
Q 3928 1006 3792 729 
Q 3656 453 3456 303 
Q 3256 153 2954 76 
Q 2653 0 2216 0 
L 469 0 
z
M 1075 2656 
L 2066 2656 
Q 2469 2656 2644 2709 
Q 2875 2778 2992 2937 
Q 3109 3097 3109 3338 
Q 3109 3566 3000 3739 
Q 2891 3913 2687 3977 
Q 2484 4041 1991 4041 
L 1075 4041 
L 1075 2656 
z
M 1075 541 
L 2216 541 
Q 2509 541 2628 563 
Q 2838 600 2978 687 
Q 3119 775 3209 942 
Q 3300 1109 3300 1328 
Q 3300 1584 3169 1773 
Q 3038 1963 2805 2039 
Q 2572 2116 2134 2116 
L 1075 2116 
L 1075 541 
z
" transform="scale(0.015625)"/>
      <path id="ArialMT-72" d="M 416 0 
L 416 3319 
L 922 3319 
L 922 2816 
Q 1116 3169 1280 3281 
Q 1444 3394 1641 3394 
Q 1925 3394 2219 3213 
L 2025 2691 
Q 1819 2813 1613 2813 
Q 1428 2813 1281 2702 
Q 1134 2591 1072 2394 
Q 978 2094 978 1738 
L 978 0 
L 416 0 
z
" transform="scale(0.015625)"/>
      <path id="ArialMT-69" d="M 425 3934 
L 425 4581 
L 988 4581 
L 988 3934 
L 425 3934 
z
M 425 0 
L 425 3319 
L 988 3319 
L 988 0 
L 425 0 
z
" transform="scale(0.015625)"/>
      <path id="ArialMT-67" d="M 319 -275 
L 866 -356 
Q 900 -609 1056 -725 
Q 1266 -881 1628 -881 
Q 2019 -881 2231 -725 
Q 2444 -569 2519 -288 
Q 2563 -116 2559 434 
Q 2191 0 1641 0 
Q 956 0 581 494 
Q 206 988 206 1678 
Q 206 2153 378 2554 
Q 550 2956 876 3175 
Q 1203 3394 1644 3394 
Q 2231 3394 2613 2919 
L 2613 3319 
L 3131 3319 
L 3131 450 
Q 3131 -325 2973 -648 
Q 2816 -972 2473 -1159 
Q 2131 -1347 1631 -1347 
Q 1038 -1347 672 -1080 
Q 306 -813 319 -275 
z
M 784 1719 
Q 784 1066 1043 766 
Q 1303 466 1694 466 
Q 2081 466 2343 764 
Q 2606 1063 2606 1700 
Q 2606 2309 2336 2618 
Q 2066 2928 1684 2928 
Q 1309 2928 1046 2623 
Q 784 2319 784 1719 
z
" transform="scale(0.015625)"/>
      <path id="ArialMT-68" d="M 422 0 
L 422 4581 
L 984 4581 
L 984 2938 
Q 1378 3394 1978 3394 
Q 2347 3394 2619 3248 
Q 2891 3103 3008 2847 
Q 3125 2591 3125 2103 
L 3125 0 
L 2563 0 
L 2563 2103 
Q 2563 2525 2380 2717 
Q 2197 2909 1863 2909 
Q 1613 2909 1392 2779 
Q 1172 2650 1078 2428 
Q 984 2206 984 1816 
L 984 0 
L 422 0 
z
" transform="scale(0.015625)"/>
      <path id="ArialMT-74" d="M 1650 503 
L 1731 6 
Q 1494 -44 1306 -44 
Q 1000 -44 831 53 
Q 663 150 594 308 
Q 525 466 525 972 
L 525 2881 
L 113 2881 
L 113 3319 
L 525 3319 
L 525 4141 
L 1084 4478 
L 1084 3319 
L 1650 3319 
L 1650 2881 
L 1084 2881 
L 1084 941 
Q 1084 700 1114 631 
Q 1144 563 1211 522 
Q 1278 481 1403 481 
Q 1497 481 1650 503 
z
" transform="scale(0.015625)"/>
      <path id="ArialMT-6e" d="M 422 0 
L 422 3319 
L 928 3319 
L 928 2847 
Q 1294 3394 1984 3394 
Q 2284 3394 2536 3286 
Q 2788 3178 2913 3003 
Q 3038 2828 3088 2588 
Q 3119 2431 3119 2041 
L 3119 0 
L 2556 0 
L 2556 2019 
Q 2556 2363 2490 2533 
Q 2425 2703 2258 2804 
Q 2091 2906 1866 2906 
Q 1506 2906 1245 2678 
Q 984 2450 984 1813 
L 984 0 
L 422 0 
z
" transform="scale(0.015625)"/>
      <path id="ArialMT-65" d="M 2694 1069 
L 3275 997 
Q 3138 488 2766 206 
Q 2394 -75 1816 -75 
Q 1088 -75 661 373 
Q 234 822 234 1631 
Q 234 2469 665 2931 
Q 1097 3394 1784 3394 
Q 2450 3394 2872 2941 
Q 3294 2488 3294 1666 
Q 3294 1616 3291 1516 
L 816 1516 
Q 847 969 1125 678 
Q 1403 388 1819 388 
Q 2128 388 2347 550 
Q 2566 713 2694 1069 
z
M 847 1978 
L 2700 1978 
Q 2663 2397 2488 2606 
Q 2219 2931 1791 2931 
Q 1403 2931 1139 2672 
Q 875 2413 847 1978 
z
" transform="scale(0.015625)"/>
      <path id="ArialMT-73" d="M 197 991 
L 753 1078 
Q 800 744 1014 566 
Q 1228 388 1613 388 
Q 2000 388 2187 545 
Q 2375 703 2375 916 
Q 2375 1106 2209 1216 
Q 2094 1291 1634 1406 
Q 1016 1563 777 1677 
Q 538 1791 414 1992 
Q 291 2194 291 2438 
Q 291 2659 392 2848 
Q 494 3038 669 3163 
Q 800 3259 1026 3326 
Q 1253 3394 1513 3394 
Q 1903 3394 2198 3281 
Q 2494 3169 2634 2976 
Q 2775 2784 2828 2463 
L 2278 2388 
Q 2241 2644 2061 2787 
Q 1881 2931 1553 2931 
Q 1166 2931 1000 2803 
Q 834 2675 834 2503 
Q 834 2394 903 2306 
Q 972 2216 1119 2156 
Q 1203 2125 1616 2013 
Q 2213 1853 2448 1751 
Q 2684 1650 2818 1456 
Q 2953 1263 2953 975 
Q 2953 694 2789 445 
Q 2625 197 2315 61 
Q 2006 -75 1616 -75 
Q 969 -75 630 194 
Q 291 463 197 991 
z
" transform="scale(0.015625)"/>
      <path id="ArialMT-20" transform="scale(0.015625)"/>
      <path id="ArialMT-56" d="M 1803 0 
L 28 4581 
L 684 4581 
L 1875 1253 
Q 2019 853 2116 503 
Q 2222 878 2363 1253 
L 3600 4581 
L 4219 4581 
L 2425 0 
L 1803 0 
z
" transform="scale(0.015625)"/>
      <path id="ArialMT-61" d="M 2588 409 
Q 2275 144 1986 34 
Q 1697 -75 1366 -75 
Q 819 -75 525 192 
Q 231 459 231 875 
Q 231 1119 342 1320 
Q 453 1522 633 1644 
Q 813 1766 1038 1828 
Q 1203 1872 1538 1913 
Q 2219 1994 2541 2106 
Q 2544 2222 2544 2253 
Q 2544 2597 2384 2738 
Q 2169 2928 1744 2928 
Q 1347 2928 1158 2789 
Q 969 2650 878 2297 
L 328 2372 
Q 403 2725 575 2942 
Q 747 3159 1072 3276 
Q 1397 3394 1825 3394 
Q 2250 3394 2515 3294 
Q 2781 3194 2906 3042 
Q 3031 2891 3081 2659 
Q 3109 2516 3109 2141 
L 3109 1391 
Q 3109 606 3145 398 
Q 3181 191 3288 0 
L 2700 0 
Q 2613 175 2588 409 
z
M 2541 1666 
Q 2234 1541 1622 1453 
Q 1275 1403 1131 1340 
Q 988 1278 909 1158 
Q 831 1038 831 891 
Q 831 666 1001 516 
Q 1172 366 1500 366 
Q 1825 366 2078 508 
Q 2331 650 2450 897 
Q 2541 1088 2541 1459 
L 2541 1666 
z
" transform="scale(0.015625)"/>
      <path id="ArialMT-62" d="M 941 0 
L 419 0 
L 419 4581 
L 981 4581 
L 981 2947 
Q 1338 3394 1891 3394 
Q 2197 3394 2470 3270 
Q 2744 3147 2920 2923 
Q 3097 2700 3197 2384 
Q 3297 2069 3297 1709 
Q 3297 856 2875 390 
Q 2453 -75 1863 -75 
Q 1275 -75 941 416 
L 941 0 
z
M 934 1684 
Q 934 1088 1097 822 
Q 1363 388 1816 388 
Q 2184 388 2453 708 
Q 2722 1028 2722 1663 
Q 2722 2313 2464 2622 
Q 2206 2931 1841 2931 
Q 1472 2931 1203 2611 
Q 934 2291 934 1684 
z
" transform="scale(0.015625)"/>
      <path id="ArialMT-6c" d="M 409 0 
L 409 4581 
L 972 4581 
L 972 0 
L 409 0 
z
" transform="scale(0.015625)"/>
      <path id="ArialMT-79" d="M 397 -1278 
L 334 -750 
Q 519 -800 656 -800 
Q 844 -800 956 -737 
Q 1069 -675 1141 -563 
Q 1194 -478 1313 -144 
Q 1328 -97 1363 -6 
L 103 3319 
L 709 3319 
L 1400 1397 
Q 1534 1031 1641 628 
Q 1738 1016 1872 1384 
L 2581 3319 
L 3144 3319 
L 1881 -56 
Q 1678 -603 1566 -809 
Q 1416 -1088 1222 -1217 
Q 1028 -1347 759 -1347 
Q 597 -1347 397 -1278 
z
" transform="scale(0.015625)"/>
      <path id="ArialMT-3a" d="M 578 2678 
L 578 3319 
L 1219 3319 
L 1219 2678 
L 578 2678 
z
M 578 0 
L 578 641 
L 1219 641 
L 1219 0 
L 578 0 
z
" transform="scale(0.015625)"/>
      <path id="ArialMT-31" d="M 2384 0 
L 1822 0 
L 1822 3584 
Q 1619 3391 1289 3197 
Q 959 3003 697 2906 
L 697 3450 
Q 1169 3672 1522 3987 
Q 1875 4303 2022 4600 
L 2384 4600 
L 2384 0 
z
" transform="scale(0.015625)"/>
     </defs>
     <use xlink:href="#ArialMT-42"/>
     <use xlink:href="#ArialMT-72" x="66.699219"/>
     <use xlink:href="#ArialMT-69" x="100"/>
     <use xlink:href="#ArialMT-67" x="122.216797"/>
     <use xlink:href="#ArialMT-68" x="177.832031"/>
     <use xlink:href="#ArialMT-74" x="233.447266"/>
     <use xlink:href="#ArialMT-6e" x="261.230469"/>
     <use xlink:href="#ArialMT-65" x="316.845703"/>
     <use xlink:href="#ArialMT-73" x="372.460938"/>
     <use xlink:href="#ArialMT-73" x="422.460938"/>
     <use xlink:href="#ArialMT-20" x="472.460938"/>
     <use xlink:href="#ArialMT-56" x="500.244141"/>
     <use xlink:href="#ArialMT-61" x="559.568359"/>
     <use xlink:href="#ArialMT-72" x="615.183594"/>
     <use xlink:href="#ArialMT-69" x="648.484375"/>
     <use xlink:href="#ArialMT-61" x="670.701172"/>
     <use xlink:href="#ArialMT-62" x="726.316406"/>
     <use xlink:href="#ArialMT-69" x="781.931641"/>
     <use xlink:href="#ArialMT-6c" x="804.148438"/>
     <use xlink:href="#ArialMT-69" x="826.365234"/>
     <use xlink:href="#ArialMT-74" x="848.582031"/>
     <use xlink:href="#ArialMT-79" x="876.365234"/>
     <use xlink:href="#ArialMT-3a" x="926.365234"/>
     <use xlink:href="#ArialMT-20" x="954.148438"/>
     <use xlink:href="#ArialMT-31" x="981.931641"/>
    </g>
   </g>
  </g>
 </g>
 <defs>
  <clipPath id="p89ffe772b0">
   <rect x="79.9125" y="31.16875" width="351.045625" height="243.63"/>
  </clipPath>
 </defs>
</svg>
