<?xml version="1.0" encoding="utf-8" standalone="no"?>
<!DOCTYPE svg PUBLIC "-//W3C//DTD SVG 1.1//EN"
  "http://www.w3.org/Graphics/SVG/1.1/DTD/svg11.dtd">
<svg xmlns:xlink="http://www.w3.org/1999/xlink" width="449.28pt" height="334.08pt" viewBox="0 0 449.28 334.08" xmlns="http://www.w3.org/2000/svg" version="1.1">
 <metadata>
  <rdf:RDF xmlns:dc="http://purl.org/dc/elements/1.1/" xmlns:cc="http://creativecommons.org/ns#" xmlns:rdf="http://www.w3.org/1999/02/22-rdf-syntax-ns#">
   <cc:Work>
    <dc:type rdf:resource="http://purl.org/dc/dcmitype/StillImage"/>
    <dc:date>2025-08-03T12:39:38.659271</dc:date>
    <dc:format>image/svg+xml</dc:format>
    <dc:creator>
     <cc:Agent>
      <dc:title>Matplotlib v3.5.3, https://matplotlib.org/</dc:title>
     </cc:Agent>
    </dc:creator>
   </cc:Work>
  </rdf:RDF>
 </metadata>
 <defs>
  <style type="text/css">*{stroke-linejoin: round; stroke-linecap: butt}</style>
 </defs>
 <g id="figure_1">
  <g id="patch_1">
   <path d="M 0 334.08 
L 449.28 334.08 
L 449.28 0 
L 0 0 
z
" style="fill: #ffffff"/>
  </g>
  <g id="axes_1">
   <g id="patch_2">
    <path d="M 74.4725 279.5632 
L 442.08 279.5632 
L 442.08 7.2 
L 74.4725 7.2 
z
" style="fill: #ffffff"/>
   </g>
   <g id="PolyCollection_1">
    <defs>
     <path id="me09c4c65f8" d="M 91.181932 -314.499855 
L 91.181932 -177.089272 
L 98.002108 -149.722784 
L 104.822284 -136.369393 
L 111.642461 -123.417767 
L 118.462637 -111.771555 
L 125.282813 -99.629327 
L 132.102989 -94.785755 
L 138.923166 -89.178803 
L 145.743342 -86.375809 
L 152.563518 -87.709986 
L 159.383694 -83.560463 
L 166.203871 -84.516781 
L 173.024047 -85.203195 
L 179.844223 -87.429164 
L 186.664399 -87.936616 
L 193.484576 -81.747758 
L 200.304752 -83.879968 
L 207.124928 -90.0796 
L 213.945104 -84.763814 
L 220.765281 -89.0138 
L 227.585457 -83.037284 
L 234.405633 -93.08485 
L 241.225809 -88.834578 
L 248.045986 -88.973588 
L 254.866162 -83.948904 
L 261.686338 -92.098399 
L 268.506514 -96.26108 
L 275.326691 -81.627356 
L 282.146867 -86.180669 
L 288.967043 -88.362489 
L 295.787219 -96.508546 
L 302.607396 -93.037907 
L 309.427572 -89.361522 
L 316.247748 -89.161399 
L 323.067924 -94.502131 
L 329.888101 -94.816967 
L 336.708277 -89.067577 
L 343.528453 -88.956944 
L 350.348629 -89.035836 
L 357.168806 -96.748859 
L 363.988982 -101.742613 
L 370.809158 -90.949679 
L 377.629334 -90.723503 
L 384.449511 -98.823415 
L 391.269687 -101.942792 
L 398.089863 -92.199714 
L 404.910039 -100.47926 
L 411.730216 -98.844402 
L 418.550392 -101.244193 
L 425.370568 -90.648204 
L 425.370568 -283.368534 
L 425.370568 -283.368534 
L 418.550392 -284.715082 
L 411.730216 -280.779501 
L 404.910039 -282.02039 
L 398.089863 -282.397548 
L 391.269687 -272.175297 
L 384.449511 -282.274592 
L 377.629334 -285.636706 
L 370.809158 -288.279555 
L 363.988982 -287.826974 
L 357.168806 -288.299369 
L 350.348629 -283.754351 
L 343.528453 -286.581483 
L 336.708277 -289.703397 
L 329.888101 -292.74822 
L 323.067924 -287.913791 
L 316.247748 -291.427038 
L 309.427572 -292.70423 
L 302.607396 -294.607566 
L 295.787219 -292.639539 
L 288.967043 -286.252986 
L 282.146867 -292.63219 
L 275.326691 -295.902679 
L 268.506514 -292.043216 
L 261.686338 -297.594074 
L 254.866162 -299.816023 
L 248.045986 -298.843863 
L 241.225809 -297.611401 
L 234.405633 -296.866685 
L 227.585457 -293.967047 
L 220.765281 -291.691971 
L 213.945104 -302.040881 
L 207.124928 -300.741654 
L 200.304752 -289.176726 
L 193.484576 -297.876159 
L 186.664399 -293.060755 
L 179.844223 -284.771361 
L 173.024047 -284.960763 
L 166.203871 -288.905545 
L 159.383694 -285.633765 
L 152.563518 -283.090097 
L 145.743342 -278.313316 
L 138.923166 -270.324717 
L 132.102989 -274.489497 
L 125.282813 -274.418022 
L 118.462637 -269.457223 
L 111.642461 -269.552762 
L 104.822284 -276.938192 
L 98.002108 -288.326466 
L 91.181932 -314.499855 
z
" style="stroke: #707b90; stroke-opacity: 0.2; stroke-width: 2.5"/>
    </defs>
    <g clip-path="url(#paecba4ebaf)">
     <use xlink:href="#me09c4c65f8" x="0" y="334.08" style="fill: #707b90; fill-opacity: 0.2; stroke: #707b90; stroke-opacity: 0.2; stroke-width: 2.5"/>
    </g>
   </g>
   <g id="PolyCollection_2">
    <defs>
     <path id="mb9f227d914" d="M 91.181932 -313.361018 
L 91.181932 -178.679537 
L 98.002108 -148.370946 
L 104.822284 -135.461583 
L 111.642461 -118.577358 
L 118.462637 -113.291969 
L 125.282813 -98.132456 
L 132.102989 -90.363418 
L 138.923166 -85.734236 
L 145.743342 -81.215748 
L 152.563518 -84.180937 
L 159.383694 -77.357316 
L 166.203871 -75.731883 
L 173.024047 -68.896498 
L 179.844223 -74.317331 
L 186.664399 -66.896945 
L 193.484576 -68.165791 
L 200.304752 -71.713113 
L 207.124928 -72.718611 
L 213.945104 -74.052552 
L 220.765281 -77.077662 
L 227.585457 -68.997858 
L 234.405633 -79.578703 
L 241.225809 -78.499927 
L 248.045986 -73.521931 
L 254.866162 -70.25035 
L 261.686338 -78.546126 
L 268.506514 -91.415954 
L 275.326691 -74.382258 
L 282.146867 -82.215879 
L 288.967043 -78.039081 
L 295.787219 -87.185873 
L 302.607396 -81.341741 
L 309.427572 -81.766104 
L 316.247748 -84.047199 
L 323.067924 -88.153056 
L 329.888101 -88.485803 
L 336.708277 -86.699881 
L 343.528453 -85.859377 
L 350.348629 -89.296341 
L 357.168806 -95.397743 
L 363.988982 -105.202239 
L 370.809158 -84.126342 
L 377.629334 -85.842881 
L 384.449511 -100.781316 
L 391.269687 -99.244477 
L 398.089863 -94.265967 
L 404.910039 -94.176145 
L 411.730216 -97.944678 
L 418.550392 -103.042547 
L 425.370568 -101.492373 
L 425.370568 -269.494026 
L 425.370568 -269.494026 
L 418.550392 -270.473486 
L 411.730216 -259.090901 
L 404.910039 -262.701282 
L 398.089863 -271.109721 
L 391.269687 -262.088471 
L 384.449511 -267.234546 
L 377.629334 -269.165677 
L 370.809158 -266.027293 
L 363.988982 -282.938641 
L 357.168806 -270.675401 
L 350.348629 -269.432775 
L 343.528453 -273.419493 
L 336.708277 -275.436398 
L 329.888101 -278.063009 
L 323.067924 -271.711588 
L 316.247748 -274.668633 
L 309.427572 -275.227432 
L 302.607396 -277.520083 
L 295.787219 -272.394068 
L 288.967043 -274.526504 
L 282.146867 -276.424274 
L 275.326691 -277.685696 
L 268.506514 -277.135281 
L 261.686338 -284.527262 
L 254.866162 -277.619089 
L 248.045986 -275.143835 
L 241.225809 -275.888365 
L 234.405633 -271.062037 
L 227.585457 -272.510934 
L 220.765281 -273.717316 
L 213.945104 -276.381623 
L 207.124928 -281.266874 
L 200.304752 -273.553268 
L 193.484576 -277.089386 
L 186.664399 -274.847301 
L 179.844223 -272.430064 
L 173.024047 -265.661037 
L 166.203871 -269.830487 
L 159.383694 -276.522558 
L 152.563518 -269.143861 
L 145.743342 -259.836503 
L 138.923166 -272.117305 
L 132.102989 -271.228967 
L 125.282813 -272.867225 
L 118.462637 -266.284237 
L 111.642461 -278.943892 
L 104.822284 -282.015503 
L 98.002108 -294.259202 
L 91.181932 -313.361018 
z
" style="stroke: #cbdede; stroke-opacity: 0.2; stroke-width: 2.5"/>
    </defs>
    <g clip-path="url(#paecba4ebaf)">
     <use xlink:href="#mb9f227d914" x="0" y="334.08" style="fill: #cbdede; fill-opacity: 0.2; stroke: #cbdede; stroke-opacity: 0.2; stroke-width: 2.5"/>
    </g>
   </g>
   <g id="matplotlib.axis_1">
    <g id="xtick_1">
     <g id="line2d_1">
      <defs>
       <path id="m079b98a1dd" d="M 0 0 
L 0 8 
" style="stroke: #000000; stroke-width: 2"/>
      </defs>
      <g>
       <use xlink:href="#m079b98a1dd" x="91.181932" y="279.5632" style="stroke: #000000; stroke-width: 2"/>
      </g>
     </g>
     <g id="text_1">
      <!-- 0 -->
      <g transform="translate(86.377282 303.4319)scale(0.1728 -0.1728)">
       <defs>
        <path id="ArialMT-30" d="M 266 2259 
Q 266 3072 433 3567 
Q 600 4063 929 4331 
Q 1259 4600 1759 4600 
Q 2128 4600 2406 4451 
Q 2684 4303 2865 4023 
Q 3047 3744 3150 3342 
Q 3253 2941 3253 2259 
Q 3253 1453 3087 958 
Q 2922 463 2592 192 
Q 2263 -78 1759 -78 
Q 1097 -78 719 397 
Q 266 969 266 2259 
z
M 844 2259 
Q 844 1131 1108 757 
Q 1372 384 1759 384 
Q 2147 384 2411 759 
Q 2675 1134 2675 2259 
Q 2675 3391 2411 3762 
Q 2147 4134 1753 4134 
Q 1366 4134 1134 3806 
Q 844 3388 844 2259 
z
" transform="scale(0.015625)"/>
       </defs>
       <use xlink:href="#ArialMT-30"/>
      </g>
     </g>
    </g>
    <g id="xtick_2">
     <g id="line2d_2">
      <g>
       <use xlink:href="#m079b98a1dd" x="159.383694" y="279.5632" style="stroke: #000000; stroke-width: 2"/>
      </g>
     </g>
     <g id="text_2">
      <!-- 10 -->
      <g transform="translate(149.774394 303.4319)scale(0.1728 -0.1728)">
       <defs>
        <path id="ArialMT-31" d="M 2384 0 
L 1822 0 
L 1822 3584 
Q 1619 3391 1289 3197 
Q 959 3003 697 2906 
L 697 3450 
Q 1169 3672 1522 3987 
Q 1875 4303 2022 4600 
L 2384 4600 
L 2384 0 
z
" transform="scale(0.015625)"/>
       </defs>
       <use xlink:href="#ArialMT-31"/>
       <use xlink:href="#ArialMT-30" x="55.615234"/>
      </g>
     </g>
    </g>
    <g id="xtick_3">
     <g id="line2d_3">
      <g>
       <use xlink:href="#m079b98a1dd" x="227.585457" y="279.5632" style="stroke: #000000; stroke-width: 2"/>
      </g>
     </g>
     <g id="text_3">
      <!-- 20 -->
      <g transform="translate(217.976157 303.4319)scale(0.1728 -0.1728)">
       <defs>
        <path id="ArialMT-32" d="M 3222 541 
L 3222 0 
L 194 0 
Q 188 203 259 391 
Q 375 700 629 1000 
Q 884 1300 1366 1694 
Q 2113 2306 2375 2664 
Q 2638 3022 2638 3341 
Q 2638 3675 2398 3904 
Q 2159 4134 1775 4134 
Q 1369 4134 1125 3890 
Q 881 3647 878 3216 
L 300 3275 
Q 359 3922 746 4261 
Q 1134 4600 1788 4600 
Q 2447 4600 2831 4234 
Q 3216 3869 3216 3328 
Q 3216 3053 3103 2787 
Q 2991 2522 2730 2228 
Q 2469 1934 1863 1422 
Q 1356 997 1212 845 
Q 1069 694 975 541 
L 3222 541 
z
" transform="scale(0.015625)"/>
       </defs>
       <use xlink:href="#ArialMT-32"/>
       <use xlink:href="#ArialMT-30" x="55.615234"/>
      </g>
     </g>
    </g>
    <g id="xtick_4">
     <g id="line2d_4">
      <g>
       <use xlink:href="#m079b98a1dd" x="295.787219" y="279.5632" style="stroke: #000000; stroke-width: 2"/>
      </g>
     </g>
     <g id="text_4">
      <!-- 30 -->
      <g transform="translate(286.177919 303.4319)scale(0.1728 -0.1728)">
       <defs>
        <path id="ArialMT-33" d="M 269 1209 
L 831 1284 
Q 928 806 1161 595 
Q 1394 384 1728 384 
Q 2125 384 2398 659 
Q 2672 934 2672 1341 
Q 2672 1728 2419 1979 
Q 2166 2231 1775 2231 
Q 1616 2231 1378 2169 
L 1441 2663 
Q 1497 2656 1531 2656 
Q 1891 2656 2178 2843 
Q 2466 3031 2466 3422 
Q 2466 3731 2256 3934 
Q 2047 4138 1716 4138 
Q 1388 4138 1169 3931 
Q 950 3725 888 3313 
L 325 3413 
Q 428 3978 793 4289 
Q 1159 4600 1703 4600 
Q 2078 4600 2393 4439 
Q 2709 4278 2876 4000 
Q 3044 3722 3044 3409 
Q 3044 3113 2884 2869 
Q 2725 2625 2413 2481 
Q 2819 2388 3044 2092 
Q 3269 1797 3269 1353 
Q 3269 753 2831 336 
Q 2394 -81 1725 -81 
Q 1122 -81 723 278 
Q 325 638 269 1209 
z
" transform="scale(0.015625)"/>
       </defs>
       <use xlink:href="#ArialMT-33"/>
       <use xlink:href="#ArialMT-30" x="55.615234"/>
      </g>
     </g>
    </g>
    <g id="xtick_5">
     <g id="line2d_5">
      <g>
       <use xlink:href="#m079b98a1dd" x="363.988982" y="279.5632" style="stroke: #000000; stroke-width: 2"/>
      </g>
     </g>
     <g id="text_5">
      <!-- 40 -->
      <g transform="translate(354.379682 303.4319)scale(0.1728 -0.1728)">
       <defs>
        <path id="ArialMT-34" d="M 2069 0 
L 2069 1097 
L 81 1097 
L 81 1613 
L 2172 4581 
L 2631 4581 
L 2631 1613 
L 3250 1613 
L 3250 1097 
L 2631 1097 
L 2631 0 
L 2069 0 
z
M 2069 1613 
L 2069 3678 
L 634 1613 
L 2069 1613 
z
" transform="scale(0.015625)"/>
       </defs>
       <use xlink:href="#ArialMT-34"/>
       <use xlink:href="#ArialMT-30" x="55.615234"/>
      </g>
     </g>
    </g>
    <g id="xtick_6">
     <g id="line2d_6">
      <g>
       <use xlink:href="#m079b98a1dd" x="432.190744" y="279.5632" style="stroke: #000000; stroke-width: 2"/>
      </g>
     </g>
     <g id="text_6">
      <!-- 50 -->
      <g transform="translate(422.581444 303.4319)scale(0.1728 -0.1728)">
       <defs>
        <path id="ArialMT-35" d="M 266 1200 
L 856 1250 
Q 922 819 1161 601 
Q 1400 384 1738 384 
Q 2144 384 2425 690 
Q 2706 997 2706 1503 
Q 2706 1984 2436 2262 
Q 2166 2541 1728 2541 
Q 1456 2541 1237 2417 
Q 1019 2294 894 2097 
L 366 2166 
L 809 4519 
L 3088 4519 
L 3088 3981 
L 1259 3981 
L 1013 2750 
Q 1425 3038 1878 3038 
Q 2478 3038 2890 2622 
Q 3303 2206 3303 1553 
Q 3303 931 2941 478 
Q 2500 -78 1738 -78 
Q 1113 -78 717 272 
Q 322 622 266 1200 
z
" transform="scale(0.015625)"/>
       </defs>
       <use xlink:href="#ArialMT-35"/>
       <use xlink:href="#ArialMT-30" x="55.615234"/>
      </g>
     </g>
    </g>
    <g id="text_7">
     <!-- Step -->
     <g transform="translate(240.5035 323.4456)scale(0.1728 -0.1728)">
      <defs>
       <path id="ArialMT-53" d="M 288 1472 
L 859 1522 
Q 900 1178 1048 958 
Q 1197 738 1509 602 
Q 1822 466 2213 466 
Q 2559 466 2825 569 
Q 3091 672 3220 851 
Q 3350 1031 3350 1244 
Q 3350 1459 3225 1620 
Q 3100 1781 2813 1891 
Q 2628 1963 1997 2114 
Q 1366 2266 1113 2400 
Q 784 2572 623 2826 
Q 463 3081 463 3397 
Q 463 3744 659 4045 
Q 856 4347 1234 4503 
Q 1613 4659 2075 4659 
Q 2584 4659 2973 4495 
Q 3363 4331 3572 4012 
Q 3781 3694 3797 3291 
L 3216 3247 
Q 3169 3681 2898 3903 
Q 2628 4125 2100 4125 
Q 1550 4125 1298 3923 
Q 1047 3722 1047 3438 
Q 1047 3191 1225 3031 
Q 1400 2872 2139 2705 
Q 2878 2538 3153 2413 
Q 3553 2228 3743 1945 
Q 3934 1663 3934 1294 
Q 3934 928 3725 604 
Q 3516 281 3123 101 
Q 2731 -78 2241 -78 
Q 1619 -78 1198 103 
Q 778 284 539 648 
Q 300 1013 288 1472 
z
" transform="scale(0.015625)"/>
       <path id="ArialMT-74" d="M 1650 503 
L 1731 6 
Q 1494 -44 1306 -44 
Q 1000 -44 831 53 
Q 663 150 594 308 
Q 525 466 525 972 
L 525 2881 
L 113 2881 
L 113 3319 
L 525 3319 
L 525 4141 
L 1084 4478 
L 1084 3319 
L 1650 3319 
L 1650 2881 
L 1084 2881 
L 1084 941 
Q 1084 700 1114 631 
Q 1144 563 1211 522 
Q 1278 481 1403 481 
Q 1497 481 1650 503 
z
" transform="scale(0.015625)"/>
       <path id="ArialMT-65" d="M 2694 1069 
L 3275 997 
Q 3138 488 2766 206 
Q 2394 -75 1816 -75 
Q 1088 -75 661 373 
Q 234 822 234 1631 
Q 234 2469 665 2931 
Q 1097 3394 1784 3394 
Q 2450 3394 2872 2941 
Q 3294 2488 3294 1666 
Q 3294 1616 3291 1516 
L 816 1516 
Q 847 969 1125 678 
Q 1403 388 1819 388 
Q 2128 388 2347 550 
Q 2566 713 2694 1069 
z
M 847 1978 
L 2700 1978 
Q 2663 2397 2488 2606 
Q 2219 2931 1791 2931 
Q 1403 2931 1139 2672 
Q 875 2413 847 1978 
z
" transform="scale(0.015625)"/>
       <path id="ArialMT-70" d="M 422 -1272 
L 422 3319 
L 934 3319 
L 934 2888 
Q 1116 3141 1344 3267 
Q 1572 3394 1897 3394 
Q 2322 3394 2647 3175 
Q 2972 2956 3137 2557 
Q 3303 2159 3303 1684 
Q 3303 1175 3120 767 
Q 2938 359 2589 142 
Q 2241 -75 1856 -75 
Q 1575 -75 1351 44 
Q 1128 163 984 344 
L 984 -1272 
L 422 -1272 
z
M 931 1641 
Q 931 1000 1190 694 
Q 1450 388 1819 388 
Q 2194 388 2461 705 
Q 2728 1022 2728 1688 
Q 2728 2322 2467 2637 
Q 2206 2953 1844 2953 
Q 1484 2953 1207 2617 
Q 931 2281 931 1641 
z
" transform="scale(0.015625)"/>
      </defs>
      <use xlink:href="#ArialMT-53"/>
      <use xlink:href="#ArialMT-74" x="66.699219"/>
      <use xlink:href="#ArialMT-65" x="94.482422"/>
      <use xlink:href="#ArialMT-70" x="150.097656"/>
     </g>
    </g>
   </g>
   <g id="matplotlib.axis_2">
    <g id="ytick_1">
     <g id="line2d_7">
      <defs>
       <path id="m1345f5ae2b" d="M 0 0 
L -8 0 
" style="stroke: #000000; stroke-width: 2"/>
      </defs>
      <g>
       <use xlink:href="#m1345f5ae2b" x="74.4725" y="239.279632" style="stroke: #000000; stroke-width: 2"/>
      </g>
     </g>
     <g id="text_8">
      <!-- 0.38 -->
      <g transform="translate(29.344 245.463982)scale(0.1728 -0.1728)">
       <defs>
        <path id="ArialMT-2e" d="M 581 0 
L 581 641 
L 1222 641 
L 1222 0 
L 581 0 
z
" transform="scale(0.015625)"/>
        <path id="ArialMT-38" d="M 1131 2484 
Q 781 2613 612 2850 
Q 444 3088 444 3419 
Q 444 3919 803 4259 
Q 1163 4600 1759 4600 
Q 2359 4600 2725 4251 
Q 3091 3903 3091 3403 
Q 3091 3084 2923 2848 
Q 2756 2613 2416 2484 
Q 2838 2347 3058 2040 
Q 3278 1734 3278 1309 
Q 3278 722 2862 322 
Q 2447 -78 1769 -78 
Q 1091 -78 675 323 
Q 259 725 259 1325 
Q 259 1772 486 2073 
Q 713 2375 1131 2484 
z
M 1019 3438 
Q 1019 3113 1228 2906 
Q 1438 2700 1772 2700 
Q 2097 2700 2305 2904 
Q 2513 3109 2513 3406 
Q 2513 3716 2298 3927 
Q 2084 4138 1766 4138 
Q 1444 4138 1231 3931 
Q 1019 3725 1019 3438 
z
M 838 1322 
Q 838 1081 952 856 
Q 1066 631 1291 507 
Q 1516 384 1775 384 
Q 2178 384 2440 643 
Q 2703 903 2703 1303 
Q 2703 1709 2433 1975 
Q 2163 2241 1756 2241 
Q 1359 2241 1098 1978 
Q 838 1716 838 1322 
z
" transform="scale(0.015625)"/>
       </defs>
       <use xlink:href="#ArialMT-30"/>
       <use xlink:href="#ArialMT-2e" x="55.615234"/>
       <use xlink:href="#ArialMT-33" x="83.398438"/>
       <use xlink:href="#ArialMT-38" x="139.013672"/>
      </g>
     </g>
    </g>
    <g id="ytick_2">
     <g id="line2d_8">
      <g>
       <use xlink:href="#m1345f5ae2b" x="74.4725" y="194.484055" style="stroke: #000000; stroke-width: 2"/>
      </g>
     </g>
     <g id="text_9">
      <!-- 0.40 -->
      <g transform="translate(29.344 200.668405)scale(0.1728 -0.1728)">
       <use xlink:href="#ArialMT-30"/>
       <use xlink:href="#ArialMT-2e" x="55.615234"/>
       <use xlink:href="#ArialMT-34" x="83.398438"/>
       <use xlink:href="#ArialMT-30" x="139.013672"/>
      </g>
     </g>
    </g>
    <g id="ytick_3">
     <g id="line2d_9">
      <g>
       <use xlink:href="#m1345f5ae2b" x="74.4725" y="149.688479" style="stroke: #000000; stroke-width: 2"/>
      </g>
     </g>
     <g id="text_10">
      <!-- 0.42 -->
      <g transform="translate(29.344 155.872829)scale(0.1728 -0.1728)">
       <use xlink:href="#ArialMT-30"/>
       <use xlink:href="#ArialMT-2e" x="55.615234"/>
       <use xlink:href="#ArialMT-34" x="83.398438"/>
       <use xlink:href="#ArialMT-32" x="139.013672"/>
      </g>
     </g>
    </g>
    <g id="ytick_4">
     <g id="line2d_10">
      <g>
       <use xlink:href="#m1345f5ae2b" x="74.4725" y="104.892902" style="stroke: #000000; stroke-width: 2"/>
      </g>
     </g>
     <g id="text_11">
      <!-- 0.44 -->
      <g transform="translate(29.344 111.077252)scale(0.1728 -0.1728)">
       <use xlink:href="#ArialMT-30"/>
       <use xlink:href="#ArialMT-2e" x="55.615234"/>
       <use xlink:href="#ArialMT-34" x="83.398438"/>
       <use xlink:href="#ArialMT-34" x="139.013672"/>
      </g>
     </g>
    </g>
    <g id="ytick_5">
     <g id="line2d_11">
      <g>
       <use xlink:href="#m1345f5ae2b" x="74.4725" y="60.097325" style="stroke: #000000; stroke-width: 2"/>
      </g>
     </g>
     <g id="text_12">
      <!-- 0.46 -->
      <g transform="translate(29.344 66.281675)scale(0.1728 -0.1728)">
       <defs>
        <path id="ArialMT-36" d="M 3184 3459 
L 2625 3416 
Q 2550 3747 2413 3897 
Q 2184 4138 1850 4138 
Q 1581 4138 1378 3988 
Q 1113 3794 959 3422 
Q 806 3050 800 2363 
Q 1003 2672 1297 2822 
Q 1591 2972 1913 2972 
Q 2475 2972 2870 2558 
Q 3266 2144 3266 1488 
Q 3266 1056 3080 686 
Q 2894 316 2569 119 
Q 2244 -78 1831 -78 
Q 1128 -78 684 439 
Q 241 956 241 2144 
Q 241 3472 731 4075 
Q 1159 4600 1884 4600 
Q 2425 4600 2770 4297 
Q 3116 3994 3184 3459 
z
M 888 1484 
Q 888 1194 1011 928 
Q 1134 663 1356 523 
Q 1578 384 1822 384 
Q 2178 384 2434 671 
Q 2691 959 2691 1453 
Q 2691 1928 2437 2201 
Q 2184 2475 1800 2475 
Q 1419 2475 1153 2201 
Q 888 1928 888 1484 
z
" transform="scale(0.015625)"/>
       </defs>
       <use xlink:href="#ArialMT-30"/>
       <use xlink:href="#ArialMT-2e" x="55.615234"/>
       <use xlink:href="#ArialMT-34" x="83.398438"/>
       <use xlink:href="#ArialMT-36" x="139.013672"/>
      </g>
     </g>
    </g>
    <g id="ytick_6">
     <g id="line2d_12">
      <g>
       <use xlink:href="#m1345f5ae2b" x="74.4725" y="15.301748" style="stroke: #000000; stroke-width: 2"/>
      </g>
     </g>
     <g id="text_13">
      <!-- 0.48 -->
      <g transform="translate(29.344 21.486098)scale(0.1728 -0.1728)">
       <use xlink:href="#ArialMT-30"/>
       <use xlink:href="#ArialMT-2e" x="55.615234"/>
       <use xlink:href="#ArialMT-34" x="83.398438"/>
       <use xlink:href="#ArialMT-38" x="139.013672"/>
      </g>
     </g>
    </g>
    <g id="text_14">
     <!-- Gradient Alignment to LN$^+$ -->
     <g transform="translate(21.5424 248.1848)rotate(-90)scale(0.1728 -0.1728)">
      <defs>
       <path id="ArialMT-47" d="M 2638 1797 
L 2638 2334 
L 4578 2338 
L 4578 638 
Q 4131 281 3656 101 
Q 3181 -78 2681 -78 
Q 2006 -78 1454 211 
Q 903 500 622 1047 
Q 341 1594 341 2269 
Q 341 2938 620 3517 
Q 900 4097 1425 4378 
Q 1950 4659 2634 4659 
Q 3131 4659 3532 4498 
Q 3934 4338 4162 4050 
Q 4391 3763 4509 3300 
L 3963 3150 
Q 3859 3500 3706 3700 
Q 3553 3900 3268 4020 
Q 2984 4141 2638 4141 
Q 2222 4141 1919 4014 
Q 1616 3888 1430 3681 
Q 1244 3475 1141 3228 
Q 966 2803 966 2306 
Q 966 1694 1177 1281 
Q 1388 869 1791 669 
Q 2194 469 2647 469 
Q 3041 469 3416 620 
Q 3791 772 3984 944 
L 3984 1797 
L 2638 1797 
z
" transform="scale(0.015625)"/>
       <path id="ArialMT-72" d="M 416 0 
L 416 3319 
L 922 3319 
L 922 2816 
Q 1116 3169 1280 3281 
Q 1444 3394 1641 3394 
Q 1925 3394 2219 3213 
L 2025 2691 
Q 1819 2813 1613 2813 
Q 1428 2813 1281 2702 
Q 1134 2591 1072 2394 
Q 978 2094 978 1738 
L 978 0 
L 416 0 
z
" transform="scale(0.015625)"/>
       <path id="ArialMT-61" d="M 2588 409 
Q 2275 144 1986 34 
Q 1697 -75 1366 -75 
Q 819 -75 525 192 
Q 231 459 231 875 
Q 231 1119 342 1320 
Q 453 1522 633 1644 
Q 813 1766 1038 1828 
Q 1203 1872 1538 1913 
Q 2219 1994 2541 2106 
Q 2544 2222 2544 2253 
Q 2544 2597 2384 2738 
Q 2169 2928 1744 2928 
Q 1347 2928 1158 2789 
Q 969 2650 878 2297 
L 328 2372 
Q 403 2725 575 2942 
Q 747 3159 1072 3276 
Q 1397 3394 1825 3394 
Q 2250 3394 2515 3294 
Q 2781 3194 2906 3042 
Q 3031 2891 3081 2659 
Q 3109 2516 3109 2141 
L 3109 1391 
Q 3109 606 3145 398 
Q 3181 191 3288 0 
L 2700 0 
Q 2613 175 2588 409 
z
M 2541 1666 
Q 2234 1541 1622 1453 
Q 1275 1403 1131 1340 
Q 988 1278 909 1158 
Q 831 1038 831 891 
Q 831 666 1001 516 
Q 1172 366 1500 366 
Q 1825 366 2078 508 
Q 2331 650 2450 897 
Q 2541 1088 2541 1459 
L 2541 1666 
z
" transform="scale(0.015625)"/>
       <path id="ArialMT-64" d="M 2575 0 
L 2575 419 
Q 2259 -75 1647 -75 
Q 1250 -75 917 144 
Q 584 363 401 755 
Q 219 1147 219 1656 
Q 219 2153 384 2558 
Q 550 2963 881 3178 
Q 1213 3394 1622 3394 
Q 1922 3394 2156 3267 
Q 2391 3141 2538 2938 
L 2538 4581 
L 3097 4581 
L 3097 0 
L 2575 0 
z
M 797 1656 
Q 797 1019 1065 703 
Q 1334 388 1700 388 
Q 2069 388 2326 689 
Q 2584 991 2584 1609 
Q 2584 2291 2321 2609 
Q 2059 2928 1675 2928 
Q 1300 2928 1048 2622 
Q 797 2316 797 1656 
z
" transform="scale(0.015625)"/>
       <path id="ArialMT-69" d="M 425 3934 
L 425 4581 
L 988 4581 
L 988 3934 
L 425 3934 
z
M 425 0 
L 425 3319 
L 988 3319 
L 988 0 
L 425 0 
z
" transform="scale(0.015625)"/>
       <path id="ArialMT-6e" d="M 422 0 
L 422 3319 
L 928 3319 
L 928 2847 
Q 1294 3394 1984 3394 
Q 2284 3394 2536 3286 
Q 2788 3178 2913 3003 
Q 3038 2828 3088 2588 
Q 3119 2431 3119 2041 
L 3119 0 
L 2556 0 
L 2556 2019 
Q 2556 2363 2490 2533 
Q 2425 2703 2258 2804 
Q 2091 2906 1866 2906 
Q 1506 2906 1245 2678 
Q 984 2450 984 1813 
L 984 0 
L 422 0 
z
" transform="scale(0.015625)"/>
       <path id="ArialMT-20" transform="scale(0.015625)"/>
       <path id="ArialMT-41" d="M -9 0 
L 1750 4581 
L 2403 4581 
L 4278 0 
L 3588 0 
L 3053 1388 
L 1138 1388 
L 634 0 
L -9 0 
z
M 1313 1881 
L 2866 1881 
L 2388 3150 
Q 2169 3728 2063 4100 
Q 1975 3659 1816 3225 
L 1313 1881 
z
" transform="scale(0.015625)"/>
       <path id="ArialMT-6c" d="M 409 0 
L 409 4581 
L 972 4581 
L 972 0 
L 409 0 
z
" transform="scale(0.015625)"/>
       <path id="ArialMT-67" d="M 319 -275 
L 866 -356 
Q 900 -609 1056 -725 
Q 1266 -881 1628 -881 
Q 2019 -881 2231 -725 
Q 2444 -569 2519 -288 
Q 2563 -116 2559 434 
Q 2191 0 1641 0 
Q 956 0 581 494 
Q 206 988 206 1678 
Q 206 2153 378 2554 
Q 550 2956 876 3175 
Q 1203 3394 1644 3394 
Q 2231 3394 2613 2919 
L 2613 3319 
L 3131 3319 
L 3131 450 
Q 3131 -325 2973 -648 
Q 2816 -972 2473 -1159 
Q 2131 -1347 1631 -1347 
Q 1038 -1347 672 -1080 
Q 306 -813 319 -275 
z
M 784 1719 
Q 784 1066 1043 766 
Q 1303 466 1694 466 
Q 2081 466 2343 764 
Q 2606 1063 2606 1700 
Q 2606 2309 2336 2618 
Q 2066 2928 1684 2928 
Q 1309 2928 1046 2623 
Q 784 2319 784 1719 
z
" transform="scale(0.015625)"/>
       <path id="ArialMT-6d" d="M 422 0 
L 422 3319 
L 925 3319 
L 925 2853 
Q 1081 3097 1340 3245 
Q 1600 3394 1931 3394 
Q 2300 3394 2536 3241 
Q 2772 3088 2869 2813 
Q 3263 3394 3894 3394 
Q 4388 3394 4653 3120 
Q 4919 2847 4919 2278 
L 4919 0 
L 4359 0 
L 4359 2091 
Q 4359 2428 4304 2576 
Q 4250 2725 4106 2815 
Q 3963 2906 3769 2906 
Q 3419 2906 3187 2673 
Q 2956 2441 2956 1928 
L 2956 0 
L 2394 0 
L 2394 2156 
Q 2394 2531 2256 2718 
Q 2119 2906 1806 2906 
Q 1569 2906 1367 2781 
Q 1166 2656 1075 2415 
Q 984 2175 984 1722 
L 984 0 
L 422 0 
z
" transform="scale(0.015625)"/>
       <path id="ArialMT-6f" d="M 213 1659 
Q 213 2581 725 3025 
Q 1153 3394 1769 3394 
Q 2453 3394 2887 2945 
Q 3322 2497 3322 1706 
Q 3322 1066 3130 698 
Q 2938 331 2570 128 
Q 2203 -75 1769 -75 
Q 1072 -75 642 372 
Q 213 819 213 1659 
z
M 791 1659 
Q 791 1022 1069 705 
Q 1347 388 1769 388 
Q 2188 388 2466 706 
Q 2744 1025 2744 1678 
Q 2744 2294 2464 2611 
Q 2184 2928 1769 2928 
Q 1347 2928 1069 2612 
Q 791 2297 791 1659 
z
" transform="scale(0.015625)"/>
       <path id="ArialMT-4c" d="M 469 0 
L 469 4581 
L 1075 4581 
L 1075 541 
L 3331 541 
L 3331 0 
L 469 0 
z
" transform="scale(0.015625)"/>
       <path id="ArialMT-4e" d="M 488 0 
L 488 4581 
L 1109 4581 
L 3516 984 
L 3516 4581 
L 4097 4581 
L 4097 0 
L 3475 0 
L 1069 3600 
L 1069 0 
L 488 0 
z
" transform="scale(0.015625)"/>
       <path id="DejaVuSans-2b" d="M 2944 4013 
L 2944 2272 
L 4684 2272 
L 4684 1741 
L 2944 1741 
L 2944 0 
L 2419 0 
L 2419 1741 
L 678 1741 
L 678 2272 
L 2419 2272 
L 2419 4013 
L 2944 4013 
z
" transform="scale(0.015625)"/>
      </defs>
      <use xlink:href="#ArialMT-47" transform="translate(0 0.826562)"/>
      <use xlink:href="#ArialMT-72" transform="translate(77.783203 0.826562)"/>
      <use xlink:href="#ArialMT-61" transform="translate(111.083984 0.826562)"/>
      <use xlink:href="#ArialMT-64" transform="translate(166.699219 0.826562)"/>
      <use xlink:href="#ArialMT-69" transform="translate(222.314453 0.826562)"/>
      <use xlink:href="#ArialMT-65" transform="translate(244.53125 0.826562)"/>
      <use xlink:href="#ArialMT-6e" transform="translate(300.146484 0.826562)"/>
      <use xlink:href="#ArialMT-74" transform="translate(355.761719 0.826562)"/>
      <use xlink:href="#ArialMT-20" transform="translate(383.544922 0.826562)"/>
      <use xlink:href="#ArialMT-41" transform="translate(411.328125 0.826562)"/>
      <use xlink:href="#ArialMT-6c" transform="translate(478.027344 0.826562)"/>
      <use xlink:href="#ArialMT-69" transform="translate(500.244141 0.826562)"/>
      <use xlink:href="#ArialMT-67" transform="translate(522.460938 0.826562)"/>
      <use xlink:href="#ArialMT-6e" transform="translate(578.076172 0.826562)"/>
      <use xlink:href="#ArialMT-6d" transform="translate(633.691406 0.826562)"/>
      <use xlink:href="#ArialMT-65" transform="translate(716.992188 0.826562)"/>
      <use xlink:href="#ArialMT-6e" transform="translate(772.607422 0.826562)"/>
      <use xlink:href="#ArialMT-74" transform="translate(828.222656 0.826562)"/>
      <use xlink:href="#ArialMT-20" transform="translate(856.005859 0.826562)"/>
      <use xlink:href="#ArialMT-74" transform="translate(883.789062 0.826562)"/>
      <use xlink:href="#ArialMT-6f" transform="translate(911.572266 0.826562)"/>
      <use xlink:href="#ArialMT-20" transform="translate(967.1875 0.826562)"/>
      <use xlink:href="#ArialMT-4c" transform="translate(994.970703 0.826562)"/>
      <use xlink:href="#ArialMT-4e" transform="translate(1050.585938 0.826562)"/>
      <use xlink:href="#DejaVuSans-2b" transform="translate(1137.397461 39.107812)scale(0.7)"/>
     </g>
    </g>
   </g>
   <g id="line2d_13">
    <path d="M 91.181932 88.285437 
L 98.002108 115.055375 
L 104.822284 127.426207 
L 111.642461 137.594735 
L 118.462637 143.465611 
L 125.282813 147.056326 
L 132.102989 149.442374 
L 138.923166 154.32824 
L 145.743342 151.735438 
L 152.563518 148.679959 
L 159.383694 149.482886 
L 166.203871 147.368837 
L 173.024047 148.998021 
L 179.844223 147.979737 
L 186.664399 143.581314 
L 193.484576 144.268042 
L 200.304752 147.551653 
L 207.124928 138.669373 
L 213.945104 140.677652 
L 220.765281 143.727114 
L 227.585457 145.577835 
L 234.405633 139.104232 
L 241.225809 140.857011 
L 248.045986 140.171274 
L 254.866162 142.197536 
L 261.686338 139.233764 
L 268.506514 139.927852 
L 275.326691 145.314982 
L 282.146867 144.673571 
L 288.967043 146.772263 
L 295.787219 139.505958 
L 302.607396 140.257264 
L 309.427572 143.047124 
L 316.247748 143.785781 
L 323.067924 142.872039 
L 329.888101 140.297406 
L 336.708277 144.694513 
L 343.528453 146.310786 
L 350.348629 147.684907 
L 357.168806 141.555886 
L 363.988982 139.295206 
L 370.809158 144.465383 
L 377.629334 145.899896 
L 384.449511 143.530997 
L 391.269687 147.020956 
L 398.089863 146.781369 
L 404.910039 142.830175 
L 411.730216 144.268049 
L 418.550392 141.100363 
L 425.370568 147.071631 
" clip-path="url(#paecba4ebaf)" style="fill: none; stroke: #707b90; stroke-width: 2.5; stroke-linecap: square"/>
   </g>
   <g id="line2d_14">
    <path d="M 91.181932 88.059722 
L 98.002108 112.764926 
L 104.822284 125.341457 
L 111.642461 135.319375 
L 118.462637 144.291897 
L 125.282813 148.58016 
L 132.102989 153.283808 
L 138.923166 155.15423 
L 145.743342 163.553874 
L 152.563518 157.417601 
L 159.383694 157.140063 
L 166.203871 161.298815 
L 173.024047 166.801233 
L 179.844223 160.706302 
L 186.664399 163.207877 
L 193.484576 161.452412 
L 200.304752 161.446809 
L 207.124928 157.087258 
L 213.945104 158.862912 
L 220.765281 158.682511 
L 227.585457 163.325604 
L 234.405633 158.75963 
L 241.225809 156.885854 
L 248.045986 159.747117 
L 254.866162 160.14528 
L 261.686338 152.543306 
L 268.506514 149.804383 
L 275.326691 158.046023 
L 282.146867 154.759923 
L 288.967043 157.797208 
L 295.787219 154.290029 
L 302.607396 154.649088 
L 309.427572 155.583232 
L 316.247748 154.722084 
L 323.067924 154.147678 
L 329.888101 150.805594 
L 336.708277 153.01186 
L 343.528453 154.440565 
L 350.348629 154.715442 
L 357.168806 151.043428 
L 363.988982 140.00956 
L 370.809158 159.003183 
L 377.629334 156.575721 
L 384.449511 150.072069 
L 391.269687 153.413526 
L 398.089863 151.392156 
L 404.910039 155.641287 
L 411.730216 155.562211 
L 418.550392 147.321984 
L 425.370568 148.586801 
" clip-path="url(#paecba4ebaf)" style="fill: none; stroke-dasharray: 20,10; stroke-dashoffset: 0; stroke: #707b90; stroke-width: 2.5"/>
   </g>
   <g id="patch_3">
    <path d="M 74.4725 279.5632 
L 74.4725 7.2 
" style="fill: none; stroke: #000000; stroke-width: 1.5; stroke-linejoin: miter; stroke-linecap: square"/>
   </g>
   <g id="patch_4">
    <path d="M 74.4725 279.5632 
L 442.08 279.5632 
" style="fill: none; stroke: #000000; stroke-width: 1.5; stroke-linejoin: miter; stroke-linecap: square"/>
   </g>
   <g id="legend_1">
    <g id="patch_5">
     <path d="M 302.6466 70.1208 
L 429.984 70.1208 
Q 433.44 70.1208 433.44 66.6648 
L 433.44 19.296 
Q 433.44 15.84 429.984 15.84 
L 302.6466 15.84 
Q 299.1906 15.84 299.1906 19.296 
L 299.1906 66.6648 
Q 299.1906 70.1208 302.6466 70.1208 
z
" style="fill: #ffffff; opacity: 0.8; stroke: #cccccc; stroke-width: 2.5; stroke-linejoin: miter"/>
    </g>
    <g id="line2d_15">
     <path d="M 306.1026 29.0727 
L 323.3826 29.0727 
L 340.6626 29.0727 
" style="fill: none; stroke: #707b90; stroke-width: 2.5; stroke-linecap: square"/>
    </g>
    <g id="text_15">
     <!-- center -->
     <g transform="translate(354.4866 35.1207)scale(0.1728 -0.1728)">
      <defs>
       <path id="ArialMT-63" d="M 2588 1216 
L 3141 1144 
Q 3050 572 2676 248 
Q 2303 -75 1759 -75 
Q 1078 -75 664 370 
Q 250 816 250 1647 
Q 250 2184 428 2587 
Q 606 2991 970 3192 
Q 1334 3394 1763 3394 
Q 2303 3394 2647 3120 
Q 2991 2847 3088 2344 
L 2541 2259 
Q 2463 2594 2264 2762 
Q 2066 2931 1784 2931 
Q 1359 2931 1093 2626 
Q 828 2322 828 1663 
Q 828 994 1084 691 
Q 1341 388 1753 388 
Q 2084 388 2306 591 
Q 2528 794 2588 1216 
z
" transform="scale(0.015625)"/>
      </defs>
      <use xlink:href="#ArialMT-63"/>
      <use xlink:href="#ArialMT-65" x="50"/>
      <use xlink:href="#ArialMT-6e" x="105.615234"/>
      <use xlink:href="#ArialMT-74" x="161.230469"/>
      <use xlink:href="#ArialMT-65" x="189.013672"/>
      <use xlink:href="#ArialMT-72" x="244.628906"/>
     </g>
    </g>
    <g id="line2d_16">
     <path d="M 306.1026 53.7264 
L 323.3826 53.7264 
L 340.6626 53.7264 
" style="fill: none; stroke-dasharray: 20,10; stroke-dashoffset: 0; stroke: #707b90; stroke-width: 2.5"/>
    </g>
    <g id="text_16">
     <!-- fa_center -->
     <g transform="translate(354.4866 59.7744)scale(0.1728 -0.1728)">
      <defs>
       <path id="ArialMT-66" d="M 556 0 
L 556 2881 
L 59 2881 
L 59 3319 
L 556 3319 
L 556 3672 
Q 556 4006 616 4169 
Q 697 4388 901 4523 
Q 1106 4659 1475 4659 
Q 1713 4659 2000 4603 
L 1916 4113 
Q 1741 4144 1584 4144 
Q 1328 4144 1222 4034 
Q 1116 3925 1116 3625 
L 1116 3319 
L 1763 3319 
L 1763 2881 
L 1116 2881 
L 1116 0 
L 556 0 
z
" transform="scale(0.015625)"/>
       <path id="ArialMT-5f" d="M -97 -1272 
L -97 -866 
L 3631 -866 
L 3631 -1272 
L -97 -1272 
z
" transform="scale(0.015625)"/>
      </defs>
      <use xlink:href="#ArialMT-66"/>
      <use xlink:href="#ArialMT-61" x="27.783203"/>
      <use xlink:href="#ArialMT-5f" x="83.398438"/>
      <use xlink:href="#ArialMT-63" x="139.013672"/>
      <use xlink:href="#ArialMT-65" x="189.013672"/>
      <use xlink:href="#ArialMT-6e" x="244.628906"/>
      <use xlink:href="#ArialMT-74" x="300.244141"/>
      <use xlink:href="#ArialMT-65" x="328.027344"/>
      <use xlink:href="#ArialMT-72" x="383.642578"/>
     </g>
    </g>
   </g>
  </g>
 </g>
 <defs>
  <clipPath id="paecba4ebaf">
   <rect x="74.4725" y="7.2" width="367.6075" height="272.3632"/>
  </clipPath>
 </defs>
</svg>
