<?xml version="1.0" encoding="utf-8" standalone="no"?>
<!DOCTYPE svg PUBLIC "-//W3C//DTD SVG 1.1//EN"
  "http://www.w3.org/Graphics/SVG/1.1/DTD/svg11.dtd">
<svg xmlns:xlink="http://www.w3.org/1999/xlink" width="852.48pt" height="276.48pt" viewBox="0 0 852.48 276.48" xmlns="http://www.w3.org/2000/svg" version="1.1">
 <metadata>
  <rdf:RDF xmlns:dc="http://purl.org/dc/elements/1.1/" xmlns:cc="http://creativecommons.org/ns#" xmlns:rdf="http://www.w3.org/1999/02/22-rdf-syntax-ns#">
   <cc:Work>
    <dc:type rdf:resource="http://purl.org/dc/dcmitype/StillImage"/>
    <dc:date>2025-09-21T12:02:02.394542</dc:date>
    <dc:format>image/svg+xml</dc:format>
    <dc:creator>
     <cc:Agent>
      <dc:title>Matplotlib v3.5.3, https://matplotlib.org/</dc:title>
     </cc:Agent>
    </dc:creator>
   </cc:Work>
  </rdf:RDF>
 </metadata>
 <defs>
  <style type="text/css">*{stroke-linejoin: round; stroke-linecap: butt}</style>
 </defs>
 <g id="figure_1">
  <g id="patch_1">
   <path d="M 0 276.48 
L 852.48 276.48 
L 852.48 0 
L 0 0 
z
" style="fill: #ffffff"/>
  </g>
  <g id="axes_1">
   <g id="patch_2">
    <path d="M 64.8632 221.9632 
L 845.28 221.9632 
L 845.28 7.2 
L 64.8632 7.2 
z
" style="fill: #ffffff"/>
   </g>
   <g id="PolyCollection_1">
    <defs>
     <path id="m1e64ec54ac" d="M 100.336691 -259.518036 
L 100.336691 -220.667492 
L 114.815667 -212.076043 
L 129.294643 -207.463445 
L 143.773619 -204.052122 
L 158.252594 -201.430738 
L 172.73157 -197.030163 
L 187.210546 -195.764564 
L 201.689522 -194.398828 
L 216.168498 -193.430244 
L 230.647474 -193.223758 
L 245.12645 -192.349394 
L 259.605426 -192.63753 
L 274.084401 -191.444491 
L 288.563377 -192.64874 
L 303.042353 -190.420989 
L 317.521329 -189.716233 
L 332.000305 -190.127356 
L 346.479281 -192.260483 
L 360.958257 -190.691538 
L 375.437233 -190.564493 
L 389.916209 -187.711173 
L 404.395184 -190.687168 
L 418.87416 -191.170673 
L 433.353136 -190.92686 
L 447.832112 -188.51484 
L 462.311088 -192.147402 
L 476.790064 -191.973219 
L 491.26904 -188.265817 
L 505.748016 -190.089444 
L 520.226991 -190.849402 
L 534.705967 -190.734889 
L 549.184943 -189.740223 
L 563.663919 -191.090241 
L 578.142895 -189.119137 
L 592.621871 -192.023639 
L 607.100847 -191.015027 
L 621.579823 -189.200179 
L 636.058799 -189.028976 
L 650.537774 -189.789474 
L 665.01675 -191.631919 
L 679.495726 -192.825754 
L 693.974702 -190.489056 
L 708.453678 -189.271719 
L 722.932654 -193.06075 
L 737.41163 -195.16795 
L 751.890606 -191.312224 
L 766.369581 -193.242107 
L 780.848557 -193.534522 
L 795.327533 -193.998463 
L 809.806509 -192.209053 
L 809.806509 -244.501691 
L 809.806509 -244.501691 
L 795.327533 -246.482226 
L 780.848557 -243.825948 
L 766.369581 -244.213223 
L 751.890606 -244.723194 
L 737.41163 -243.291029 
L 722.932654 -244.620911 
L 708.453678 -246.018624 
L 693.974702 -245.990522 
L 679.495726 -246.768654 
L 665.01675 -246.248429 
L 650.537774 -246.287174 
L 636.058799 -245.085303 
L 621.579823 -246.985229 
L 607.100847 -246.535321 
L 592.621871 -245.424606 
L 578.142895 -248.079224 
L 563.663919 -246.896597 
L 549.184943 -246.461022 
L 534.705967 -247.913841 
L 520.226991 -249.783951 
L 505.748016 -248.866834 
L 491.26904 -248.033178 
L 476.790064 -247.025067 
L 462.311088 -249.313273 
L 447.832112 -250.971723 
L 433.353136 -248.404602 
L 418.87416 -248.732931 
L 404.395184 -249.163036 
L 389.916209 -247.896619 
L 375.437233 -246.881946 
L 360.958257 -250.334427 
L 346.479281 -248.957552 
L 332.000305 -246.854017 
L 317.521329 -249.088734 
L 303.042353 -247.558851 
L 288.563377 -245.945804 
L 274.084401 -245.83626 
L 259.605426 -247.18559 
L 245.12645 -246.17351 
L 230.647474 -246.322118 
L 216.168498 -243.137114 
L 201.689522 -241.636794 
L 187.210546 -242.796591 
L 172.73157 -242.874221 
L 158.252594 -242.298365 
L 143.773619 -245.960233 
L 129.294643 -246.45921 
L 114.815667 -251.270545 
L 100.336691 -259.518036 
z
" style="stroke: #002040; stroke-opacity: 0.2; stroke-width: 2.5"/>
    </defs>
    <g clip-path="url(#p0b400208c8)">
     <use xlink:href="#m1e64ec54ac" x="0" y="276.48" style="fill: #002040; fill-opacity: 0.2; stroke: #002040; stroke-opacity: 0.2; stroke-width: 2.5"/>
    </g>
   </g>
   <g id="PolyCollection_2">
    <defs>
     <path id="m3068610fd6" d="M 100.336691 -116.514988 
L 100.336691 -99.517905 
L 114.815667 -95.890939 
L 129.294643 -93.563761 
L 143.773619 -91.832568 
L 158.252594 -90.989373 
L 172.73157 -90.045199 
L 187.210546 -89.727297 
L 201.689522 -88.086774 
L 216.168498 -87.383486 
L 230.647474 -86.833053 
L 245.12645 -86.161936 
L 259.605426 -86.180878 
L 274.084401 -85.358422 
L 288.563377 -84.817289 
L 303.042353 -84.02022 
L 317.521329 -82.819986 
L 332.000305 -83.457232 
L 346.479281 -82.513388 
L 360.958257 -82.223333 
L 375.437233 -81.726532 
L 389.916209 -80.744918 
L 404.395184 -78.998651 
L 418.87416 -78.1018 
L 433.353136 -77.243759 
L 447.832112 -72.854837 
L 462.311088 -73.011872 
L 476.790064 -72.624472 
L 491.26904 -73.412465 
L 505.748016 -73.728967 
L 520.226991 -74.092776 
L 534.705967 -75.414982 
L 549.184943 -75.946806 
L 563.663919 -76.529903 
L 578.142895 -76.489474 
L 592.621871 -76.686014 
L 607.100847 -77.05162 
L 621.579823 -76.064907 
L 636.058799 -72.670258 
L 650.537774 -68.611454 
L 665.01675 -68.252516 
L 679.495726 -67.437774 
L 693.974702 -67.09332 
L 708.453678 -66.587353 
L 722.932654 -66.356196 
L 737.41163 -65.925922 
L 751.890606 -65.519893 
L 766.369581 -64.853628 
L 780.848557 -64.278764 
L 795.327533 -65.708527 
L 809.806509 -65.21037 
L 809.806509 -112.367688 
L 809.806509 -112.367688 
L 795.327533 -111.126957 
L 780.848557 -113.148169 
L 766.369581 -111.700125 
L 751.890606 -108.116623 
L 737.41163 -108.937194 
L 722.932654 -108.996336 
L 708.453678 -107.874533 
L 693.974702 -106.807538 
L 679.495726 -106.810361 
L 665.01675 -107.17298 
L 650.537774 -106.15111 
L 636.058799 -99.789155 
L 621.579823 -94.465982 
L 607.100847 -94.892257 
L 592.621871 -94.256508 
L 578.142895 -96.750174 
L 563.663919 -96.971356 
L 549.184943 -99.124919 
L 534.705967 -100.812492 
L 520.226991 -102.150652 
L 505.748016 -103.519885 
L 491.26904 -105.566328 
L 476.790064 -106.943134 
L 462.311088 -109.81545 
L 447.832112 -109.300575 
L 433.353136 -106.708756 
L 418.87416 -102.674369 
L 404.395184 -103.285331 
L 389.916209 -97.279914 
L 375.437233 -97.675625 
L 360.958257 -98.360644 
L 346.479281 -98.083001 
L 332.000305 -98.571986 
L 317.521329 -101.209703 
L 303.042353 -99.472901 
L 288.563377 -100.573576 
L 274.084401 -100.827074 
L 259.605426 -100.861147 
L 245.12645 -103.809827 
L 230.647474 -102.47591 
L 216.168498 -103.66587 
L 201.689522 -106.273573 
L 187.210546 -106.089329 
L 172.73157 -107.094528 
L 158.252594 -105.834827 
L 143.773619 -109.166707 
L 129.294643 -110.192024 
L 114.815667 -112.953075 
L 100.336691 -116.514988 
z
" style="stroke: #004080; stroke-opacity: 0.2; stroke-width: 2.5"/>
    </defs>
    <g clip-path="url(#p0b400208c8)">
     <use xlink:href="#m3068610fd6" x="0" y="276.48" style="fill: #004080; fill-opacity: 0.2; stroke: #004080; stroke-opacity: 0.2; stroke-width: 2.5"/>
    </g>
   </g>
   <g id="PolyCollection_3">
    <defs>
     <path id="m4ff0ef3b93" d="M 100.336691 -159.060992 
L 100.336691 -128.228573 
L 114.815667 -112.840381 
L 129.294643 -101.69908 
L 143.773619 -94.202324 
L 158.252594 -92.451607 
L 172.73157 -94.428755 
L 187.210546 -90.760544 
L 201.689522 -90.796898 
L 216.168498 -89.949531 
L 230.647474 -91.301778 
L 245.12645 -89.089679 
L 259.605426 -87.139061 
L 274.084401 -89.155261 
L 288.563377 -88.103809 
L 303.042353 -86.921446 
L 317.521329 -86.37243 
L 332.000305 -87.739081 
L 346.479281 -84.644718 
L 360.958257 -83.013688 
L 375.437233 -83.931316 
L 389.916209 -84.97924 
L 404.395184 -84.996034 
L 418.87416 -85.072049 
L 433.353136 -85.453949 
L 447.832112 -84.018561 
L 462.311088 -79.398701 
L 476.790064 -82.438187 
L 491.26904 -79.111814 
L 505.748016 -80.479413 
L 520.226991 -81.68478 
L 534.705967 -82.77971 
L 549.184943 -80.14689 
L 563.663919 -82.912344 
L 578.142895 -79.781769 
L 592.621871 -79.174723 
L 607.100847 -78.66161 
L 621.579823 -78.38524 
L 636.058799 -83.291211 
L 650.537774 -77.975596 
L 665.01675 -77.865427 
L 679.495726 -76.008626 
L 693.974702 -75.970131 
L 708.453678 -75.90014 
L 722.932654 -72.730643 
L 737.41163 -77.075297 
L 751.890606 -72.794784 
L 766.369581 -74.631588 
L 780.848557 -74.541729 
L 795.327533 -76.447848 
L 809.806509 -74.682379 
L 809.806509 -106.731288 
L 809.806509 -106.731288 
L 795.327533 -108.705653 
L 780.848557 -109.168583 
L 766.369581 -109.727266 
L 751.890606 -108.735008 
L 737.41163 -111.17617 
L 722.932654 -111.364842 
L 708.453678 -111.995936 
L 693.974702 -111.417018 
L 679.495726 -112.062849 
L 665.01675 -114.69798 
L 650.537774 -114.17748 
L 636.058799 -114.546776 
L 621.579823 -113.167298 
L 607.100847 -114.73639 
L 592.621871 -115.146177 
L 578.142895 -117.608493 
L 563.663919 -116.084234 
L 549.184943 -117.874253 
L 534.705967 -117.106483 
L 520.226991 -116.788883 
L 505.748016 -116.617187 
L 491.26904 -116.952921 
L 476.790064 -119.284146 
L 462.311088 -118.573689 
L 447.832112 -119.279334 
L 433.353136 -118.274656 
L 418.87416 -118.769141 
L 404.395184 -118.505755 
L 389.916209 -117.571135 
L 375.437233 -119.410164 
L 360.958257 -118.571928 
L 346.479281 -119.269016 
L 332.000305 -119.096955 
L 317.521329 -121.426463 
L 303.042353 -120.742919 
L 288.563377 -121.525008 
L 274.084401 -121.224907 
L 259.605426 -121.865566 
L 245.12645 -122.971625 
L 230.647474 -124.272229 
L 216.168498 -125.503792 
L 201.689522 -126.757917 
L 187.210546 -129.157122 
L 172.73157 -134.211112 
L 158.252594 -136.928504 
L 143.773619 -139.145079 
L 129.294643 -144.561947 
L 114.815667 -154.103589 
L 100.336691 -159.060992 
z
" style="stroke: #42a0c0; stroke-opacity: 0.2; stroke-width: 2.5"/>
    </defs>
    <g clip-path="url(#p0b400208c8)">
     <use xlink:href="#m4ff0ef3b93" x="0" y="276.48" style="fill: #42a0c0; fill-opacity: 0.2; stroke: #42a0c0; stroke-opacity: 0.2; stroke-width: 2.5"/>
    </g>
   </g>
   <g id="matplotlib.axis_1">
    <g id="xtick_1">
     <g id="line2d_1">
      <defs>
       <path id="md729f925b5" d="M 0 0 
L 0 8 
" style="stroke: #000000; stroke-width: 2"/>
      </defs>
      <g>
       <use xlink:href="#md729f925b5" x="100.336691" y="221.9632" style="stroke: #000000; stroke-width: 2"/>
      </g>
     </g>
     <g id="text_1">
      <!-- 0 -->
      <g transform="translate(95.532041 245.8319)scale(0.1728 -0.1728)">
       <defs>
        <path id="ArialMT-30" d="M 266 2259 
Q 266 3072 433 3567 
Q 600 4063 929 4331 
Q 1259 4600 1759 4600 
Q 2128 4600 2406 4451 
Q 2684 4303 2865 4023 
Q 3047 3744 3150 3342 
Q 3253 2941 3253 2259 
Q 3253 1453 3087 958 
Q 2922 463 2592 192 
Q 2263 -78 1759 -78 
Q 1097 -78 719 397 
Q 266 969 266 2259 
z
M 844 2259 
Q 844 1131 1108 757 
Q 1372 384 1759 384 
Q 2147 384 2411 759 
Q 2675 1134 2675 2259 
Q 2675 3391 2411 3762 
Q 2147 4134 1753 4134 
Q 1366 4134 1134 3806 
Q 844 3388 844 2259 
z
" transform="scale(0.015625)"/>
       </defs>
       <use xlink:href="#ArialMT-30"/>
      </g>
     </g>
    </g>
    <g id="xtick_2">
     <g id="line2d_2">
      <g>
       <use xlink:href="#md729f925b5" x="245.12645" y="221.9632" style="stroke: #000000; stroke-width: 2"/>
      </g>
     </g>
     <g id="text_2">
      <!-- 10 -->
      <g transform="translate(235.51715 245.8319)scale(0.1728 -0.1728)">
       <defs>
        <path id="ArialMT-31" d="M 2384 0 
L 1822 0 
L 1822 3584 
Q 1619 3391 1289 3197 
Q 959 3003 697 2906 
L 697 3450 
Q 1169 3672 1522 3987 
Q 1875 4303 2022 4600 
L 2384 4600 
L 2384 0 
z
" transform="scale(0.015625)"/>
       </defs>
       <use xlink:href="#ArialMT-31"/>
       <use xlink:href="#ArialMT-30" x="55.615234"/>
      </g>
     </g>
    </g>
    <g id="xtick_3">
     <g id="line2d_3">
      <g>
       <use xlink:href="#md729f925b5" x="389.916209" y="221.9632" style="stroke: #000000; stroke-width: 2"/>
      </g>
     </g>
     <g id="text_3">
      <!-- 20 -->
      <g transform="translate(380.306909 245.8319)scale(0.1728 -0.1728)">
       <defs>
        <path id="ArialMT-32" d="M 3222 541 
L 3222 0 
L 194 0 
Q 188 203 259 391 
Q 375 700 629 1000 
Q 884 1300 1366 1694 
Q 2113 2306 2375 2664 
Q 2638 3022 2638 3341 
Q 2638 3675 2398 3904 
Q 2159 4134 1775 4134 
Q 1369 4134 1125 3890 
Q 881 3647 878 3216 
L 300 3275 
Q 359 3922 746 4261 
Q 1134 4600 1788 4600 
Q 2447 4600 2831 4234 
Q 3216 3869 3216 3328 
Q 3216 3053 3103 2787 
Q 2991 2522 2730 2228 
Q 2469 1934 1863 1422 
Q 1356 997 1212 845 
Q 1069 694 975 541 
L 3222 541 
z
" transform="scale(0.015625)"/>
       </defs>
       <use xlink:href="#ArialMT-32"/>
       <use xlink:href="#ArialMT-30" x="55.615234"/>
      </g>
     </g>
    </g>
    <g id="xtick_4">
     <g id="line2d_4">
      <g>
       <use xlink:href="#md729f925b5" x="534.705967" y="221.9632" style="stroke: #000000; stroke-width: 2"/>
      </g>
     </g>
     <g id="text_4">
      <!-- 30 -->
      <g transform="translate(525.096667 245.8319)scale(0.1728 -0.1728)">
       <defs>
        <path id="ArialMT-33" d="M 269 1209 
L 831 1284 
Q 928 806 1161 595 
Q 1394 384 1728 384 
Q 2125 384 2398 659 
Q 2672 934 2672 1341 
Q 2672 1728 2419 1979 
Q 2166 2231 1775 2231 
Q 1616 2231 1378 2169 
L 1441 2663 
Q 1497 2656 1531 2656 
Q 1891 2656 2178 2843 
Q 2466 3031 2466 3422 
Q 2466 3731 2256 3934 
Q 2047 4138 1716 4138 
Q 1388 4138 1169 3931 
Q 950 3725 888 3313 
L 325 3413 
Q 428 3978 793 4289 
Q 1159 4600 1703 4600 
Q 2078 4600 2393 4439 
Q 2709 4278 2876 4000 
Q 3044 3722 3044 3409 
Q 3044 3113 2884 2869 
Q 2725 2625 2413 2481 
Q 2819 2388 3044 2092 
Q 3269 1797 3269 1353 
Q 3269 753 2831 336 
Q 2394 -81 1725 -81 
Q 1122 -81 723 278 
Q 325 638 269 1209 
z
" transform="scale(0.015625)"/>
       </defs>
       <use xlink:href="#ArialMT-33"/>
       <use xlink:href="#ArialMT-30" x="55.615234"/>
      </g>
     </g>
    </g>
    <g id="xtick_5">
     <g id="line2d_5">
      <g>
       <use xlink:href="#md729f925b5" x="679.495726" y="221.9632" style="stroke: #000000; stroke-width: 2"/>
      </g>
     </g>
     <g id="text_5">
      <!-- 40 -->
      <g transform="translate(669.886426 245.8319)scale(0.1728 -0.1728)">
       <defs>
        <path id="ArialMT-34" d="M 2069 0 
L 2069 1097 
L 81 1097 
L 81 1613 
L 2172 4581 
L 2631 4581 
L 2631 1613 
L 3250 1613 
L 3250 1097 
L 2631 1097 
L 2631 0 
L 2069 0 
z
M 2069 1613 
L 2069 3678 
L 634 1613 
L 2069 1613 
z
" transform="scale(0.015625)"/>
       </defs>
       <use xlink:href="#ArialMT-34"/>
       <use xlink:href="#ArialMT-30" x="55.615234"/>
      </g>
     </g>
    </g>
    <g id="xtick_6">
     <g id="line2d_6">
      <g>
       <use xlink:href="#md729f925b5" x="824.285485" y="221.9632" style="stroke: #000000; stroke-width: 2"/>
      </g>
     </g>
     <g id="text_6">
      <!-- 50 -->
      <g transform="translate(814.676185 245.8319)scale(0.1728 -0.1728)">
       <defs>
        <path id="ArialMT-35" d="M 266 1200 
L 856 1250 
Q 922 819 1161 601 
Q 1400 384 1738 384 
Q 2144 384 2425 690 
Q 2706 997 2706 1503 
Q 2706 1984 2436 2262 
Q 2166 2541 1728 2541 
Q 1456 2541 1237 2417 
Q 1019 2294 894 2097 
L 366 2166 
L 809 4519 
L 3088 4519 
L 3088 3981 
L 1259 3981 
L 1013 2750 
Q 1425 3038 1878 3038 
Q 2478 3038 2890 2622 
Q 3303 2206 3303 1553 
Q 3303 931 2941 478 
Q 2500 -78 1738 -78 
Q 1113 -78 717 272 
Q 322 622 266 1200 
z
" transform="scale(0.015625)"/>
       </defs>
       <use xlink:href="#ArialMT-35"/>
       <use xlink:href="#ArialMT-30" x="55.615234"/>
      </g>
     </g>
    </g>
    <g id="text_7">
     <!-- Step -->
     <g transform="translate(437.29885 265.8456)scale(0.1728 -0.1728)">
      <defs>
       <path id="ArialMT-53" d="M 288 1472 
L 859 1522 
Q 900 1178 1048 958 
Q 1197 738 1509 602 
Q 1822 466 2213 466 
Q 2559 466 2825 569 
Q 3091 672 3220 851 
Q 3350 1031 3350 1244 
Q 3350 1459 3225 1620 
Q 3100 1781 2813 1891 
Q 2628 1963 1997 2114 
Q 1366 2266 1113 2400 
Q 784 2572 623 2826 
Q 463 3081 463 3397 
Q 463 3744 659 4045 
Q 856 4347 1234 4503 
Q 1613 4659 2075 4659 
Q 2584 4659 2973 4495 
Q 3363 4331 3572 4012 
Q 3781 3694 3797 3291 
L 3216 3247 
Q 3169 3681 2898 3903 
Q 2628 4125 2100 4125 
Q 1550 4125 1298 3923 
Q 1047 3722 1047 3438 
Q 1047 3191 1225 3031 
Q 1400 2872 2139 2705 
Q 2878 2538 3153 2413 
Q 3553 2228 3743 1945 
Q 3934 1663 3934 1294 
Q 3934 928 3725 604 
Q 3516 281 3123 101 
Q 2731 -78 2241 -78 
Q 1619 -78 1198 103 
Q 778 284 539 648 
Q 300 1013 288 1472 
z
" transform="scale(0.015625)"/>
       <path id="ArialMT-74" d="M 1650 503 
L 1731 6 
Q 1494 -44 1306 -44 
Q 1000 -44 831 53 
Q 663 150 594 308 
Q 525 466 525 972 
L 525 2881 
L 113 2881 
L 113 3319 
L 525 3319 
L 525 4141 
L 1084 4478 
L 1084 3319 
L 1650 3319 
L 1650 2881 
L 1084 2881 
L 1084 941 
Q 1084 700 1114 631 
Q 1144 563 1211 522 
Q 1278 481 1403 481 
Q 1497 481 1650 503 
z
" transform="scale(0.015625)"/>
       <path id="ArialMT-65" d="M 2694 1069 
L 3275 997 
Q 3138 488 2766 206 
Q 2394 -75 1816 -75 
Q 1088 -75 661 373 
Q 234 822 234 1631 
Q 234 2469 665 2931 
Q 1097 3394 1784 3394 
Q 2450 3394 2872 2941 
Q 3294 2488 3294 1666 
Q 3294 1616 3291 1516 
L 816 1516 
Q 847 969 1125 678 
Q 1403 388 1819 388 
Q 2128 388 2347 550 
Q 2566 713 2694 1069 
z
M 847 1978 
L 2700 1978 
Q 2663 2397 2488 2606 
Q 2219 2931 1791 2931 
Q 1403 2931 1139 2672 
Q 875 2413 847 1978 
z
" transform="scale(0.015625)"/>
       <path id="ArialMT-70" d="M 422 -1272 
L 422 3319 
L 934 3319 
L 934 2888 
Q 1116 3141 1344 3267 
Q 1572 3394 1897 3394 
Q 2322 3394 2647 3175 
Q 2972 2956 3137 2557 
Q 3303 2159 3303 1684 
Q 3303 1175 3120 767 
Q 2938 359 2589 142 
Q 2241 -75 1856 -75 
Q 1575 -75 1351 44 
Q 1128 163 984 344 
L 984 -1272 
L 422 -1272 
z
M 931 1641 
Q 931 1000 1190 694 
Q 1450 388 1819 388 
Q 2194 388 2461 705 
Q 2728 1022 2728 1688 
Q 2728 2322 2467 2637 
Q 2206 2953 1844 2953 
Q 1484 2953 1207 2617 
Q 931 2281 931 1641 
z
" transform="scale(0.015625)"/>
      </defs>
      <use xlink:href="#ArialMT-53"/>
      <use xlink:href="#ArialMT-74" x="66.699219"/>
      <use xlink:href="#ArialMT-65" x="94.482422"/>
      <use xlink:href="#ArialMT-70" x="150.097656"/>
     </g>
    </g>
   </g>
   <g id="matplotlib.axis_2">
    <g id="ytick_1">
     <g id="line2d_7">
      <defs>
       <path id="m7f0ecc5adf" d="M 0 0 
L -8 0 
" style="stroke: #000000; stroke-width: 2"/>
      </defs>
      <g>
       <use xlink:href="#m7f0ecc5adf" x="64.8632" y="192.67583" style="stroke: #000000; stroke-width: 2"/>
      </g>
     </g>
     <g id="text_8">
      <!-- 0.2 -->
      <g transform="translate(29.344 198.86018)scale(0.1728 -0.1728)">
       <defs>
        <path id="ArialMT-2e" d="M 581 0 
L 581 641 
L 1222 641 
L 1222 0 
L 581 0 
z
" transform="scale(0.015625)"/>
       </defs>
       <use xlink:href="#ArialMT-30"/>
       <use xlink:href="#ArialMT-2e" x="55.615234"/>
       <use xlink:href="#ArialMT-32" x="83.398438"/>
      </g>
     </g>
    </g>
    <g id="ytick_2">
     <g id="line2d_8">
      <g>
       <use xlink:href="#m7f0ecc5adf" x="64.8632" y="130.072342" style="stroke: #000000; stroke-width: 2"/>
      </g>
     </g>
     <g id="text_9">
      <!-- 0.3 -->
      <g transform="translate(29.344 136.256692)scale(0.1728 -0.1728)">
       <use xlink:href="#ArialMT-30"/>
       <use xlink:href="#ArialMT-2e" x="55.615234"/>
       <use xlink:href="#ArialMT-33" x="83.398438"/>
      </g>
     </g>
    </g>
    <g id="ytick_3">
     <g id="line2d_9">
      <g>
       <use xlink:href="#m7f0ecc5adf" x="64.8632" y="67.468855" style="stroke: #000000; stroke-width: 2"/>
      </g>
     </g>
     <g id="text_10">
      <!-- 0.4 -->
      <g transform="translate(29.344 73.653205)scale(0.1728 -0.1728)">
       <use xlink:href="#ArialMT-30"/>
       <use xlink:href="#ArialMT-2e" x="55.615234"/>
       <use xlink:href="#ArialMT-34" x="83.398438"/>
      </g>
     </g>
    </g>
    <g id="text_11">
     <!-- Gradient Alignment to LN$^+$ -->
     <g transform="translate(21.5424 219.3848)rotate(-90)scale(0.1728 -0.1728)">
      <defs>
       <path id="ArialMT-47" d="M 2638 1797 
L 2638 2334 
L 4578 2338 
L 4578 638 
Q 4131 281 3656 101 
Q 3181 -78 2681 -78 
Q 2006 -78 1454 211 
Q 903 500 622 1047 
Q 341 1594 341 2269 
Q 341 2938 620 3517 
Q 900 4097 1425 4378 
Q 1950 4659 2634 4659 
Q 3131 4659 3532 4498 
Q 3934 4338 4162 4050 
Q 4391 3763 4509 3300 
L 3963 3150 
Q 3859 3500 3706 3700 
Q 3553 3900 3268 4020 
Q 2984 4141 2638 4141 
Q 2222 4141 1919 4014 
Q 1616 3888 1430 3681 
Q 1244 3475 1141 3228 
Q 966 2803 966 2306 
Q 966 1694 1177 1281 
Q 1388 869 1791 669 
Q 2194 469 2647 469 
Q 3041 469 3416 620 
Q 3791 772 3984 944 
L 3984 1797 
L 2638 1797 
z
" transform="scale(0.015625)"/>
       <path id="ArialMT-72" d="M 416 0 
L 416 3319 
L 922 3319 
L 922 2816 
Q 1116 3169 1280 3281 
Q 1444 3394 1641 3394 
Q 1925 3394 2219 3213 
L 2025 2691 
Q 1819 2813 1613 2813 
Q 1428 2813 1281 2702 
Q 1134 2591 1072 2394 
Q 978 2094 978 1738 
L 978 0 
L 416 0 
z
" transform="scale(0.015625)"/>
       <path id="ArialMT-61" d="M 2588 409 
Q 2275 144 1986 34 
Q 1697 -75 1366 -75 
Q 819 -75 525 192 
Q 231 459 231 875 
Q 231 1119 342 1320 
Q 453 1522 633 1644 
Q 813 1766 1038 1828 
Q 1203 1872 1538 1913 
Q 2219 1994 2541 2106 
Q 2544 2222 2544 2253 
Q 2544 2597 2384 2738 
Q 2169 2928 1744 2928 
Q 1347 2928 1158 2789 
Q 969 2650 878 2297 
L 328 2372 
Q 403 2725 575 2942 
Q 747 3159 1072 3276 
Q 1397 3394 1825 3394 
Q 2250 3394 2515 3294 
Q 2781 3194 2906 3042 
Q 3031 2891 3081 2659 
Q 3109 2516 3109 2141 
L 3109 1391 
Q 3109 606 3145 398 
Q 3181 191 3288 0 
L 2700 0 
Q 2613 175 2588 409 
z
M 2541 1666 
Q 2234 1541 1622 1453 
Q 1275 1403 1131 1340 
Q 988 1278 909 1158 
Q 831 1038 831 891 
Q 831 666 1001 516 
Q 1172 366 1500 366 
Q 1825 366 2078 508 
Q 2331 650 2450 897 
Q 2541 1088 2541 1459 
L 2541 1666 
z
" transform="scale(0.015625)"/>
       <path id="ArialMT-64" d="M 2575 0 
L 2575 419 
Q 2259 -75 1647 -75 
Q 1250 -75 917 144 
Q 584 363 401 755 
Q 219 1147 219 1656 
Q 219 2153 384 2558 
Q 550 2963 881 3178 
Q 1213 3394 1622 3394 
Q 1922 3394 2156 3267 
Q 2391 3141 2538 2938 
L 2538 4581 
L 3097 4581 
L 3097 0 
L 2575 0 
z
M 797 1656 
Q 797 1019 1065 703 
Q 1334 388 1700 388 
Q 2069 388 2326 689 
Q 2584 991 2584 1609 
Q 2584 2291 2321 2609 
Q 2059 2928 1675 2928 
Q 1300 2928 1048 2622 
Q 797 2316 797 1656 
z
" transform="scale(0.015625)"/>
       <path id="ArialMT-69" d="M 425 3934 
L 425 4581 
L 988 4581 
L 988 3934 
L 425 3934 
z
M 425 0 
L 425 3319 
L 988 3319 
L 988 0 
L 425 0 
z
" transform="scale(0.015625)"/>
       <path id="ArialMT-6e" d="M 422 0 
L 422 3319 
L 928 3319 
L 928 2847 
Q 1294 3394 1984 3394 
Q 2284 3394 2536 3286 
Q 2788 3178 2913 3003 
Q 3038 2828 3088 2588 
Q 3119 2431 3119 2041 
L 3119 0 
L 2556 0 
L 2556 2019 
Q 2556 2363 2490 2533 
Q 2425 2703 2258 2804 
Q 2091 2906 1866 2906 
Q 1506 2906 1245 2678 
Q 984 2450 984 1813 
L 984 0 
L 422 0 
z
" transform="scale(0.015625)"/>
       <path id="ArialMT-20" transform="scale(0.015625)"/>
       <path id="ArialMT-41" d="M -9 0 
L 1750 4581 
L 2403 4581 
L 4278 0 
L 3588 0 
L 3053 1388 
L 1138 1388 
L 634 0 
L -9 0 
z
M 1313 1881 
L 2866 1881 
L 2388 3150 
Q 2169 3728 2063 4100 
Q 1975 3659 1816 3225 
L 1313 1881 
z
" transform="scale(0.015625)"/>
       <path id="ArialMT-6c" d="M 409 0 
L 409 4581 
L 972 4581 
L 972 0 
L 409 0 
z
" transform="scale(0.015625)"/>
       <path id="ArialMT-67" d="M 319 -275 
L 866 -356 
Q 900 -609 1056 -725 
Q 1266 -881 1628 -881 
Q 2019 -881 2231 -725 
Q 2444 -569 2519 -288 
Q 2563 -116 2559 434 
Q 2191 0 1641 0 
Q 956 0 581 494 
Q 206 988 206 1678 
Q 206 2153 378 2554 
Q 550 2956 876 3175 
Q 1203 3394 1644 3394 
Q 2231 3394 2613 2919 
L 2613 3319 
L 3131 3319 
L 3131 450 
Q 3131 -325 2973 -648 
Q 2816 -972 2473 -1159 
Q 2131 -1347 1631 -1347 
Q 1038 -1347 672 -1080 
Q 306 -813 319 -275 
z
M 784 1719 
Q 784 1066 1043 766 
Q 1303 466 1694 466 
Q 2081 466 2343 764 
Q 2606 1063 2606 1700 
Q 2606 2309 2336 2618 
Q 2066 2928 1684 2928 
Q 1309 2928 1046 2623 
Q 784 2319 784 1719 
z
" transform="scale(0.015625)"/>
       <path id="ArialMT-6d" d="M 422 0 
L 422 3319 
L 925 3319 
L 925 2853 
Q 1081 3097 1340 3245 
Q 1600 3394 1931 3394 
Q 2300 3394 2536 3241 
Q 2772 3088 2869 2813 
Q 3263 3394 3894 3394 
Q 4388 3394 4653 3120 
Q 4919 2847 4919 2278 
L 4919 0 
L 4359 0 
L 4359 2091 
Q 4359 2428 4304 2576 
Q 4250 2725 4106 2815 
Q 3963 2906 3769 2906 
Q 3419 2906 3187 2673 
Q 2956 2441 2956 1928 
L 2956 0 
L 2394 0 
L 2394 2156 
Q 2394 2531 2256 2718 
Q 2119 2906 1806 2906 
Q 1569 2906 1367 2781 
Q 1166 2656 1075 2415 
Q 984 2175 984 1722 
L 984 0 
L 422 0 
z
" transform="scale(0.015625)"/>
       <path id="ArialMT-6f" d="M 213 1659 
Q 213 2581 725 3025 
Q 1153 3394 1769 3394 
Q 2453 3394 2887 2945 
Q 3322 2497 3322 1706 
Q 3322 1066 3130 698 
Q 2938 331 2570 128 
Q 2203 -75 1769 -75 
Q 1072 -75 642 372 
Q 213 819 213 1659 
z
M 791 1659 
Q 791 1022 1069 705 
Q 1347 388 1769 388 
Q 2188 388 2466 706 
Q 2744 1025 2744 1678 
Q 2744 2294 2464 2611 
Q 2184 2928 1769 2928 
Q 1347 2928 1069 2612 
Q 791 2297 791 1659 
z
" transform="scale(0.015625)"/>
       <path id="ArialMT-4c" d="M 469 0 
L 469 4581 
L 1075 4581 
L 1075 541 
L 3331 541 
L 3331 0 
L 469 0 
z
" transform="scale(0.015625)"/>
       <path id="ArialMT-4e" d="M 488 0 
L 488 4581 
L 1109 4581 
L 3516 984 
L 3516 4581 
L 4097 4581 
L 4097 0 
L 3475 0 
L 1069 3600 
L 1069 0 
L 488 0 
z
" transform="scale(0.015625)"/>
       <path id="DejaVuSans-2b" d="M 2944 4013 
L 2944 2272 
L 4684 2272 
L 4684 1741 
L 2944 1741 
L 2944 0 
L 2419 0 
L 2419 1741 
L 678 1741 
L 678 2272 
L 2419 2272 
L 2419 4013 
L 2944 4013 
z
" transform="scale(0.015625)"/>
      </defs>
      <use xlink:href="#ArialMT-47" transform="translate(0 0.826562)"/>
      <use xlink:href="#ArialMT-72" transform="translate(77.783203 0.826562)"/>
      <use xlink:href="#ArialMT-61" transform="translate(111.083984 0.826562)"/>
      <use xlink:href="#ArialMT-64" transform="translate(166.699219 0.826562)"/>
      <use xlink:href="#ArialMT-69" transform="translate(222.314453 0.826562)"/>
      <use xlink:href="#ArialMT-65" transform="translate(244.53125 0.826562)"/>
      <use xlink:href="#ArialMT-6e" transform="translate(300.146484 0.826562)"/>
      <use xlink:href="#ArialMT-74" transform="translate(355.761719 0.826562)"/>
      <use xlink:href="#ArialMT-20" transform="translate(383.544922 0.826562)"/>
      <use xlink:href="#ArialMT-41" transform="translate(411.328125 0.826562)"/>
      <use xlink:href="#ArialMT-6c" transform="translate(478.027344 0.826562)"/>
      <use xlink:href="#ArialMT-69" transform="translate(500.244141 0.826562)"/>
      <use xlink:href="#ArialMT-67" transform="translate(522.460938 0.826562)"/>
      <use xlink:href="#ArialMT-6e" transform="translate(578.076172 0.826562)"/>
      <use xlink:href="#ArialMT-6d" transform="translate(633.691406 0.826562)"/>
      <use xlink:href="#ArialMT-65" transform="translate(716.992188 0.826562)"/>
      <use xlink:href="#ArialMT-6e" transform="translate(772.607422 0.826562)"/>
      <use xlink:href="#ArialMT-74" transform="translate(828.222656 0.826562)"/>
      <use xlink:href="#ArialMT-20" transform="translate(856.005859 0.826562)"/>
      <use xlink:href="#ArialMT-74" transform="translate(883.789062 0.826562)"/>
      <use xlink:href="#ArialMT-6f" transform="translate(911.572266 0.826562)"/>
      <use xlink:href="#ArialMT-20" transform="translate(967.1875 0.826562)"/>
      <use xlink:href="#ArialMT-4c" transform="translate(994.970703 0.826562)"/>
      <use xlink:href="#ArialMT-4e" transform="translate(1050.585938 0.826562)"/>
      <use xlink:href="#DejaVuSans-2b" transform="translate(1137.397461 39.107812)scale(0.7)"/>
     </g>
    </g>
   </g>
   <g id="line2d_10">
    <path d="M 100.336691 36.387236 
L 114.815667 44.806706 
L 129.294643 49.518673 
L 143.773619 51.473823 
L 158.252594 54.615448 
L 172.73157 56.527808 
L 187.210546 57.199422 
L 201.689522 58.462189 
L 216.168498 58.196321 
L 230.647474 56.707062 
L 245.12645 57.218548 
L 259.605426 56.56844 
L 274.084401 57.839625 
L 288.563377 57.182728 
L 303.042353 57.49008 
L 317.521329 57.077516 
L 332.000305 57.989314 
L 346.479281 55.870982 
L 360.958257 55.967018 
L 375.437233 57.756781 
L 389.916209 58.676104 
L 404.395184 56.554898 
L 418.87416 56.528198 
L 433.353136 56.814269 
L 447.832112 56.736718 
L 462.311088 55.749662 
L 476.790064 56.980857 
L 491.26904 58.330503 
L 505.748016 57.001861 
L 520.226991 56.163324 
L 534.705967 57.155635 
L 549.184943 58.379378 
L 563.663919 57.486581 
L 578.142895 57.88082 
L 592.621871 57.755877 
L 607.100847 57.704826 
L 621.579823 58.387296 
L 636.058799 59.42286 
L 650.537774 58.441676 
L 665.01675 57.539826 
L 679.495726 56.682796 
L 693.974702 58.240211 
L 708.453678 58.834829 
L 722.932654 57.639169 
L 737.41163 57.25051 
L 751.890606 58.462291 
L 766.369581 57.752335 
L 780.848557 57.799765 
L 795.327533 56.239656 
L 809.806509 58.124628 
" clip-path="url(#p0b400208c8)" style="fill: none; stroke: #002040; stroke-width: 2.5; stroke-linecap: square"/>
   </g>
   <g id="line2d_11">
    <path d="M 100.336691 168.463554 
L 114.815667 172.057993 
L 129.294643 174.602107 
L 143.773619 175.980363 
L 158.252594 178.0679 
L 172.73157 177.910137 
L 187.210546 178.571687 
L 201.689522 179.299827 
L 216.168498 180.955322 
L 230.647474 181.825519 
L 245.12645 181.494118 
L 259.605426 182.958987 
L 274.084401 183.387252 
L 288.563377 183.784568 
L 303.042353 184.73344 
L 317.521329 184.465155 
L 332.000305 185.465391 
L 346.479281 186.181805 
L 360.958257 186.188011 
L 375.437233 186.778922 
L 389.916209 187.467584 
L 404.395184 185.338009 
L 418.87416 186.091915 
L 433.353136 184.503742 
L 447.832112 185.402294 
L 462.311088 185.066339 
L 476.790064 186.696197 
L 491.26904 186.990603 
L 505.748016 187.855574 
L 520.226991 188.358286 
L 534.705967 188.366263 
L 549.184943 188.944137 
L 563.663919 189.72937 
L 578.142895 189.860176 
L 592.621871 191.008739 
L 607.100847 190.508061 
L 621.579823 191.214555 
L 636.058799 190.250293 
L 650.537774 189.098718 
L 665.01675 188.767252 
L 679.495726 189.355933 
L 693.974702 189.529571 
L 708.453678 189.249057 
L 722.932654 188.803734 
L 737.41163 189.048442 
L 751.890606 189.661742 
L 766.369581 188.203123 
L 780.848557 187.766534 
L 795.327533 188.062258 
L 809.806509 187.690971 
" clip-path="url(#p0b400208c8)" style="fill: none; stroke: #004080; stroke-width: 2.5; stroke-linecap: square"/>
   </g>
   <g id="line2d_12">
    <path d="M 100.336691 132.835218 
L 114.815667 143.008015 
L 129.294643 153.349487 
L 143.773619 159.806298 
L 158.252594 161.789945 
L 172.73157 162.160067 
L 187.210546 166.521167 
L 201.689522 167.702592 
L 216.168498 168.753338 
L 230.647474 168.692996 
L 245.12645 170.449348 
L 259.605426 171.977687 
L 274.084401 171.289916 
L 288.563377 171.665592 
L 303.042353 172.647817 
L 317.521329 172.580554 
L 332.000305 173.061982 
L 346.479281 174.523133 
L 360.958257 175.687192 
L 375.437233 174.80926 
L 389.916209 175.204812 
L 404.395184 174.729106 
L 418.87416 174.559405 
L 433.353136 174.615698 
L 447.832112 174.831052 
L 462.311088 177.493805 
L 476.790064 175.618834 
L 491.26904 178.447632 
L 505.748016 177.9317 
L 520.226991 177.243169 
L 534.705967 176.536903 
L 549.184943 177.469429 
L 563.663919 176.981711 
L 578.142895 177.784869 
L 592.621871 179.31955 
L 607.100847 179.781 
L 621.579823 180.703731 
L 636.058799 177.561006 
L 650.537774 180.403462 
L 665.01675 180.198296 
L 679.495726 182.444263 
L 693.974702 182.786425 
L 708.453678 182.531962 
L 722.932654 184.432257 
L 737.41163 182.354267 
L 751.890606 185.715104 
L 766.369581 184.300573 
L 780.848557 184.624844 
L 795.327533 183.903249 
L 809.806509 185.773167 
" clip-path="url(#p0b400208c8)" style="fill: none; stroke: #42a0c0; stroke-width: 2.5; stroke-linecap: square"/>
   </g>
   <g id="patch_3">
    <path d="M 64.8632 221.9632 
L 64.8632 7.2 
" style="fill: none; stroke: #000000; stroke-width: 1.5; stroke-linejoin: miter; stroke-linecap: square"/>
   </g>
   <g id="patch_4">
    <path d="M 64.8632 221.9632 
L 845.28 221.9632 
" style="fill: none; stroke: #000000; stroke-width: 1.5; stroke-linejoin: miter; stroke-linecap: square"/>
   </g>
   <g id="legend_1">
    <g id="patch_5">
     <path d="M 691.4448 153.83825 
L 833.184 153.83825 
Q 836.64 153.83825 836.64 150.38225 
L 836.64 78.78095 
Q 836.64 75.32495 833.184 75.32495 
L 691.4448 75.32495 
Q 687.9888 75.32495 687.9888 78.78095 
L 687.9888 150.38225 
Q 687.9888 153.83825 691.4448 153.83825 
z
" style="fill: #ffffff; opacity: 0.8; stroke: #cccccc; stroke-width: 2.5; stroke-linejoin: miter"/>
    </g>
    <g id="line2d_13">
     <path d="M 694.9008 88.55765 
L 712.1808 88.55765 
L 729.4608 88.55765 
" style="fill: none; stroke: #002040; stroke-width: 2.5; stroke-linecap: square"/>
    </g>
    <g id="text_12">
     <!-- center -->
     <g transform="translate(743.2848 94.60565)scale(0.1728 -0.1728)">
      <defs>
       <path id="ArialMT-63" d="M 2588 1216 
L 3141 1144 
Q 3050 572 2676 248 
Q 2303 -75 1759 -75 
Q 1078 -75 664 370 
Q 250 816 250 1647 
Q 250 2184 428 2587 
Q 606 2991 970 3192 
Q 1334 3394 1763 3394 
Q 2303 3394 2647 3120 
Q 2991 2847 3088 2344 
L 2541 2259 
Q 2463 2594 2264 2762 
Q 2066 2931 1784 2931 
Q 1359 2931 1093 2626 
Q 828 2322 828 1663 
Q 828 994 1084 691 
Q 1341 388 1753 388 
Q 2084 388 2306 591 
Q 2528 794 2588 1216 
z
" transform="scale(0.015625)"/>
      </defs>
      <use xlink:href="#ArialMT-63"/>
      <use xlink:href="#ArialMT-65" x="50"/>
      <use xlink:href="#ArialMT-6e" x="105.615234"/>
      <use xlink:href="#ArialMT-74" x="161.230469"/>
      <use xlink:href="#ArialMT-65" x="189.013672"/>
      <use xlink:href="#ArialMT-72" x="244.628906"/>
     </g>
    </g>
    <g id="line2d_14">
     <path d="M 694.9008 113.00075 
L 712.1808 113.00075 
L 729.4608 113.00075 
" style="fill: none; stroke: #004080; stroke-width: 2.5; stroke-linecap: square"/>
    </g>
    <g id="text_13">
     <!-- decorrelate -->
     <g transform="translate(743.2848 119.04875)scale(0.1728 -0.1728)">
      <use xlink:href="#ArialMT-64"/>
      <use xlink:href="#ArialMT-65" x="55.615234"/>
      <use xlink:href="#ArialMT-63" x="111.230469"/>
      <use xlink:href="#ArialMT-6f" x="161.230469"/>
      <use xlink:href="#ArialMT-72" x="216.845703"/>
      <use xlink:href="#ArialMT-72" x="250.146484"/>
      <use xlink:href="#ArialMT-65" x="283.447266"/>
      <use xlink:href="#ArialMT-6c" x="339.0625"/>
      <use xlink:href="#ArialMT-61" x="361.279297"/>
      <use xlink:href="#ArialMT-74" x="416.894531"/>
      <use xlink:href="#ArialMT-65" x="444.677734"/>
     </g>
    </g>
    <g id="line2d_15">
     <path d="M 694.9008 137.44385 
L 712.1808 137.44385 
L 729.4608 137.44385 
" style="fill: none; stroke: #42a0c0; stroke-width: 2.5; stroke-linecap: square"/>
    </g>
    <g id="text_14">
     <!-- scale -->
     <g transform="translate(743.2848 143.49185)scale(0.1728 -0.1728)">
      <defs>
       <path id="ArialMT-73" d="M 197 991 
L 753 1078 
Q 800 744 1014 566 
Q 1228 388 1613 388 
Q 2000 388 2187 545 
Q 2375 703 2375 916 
Q 2375 1106 2209 1216 
Q 2094 1291 1634 1406 
Q 1016 1563 777 1677 
Q 538 1791 414 1992 
Q 291 2194 291 2438 
Q 291 2659 392 2848 
Q 494 3038 669 3163 
Q 800 3259 1026 3326 
Q 1253 3394 1513 3394 
Q 1903 3394 2198 3281 
Q 2494 3169 2634 2976 
Q 2775 2784 2828 2463 
L 2278 2388 
Q 2241 2644 2061 2787 
Q 1881 2931 1553 2931 
Q 1166 2931 1000 2803 
Q 834 2675 834 2503 
Q 834 2394 903 2306 
Q 972 2216 1119 2156 
Q 1203 2125 1616 2013 
Q 2213 1853 2448 1751 
Q 2684 1650 2818 1456 
Q 2953 1263 2953 975 
Q 2953 694 2789 445 
Q 2625 197 2315 61 
Q 2006 -75 1616 -75 
Q 969 -75 630 194 
Q 291 463 197 991 
z
" transform="scale(0.015625)"/>
      </defs>
      <use xlink:href="#ArialMT-73"/>
      <use xlink:href="#ArialMT-63" x="50"/>
      <use xlink:href="#ArialMT-61" x="100"/>
      <use xlink:href="#ArialMT-6c" x="155.615234"/>
      <use xlink:href="#ArialMT-65" x="177.832031"/>
     </g>
    </g>
   </g>
  </g>
 </g>
 <defs>
  <clipPath id="p0b400208c8">
   <rect x="64.8632" y="7.2" width="780.4168" height="214.7632"/>
  </clipPath>
 </defs>
</svg>
