<?xml version="1.0" encoding="utf-8" standalone="no"?>
<!DOCTYPE svg PUBLIC "-//W3C//DTD SVG 1.1//EN"
  "http://www.w3.org/Graphics/SVG/1.1/DTD/svg11.dtd">
<svg xmlns:xlink="http://www.w3.org/1999/xlink" width="449.28pt" height="334.08pt" viewBox="0 0 449.28 334.08" xmlns="http://www.w3.org/2000/svg" version="1.1">
 <metadata>
  <rdf:RDF xmlns:dc="http://purl.org/dc/elements/1.1/" xmlns:cc="http://creativecommons.org/ns#" xmlns:rdf="http://www.w3.org/1999/02/22-rdf-syntax-ns#">
   <cc:Work>
    <dc:type rdf:resource="http://purl.org/dc/dcmitype/StillImage"/>
    <dc:date>2025-10-03T10:20:29.849018</dc:date>
    <dc:format>image/svg+xml</dc:format>
    <dc:creator>
     <cc:Agent>
      <dc:title>Matplotlib v3.5.3, https://matplotlib.org/</dc:title>
     </cc:Agent>
    </dc:creator>
   </cc:Work>
  </rdf:RDF>
 </metadata>
 <defs>
  <style type="text/css">*{stroke-linejoin: round; stroke-linecap: butt}</style>
 </defs>
 <g id="figure_1">
  <g id="patch_1">
   <path d="M 0 334.08 
L 449.28 334.08 
L 449.28 0 
L 0 0 
z
" style="fill: #ffffff"/>
  </g>
  <g id="axes_1">
   <g id="patch_2">
    <path d="M 64.8632 279.7738 
L 442.08 279.7738 
L 442.08 25.5687 
L 64.8632 25.5687 
z
" style="fill: #ffffff"/>
   </g>
   <g id="PolyCollection_1">
    <defs>
     <path id="m556ab6fbc3" d="M 82.009418 -296.956523 
L 82.009418 -296.616712 
L 89.007875 -296.205231 
L 96.006331 -296.036547 
L 103.004787 -295.692929 
L 110.003244 -293.399652 
L 117.0017 -293.057012 
L 124.000157 -292.8069 
L 130.998613 -293.022787 
L 137.997069 -293.025018 
L 144.995526 -293.565431 
L 151.993982 -293.306478 
L 158.992439 -293.565821 
L 165.990895 -293.996024 
L 172.989351 -293.834057 
L 179.987808 -294.387503 
L 186.986264 -294.83629 
L 193.984721 -295.145811 
L 200.983177 -295.352269 
L 207.981633 -295.616549 
L 214.98009 -295.662041 
L 221.978546 -295.759071 
L 228.977003 -295.748256 
L 235.975459 -295.695777 
L 242.973915 -295.722658 
L 249.972372 -295.724985 
L 256.970828 -295.673166 
L 263.969285 -295.587971 
L 270.967741 -295.518833 
L 277.966197 -295.403309 
L 284.964654 -295.34548 
L 291.96311 -295.247742 
L 298.961567 -295.174973 
L 305.960023 -295.089799 
L 312.958479 -295.000876 
L 319.956936 -294.966608 
L 326.955392 -294.782131 
L 333.953849 -294.507072 
L 340.952305 -294.480936 
L 347.950761 -294.292816 
L 354.949218 -294.170023 
L 361.947674 -293.999774 
L 368.946131 -293.806057 
L 375.944587 -293.572684 
L 382.943043 -293.158328 
L 389.9415 -292.942478 
L 396.939956 -292.80555 
L 403.938413 -292.497876 
L 410.936869 -292.739111 
L 417.935325 -291.846764 
L 424.933782 -292.275707 
L 424.933782 -296.937228 
L 424.933782 -296.937228 
L 417.935325 -296.938812 
L 410.936869 -296.939874 
L 403.938413 -296.938491 
L 396.939956 -296.938616 
L 389.9415 -296.940053 
L 382.943043 -296.940064 
L 375.944587 -296.939396 
L 368.946131 -296.939012 
L 361.947674 -296.93897 
L 354.949218 -296.939986 
L 347.950761 -296.940842 
L 340.952305 -296.940504 
L 333.953849 -296.941496 
L 326.955392 -296.941881 
L 319.956936 -296.942732 
L 312.958479 -296.943505 
L 305.960023 -296.943901 
L 298.961567 -296.943831 
L 291.96311 -296.944383 
L 284.964654 -296.944837 
L 277.966197 -296.945078 
L 270.967741 -296.945384 
L 263.969285 -296.945479 
L 256.970828 -296.945877 
L 249.972372 -296.945914 
L 242.973915 -296.945983 
L 235.975459 -296.946345 
L 228.977003 -296.946676 
L 221.978546 -296.946872 
L 214.98009 -296.946883 
L 207.981633 -296.947268 
L 200.983177 -296.947429 
L 193.984721 -296.94756 
L 186.986264 -296.947518 
L 179.987808 -296.947482 
L 172.989351 -296.946174 
L 165.990895 -296.947687 
L 158.992439 -296.946977 
L 151.993982 -296.945925 
L 144.995526 -296.948264 
L 137.997069 -296.946893 
L 130.998613 -296.949498 
L 124.000157 -296.950461 
L 117.0017 -296.952311 
L 110.003244 -296.953084 
L 103.004787 -296.953463 
L 96.006331 -296.954234 
L 89.007875 -296.955 
L 82.009418 -296.956523 
z
" style="stroke: #595c79; stroke-opacity: 0.15; stroke-width: 2.5"/>
    </defs>
    <g clip-path="url(#pe578205943)">
     <use xlink:href="#m556ab6fbc3" x="0" y="334.08" style="fill: #595c79; fill-opacity: 0.15; stroke: #595c79; stroke-opacity: 0.15; stroke-width: 2.5"/>
    </g>
   </g>
   <g id="PolyCollection_2">
    <defs>
     <path id="m90ff0a03ae" d="M 82.009418 -296.955762 
L 82.009418 -296.589572 
L 89.007875 -295.949014 
L 96.006331 -292.722679 
L 103.004787 -292.43578 
L 110.003244 -292.675784 
L 117.0017 -292.549718 
L 124.000157 -292.556828 
L 130.998613 -293.019201 
L 137.997069 -293.508668 
L 144.995526 -293.686574 
L 151.993982 -293.908947 
L 158.992439 -294.629874 
L 165.990895 -294.994131 
L 172.989351 -295.460115 
L 179.987808 -295.567547 
L 186.986264 -295.374768 
L 193.984721 -295.829019 
L 200.983177 -295.766779 
L 207.981633 -295.552682 
L 214.98009 -295.76835 
L 221.978546 -295.40221 
L 228.977003 -295.247318 
L 235.975459 -295.23158 
L 242.973915 -295.234759 
L 249.972372 -294.967743 
L 256.970828 -295.317004 
L 263.969285 -295.14653 
L 270.967741 -294.928851 
L 277.966197 -294.773113 
L 284.964654 -294.576213 
L 291.96311 -294.449239 
L 298.961567 -294.057938 
L 305.960023 -294.497044 
L 312.958479 -293.800389 
L 319.956936 -294.274514 
L 326.955392 -293.549769 
L 333.953849 -293.711514 
L 340.952305 -293.72182 
L 347.950761 -293.52227 
L 354.949218 -293.128261 
L 361.947674 -291.245623 
L 368.946131 -292.802808 
L 375.944587 -291.398953 
L 382.943043 -292.262969 
L 389.9415 -292.247887 
L 396.939956 -292.035393 
L 403.938413 -292.269103 
L 410.936869 -291.953548 
L 417.935325 -291.432296 
L 424.933782 -290.954497 
L 424.933782 -296.939219 
L 424.933782 -296.939219 
L 417.935325 -296.942292 
L 410.936869 -296.940175 
L 403.938413 -296.937115 
L 396.939956 -296.941338 
L 389.9415 -296.939952 
L 382.943043 -296.939104 
L 375.944587 -296.939505 
L 368.946131 -296.942539 
L 361.947674 -296.94123 
L 354.949218 -296.944101 
L 347.950761 -296.940153 
L 340.952305 -296.944869 
L 333.953849 -296.945378 
L 326.955392 -296.945037 
L 319.956936 -296.944622 
L 312.958479 -296.945214 
L 305.960023 -296.946164 
L 298.961567 -296.944312 
L 291.96311 -296.946185 
L 284.964654 -296.946337 
L 277.966197 -296.946092 
L 270.967741 -296.94696 
L 263.969285 -296.947635 
L 256.970828 -296.945687 
L 249.972372 -296.947828 
L 242.973915 -296.947835 
L 235.975459 -296.948184 
L 228.977003 -296.948426 
L 221.978546 -296.948822 
L 214.98009 -296.949651 
L 207.981633 -296.949292 
L 200.983177 -296.949271 
L 193.984721 -296.950558 
L 186.986264 -296.950031 
L 179.987808 -296.950135 
L 172.989351 -296.950291 
L 165.990895 -296.949691 
L 158.992439 -296.950528 
L 151.993982 -296.950773 
L 144.995526 -296.950214 
L 137.997069 -296.951264 
L 130.998613 -296.95103 
L 124.000157 -296.951394 
L 117.0017 -296.952644 
L 110.003244 -296.953307 
L 103.004787 -296.95329 
L 96.006331 -296.95302 
L 89.007875 -296.953798 
L 82.009418 -296.955762 
z
" style="stroke: #7f909f; stroke-opacity: 0.15; stroke-width: 2.5"/>
    </defs>
    <g clip-path="url(#pe578205943)">
     <use xlink:href="#m90ff0a03ae" x="0" y="334.08" style="fill: #7f909f; fill-opacity: 0.15; stroke: #7f909f; stroke-opacity: 0.15; stroke-width: 2.5"/>
    </g>
   </g>
   <g id="PolyCollection_3">
    <defs>
     <path id="m0e3b1b3423" d="M 82.009418 -296.952884 
L 82.009418 -296.531698 
L 89.007875 -293.578961 
L 96.006331 -290.719731 
L 103.004787 -291.688165 
L 110.003244 -291.798435 
L 117.0017 -292.200695 
L 124.000157 -290.720983 
L 130.998613 -291.470509 
L 137.997069 -291.655418 
L 144.995526 -288.646266 
L 151.993982 -289.198094 
L 158.992439 -291.108526 
L 165.990895 -291.599471 
L 172.989351 -292.517153 
L 179.987808 -294.163944 
L 186.986264 -294.313108 
L 193.984721 -290.863832 
L 200.983177 -290.866079 
L 207.981633 -290.888285 
L 214.98009 -292.228255 
L 221.978546 -291.316424 
L 228.977003 -292.156829 
L 235.975459 -291.491888 
L 242.973915 -291.946732 
L 249.972372 -290.997921 
L 256.970828 -290.926788 
L 263.969285 -289.943085 
L 270.967741 -289.592014 
L 277.966197 -289.526898 
L 284.964654 -288.500624 
L 291.96311 -289.647745 
L 298.961567 -288.305538 
L 305.960023 -288.887445 
L 312.958479 -287.294109 
L 319.956936 -289.123365 
L 326.955392 -287.53354 
L 333.953849 -288.437953 
L 340.952305 -285.735274 
L 347.950761 -286.160191 
L 354.949218 -287.395805 
L 361.947674 -286.683747 
L 368.946131 -283.752741 
L 375.944587 -286.917978 
L 382.943043 -284.286547 
L 389.9415 -283.481742 
L 396.939956 -283.005869 
L 403.938413 -283.947485 
L 410.936869 -282.509759 
L 417.935325 -281.253571 
L 424.933782 -282.615428 
L 424.933782 -296.920074 
L 424.933782 -296.920074 
L 417.935325 -296.882487 
L 410.936869 -296.857033 
L 403.938413 -296.841071 
L 396.939956 -296.899863 
L 389.9415 -296.90301 
L 382.943043 -296.896781 
L 375.944587 -296.901225 
L 368.946131 -296.915339 
L 361.947674 -296.930551 
L 354.949218 -296.928272 
L 347.950761 -296.929751 
L 340.952305 -296.893738 
L 333.953849 -296.93525 
L 326.955392 -296.935982 
L 319.956936 -296.940791 
L 312.958479 -296.934211 
L 305.960023 -296.937152 
L 298.961567 -296.936722 
L 291.96311 -296.941632 
L 284.964654 -296.934843 
L 277.966197 -296.941082 
L 270.967741 -296.939321 
L 263.969285 -296.936993 
L 256.970828 -296.939122 
L 249.972372 -296.938252 
L 242.973915 -296.94174 
L 235.975459 -296.940147 
L 228.977003 -296.940408 
L 221.978546 -296.938383 
L 214.98009 -296.939723 
L 207.981633 -296.931835 
L 200.983177 -296.929926 
L 193.984721 -296.936265 
L 186.986264 -296.944914 
L 179.987808 -296.943738 
L 172.989351 -296.942639 
L 165.990895 -296.943794 
L 158.992439 -296.944465 
L 151.993982 -296.943002 
L 144.995526 -296.942803 
L 137.997069 -296.947188 
L 130.998613 -296.948987 
L 124.000157 -296.949386 
L 117.0017 -296.950361 
L 110.003244 -296.950291 
L 103.004787 -296.948694 
L 96.006331 -296.946779 
L 89.007875 -296.947983 
L 82.009418 -296.952884 
z
" style="stroke: #a4c2c3; stroke-opacity: 0.15; stroke-width: 2.5"/>
    </defs>
    <g clip-path="url(#pe578205943)">
     <use xlink:href="#m0e3b1b3423" x="0" y="334.08" style="fill: #a4c2c3; fill-opacity: 0.15; stroke: #a4c2c3; stroke-opacity: 0.15; stroke-width: 2.5"/>
    </g>
   </g>
   <g id="PolyCollection_4">
    <defs>
     <path id="m4a86e9f6df" d="M 82.009418 -296.947087 
L 82.009418 -291.4937 
L 89.007875 -288.273178 
L 96.006331 -287.968828 
L 103.004787 -281.435966 
L 110.003244 -283.365104 
L 117.0017 -279.189659 
L 124.000157 -276.801564 
L 130.998613 -271.019322 
L 137.997069 -270.898524 
L 144.995526 -272.503636 
L 151.993982 -264.954425 
L 158.992439 -271.463621 
L 165.990895 -266.174863 
L 172.989351 -269.811097 
L 179.987808 -265.57605 
L 186.986264 -265.169099 
L 193.984721 -266.105001 
L 200.983177 -264.38665 
L 207.981633 -258.210676 
L 214.98009 -261.12392 
L 221.978546 -255.000354 
L 228.977003 -254.585201 
L 235.975459 -251.353845 
L 242.973915 -250.538025 
L 249.972372 -250.038914 
L 256.970828 -250.026007 
L 263.969285 -252.121394 
L 270.967741 -252.325059 
L 277.966197 -248.39026 
L 284.964654 -250.808152 
L 291.96311 -246.347926 
L 298.961567 -246.812924 
L 305.960023 -247.090386 
L 312.958479 -247.448264 
L 319.956936 -247.872018 
L 326.955392 -245.736659 
L 333.953849 -243.594734 
L 340.952305 -243.73797 
L 347.950761 -241.612775 
L 354.949218 -244.070606 
L 361.947674 -238.262163 
L 368.946131 -239.655115 
L 375.944587 -241.339629 
L 382.943043 -238.789572 
L 389.9415 -235.45814 
L 396.939956 -235.129396 
L 403.938413 -231.727141 
L 410.936869 -232.635518 
L 417.935325 -230.12446 
L 424.933782 -230.249571 
L 424.933782 -295.901498 
L 424.933782 -295.901498 
L 417.935325 -296.009143 
L 410.936869 -296.055173 
L 403.938413 -295.982986 
L 396.939956 -296.064667 
L 389.9415 -296.049088 
L 382.943043 -296.066093 
L 375.944587 -296.216882 
L 368.946131 -296.196422 
L 361.947674 -296.087148 
L 354.949218 -296.306242 
L 347.950761 -296.162359 
L 340.952305 -296.353908 
L 333.953849 -296.227702 
L 326.955392 -296.350968 
L 319.956936 -296.313769 
L 312.958479 -296.283324 
L 305.960023 -296.320854 
L 298.961567 -296.405687 
L 291.96311 -296.445559 
L 284.964654 -296.512808 
L 277.966197 -296.443446 
L 270.967741 -296.436914 
L 263.969285 -296.318884 
L 256.970828 -296.561869 
L 249.972372 -296.412646 
L 242.973915 -296.524237 
L 235.975459 -296.258141 
L 228.977003 -296.494777 
L 221.978546 -296.569155 
L 214.98009 -296.674943 
L 207.981633 -296.661733 
L 200.983177 -296.641748 
L 193.984721 -296.706899 
L 186.986264 -296.689914 
L 179.987808 -296.568304 
L 172.989351 -296.761839 
L 165.990895 -296.731309 
L 158.992439 -296.786917 
L 151.993982 -296.793565 
L 144.995526 -296.827091 
L 137.997069 -296.710822 
L 130.998613 -296.751688 
L 124.000157 -296.880341 
L 117.0017 -296.878318 
L 110.003244 -296.935648 
L 103.004787 -296.935015 
L 96.006331 -296.892012 
L 89.007875 -296.94257 
L 82.009418 -296.947087 
z
" style="stroke: #dde9e9; stroke-opacity: 0.15; stroke-width: 2.5"/>
    </defs>
    <g clip-path="url(#pe578205943)">
     <use xlink:href="#m4a86e9f6df" x="0" y="334.08" style="fill: #dde9e9; fill-opacity: 0.15; stroke: #dde9e9; stroke-opacity: 0.15; stroke-width: 2.5"/>
    </g>
   </g>
   <g id="PolyCollection_5">
    <defs>
     <path id="m82c81ab4b9" d="M 82.009418 -115.13297 
L 82.009418 -106.040169 
L 89.007875 -102.206139 
L 96.006331 -96.241207 
L 103.004787 -91.179283 
L 110.003244 -85.354032 
L 117.0017 -81.524798 
L 124.000157 -80.434348 
L 130.998613 -79.205468 
L 137.997069 -78.034425 
L 144.995526 -77.737967 
L 151.993982 -78.177606 
L 158.992439 -77.62637 
L 165.990895 -76.873132 
L 172.989351 -76.375596 
L 179.987808 -76.219519 
L 186.986264 -75.814413 
L 193.984721 -75.514165 
L 200.983177 -75.697802 
L 207.981633 -76.369749 
L 214.98009 -75.47693 
L 221.978546 -75.620801 
L 228.977003 -74.974005 
L 235.975459 -74.96705 
L 242.973915 -74.727923 
L 249.972372 -74.978402 
L 256.970828 -74.739972 
L 263.969285 -74.536447 
L 270.967741 -74.509618 
L 277.966197 -74.67528 
L 284.964654 -75.125308 
L 291.96311 -74.860277 
L 298.961567 -75.244523 
L 305.960023 -74.712798 
L 312.958479 -75.393498 
L 319.956936 -75.624201 
L 326.955392 -75.800498 
L 333.953849 -75.937731 
L 340.952305 -76.144059 
L 347.950761 -75.560189 
L 354.949218 -76.377044 
L 361.947674 -76.323369 
L 368.946131 -76.058934 
L 375.944587 -76.231122 
L 382.943043 -75.467754 
L 389.9415 -76.263187 
L 396.939956 -76.990074 
L 403.938413 -77.452308 
L 410.936869 -77.239601 
L 417.935325 -76.876323 
L 424.933782 -77.186242 
L 424.933782 -95.261626 
L 424.933782 -95.261626 
L 417.935325 -95.432628 
L 410.936869 -96.093717 
L 403.938413 -94.870285 
L 396.939956 -95.727639 
L 389.9415 -95.714897 
L 382.943043 -95.888152 
L 375.944587 -96.078723 
L 368.946131 -96.263725 
L 361.947674 -96.42958 
L 354.949218 -96.724061 
L 347.950761 -96.585685 
L 340.952305 -96.393008 
L 333.953849 -97.209346 
L 326.955392 -97.030267 
L 319.956936 -97.223251 
L 312.958479 -97.597738 
L 305.960023 -97.790862 
L 298.961567 -98.21939 
L 291.96311 -98.260879 
L 284.964654 -98.137179 
L 277.966197 -98.339839 
L 270.967741 -98.462681 
L 263.969285 -98.337136 
L 256.970828 -98.537644 
L 249.972372 -98.771378 
L 242.973915 -98.451958 
L 235.975459 -98.953167 
L 228.977003 -99.277648 
L 221.978546 -99.486427 
L 214.98009 -99.411399 
L 207.981633 -99.883906 
L 200.983177 -100.098952 
L 193.984721 -100.127684 
L 186.986264 -100.50741 
L 179.987808 -100.470649 
L 172.989351 -101.057237 
L 165.990895 -101.097839 
L 158.992439 -101.338094 
L 151.993982 -101.524252 
L 144.995526 -101.95008 
L 137.997069 -102.918155 
L 130.998613 -103.202935 
L 124.000157 -103.886501 
L 117.0017 -104.789084 
L 110.003244 -105.75192 
L 103.004787 -105.993099 
L 96.006331 -107.781574 
L 89.007875 -111.145415 
L 82.009418 -115.13297 
z
" style="stroke: #595c79; stroke-opacity: 0.15; stroke-width: 2.5"/>
    </defs>
    <g clip-path="url(#pe578205943)">
     <use xlink:href="#m82c81ab4b9" x="0" y="334.08" style="fill: #595c79; fill-opacity: 0.15; stroke: #595c79; stroke-opacity: 0.15; stroke-width: 2.5"/>
    </g>
   </g>
   <g id="PolyCollection_6">
    <defs>
     <path id="m7cf30f26b6" d="M 82.009418 -115.439437 
L 82.009418 -107.950721 
L 89.007875 -101.014932 
L 96.006331 -93.036163 
L 103.004787 -85.383176 
L 110.003244 -81.850902 
L 117.0017 -79.352722 
L 124.000157 -77.445586 
L 130.998613 -77.920491 
L 137.997069 -75.828692 
L 144.995526 -74.201781 
L 151.993982 -73.467572 
L 158.992439 -71.280636 
L 165.990895 -70.744897 
L 172.989351 -71.611189 
L 179.987808 -70.984996 
L 186.986264 -69.170897 
L 193.984721 -69.756889 
L 200.983177 -68.945074 
L 207.981633 -70.495365 
L 214.98009 -69.173241 
L 221.978546 -69.344221 
L 228.977003 -69.336401 
L 235.975459 -70.658779 
L 242.973915 -70.098345 
L 249.972372 -68.128337 
L 256.970828 -70.699745 
L 263.969285 -71.480945 
L 270.967741 -69.463253 
L 277.966197 -71.195214 
L 284.964654 -69.401008 
L 291.96311 -71.116081 
L 298.961567 -70.887592 
L 305.960023 -70.408805 
L 312.958479 -71.74105 
L 319.956936 -71.802202 
L 326.955392 -71.015769 
L 333.953849 -71.66738 
L 340.952305 -73.533398 
L 347.950761 -74.627726 
L 354.949218 -73.961937 
L 361.947674 -71.752218 
L 368.946131 -73.345317 
L 375.944587 -72.632848 
L 382.943043 -75.279701 
L 389.9415 -74.904736 
L 396.939956 -76.495626 
L 403.938413 -76.516333 
L 410.936869 -77.57653 
L 417.935325 -75.750355 
L 424.933782 -77.037459 
L 424.933782 -93.196227 
L 424.933782 -93.196227 
L 417.935325 -91.598053 
L 410.936869 -92.827913 
L 403.938413 -92.612856 
L 396.939956 -92.904027 
L 389.9415 -92.044061 
L 382.943043 -92.519275 
L 375.944587 -92.197972 
L 368.946131 -92.414441 
L 361.947674 -94.210906 
L 354.949218 -93.340619 
L 347.950761 -93.877807 
L 340.952305 -93.627646 
L 333.953849 -93.617042 
L 326.955392 -94.224533 
L 319.956936 -94.847335 
L 312.958479 -94.262731 
L 305.960023 -94.85651 
L 298.961567 -95.235322 
L 291.96311 -94.651439 
L 284.964654 -94.988212 
L 277.966197 -95.764802 
L 270.967741 -95.534776 
L 263.969285 -95.973753 
L 256.970828 -96.054629 
L 249.972372 -96.101131 
L 242.973915 -95.664409 
L 235.975459 -96.443025 
L 228.977003 -96.410108 
L 221.978546 -97.547849 
L 214.98009 -97.785659 
L 207.981633 -97.680671 
L 200.983177 -97.957395 
L 193.984721 -97.285764 
L 186.986264 -98.060054 
L 179.987808 -97.742672 
L 172.989351 -98.20229 
L 165.990895 -98.676415 
L 158.992439 -98.699949 
L 151.993982 -98.791535 
L 144.995526 -99.436512 
L 137.997069 -100.193786 
L 130.998613 -100.650225 
L 124.000157 -101.23166 
L 117.0017 -101.802587 
L 110.003244 -102.818625 
L 103.004787 -104.31762 
L 96.006331 -105.806757 
L 89.007875 -110.404102 
L 82.009418 -115.439437 
z
" style="stroke: #7f909f; stroke-opacity: 0.15; stroke-width: 2.5"/>
    </defs>
    <g clip-path="url(#pe578205943)">
     <use xlink:href="#m7cf30f26b6" x="0" y="334.08" style="fill: #7f909f; fill-opacity: 0.15; stroke: #7f909f; stroke-opacity: 0.15; stroke-width: 2.5"/>
    </g>
   </g>
   <g id="PolyCollection_7">
    <defs>
     <path id="mbc54c68a1b" d="M 82.009418 -114.22675 
L 82.009418 -107.459981 
L 89.007875 -101.056012 
L 96.006331 -89.167601 
L 103.004787 -80.760383 
L 110.003244 -80.628463 
L 117.0017 -83.846498 
L 124.000157 -77.388636 
L 130.998613 -75.806475 
L 137.997069 -73.252707 
L 144.995526 -74.639395 
L 151.993982 -80.179515 
L 158.992439 -72.08976 
L 165.990895 -68.881753 
L 172.989351 -74.180895 
L 179.987808 -73.839988 
L 186.986264 -69.45934 
L 193.984721 -67.031074 
L 200.983177 -71.572532 
L 207.981633 -70.421829 
L 214.98009 -69.581075 
L 221.978546 -69.247368 
L 228.977003 -71.209758 
L 235.975459 -70.453814 
L 242.973915 -65.860977 
L 249.972372 -68.839349 
L 256.970828 -68.500638 
L 263.969285 -74.443734 
L 270.967741 -73.021587 
L 277.966197 -75.522717 
L 284.964654 -69.347017 
L 291.96311 -70.087965 
L 298.961567 -69.723254 
L 305.960023 -69.160669 
L 312.958479 -69.47886 
L 319.956936 -68.298162 
L 326.955392 -66.178004 
L 333.953849 -72.357368 
L 340.952305 -67.195645 
L 347.950761 -72.092015 
L 354.949218 -71.143306 
L 361.947674 -72.120518 
L 368.946131 -72.219605 
L 375.944587 -73.369555 
L 382.943043 -72.858148 
L 389.9415 -77.311814 
L 396.939956 -75.322866 
L 403.938413 -76.179167 
L 410.936869 -75.271193 
L 417.935325 -73.807366 
L 424.933782 -75.895411 
L 424.933782 -88.411976 
L 424.933782 -88.411976 
L 417.935325 -90.536317 
L 410.936869 -90.257638 
L 403.938413 -90.373928 
L 396.939956 -88.979532 
L 389.9415 -89.593105 
L 382.943043 -90.003875 
L 375.944587 -90.640275 
L 368.946131 -90.625635 
L 361.947674 -90.003314 
L 354.949218 -90.516493 
L 347.950761 -91.099737 
L 340.952305 -90.631172 
L 333.953849 -92.090908 
L 326.955392 -92.41598 
L 319.956936 -90.964053 
L 312.958479 -91.204399 
L 305.960023 -91.336356 
L 298.961567 -92.065815 
L 291.96311 -91.298947 
L 284.964654 -92.285978 
L 277.966197 -90.465699 
L 270.967741 -91.316303 
L 263.969285 -92.647136 
L 256.970828 -92.609432 
L 249.972372 -93.399875 
L 242.973915 -92.454013 
L 235.975459 -91.976577 
L 228.977003 -92.489515 
L 221.978546 -92.343975 
L 214.98009 -92.943546 
L 207.981633 -93.828977 
L 200.983177 -93.342173 
L 193.984721 -94.78755 
L 186.986264 -95.849576 
L 179.987808 -95.256764 
L 172.989351 -95.215776 
L 165.990895 -94.019439 
L 158.992439 -94.79844 
L 151.993982 -96.902447 
L 144.995526 -97.690681 
L 137.997069 -96.000567 
L 130.998613 -97.826966 
L 124.000157 -98.147933 
L 117.0017 -100.070969 
L 110.003244 -99.934726 
L 103.004787 -101.272334 
L 96.006331 -103.165547 
L 89.007875 -108.692793 
L 82.009418 -114.22675 
z
" style="stroke: #a4c2c3; stroke-opacity: 0.15; stroke-width: 2.5"/>
    </defs>
    <g clip-path="url(#pe578205943)">
     <use xlink:href="#mbc54c68a1b" x="0" y="334.08" style="fill: #a4c2c3; fill-opacity: 0.15; stroke: #a4c2c3; stroke-opacity: 0.15; stroke-width: 2.5"/>
    </g>
   </g>
   <g id="PolyCollection_8">
    <defs>
     <path id="me663f0d987" d="M 82.009418 -110.31187 
L 82.009418 -97.325169 
L 89.007875 -91.092254 
L 96.006331 -86.354753 
L 103.004787 -80.297087 
L 110.003244 -77.795155 
L 117.0017 -79.687636 
L 124.000157 -76.527135 
L 130.998613 -78.085174 
L 137.997069 -73.712173 
L 144.995526 -77.28856 
L 151.993982 -77.279536 
L 158.992439 -79.037507 
L 165.990895 -82.411204 
L 172.989351 -78.262002 
L 179.987808 -78.920931 
L 186.986264 -82.199294 
L 193.984721 -83.541034 
L 200.983177 -82.750682 
L 207.981633 -84.919015 
L 214.98009 -82.785437 
L 221.978546 -82.391985 
L 228.977003 -83.466527 
L 235.975459 -82.950266 
L 242.973915 -84.135027 
L 249.972372 -88.541149 
L 256.970828 -84.830067 
L 263.969285 -86.000287 
L 270.967741 -88.375598 
L 277.966197 -88.205679 
L 284.964654 -87.051453 
L 291.96311 -87.201738 
L 298.961567 -88.787185 
L 305.960023 -85.253888 
L 312.958479 -88.083019 
L 319.956936 -87.220369 
L 326.955392 -87.642437 
L 333.953849 -87.1581 
L 340.952305 -87.003679 
L 347.950761 -87.104197 
L 354.949218 -87.323878 
L 361.947674 -88.602881 
L 368.946131 -87.174762 
L 375.944587 -88.626397 
L 382.943043 -88.081104 
L 389.9415 -89.550582 
L 396.939956 -88.307491 
L 403.938413 -88.635879 
L 410.936869 -87.715516 
L 417.935325 -86.79354 
L 424.933782 -88.65963 
L 424.933782 -92.869171 
L 424.933782 -92.869171 
L 417.935325 -92.448924 
L 410.936869 -93.295996 
L 403.938413 -89.624805 
L 396.939956 -93.091571 
L 389.9415 -93.820022 
L 382.943043 -96.04409 
L 375.944587 -91.190669 
L 368.946131 -93.600964 
L 361.947674 -89.148583 
L 354.949218 -92.84734 
L 347.950761 -89.401155 
L 340.952305 -87.669191 
L 333.953849 -87.609407 
L 326.955392 -91.79571 
L 319.956936 -87.499197 
L 312.958479 -88.92478 
L 305.960023 -89.360946 
L 298.961567 -89.867209 
L 291.96311 -88.352356 
L 284.964654 -89.124788 
L 277.966197 -89.229389 
L 270.967741 -88.45017 
L 263.969285 -89.307329 
L 256.970828 -90.234048 
L 249.972372 -89.444823 
L 242.973915 -90.897241 
L 235.975459 -88.424335 
L 228.977003 -90.568307 
L 221.978546 -91.524648 
L 214.98009 -92.22454 
L 207.981633 -91.02534 
L 200.983177 -93.099796 
L 193.984721 -93.174383 
L 186.986264 -93.881252 
L 179.987808 -94.09255 
L 172.989351 -95.324349 
L 165.990895 -95.805587 
L 158.992439 -96.373266 
L 151.993982 -96.562878 
L 144.995526 -95.584569 
L 137.997069 -96.615778 
L 130.998613 -98.181261 
L 124.000157 -98.114764 
L 117.0017 -98.792441 
L 110.003244 -99.077827 
L 103.004787 -99.114624 
L 96.006331 -102.665028 
L 89.007875 -106.129047 
L 82.009418 -110.31187 
z
" style="stroke: #dde9e9; stroke-opacity: 0.15; stroke-width: 2.5"/>
    </defs>
    <g clip-path="url(#pe578205943)">
     <use xlink:href="#me663f0d987" x="0" y="334.08" style="fill: #dde9e9; fill-opacity: 0.15; stroke: #dde9e9; stroke-opacity: 0.15; stroke-width: 2.5"/>
    </g>
   </g>
   <g id="matplotlib.axis_1">
    <g id="xtick_1">
     <g id="line2d_1">
      <defs>
       <path id="m2f64ad9216" d="M 0 0 
L 0 8 
" style="stroke: #000000; stroke-width: 2"/>
      </defs>
      <g>
       <use xlink:href="#m2f64ad9216" x="82.009418" y="279.7738" style="stroke: #000000; stroke-width: 2"/>
      </g>
     </g>
     <g id="text_1">
      <!-- 0 -->
      <g transform="translate(77.204768 303.6425)scale(0.1728 -0.1728)">
       <defs>
        <path id="ArialMT-30" d="M 266 2259 
Q 266 3072 433 3567 
Q 600 4063 929 4331 
Q 1259 4600 1759 4600 
Q 2128 4600 2406 4451 
Q 2684 4303 2865 4023 
Q 3047 3744 3150 3342 
Q 3253 2941 3253 2259 
Q 3253 1453 3087 958 
Q 2922 463 2592 192 
Q 2263 -78 1759 -78 
Q 1097 -78 719 397 
Q 266 969 266 2259 
z
M 844 2259 
Q 844 1131 1108 757 
Q 1372 384 1759 384 
Q 2147 384 2411 759 
Q 2675 1134 2675 2259 
Q 2675 3391 2411 3762 
Q 2147 4134 1753 4134 
Q 1366 4134 1134 3806 
Q 844 3388 844 2259 
z
" transform="scale(0.015625)"/>
       </defs>
       <use xlink:href="#ArialMT-30"/>
      </g>
     </g>
    </g>
    <g id="xtick_2">
     <g id="line2d_2">
      <g>
       <use xlink:href="#m2f64ad9216" x="151.993982" y="279.7738" style="stroke: #000000; stroke-width: 2"/>
      </g>
     </g>
     <g id="text_2">
      <!-- 10 -->
      <g transform="translate(142.384682 303.6425)scale(0.1728 -0.1728)">
       <defs>
        <path id="ArialMT-31" d="M 2384 0 
L 1822 0 
L 1822 3584 
Q 1619 3391 1289 3197 
Q 959 3003 697 2906 
L 697 3450 
Q 1169 3672 1522 3987 
Q 1875 4303 2022 4600 
L 2384 4600 
L 2384 0 
z
" transform="scale(0.015625)"/>
       </defs>
       <use xlink:href="#ArialMT-31"/>
       <use xlink:href="#ArialMT-30" x="55.615234"/>
      </g>
     </g>
    </g>
    <g id="xtick_3">
     <g id="line2d_3">
      <g>
       <use xlink:href="#m2f64ad9216" x="221.978546" y="279.7738" style="stroke: #000000; stroke-width: 2"/>
      </g>
     </g>
     <g id="text_3">
      <!-- 20 -->
      <g transform="translate(212.369246 303.6425)scale(0.1728 -0.1728)">
       <defs>
        <path id="ArialMT-32" d="M 3222 541 
L 3222 0 
L 194 0 
Q 188 203 259 391 
Q 375 700 629 1000 
Q 884 1300 1366 1694 
Q 2113 2306 2375 2664 
Q 2638 3022 2638 3341 
Q 2638 3675 2398 3904 
Q 2159 4134 1775 4134 
Q 1369 4134 1125 3890 
Q 881 3647 878 3216 
L 300 3275 
Q 359 3922 746 4261 
Q 1134 4600 1788 4600 
Q 2447 4600 2831 4234 
Q 3216 3869 3216 3328 
Q 3216 3053 3103 2787 
Q 2991 2522 2730 2228 
Q 2469 1934 1863 1422 
Q 1356 997 1212 845 
Q 1069 694 975 541 
L 3222 541 
z
" transform="scale(0.015625)"/>
       </defs>
       <use xlink:href="#ArialMT-32"/>
       <use xlink:href="#ArialMT-30" x="55.615234"/>
      </g>
     </g>
    </g>
    <g id="xtick_4">
     <g id="line2d_4">
      <g>
       <use xlink:href="#m2f64ad9216" x="291.96311" y="279.7738" style="stroke: #000000; stroke-width: 2"/>
      </g>
     </g>
     <g id="text_4">
      <!-- 30 -->
      <g transform="translate(282.35381 303.6425)scale(0.1728 -0.1728)">
       <defs>
        <path id="ArialMT-33" d="M 269 1209 
L 831 1284 
Q 928 806 1161 595 
Q 1394 384 1728 384 
Q 2125 384 2398 659 
Q 2672 934 2672 1341 
Q 2672 1728 2419 1979 
Q 2166 2231 1775 2231 
Q 1616 2231 1378 2169 
L 1441 2663 
Q 1497 2656 1531 2656 
Q 1891 2656 2178 2843 
Q 2466 3031 2466 3422 
Q 2466 3731 2256 3934 
Q 2047 4138 1716 4138 
Q 1388 4138 1169 3931 
Q 950 3725 888 3313 
L 325 3413 
Q 428 3978 793 4289 
Q 1159 4600 1703 4600 
Q 2078 4600 2393 4439 
Q 2709 4278 2876 4000 
Q 3044 3722 3044 3409 
Q 3044 3113 2884 2869 
Q 2725 2625 2413 2481 
Q 2819 2388 3044 2092 
Q 3269 1797 3269 1353 
Q 3269 753 2831 336 
Q 2394 -81 1725 -81 
Q 1122 -81 723 278 
Q 325 638 269 1209 
z
" transform="scale(0.015625)"/>
       </defs>
       <use xlink:href="#ArialMT-33"/>
       <use xlink:href="#ArialMT-30" x="55.615234"/>
      </g>
     </g>
    </g>
    <g id="xtick_5">
     <g id="line2d_5">
      <g>
       <use xlink:href="#m2f64ad9216" x="361.947674" y="279.7738" style="stroke: #000000; stroke-width: 2"/>
      </g>
     </g>
     <g id="text_5">
      <!-- 40 -->
      <g transform="translate(352.338374 303.6425)scale(0.1728 -0.1728)">
       <defs>
        <path id="ArialMT-34" d="M 2069 0 
L 2069 1097 
L 81 1097 
L 81 1613 
L 2172 4581 
L 2631 4581 
L 2631 1613 
L 3250 1613 
L 3250 1097 
L 2631 1097 
L 2631 0 
L 2069 0 
z
M 2069 1613 
L 2069 3678 
L 634 1613 
L 2069 1613 
z
" transform="scale(0.015625)"/>
       </defs>
       <use xlink:href="#ArialMT-34"/>
       <use xlink:href="#ArialMT-30" x="55.615234"/>
      </g>
     </g>
    </g>
    <g id="xtick_6">
     <g id="line2d_6">
      <g>
       <use xlink:href="#m2f64ad9216" x="431.932238" y="279.7738" style="stroke: #000000; stroke-width: 2"/>
      </g>
     </g>
     <g id="text_6">
      <!-- 50 -->
      <g transform="translate(422.322938 303.6425)scale(0.1728 -0.1728)">
       <defs>
        <path id="ArialMT-35" d="M 266 1200 
L 856 1250 
Q 922 819 1161 601 
Q 1400 384 1738 384 
Q 2144 384 2425 690 
Q 2706 997 2706 1503 
Q 2706 1984 2436 2262 
Q 2166 2541 1728 2541 
Q 1456 2541 1237 2417 
Q 1019 2294 894 2097 
L 366 2166 
L 809 4519 
L 3088 4519 
L 3088 3981 
L 1259 3981 
L 1013 2750 
Q 1425 3038 1878 3038 
Q 2478 3038 2890 2622 
Q 3303 2206 3303 1553 
Q 3303 931 2941 478 
Q 2500 -78 1738 -78 
Q 1113 -78 717 272 
Q 322 622 266 1200 
z
" transform="scale(0.015625)"/>
       </defs>
       <use xlink:href="#ArialMT-35"/>
       <use xlink:href="#ArialMT-30" x="55.615234"/>
      </g>
     </g>
    </g>
    <g id="text_7">
     <!-- Epoch -->
     <g transform="translate(228.9745 323.4456)scale(0.1728 -0.1728)">
      <defs>
       <path id="ArialMT-45" d="M 506 0 
L 506 4581 
L 3819 4581 
L 3819 4041 
L 1113 4041 
L 1113 2638 
L 3647 2638 
L 3647 2100 
L 1113 2100 
L 1113 541 
L 3925 541 
L 3925 0 
L 506 0 
z
" transform="scale(0.015625)"/>
       <path id="ArialMT-70" d="M 422 -1272 
L 422 3319 
L 934 3319 
L 934 2888 
Q 1116 3141 1344 3267 
Q 1572 3394 1897 3394 
Q 2322 3394 2647 3175 
Q 2972 2956 3137 2557 
Q 3303 2159 3303 1684 
Q 3303 1175 3120 767 
Q 2938 359 2589 142 
Q 2241 -75 1856 -75 
Q 1575 -75 1351 44 
Q 1128 163 984 344 
L 984 -1272 
L 422 -1272 
z
M 931 1641 
Q 931 1000 1190 694 
Q 1450 388 1819 388 
Q 2194 388 2461 705 
Q 2728 1022 2728 1688 
Q 2728 2322 2467 2637 
Q 2206 2953 1844 2953 
Q 1484 2953 1207 2617 
Q 931 2281 931 1641 
z
" transform="scale(0.015625)"/>
       <path id="ArialMT-6f" d="M 213 1659 
Q 213 2581 725 3025 
Q 1153 3394 1769 3394 
Q 2453 3394 2887 2945 
Q 3322 2497 3322 1706 
Q 3322 1066 3130 698 
Q 2938 331 2570 128 
Q 2203 -75 1769 -75 
Q 1072 -75 642 372 
Q 213 819 213 1659 
z
M 791 1659 
Q 791 1022 1069 705 
Q 1347 388 1769 388 
Q 2188 388 2466 706 
Q 2744 1025 2744 1678 
Q 2744 2294 2464 2611 
Q 2184 2928 1769 2928 
Q 1347 2928 1069 2612 
Q 791 2297 791 1659 
z
" transform="scale(0.015625)"/>
       <path id="ArialMT-63" d="M 2588 1216 
L 3141 1144 
Q 3050 572 2676 248 
Q 2303 -75 1759 -75 
Q 1078 -75 664 370 
Q 250 816 250 1647 
Q 250 2184 428 2587 
Q 606 2991 970 3192 
Q 1334 3394 1763 3394 
Q 2303 3394 2647 3120 
Q 2991 2847 3088 2344 
L 2541 2259 
Q 2463 2594 2264 2762 
Q 2066 2931 1784 2931 
Q 1359 2931 1093 2626 
Q 828 2322 828 1663 
Q 828 994 1084 691 
Q 1341 388 1753 388 
Q 2084 388 2306 591 
Q 2528 794 2588 1216 
z
" transform="scale(0.015625)"/>
       <path id="ArialMT-68" d="M 422 0 
L 422 4581 
L 984 4581 
L 984 2938 
Q 1378 3394 1978 3394 
Q 2347 3394 2619 3248 
Q 2891 3103 3008 2847 
Q 3125 2591 3125 2103 
L 3125 0 
L 2563 0 
L 2563 2103 
Q 2563 2525 2380 2717 
Q 2197 2909 1863 2909 
Q 1613 2909 1392 2779 
Q 1172 2650 1078 2428 
Q 984 2206 984 1816 
L 984 0 
L 422 0 
z
" transform="scale(0.015625)"/>
      </defs>
      <use xlink:href="#ArialMT-45"/>
      <use xlink:href="#ArialMT-70" x="66.699219"/>
      <use xlink:href="#ArialMT-6f" x="122.314453"/>
      <use xlink:href="#ArialMT-63" x="177.929688"/>
      <use xlink:href="#ArialMT-68" x="227.929688"/>
     </g>
    </g>
   </g>
   <g id="matplotlib.axis_2">
    <g id="ytick_1">
     <g id="line2d_7">
      <defs>
       <path id="meb12f26901" d="M 0 0 
L -8 0 
" style="stroke: #000000; stroke-width: 2"/>
      </defs>
      <g>
       <use xlink:href="#meb12f26901" x="64.8632" y="244.499958" style="stroke: #000000; stroke-width: 2"/>
      </g>
     </g>
     <g id="text_8">
      <!-- 0.2 -->
      <g transform="translate(29.344 250.684308)scale(0.1728 -0.1728)">
       <defs>
        <path id="ArialMT-2e" d="M 581 0 
L 581 641 
L 1222 641 
L 1222 0 
L 581 0 
z
" transform="scale(0.015625)"/>
       </defs>
       <use xlink:href="#ArialMT-30"/>
       <use xlink:href="#ArialMT-2e" x="55.615234"/>
       <use xlink:href="#ArialMT-32" x="83.398438"/>
      </g>
     </g>
    </g>
    <g id="ytick_2">
     <g id="line2d_8">
      <g>
       <use xlink:href="#meb12f26901" x="64.8632" y="192.654543" style="stroke: #000000; stroke-width: 2"/>
      </g>
     </g>
     <g id="text_9">
      <!-- 0.4 -->
      <g transform="translate(29.344 198.838893)scale(0.1728 -0.1728)">
       <use xlink:href="#ArialMT-30"/>
       <use xlink:href="#ArialMT-2e" x="55.615234"/>
       <use xlink:href="#ArialMT-34" x="83.398438"/>
      </g>
     </g>
    </g>
    <g id="ytick_3">
     <g id="line2d_9">
      <g>
       <use xlink:href="#meb12f26901" x="64.8632" y="140.809128" style="stroke: #000000; stroke-width: 2"/>
      </g>
     </g>
     <g id="text_10">
      <!-- 0.6 -->
      <g transform="translate(29.344 146.993478)scale(0.1728 -0.1728)">
       <defs>
        <path id="ArialMT-36" d="M 3184 3459 
L 2625 3416 
Q 2550 3747 2413 3897 
Q 2184 4138 1850 4138 
Q 1581 4138 1378 3988 
Q 1113 3794 959 3422 
Q 806 3050 800 2363 
Q 1003 2672 1297 2822 
Q 1591 2972 1913 2972 
Q 2475 2972 2870 2558 
Q 3266 2144 3266 1488 
Q 3266 1056 3080 686 
Q 2894 316 2569 119 
Q 2244 -78 1831 -78 
Q 1128 -78 684 439 
Q 241 956 241 2144 
Q 241 3472 731 4075 
Q 1159 4600 1884 4600 
Q 2425 4600 2770 4297 
Q 3116 3994 3184 3459 
z
M 888 1484 
Q 888 1194 1011 928 
Q 1134 663 1356 523 
Q 1578 384 1822 384 
Q 2178 384 2434 671 
Q 2691 959 2691 1453 
Q 2691 1928 2437 2201 
Q 2184 2475 1800 2475 
Q 1419 2475 1153 2201 
Q 888 1928 888 1484 
z
" transform="scale(0.015625)"/>
       </defs>
       <use xlink:href="#ArialMT-30"/>
       <use xlink:href="#ArialMT-2e" x="55.615234"/>
       <use xlink:href="#ArialMT-36" x="83.398438"/>
      </g>
     </g>
    </g>
    <g id="ytick_4">
     <g id="line2d_10">
      <g>
       <use xlink:href="#meb12f26901" x="64.8632" y="88.963713" style="stroke: #000000; stroke-width: 2"/>
      </g>
     </g>
     <g id="text_11">
      <!-- 0.8 -->
      <g transform="translate(29.344 95.148063)scale(0.1728 -0.1728)">
       <defs>
        <path id="ArialMT-38" d="M 1131 2484 
Q 781 2613 612 2850 
Q 444 3088 444 3419 
Q 444 3919 803 4259 
Q 1163 4600 1759 4600 
Q 2359 4600 2725 4251 
Q 3091 3903 3091 3403 
Q 3091 3084 2923 2848 
Q 2756 2613 2416 2484 
Q 2838 2347 3058 2040 
Q 3278 1734 3278 1309 
Q 3278 722 2862 322 
Q 2447 -78 1769 -78 
Q 1091 -78 675 323 
Q 259 725 259 1325 
Q 259 1772 486 2073 
Q 713 2375 1131 2484 
z
M 1019 3438 
Q 1019 3113 1228 2906 
Q 1438 2700 1772 2700 
Q 2097 2700 2305 2904 
Q 2513 3109 2513 3406 
Q 2513 3716 2298 3927 
Q 2084 4138 1766 4138 
Q 1444 4138 1231 3931 
Q 1019 3725 1019 3438 
z
M 838 1322 
Q 838 1081 952 856 
Q 1066 631 1291 507 
Q 1516 384 1775 384 
Q 2178 384 2440 643 
Q 2703 903 2703 1303 
Q 2703 1709 2433 1975 
Q 2163 2241 1756 2241 
Q 1359 2241 1098 1978 
Q 838 1716 838 1322 
z
" transform="scale(0.015625)"/>
       </defs>
       <use xlink:href="#ArialMT-30"/>
       <use xlink:href="#ArialMT-2e" x="55.615234"/>
       <use xlink:href="#ArialMT-38" x="83.398438"/>
      </g>
     </g>
    </g>
    <g id="ytick_5">
     <g id="line2d_11">
      <g>
       <use xlink:href="#meb12f26901" x="64.8632" y="37.118297" style="stroke: #000000; stroke-width: 2"/>
      </g>
     </g>
     <g id="text_12">
      <!-- 1.0 -->
      <g transform="translate(29.344 43.302647)scale(0.1728 -0.1728)">
       <use xlink:href="#ArialMT-31"/>
       <use xlink:href="#ArialMT-2e" x="55.615234"/>
       <use xlink:href="#ArialMT-30" x="83.398438"/>
      </g>
     </g>
    </g>
    <g id="text_13">
     <!-- Cosine Similarity \wrt LN$^+$ -->
     <g transform="translate(21.5424 254.53685)rotate(-90)scale(0.1728 -0.1728)">
      <defs>
       <path id="ArialMT-43" d="M 3763 1606 
L 4369 1453 
Q 4178 706 3683 314 
Q 3188 -78 2472 -78 
Q 1731 -78 1267 223 
Q 803 525 561 1097 
Q 319 1669 319 2325 
Q 319 3041 592 3573 
Q 866 4106 1370 4382 
Q 1875 4659 2481 4659 
Q 3169 4659 3637 4309 
Q 4106 3959 4291 3325 
L 3694 3184 
Q 3534 3684 3231 3912 
Q 2928 4141 2469 4141 
Q 1941 4141 1586 3887 
Q 1231 3634 1087 3207 
Q 944 2781 944 2328 
Q 944 1744 1114 1308 
Q 1284 872 1643 656 
Q 2003 441 2422 441 
Q 2931 441 3284 734 
Q 3638 1028 3763 1606 
z
" transform="scale(0.015625)"/>
       <path id="ArialMT-73" d="M 197 991 
L 753 1078 
Q 800 744 1014 566 
Q 1228 388 1613 388 
Q 2000 388 2187 545 
Q 2375 703 2375 916 
Q 2375 1106 2209 1216 
Q 2094 1291 1634 1406 
Q 1016 1563 777 1677 
Q 538 1791 414 1992 
Q 291 2194 291 2438 
Q 291 2659 392 2848 
Q 494 3038 669 3163 
Q 800 3259 1026 3326 
Q 1253 3394 1513 3394 
Q 1903 3394 2198 3281 
Q 2494 3169 2634 2976 
Q 2775 2784 2828 2463 
L 2278 2388 
Q 2241 2644 2061 2787 
Q 1881 2931 1553 2931 
Q 1166 2931 1000 2803 
Q 834 2675 834 2503 
Q 834 2394 903 2306 
Q 972 2216 1119 2156 
Q 1203 2125 1616 2013 
Q 2213 1853 2448 1751 
Q 2684 1650 2818 1456 
Q 2953 1263 2953 975 
Q 2953 694 2789 445 
Q 2625 197 2315 61 
Q 2006 -75 1616 -75 
Q 969 -75 630 194 
Q 291 463 197 991 
z
" transform="scale(0.015625)"/>
       <path id="ArialMT-69" d="M 425 3934 
L 425 4581 
L 988 4581 
L 988 3934 
L 425 3934 
z
M 425 0 
L 425 3319 
L 988 3319 
L 988 0 
L 425 0 
z
" transform="scale(0.015625)"/>
       <path id="ArialMT-6e" d="M 422 0 
L 422 3319 
L 928 3319 
L 928 2847 
Q 1294 3394 1984 3394 
Q 2284 3394 2536 3286 
Q 2788 3178 2913 3003 
Q 3038 2828 3088 2588 
Q 3119 2431 3119 2041 
L 3119 0 
L 2556 0 
L 2556 2019 
Q 2556 2363 2490 2533 
Q 2425 2703 2258 2804 
Q 2091 2906 1866 2906 
Q 1506 2906 1245 2678 
Q 984 2450 984 1813 
L 984 0 
L 422 0 
z
" transform="scale(0.015625)"/>
       <path id="ArialMT-65" d="M 2694 1069 
L 3275 997 
Q 3138 488 2766 206 
Q 2394 -75 1816 -75 
Q 1088 -75 661 373 
Q 234 822 234 1631 
Q 234 2469 665 2931 
Q 1097 3394 1784 3394 
Q 2450 3394 2872 2941 
Q 3294 2488 3294 1666 
Q 3294 1616 3291 1516 
L 816 1516 
Q 847 969 1125 678 
Q 1403 388 1819 388 
Q 2128 388 2347 550 
Q 2566 713 2694 1069 
z
M 847 1978 
L 2700 1978 
Q 2663 2397 2488 2606 
Q 2219 2931 1791 2931 
Q 1403 2931 1139 2672 
Q 875 2413 847 1978 
z
" transform="scale(0.015625)"/>
       <path id="ArialMT-20" transform="scale(0.015625)"/>
       <path id="ArialMT-53" d="M 288 1472 
L 859 1522 
Q 900 1178 1048 958 
Q 1197 738 1509 602 
Q 1822 466 2213 466 
Q 2559 466 2825 569 
Q 3091 672 3220 851 
Q 3350 1031 3350 1244 
Q 3350 1459 3225 1620 
Q 3100 1781 2813 1891 
Q 2628 1963 1997 2114 
Q 1366 2266 1113 2400 
Q 784 2572 623 2826 
Q 463 3081 463 3397 
Q 463 3744 659 4045 
Q 856 4347 1234 4503 
Q 1613 4659 2075 4659 
Q 2584 4659 2973 4495 
Q 3363 4331 3572 4012 
Q 3781 3694 3797 3291 
L 3216 3247 
Q 3169 3681 2898 3903 
Q 2628 4125 2100 4125 
Q 1550 4125 1298 3923 
Q 1047 3722 1047 3438 
Q 1047 3191 1225 3031 
Q 1400 2872 2139 2705 
Q 2878 2538 3153 2413 
Q 3553 2228 3743 1945 
Q 3934 1663 3934 1294 
Q 3934 928 3725 604 
Q 3516 281 3123 101 
Q 2731 -78 2241 -78 
Q 1619 -78 1198 103 
Q 778 284 539 648 
Q 300 1013 288 1472 
z
" transform="scale(0.015625)"/>
       <path id="ArialMT-6d" d="M 422 0 
L 422 3319 
L 925 3319 
L 925 2853 
Q 1081 3097 1340 3245 
Q 1600 3394 1931 3394 
Q 2300 3394 2536 3241 
Q 2772 3088 2869 2813 
Q 3263 3394 3894 3394 
Q 4388 3394 4653 3120 
Q 4919 2847 4919 2278 
L 4919 0 
L 4359 0 
L 4359 2091 
Q 4359 2428 4304 2576 
Q 4250 2725 4106 2815 
Q 3963 2906 3769 2906 
Q 3419 2906 3187 2673 
Q 2956 2441 2956 1928 
L 2956 0 
L 2394 0 
L 2394 2156 
Q 2394 2531 2256 2718 
Q 2119 2906 1806 2906 
Q 1569 2906 1367 2781 
Q 1166 2656 1075 2415 
Q 984 2175 984 1722 
L 984 0 
L 422 0 
z
" transform="scale(0.015625)"/>
       <path id="ArialMT-6c" d="M 409 0 
L 409 4581 
L 972 4581 
L 972 0 
L 409 0 
z
" transform="scale(0.015625)"/>
       <path id="ArialMT-61" d="M 2588 409 
Q 2275 144 1986 34 
Q 1697 -75 1366 -75 
Q 819 -75 525 192 
Q 231 459 231 875 
Q 231 1119 342 1320 
Q 453 1522 633 1644 
Q 813 1766 1038 1828 
Q 1203 1872 1538 1913 
Q 2219 1994 2541 2106 
Q 2544 2222 2544 2253 
Q 2544 2597 2384 2738 
Q 2169 2928 1744 2928 
Q 1347 2928 1158 2789 
Q 969 2650 878 2297 
L 328 2372 
Q 403 2725 575 2942 
Q 747 3159 1072 3276 
Q 1397 3394 1825 3394 
Q 2250 3394 2515 3294 
Q 2781 3194 2906 3042 
Q 3031 2891 3081 2659 
Q 3109 2516 3109 2141 
L 3109 1391 
Q 3109 606 3145 398 
Q 3181 191 3288 0 
L 2700 0 
Q 2613 175 2588 409 
z
M 2541 1666 
Q 2234 1541 1622 1453 
Q 1275 1403 1131 1340 
Q 988 1278 909 1158 
Q 831 1038 831 891 
Q 831 666 1001 516 
Q 1172 366 1500 366 
Q 1825 366 2078 508 
Q 2331 650 2450 897 
Q 2541 1088 2541 1459 
L 2541 1666 
z
" transform="scale(0.015625)"/>
       <path id="ArialMT-72" d="M 416 0 
L 416 3319 
L 922 3319 
L 922 2816 
Q 1116 3169 1280 3281 
Q 1444 3394 1641 3394 
Q 1925 3394 2219 3213 
L 2025 2691 
Q 1819 2813 1613 2813 
Q 1428 2813 1281 2702 
Q 1134 2591 1072 2394 
Q 978 2094 978 1738 
L 978 0 
L 416 0 
z
" transform="scale(0.015625)"/>
       <path id="ArialMT-74" d="M 1650 503 
L 1731 6 
Q 1494 -44 1306 -44 
Q 1000 -44 831 53 
Q 663 150 594 308 
Q 525 466 525 972 
L 525 2881 
L 113 2881 
L 113 3319 
L 525 3319 
L 525 4141 
L 1084 4478 
L 1084 3319 
L 1650 3319 
L 1650 2881 
L 1084 2881 
L 1084 941 
Q 1084 700 1114 631 
Q 1144 563 1211 522 
Q 1278 481 1403 481 
Q 1497 481 1650 503 
z
" transform="scale(0.015625)"/>
       <path id="ArialMT-79" d="M 397 -1278 
L 334 -750 
Q 519 -800 656 -800 
Q 844 -800 956 -737 
Q 1069 -675 1141 -563 
Q 1194 -478 1313 -144 
Q 1328 -97 1363 -6 
L 103 3319 
L 709 3319 
L 1400 1397 
Q 1534 1031 1641 628 
Q 1738 1016 1872 1384 
L 2581 3319 
L 3144 3319 
L 1881 -56 
Q 1678 -603 1566 -809 
Q 1416 -1088 1222 -1217 
Q 1028 -1347 759 -1347 
Q 597 -1347 397 -1278 
z
" transform="scale(0.015625)"/>
       <path id="ArialMT-5c" d="M 1328 -78 
L 0 4659 
L 453 4659 
L 1778 -78 
L 1328 -78 
z
" transform="scale(0.015625)"/>
       <path id="ArialMT-77" d="M 1034 0 
L 19 3319 
L 600 3319 
L 1128 1403 
L 1325 691 
Q 1338 744 1497 1375 
L 2025 3319 
L 2603 3319 
L 3100 1394 
L 3266 759 
L 3456 1400 
L 4025 3319 
L 4572 3319 
L 3534 0 
L 2950 0 
L 2422 1988 
L 2294 2553 
L 1622 0 
L 1034 0 
z
" transform="scale(0.015625)"/>
       <path id="ArialMT-4c" d="M 469 0 
L 469 4581 
L 1075 4581 
L 1075 541 
L 3331 541 
L 3331 0 
L 469 0 
z
" transform="scale(0.015625)"/>
       <path id="ArialMT-4e" d="M 488 0 
L 488 4581 
L 1109 4581 
L 3516 984 
L 3516 4581 
L 4097 4581 
L 4097 0 
L 3475 0 
L 1069 3600 
L 1069 0 
L 488 0 
z
" transform="scale(0.015625)"/>
       <path id="DejaVuSans-2b" d="M 2944 4013 
L 2944 2272 
L 4684 2272 
L 4684 1741 
L 2944 1741 
L 2944 0 
L 2419 0 
L 2419 1741 
L 678 1741 
L 678 2272 
L 2419 2272 
L 2419 4013 
L 2944 4013 
z
" transform="scale(0.015625)"/>
      </defs>
      <use xlink:href="#ArialMT-43" transform="translate(0 0.826562)"/>
      <use xlink:href="#ArialMT-6f" transform="translate(72.216797 0.826562)"/>
      <use xlink:href="#ArialMT-73" transform="translate(127.832031 0.826562)"/>
      <use xlink:href="#ArialMT-69" transform="translate(177.832031 0.826562)"/>
      <use xlink:href="#ArialMT-6e" transform="translate(200.048828 0.826562)"/>
      <use xlink:href="#ArialMT-65" transform="translate(255.664062 0.826562)"/>
      <use xlink:href="#ArialMT-20" transform="translate(311.279297 0.826562)"/>
      <use xlink:href="#ArialMT-53" transform="translate(339.0625 0.826562)"/>
      <use xlink:href="#ArialMT-69" transform="translate(405.761719 0.826562)"/>
      <use xlink:href="#ArialMT-6d" transform="translate(427.978516 0.826562)"/>
      <use xlink:href="#ArialMT-69" transform="translate(511.279297 0.826562)"/>
      <use xlink:href="#ArialMT-6c" transform="translate(533.496094 0.826562)"/>
      <use xlink:href="#ArialMT-61" transform="translate(555.712891 0.826562)"/>
      <use xlink:href="#ArialMT-72" transform="translate(611.328125 0.826562)"/>
      <use xlink:href="#ArialMT-69" transform="translate(644.628906 0.826562)"/>
      <use xlink:href="#ArialMT-74" transform="translate(666.845703 0.826562)"/>
      <use xlink:href="#ArialMT-79" transform="translate(694.628906 0.826562)"/>
      <use xlink:href="#ArialMT-20" transform="translate(744.628906 0.826562)"/>
      <use xlink:href="#ArialMT-5c" transform="translate(772.412109 0.826562)"/>
      <use xlink:href="#ArialMT-77" transform="translate(800.195312 0.826562)"/>
      <use xlink:href="#ArialMT-72" transform="translate(872.412109 0.826562)"/>
      <use xlink:href="#ArialMT-74" transform="translate(905.712891 0.826562)"/>
      <use xlink:href="#ArialMT-20" transform="translate(933.496094 0.826562)"/>
      <use xlink:href="#ArialMT-4c" transform="translate(961.279297 0.826562)"/>
      <use xlink:href="#ArialMT-4e" transform="translate(1016.894531 0.826562)"/>
      <use xlink:href="#DejaVuSans-2b" transform="translate(1103.706055 39.107812)scale(0.7)"/>
     </g>
    </g>
   </g>
   <g id="line2d_12">
    <path d="M 82.009418 37.293383 
L 89.007875 37.499885 
L 96.006331 37.584609 
L 103.004787 37.756804 
L 110.003244 38.903632 
L 117.0017 39.075339 
L 124.000157 39.201319 
L 130.998613 39.093857 
L 137.997069 39.094044 
L 144.995526 38.823152 
L 151.993982 38.953798 
L 158.992439 38.823601 
L 165.990895 38.608144 
L 172.989351 38.689884 
L 179.987808 38.412508 
L 186.986264 38.188096 
L 193.984721 38.033315 
L 200.983177 37.930151 
L 207.981633 37.798092 
L 214.98009 37.775538 
L 221.978546 37.727029 
L 228.977003 37.732534 
L 235.975459 37.758939 
L 242.973915 37.74568 
L 249.972372 37.74455 
L 256.970828 37.770479 
L 263.969285 37.813275 
L 270.967741 37.847891 
L 277.966197 37.905807 
L 284.964654 37.934841 
L 291.96311 37.983937 
L 298.961567 38.020598 
L 305.960023 38.06315 
L 312.958479 38.10781 
L 319.956936 38.12533 
L 326.955392 38.217994 
L 333.953849 38.355716 
L 340.952305 38.36928 
L 347.950761 38.463171 
L 354.949218 38.524996 
L 361.947674 38.610628 
L 368.946131 38.707465 
L 375.944587 38.82396 
L 382.943043 39.030804 
L 389.9415 39.138735 
L 396.939956 39.207917 
L 403.938413 39.361817 
L 410.936869 39.240507 
L 417.935325 39.687212 
L 424.933782 39.473532 
" clip-path="url(#pe578205943)" style="fill: none; stroke: #595c79; stroke-width: 2.5; stroke-linecap: square"/>
   </g>
   <g id="line2d_13">
    <path d="M 82.009418 37.307333 
L 89.007875 37.628594 
L 96.006331 39.24215 
L 103.004787 39.385465 
L 110.003244 39.265455 
L 117.0017 39.328819 
L 124.000157 39.325889 
L 130.998613 39.094884 
L 137.997069 38.850034 
L 144.995526 38.761606 
L 151.993982 38.65014 
L 158.992439 38.289799 
L 165.990895 38.108089 
L 172.989351 37.874797 
L 179.987808 37.821159 
L 186.986264 37.917601 
L 193.984721 37.690211 
L 200.983177 37.721975 
L 207.981633 37.829013 
L 214.98009 37.721 
L 221.978546 37.904484 
L 228.977003 37.982128 
L 235.975459 37.990118 
L 242.973915 37.988703 
L 249.972372 38.122215 
L 256.970828 37.948654 
L 263.969285 38.032917 
L 270.967741 38.142095 
L 277.966197 38.220398 
L 284.964654 38.318725 
L 291.96311 38.382288 
L 298.961567 38.578875 
L 305.960023 38.358396 
L 312.958479 38.707198 
L 319.956936 38.470432 
L 326.955392 38.832597 
L 333.953849 38.751554 
L 340.952305 38.746656 
L 347.950761 38.848788 
L 354.949218 39.043819 
L 361.947674 39.986574 
L 368.946131 39.207326 
L 375.944587 39.910771 
L 382.943043 39.478963 
L 389.9415 39.48608 
L 396.939956 39.591634 
L 403.938413 39.476891 
L 410.936869 39.633138 
L 417.935325 39.892706 
L 424.933782 40.133142 
" clip-path="url(#pe578205943)" style="fill: none; stroke: #7f909f; stroke-width: 2.5; stroke-linecap: square"/>
   </g>
   <g id="line2d_14">
    <path d="M 82.009418 37.337709 
L 89.007875 38.816528 
L 96.006331 40.246745 
L 103.004787 39.761571 
L 110.003244 39.705637 
L 117.0017 39.504472 
L 124.000157 40.244815 
L 130.998613 39.870252 
L 137.997069 39.778697 
L 144.995526 41.285465 
L 151.993982 41.009452 
L 158.992439 40.053504 
L 165.990895 39.808368 
L 172.989351 39.350104 
L 179.987808 38.526159 
L 186.986264 38.450989 
L 193.984721 40.179951 
L 200.983177 40.181998 
L 207.981633 40.16994 
L 214.98009 39.496011 
L 221.978546 39.952596 
L 228.977003 39.531382 
L 235.975459 39.863982 
L 242.973915 39.635764 
L 249.972372 40.111913 
L 256.970828 40.147045 
L 263.969285 40.639961 
L 270.967741 40.814332 
L 277.966197 40.84601 
L 284.964654 41.362266 
L 291.96311 40.785311 
L 298.961567 41.45887 
L 305.960023 41.167701 
L 312.958479 41.96584 
L 319.956936 41.047922 
L 326.955392 41.845239 
L 333.953849 41.393398 
L 340.952305 42.765494 
L 347.950761 42.535029 
L 354.949218 41.917962 
L 361.947674 42.272851 
L 368.946131 43.74596 
L 375.944587 42.170399 
L 382.943043 43.488336 
L 389.9415 43.887624 
L 396.939956 44.127134 
L 403.938413 43.685722 
L 410.936869 44.396604 
L 417.935325 45.011971 
L 424.933782 44.312249 
" clip-path="url(#pe578205943)" style="fill: none; stroke: #a4c2c3; stroke-width: 2.5; stroke-linecap: square"/>
   </g>
   <g id="line2d_15">
    <path d="M 82.009418 39.859606 
L 89.007875 41.472126 
L 96.006331 41.64958 
L 103.004787 44.89451 
L 110.003244 43.929624 
L 117.0017 46.046012 
L 124.000157 47.239047 
L 130.998613 50.194495 
L 137.997069 50.275327 
L 144.995526 49.414637 
L 151.993982 53.206005 
L 158.992439 49.954731 
L 165.990895 52.626914 
L 172.989351 50.793532 
L 179.987808 53.007823 
L 186.986264 53.150493 
L 193.984721 52.67405 
L 200.983177 53.565801 
L 207.981633 56.643795 
L 214.98009 55.180569 
L 221.978546 58.295246 
L 228.977003 58.540011 
L 235.975459 60.274007 
L 242.973915 60.548869 
L 249.972372 60.85422 
L 256.970828 60.786062 
L 263.969285 59.859861 
L 270.967741 59.699013 
L 277.966197 61.663147 
L 284.964654 60.41952 
L 291.96311 62.683257 
L 298.961567 62.470695 
L 305.960023 62.37438 
L 312.958479 62.214206 
L 319.956936 61.987106 
L 326.955392 63.036186 
L 333.953849 64.168782 
L 340.952305 64.034061 
L 347.950761 65.192433 
L 354.949218 63.891576 
L 361.947674 66.905345 
L 368.946131 66.154232 
L 375.944587 65.301744 
L 382.943043 66.652168 
L 389.9415 68.326386 
L 396.939956 68.482969 
L 403.938413 70.224936 
L 410.936869 69.734654 
L 417.935325 71.013198 
L 424.933782 71.004466 
" clip-path="url(#pe578205943)" style="fill: none; stroke: #dde9e9; stroke-width: 2.5; stroke-linecap: square"/>
   </g>
   <g id="line2d_16">
    <path d="M 82.009418 223.493431 
L 89.007875 227.404223 
L 96.006331 232.068609 
L 103.004787 235.493809 
L 110.003244 238.527024 
L 117.0017 240.923059 
L 124.000157 241.919575 
L 130.998613 242.875799 
L 137.997069 243.60371 
L 144.995526 244.235977 
L 151.993982 244.229071 
L 158.992439 244.597768 
L 165.990895 245.094515 
L 172.989351 245.363583 
L 179.987808 245.734916 
L 186.986264 245.919088 
L 193.984721 246.259076 
L 200.983177 246.181623 
L 207.981633 245.953173 
L 214.98009 246.635835 
L 221.978546 246.526386 
L 228.977003 246.954173 
L 235.975459 247.119891 
L 242.973915 247.49006 
L 249.972372 247.20511 
L 256.970828 247.441192 
L 263.969285 247.643208 
L 270.967741 247.59385 
L 277.966197 247.57244 
L 284.964654 247.448757 
L 291.96311 247.519422 
L 298.961567 247.348043 
L 305.960023 247.82817 
L 312.958479 247.584382 
L 319.956936 247.656274 
L 326.955392 247.664618 
L 333.953849 247.506462 
L 340.952305 247.811467 
L 347.950761 248.007063 
L 354.949218 247.529448 
L 361.947674 247.703526 
L 368.946131 247.918671 
L 375.944587 247.925077 
L 382.943043 248.402047 
L 389.9415 248.090958 
L 396.939956 247.721143 
L 403.938413 247.918704 
L 410.936869 247.413341 
L 417.935325 247.925524 
L 424.933782 247.856066 
" clip-path="url(#pe578205943)" style="fill: none; stroke-dasharray: 20,10; stroke-dashoffset: 0; stroke: #595c79; stroke-width: 2.5"/>
   </g>
   <g id="line2d_17">
    <path d="M 82.009418 222.384921 
L 89.007875 228.370483 
L 96.006331 234.65854 
L 103.004787 239.229602 
L 110.003244 241.745236 
L 117.0017 243.502345 
L 124.000157 244.741377 
L 130.998613 244.794642 
L 137.997069 246.068761 
L 144.995526 247.260854 
L 151.993982 247.950446 
L 158.992439 249.089708 
L 165.990895 249.369344 
L 172.989351 249.173261 
L 179.987808 249.716166 
L 186.986264 250.464525 
L 193.984721 250.558674 
L 200.983177 250.628766 
L 207.981633 249.991982 
L 214.98009 250.60055 
L 221.978546 250.633965 
L 228.977003 251.206745 
L 235.975459 250.529098 
L 242.973915 251.198623 
L 249.972372 251.965266 
L 256.970828 250.702813 
L 263.969285 250.352651 
L 270.967741 251.580985 
L 277.966197 250.599992 
L 284.964654 251.88539 
L 291.96311 251.19624 
L 298.961567 251.018543 
L 305.960023 251.447343 
L 312.958479 251.078109 
L 319.956936 250.755232 
L 326.955392 251.459849 
L 333.953849 251.437789 
L 340.952305 250.499478 
L 347.950761 249.827233 
L 354.949218 250.428722 
L 361.947674 251.098438 
L 368.946131 251.200121 
L 375.944587 251.66459 
L 382.943043 250.180512 
L 389.9415 250.605602 
L 396.939956 249.380173 
L 403.938413 249.515405 
L 410.936869 248.877779 
L 417.935325 250.405796 
L 424.933782 248.963157 
" clip-path="url(#pe578205943)" style="fill: none; stroke-dasharray: 20,10; stroke-dashoffset: 0; stroke: #7f909f; stroke-width: 2.5"/>
   </g>
   <g id="line2d_18">
    <path d="M 82.009418 223.236635 
L 89.007875 229.205598 
L 96.006331 237.913426 
L 103.004787 243.063642 
L 110.003244 243.798406 
L 117.0017 242.121267 
L 124.000157 246.311716 
L 130.998613 247.263279 
L 137.997069 249.453363 
L 144.995526 247.914962 
L 151.993982 245.539019 
L 158.992439 250.6359 
L 165.990895 252.629404 
L 172.989351 249.381664 
L 179.987808 249.531624 
L 186.986264 251.425542 
L 193.984721 253.170688 
L 200.983177 251.622648 
L 207.981633 251.954597 
L 214.98009 252.81769 
L 221.978546 253.284328 
L 228.977003 252.230363 
L 235.975459 252.864805 
L 242.973915 254.922505 
L 249.972372 252.960388 
L 256.970828 253.524965 
L 263.969285 250.534565 
L 270.967741 251.911055 
L 277.966197 251.085792 
L 284.964654 253.263502 
L 291.96311 253.386544 
L 298.961567 253.185465 
L 305.960023 253.831487 
L 312.958479 253.73837 
L 319.956936 254.448893 
L 326.955392 254.783008 
L 333.953849 251.855862 
L 340.952305 255.166591 
L 347.950761 252.484124 
L 354.949218 253.2501 
L 361.947674 253.018084 
L 368.946131 252.65738 
L 375.944587 252.075085 
L 382.943043 252.648988 
L 389.9415 250.627541 
L 396.939956 251.928801 
L 403.938413 250.803453 
L 410.936869 251.315585 
L 417.935325 251.908158 
L 424.933782 251.926306 
" clip-path="url(#pe578205943)" style="fill: none; stroke-dasharray: 20,10; stroke-dashoffset: 0; stroke: #a4c2c3; stroke-width: 2.5"/>
   </g>
   <g id="line2d_19">
    <path d="M 82.009418 230.261481 
L 89.007875 235.46935 
L 96.006331 239.57011 
L 103.004787 244.374144 
L 110.003244 245.643509 
L 117.0017 244.839962 
L 124.000157 246.759051 
L 130.998613 245.946783 
L 137.997069 248.916024 
L 144.995526 247.643435 
L 151.993982 247.158793 
L 158.992439 246.374613 
L 165.990895 244.971605 
L 172.989351 247.286824 
L 179.987808 247.573259 
L 186.986264 246.039727 
L 193.984721 245.722291 
L 200.983177 246.154761 
L 207.981633 246.107823 
L 214.98009 246.575012 
L 221.978546 247.121684 
L 228.977003 247.062583 
L 235.975459 248.3927 
L 242.973915 246.563866 
L 249.972372 245.087014 
L 256.970828 246.547943 
L 263.969285 246.426192 
L 270.967741 245.667116 
L 277.966197 245.362466 
L 284.964654 245.991879 
L 291.96311 246.302953 
L 298.961567 244.752803 
L 305.960023 246.772583 
L 312.958479 245.576101 
L 319.956936 246.720217 
L 326.955392 244.360927 
L 333.953849 246.696247 
L 340.952305 246.743565 
L 347.950761 245.827324 
L 354.949218 243.994391 
L 361.947674 245.204268 
L 368.946131 243.692137 
L 375.944587 244.171467 
L 382.943043 242.017403 
L 389.9415 242.394698 
L 396.939956 243.380469 
L 403.938413 244.949658 
L 410.936869 243.574244 
L 417.935325 244.458768 
L 424.933782 243.3156 
" clip-path="url(#pe578205943)" style="fill: none; stroke-dasharray: 20,10; stroke-dashoffset: 0; stroke: #dde9e9; stroke-width: 2.5"/>
   </g>
   <g id="patch_3">
    <path d="M 64.8632 279.7738 
L 64.8632 25.5687 
" style="fill: none; stroke: #000000; stroke-width: 1.5; stroke-linejoin: miter; stroke-linecap: square"/>
   </g>
   <g id="patch_4">
    <path d="M 64.8632 279.7738 
L 442.08 279.7738 
" style="fill: none; stroke: #000000; stroke-width: 1.5; stroke-linejoin: miter; stroke-linecap: square"/>
   </g>
   <g id="text_14">
    <!-- I-Norm -->
    <g transform="translate(227.0764 19.5687)scale(0.1728 -0.1728)">
     <defs>
      <path id="ArialMT-49" d="M 597 0 
L 597 4581 
L 1203 4581 
L 1203 0 
L 597 0 
z
" transform="scale(0.015625)"/>
      <path id="ArialMT-2d" d="M 203 1375 
L 203 1941 
L 1931 1941 
L 1931 1375 
L 203 1375 
z
" transform="scale(0.015625)"/>
     </defs>
     <use xlink:href="#ArialMT-49"/>
     <use xlink:href="#ArialMT-2d" x="27.783203"/>
     <use xlink:href="#ArialMT-4e" x="61.083984"/>
     <use xlink:href="#ArialMT-6f" x="133.300781"/>
     <use xlink:href="#ArialMT-72" x="188.916016"/>
     <use xlink:href="#ArialMT-6d" x="222.216797"/>
    </g>
   </g>
   <g id="legend_1">
    <g id="patch_5">
     <path d="M 227.7297 180.12485 
L 429.984 180.12485 
Q 433.44 180.12485 433.44 176.66885 
L 433.44 128.67365 
Q 433.44 125.21765 429.984 125.21765 
L 227.7297 125.21765 
Q 224.2737 125.21765 224.2737 128.67365 
L 224.2737 176.66885 
Q 224.2737 180.12485 227.7297 180.12485 
z
" style="fill: #ffffff; opacity: 0.8; stroke: #cccccc; stroke-width: 2.5; stroke-linejoin: miter"/>
    </g>
    <g id="line2d_20">
     <path d="M 231.1857 138.67175 
L 248.4657 138.67175 
L 265.7457 138.67175 
" style="fill: none; stroke: #000000; stroke-width: 2.5; stroke-linecap: square"/>
    </g>
    <g id="text_15">
     <!-- Output Alignment -->
     <g transform="translate(279.5697 144.71975)scale(0.1728 -0.1728)">
      <defs>
       <path id="ArialMT-4f" d="M 309 2231 
Q 309 3372 921 4017 
Q 1534 4663 2503 4663 
Q 3138 4663 3647 4359 
Q 4156 4056 4423 3514 
Q 4691 2972 4691 2284 
Q 4691 1588 4409 1038 
Q 4128 488 3612 205 
Q 3097 -78 2500 -78 
Q 1853 -78 1343 234 
Q 834 547 571 1087 
Q 309 1628 309 2231 
z
M 934 2222 
Q 934 1394 1379 917 
Q 1825 441 2497 441 
Q 3181 441 3623 922 
Q 4066 1403 4066 2288 
Q 4066 2847 3877 3264 
Q 3688 3681 3323 3911 
Q 2959 4141 2506 4141 
Q 1863 4141 1398 3698 
Q 934 3256 934 2222 
z
" transform="scale(0.015625)"/>
       <path id="ArialMT-75" d="M 2597 0 
L 2597 488 
Q 2209 -75 1544 -75 
Q 1250 -75 995 37 
Q 741 150 617 320 
Q 494 491 444 738 
Q 409 903 409 1263 
L 409 3319 
L 972 3319 
L 972 1478 
Q 972 1038 1006 884 
Q 1059 663 1231 536 
Q 1403 409 1656 409 
Q 1909 409 2131 539 
Q 2353 669 2445 892 
Q 2538 1116 2538 1541 
L 2538 3319 
L 3100 3319 
L 3100 0 
L 2597 0 
z
" transform="scale(0.015625)"/>
       <path id="ArialMT-41" d="M -9 0 
L 1750 4581 
L 2403 4581 
L 4278 0 
L 3588 0 
L 3053 1388 
L 1138 1388 
L 634 0 
L -9 0 
z
M 1313 1881 
L 2866 1881 
L 2388 3150 
Q 2169 3728 2063 4100 
Q 1975 3659 1816 3225 
L 1313 1881 
z
" transform="scale(0.015625)"/>
       <path id="ArialMT-67" d="M 319 -275 
L 866 -356 
Q 900 -609 1056 -725 
Q 1266 -881 1628 -881 
Q 2019 -881 2231 -725 
Q 2444 -569 2519 -288 
Q 2563 -116 2559 434 
Q 2191 0 1641 0 
Q 956 0 581 494 
Q 206 988 206 1678 
Q 206 2153 378 2554 
Q 550 2956 876 3175 
Q 1203 3394 1644 3394 
Q 2231 3394 2613 2919 
L 2613 3319 
L 3131 3319 
L 3131 450 
Q 3131 -325 2973 -648 
Q 2816 -972 2473 -1159 
Q 2131 -1347 1631 -1347 
Q 1038 -1347 672 -1080 
Q 306 -813 319 -275 
z
M 784 1719 
Q 784 1066 1043 766 
Q 1303 466 1694 466 
Q 2081 466 2343 764 
Q 2606 1063 2606 1700 
Q 2606 2309 2336 2618 
Q 2066 2928 1684 2928 
Q 1309 2928 1046 2623 
Q 784 2319 784 1719 
z
" transform="scale(0.015625)"/>
      </defs>
      <use xlink:href="#ArialMT-4f"/>
      <use xlink:href="#ArialMT-75" x="77.783203"/>
      <use xlink:href="#ArialMT-74" x="133.398438"/>
      <use xlink:href="#ArialMT-70" x="161.181641"/>
      <use xlink:href="#ArialMT-75" x="216.796875"/>
      <use xlink:href="#ArialMT-74" x="272.412109"/>
      <use xlink:href="#ArialMT-20" x="300.195312"/>
      <use xlink:href="#ArialMT-41" x="322.478516"/>
      <use xlink:href="#ArialMT-6c" x="389.177734"/>
      <use xlink:href="#ArialMT-69" x="411.394531"/>
      <use xlink:href="#ArialMT-67" x="433.611328"/>
      <use xlink:href="#ArialMT-6e" x="489.226562"/>
      <use xlink:href="#ArialMT-6d" x="544.841797"/>
      <use xlink:href="#ArialMT-65" x="628.142578"/>
      <use xlink:href="#ArialMT-6e" x="683.757812"/>
      <use xlink:href="#ArialMT-74" x="739.373047"/>
     </g>
    </g>
    <g id="line2d_21">
     <path d="M 231.1857 163.52795 
L 248.4657 163.52795 
L 265.7457 163.52795 
" style="fill: none; stroke-dasharray: 20,10; stroke-dashoffset: 0; stroke: #000000; stroke-width: 2.5"/>
    </g>
    <g id="text_16">
     <!-- Gradient Alignment -->
     <g transform="translate(279.5697 169.57595)scale(0.1728 -0.1728)">
      <defs>
       <path id="ArialMT-47" d="M 2638 1797 
L 2638 2334 
L 4578 2338 
L 4578 638 
Q 4131 281 3656 101 
Q 3181 -78 2681 -78 
Q 2006 -78 1454 211 
Q 903 500 622 1047 
Q 341 1594 341 2269 
Q 341 2938 620 3517 
Q 900 4097 1425 4378 
Q 1950 4659 2634 4659 
Q 3131 4659 3532 4498 
Q 3934 4338 4162 4050 
Q 4391 3763 4509 3300 
L 3963 3150 
Q 3859 3500 3706 3700 
Q 3553 3900 3268 4020 
Q 2984 4141 2638 4141 
Q 2222 4141 1919 4014 
Q 1616 3888 1430 3681 
Q 1244 3475 1141 3228 
Q 966 2803 966 2306 
Q 966 1694 1177 1281 
Q 1388 869 1791 669 
Q 2194 469 2647 469 
Q 3041 469 3416 620 
Q 3791 772 3984 944 
L 3984 1797 
L 2638 1797 
z
" transform="scale(0.015625)"/>
       <path id="ArialMT-64" d="M 2575 0 
L 2575 419 
Q 2259 -75 1647 -75 
Q 1250 -75 917 144 
Q 584 363 401 755 
Q 219 1147 219 1656 
Q 219 2153 384 2558 
Q 550 2963 881 3178 
Q 1213 3394 1622 3394 
Q 1922 3394 2156 3267 
Q 2391 3141 2538 2938 
L 2538 4581 
L 3097 4581 
L 3097 0 
L 2575 0 
z
M 797 1656 
Q 797 1019 1065 703 
Q 1334 388 1700 388 
Q 2069 388 2326 689 
Q 2584 991 2584 1609 
Q 2584 2291 2321 2609 
Q 2059 2928 1675 2928 
Q 1300 2928 1048 2622 
Q 797 2316 797 1656 
z
" transform="scale(0.015625)"/>
      </defs>
      <use xlink:href="#ArialMT-47"/>
      <use xlink:href="#ArialMT-72" x="77.783203"/>
      <use xlink:href="#ArialMT-61" x="111.083984"/>
      <use xlink:href="#ArialMT-64" x="166.699219"/>
      <use xlink:href="#ArialMT-69" x="222.314453"/>
      <use xlink:href="#ArialMT-65" x="244.53125"/>
      <use xlink:href="#ArialMT-6e" x="300.146484"/>
      <use xlink:href="#ArialMT-74" x="355.761719"/>
      <use xlink:href="#ArialMT-20" x="383.544922"/>
      <use xlink:href="#ArialMT-41" x="405.828125"/>
      <use xlink:href="#ArialMT-6c" x="472.527344"/>
      <use xlink:href="#ArialMT-69" x="494.744141"/>
      <use xlink:href="#ArialMT-67" x="516.960938"/>
      <use xlink:href="#ArialMT-6e" x="572.576172"/>
      <use xlink:href="#ArialMT-6d" x="628.191406"/>
      <use xlink:href="#ArialMT-65" x="711.492188"/>
      <use xlink:href="#ArialMT-6e" x="767.107422"/>
      <use xlink:href="#ArialMT-74" x="822.722656"/>
     </g>
    </g>
   </g>
  </g>
 </g>
 <defs>
  <clipPath id="pe578205943">
   <rect x="64.8632" y="25.5687" width="377.2168" height="254.2051"/>
  </clipPath>
 </defs>
</svg>
