<?xml version="1.0" encoding="utf-8" standalone="no"?>
<!DOCTYPE svg PUBLIC "-//W3C//DTD SVG 1.1//EN"
  "http://www.w3.org/Graphics/SVG/1.1/DTD/svg11.dtd">
<svg xmlns:xlink="http://www.w3.org/1999/xlink" width="852.48pt" height="276.48pt" viewBox="0 0 852.48 276.48" xmlns="http://www.w3.org/2000/svg" version="1.1">
 <metadata>
  <rdf:RDF xmlns:dc="http://purl.org/dc/elements/1.1/" xmlns:cc="http://creativecommons.org/ns#" xmlns:rdf="http://www.w3.org/1999/02/22-rdf-syntax-ns#">
   <cc:Work>
    <dc:type rdf:resource="http://purl.org/dc/dcmitype/StillImage"/>
    <dc:date>2025-08-03T07:12:59.006421</dc:date>
    <dc:format>image/svg+xml</dc:format>
    <dc:creator>
     <cc:Agent>
      <dc:title>Matplotlib v3.5.3, https://matplotlib.org/</dc:title>
     </cc:Agent>
    </dc:creator>
   </cc:Work>
  </rdf:RDF>
 </metadata>
 <defs>
  <style type="text/css">*{stroke-linejoin: round; stroke-linecap: butt}</style>
 </defs>
 <g id="figure_1">
  <g id="patch_1">
   <path d="M 0 276.48 
L 852.48 276.48 
L 852.48 0 
L 0 0 
z
" style="fill: #ffffff"/>
  </g>
  <g id="axes_1">
   <g id="patch_2">
    <path d="M 84.0818 221.9632 
L 845.28 221.9632 
L 845.28 7.2 
L 84.0818 7.2 
z
" style="fill: #ffffff"/>
   </g>
   <g id="PolyCollection_1">
    <defs>
     <path id="m54aa8bb724" d="M 118.681718 -259.518036 
L 118.681718 -151.167362 
L 132.804134 -129.588402 
L 146.926549 -119.059017 
L 161.048965 -108.846431 
L 175.171381 -99.663187 
L 189.293796 -90.088825 
L 203.416212 -86.269584 
L 217.538627 -81.848402 
L 231.661043 -79.638192 
L 245.783458 -80.690214 
L 259.905874 -77.418242 
L 274.02829 -78.172315 
L 288.150705 -78.713565 
L 302.273121 -80.468781 
L 316.395536 -80.868916 
L 330.517952 -75.988892 
L 344.640368 -77.670178 
L 358.762783 -82.558697 
L 372.885199 -78.367106 
L 387.007614 -81.718295 
L 401.13003 -77.005706 
L 415.252445 -84.92839 
L 429.374861 -81.576975 
L 443.497277 -81.686587 
L 457.619692 -77.724535 
L 471.742108 -84.150555 
L 485.864523 -87.432903 
L 499.986939 -75.893953 
L 514.109355 -79.48432 
L 528.23177 -81.204724 
L 542.354186 -87.628034 
L 556.476601 -84.891374 
L 570.599017 -81.99248 
L 584.721432 -81.834679 
L 598.843848 -86.045941 
L 612.966264 -86.294194 
L 627.088679 -81.760698 
L 641.211095 -81.673463 
L 655.33351 -81.73567 
L 669.455926 -87.817525 
L 683.578342 -91.755189 
L 697.700757 -83.244769 
L 711.823173 -83.066426 
L 725.945588 -89.45335 
L 740.068004 -91.913033 
L 754.190419 -84.230444 
L 768.312835 -90.759013 
L 782.435251 -89.469898 
L 796.557666 -91.362176 
L 810.680082 -83.007051 
L 810.680082 -234.970439 
L 810.680082 -234.970439 
L 796.557666 -236.032216 
L 782.435251 -232.928941 
L 768.312835 -233.907404 
L 754.190419 -234.2048 
L 740.068004 -226.144375 
L 725.945588 -234.107847 
L 711.823173 -236.758933 
L 697.700757 -238.842867 
L 683.578342 -238.485998 
L 669.455926 -238.85849 
L 655.33351 -235.274663 
L 641.211095 -237.503907 
L 627.088679 -239.965591 
L 612.966264 -242.366488 
L 598.843848 -238.554455 
L 584.721432 -241.324712 
L 570.599017 -242.331801 
L 556.476601 -243.832615 
L 542.354186 -242.280791 
L 528.23177 -237.244881 
L 514.109355 -242.274996 
L 499.986939 -244.853834 
L 485.864523 -241.81058 
L 471.742108 -246.18753 
L 457.619692 -247.939575 
L 443.497277 -247.17301 
L 429.374861 -246.201192 
L 415.252445 -245.61397 
L 401.13003 -243.327555 
L 387.007614 -241.533617 
L 372.885199 -249.693916 
L 358.762783 -248.669452 
L 344.640368 -239.550301 
L 330.517952 -246.409958 
L 316.395536 -242.612927 
L 302.273121 -236.076594 
L 288.150705 -236.225941 
L 274.02829 -239.336471 
L 259.905874 -236.756614 
L 245.783458 -234.750887 
L 231.661043 -230.984311 
L 217.538627 -224.685159 
L 203.416212 -227.969161 
L 189.293796 -227.912803 
L 175.171381 -224.001125 
L 161.048965 -224.076459 
L 146.926549 -229.900001 
L 132.804134 -238.879856 
L 118.681718 -259.518036 
z
" style="stroke: #707b90; stroke-opacity: 0.2; stroke-width: 2.5"/>
    </defs>
    <g clip-path="url(#p506f298326)">
     <use xlink:href="#m54aa8bb724" x="0" y="276.48" style="fill: #707b90; fill-opacity: 0.2; stroke: #707b90; stroke-opacity: 0.2; stroke-width: 2.5"/>
    </g>
   </g>
   <g id="PolyCollection_2">
    <defs>
     <path id="ma6b08b8c79" d="M 118.681718 -258.620044 
L 118.681718 -152.421314 
L 132.804134 -128.522454 
L 146.926549 -118.343193 
L 161.048965 -105.029683 
L 175.171381 -100.862061 
L 189.293796 -88.908516 
L 203.416212 -82.782492 
L 217.538627 -79.1323 
L 231.661043 -75.569393 
L 245.783458 -77.907497 
L 259.905874 -72.526951 
L 274.02829 -71.245268 
L 288.150705 -65.855446 
L 302.273121 -70.129869 
L 316.395536 -64.278764 
L 330.517952 -65.27927 
L 344.640368 -68.076397 
L 358.762783 -68.86925 
L 372.885199 -69.921086 
L 387.007614 -72.306439 
L 401.13003 -65.93537 
L 415.252445 -74.278554 
L 429.374861 -73.42792 
L 443.497277 -69.502682 
L 457.619692 -66.922983 
L 471.742108 -73.464348 
L 485.864523 -83.612435 
L 499.986939 -70.181065 
L 514.109355 -76.358014 
L 528.23177 -73.064534 
L 542.354186 -80.276942 
L 556.476601 -75.66874 
L 570.599017 -76.003358 
L 584.721432 -77.802042 
L 598.843848 -81.039583 
L 612.966264 -81.30196 
L 627.088679 -79.893729 
L 641.211095 -79.230977 
L 655.33351 -81.941083 
L 669.455926 -86.752146 
L 683.578342 -94.483165 
L 697.700757 -77.864448 
L 711.823173 -79.217969 
L 725.945588 -90.997189 
L 740.068004 -89.785364 
L 754.190419 -85.859721 
L 768.312835 -85.788895 
L 782.435251 -88.76045 
L 796.557666 -92.78021 
L 810.680082 -91.55787 
L 810.680082 -224.030144 
L 810.680082 -224.030144 
L 796.557666 -224.802466 
L 782.435251 -215.827096 
L 768.312835 -218.673945 
L 754.190419 -225.304149 
L 740.068004 -218.190734 
L 725.945588 -222.248505 
L 711.823173 -223.771236 
L 697.700757 -221.296564 
L 683.578342 -234.631462 
L 669.455926 -224.96168 
L 655.33351 -223.981847 
L 641.211095 -227.125445 
L 627.088679 -228.71581 
L 612.966264 -230.786939 
L 598.843848 -225.778731 
L 584.721432 -228.110414 
L 570.599017 -228.551037 
L 556.476601 -230.358832 
L 542.354186 -226.316879 
L 528.23177 -227.998342 
L 514.109355 -229.494767 
L 499.986939 -230.489421 
L 485.864523 -230.05541 
L 471.742108 -235.884117 
L 457.619692 -230.4369 
L 443.497277 -228.485119 
L 429.374861 -229.072194 
L 415.252445 -225.266549 
L 401.13003 -226.40903 
L 387.007614 -227.360284 
L 372.885199 -229.461137 
L 358.762783 -233.313244 
L 344.640368 -227.230929 
L 330.517952 -230.019221 
L 316.395536 -228.251296 
L 302.273121 -226.345263 
L 288.150705 -221.007765 
L 274.02829 -224.29545 
L 259.905874 -229.572267 
L 245.783458 -223.754034 
L 231.661043 -216.415017 
L 217.538627 -226.098646 
L 203.416212 -225.398176 
L 189.293796 -226.689972 
L 175.171381 -221.499169 
L 161.048965 -231.481531 
L 146.926549 -233.90355 
L 132.804134 -243.557924 
L 118.681718 -258.620044 
z
" style="stroke: #cbdede; stroke-opacity: 0.2; stroke-width: 2.5"/>
    </defs>
    <g clip-path="url(#p506f298326)">
     <use xlink:href="#ma6b08b8c79" x="0" y="276.48" style="fill: #cbdede; fill-opacity: 0.2; stroke: #cbdede; stroke-opacity: 0.2; stroke-width: 2.5"/>
    </g>
   </g>
   <g id="matplotlib.axis_1">
    <g id="xtick_1">
     <g id="line2d_1">
      <defs>
       <path id="m0c0b781c48" d="M 0 0 
L 0 8 
" style="stroke: #000000; stroke-width: 2"/>
      </defs>
      <g>
       <use xlink:href="#m0c0b781c48" x="118.681718" y="221.9632" style="stroke: #000000; stroke-width: 2"/>
      </g>
     </g>
     <g id="text_1">
      <!-- 0 -->
      <g transform="translate(113.877068 245.8319)scale(0.1728 -0.1728)">
       <defs>
        <path id="ArialMT-30" d="M 266 2259 
Q 266 3072 433 3567 
Q 600 4063 929 4331 
Q 1259 4600 1759 4600 
Q 2128 4600 2406 4451 
Q 2684 4303 2865 4023 
Q 3047 3744 3150 3342 
Q 3253 2941 3253 2259 
Q 3253 1453 3087 958 
Q 2922 463 2592 192 
Q 2263 -78 1759 -78 
Q 1097 -78 719 397 
Q 266 969 266 2259 
z
M 844 2259 
Q 844 1131 1108 757 
Q 1372 384 1759 384 
Q 2147 384 2411 759 
Q 2675 1134 2675 2259 
Q 2675 3391 2411 3762 
Q 2147 4134 1753 4134 
Q 1366 4134 1134 3806 
Q 844 3388 844 2259 
z
" transform="scale(0.015625)"/>
       </defs>
       <use xlink:href="#ArialMT-30"/>
      </g>
     </g>
    </g>
    <g id="xtick_2">
     <g id="line2d_2">
      <g>
       <use xlink:href="#m0c0b781c48" x="259.905874" y="221.9632" style="stroke: #000000; stroke-width: 2"/>
      </g>
     </g>
     <g id="text_2">
      <!-- 10 -->
      <g transform="translate(250.296574 245.8319)scale(0.1728 -0.1728)">
       <defs>
        <path id="ArialMT-31" d="M 2384 0 
L 1822 0 
L 1822 3584 
Q 1619 3391 1289 3197 
Q 959 3003 697 2906 
L 697 3450 
Q 1169 3672 1522 3987 
Q 1875 4303 2022 4600 
L 2384 4600 
L 2384 0 
z
" transform="scale(0.015625)"/>
       </defs>
       <use xlink:href="#ArialMT-31"/>
       <use xlink:href="#ArialMT-30" x="55.615234"/>
      </g>
     </g>
    </g>
    <g id="xtick_3">
     <g id="line2d_3">
      <g>
       <use xlink:href="#m0c0b781c48" x="401.13003" y="221.9632" style="stroke: #000000; stroke-width: 2"/>
      </g>
     </g>
     <g id="text_3">
      <!-- 20 -->
      <g transform="translate(391.52073 245.8319)scale(0.1728 -0.1728)">
       <defs>
        <path id="ArialMT-32" d="M 3222 541 
L 3222 0 
L 194 0 
Q 188 203 259 391 
Q 375 700 629 1000 
Q 884 1300 1366 1694 
Q 2113 2306 2375 2664 
Q 2638 3022 2638 3341 
Q 2638 3675 2398 3904 
Q 2159 4134 1775 4134 
Q 1369 4134 1125 3890 
Q 881 3647 878 3216 
L 300 3275 
Q 359 3922 746 4261 
Q 1134 4600 1788 4600 
Q 2447 4600 2831 4234 
Q 3216 3869 3216 3328 
Q 3216 3053 3103 2787 
Q 2991 2522 2730 2228 
Q 2469 1934 1863 1422 
Q 1356 997 1212 845 
Q 1069 694 975 541 
L 3222 541 
z
" transform="scale(0.015625)"/>
       </defs>
       <use xlink:href="#ArialMT-32"/>
       <use xlink:href="#ArialMT-30" x="55.615234"/>
      </g>
     </g>
    </g>
    <g id="xtick_4">
     <g id="line2d_4">
      <g>
       <use xlink:href="#m0c0b781c48" x="542.354186" y="221.9632" style="stroke: #000000; stroke-width: 2"/>
      </g>
     </g>
     <g id="text_4">
      <!-- 30 -->
      <g transform="translate(532.744886 245.8319)scale(0.1728 -0.1728)">
       <defs>
        <path id="ArialMT-33" d="M 269 1209 
L 831 1284 
Q 928 806 1161 595 
Q 1394 384 1728 384 
Q 2125 384 2398 659 
Q 2672 934 2672 1341 
Q 2672 1728 2419 1979 
Q 2166 2231 1775 2231 
Q 1616 2231 1378 2169 
L 1441 2663 
Q 1497 2656 1531 2656 
Q 1891 2656 2178 2843 
Q 2466 3031 2466 3422 
Q 2466 3731 2256 3934 
Q 2047 4138 1716 4138 
Q 1388 4138 1169 3931 
Q 950 3725 888 3313 
L 325 3413 
Q 428 3978 793 4289 
Q 1159 4600 1703 4600 
Q 2078 4600 2393 4439 
Q 2709 4278 2876 4000 
Q 3044 3722 3044 3409 
Q 3044 3113 2884 2869 
Q 2725 2625 2413 2481 
Q 2819 2388 3044 2092 
Q 3269 1797 3269 1353 
Q 3269 753 2831 336 
Q 2394 -81 1725 -81 
Q 1122 -81 723 278 
Q 325 638 269 1209 
z
" transform="scale(0.015625)"/>
       </defs>
       <use xlink:href="#ArialMT-33"/>
       <use xlink:href="#ArialMT-30" x="55.615234"/>
      </g>
     </g>
    </g>
    <g id="xtick_5">
     <g id="line2d_5">
      <g>
       <use xlink:href="#m0c0b781c48" x="683.578342" y="221.9632" style="stroke: #000000; stroke-width: 2"/>
      </g>
     </g>
     <g id="text_5">
      <!-- 40 -->
      <g transform="translate(673.969042 245.8319)scale(0.1728 -0.1728)">
       <defs>
        <path id="ArialMT-34" d="M 2069 0 
L 2069 1097 
L 81 1097 
L 81 1613 
L 2172 4581 
L 2631 4581 
L 2631 1613 
L 3250 1613 
L 3250 1097 
L 2631 1097 
L 2631 0 
L 2069 0 
z
M 2069 1613 
L 2069 3678 
L 634 1613 
L 2069 1613 
z
" transform="scale(0.015625)"/>
       </defs>
       <use xlink:href="#ArialMT-34"/>
       <use xlink:href="#ArialMT-30" x="55.615234"/>
      </g>
     </g>
    </g>
    <g id="xtick_6">
     <g id="line2d_6">
      <g>
       <use xlink:href="#m0c0b781c48" x="824.802497" y="221.9632" style="stroke: #000000; stroke-width: 2"/>
      </g>
     </g>
     <g id="text_6">
      <!-- 50 -->
      <g transform="translate(815.193197 245.8319)scale(0.1728 -0.1728)">
       <defs>
        <path id="ArialMT-35" d="M 266 1200 
L 856 1250 
Q 922 819 1161 601 
Q 1400 384 1738 384 
Q 2144 384 2425 690 
Q 2706 997 2706 1503 
Q 2706 1984 2436 2262 
Q 2166 2541 1728 2541 
Q 1456 2541 1237 2417 
Q 1019 2294 894 2097 
L 366 2166 
L 809 4519 
L 3088 4519 
L 3088 3981 
L 1259 3981 
L 1013 2750 
Q 1425 3038 1878 3038 
Q 2478 3038 2890 2622 
Q 3303 2206 3303 1553 
Q 3303 931 2941 478 
Q 2500 -78 1738 -78 
Q 1113 -78 717 272 
Q 322 622 266 1200 
z
" transform="scale(0.015625)"/>
       </defs>
       <use xlink:href="#ArialMT-35"/>
       <use xlink:href="#ArialMT-30" x="55.615234"/>
      </g>
     </g>
    </g>
    <g id="text_7">
     <!-- Step -->
     <g transform="translate(446.90815 265.8456)scale(0.1728 -0.1728)">
      <defs>
       <path id="ArialMT-53" d="M 288 1472 
L 859 1522 
Q 900 1178 1048 958 
Q 1197 738 1509 602 
Q 1822 466 2213 466 
Q 2559 466 2825 569 
Q 3091 672 3220 851 
Q 3350 1031 3350 1244 
Q 3350 1459 3225 1620 
Q 3100 1781 2813 1891 
Q 2628 1963 1997 2114 
Q 1366 2266 1113 2400 
Q 784 2572 623 2826 
Q 463 3081 463 3397 
Q 463 3744 659 4045 
Q 856 4347 1234 4503 
Q 1613 4659 2075 4659 
Q 2584 4659 2973 4495 
Q 3363 4331 3572 4012 
Q 3781 3694 3797 3291 
L 3216 3247 
Q 3169 3681 2898 3903 
Q 2628 4125 2100 4125 
Q 1550 4125 1298 3923 
Q 1047 3722 1047 3438 
Q 1047 3191 1225 3031 
Q 1400 2872 2139 2705 
Q 2878 2538 3153 2413 
Q 3553 2228 3743 1945 
Q 3934 1663 3934 1294 
Q 3934 928 3725 604 
Q 3516 281 3123 101 
Q 2731 -78 2241 -78 
Q 1619 -78 1198 103 
Q 778 284 539 648 
Q 300 1013 288 1472 
z
" transform="scale(0.015625)"/>
       <path id="ArialMT-74" d="M 1650 503 
L 1731 6 
Q 1494 -44 1306 -44 
Q 1000 -44 831 53 
Q 663 150 594 308 
Q 525 466 525 972 
L 525 2881 
L 113 2881 
L 113 3319 
L 525 3319 
L 525 4141 
L 1084 4478 
L 1084 3319 
L 1650 3319 
L 1650 2881 
L 1084 2881 
L 1084 941 
Q 1084 700 1114 631 
Q 1144 563 1211 522 
Q 1278 481 1403 481 
Q 1497 481 1650 503 
z
" transform="scale(0.015625)"/>
       <path id="ArialMT-65" d="M 2694 1069 
L 3275 997 
Q 3138 488 2766 206 
Q 2394 -75 1816 -75 
Q 1088 -75 661 373 
Q 234 822 234 1631 
Q 234 2469 665 2931 
Q 1097 3394 1784 3394 
Q 2450 3394 2872 2941 
Q 3294 2488 3294 1666 
Q 3294 1616 3291 1516 
L 816 1516 
Q 847 969 1125 678 
Q 1403 388 1819 388 
Q 2128 388 2347 550 
Q 2566 713 2694 1069 
z
M 847 1978 
L 2700 1978 
Q 2663 2397 2488 2606 
Q 2219 2931 1791 2931 
Q 1403 2931 1139 2672 
Q 875 2413 847 1978 
z
" transform="scale(0.015625)"/>
       <path id="ArialMT-70" d="M 422 -1272 
L 422 3319 
L 934 3319 
L 934 2888 
Q 1116 3141 1344 3267 
Q 1572 3394 1897 3394 
Q 2322 3394 2647 3175 
Q 2972 2956 3137 2557 
Q 3303 2159 3303 1684 
Q 3303 1175 3120 767 
Q 2938 359 2589 142 
Q 2241 -75 1856 -75 
Q 1575 -75 1351 44 
Q 1128 163 984 344 
L 984 -1272 
L 422 -1272 
z
M 931 1641 
Q 931 1000 1190 694 
Q 1450 388 1819 388 
Q 2194 388 2461 705 
Q 2728 1022 2728 1688 
Q 2728 2322 2467 2637 
Q 2206 2953 1844 2953 
Q 1484 2953 1207 2617 
Q 931 2281 931 1641 
z
" transform="scale(0.015625)"/>
      </defs>
      <use xlink:href="#ArialMT-53"/>
      <use xlink:href="#ArialMT-74" x="66.699219"/>
      <use xlink:href="#ArialMT-65" x="94.482422"/>
      <use xlink:href="#ArialMT-70" x="150.097656"/>
     </g>
    </g>
   </g>
   <g id="matplotlib.axis_2">
    <g id="ytick_1">
     <g id="line2d_7">
      <defs>
       <path id="mf982b316fa" d="M 0 0 
L -8 0 
" style="stroke: #000000; stroke-width: 2"/>
      </defs>
      <g>
       <use xlink:href="#mf982b316fa" x="84.0818" y="199.029421" style="stroke: #000000; stroke-width: 2"/>
      </g>
     </g>
     <g id="text_8">
      <!-- 0.375 -->
      <g transform="translate(29.344 205.213771)scale(0.1728 -0.1728)">
       <defs>
        <path id="ArialMT-2e" d="M 581 0 
L 581 641 
L 1222 641 
L 1222 0 
L 581 0 
z
" transform="scale(0.015625)"/>
        <path id="ArialMT-37" d="M 303 3981 
L 303 4522 
L 3269 4522 
L 3269 4084 
Q 2831 3619 2401 2847 
Q 1972 2075 1738 1259 
Q 1569 684 1522 0 
L 944 0 
Q 953 541 1156 1306 
Q 1359 2072 1739 2783 
Q 2119 3494 2547 3981 
L 303 3981 
z
" transform="scale(0.015625)"/>
       </defs>
       <use xlink:href="#ArialMT-30"/>
       <use xlink:href="#ArialMT-2e" x="55.615234"/>
       <use xlink:href="#ArialMT-33" x="83.398438"/>
       <use xlink:href="#ArialMT-37" x="139.013672"/>
       <use xlink:href="#ArialMT-35" x="194.628906"/>
      </g>
     </g>
    </g>
    <g id="ytick_2">
     <g id="line2d_8">
      <g>
       <use xlink:href="#mf982b316fa" x="84.0818" y="154.87679" style="stroke: #000000; stroke-width: 2"/>
      </g>
     </g>
     <g id="text_9">
      <!-- 0.400 -->
      <g transform="translate(29.344 161.06114)scale(0.1728 -0.1728)">
       <use xlink:href="#ArialMT-30"/>
       <use xlink:href="#ArialMT-2e" x="55.615234"/>
       <use xlink:href="#ArialMT-34" x="83.398438"/>
       <use xlink:href="#ArialMT-30" x="139.013672"/>
       <use xlink:href="#ArialMT-30" x="194.628906"/>
      </g>
     </g>
    </g>
    <g id="ytick_3">
     <g id="line2d_9">
      <g>
       <use xlink:href="#mf982b316fa" x="84.0818" y="110.724159" style="stroke: #000000; stroke-width: 2"/>
      </g>
     </g>
     <g id="text_10">
      <!-- 0.425 -->
      <g transform="translate(29.344 116.908509)scale(0.1728 -0.1728)">
       <use xlink:href="#ArialMT-30"/>
       <use xlink:href="#ArialMT-2e" x="55.615234"/>
       <use xlink:href="#ArialMT-34" x="83.398438"/>
       <use xlink:href="#ArialMT-32" x="139.013672"/>
       <use xlink:href="#ArialMT-35" x="194.628906"/>
      </g>
     </g>
    </g>
    <g id="ytick_4">
     <g id="line2d_10">
      <g>
       <use xlink:href="#mf982b316fa" x="84.0818" y="66.571529" style="stroke: #000000; stroke-width: 2"/>
      </g>
     </g>
     <g id="text_11">
      <!-- 0.450 -->
      <g transform="translate(29.344 72.755879)scale(0.1728 -0.1728)">
       <use xlink:href="#ArialMT-30"/>
       <use xlink:href="#ArialMT-2e" x="55.615234"/>
       <use xlink:href="#ArialMT-34" x="83.398438"/>
       <use xlink:href="#ArialMT-35" x="139.013672"/>
       <use xlink:href="#ArialMT-30" x="194.628906"/>
      </g>
     </g>
    </g>
    <g id="ytick_5">
     <g id="line2d_11">
      <g>
       <use xlink:href="#mf982b316fa" x="84.0818" y="22.418898" style="stroke: #000000; stroke-width: 2"/>
      </g>
     </g>
     <g id="text_12">
      <!-- 0.475 -->
      <g transform="translate(29.344 28.603248)scale(0.1728 -0.1728)">
       <use xlink:href="#ArialMT-30"/>
       <use xlink:href="#ArialMT-2e" x="55.615234"/>
       <use xlink:href="#ArialMT-34" x="83.398438"/>
       <use xlink:href="#ArialMT-37" x="139.013672"/>
       <use xlink:href="#ArialMT-35" x="194.628906"/>
      </g>
     </g>
    </g>
    <g id="text_13">
     <!-- Gradient Alignment to LN$^+$ -->
     <g transform="translate(21.5424 219.3848)rotate(-90)scale(0.1728 -0.1728)">
      <defs>
       <path id="ArialMT-47" d="M 2638 1797 
L 2638 2334 
L 4578 2338 
L 4578 638 
Q 4131 281 3656 101 
Q 3181 -78 2681 -78 
Q 2006 -78 1454 211 
Q 903 500 622 1047 
Q 341 1594 341 2269 
Q 341 2938 620 3517 
Q 900 4097 1425 4378 
Q 1950 4659 2634 4659 
Q 3131 4659 3532 4498 
Q 3934 4338 4162 4050 
Q 4391 3763 4509 3300 
L 3963 3150 
Q 3859 3500 3706 3700 
Q 3553 3900 3268 4020 
Q 2984 4141 2638 4141 
Q 2222 4141 1919 4014 
Q 1616 3888 1430 3681 
Q 1244 3475 1141 3228 
Q 966 2803 966 2306 
Q 966 1694 1177 1281 
Q 1388 869 1791 669 
Q 2194 469 2647 469 
Q 3041 469 3416 620 
Q 3791 772 3984 944 
L 3984 1797 
L 2638 1797 
z
" transform="scale(0.015625)"/>
       <path id="ArialMT-72" d="M 416 0 
L 416 3319 
L 922 3319 
L 922 2816 
Q 1116 3169 1280 3281 
Q 1444 3394 1641 3394 
Q 1925 3394 2219 3213 
L 2025 2691 
Q 1819 2813 1613 2813 
Q 1428 2813 1281 2702 
Q 1134 2591 1072 2394 
Q 978 2094 978 1738 
L 978 0 
L 416 0 
z
" transform="scale(0.015625)"/>
       <path id="ArialMT-61" d="M 2588 409 
Q 2275 144 1986 34 
Q 1697 -75 1366 -75 
Q 819 -75 525 192 
Q 231 459 231 875 
Q 231 1119 342 1320 
Q 453 1522 633 1644 
Q 813 1766 1038 1828 
Q 1203 1872 1538 1913 
Q 2219 1994 2541 2106 
Q 2544 2222 2544 2253 
Q 2544 2597 2384 2738 
Q 2169 2928 1744 2928 
Q 1347 2928 1158 2789 
Q 969 2650 878 2297 
L 328 2372 
Q 403 2725 575 2942 
Q 747 3159 1072 3276 
Q 1397 3394 1825 3394 
Q 2250 3394 2515 3294 
Q 2781 3194 2906 3042 
Q 3031 2891 3081 2659 
Q 3109 2516 3109 2141 
L 3109 1391 
Q 3109 606 3145 398 
Q 3181 191 3288 0 
L 2700 0 
Q 2613 175 2588 409 
z
M 2541 1666 
Q 2234 1541 1622 1453 
Q 1275 1403 1131 1340 
Q 988 1278 909 1158 
Q 831 1038 831 891 
Q 831 666 1001 516 
Q 1172 366 1500 366 
Q 1825 366 2078 508 
Q 2331 650 2450 897 
Q 2541 1088 2541 1459 
L 2541 1666 
z
" transform="scale(0.015625)"/>
       <path id="ArialMT-64" d="M 2575 0 
L 2575 419 
Q 2259 -75 1647 -75 
Q 1250 -75 917 144 
Q 584 363 401 755 
Q 219 1147 219 1656 
Q 219 2153 384 2558 
Q 550 2963 881 3178 
Q 1213 3394 1622 3394 
Q 1922 3394 2156 3267 
Q 2391 3141 2538 2938 
L 2538 4581 
L 3097 4581 
L 3097 0 
L 2575 0 
z
M 797 1656 
Q 797 1019 1065 703 
Q 1334 388 1700 388 
Q 2069 388 2326 689 
Q 2584 991 2584 1609 
Q 2584 2291 2321 2609 
Q 2059 2928 1675 2928 
Q 1300 2928 1048 2622 
Q 797 2316 797 1656 
z
" transform="scale(0.015625)"/>
       <path id="ArialMT-69" d="M 425 3934 
L 425 4581 
L 988 4581 
L 988 3934 
L 425 3934 
z
M 425 0 
L 425 3319 
L 988 3319 
L 988 0 
L 425 0 
z
" transform="scale(0.015625)"/>
       <path id="ArialMT-6e" d="M 422 0 
L 422 3319 
L 928 3319 
L 928 2847 
Q 1294 3394 1984 3394 
Q 2284 3394 2536 3286 
Q 2788 3178 2913 3003 
Q 3038 2828 3088 2588 
Q 3119 2431 3119 2041 
L 3119 0 
L 2556 0 
L 2556 2019 
Q 2556 2363 2490 2533 
Q 2425 2703 2258 2804 
Q 2091 2906 1866 2906 
Q 1506 2906 1245 2678 
Q 984 2450 984 1813 
L 984 0 
L 422 0 
z
" transform="scale(0.015625)"/>
       <path id="ArialMT-20" transform="scale(0.015625)"/>
       <path id="ArialMT-41" d="M -9 0 
L 1750 4581 
L 2403 4581 
L 4278 0 
L 3588 0 
L 3053 1388 
L 1138 1388 
L 634 0 
L -9 0 
z
M 1313 1881 
L 2866 1881 
L 2388 3150 
Q 2169 3728 2063 4100 
Q 1975 3659 1816 3225 
L 1313 1881 
z
" transform="scale(0.015625)"/>
       <path id="ArialMT-6c" d="M 409 0 
L 409 4581 
L 972 4581 
L 972 0 
L 409 0 
z
" transform="scale(0.015625)"/>
       <path id="ArialMT-67" d="M 319 -275 
L 866 -356 
Q 900 -609 1056 -725 
Q 1266 -881 1628 -881 
Q 2019 -881 2231 -725 
Q 2444 -569 2519 -288 
Q 2563 -116 2559 434 
Q 2191 0 1641 0 
Q 956 0 581 494 
Q 206 988 206 1678 
Q 206 2153 378 2554 
Q 550 2956 876 3175 
Q 1203 3394 1644 3394 
Q 2231 3394 2613 2919 
L 2613 3319 
L 3131 3319 
L 3131 450 
Q 3131 -325 2973 -648 
Q 2816 -972 2473 -1159 
Q 2131 -1347 1631 -1347 
Q 1038 -1347 672 -1080 
Q 306 -813 319 -275 
z
M 784 1719 
Q 784 1066 1043 766 
Q 1303 466 1694 466 
Q 2081 466 2343 764 
Q 2606 1063 2606 1700 
Q 2606 2309 2336 2618 
Q 2066 2928 1684 2928 
Q 1309 2928 1046 2623 
Q 784 2319 784 1719 
z
" transform="scale(0.015625)"/>
       <path id="ArialMT-6d" d="M 422 0 
L 422 3319 
L 925 3319 
L 925 2853 
Q 1081 3097 1340 3245 
Q 1600 3394 1931 3394 
Q 2300 3394 2536 3241 
Q 2772 3088 2869 2813 
Q 3263 3394 3894 3394 
Q 4388 3394 4653 3120 
Q 4919 2847 4919 2278 
L 4919 0 
L 4359 0 
L 4359 2091 
Q 4359 2428 4304 2576 
Q 4250 2725 4106 2815 
Q 3963 2906 3769 2906 
Q 3419 2906 3187 2673 
Q 2956 2441 2956 1928 
L 2956 0 
L 2394 0 
L 2394 2156 
Q 2394 2531 2256 2718 
Q 2119 2906 1806 2906 
Q 1569 2906 1367 2781 
Q 1166 2656 1075 2415 
Q 984 2175 984 1722 
L 984 0 
L 422 0 
z
" transform="scale(0.015625)"/>
       <path id="ArialMT-6f" d="M 213 1659 
Q 213 2581 725 3025 
Q 1153 3394 1769 3394 
Q 2453 3394 2887 2945 
Q 3322 2497 3322 1706 
Q 3322 1066 3130 698 
Q 2938 331 2570 128 
Q 2203 -75 1769 -75 
Q 1072 -75 642 372 
Q 213 819 213 1659 
z
M 791 1659 
Q 791 1022 1069 705 
Q 1347 388 1769 388 
Q 2188 388 2466 706 
Q 2744 1025 2744 1678 
Q 2744 2294 2464 2611 
Q 2184 2928 1769 2928 
Q 1347 2928 1069 2612 
Q 791 2297 791 1659 
z
" transform="scale(0.015625)"/>
       <path id="ArialMT-4c" d="M 469 0 
L 469 4581 
L 1075 4581 
L 1075 541 
L 3331 541 
L 3331 0 
L 469 0 
z
" transform="scale(0.015625)"/>
       <path id="ArialMT-4e" d="M 488 0 
L 488 4581 
L 1109 4581 
L 3516 984 
L 3516 4581 
L 4097 4581 
L 4097 0 
L 3475 0 
L 1069 3600 
L 1069 0 
L 488 0 
z
" transform="scale(0.015625)"/>
       <path id="DejaVuSans-2b" d="M 2944 4013 
L 2944 2272 
L 4684 2272 
L 4684 1741 
L 2944 1741 
L 2944 0 
L 2419 0 
L 2419 1741 
L 678 1741 
L 678 2272 
L 2419 2272 
L 2419 4013 
L 2944 4013 
z
" transform="scale(0.015625)"/>
      </defs>
      <use xlink:href="#ArialMT-47" transform="translate(0 0.826562)"/>
      <use xlink:href="#ArialMT-72" transform="translate(77.783203 0.826562)"/>
      <use xlink:href="#ArialMT-61" transform="translate(111.083984 0.826562)"/>
      <use xlink:href="#ArialMT-64" transform="translate(166.699219 0.826562)"/>
      <use xlink:href="#ArialMT-69" transform="translate(222.314453 0.826562)"/>
      <use xlink:href="#ArialMT-65" transform="translate(244.53125 0.826562)"/>
      <use xlink:href="#ArialMT-6e" transform="translate(300.146484 0.826562)"/>
      <use xlink:href="#ArialMT-74" transform="translate(355.761719 0.826562)"/>
      <use xlink:href="#ArialMT-20" transform="translate(383.544922 0.826562)"/>
      <use xlink:href="#ArialMT-41" transform="translate(411.328125 0.826562)"/>
      <use xlink:href="#ArialMT-6c" transform="translate(478.027344 0.826562)"/>
      <use xlink:href="#ArialMT-69" transform="translate(500.244141 0.826562)"/>
      <use xlink:href="#ArialMT-67" transform="translate(522.460938 0.826562)"/>
      <use xlink:href="#ArialMT-6e" transform="translate(578.076172 0.826562)"/>
      <use xlink:href="#ArialMT-6d" transform="translate(633.691406 0.826562)"/>
      <use xlink:href="#ArialMT-65" transform="translate(716.992188 0.826562)"/>
      <use xlink:href="#ArialMT-6e" transform="translate(772.607422 0.826562)"/>
      <use xlink:href="#ArialMT-74" transform="translate(828.222656 0.826562)"/>
      <use xlink:href="#ArialMT-20" transform="translate(856.005859 0.826562)"/>
      <use xlink:href="#ArialMT-74" transform="translate(883.789062 0.826562)"/>
      <use xlink:href="#ArialMT-6f" transform="translate(911.572266 0.826562)"/>
      <use xlink:href="#ArialMT-20" transform="translate(967.1875 0.826562)"/>
      <use xlink:href="#ArialMT-4c" transform="translate(994.970703 0.826562)"/>
      <use xlink:href="#ArialMT-4e" transform="translate(1050.585938 0.826562)"/>
      <use xlink:href="#DejaVuSans-2b" transform="translate(1137.397461 39.107812)scale(0.7)"/>
     </g>
    </g>
   </g>
   <g id="line2d_12">
    <path d="M 118.681718 71.137301 
L 132.804134 92.245871 
L 146.926549 102.000491 
L 161.048965 110.018555 
L 175.171381 114.647844 
L 189.293796 117.479186 
L 203.416212 119.360627 
L 217.538627 123.213219 
L 231.661043 121.168749 
L 245.783458 118.759449 
L 259.905874 119.392572 
L 274.02829 117.725607 
L 288.150705 119.010247 
L 302.273121 118.207313 
L 316.395536 114.739078 
L 330.517952 115.280575 
L 344.640368 117.86976 
L 358.762783 110.865925 
L 372.885199 112.449489 
L 387.007614 114.854044 
L 401.13003 116.31337 
L 415.252445 111.20882 
L 429.374861 112.590917 
L 443.497277 112.050201 
L 457.619692 113.647945 
L 471.742108 111.310958 
L 485.864523 111.858259 
L 499.986939 116.106106 
L 514.109355 115.600342 
L 528.23177 117.255198 
L 542.354186 111.525587 
L 556.476601 112.118005 
L 570.599017 114.31786 
L 584.721432 114.900304 
L 598.843848 114.179802 
L 612.966264 112.149659 
L 627.088679 115.616855 
L 641.211095 116.891315 
L 655.33351 117.974833 
L 669.455926 113.141992 
L 683.578342 111.359406 
L 697.700757 115.436182 
L 711.823173 116.567321 
L 725.945588 114.699402 
L 740.068004 117.451296 
L 754.190419 117.262378 
L 768.312835 114.146791 
L 782.435251 115.28058 
L 796.557666 112.782804 
L 810.680082 117.491255 
" clip-path="url(#p506f298326)" style="fill: none; stroke: #707b90; stroke-width: 2.5; stroke-linecap: square"/>
   </g>
   <g id="line2d_13">
    <path d="M 118.681718 70.959321 
L 132.804134 90.439811 
L 146.926549 100.356628 
L 161.048965 108.224393 
L 175.171381 115.299385 
L 189.293796 118.680756 
L 203.416212 122.389666 
L 217.538627 123.864527 
L 231.661043 130.487795 
L 245.783458 125.649235 
L 259.905874 125.430391 
L 274.02829 128.709641 
L 288.150705 133.048394 
L 302.273121 128.242434 
L 316.395536 130.21497 
L 330.517952 128.830754 
L 344.640368 128.826337 
L 358.762783 125.388753 
L 372.885199 126.788888 
L 387.007614 126.646639 
L 401.13003 130.3078 
L 415.252445 126.707449 
L 429.374861 125.229943 
L 443.497277 127.4861 
L 457.619692 127.800059 
L 471.742108 121.805767 
L 485.864523 119.646078 
L 499.986939 126.144757 
L 514.109355 123.553609 
L 528.23177 125.948562 
L 542.354186 123.183089 
L 556.476601 123.466214 
L 570.599017 124.202803 
L 584.721432 123.523772 
L 598.843848 123.070843 
L 612.966264 120.435551 
L 627.088679 122.17523 
L 641.211095 123.301789 
L 655.33351 123.518535 
L 669.455926 120.623087 
L 683.578342 111.922687 
L 697.700757 126.899494 
L 711.823173 124.985398 
L 725.945588 119.857153 
L 740.068004 122.491951 
L 754.190419 120.898065 
L 768.312835 124.24858 
L 782.435251 124.186227 
L 796.557666 117.688662 
L 810.680082 118.685993 
" clip-path="url(#p506f298326)" style="fill: none; stroke-dasharray: 20,10; stroke-dashoffset: 0; stroke: #707b90; stroke-width: 2.5"/>
   </g>
   <g id="patch_3">
    <path d="M 84.0818 221.9632 
L 84.0818 7.2 
" style="fill: none; stroke: #000000; stroke-width: 1.5; stroke-linejoin: miter; stroke-linecap: square"/>
   </g>
   <g id="patch_4">
    <path d="M 84.0818 221.9632 
L 845.28 221.9632 
" style="fill: none; stroke: #000000; stroke-width: 1.5; stroke-linejoin: miter; stroke-linecap: square"/>
   </g>
   <g id="legend_1">
    <g id="patch_5">
     <path d="M 705.8466 70.1208 
L 833.184 70.1208 
Q 836.64 70.1208 836.64 66.6648 
L 836.64 19.296 
Q 836.64 15.84 833.184 15.84 
L 705.8466 15.84 
Q 702.3906 15.84 702.3906 19.296 
L 702.3906 66.6648 
Q 702.3906 70.1208 705.8466 70.1208 
z
" style="fill: #ffffff; opacity: 0.8; stroke: #cccccc; stroke-width: 2.5; stroke-linejoin: miter"/>
    </g>
    <g id="line2d_14">
     <path d="M 709.3026 29.0727 
L 726.5826 29.0727 
L 743.8626 29.0727 
" style="fill: none; stroke: #707b90; stroke-width: 2.5; stroke-linecap: square"/>
    </g>
    <g id="text_14">
     <!-- center -->
     <g transform="translate(757.6866 35.1207)scale(0.1728 -0.1728)">
      <defs>
       <path id="ArialMT-63" d="M 2588 1216 
L 3141 1144 
Q 3050 572 2676 248 
Q 2303 -75 1759 -75 
Q 1078 -75 664 370 
Q 250 816 250 1647 
Q 250 2184 428 2587 
Q 606 2991 970 3192 
Q 1334 3394 1763 3394 
Q 2303 3394 2647 3120 
Q 2991 2847 3088 2344 
L 2541 2259 
Q 2463 2594 2264 2762 
Q 2066 2931 1784 2931 
Q 1359 2931 1093 2626 
Q 828 2322 828 1663 
Q 828 994 1084 691 
Q 1341 388 1753 388 
Q 2084 388 2306 591 
Q 2528 794 2588 1216 
z
" transform="scale(0.015625)"/>
      </defs>
      <use xlink:href="#ArialMT-63"/>
      <use xlink:href="#ArialMT-65" x="50"/>
      <use xlink:href="#ArialMT-6e" x="105.615234"/>
      <use xlink:href="#ArialMT-74" x="161.230469"/>
      <use xlink:href="#ArialMT-65" x="189.013672"/>
      <use xlink:href="#ArialMT-72" x="244.628906"/>
     </g>
    </g>
    <g id="line2d_15">
     <path d="M 709.3026 53.7264 
L 726.5826 53.7264 
L 743.8626 53.7264 
" style="fill: none; stroke-dasharray: 20,10; stroke-dashoffset: 0; stroke: #707b90; stroke-width: 2.5"/>
    </g>
    <g id="text_15">
     <!-- fa_center -->
     <g transform="translate(757.6866 59.7744)scale(0.1728 -0.1728)">
      <defs>
       <path id="ArialMT-66" d="M 556 0 
L 556 2881 
L 59 2881 
L 59 3319 
L 556 3319 
L 556 3672 
Q 556 4006 616 4169 
Q 697 4388 901 4523 
Q 1106 4659 1475 4659 
Q 1713 4659 2000 4603 
L 1916 4113 
Q 1741 4144 1584 4144 
Q 1328 4144 1222 4034 
Q 1116 3925 1116 3625 
L 1116 3319 
L 1763 3319 
L 1763 2881 
L 1116 2881 
L 1116 0 
L 556 0 
z
" transform="scale(0.015625)"/>
       <path id="ArialMT-5f" d="M -97 -1272 
L -97 -866 
L 3631 -866 
L 3631 -1272 
L -97 -1272 
z
" transform="scale(0.015625)"/>
      </defs>
      <use xlink:href="#ArialMT-66"/>
      <use xlink:href="#ArialMT-61" x="27.783203"/>
      <use xlink:href="#ArialMT-5f" x="83.398438"/>
      <use xlink:href="#ArialMT-63" x="139.013672"/>
      <use xlink:href="#ArialMT-65" x="189.013672"/>
      <use xlink:href="#ArialMT-6e" x="244.628906"/>
      <use xlink:href="#ArialMT-74" x="300.244141"/>
      <use xlink:href="#ArialMT-65" x="328.027344"/>
      <use xlink:href="#ArialMT-72" x="383.642578"/>
     </g>
    </g>
   </g>
  </g>
 </g>
 <defs>
  <clipPath id="p506f298326">
   <rect x="84.0818" y="7.2" width="761.1982" height="214.7632"/>
  </clipPath>
 </defs>
</svg>
