<?xml version="1.0" encoding="utf-8" standalone="no"?>
<!DOCTYPE svg PUBLIC "-//W3C//DTD SVG 1.1//EN"
  "http://www.w3.org/Graphics/SVG/1.1/DTD/svg11.dtd">
<svg xmlns:xlink="http://www.w3.org/1999/xlink" width="449.28pt" height="334.08pt" viewBox="0 0 449.28 334.08" xmlns="http://www.w3.org/2000/svg" version="1.1">
 <metadata>
  <rdf:RDF xmlns:dc="http://purl.org/dc/elements/1.1/" xmlns:cc="http://creativecommons.org/ns#" xmlns:rdf="http://www.w3.org/1999/02/22-rdf-syntax-ns#">
   <cc:Work>
    <dc:type rdf:resource="http://purl.org/dc/dcmitype/StillImage"/>
    <dc:date>2025-09-21T11:28:05.154536</dc:date>
    <dc:format>image/svg+xml</dc:format>
    <dc:creator>
     <cc:Agent>
      <dc:title>Matplotlib v3.5.3, https://matplotlib.org/</dc:title>
     </cc:Agent>
    </dc:creator>
   </cc:Work>
  </rdf:RDF>
 </metadata>
 <defs>
  <style type="text/css">*{stroke-linejoin: round; stroke-linecap: butt}</style>
 </defs>
 <g id="figure_1">
  <g id="patch_1">
   <path d="M 0 334.08 
L 449.28 334.08 
L 449.28 0 
L 0 0 
z
" style="fill: #ffffff"/>
  </g>
  <g id="axes_1">
   <g id="patch_2">
    <path d="M 63.234375 274.79875 
L 430.958125 274.79875 
L 430.958125 14.357813 
L 63.234375 14.357813 
z
" style="fill: #ffffff"/>
   </g>
   <g id="PathCollection_1">
    <defs>
     <path id="m03e2ed6a9d" d="M 0 5 
C 1.326016 5 2.597899 4.473168 3.535534 3.535534 
C 4.473168 2.597899 5 1.326016 5 0 
C 5 -1.326016 4.473168 -2.597899 3.535534 -3.535534 
C 2.597899 -4.473168 1.326016 -5 0 -5 
C -1.326016 -5 -2.597899 -4.473168 -3.535534 -3.535534 
C -4.473168 -2.597899 -5 -1.326016 -5 0 
C -5 1.326016 -4.473168 2.597899 -3.535534 3.535534 
C -2.597899 4.473168 -1.326016 5 0 5 
z
" style="stroke: #000000; stroke-width: 2.5"/>
    </defs>
    <g clip-path="url(#p0a339f60ea)">
     <use xlink:href="#m03e2ed6a9d" x="399.701606" y="70.352614" style="stroke: #000000; stroke-width: 2.5"/>
    </g>
   </g>
   <g id="PathCollection_2">
    <g clip-path="url(#p0a339f60ea)">
     <use xlink:href="#m03e2ed6a9d" x="401.172501" y="80.509811" style="stroke: #000000; stroke-width: 2.5"/>
    </g>
   </g>
   <g id="PathCollection_3">
    <g clip-path="url(#p0a339f60ea)">
     <use xlink:href="#m03e2ed6a9d" x="411.101042" y="87.281275" style="stroke: #000000; stroke-width: 2.5"/>
    </g>
   </g>
   <g id="PathCollection_4">
    <g clip-path="url(#p0a339f60ea)">
     <use xlink:href="#m03e2ed6a9d" x="407.056081" y="90.406566" style="stroke: #000000; stroke-width: 2.5"/>
    </g>
   </g>
   <g id="PathCollection_5">
    <g clip-path="url(#p0a339f60ea)">
     <use xlink:href="#m03e2ed6a9d" x="384.624932" y="91.44833" style="stroke: #000000; stroke-width: 2.5"/>
    </g>
   </g>
   <g id="PathCollection_6">
    <g clip-path="url(#p0a339f60ea)">
     <use xlink:href="#m03e2ed6a9d" x="370.283706" y="92.750535" style="stroke: #000000; stroke-width: 2.5"/>
    </g>
   </g>
   <g id="PathCollection_7">
    <g clip-path="url(#p0a339f60ea)">
     <use xlink:href="#m03e2ed6a9d" x="386.831275" y="93.792298" style="stroke: #000000; stroke-width: 2.5"/>
    </g>
   </g>
   <g id="PathCollection_8">
    <g clip-path="url(#p0a339f60ea)">
     <use xlink:href="#m03e2ed6a9d" x="412.571937" y="94.834062" style="stroke: #000000; stroke-width: 2.5"/>
    </g>
   </g>
   <g id="PathCollection_9">
    <g clip-path="url(#p0a339f60ea)">
     <use xlink:href="#m03e2ed6a9d" x="382.41859" y="97.698913" style="stroke: #000000; stroke-width: 2.5"/>
    </g>
   </g>
   <g id="PathCollection_10">
    <g clip-path="url(#p0a339f60ea)">
     <use xlink:href="#m03e2ed6a9d" x="359.251994" y="99.261558" style="stroke: #000000; stroke-width: 2.5"/>
    </g>
   </g>
   <g id="PathCollection_11">
    <g clip-path="url(#p0a339f60ea)">
     <use xlink:href="#m03e2ed6a9d" x="348.588005" y="115.929778" style="stroke: #000000; stroke-width: 2.5"/>
    </g>
   </g>
   <g id="PathCollection_12">
    <g clip-path="url(#p0a339f60ea)">
     <use xlink:href="#m03e2ed6a9d" x="392.714855" y="118.794628" style="stroke: #000000; stroke-width: 2.5"/>
    </g>
   </g>
   <g id="PathCollection_13">
    <g clip-path="url(#p0a339f60ea)">
     <use xlink:href="#m03e2ed6a9d" x="346.013939" y="121.399038" style="stroke: #000000; stroke-width: 2.5"/>
    </g>
   </g>
   <g id="PathCollection_14">
    <g clip-path="url(#p0a339f60ea)">
     <use xlink:href="#m03e2ed6a9d" x="408.526976" y="125.566093" style="stroke: #000000; stroke-width: 2.5"/>
    </g>
   </g>
   <g id="PathCollection_15">
    <g clip-path="url(#p0a339f60ea)">
     <use xlink:href="#m03e2ed6a9d" x="335.34995" y="127.64962" style="stroke: #000000; stroke-width: 2.5"/>
    </g>
   </g>
   <g id="PathCollection_16">
    <g clip-path="url(#p0a339f60ea)">
     <use xlink:href="#m03e2ed6a9d" x="372.490049" y="133.639762" style="stroke: #000000; stroke-width: 2.5"/>
    </g>
   </g>
   <g id="PathCollection_17">
    <g clip-path="url(#p0a339f60ea)">
     <use xlink:href="#m03e2ed6a9d" x="340.498082" y="135.462848" style="stroke: #000000; stroke-width: 2.5"/>
    </g>
   </g>
   <g id="PathCollection_18">
    <g clip-path="url(#p0a339f60ea)">
     <use xlink:href="#m03e2ed6a9d" x="327.260027" y="140.150785" style="stroke: #000000; stroke-width: 2.5"/>
    </g>
   </g>
   <g id="PathCollection_19">
    <g clip-path="url(#p0a339f60ea)">
     <use xlink:href="#m03e2ed6a9d" x="322.479619" y="143.276077" style="stroke: #000000; stroke-width: 2.5"/>
    </g>
   </g>
   <g id="PathCollection_20">
    <g clip-path="url(#p0a339f60ea)">
     <use xlink:href="#m03e2ed6a9d" x="316.596039" y="144.31784" style="stroke: #000000; stroke-width: 2.5"/>
    </g>
   </g>
   <g id="PathCollection_21">
    <g clip-path="url(#p0a339f60ea)">
     <use xlink:href="#m03e2ed6a9d" x="276.146426" y="147.703573" style="stroke: #000000; stroke-width: 2.5"/>
    </g>
   </g>
   <g id="PathCollection_22">
    <g clip-path="url(#p0a339f60ea)">
     <use xlink:href="#m03e2ed6a9d" x="293.797166" y="149.266218" style="stroke: #000000; stroke-width: 2.5"/>
    </g>
   </g>
   <g id="PathCollection_23">
    <g clip-path="url(#p0a339f60ea)">
     <use xlink:href="#m03e2ed6a9d" x="388.669894" y="152.912391" style="stroke: #000000; stroke-width: 2.5"/>
    </g>
   </g>
   <g id="PathCollection_24">
    <g clip-path="url(#p0a339f60ea)">
     <use xlink:href="#m03e2ed6a9d" x="303.357984" y="159.683856" style="stroke: #000000; stroke-width: 2.5"/>
    </g>
   </g>
   <g id="PathCollection_25">
    <g clip-path="url(#p0a339f60ea)">
     <use xlink:href="#m03e2ed6a9d" x="408.526976" y="164.632233" style="stroke: #000000; stroke-width: 2.5"/>
    </g>
   </g>
   <g id="PathCollection_26">
    <g clip-path="url(#p0a339f60ea)">
     <use xlink:href="#m03e2ed6a9d" x="296.371232" y="176.872958" style="stroke: #000000; stroke-width: 2.5"/>
    </g>
   </g>
   <g id="PathCollection_27">
    <g clip-path="url(#p0a339f60ea)">
     <use xlink:href="#m03e2ed6a9d" x="245.257631" y="180.779572" style="stroke: #000000; stroke-width: 2.5"/>
    </g>
   </g>
   <g id="PathCollection_28">
    <g clip-path="url(#p0a339f60ea)">
     <use xlink:href="#m03e2ed6a9d" x="276.146426" y="182.081776" style="stroke: #000000; stroke-width: 2.5"/>
    </g>
   </g>
   <g id="PathCollection_29">
    <g clip-path="url(#p0a339f60ea)">
     <use xlink:href="#m03e2ed6a9d" x="364.76785" y="196.666469" style="stroke: #000000; stroke-width: 2.5"/>
    </g>
   </g>
   <g id="PathCollection_30">
    <g clip-path="url(#p0a339f60ea)">
     <use xlink:href="#m03e2ed6a9d" x="325.421409" y="224.79409" style="stroke: #000000; stroke-width: 2.5"/>
    </g>
   </g>
   <g id="PathCollection_31">
    <g clip-path="url(#p0a339f60ea)">
     <use xlink:href="#m03e2ed6a9d" x="245.257631" y="224.79409" style="stroke: #000000; stroke-width: 2.5"/>
    </g>
   </g>
   <g id="matplotlib.axis_1">
    <g id="xtick_1">
     <g id="line2d_1">
      <defs>
       <path id="me65a87d2d0" d="M 0 0 
L 0 8 
" style="stroke: #000000; stroke-width: 2"/>
      </defs>
      <g>
       <use xlink:href="#me65a87d2d0" x="63.234375" y="274.79875" style="stroke: #000000; stroke-width: 2"/>
      </g>
     </g>
     <g id="text_1">
      <!-- 76 -->
      <g transform="translate(52.1125 300.614375)scale(0.2 -0.2)">
       <defs>
        <path id="ArialMT-37" d="M 303 3981 
L 303 4522 
L 3269 4522 
L 3269 4084 
Q 2831 3619 2401 2847 
Q 1972 2075 1738 1259 
Q 1569 684 1522 0 
L 944 0 
Q 953 541 1156 1306 
Q 1359 2072 1739 2783 
Q 2119 3494 2547 3981 
L 303 3981 
z
" transform="scale(0.015625)"/>
        <path id="ArialMT-36" d="M 3184 3459 
L 2625 3416 
Q 2550 3747 2413 3897 
Q 2184 4138 1850 4138 
Q 1581 4138 1378 3988 
Q 1113 3794 959 3422 
Q 806 3050 800 2363 
Q 1003 2672 1297 2822 
Q 1591 2972 1913 2972 
Q 2475 2972 2870 2558 
Q 3266 2144 3266 1488 
Q 3266 1056 3080 686 
Q 2894 316 2569 119 
Q 2244 -78 1831 -78 
Q 1128 -78 684 439 
Q 241 956 241 2144 
Q 241 3472 731 4075 
Q 1159 4600 1884 4600 
Q 2425 4600 2770 4297 
Q 3116 3994 3184 3459 
z
M 888 1484 
Q 888 1194 1011 928 
Q 1134 663 1356 523 
Q 1578 384 1822 384 
Q 2178 384 2434 671 
Q 2691 959 2691 1453 
Q 2691 1928 2437 2201 
Q 2184 2475 1800 2475 
Q 1419 2475 1153 2201 
Q 888 1928 888 1484 
z
" transform="scale(0.015625)"/>
       </defs>
       <use xlink:href="#ArialMT-37"/>
       <use xlink:href="#ArialMT-36" x="55.615234"/>
      </g>
     </g>
    </g>
    <g id="xtick_2">
     <g id="line2d_2">
      <g>
       <use xlink:href="#me65a87d2d0" x="136.779125" y="274.79875" style="stroke: #000000; stroke-width: 2"/>
      </g>
     </g>
     <g id="text_2">
      <!-- 78 -->
      <g transform="translate(125.65725 300.614375)scale(0.2 -0.2)">
       <defs>
        <path id="ArialMT-38" d="M 1131 2484 
Q 781 2613 612 2850 
Q 444 3088 444 3419 
Q 444 3919 803 4259 
Q 1163 4600 1759 4600 
Q 2359 4600 2725 4251 
Q 3091 3903 3091 3403 
Q 3091 3084 2923 2848 
Q 2756 2613 2416 2484 
Q 2838 2347 3058 2040 
Q 3278 1734 3278 1309 
Q 3278 722 2862 322 
Q 2447 -78 1769 -78 
Q 1091 -78 675 323 
Q 259 725 259 1325 
Q 259 1772 486 2073 
Q 713 2375 1131 2484 
z
M 1019 3438 
Q 1019 3113 1228 2906 
Q 1438 2700 1772 2700 
Q 2097 2700 2305 2904 
Q 2513 3109 2513 3406 
Q 2513 3716 2298 3927 
Q 2084 4138 1766 4138 
Q 1444 4138 1231 3931 
Q 1019 3725 1019 3438 
z
M 838 1322 
Q 838 1081 952 856 
Q 1066 631 1291 507 
Q 1516 384 1775 384 
Q 2178 384 2440 643 
Q 2703 903 2703 1303 
Q 2703 1709 2433 1975 
Q 2163 2241 1756 2241 
Q 1359 2241 1098 1978 
Q 838 1716 838 1322 
z
" transform="scale(0.015625)"/>
       </defs>
       <use xlink:href="#ArialMT-37"/>
       <use xlink:href="#ArialMT-38" x="55.615234"/>
      </g>
     </g>
    </g>
    <g id="xtick_3">
     <g id="line2d_3">
      <g>
       <use xlink:href="#me65a87d2d0" x="210.323875" y="274.79875" style="stroke: #000000; stroke-width: 2"/>
      </g>
     </g>
     <g id="text_3">
      <!-- 80 -->
      <g transform="translate(199.202 300.614375)scale(0.2 -0.2)">
       <defs>
        <path id="ArialMT-30" d="M 266 2259 
Q 266 3072 433 3567 
Q 600 4063 929 4331 
Q 1259 4600 1759 4600 
Q 2128 4600 2406 4451 
Q 2684 4303 2865 4023 
Q 3047 3744 3150 3342 
Q 3253 2941 3253 2259 
Q 3253 1453 3087 958 
Q 2922 463 2592 192 
Q 2263 -78 1759 -78 
Q 1097 -78 719 397 
Q 266 969 266 2259 
z
M 844 2259 
Q 844 1131 1108 757 
Q 1372 384 1759 384 
Q 2147 384 2411 759 
Q 2675 1134 2675 2259 
Q 2675 3391 2411 3762 
Q 2147 4134 1753 4134 
Q 1366 4134 1134 3806 
Q 844 3388 844 2259 
z
" transform="scale(0.015625)"/>
       </defs>
       <use xlink:href="#ArialMT-38"/>
       <use xlink:href="#ArialMT-30" x="55.615234"/>
      </g>
     </g>
    </g>
    <g id="xtick_4">
     <g id="line2d_4">
      <g>
       <use xlink:href="#me65a87d2d0" x="283.868625" y="274.79875" style="stroke: #000000; stroke-width: 2"/>
      </g>
     </g>
     <g id="text_4">
      <!-- 82 -->
      <g transform="translate(272.74675 300.614375)scale(0.2 -0.2)">
       <defs>
        <path id="ArialMT-32" d="M 3222 541 
L 3222 0 
L 194 0 
Q 188 203 259 391 
Q 375 700 629 1000 
Q 884 1300 1366 1694 
Q 2113 2306 2375 2664 
Q 2638 3022 2638 3341 
Q 2638 3675 2398 3904 
Q 2159 4134 1775 4134 
Q 1369 4134 1125 3890 
Q 881 3647 878 3216 
L 300 3275 
Q 359 3922 746 4261 
Q 1134 4600 1788 4600 
Q 2447 4600 2831 4234 
Q 3216 3869 3216 3328 
Q 3216 3053 3103 2787 
Q 2991 2522 2730 2228 
Q 2469 1934 1863 1422 
Q 1356 997 1212 845 
Q 1069 694 975 541 
L 3222 541 
z
" transform="scale(0.015625)"/>
       </defs>
       <use xlink:href="#ArialMT-38"/>
       <use xlink:href="#ArialMT-32" x="55.615234"/>
      </g>
     </g>
    </g>
    <g id="xtick_5">
     <g id="line2d_5">
      <g>
       <use xlink:href="#me65a87d2d0" x="357.413375" y="274.79875" style="stroke: #000000; stroke-width: 2"/>
      </g>
     </g>
     <g id="text_5">
      <!-- 84 -->
      <g transform="translate(346.2915 300.614375)scale(0.2 -0.2)">
       <defs>
        <path id="ArialMT-34" d="M 2069 0 
L 2069 1097 
L 81 1097 
L 81 1613 
L 2172 4581 
L 2631 4581 
L 2631 1613 
L 3250 1613 
L 3250 1097 
L 2631 1097 
L 2631 0 
L 2069 0 
z
M 2069 1613 
L 2069 3678 
L 634 1613 
L 2069 1613 
z
" transform="scale(0.015625)"/>
       </defs>
       <use xlink:href="#ArialMT-38"/>
       <use xlink:href="#ArialMT-34" x="55.615234"/>
      </g>
     </g>
    </g>
    <g id="xtick_6">
     <g id="line2d_6">
      <g>
       <use xlink:href="#me65a87d2d0" x="430.958125" y="274.79875" style="stroke: #000000; stroke-width: 2"/>
      </g>
     </g>
     <g id="text_6">
      <!-- 86 -->
      <g transform="translate(419.83625 300.614375)scale(0.2 -0.2)">
       <use xlink:href="#ArialMT-38"/>
       <use xlink:href="#ArialMT-36" x="55.615234"/>
      </g>
     </g>
    </g>
    <g id="text_7">
     <!-- LN$^+$ -->
     <g transform="translate(225.29625 322.905)scale(0.2 -0.2)">
      <defs>
       <path id="ArialMT-4c" d="M 469 0 
L 469 4581 
L 1075 4581 
L 1075 541 
L 3331 541 
L 3331 0 
L 469 0 
z
" transform="scale(0.015625)"/>
       <path id="ArialMT-4e" d="M 488 0 
L 488 4581 
L 1109 4581 
L 3516 984 
L 3516 4581 
L 4097 4581 
L 4097 0 
L 3475 0 
L 1069 3600 
L 1069 0 
L 488 0 
z
" transform="scale(0.015625)"/>
       <path id="DejaVuSans-2b" d="M 2944 4013 
L 2944 2272 
L 4684 2272 
L 4684 1741 
L 2944 1741 
L 2944 0 
L 2419 0 
L 2419 1741 
L 678 1741 
L 678 2272 
L 2419 2272 
L 2419 4013 
L 2944 4013 
z
" transform="scale(0.015625)"/>
      </defs>
      <use xlink:href="#ArialMT-4c" transform="translate(0 0.826562)"/>
      <use xlink:href="#ArialMT-4e" transform="translate(55.615234 0.826562)"/>
      <use xlink:href="#DejaVuSans-2b" transform="translate(142.426758 39.107812)scale(0.7)"/>
     </g>
    </g>
   </g>
   <g id="matplotlib.axis_2">
    <g id="ytick_1">
     <g id="line2d_7">
      <defs>
       <path id="m94a0ff63f9" d="M 0 0 
L -8 0 
" style="stroke: #000000; stroke-width: 2"/>
      </defs>
      <g>
       <use xlink:href="#m94a0ff63f9" x="63.234375" y="274.79875" style="stroke: #000000; stroke-width: 2"/>
      </g>
     </g>
     <g id="text_8">
      <!-- 76 -->
      <g transform="translate(29.490625 281.956563)scale(0.2 -0.2)">
       <use xlink:href="#ArialMT-37"/>
       <use xlink:href="#ArialMT-36" x="55.615234"/>
      </g>
     </g>
    </g>
    <g id="ytick_2">
     <g id="line2d_8">
      <g>
       <use xlink:href="#m94a0ff63f9" x="63.234375" y="222.710563" style="stroke: #000000; stroke-width: 2"/>
      </g>
     </g>
     <g id="text_9">
      <!-- 78 -->
      <g transform="translate(29.490625 229.868375)scale(0.2 -0.2)">
       <use xlink:href="#ArialMT-37"/>
       <use xlink:href="#ArialMT-38" x="55.615234"/>
      </g>
     </g>
    </g>
    <g id="ytick_3">
     <g id="line2d_9">
      <g>
       <use xlink:href="#m94a0ff63f9" x="63.234375" y="170.622375" style="stroke: #000000; stroke-width: 2"/>
      </g>
     </g>
     <g id="text_10">
      <!-- 80 -->
      <g transform="translate(29.490625 177.780188)scale(0.2 -0.2)">
       <use xlink:href="#ArialMT-38"/>
       <use xlink:href="#ArialMT-30" x="55.615234"/>
      </g>
     </g>
    </g>
    <g id="ytick_4">
     <g id="line2d_10">
      <g>
       <use xlink:href="#m94a0ff63f9" x="63.234375" y="118.534188" style="stroke: #000000; stroke-width: 2"/>
      </g>
     </g>
     <g id="text_11">
      <!-- 82 -->
      <g transform="translate(29.490625 125.692)scale(0.2 -0.2)">
       <use xlink:href="#ArialMT-38"/>
       <use xlink:href="#ArialMT-32" x="55.615234"/>
      </g>
     </g>
    </g>
    <g id="ytick_5">
     <g id="line2d_11">
      <g>
       <use xlink:href="#m94a0ff63f9" x="63.234375" y="66.446" style="stroke: #000000; stroke-width: 2"/>
      </g>
     </g>
     <g id="text_12">
      <!-- 84 -->
      <g transform="translate(29.490625 73.603813)scale(0.2 -0.2)">
       <use xlink:href="#ArialMT-38"/>
       <use xlink:href="#ArialMT-34" x="55.615234"/>
      </g>
     </g>
    </g>
    <g id="ytick_6">
     <g id="line2d_12">
      <g>
       <use xlink:href="#m94a0ff63f9" x="63.234375" y="14.357813" style="stroke: #000000; stroke-width: 2"/>
      </g>
     </g>
     <g id="text_13">
      <!-- 86 -->
      <g transform="translate(29.490625 21.515625)scale(0.2 -0.2)">
       <use xlink:href="#ArialMT-38"/>
       <use xlink:href="#ArialMT-36" x="55.615234"/>
      </g>
     </g>
    </g>
    <g id="text_14">
     <!-- LN$^-$ -->
     <g transform="translate(21.515625 166.378281)rotate(-90)scale(0.2 -0.2)">
      <defs>
       <path id="DejaVuSans-2212" d="M 678 2272 
L 4684 2272 
L 4684 1741 
L 678 1741 
L 678 2272 
z
" transform="scale(0.015625)"/>
      </defs>
      <use xlink:href="#ArialMT-4c" transform="translate(0 0.421875)"/>
      <use xlink:href="#ArialMT-4e" transform="translate(55.615234 0.421875)"/>
      <use xlink:href="#DejaVuSans-2212" transform="translate(142.426758 38.703125)scale(0.7)"/>
     </g>
    </g>
   </g>
   <g id="line2d_13">
    <path d="M -1 320.292849 
L 26.462 300.842844 
L 63.234375 274.79875 
L 100.00675 248.754656 
L 136.779125 222.710563 
L 173.5515 196.666469 
L 210.323875 170.622375 
L 247.09625 144.578281 
L 283.868625 118.534188 
L 320.641 92.490094 
L 357.413375 66.446 
L 394.18575 40.401906 
L 430.958125 14.357813 
L 450.28 0.673063 
" clip-path="url(#p0a339f60ea)" style="fill: none; stroke-dasharray: 20,10; stroke-dashoffset: 0; stroke: #000000; stroke-width: 2.5"/>
   </g>
   <g id="patch_3">
    <path d="M 63.234375 274.79875 
L 63.234375 14.357813 
" style="fill: none; stroke: #000000; stroke-width: 1.5; stroke-linejoin: miter; stroke-linecap: square"/>
   </g>
   <g id="patch_4">
    <path d="M 63.234375 274.79875 
L 430.958125 274.79875 
" style="fill: none; stroke: #000000; stroke-width: 1.5; stroke-linejoin: miter; stroke-linecap: square"/>
   </g>
   <g id="legend_1">
    <g id="patch_5">
     <path d="M 75.330375 52.624913 
L 183.848775 52.624913 
Q 187.304775 52.624913 187.304775 49.168913 
L 187.304775 26.453813 
Q 187.304775 22.997813 183.848775 22.997813 
L 75.330375 22.997813 
Q 71.874375 22.997813 71.874375 26.453813 
L 71.874375 49.168913 
Q 71.874375 52.624913 75.330375 52.624913 
z
" style="fill: #ffffff; opacity: 0.8; stroke: #cccccc; stroke-width: 2.5; stroke-linejoin: miter"/>
    </g>
    <g id="PathCollection_32">
     <g>
      <use xlink:href="#m03e2ed6a9d" x="96.066375" y="37.742513" style="stroke: #000000; stroke-width: 2.5"/>
     </g>
    </g>
    <g id="text_15">
     <!-- $\epsilon$=0.75 -->
     <g transform="translate(127.170375 42.278513)scale(0.1728 -0.1728)">
      <defs>
       <path id="DejaVuSans-Oblique-3b5" d="M 1263 1888 
Q 925 1963 778 2166 
Q 669 2309 669 2503 
Q 669 3034 1175 3344 
Q 1575 3588 2188 3588 
Q 2425 3588 2684 3550 
Q 2944 3513 3234 3438 
L 3134 2916 
Q 2847 3006 2606 3047 
Q 2359 3088 2138 3088 
Q 1766 3088 1522 2944 
Q 1228 2772 1228 2522 
Q 1228 2356 1381 2241 
Q 1563 2103 1925 2103 
L 2409 2103 
L 2319 1628 
L 1856 1628 
Q 1425 1628 1172 1469 
Q 828 1253 828 916 
Q 828 703 1013 563 
Q 1244 388 1716 388 
Q 2006 388 2284 444 
Q 2563 503 2806 619 
L 2700 84 
Q 2403 -3 2131 -47 
Q 1859 -91 1609 -91 
Q 866 -91 516 194 
Q 250 413 250 781 
Q 250 1278 600 1584 
Q 859 1813 1263 1888 
z
" transform="scale(0.015625)"/>
       <path id="ArialMT-3d" d="M 3381 2694 
L 356 2694 
L 356 3219 
L 3381 3219 
L 3381 2694 
z
M 3381 1303 
L 356 1303 
L 356 1828 
L 3381 1828 
L 3381 1303 
z
" transform="scale(0.015625)"/>
       <path id="ArialMT-2e" d="M 581 0 
L 581 641 
L 1222 641 
L 1222 0 
L 581 0 
z
" transform="scale(0.015625)"/>
       <path id="ArialMT-35" d="M 266 1200 
L 856 1250 
Q 922 819 1161 601 
Q 1400 384 1738 384 
Q 2144 384 2425 690 
Q 2706 997 2706 1503 
Q 2706 1984 2436 2262 
Q 2166 2541 1728 2541 
Q 1456 2541 1237 2417 
Q 1019 2294 894 2097 
L 366 2166 
L 809 4519 
L 3088 4519 
L 3088 3981 
L 1259 3981 
L 1013 2750 
Q 1425 3038 1878 3038 
Q 2478 3038 2890 2622 
Q 3303 2206 3303 1553 
Q 3303 931 2941 478 
Q 2500 -78 1738 -78 
Q 1113 -78 717 272 
Q 322 622 266 1200 
z
" transform="scale(0.015625)"/>
      </defs>
      <use xlink:href="#DejaVuSans-Oblique-3b5" transform="translate(0 0.125)"/>
      <use xlink:href="#ArialMT-3d" transform="translate(54.052734 0.125)"/>
      <use xlink:href="#ArialMT-30" transform="translate(112.451172 0.125)"/>
      <use xlink:href="#ArialMT-2e" transform="translate(168.066406 0.125)"/>
      <use xlink:href="#ArialMT-37" transform="translate(195.849609 0.125)"/>
      <use xlink:href="#ArialMT-35" transform="translate(251.464844 0.125)"/>
     </g>
    </g>
   </g>
  </g>
 </g>
 <defs>
  <clipPath id="p0a339f60ea">
   <rect x="63.234375" y="14.357813" width="367.72375" height="260.440938"/>
  </clipPath>
 </defs>
</svg>
