<?xml version="1.0" encoding="utf-8" standalone="no"?>
<!DOCTYPE svg PUBLIC "-//W3C//DTD SVG 1.1//EN"
  "http://www.w3.org/Graphics/SVG/1.1/DTD/svg11.dtd">
<svg xmlns:xlink="http://www.w3.org/1999/xlink" width="852.48pt" height="276.48pt" viewBox="0 0 852.48 276.48" xmlns="http://www.w3.org/2000/svg" version="1.1">
 <metadata>
  <rdf:RDF xmlns:dc="http://purl.org/dc/elements/1.1/" xmlns:cc="http://creativecommons.org/ns#" xmlns:rdf="http://www.w3.org/1999/02/22-rdf-syntax-ns#">
   <cc:Work>
    <dc:type rdf:resource="http://purl.org/dc/dcmitype/StillImage"/>
    <dc:date>2025-09-09T14:59:01.479409</dc:date>
    <dc:format>image/svg+xml</dc:format>
    <dc:creator>
     <cc:Agent>
      <dc:title>Matplotlib v3.5.3, https://matplotlib.org/</dc:title>
     </cc:Agent>
    </dc:creator>
   </cc:Work>
  </rdf:RDF>
 </metadata>
 <defs>
  <style type="text/css">*{stroke-linejoin: round; stroke-linecap: butt}</style>
 </defs>
 <g id="figure_1">
  <g id="patch_1">
   <path d="M 0 276.48 
L 852.48 276.48 
L 852.48 0 
L 0 0 
z
" style="fill: #ffffff"/>
  </g>
  <g id="axes_1">
   <g id="patch_2">
    <path d="M 64.8632 221.9632 
L 845.28 221.9632 
L 845.28 7.2 
L 64.8632 7.2 
z
" style="fill: #ffffff"/>
   </g>
   <g id="PolyCollection_1">
    <defs>
     <path id="m1d77ce28ca" d="M 100.336691 -259.518036 
L 100.336691 -222.039777 
L 114.815667 -214.575663 
L 129.294643 -210.933572 
L 143.773619 -207.401061 
L 158.252594 -204.224597 
L 172.73157 -200.912847 
L 187.210546 -199.591779 
L 201.689522 -198.062502 
L 216.168498 -197.297996 
L 230.647474 -197.661888 
L 245.12645 -196.53012 
L 259.605426 -196.790952 
L 274.084401 -196.978169 
L 288.563377 -197.585295 
L 303.042353 -197.7237 
L 317.521329 -196.035711 
L 332.000305 -196.617264 
L 346.479281 -198.308192 
L 360.958257 -196.85833 
L 375.437233 -198.017499 
L 389.916209 -196.387424 
L 404.395184 -199.127863 
L 418.87416 -197.968616 
L 433.353136 -198.006531 
L 447.832112 -196.636066 
L 462.311088 -198.858812 
L 476.790064 -199.994169 
L 491.26904 -196.002872 
L 505.748016 -197.244772 
L 520.226991 -197.839856 
L 534.705967 -200.061664 
L 549.184943 -199.11506 
L 563.663919 -198.112339 
L 578.142895 -198.057756 
L 592.621871 -199.514422 
L 607.100847 -199.600292 
L 621.579823 -198.032166 
L 636.058799 -198.001991 
L 650.537774 -198.023509 
L 665.01675 -200.127209 
L 679.495726 -201.489238 
L 693.974702 -198.545503 
L 708.453678 -198.483814 
L 722.932654 -200.693037 
L 737.41163 -201.543836 
L 751.890606 -198.886446 
L 766.369581 -201.144663 
L 780.848557 -200.698761 
L 795.327533 -201.353296 
L 809.806509 -198.463277 
L 809.806509 -251.027077 
L 809.806509 -251.027077 
L 795.327533 -251.394343 
L 780.848557 -250.320927 
L 766.369581 -250.659375 
L 751.890606 -250.762244 
L 737.41163 -247.97416 
L 722.932654 -250.728708 
L 708.453678 -251.645713 
L 693.974702 -252.366541 
L 679.495726 -252.243101 
L 665.01675 -252.371945 
L 650.537774 -251.132307 
L 636.058799 -251.903398 
L 621.579823 -252.754889 
L 607.100847 -253.585354 
L 592.621871 -252.26678 
L 578.142895 -253.225006 
L 563.663919 -253.573355 
L 549.184943 -254.092484 
L 534.705967 -253.555711 
L 520.226991 -251.813801 
L 505.748016 -253.553707 
L 491.26904 -254.445721 
L 476.790064 -253.393066 
L 462.311088 -254.907044 
L 447.832112 -255.513072 
L 433.353136 -255.247919 
L 418.87416 -254.911769 
L 404.395184 -254.708651 
L 389.916209 -253.917785 
L 375.437233 -253.297265 
L 360.958257 -256.119895 
L 346.479281 -255.765535 
L 332.000305 -252.611241 
L 317.521329 -254.983981 
L 303.042353 -253.670597 
L 288.563377 -251.409693 
L 274.084401 -251.461352 
L 259.605426 -252.537277 
L 245.12645 -251.644911 
L 230.647474 -250.951134 
L 216.168498 -249.648284 
L 201.689522 -247.469421 
L 187.210546 -248.60535 
L 172.73157 -248.585856 
L 158.252594 -247.232815 
L 143.773619 -247.258873 
L 129.294643 -249.273223 
L 114.815667 -252.379336 
L 100.336691 -259.518036 
z
" style="stroke: #002040; stroke-opacity: 0.2; stroke-width: 2.5"/>
    </defs>
    <g clip-path="url(#p97dcb86b18)">
     <use xlink:href="#m1d77ce28ca" x="0" y="276.48" style="fill: #002040; fill-opacity: 0.2; stroke: #002040; stroke-opacity: 0.2; stroke-width: 2.5"/>
    </g>
   </g>
   <g id="PolyCollection_2">
    <defs>
     <path id="m137a226540" d="M 100.336691 -122.505413 
L 100.336691 -105.672707 
L 114.815667 -102.213681 
L 129.294643 -99.329139 
L 143.773619 -98.370815 
L 158.252594 -97.148202 
L 172.73157 -95.48393 
L 187.210546 -95.535686 
L 201.689522 -94.150448 
L 216.168498 -93.656335 
L 230.647474 -93.467405 
L 245.12645 -92.196718 
L 259.605426 -92.49213 
L 274.084401 -91.047327 
L 288.563377 -90.828829 
L 303.042353 -89.448185 
L 317.521329 -89.853266 
L 332.000305 -90.040033 
L 346.479281 -86.827361 
L 360.958257 -86.120887 
L 375.437233 -84.359562 
L 389.916209 -84.600042 
L 404.395184 -84.696447 
L 418.87416 -85.895423 
L 433.353136 -86.56833 
L 447.832112 -83.448798 
L 462.311088 -79.648401 
L 476.790064 -78.531251 
L 491.26904 -77.953439 
L 505.748016 -78.792013 
L 520.226991 -79.670725 
L 534.705967 -80.084816 
L 549.184943 -80.210789 
L 563.663919 -80.447175 
L 578.142895 -80.788166 
L 592.621871 -81.097292 
L 607.100847 -81.269642 
L 621.579823 -71.802394 
L 636.058799 -68.35001 
L 650.537774 -69.322679 
L 665.01675 -67.603009 
L 679.495726 -67.628242 
L 693.974702 -68.301473 
L 708.453678 -68.627427 
L 722.932654 -68.833263 
L 737.41163 -66.12903 
L 751.890606 -65.159568 
L 766.369581 -64.278764 
L 780.848557 -65.930455 
L 795.327533 -68.235945 
L 809.806509 -68.020552 
L 809.806509 -127.538158 
L 809.806509 -127.538158 
L 795.327533 -127.476257 
L 780.848557 -130.236032 
L 766.369581 -131.370237 
L 751.890606 -129.84592 
L 737.41163 -129.122576 
L 722.932654 -126.241209 
L 708.453678 -125.835296 
L 693.974702 -126.85761 
L 679.495726 -129.278584 
L 665.01675 -131.10692 
L 650.537774 -125.64297 
L 636.058799 -128.302762 
L 621.579823 -122.185259 
L 607.100847 -109.131102 
L 592.621871 -105.565343 
L 578.142895 -107.427803 
L 563.663919 -108.685498 
L 549.184943 -110.046713 
L 534.705967 -110.188251 
L 520.226991 -111.297046 
L 505.748016 -112.571746 
L 491.26904 -114.438276 
L 476.790064 -116.587349 
L 462.311088 -117.213799 
L 447.832112 -109.480769 
L 433.353136 -106.798433 
L 418.87416 -106.542014 
L 404.395184 -109.799192 
L 389.916209 -110.225877 
L 375.437233 -112.102587 
L 360.958257 -111.957159 
L 346.479281 -110.017387 
L 332.000305 -106.082741 
L 317.521329 -108.215863 
L 303.042353 -108.860166 
L 288.563377 -108.45858 
L 274.084401 -107.489277 
L 259.605426 -106.806798 
L 245.12645 -110.7506 
L 230.647474 -110.060062 
L 216.168498 -108.958799 
L 201.689522 -112.809103 
L 187.210546 -112.374335 
L 172.73157 -115.135043 
L 158.252594 -112.690464 
L 143.773619 -116.979024 
L 129.294643 -117.171433 
L 114.815667 -118.931781 
L 100.336691 -122.505413 
z
" style="stroke: #004080; stroke-opacity: 0.2; stroke-width: 2.5"/>
    </defs>
    <g clip-path="url(#p97dcb86b18)">
     <use xlink:href="#m137a226540" x="0" y="276.48" style="fill: #004080; fill-opacity: 0.2; stroke: #004080; stroke-opacity: 0.2; stroke-width: 2.5"/>
    </g>
   </g>
   <g id="PolyCollection_3">
    <defs>
     <path id="mf6681bfba3" d="M 100.336691 -157.168427 
L 100.336691 -121.939555 
L 114.815667 -113.884051 
L 129.294643 -107.904682 
L 143.773619 -103.7785 
L 158.252594 -105.565356 
L 172.73157 -105.363239 
L 187.210546 -99.339075 
L 201.689522 -103.483495 
L 216.168498 -102.345188 
L 230.647474 -101.43094 
L 245.12645 -99.813612 
L 259.605426 -97.863587 
L 274.084401 -97.130917 
L 288.563377 -95.628983 
L 303.042353 -96.697269 
L 317.521329 -92.839075 
L 332.000305 -89.571031 
L 346.479281 -90.234033 
L 360.958257 -89.119248 
L 375.437233 -89.529565 
L 389.916209 -87.307884 
L 404.395184 -89.502382 
L 418.87416 -86.376026 
L 433.353136 -85.490968 
L 447.832112 -84.82108 
L 462.311088 -83.755439 
L 476.790064 -81.749136 
L 491.26904 -81.872229 
L 505.748016 -81.855705 
L 520.226991 -79.632138 
L 534.705967 -80.619079 
L 549.184943 -79.863986 
L 563.663919 -78.318443 
L 578.142895 -77.906355 
L 592.621871 -78.548215 
L 607.100847 -76.010945 
L 621.579823 -75.877018 
L 636.058799 -76.071606 
L 650.537774 -76.861904 
L 665.01675 -75.535349 
L 679.495726 -73.59307 
L 693.974702 -73.273332 
L 708.453678 -73.431741 
L 722.932654 -73.261466 
L 737.41163 -75.476222 
L 751.890606 -73.257665 
L 766.369581 -72.719599 
L 780.848557 -73.768728 
L 795.327533 -73.292995 
L 809.806509 -71.3193 
L 809.806509 -113.257697 
L 809.806509 -113.257697 
L 795.327533 -111.720878 
L 780.848557 -111.325712 
L 766.369581 -112.507543 
L 751.890606 -112.290211 
L 737.41163 -116.550363 
L 722.932654 -116.497872 
L 708.453678 -115.794112 
L 693.974702 -115.158193 
L 679.495726 -117.177272 
L 665.01675 -119.580289 
L 650.537774 -116.359269 
L 636.058799 -120.161192 
L 621.579823 -117.818801 
L 607.100847 -119.738217 
L 592.621871 -117.754948 
L 578.142895 -120.366869 
L 563.663919 -122.768756 
L 549.184943 -122.114323 
L 534.705967 -119.513633 
L 520.226991 -121.193652 
L 505.748016 -121.537987 
L 491.26904 -123.801542 
L 476.790064 -119.606556 
L 462.311088 -123.509589 
L 447.832112 -123.635041 
L 433.353136 -122.958202 
L 418.87416 -125.415867 
L 404.395184 -127.857201 
L 389.916209 -126.256581 
L 375.437233 -126.565353 
L 360.958257 -128.103111 
L 346.479281 -127.46858 
L 332.000305 -129.699347 
L 317.521329 -132.188745 
L 303.042353 -133.981841 
L 288.563377 -132.900448 
L 274.084401 -132.702259 
L 259.605426 -133.520652 
L 245.12645 -139.200914 
L 230.647474 -136.231254 
L 216.168498 -135.964245 
L 201.689522 -136.576368 
L 187.210546 -139.17537 
L 172.73157 -138.716019 
L 158.252594 -141.005809 
L 143.773619 -142.05977 
L 129.294643 -146.313142 
L 114.815667 -152.709153 
L 100.336691 -157.168427 
z
" style="stroke: #42a0c0; stroke-opacity: 0.2; stroke-width: 2.5"/>
    </defs>
    <g clip-path="url(#p97dcb86b18)">
     <use xlink:href="#mf6681bfba3" x="0" y="276.48" style="fill: #42a0c0; fill-opacity: 0.2; stroke: #42a0c0; stroke-opacity: 0.2; stroke-width: 2.5"/>
    </g>
   </g>
   <g id="matplotlib.axis_1">
    <g id="xtick_1">
     <g id="line2d_1">
      <defs>
       <path id="m964e5b1707" d="M 0 0 
L 0 8 
" style="stroke: #000000; stroke-width: 2"/>
      </defs>
      <g>
       <use xlink:href="#m964e5b1707" x="100.336691" y="221.9632" style="stroke: #000000; stroke-width: 2"/>
      </g>
     </g>
     <g id="text_1">
      <!-- 0 -->
      <g transform="translate(95.532041 245.8319)scale(0.1728 -0.1728)">
       <defs>
        <path id="ArialMT-30" d="M 266 2259 
Q 266 3072 433 3567 
Q 600 4063 929 4331 
Q 1259 4600 1759 4600 
Q 2128 4600 2406 4451 
Q 2684 4303 2865 4023 
Q 3047 3744 3150 3342 
Q 3253 2941 3253 2259 
Q 3253 1453 3087 958 
Q 2922 463 2592 192 
Q 2263 -78 1759 -78 
Q 1097 -78 719 397 
Q 266 969 266 2259 
z
M 844 2259 
Q 844 1131 1108 757 
Q 1372 384 1759 384 
Q 2147 384 2411 759 
Q 2675 1134 2675 2259 
Q 2675 3391 2411 3762 
Q 2147 4134 1753 4134 
Q 1366 4134 1134 3806 
Q 844 3388 844 2259 
z
" transform="scale(0.015625)"/>
       </defs>
       <use xlink:href="#ArialMT-30"/>
      </g>
     </g>
    </g>
    <g id="xtick_2">
     <g id="line2d_2">
      <g>
       <use xlink:href="#m964e5b1707" x="245.12645" y="221.9632" style="stroke: #000000; stroke-width: 2"/>
      </g>
     </g>
     <g id="text_2">
      <!-- 10 -->
      <g transform="translate(235.51715 245.8319)scale(0.1728 -0.1728)">
       <defs>
        <path id="ArialMT-31" d="M 2384 0 
L 1822 0 
L 1822 3584 
Q 1619 3391 1289 3197 
Q 959 3003 697 2906 
L 697 3450 
Q 1169 3672 1522 3987 
Q 1875 4303 2022 4600 
L 2384 4600 
L 2384 0 
z
" transform="scale(0.015625)"/>
       </defs>
       <use xlink:href="#ArialMT-31"/>
       <use xlink:href="#ArialMT-30" x="55.615234"/>
      </g>
     </g>
    </g>
    <g id="xtick_3">
     <g id="line2d_3">
      <g>
       <use xlink:href="#m964e5b1707" x="389.916209" y="221.9632" style="stroke: #000000; stroke-width: 2"/>
      </g>
     </g>
     <g id="text_3">
      <!-- 20 -->
      <g transform="translate(380.306909 245.8319)scale(0.1728 -0.1728)">
       <defs>
        <path id="ArialMT-32" d="M 3222 541 
L 3222 0 
L 194 0 
Q 188 203 259 391 
Q 375 700 629 1000 
Q 884 1300 1366 1694 
Q 2113 2306 2375 2664 
Q 2638 3022 2638 3341 
Q 2638 3675 2398 3904 
Q 2159 4134 1775 4134 
Q 1369 4134 1125 3890 
Q 881 3647 878 3216 
L 300 3275 
Q 359 3922 746 4261 
Q 1134 4600 1788 4600 
Q 2447 4600 2831 4234 
Q 3216 3869 3216 3328 
Q 3216 3053 3103 2787 
Q 2991 2522 2730 2228 
Q 2469 1934 1863 1422 
Q 1356 997 1212 845 
Q 1069 694 975 541 
L 3222 541 
z
" transform="scale(0.015625)"/>
       </defs>
       <use xlink:href="#ArialMT-32"/>
       <use xlink:href="#ArialMT-30" x="55.615234"/>
      </g>
     </g>
    </g>
    <g id="xtick_4">
     <g id="line2d_4">
      <g>
       <use xlink:href="#m964e5b1707" x="534.705967" y="221.9632" style="stroke: #000000; stroke-width: 2"/>
      </g>
     </g>
     <g id="text_4">
      <!-- 30 -->
      <g transform="translate(525.096667 245.8319)scale(0.1728 -0.1728)">
       <defs>
        <path id="ArialMT-33" d="M 269 1209 
L 831 1284 
Q 928 806 1161 595 
Q 1394 384 1728 384 
Q 2125 384 2398 659 
Q 2672 934 2672 1341 
Q 2672 1728 2419 1979 
Q 2166 2231 1775 2231 
Q 1616 2231 1378 2169 
L 1441 2663 
Q 1497 2656 1531 2656 
Q 1891 2656 2178 2843 
Q 2466 3031 2466 3422 
Q 2466 3731 2256 3934 
Q 2047 4138 1716 4138 
Q 1388 4138 1169 3931 
Q 950 3725 888 3313 
L 325 3413 
Q 428 3978 793 4289 
Q 1159 4600 1703 4600 
Q 2078 4600 2393 4439 
Q 2709 4278 2876 4000 
Q 3044 3722 3044 3409 
Q 3044 3113 2884 2869 
Q 2725 2625 2413 2481 
Q 2819 2388 3044 2092 
Q 3269 1797 3269 1353 
Q 3269 753 2831 336 
Q 2394 -81 1725 -81 
Q 1122 -81 723 278 
Q 325 638 269 1209 
z
" transform="scale(0.015625)"/>
       </defs>
       <use xlink:href="#ArialMT-33"/>
       <use xlink:href="#ArialMT-30" x="55.615234"/>
      </g>
     </g>
    </g>
    <g id="xtick_5">
     <g id="line2d_5">
      <g>
       <use xlink:href="#m964e5b1707" x="679.495726" y="221.9632" style="stroke: #000000; stroke-width: 2"/>
      </g>
     </g>
     <g id="text_5">
      <!-- 40 -->
      <g transform="translate(669.886426 245.8319)scale(0.1728 -0.1728)">
       <defs>
        <path id="ArialMT-34" d="M 2069 0 
L 2069 1097 
L 81 1097 
L 81 1613 
L 2172 4581 
L 2631 4581 
L 2631 1613 
L 3250 1613 
L 3250 1097 
L 2631 1097 
L 2631 0 
L 2069 0 
z
M 2069 1613 
L 2069 3678 
L 634 1613 
L 2069 1613 
z
" transform="scale(0.015625)"/>
       </defs>
       <use xlink:href="#ArialMT-34"/>
       <use xlink:href="#ArialMT-30" x="55.615234"/>
      </g>
     </g>
    </g>
    <g id="xtick_6">
     <g id="line2d_6">
      <g>
       <use xlink:href="#m964e5b1707" x="824.285485" y="221.9632" style="stroke: #000000; stroke-width: 2"/>
      </g>
     </g>
     <g id="text_6">
      <!-- 50 -->
      <g transform="translate(814.676185 245.8319)scale(0.1728 -0.1728)">
       <defs>
        <path id="ArialMT-35" d="M 266 1200 
L 856 1250 
Q 922 819 1161 601 
Q 1400 384 1738 384 
Q 2144 384 2425 690 
Q 2706 997 2706 1503 
Q 2706 1984 2436 2262 
Q 2166 2541 1728 2541 
Q 1456 2541 1237 2417 
Q 1019 2294 894 2097 
L 366 2166 
L 809 4519 
L 3088 4519 
L 3088 3981 
L 1259 3981 
L 1013 2750 
Q 1425 3038 1878 3038 
Q 2478 3038 2890 2622 
Q 3303 2206 3303 1553 
Q 3303 931 2941 478 
Q 2500 -78 1738 -78 
Q 1113 -78 717 272 
Q 322 622 266 1200 
z
" transform="scale(0.015625)"/>
       </defs>
       <use xlink:href="#ArialMT-35"/>
       <use xlink:href="#ArialMT-30" x="55.615234"/>
      </g>
     </g>
    </g>
    <g id="text_7">
     <!-- Step -->
     <g transform="translate(437.29885 265.8456)scale(0.1728 -0.1728)">
      <defs>
       <path id="ArialMT-53" d="M 288 1472 
L 859 1522 
Q 900 1178 1048 958 
Q 1197 738 1509 602 
Q 1822 466 2213 466 
Q 2559 466 2825 569 
Q 3091 672 3220 851 
Q 3350 1031 3350 1244 
Q 3350 1459 3225 1620 
Q 3100 1781 2813 1891 
Q 2628 1963 1997 2114 
Q 1366 2266 1113 2400 
Q 784 2572 623 2826 
Q 463 3081 463 3397 
Q 463 3744 659 4045 
Q 856 4347 1234 4503 
Q 1613 4659 2075 4659 
Q 2584 4659 2973 4495 
Q 3363 4331 3572 4012 
Q 3781 3694 3797 3291 
L 3216 3247 
Q 3169 3681 2898 3903 
Q 2628 4125 2100 4125 
Q 1550 4125 1298 3923 
Q 1047 3722 1047 3438 
Q 1047 3191 1225 3031 
Q 1400 2872 2139 2705 
Q 2878 2538 3153 2413 
Q 3553 2228 3743 1945 
Q 3934 1663 3934 1294 
Q 3934 928 3725 604 
Q 3516 281 3123 101 
Q 2731 -78 2241 -78 
Q 1619 -78 1198 103 
Q 778 284 539 648 
Q 300 1013 288 1472 
z
" transform="scale(0.015625)"/>
       <path id="ArialMT-74" d="M 1650 503 
L 1731 6 
Q 1494 -44 1306 -44 
Q 1000 -44 831 53 
Q 663 150 594 308 
Q 525 466 525 972 
L 525 2881 
L 113 2881 
L 113 3319 
L 525 3319 
L 525 4141 
L 1084 4478 
L 1084 3319 
L 1650 3319 
L 1650 2881 
L 1084 2881 
L 1084 941 
Q 1084 700 1114 631 
Q 1144 563 1211 522 
Q 1278 481 1403 481 
Q 1497 481 1650 503 
z
" transform="scale(0.015625)"/>
       <path id="ArialMT-65" d="M 2694 1069 
L 3275 997 
Q 3138 488 2766 206 
Q 2394 -75 1816 -75 
Q 1088 -75 661 373 
Q 234 822 234 1631 
Q 234 2469 665 2931 
Q 1097 3394 1784 3394 
Q 2450 3394 2872 2941 
Q 3294 2488 3294 1666 
Q 3294 1616 3291 1516 
L 816 1516 
Q 847 969 1125 678 
Q 1403 388 1819 388 
Q 2128 388 2347 550 
Q 2566 713 2694 1069 
z
M 847 1978 
L 2700 1978 
Q 2663 2397 2488 2606 
Q 2219 2931 1791 2931 
Q 1403 2931 1139 2672 
Q 875 2413 847 1978 
z
" transform="scale(0.015625)"/>
       <path id="ArialMT-70" d="M 422 -1272 
L 422 3319 
L 934 3319 
L 934 2888 
Q 1116 3141 1344 3267 
Q 1572 3394 1897 3394 
Q 2322 3394 2647 3175 
Q 2972 2956 3137 2557 
Q 3303 2159 3303 1684 
Q 3303 1175 3120 767 
Q 2938 359 2589 142 
Q 2241 -75 1856 -75 
Q 1575 -75 1351 44 
Q 1128 163 984 344 
L 984 -1272 
L 422 -1272 
z
M 931 1641 
Q 931 1000 1190 694 
Q 1450 388 1819 388 
Q 2194 388 2461 705 
Q 2728 1022 2728 1688 
Q 2728 2322 2467 2637 
Q 2206 2953 1844 2953 
Q 1484 2953 1207 2617 
Q 931 2281 931 1641 
z
" transform="scale(0.015625)"/>
      </defs>
      <use xlink:href="#ArialMT-53"/>
      <use xlink:href="#ArialMT-74" x="66.699219"/>
      <use xlink:href="#ArialMT-65" x="94.482422"/>
      <use xlink:href="#ArialMT-70" x="150.097656"/>
     </g>
    </g>
   </g>
   <g id="matplotlib.axis_2">
    <g id="ytick_1">
     <g id="line2d_7">
      <defs>
       <path id="mcb1d6c867b" d="M 0 0 
L -8 0 
" style="stroke: #000000; stroke-width: 2"/>
      </defs>
      <g>
       <use xlink:href="#mcb1d6c867b" x="64.8632" y="186.844776" style="stroke: #000000; stroke-width: 2"/>
      </g>
     </g>
     <g id="text_8">
      <!-- 0.2 -->
      <g transform="translate(29.344 193.029126)scale(0.1728 -0.1728)">
       <defs>
        <path id="ArialMT-2e" d="M 581 0 
L 581 641 
L 1222 641 
L 1222 0 
L 581 0 
z
" transform="scale(0.015625)"/>
       </defs>
       <use xlink:href="#ArialMT-30"/>
       <use xlink:href="#ArialMT-2e" x="55.615234"/>
       <use xlink:href="#ArialMT-32" x="83.398438"/>
      </g>
     </g>
    </g>
    <g id="ytick_2">
     <g id="line2d_8">
      <g>
       <use xlink:href="#mcb1d6c867b" x="64.8632" y="125.755587" style="stroke: #000000; stroke-width: 2"/>
      </g>
     </g>
     <g id="text_9">
      <!-- 0.3 -->
      <g transform="translate(29.344 131.939937)scale(0.1728 -0.1728)">
       <use xlink:href="#ArialMT-30"/>
       <use xlink:href="#ArialMT-2e" x="55.615234"/>
       <use xlink:href="#ArialMT-33" x="83.398438"/>
      </g>
     </g>
    </g>
    <g id="ytick_3">
     <g id="line2d_9">
      <g>
       <use xlink:href="#mcb1d6c867b" x="64.8632" y="64.666397" style="stroke: #000000; stroke-width: 2"/>
      </g>
     </g>
     <g id="text_10">
      <!-- 0.4 -->
      <g transform="translate(29.344 70.850747)scale(0.1728 -0.1728)">
       <use xlink:href="#ArialMT-30"/>
       <use xlink:href="#ArialMT-2e" x="55.615234"/>
       <use xlink:href="#ArialMT-34" x="83.398438"/>
      </g>
     </g>
    </g>
    <g id="text_11">
     <!-- Gradient Alignment to LN$^+$ -->
     <g transform="translate(21.5424 219.3848)rotate(-90)scale(0.1728 -0.1728)">
      <defs>
       <path id="ArialMT-47" d="M 2638 1797 
L 2638 2334 
L 4578 2338 
L 4578 638 
Q 4131 281 3656 101 
Q 3181 -78 2681 -78 
Q 2006 -78 1454 211 
Q 903 500 622 1047 
Q 341 1594 341 2269 
Q 341 2938 620 3517 
Q 900 4097 1425 4378 
Q 1950 4659 2634 4659 
Q 3131 4659 3532 4498 
Q 3934 4338 4162 4050 
Q 4391 3763 4509 3300 
L 3963 3150 
Q 3859 3500 3706 3700 
Q 3553 3900 3268 4020 
Q 2984 4141 2638 4141 
Q 2222 4141 1919 4014 
Q 1616 3888 1430 3681 
Q 1244 3475 1141 3228 
Q 966 2803 966 2306 
Q 966 1694 1177 1281 
Q 1388 869 1791 669 
Q 2194 469 2647 469 
Q 3041 469 3416 620 
Q 3791 772 3984 944 
L 3984 1797 
L 2638 1797 
z
" transform="scale(0.015625)"/>
       <path id="ArialMT-72" d="M 416 0 
L 416 3319 
L 922 3319 
L 922 2816 
Q 1116 3169 1280 3281 
Q 1444 3394 1641 3394 
Q 1925 3394 2219 3213 
L 2025 2691 
Q 1819 2813 1613 2813 
Q 1428 2813 1281 2702 
Q 1134 2591 1072 2394 
Q 978 2094 978 1738 
L 978 0 
L 416 0 
z
" transform="scale(0.015625)"/>
       <path id="ArialMT-61" d="M 2588 409 
Q 2275 144 1986 34 
Q 1697 -75 1366 -75 
Q 819 -75 525 192 
Q 231 459 231 875 
Q 231 1119 342 1320 
Q 453 1522 633 1644 
Q 813 1766 1038 1828 
Q 1203 1872 1538 1913 
Q 2219 1994 2541 2106 
Q 2544 2222 2544 2253 
Q 2544 2597 2384 2738 
Q 2169 2928 1744 2928 
Q 1347 2928 1158 2789 
Q 969 2650 878 2297 
L 328 2372 
Q 403 2725 575 2942 
Q 747 3159 1072 3276 
Q 1397 3394 1825 3394 
Q 2250 3394 2515 3294 
Q 2781 3194 2906 3042 
Q 3031 2891 3081 2659 
Q 3109 2516 3109 2141 
L 3109 1391 
Q 3109 606 3145 398 
Q 3181 191 3288 0 
L 2700 0 
Q 2613 175 2588 409 
z
M 2541 1666 
Q 2234 1541 1622 1453 
Q 1275 1403 1131 1340 
Q 988 1278 909 1158 
Q 831 1038 831 891 
Q 831 666 1001 516 
Q 1172 366 1500 366 
Q 1825 366 2078 508 
Q 2331 650 2450 897 
Q 2541 1088 2541 1459 
L 2541 1666 
z
" transform="scale(0.015625)"/>
       <path id="ArialMT-64" d="M 2575 0 
L 2575 419 
Q 2259 -75 1647 -75 
Q 1250 -75 917 144 
Q 584 363 401 755 
Q 219 1147 219 1656 
Q 219 2153 384 2558 
Q 550 2963 881 3178 
Q 1213 3394 1622 3394 
Q 1922 3394 2156 3267 
Q 2391 3141 2538 2938 
L 2538 4581 
L 3097 4581 
L 3097 0 
L 2575 0 
z
M 797 1656 
Q 797 1019 1065 703 
Q 1334 388 1700 388 
Q 2069 388 2326 689 
Q 2584 991 2584 1609 
Q 2584 2291 2321 2609 
Q 2059 2928 1675 2928 
Q 1300 2928 1048 2622 
Q 797 2316 797 1656 
z
" transform="scale(0.015625)"/>
       <path id="ArialMT-69" d="M 425 3934 
L 425 4581 
L 988 4581 
L 988 3934 
L 425 3934 
z
M 425 0 
L 425 3319 
L 988 3319 
L 988 0 
L 425 0 
z
" transform="scale(0.015625)"/>
       <path id="ArialMT-6e" d="M 422 0 
L 422 3319 
L 928 3319 
L 928 2847 
Q 1294 3394 1984 3394 
Q 2284 3394 2536 3286 
Q 2788 3178 2913 3003 
Q 3038 2828 3088 2588 
Q 3119 2431 3119 2041 
L 3119 0 
L 2556 0 
L 2556 2019 
Q 2556 2363 2490 2533 
Q 2425 2703 2258 2804 
Q 2091 2906 1866 2906 
Q 1506 2906 1245 2678 
Q 984 2450 984 1813 
L 984 0 
L 422 0 
z
" transform="scale(0.015625)"/>
       <path id="ArialMT-20" transform="scale(0.015625)"/>
       <path id="ArialMT-41" d="M -9 0 
L 1750 4581 
L 2403 4581 
L 4278 0 
L 3588 0 
L 3053 1388 
L 1138 1388 
L 634 0 
L -9 0 
z
M 1313 1881 
L 2866 1881 
L 2388 3150 
Q 2169 3728 2063 4100 
Q 1975 3659 1816 3225 
L 1313 1881 
z
" transform="scale(0.015625)"/>
       <path id="ArialMT-6c" d="M 409 0 
L 409 4581 
L 972 4581 
L 972 0 
L 409 0 
z
" transform="scale(0.015625)"/>
       <path id="ArialMT-67" d="M 319 -275 
L 866 -356 
Q 900 -609 1056 -725 
Q 1266 -881 1628 -881 
Q 2019 -881 2231 -725 
Q 2444 -569 2519 -288 
Q 2563 -116 2559 434 
Q 2191 0 1641 0 
Q 956 0 581 494 
Q 206 988 206 1678 
Q 206 2153 378 2554 
Q 550 2956 876 3175 
Q 1203 3394 1644 3394 
Q 2231 3394 2613 2919 
L 2613 3319 
L 3131 3319 
L 3131 450 
Q 3131 -325 2973 -648 
Q 2816 -972 2473 -1159 
Q 2131 -1347 1631 -1347 
Q 1038 -1347 672 -1080 
Q 306 -813 319 -275 
z
M 784 1719 
Q 784 1066 1043 766 
Q 1303 466 1694 466 
Q 2081 466 2343 764 
Q 2606 1063 2606 1700 
Q 2606 2309 2336 2618 
Q 2066 2928 1684 2928 
Q 1309 2928 1046 2623 
Q 784 2319 784 1719 
z
" transform="scale(0.015625)"/>
       <path id="ArialMT-6d" d="M 422 0 
L 422 3319 
L 925 3319 
L 925 2853 
Q 1081 3097 1340 3245 
Q 1600 3394 1931 3394 
Q 2300 3394 2536 3241 
Q 2772 3088 2869 2813 
Q 3263 3394 3894 3394 
Q 4388 3394 4653 3120 
Q 4919 2847 4919 2278 
L 4919 0 
L 4359 0 
L 4359 2091 
Q 4359 2428 4304 2576 
Q 4250 2725 4106 2815 
Q 3963 2906 3769 2906 
Q 3419 2906 3187 2673 
Q 2956 2441 2956 1928 
L 2956 0 
L 2394 0 
L 2394 2156 
Q 2394 2531 2256 2718 
Q 2119 2906 1806 2906 
Q 1569 2906 1367 2781 
Q 1166 2656 1075 2415 
Q 984 2175 984 1722 
L 984 0 
L 422 0 
z
" transform="scale(0.015625)"/>
       <path id="ArialMT-6f" d="M 213 1659 
Q 213 2581 725 3025 
Q 1153 3394 1769 3394 
Q 2453 3394 2887 2945 
Q 3322 2497 3322 1706 
Q 3322 1066 3130 698 
Q 2938 331 2570 128 
Q 2203 -75 1769 -75 
Q 1072 -75 642 372 
Q 213 819 213 1659 
z
M 791 1659 
Q 791 1022 1069 705 
Q 1347 388 1769 388 
Q 2188 388 2466 706 
Q 2744 1025 2744 1678 
Q 2744 2294 2464 2611 
Q 2184 2928 1769 2928 
Q 1347 2928 1069 2612 
Q 791 2297 791 1659 
z
" transform="scale(0.015625)"/>
       <path id="ArialMT-4c" d="M 469 0 
L 469 4581 
L 1075 4581 
L 1075 541 
L 3331 541 
L 3331 0 
L 469 0 
z
" transform="scale(0.015625)"/>
       <path id="ArialMT-4e" d="M 488 0 
L 488 4581 
L 1109 4581 
L 3516 984 
L 3516 4581 
L 4097 4581 
L 4097 0 
L 3475 0 
L 1069 3600 
L 1069 0 
L 488 0 
z
" transform="scale(0.015625)"/>
       <path id="DejaVuSans-2b" d="M 2944 4013 
L 2944 2272 
L 4684 2272 
L 4684 1741 
L 2944 1741 
L 2944 0 
L 2419 0 
L 2419 1741 
L 678 1741 
L 678 2272 
L 2419 2272 
L 2419 4013 
L 2944 4013 
z
" transform="scale(0.015625)"/>
      </defs>
      <use xlink:href="#ArialMT-47" transform="translate(0 0.826562)"/>
      <use xlink:href="#ArialMT-72" transform="translate(77.783203 0.826562)"/>
      <use xlink:href="#ArialMT-61" transform="translate(111.083984 0.826562)"/>
      <use xlink:href="#ArialMT-64" transform="translate(166.699219 0.826562)"/>
      <use xlink:href="#ArialMT-69" transform="translate(222.314453 0.826562)"/>
      <use xlink:href="#ArialMT-65" transform="translate(244.53125 0.826562)"/>
      <use xlink:href="#ArialMT-6e" transform="translate(300.146484 0.826562)"/>
      <use xlink:href="#ArialMT-74" transform="translate(355.761719 0.826562)"/>
      <use xlink:href="#ArialMT-20" transform="translate(383.544922 0.826562)"/>
      <use xlink:href="#ArialMT-41" transform="translate(411.328125 0.826562)"/>
      <use xlink:href="#ArialMT-6c" transform="translate(478.027344 0.826562)"/>
      <use xlink:href="#ArialMT-69" transform="translate(500.244141 0.826562)"/>
      <use xlink:href="#ArialMT-67" transform="translate(522.460938 0.826562)"/>
      <use xlink:href="#ArialMT-6e" transform="translate(578.076172 0.826562)"/>
      <use xlink:href="#ArialMT-6d" transform="translate(633.691406 0.826562)"/>
      <use xlink:href="#ArialMT-65" transform="translate(716.992188 0.826562)"/>
      <use xlink:href="#ArialMT-6e" transform="translate(772.607422 0.826562)"/>
      <use xlink:href="#ArialMT-74" transform="translate(828.222656 0.826562)"/>
      <use xlink:href="#ArialMT-20" transform="translate(856.005859 0.826562)"/>
      <use xlink:href="#ArialMT-74" transform="translate(883.789062 0.826562)"/>
      <use xlink:href="#ArialMT-6f" transform="translate(911.572266 0.826562)"/>
      <use xlink:href="#ArialMT-20" transform="translate(967.1875 0.826562)"/>
      <use xlink:href="#ArialMT-4c" transform="translate(994.970703 0.826562)"/>
      <use xlink:href="#ArialMT-4e" transform="translate(1050.585938 0.826562)"/>
      <use xlink:href="#DejaVuSans-2b" transform="translate(1137.397461 39.107812)scale(0.7)"/>
     </g>
    </g>
   </g>
   <g id="line2d_10">
    <path d="M 100.336691 35.701093 
L 114.815667 43.002501 
L 129.294643 46.376602 
L 143.773619 49.150033 
L 158.252594 50.751294 
L 172.73157 51.730649 
L 187.210546 52.381435 
L 201.689522 53.714038 
L 216.168498 53.00686 
L 230.647474 52.173489 
L 245.12645 52.392485 
L 259.605426 51.815885 
L 274.084401 52.260239 
L 288.563377 51.982506 
L 303.042353 50.782852 
L 317.521329 50.970154 
L 332.000305 51.865748 
L 346.479281 49.443137 
L 360.958257 49.990888 
L 375.437233 50.822618 
L 389.916209 51.327395 
L 404.395184 49.561743 
L 418.87416 50.039807 
L 433.353136 49.852775 
L 447.832112 50.405431 
L 462.311088 49.597072 
L 476.790064 49.786382 
L 491.26904 51.255703 
L 505.748016 51.080761 
L 520.226991 51.653172 
L 534.705967 49.671312 
L 549.184943 49.876228 
L 563.663919 50.637153 
L 578.142895 50.838619 
L 592.621871 50.589399 
L 607.100847 49.887177 
L 621.579823 51.086473 
L 636.058799 51.527306 
L 650.537774 51.902092 
L 665.01675 50.230423 
L 679.495726 49.613831 
L 693.974702 51.023978 
L 708.453678 51.415237 
L 722.932654 50.769128 
L 737.41163 51.721002 
L 751.890606 51.655655 
L 766.369581 50.577981 
L 780.848557 50.970156 
L 795.327533 50.106181 
L 809.806509 51.734823 
" clip-path="url(#p97dcb86b18)" style="fill: none; stroke: #002040; stroke-width: 2.5; stroke-linecap: square"/>
   </g>
   <g id="line2d_11">
    <path d="M 100.336691 162.39094 
L 114.815667 165.907269 
L 129.294643 168.229714 
L 143.773619 168.80508 
L 158.252594 171.560667 
L 172.73157 171.170513 
L 187.210546 172.52499 
L 201.689522 173.000224 
L 216.168498 175.172433 
L 230.647474 174.716267 
L 245.12645 175.006341 
L 259.605426 176.830536 
L 274.084401 177.211698 
L 288.563377 176.836296 
L 303.042353 177.325825 
L 317.521329 177.445436 
L 332.000305 178.418613 
L 346.479281 178.057626 
L 360.958257 177.440977 
L 375.437233 178.248925 
L 389.916209 179.067041 
L 404.395184 179.23218 
L 418.87416 180.261282 
L 433.353136 179.796619 
L 447.832112 180.015217 
L 462.311088 178.0489 
L 476.790064 178.9207 
L 491.26904 180.284143 
L 505.748016 180.798121 
L 520.226991 180.996115 
L 534.705967 181.343466 
L 549.184943 181.351249 
L 563.663919 181.913663 
L 578.142895 182.372015 
L 592.621871 183.148682 
L 607.100847 181.279628 
L 621.579823 179.486173 
L 636.058799 178.153614 
L 650.537774 178.997176 
L 665.01675 177.125035 
L 679.495726 178.026587 
L 693.974702 178.900459 
L 708.453678 179.248639 
L 722.932654 178.942764 
L 737.41163 178.854197 
L 751.890606 178.977256 
L 766.369581 178.6555 
L 780.848557 178.396756 
L 795.327533 178.623899 
L 809.806509 178.700645 
" clip-path="url(#p97dcb86b18)" style="fill: none; stroke: #004080; stroke-width: 2.5; stroke-linecap: square"/>
   </g>
   <g id="line2d_12">
    <path d="M 100.336691 136.926009 
L 114.815667 143.183398 
L 129.294643 149.371088 
L 143.773619 153.560865 
L 158.252594 153.194417 
L 172.73157 154.440371 
L 187.210546 157.222778 
L 201.689522 156.450068 
L 216.168498 157.325284 
L 230.647474 157.648903 
L 245.12645 156.972737 
L 259.605426 160.78788 
L 274.084401 161.563412 
L 288.563377 162.215285 
L 303.042353 161.140445 
L 317.521329 163.96609 
L 332.000305 166.844811 
L 346.479281 167.628694 
L 360.958257 167.868821 
L 375.437233 168.432541 
L 389.916209 169.697768 
L 404.395184 167.800208 
L 418.87416 170.584054 
L 433.353136 172.255415 
L 447.832112 172.251939 
L 462.311088 172.847486 
L 476.790064 175.802154 
L 491.26904 173.643114 
L 505.748016 174.783154 
L 520.226991 176.067105 
L 534.705967 176.413644 
L 549.184943 175.490846 
L 563.663919 175.9364 
L 578.142895 177.343388 
L 592.621871 178.328418 
L 607.100847 178.605419 
L 621.579823 179.63209 
L 636.058799 178.363601 
L 650.537774 179.869414 
L 665.01675 178.922181 
L 679.495726 181.094829 
L 693.974702 182.264237 
L 708.453678 181.867073 
L 722.932654 181.600331 
L 737.41163 180.466707 
L 751.890606 183.706062 
L 766.369581 183.866429 
L 780.848557 183.93278 
L 795.327533 183.973064 
L 809.806509 184.191501 
" clip-path="url(#p97dcb86b18)" style="fill: none; stroke: #42a0c0; stroke-width: 2.5; stroke-linecap: square"/>
   </g>
   <g id="patch_3">
    <path d="M 64.8632 221.9632 
L 64.8632 7.2 
" style="fill: none; stroke: #000000; stroke-width: 1.5; stroke-linejoin: miter; stroke-linecap: square"/>
   </g>
   <g id="patch_4">
    <path d="M 64.8632 221.9632 
L 845.28 221.9632 
" style="fill: none; stroke: #000000; stroke-width: 1.5; stroke-linejoin: miter; stroke-linecap: square"/>
   </g>
   <g id="legend_1">
    <g id="patch_5">
     <path d="M 691.4448 153.83825 
L 833.184 153.83825 
Q 836.64 153.83825 836.64 150.38225 
L 836.64 78.78095 
Q 836.64 75.32495 833.184 75.32495 
L 691.4448 75.32495 
Q 687.9888 75.32495 687.9888 78.78095 
L 687.9888 150.38225 
Q 687.9888 153.83825 691.4448 153.83825 
z
" style="fill: #ffffff; opacity: 0.8; stroke: #cccccc; stroke-width: 2.5; stroke-linejoin: miter"/>
    </g>
    <g id="line2d_13">
     <path d="M 694.9008 88.55765 
L 712.1808 88.55765 
L 729.4608 88.55765 
" style="fill: none; stroke: #002040; stroke-width: 2.5; stroke-linecap: square"/>
    </g>
    <g id="text_12">
     <!-- center -->
     <g transform="translate(743.2848 94.60565)scale(0.1728 -0.1728)">
      <defs>
       <path id="ArialMT-63" d="M 2588 1216 
L 3141 1144 
Q 3050 572 2676 248 
Q 2303 -75 1759 -75 
Q 1078 -75 664 370 
Q 250 816 250 1647 
Q 250 2184 428 2587 
Q 606 2991 970 3192 
Q 1334 3394 1763 3394 
Q 2303 3394 2647 3120 
Q 2991 2847 3088 2344 
L 2541 2259 
Q 2463 2594 2264 2762 
Q 2066 2931 1784 2931 
Q 1359 2931 1093 2626 
Q 828 2322 828 1663 
Q 828 994 1084 691 
Q 1341 388 1753 388 
Q 2084 388 2306 591 
Q 2528 794 2588 1216 
z
" transform="scale(0.015625)"/>
      </defs>
      <use xlink:href="#ArialMT-63"/>
      <use xlink:href="#ArialMT-65" x="50"/>
      <use xlink:href="#ArialMT-6e" x="105.615234"/>
      <use xlink:href="#ArialMT-74" x="161.230469"/>
      <use xlink:href="#ArialMT-65" x="189.013672"/>
      <use xlink:href="#ArialMT-72" x="244.628906"/>
     </g>
    </g>
    <g id="line2d_14">
     <path d="M 694.9008 113.00075 
L 712.1808 113.00075 
L 729.4608 113.00075 
" style="fill: none; stroke: #004080; stroke-width: 2.5; stroke-linecap: square"/>
    </g>
    <g id="text_13">
     <!-- decorrelate -->
     <g transform="translate(743.2848 119.04875)scale(0.1728 -0.1728)">
      <use xlink:href="#ArialMT-64"/>
      <use xlink:href="#ArialMT-65" x="55.615234"/>
      <use xlink:href="#ArialMT-63" x="111.230469"/>
      <use xlink:href="#ArialMT-6f" x="161.230469"/>
      <use xlink:href="#ArialMT-72" x="216.845703"/>
      <use xlink:href="#ArialMT-72" x="250.146484"/>
      <use xlink:href="#ArialMT-65" x="283.447266"/>
      <use xlink:href="#ArialMT-6c" x="339.0625"/>
      <use xlink:href="#ArialMT-61" x="361.279297"/>
      <use xlink:href="#ArialMT-74" x="416.894531"/>
      <use xlink:href="#ArialMT-65" x="444.677734"/>
     </g>
    </g>
    <g id="line2d_15">
     <path d="M 694.9008 137.44385 
L 712.1808 137.44385 
L 729.4608 137.44385 
" style="fill: none; stroke: #42a0c0; stroke-width: 2.5; stroke-linecap: square"/>
    </g>
    <g id="text_14">
     <!-- scale -->
     <g transform="translate(743.2848 143.49185)scale(0.1728 -0.1728)">
      <defs>
       <path id="ArialMT-73" d="M 197 991 
L 753 1078 
Q 800 744 1014 566 
Q 1228 388 1613 388 
Q 2000 388 2187 545 
Q 2375 703 2375 916 
Q 2375 1106 2209 1216 
Q 2094 1291 1634 1406 
Q 1016 1563 777 1677 
Q 538 1791 414 1992 
Q 291 2194 291 2438 
Q 291 2659 392 2848 
Q 494 3038 669 3163 
Q 800 3259 1026 3326 
Q 1253 3394 1513 3394 
Q 1903 3394 2198 3281 
Q 2494 3169 2634 2976 
Q 2775 2784 2828 2463 
L 2278 2388 
Q 2241 2644 2061 2787 
Q 1881 2931 1553 2931 
Q 1166 2931 1000 2803 
Q 834 2675 834 2503 
Q 834 2394 903 2306 
Q 972 2216 1119 2156 
Q 1203 2125 1616 2013 
Q 2213 1853 2448 1751 
Q 2684 1650 2818 1456 
Q 2953 1263 2953 975 
Q 2953 694 2789 445 
Q 2625 197 2315 61 
Q 2006 -75 1616 -75 
Q 969 -75 630 194 
Q 291 463 197 991 
z
" transform="scale(0.015625)"/>
      </defs>
      <use xlink:href="#ArialMT-73"/>
      <use xlink:href="#ArialMT-63" x="50"/>
      <use xlink:href="#ArialMT-61" x="100"/>
      <use xlink:href="#ArialMT-6c" x="155.615234"/>
      <use xlink:href="#ArialMT-65" x="177.832031"/>
     </g>
    </g>
   </g>
  </g>
 </g>
 <defs>
  <clipPath id="p97dcb86b18">
   <rect x="64.8632" y="7.2" width="780.4168" height="214.7632"/>
  </clipPath>
 </defs>
</svg>
