<?xml version="1.0" encoding="utf-8" standalone="no"?>
<!DOCTYPE svg PUBLIC "-//W3C//DTD SVG 1.1//EN"
  "http://www.w3.org/Graphics/SVG/1.1/DTD/svg11.dtd">
<svg xmlns:xlink="http://www.w3.org/1999/xlink" width="1428.50141pt" height="348.48pt" viewBox="0 0 1428.50141 348.48" xmlns="http://www.w3.org/2000/svg" version="1.1">
 <metadata>
  <rdf:RDF xmlns:dc="http://purl.org/dc/elements/1.1/" xmlns:cc="http://creativecommons.org/ns#" xmlns:rdf="http://www.w3.org/1999/02/22-rdf-syntax-ns#">
   <cc:Work>
    <dc:type rdf:resource="http://purl.org/dc/dcmitype/StillImage"/>
    <dc:date>2025-09-08T12:26:05.411708</dc:date>
    <dc:format>image/svg+xml</dc:format>
    <dc:creator>
     <cc:Agent>
      <dc:title>Matplotlib v3.5.3, https://matplotlib.org/</dc:title>
     </cc:Agent>
    </dc:creator>
   </cc:Work>
  </rdf:RDF>
 </metadata>
 <defs>
  <style type="text/css">*{stroke-linejoin: round; stroke-linecap: butt}</style>
 </defs>
 <g id="figure_1">
  <g id="patch_1">
   <path d="M 0 348.48 
L 1428.50141 348.48 
L 1428.50141 0 
L 0 0 
z
" style="fill: #ffffff"/>
  </g>
  <g id="axes_1">
   <g id="patch_2">
    <path d="M 64.5176 294.1738 
L 349.438689 294.1738 
L 349.438689 25.5687 
L 64.5176 25.5687 
z
" style="fill: #ffffff"/>
   </g>
   <g id="PolyCollection_1">
    <defs>
     <path id="m209857d964" d="M 77.468559 -310.701977 
L 77.468559 -299.782176 
L 82.754664 -298.575996 
L 88.04077 -296.965338 
L 93.326875 -299.184141 
L 98.612981 -298.363927 
L 103.899086 -296.903471 
L 109.185192 -299.752623 
L 114.471297 -299.88909 
L 119.757403 -299.706546 
L 125.043508 -298.161774 
L 130.329614 -298.439395 
L 135.61572 -299.461973 
L 140.901825 -299.557367 
L 146.187931 -299.666968 
L 151.474036 -299.271806 
L 156.760142 -299.862511 
L 162.046247 -300.223848 
L 167.332353 -300.229673 
L 172.618458 -299.7008 
L 177.904564 -300.824907 
L 183.190669 -300.134427 
L 188.476775 -299.770028 
L 193.762881 -299.736759 
L 199.048986 -299.299127 
L 204.335092 -299.096298 
L 209.621197 -298.035589 
L 214.907303 -299.061823 
L 220.193408 -298.631433 
L 225.479514 -297.89317 
L 230.765619 -296.785985 
L 236.051725 -296.53409 
L 241.33783 -295.753238 
L 246.623936 -295.929936 
L 251.910042 -295.768984 
L 257.196147 -294.307737 
L 262.482253 -294.299193 
L 267.768358 -293.426468 
L 273.054464 -293.645682 
L 278.340569 -293.066346 
L 283.626675 -292.503267 
L 288.91278 -292.393064 
L 294.198886 -292.166646 
L 299.484991 -292.281815 
L 304.771097 -291.396422 
L 310.057203 -291.218784 
L 315.343308 -291.447868 
L 320.629414 -290.467264 
L 325.915519 -290.785764 
L 331.201625 -290.372434 
L 336.48773 -290.34145 
L 336.48773 -310.427003 
L 336.48773 -310.427003 
L 331.201625 -310.411725 
L 325.915519 -310.400274 
L 320.629414 -310.398208 
L 315.343308 -310.385226 
L 310.057203 -310.395566 
L 304.771097 -310.39846 
L 299.484991 -310.391911 
L 294.198886 -310.40151 
L 288.91278 -310.413332 
L 283.626675 -310.393712 
L 278.340569 -310.399918 
L 273.054464 -310.408802 
L 267.768358 -310.419026 
L 262.482253 -310.437328 
L 257.196147 -310.432976 
L 251.910042 -310.446586 
L 246.623936 -310.468474 
L 241.33783 -310.468758 
L 236.051725 -310.501556 
L 230.765619 -310.506182 
L 225.479514 -310.508987 
L 220.193408 -310.535949 
L 214.907303 -310.551878 
L 209.621197 -310.558982 
L 204.335092 -310.576563 
L 199.048986 -310.577601 
L 193.762881 -310.595931 
L 188.476775 -310.597747 
L 183.190669 -310.599322 
L 177.904564 -310.605815 
L 172.618458 -310.602772 
L 167.332353 -310.614311 
L 162.046247 -310.612456 
L 156.760142 -310.611141 
L 151.474036 -310.570193 
L 146.187931 -310.618654 
L 140.901825 -310.609071 
L 135.61572 -310.627055 
L 130.329614 -310.614559 
L 125.043508 -310.613478 
L 119.757403 -310.649643 
L 114.471297 -310.636618 
L 109.185192 -310.672459 
L 103.899086 -310.663008 
L 98.612981 -310.673411 
L 93.326875 -310.670563 
L 88.04077 -310.68176 
L 82.754664 -310.69027 
L 77.468559 -310.701977 
z
" style="stroke: #707b90; stroke-opacity: 0.2; stroke-width: 2.5"/>
    </defs>
    <g clip-path="url(#pa6fd4ca24e)">
     <use xlink:href="#m209857d964" x="0" y="348.48" style="fill: #707b90; fill-opacity: 0.2; stroke: #707b90; stroke-opacity: 0.2; stroke-width: 2.5"/>
    </g>
   </g>
   <g id="PolyCollection_2">
    <defs>
     <path id="m7d30d91d4e" d="M 77.468559 -283.228869 
L 77.468559 -270.294448 
L 82.754664 -270.828579 
L 88.04077 -270.320869 
L 93.326875 -270.251544 
L 98.612981 -270.298091 
L 103.899086 -269.931819 
L 109.185192 -269.77816 
L 114.471297 -270.035631 
L 119.757403 -269.785292 
L 125.043508 -269.797238 
L 130.329614 -268.958047 
L 135.61572 -269.657267 
L 140.901825 -269.224927 
L 146.187931 -269.329787 
L 151.474036 -269.291884 
L 156.760142 -269.198835 
L 162.046247 -268.957872 
L 167.332353 -268.966222 
L 172.618458 -268.174846 
L 177.904564 -268.960082 
L 183.190669 -268.803385 
L 188.476775 -268.902603 
L 193.762881 -268.720356 
L 199.048986 -268.098735 
L 204.335092 -268.316994 
L 209.621197 -267.915722 
L 214.907303 -267.624494 
L 220.193408 -268.042158 
L 225.479514 -267.655115 
L 230.765619 -267.649692 
L 236.051725 -267.545313 
L 241.33783 -267.467586 
L 246.623936 -267.53672 
L 251.910042 -267.76592 
L 257.196147 -267.886449 
L 262.482253 -267.258709 
L 267.768358 -266.957637 
L 273.054464 -267.418546 
L 278.340569 -267.199217 
L 283.626675 -267.645373 
L 288.91278 -266.747717 
L 294.198886 -266.907024 
L 299.484991 -266.674043 
L 304.771097 -266.837622 
L 310.057203 -266.859555 
L 315.343308 -266.628376 
L 320.629414 -265.524372 
L 325.915519 -264.550841 
L 331.201625 -264.874899 
L 336.48773 -264.993746 
L 336.48773 -267.394353 
L 336.48773 -267.394353 
L 331.201625 -267.204566 
L 325.915519 -267.491801 
L 320.629414 -266.892701 
L 315.343308 -267.714437 
L 310.057203 -267.090158 
L 304.771097 -267.221729 
L 299.484991 -267.447943 
L 294.198886 -267.780255 
L 288.91278 -267.428553 
L 283.626675 -267.674413 
L 278.340569 -267.313423 
L 273.054464 -267.604374 
L 267.768358 -267.611161 
L 262.482253 -268.098137 
L 257.196147 -268.839076 
L 251.910042 -269.379743 
L 246.623936 -268.834712 
L 241.33783 -269.198276 
L 236.051725 -270.414095 
L 230.765619 -270.331104 
L 225.479514 -270.882827 
L 220.193408 -271.131503 
L 214.907303 -271.187902 
L 209.621197 -272.197311 
L 204.335092 -272.065196 
L 199.048986 -272.697057 
L 193.762881 -272.942855 
L 188.476775 -273.554091 
L 183.190669 -273.778003 
L 177.904564 -273.436556 
L 172.618458 -274.856754 
L 167.332353 -274.80683 
L 162.046247 -275.71166 
L 156.760142 -275.899992 
L 151.474036 -276.170298 
L 146.187931 -276.963642 
L 140.901825 -277.426523 
L 135.61572 -277.551721 
L 130.329614 -278.170361 
L 125.043508 -278.942479 
L 119.757403 -279.056548 
L 114.471297 -279.532144 
L 109.185192 -279.861756 
L 103.899086 -280.572996 
L 98.612981 -281.354956 
L 93.326875 -282.273238 
L 88.04077 -283.068135 
L 82.754664 -283.134149 
L 77.468559 -283.228869 
z
" style="stroke: #cbdede; stroke-opacity: 0.2; stroke-width: 2.5"/>
    </defs>
    <g clip-path="url(#pa6fd4ca24e)">
     <use xlink:href="#m7d30d91d4e" x="0" y="348.48" style="fill: #cbdede; fill-opacity: 0.2; stroke: #cbdede; stroke-opacity: 0.2; stroke-width: 2.5"/>
    </g>
   </g>
   <g id="matplotlib.axis_1">
    <g id="xtick_1">
     <g id="line2d_1">
      <defs>
       <path id="m71b180d679" d="M 0 0 
L 0 8 
" style="stroke: #000000; stroke-width: 2"/>
      </defs>
      <g>
       <use xlink:href="#m71b180d679" x="77.468559" y="294.1738" style="stroke: #000000; stroke-width: 2"/>
      </g>
     </g>
     <g id="text_1">
      <!-- 0 -->
      <g transform="translate(72.663909 318.0425)scale(0.1728 -0.1728)">
       <defs>
        <path id="ArialMT-30" d="M 266 2259 
Q 266 3072 433 3567 
Q 600 4063 929 4331 
Q 1259 4600 1759 4600 
Q 2128 4600 2406 4451 
Q 2684 4303 2865 4023 
Q 3047 3744 3150 3342 
Q 3253 2941 3253 2259 
Q 3253 1453 3087 958 
Q 2922 463 2592 192 
Q 2263 -78 1759 -78 
Q 1097 -78 719 397 
Q 266 969 266 2259 
z
M 844 2259 
Q 844 1131 1108 757 
Q 1372 384 1759 384 
Q 2147 384 2411 759 
Q 2675 1134 2675 2259 
Q 2675 3391 2411 3762 
Q 2147 4134 1753 4134 
Q 1366 4134 1134 3806 
Q 844 3388 844 2259 
z
" transform="scale(0.015625)"/>
       </defs>
       <use xlink:href="#ArialMT-30"/>
      </g>
     </g>
    </g>
    <g id="xtick_2">
     <g id="line2d_2">
      <g>
       <use xlink:href="#m71b180d679" x="183.190669" y="294.1738" style="stroke: #000000; stroke-width: 2"/>
      </g>
     </g>
     <g id="text_2">
      <!-- 20 -->
      <g transform="translate(173.581369 318.0425)scale(0.1728 -0.1728)">
       <defs>
        <path id="ArialMT-32" d="M 3222 541 
L 3222 0 
L 194 0 
Q 188 203 259 391 
Q 375 700 629 1000 
Q 884 1300 1366 1694 
Q 2113 2306 2375 2664 
Q 2638 3022 2638 3341 
Q 2638 3675 2398 3904 
Q 2159 4134 1775 4134 
Q 1369 4134 1125 3890 
Q 881 3647 878 3216 
L 300 3275 
Q 359 3922 746 4261 
Q 1134 4600 1788 4600 
Q 2447 4600 2831 4234 
Q 3216 3869 3216 3328 
Q 3216 3053 3103 2787 
Q 2991 2522 2730 2228 
Q 2469 1934 1863 1422 
Q 1356 997 1212 845 
Q 1069 694 975 541 
L 3222 541 
z
" transform="scale(0.015625)"/>
       </defs>
       <use xlink:href="#ArialMT-32"/>
       <use xlink:href="#ArialMT-30" x="55.615234"/>
      </g>
     </g>
    </g>
    <g id="xtick_3">
     <g id="line2d_3">
      <g>
       <use xlink:href="#m71b180d679" x="288.91278" y="294.1738" style="stroke: #000000; stroke-width: 2"/>
      </g>
     </g>
     <g id="text_3">
      <!-- 40 -->
      <g transform="translate(279.30348 318.0425)scale(0.1728 -0.1728)">
       <defs>
        <path id="ArialMT-34" d="M 2069 0 
L 2069 1097 
L 81 1097 
L 81 1613 
L 2172 4581 
L 2631 4581 
L 2631 1613 
L 3250 1613 
L 3250 1097 
L 2631 1097 
L 2631 0 
L 2069 0 
z
M 2069 1613 
L 2069 3678 
L 634 1613 
L 2069 1613 
z
" transform="scale(0.015625)"/>
       </defs>
       <use xlink:href="#ArialMT-34"/>
       <use xlink:href="#ArialMT-30" x="55.615234"/>
      </g>
     </g>
    </g>
    <g id="text_4">
     <!-- Epoch -->
     <g transform="translate(182.481044 337.8456)scale(0.1728 -0.1728)">
      <defs>
       <path id="ArialMT-45" d="M 506 0 
L 506 4581 
L 3819 4581 
L 3819 4041 
L 1113 4041 
L 1113 2638 
L 3647 2638 
L 3647 2100 
L 1113 2100 
L 1113 541 
L 3925 541 
L 3925 0 
L 506 0 
z
" transform="scale(0.015625)"/>
       <path id="ArialMT-70" d="M 422 -1272 
L 422 3319 
L 934 3319 
L 934 2888 
Q 1116 3141 1344 3267 
Q 1572 3394 1897 3394 
Q 2322 3394 2647 3175 
Q 2972 2956 3137 2557 
Q 3303 2159 3303 1684 
Q 3303 1175 3120 767 
Q 2938 359 2589 142 
Q 2241 -75 1856 -75 
Q 1575 -75 1351 44 
Q 1128 163 984 344 
L 984 -1272 
L 422 -1272 
z
M 931 1641 
Q 931 1000 1190 694 
Q 1450 388 1819 388 
Q 2194 388 2461 705 
Q 2728 1022 2728 1688 
Q 2728 2322 2467 2637 
Q 2206 2953 1844 2953 
Q 1484 2953 1207 2617 
Q 931 2281 931 1641 
z
" transform="scale(0.015625)"/>
       <path id="ArialMT-6f" d="M 213 1659 
Q 213 2581 725 3025 
Q 1153 3394 1769 3394 
Q 2453 3394 2887 2945 
Q 3322 2497 3322 1706 
Q 3322 1066 3130 698 
Q 2938 331 2570 128 
Q 2203 -75 1769 -75 
Q 1072 -75 642 372 
Q 213 819 213 1659 
z
M 791 1659 
Q 791 1022 1069 705 
Q 1347 388 1769 388 
Q 2188 388 2466 706 
Q 2744 1025 2744 1678 
Q 2744 2294 2464 2611 
Q 2184 2928 1769 2928 
Q 1347 2928 1069 2612 
Q 791 2297 791 1659 
z
" transform="scale(0.015625)"/>
       <path id="ArialMT-63" d="M 2588 1216 
L 3141 1144 
Q 3050 572 2676 248 
Q 2303 -75 1759 -75 
Q 1078 -75 664 370 
Q 250 816 250 1647 
Q 250 2184 428 2587 
Q 606 2991 970 3192 
Q 1334 3394 1763 3394 
Q 2303 3394 2647 3120 
Q 2991 2847 3088 2344 
L 2541 2259 
Q 2463 2594 2264 2762 
Q 2066 2931 1784 2931 
Q 1359 2931 1093 2626 
Q 828 2322 828 1663 
Q 828 994 1084 691 
Q 1341 388 1753 388 
Q 2084 388 2306 591 
Q 2528 794 2588 1216 
z
" transform="scale(0.015625)"/>
       <path id="ArialMT-68" d="M 422 0 
L 422 4581 
L 984 4581 
L 984 2938 
Q 1378 3394 1978 3394 
Q 2347 3394 2619 3248 
Q 2891 3103 3008 2847 
Q 3125 2591 3125 2103 
L 3125 0 
L 2563 0 
L 2563 2103 
Q 2563 2525 2380 2717 
Q 2197 2909 1863 2909 
Q 1613 2909 1392 2779 
Q 1172 2650 1078 2428 
Q 984 2206 984 1816 
L 984 0 
L 422 0 
z
" transform="scale(0.015625)"/>
      </defs>
      <use xlink:href="#ArialMT-45"/>
      <use xlink:href="#ArialMT-70" x="66.699219"/>
      <use xlink:href="#ArialMT-6f" x="122.314453"/>
      <use xlink:href="#ArialMT-63" x="177.929688"/>
      <use xlink:href="#ArialMT-68" x="227.929688"/>
     </g>
    </g>
   </g>
   <g id="matplotlib.axis_2">
    <g id="ytick_1">
     <g id="line2d_4">
      <defs>
       <path id="m5e79e0cd1b" d="M 0 0 
L -8 0 
" style="stroke: #000000; stroke-width: 2"/>
      </defs>
      <g>
       <use xlink:href="#m5e79e0cd1b" x="64.5176" y="266.242089" style="stroke: #000000; stroke-width: 2"/>
      </g>
     </g>
     <g id="text_5">
      <!-- 0.5 -->
      <g transform="translate(28.9984 272.426439)scale(0.1728 -0.1728)">
       <defs>
        <path id="ArialMT-2e" d="M 581 0 
L 581 641 
L 1222 641 
L 1222 0 
L 581 0 
z
" transform="scale(0.015625)"/>
        <path id="ArialMT-35" d="M 266 1200 
L 856 1250 
Q 922 819 1161 601 
Q 1400 384 1738 384 
Q 2144 384 2425 690 
Q 2706 997 2706 1503 
Q 2706 1984 2436 2262 
Q 2166 2541 1728 2541 
Q 1456 2541 1237 2417 
Q 1019 2294 894 2097 
L 366 2166 
L 809 4519 
L 3088 4519 
L 3088 3981 
L 1259 3981 
L 1013 2750 
Q 1425 3038 1878 3038 
Q 2478 3038 2890 2622 
Q 3303 2206 3303 1553 
Q 3303 931 2941 478 
Q 2500 -78 1738 -78 
Q 1113 -78 717 272 
Q 322 622 266 1200 
z
" transform="scale(0.015625)"/>
       </defs>
       <use xlink:href="#ArialMT-30"/>
       <use xlink:href="#ArialMT-2e" x="55.615234"/>
       <use xlink:href="#ArialMT-35" x="83.398438"/>
      </g>
     </g>
    </g>
    <g id="ytick_2">
     <g id="line2d_5">
      <g>
       <use xlink:href="#m5e79e0cd1b" x="64.5176" y="220.546593" style="stroke: #000000; stroke-width: 2"/>
      </g>
     </g>
     <g id="text_6">
      <!-- 0.6 -->
      <g transform="translate(28.9984 226.730943)scale(0.1728 -0.1728)">
       <defs>
        <path id="ArialMT-36" d="M 3184 3459 
L 2625 3416 
Q 2550 3747 2413 3897 
Q 2184 4138 1850 4138 
Q 1581 4138 1378 3988 
Q 1113 3794 959 3422 
Q 806 3050 800 2363 
Q 1003 2672 1297 2822 
Q 1591 2972 1913 2972 
Q 2475 2972 2870 2558 
Q 3266 2144 3266 1488 
Q 3266 1056 3080 686 
Q 2894 316 2569 119 
Q 2244 -78 1831 -78 
Q 1128 -78 684 439 
Q 241 956 241 2144 
Q 241 3472 731 4075 
Q 1159 4600 1884 4600 
Q 2425 4600 2770 4297 
Q 3116 3994 3184 3459 
z
M 888 1484 
Q 888 1194 1011 928 
Q 1134 663 1356 523 
Q 1578 384 1822 384 
Q 2178 384 2434 671 
Q 2691 959 2691 1453 
Q 2691 1928 2437 2201 
Q 2184 2475 1800 2475 
Q 1419 2475 1153 2201 
Q 888 1928 888 1484 
z
" transform="scale(0.015625)"/>
       </defs>
       <use xlink:href="#ArialMT-30"/>
       <use xlink:href="#ArialMT-2e" x="55.615234"/>
       <use xlink:href="#ArialMT-36" x="83.398438"/>
      </g>
     </g>
    </g>
    <g id="ytick_3">
     <g id="line2d_6">
      <g>
       <use xlink:href="#m5e79e0cd1b" x="64.5176" y="174.851098" style="stroke: #000000; stroke-width: 2"/>
      </g>
     </g>
     <g id="text_7">
      <!-- 0.7 -->
      <g transform="translate(28.9984 181.035448)scale(0.1728 -0.1728)">
       <defs>
        <path id="ArialMT-37" d="M 303 3981 
L 303 4522 
L 3269 4522 
L 3269 4084 
Q 2831 3619 2401 2847 
Q 1972 2075 1738 1259 
Q 1569 684 1522 0 
L 944 0 
Q 953 541 1156 1306 
Q 1359 2072 1739 2783 
Q 2119 3494 2547 3981 
L 303 3981 
z
" transform="scale(0.015625)"/>
       </defs>
       <use xlink:href="#ArialMT-30"/>
       <use xlink:href="#ArialMT-2e" x="55.615234"/>
       <use xlink:href="#ArialMT-37" x="83.398438"/>
      </g>
     </g>
    </g>
    <g id="ytick_4">
     <g id="line2d_7">
      <g>
       <use xlink:href="#m5e79e0cd1b" x="64.5176" y="129.155602" style="stroke: #000000; stroke-width: 2"/>
      </g>
     </g>
     <g id="text_8">
      <!-- 0.8 -->
      <g transform="translate(28.9984 135.339952)scale(0.1728 -0.1728)">
       <defs>
        <path id="ArialMT-38" d="M 1131 2484 
Q 781 2613 612 2850 
Q 444 3088 444 3419 
Q 444 3919 803 4259 
Q 1163 4600 1759 4600 
Q 2359 4600 2725 4251 
Q 3091 3903 3091 3403 
Q 3091 3084 2923 2848 
Q 2756 2613 2416 2484 
Q 2838 2347 3058 2040 
Q 3278 1734 3278 1309 
Q 3278 722 2862 322 
Q 2447 -78 1769 -78 
Q 1091 -78 675 323 
Q 259 725 259 1325 
Q 259 1772 486 2073 
Q 713 2375 1131 2484 
z
M 1019 3438 
Q 1019 3113 1228 2906 
Q 1438 2700 1772 2700 
Q 2097 2700 2305 2904 
Q 2513 3109 2513 3406 
Q 2513 3716 2298 3927 
Q 2084 4138 1766 4138 
Q 1444 4138 1231 3931 
Q 1019 3725 1019 3438 
z
M 838 1322 
Q 838 1081 952 856 
Q 1066 631 1291 507 
Q 1516 384 1775 384 
Q 2178 384 2440 643 
Q 2703 903 2703 1303 
Q 2703 1709 2433 1975 
Q 2163 2241 1756 2241 
Q 1359 2241 1098 1978 
Q 838 1716 838 1322 
z
" transform="scale(0.015625)"/>
       </defs>
       <use xlink:href="#ArialMT-30"/>
       <use xlink:href="#ArialMT-2e" x="55.615234"/>
       <use xlink:href="#ArialMT-38" x="83.398438"/>
      </g>
     </g>
    </g>
    <g id="ytick_5">
     <g id="line2d_8">
      <g>
       <use xlink:href="#m5e79e0cd1b" x="64.5176" y="83.460107" style="stroke: #000000; stroke-width: 2"/>
      </g>
     </g>
     <g id="text_9">
      <!-- 0.9 -->
      <g transform="translate(28.9984 89.644457)scale(0.1728 -0.1728)">
       <defs>
        <path id="ArialMT-39" d="M 350 1059 
L 891 1109 
Q 959 728 1153 556 
Q 1347 384 1650 384 
Q 1909 384 2104 503 
Q 2300 622 2425 820 
Q 2550 1019 2634 1356 
Q 2719 1694 2719 2044 
Q 2719 2081 2716 2156 
Q 2547 1888 2255 1720 
Q 1963 1553 1622 1553 
Q 1053 1553 659 1965 
Q 266 2378 266 3053 
Q 266 3750 677 4175 
Q 1088 4600 1706 4600 
Q 2153 4600 2523 4359 
Q 2894 4119 3086 3673 
Q 3278 3228 3278 2384 
Q 3278 1506 3087 986 
Q 2897 466 2520 194 
Q 2144 -78 1638 -78 
Q 1100 -78 759 220 
Q 419 519 350 1059 
z
M 2653 3081 
Q 2653 3566 2395 3850 
Q 2138 4134 1775 4134 
Q 1400 4134 1122 3828 
Q 844 3522 844 3034 
Q 844 2597 1108 2323 
Q 1372 2050 1759 2050 
Q 2150 2050 2401 2323 
Q 2653 2597 2653 3081 
z
" transform="scale(0.015625)"/>
       </defs>
       <use xlink:href="#ArialMT-30"/>
       <use xlink:href="#ArialMT-2e" x="55.615234"/>
       <use xlink:href="#ArialMT-39" x="83.398438"/>
      </g>
     </g>
    </g>
    <g id="ytick_6">
     <g id="line2d_9">
      <g>
       <use xlink:href="#m5e79e0cd1b" x="64.5176" y="37.764611" style="stroke: #000000; stroke-width: 2"/>
      </g>
     </g>
     <g id="text_10">
      <!-- 1.0 -->
      <g transform="translate(28.9984 43.948961)scale(0.1728 -0.1728)">
       <defs>
        <path id="ArialMT-31" d="M 2384 0 
L 1822 0 
L 1822 3584 
Q 1619 3391 1289 3197 
Q 959 3003 697 2906 
L 697 3450 
Q 1169 3672 1522 3987 
Q 1875 4303 2022 4600 
L 2384 4600 
L 2384 0 
z
" transform="scale(0.015625)"/>
       </defs>
       <use xlink:href="#ArialMT-31"/>
       <use xlink:href="#ArialMT-2e" x="55.615234"/>
       <use xlink:href="#ArialMT-30" x="83.398438"/>
      </g>
     </g>
    </g>
    <g id="text_11">
     <!-- Representation Sim. \wrt LN$^+$ -->
     <g transform="translate(21.5424 275.73365)rotate(-90)scale(0.1728 -0.1728)">
      <defs>
       <path id="ArialMT-52" d="M 503 0 
L 503 4581 
L 2534 4581 
Q 3147 4581 3465 4457 
Q 3784 4334 3975 4021 
Q 4166 3709 4166 3331 
Q 4166 2844 3850 2509 
Q 3534 2175 2875 2084 
Q 3116 1969 3241 1856 
Q 3506 1613 3744 1247 
L 4541 0 
L 3778 0 
L 3172 953 
Q 2906 1366 2734 1584 
Q 2563 1803 2427 1890 
Q 2291 1978 2150 2013 
Q 2047 2034 1813 2034 
L 1109 2034 
L 1109 0 
L 503 0 
z
M 1109 2559 
L 2413 2559 
Q 2828 2559 3062 2645 
Q 3297 2731 3419 2920 
Q 3541 3109 3541 3331 
Q 3541 3656 3305 3865 
Q 3069 4075 2559 4075 
L 1109 4075 
L 1109 2559 
z
" transform="scale(0.015625)"/>
       <path id="ArialMT-65" d="M 2694 1069 
L 3275 997 
Q 3138 488 2766 206 
Q 2394 -75 1816 -75 
Q 1088 -75 661 373 
Q 234 822 234 1631 
Q 234 2469 665 2931 
Q 1097 3394 1784 3394 
Q 2450 3394 2872 2941 
Q 3294 2488 3294 1666 
Q 3294 1616 3291 1516 
L 816 1516 
Q 847 969 1125 678 
Q 1403 388 1819 388 
Q 2128 388 2347 550 
Q 2566 713 2694 1069 
z
M 847 1978 
L 2700 1978 
Q 2663 2397 2488 2606 
Q 2219 2931 1791 2931 
Q 1403 2931 1139 2672 
Q 875 2413 847 1978 
z
" transform="scale(0.015625)"/>
       <path id="ArialMT-72" d="M 416 0 
L 416 3319 
L 922 3319 
L 922 2816 
Q 1116 3169 1280 3281 
Q 1444 3394 1641 3394 
Q 1925 3394 2219 3213 
L 2025 2691 
Q 1819 2813 1613 2813 
Q 1428 2813 1281 2702 
Q 1134 2591 1072 2394 
Q 978 2094 978 1738 
L 978 0 
L 416 0 
z
" transform="scale(0.015625)"/>
       <path id="ArialMT-73" d="M 197 991 
L 753 1078 
Q 800 744 1014 566 
Q 1228 388 1613 388 
Q 2000 388 2187 545 
Q 2375 703 2375 916 
Q 2375 1106 2209 1216 
Q 2094 1291 1634 1406 
Q 1016 1563 777 1677 
Q 538 1791 414 1992 
Q 291 2194 291 2438 
Q 291 2659 392 2848 
Q 494 3038 669 3163 
Q 800 3259 1026 3326 
Q 1253 3394 1513 3394 
Q 1903 3394 2198 3281 
Q 2494 3169 2634 2976 
Q 2775 2784 2828 2463 
L 2278 2388 
Q 2241 2644 2061 2787 
Q 1881 2931 1553 2931 
Q 1166 2931 1000 2803 
Q 834 2675 834 2503 
Q 834 2394 903 2306 
Q 972 2216 1119 2156 
Q 1203 2125 1616 2013 
Q 2213 1853 2448 1751 
Q 2684 1650 2818 1456 
Q 2953 1263 2953 975 
Q 2953 694 2789 445 
Q 2625 197 2315 61 
Q 2006 -75 1616 -75 
Q 969 -75 630 194 
Q 291 463 197 991 
z
" transform="scale(0.015625)"/>
       <path id="ArialMT-6e" d="M 422 0 
L 422 3319 
L 928 3319 
L 928 2847 
Q 1294 3394 1984 3394 
Q 2284 3394 2536 3286 
Q 2788 3178 2913 3003 
Q 3038 2828 3088 2588 
Q 3119 2431 3119 2041 
L 3119 0 
L 2556 0 
L 2556 2019 
Q 2556 2363 2490 2533 
Q 2425 2703 2258 2804 
Q 2091 2906 1866 2906 
Q 1506 2906 1245 2678 
Q 984 2450 984 1813 
L 984 0 
L 422 0 
z
" transform="scale(0.015625)"/>
       <path id="ArialMT-74" d="M 1650 503 
L 1731 6 
Q 1494 -44 1306 -44 
Q 1000 -44 831 53 
Q 663 150 594 308 
Q 525 466 525 972 
L 525 2881 
L 113 2881 
L 113 3319 
L 525 3319 
L 525 4141 
L 1084 4478 
L 1084 3319 
L 1650 3319 
L 1650 2881 
L 1084 2881 
L 1084 941 
Q 1084 700 1114 631 
Q 1144 563 1211 522 
Q 1278 481 1403 481 
Q 1497 481 1650 503 
z
" transform="scale(0.015625)"/>
       <path id="ArialMT-61" d="M 2588 409 
Q 2275 144 1986 34 
Q 1697 -75 1366 -75 
Q 819 -75 525 192 
Q 231 459 231 875 
Q 231 1119 342 1320 
Q 453 1522 633 1644 
Q 813 1766 1038 1828 
Q 1203 1872 1538 1913 
Q 2219 1994 2541 2106 
Q 2544 2222 2544 2253 
Q 2544 2597 2384 2738 
Q 2169 2928 1744 2928 
Q 1347 2928 1158 2789 
Q 969 2650 878 2297 
L 328 2372 
Q 403 2725 575 2942 
Q 747 3159 1072 3276 
Q 1397 3394 1825 3394 
Q 2250 3394 2515 3294 
Q 2781 3194 2906 3042 
Q 3031 2891 3081 2659 
Q 3109 2516 3109 2141 
L 3109 1391 
Q 3109 606 3145 398 
Q 3181 191 3288 0 
L 2700 0 
Q 2613 175 2588 409 
z
M 2541 1666 
Q 2234 1541 1622 1453 
Q 1275 1403 1131 1340 
Q 988 1278 909 1158 
Q 831 1038 831 891 
Q 831 666 1001 516 
Q 1172 366 1500 366 
Q 1825 366 2078 508 
Q 2331 650 2450 897 
Q 2541 1088 2541 1459 
L 2541 1666 
z
" transform="scale(0.015625)"/>
       <path id="ArialMT-69" d="M 425 3934 
L 425 4581 
L 988 4581 
L 988 3934 
L 425 3934 
z
M 425 0 
L 425 3319 
L 988 3319 
L 988 0 
L 425 0 
z
" transform="scale(0.015625)"/>
       <path id="ArialMT-20" transform="scale(0.015625)"/>
       <path id="ArialMT-53" d="M 288 1472 
L 859 1522 
Q 900 1178 1048 958 
Q 1197 738 1509 602 
Q 1822 466 2213 466 
Q 2559 466 2825 569 
Q 3091 672 3220 851 
Q 3350 1031 3350 1244 
Q 3350 1459 3225 1620 
Q 3100 1781 2813 1891 
Q 2628 1963 1997 2114 
Q 1366 2266 1113 2400 
Q 784 2572 623 2826 
Q 463 3081 463 3397 
Q 463 3744 659 4045 
Q 856 4347 1234 4503 
Q 1613 4659 2075 4659 
Q 2584 4659 2973 4495 
Q 3363 4331 3572 4012 
Q 3781 3694 3797 3291 
L 3216 3247 
Q 3169 3681 2898 3903 
Q 2628 4125 2100 4125 
Q 1550 4125 1298 3923 
Q 1047 3722 1047 3438 
Q 1047 3191 1225 3031 
Q 1400 2872 2139 2705 
Q 2878 2538 3153 2413 
Q 3553 2228 3743 1945 
Q 3934 1663 3934 1294 
Q 3934 928 3725 604 
Q 3516 281 3123 101 
Q 2731 -78 2241 -78 
Q 1619 -78 1198 103 
Q 778 284 539 648 
Q 300 1013 288 1472 
z
" transform="scale(0.015625)"/>
       <path id="ArialMT-6d" d="M 422 0 
L 422 3319 
L 925 3319 
L 925 2853 
Q 1081 3097 1340 3245 
Q 1600 3394 1931 3394 
Q 2300 3394 2536 3241 
Q 2772 3088 2869 2813 
Q 3263 3394 3894 3394 
Q 4388 3394 4653 3120 
Q 4919 2847 4919 2278 
L 4919 0 
L 4359 0 
L 4359 2091 
Q 4359 2428 4304 2576 
Q 4250 2725 4106 2815 
Q 3963 2906 3769 2906 
Q 3419 2906 3187 2673 
Q 2956 2441 2956 1928 
L 2956 0 
L 2394 0 
L 2394 2156 
Q 2394 2531 2256 2718 
Q 2119 2906 1806 2906 
Q 1569 2906 1367 2781 
Q 1166 2656 1075 2415 
Q 984 2175 984 1722 
L 984 0 
L 422 0 
z
" transform="scale(0.015625)"/>
       <path id="ArialMT-5c" d="M 1328 -78 
L 0 4659 
L 453 4659 
L 1778 -78 
L 1328 -78 
z
" transform="scale(0.015625)"/>
       <path id="ArialMT-77" d="M 1034 0 
L 19 3319 
L 600 3319 
L 1128 1403 
L 1325 691 
Q 1338 744 1497 1375 
L 2025 3319 
L 2603 3319 
L 3100 1394 
L 3266 759 
L 3456 1400 
L 4025 3319 
L 4572 3319 
L 3534 0 
L 2950 0 
L 2422 1988 
L 2294 2553 
L 1622 0 
L 1034 0 
z
" transform="scale(0.015625)"/>
       <path id="ArialMT-4c" d="M 469 0 
L 469 4581 
L 1075 4581 
L 1075 541 
L 3331 541 
L 3331 0 
L 469 0 
z
" transform="scale(0.015625)"/>
       <path id="ArialMT-4e" d="M 488 0 
L 488 4581 
L 1109 4581 
L 3516 984 
L 3516 4581 
L 4097 4581 
L 4097 0 
L 3475 0 
L 1069 3600 
L 1069 0 
L 488 0 
z
" transform="scale(0.015625)"/>
       <path id="DejaVuSans-2b" d="M 2944 4013 
L 2944 2272 
L 4684 2272 
L 4684 1741 
L 2944 1741 
L 2944 0 
L 2419 0 
L 2419 1741 
L 678 1741 
L 678 2272 
L 2419 2272 
L 2419 4013 
L 2944 4013 
z
" transform="scale(0.015625)"/>
      </defs>
      <use xlink:href="#ArialMT-52" transform="translate(0 0.826562)"/>
      <use xlink:href="#ArialMT-65" transform="translate(72.216797 0.826562)"/>
      <use xlink:href="#ArialMT-70" transform="translate(127.832031 0.826562)"/>
      <use xlink:href="#ArialMT-72" transform="translate(183.447266 0.826562)"/>
      <use xlink:href="#ArialMT-65" transform="translate(216.748047 0.826562)"/>
      <use xlink:href="#ArialMT-73" transform="translate(272.363281 0.826562)"/>
      <use xlink:href="#ArialMT-65" transform="translate(322.363281 0.826562)"/>
      <use xlink:href="#ArialMT-6e" transform="translate(377.978516 0.826562)"/>
      <use xlink:href="#ArialMT-74" transform="translate(433.59375 0.826562)"/>
      <use xlink:href="#ArialMT-61" transform="translate(461.376953 0.826562)"/>
      <use xlink:href="#ArialMT-74" transform="translate(516.992188 0.826562)"/>
      <use xlink:href="#ArialMT-69" transform="translate(544.775391 0.826562)"/>
      <use xlink:href="#ArialMT-6f" transform="translate(566.992188 0.826562)"/>
      <use xlink:href="#ArialMT-6e" transform="translate(622.607422 0.826562)"/>
      <use xlink:href="#ArialMT-20" transform="translate(678.222656 0.826562)"/>
      <use xlink:href="#ArialMT-53" transform="translate(706.005859 0.826562)"/>
      <use xlink:href="#ArialMT-69" transform="translate(772.705078 0.826562)"/>
      <use xlink:href="#ArialMT-6d" transform="translate(794.921875 0.826562)"/>
      <use xlink:href="#ArialMT-2e" transform="translate(878.222656 0.826562)"/>
      <use xlink:href="#ArialMT-20" transform="translate(906.005859 0.826562)"/>
      <use xlink:href="#ArialMT-5c" transform="translate(933.789062 0.826562)"/>
      <use xlink:href="#ArialMT-77" transform="translate(961.572266 0.826562)"/>
      <use xlink:href="#ArialMT-72" transform="translate(1033.789062 0.826562)"/>
      <use xlink:href="#ArialMT-74" transform="translate(1067.089844 0.826562)"/>
      <use xlink:href="#ArialMT-20" transform="translate(1094.873047 0.826562)"/>
      <use xlink:href="#ArialMT-4c" transform="translate(1122.65625 0.826562)"/>
      <use xlink:href="#ArialMT-4e" transform="translate(1178.271484 0.826562)"/>
      <use xlink:href="#DejaVuSans-2b" transform="translate(1265.083008 39.107812)scale(0.7)"/>
     </g>
    </g>
   </g>
   <g id="line2d_10">
    <path d="M 77.468559 43.237924 
L 82.754664 43.846867 
L 88.04077 44.656451 
L 93.326875 43.552648 
L 98.612981 43.961331 
L 103.899086 44.696761 
L 109.185192 43.267459 
L 114.471297 43.217146 
L 119.757403 43.301906 
L 125.043508 44.092374 
L 130.329614 43.953023 
L 135.61572 43.435486 
L 140.901825 43.396781 
L 146.187931 43.337189 
L 151.474036 43.559 
L 156.760142 43.243174 
L 162.046247 43.061848 
L 167.332353 43.058008 
L 172.618458 43.328214 
L 177.904564 42.764639 
L 183.190669 43.113125 
L 188.476775 43.296112 
L 193.762881 43.313655 
L 199.048986 43.541636 
L 204.335092 43.643569 
L 209.621197 44.182714 
L 214.907303 43.67315 
L 220.193408 43.896309 
L 225.479514 44.278922 
L 230.765619 44.833917 
L 236.051725 44.962177 
L 241.33783 45.369002 
L 246.623936 45.280795 
L 251.910042 45.372215 
L 257.196147 46.109643 
L 262.482253 46.111739 
L 267.768358 46.557253 
L 273.054464 46.452758 
L 278.340569 46.746868 
L 283.626675 47.031511 
L 288.91278 47.076802 
L 294.198886 47.195922 
L 299.484991 47.143137 
L 304.771097 47.582559 
L 310.057203 47.672825 
L 315.343308 47.563453 
L 320.629414 48.047264 
L 325.915519 47.886981 
L 331.201625 48.087921 
L 336.48773 48.095774 
" clip-path="url(#pa6fd4ca24e)" style="fill: none; stroke: #707b90; stroke-width: 2.5; stroke-linecap: square"/>
   </g>
   <g id="line2d_11">
    <path d="M 77.468559 71.718341 
L 82.754664 71.498636 
L 88.04077 71.785498 
L 93.326875 72.217609 
L 98.612981 72.653476 
L 103.899086 73.227593 
L 109.185192 73.660042 
L 114.471297 73.696113 
L 119.757403 74.05908 
L 125.043508 74.110141 
L 130.329614 74.915796 
L 135.61572 74.875506 
L 140.901825 75.154275 
L 146.187931 75.333286 
L 151.474036 75.748909 
L 156.760142 75.930586 
L 162.046247 76.145234 
L 167.332353 76.593474 
L 172.618458 76.9642 
L 177.904564 77.281681 
L 183.190669 77.189306 
L 188.476775 77.251653 
L 193.762881 77.648394 
L 199.048986 78.082104 
L 204.335092 78.288905 
L 209.621197 78.423483 
L 214.907303 79.073802 
L 220.193408 78.89317 
L 225.479514 79.211029 
L 230.765619 79.489602 
L 236.051725 79.500296 
L 241.33783 80.147069 
L 246.623936 80.294284 
L 251.910042 79.907168 
L 257.196147 80.117237 
L 262.482253 80.801577 
L 267.768358 81.195601 
L 273.054464 80.96854 
L 278.340569 81.22368 
L 283.626675 80.820107 
L 288.91278 81.391865 
L 294.198886 81.136361 
L 299.484991 81.419007 
L 304.771097 81.450324 
L 310.057203 81.505144 
L 315.343308 81.308593 
L 320.629414 82.271464 
L 325.915519 82.458679 
L 331.201625 82.440268 
L 336.48773 82.28595 
" clip-path="url(#pa6fd4ca24e)" style="fill: none; stroke: #cbdede; stroke-width: 2.5; stroke-linecap: square"/>
   </g>
   <g id="patch_3">
    <path d="M 64.5176 294.1738 
L 64.5176 25.5687 
" style="fill: none; stroke: #000000; stroke-width: 1.5; stroke-linejoin: miter; stroke-linecap: square"/>
   </g>
   <g id="patch_4">
    <path d="M 64.5176 294.1738 
L 349.438689 294.1738 
" style="fill: none; stroke: #000000; stroke-width: 1.5; stroke-linejoin: miter; stroke-linecap: square"/>
   </g>
   <g id="text_12">
    <!-- $\epsilon$: 0 -->
    <g transform="translate(192.635744 19.5687)scale(0.1728 -0.1728)">
     <defs>
      <path id="DejaVuSans-Oblique-3b5" d="M 1263 1888 
Q 925 1963 778 2166 
Q 669 2309 669 2503 
Q 669 3034 1175 3344 
Q 1575 3588 2188 3588 
Q 2425 3588 2684 3550 
Q 2944 3513 3234 3438 
L 3134 2916 
Q 2847 3006 2606 3047 
Q 2359 3088 2138 3088 
Q 1766 3088 1522 2944 
Q 1228 2772 1228 2522 
Q 1228 2356 1381 2241 
Q 1563 2103 1925 2103 
L 2409 2103 
L 2319 1628 
L 1856 1628 
Q 1425 1628 1172 1469 
Q 828 1253 828 916 
Q 828 703 1013 563 
Q 1244 388 1716 388 
Q 2006 388 2284 444 
Q 2563 503 2806 619 
L 2700 84 
Q 2403 -3 2131 -47 
Q 1859 -91 1609 -91 
Q 866 -91 516 194 
Q 250 413 250 781 
Q 250 1278 600 1584 
Q 859 1813 1263 1888 
z
" transform="scale(0.015625)"/>
      <path id="ArialMT-3a" d="M 578 2678 
L 578 3319 
L 1219 3319 
L 1219 2678 
L 578 2678 
z
M 578 0 
L 578 641 
L 1219 641 
L 1219 0 
L 578 0 
z
" transform="scale(0.015625)"/>
     </defs>
     <use xlink:href="#DejaVuSans-Oblique-3b5" transform="translate(0 0.125)"/>
     <use xlink:href="#ArialMT-3a" transform="translate(54.052734 0.125)"/>
     <use xlink:href="#ArialMT-20" transform="translate(81.835938 0.125)"/>
     <use xlink:href="#ArialMT-30" transform="translate(109.619141 0.125)"/>
    </g>
   </g>
  </g>
  <g id="axes_2">
   <g id="patch_5">
    <path d="M 370.398689 294.1738 
L 655.319778 294.1738 
L 655.319778 25.5687 
L 370.398689 25.5687 
z
" style="fill: #ffffff"/>
   </g>
   <g id="PolyCollection_3">
    <defs>
     <path id="m770c9acbea" d="M 383.349647 -310.689421 
L 383.349647 -301.438587 
L 388.635753 -296.709984 
L 393.921859 -293.016528 
L 399.207964 -286.926863 
L 404.49407 -289.420547 
L 409.780175 -296.041193 
L 415.066281 -285.425879 
L 420.352386 -288.608753 
L 425.638492 -286.675844 
L 430.924597 -283.440653 
L 436.210703 -287.322162 
L 441.496808 -286.225925 
L 446.782914 -287.386572 
L 452.06902 -289.475638 
L 457.355125 -287.818153 
L 462.641231 -286.264943 
L 467.927336 -286.273028 
L 473.213442 -287.011695 
L 478.499547 -280.584896 
L 483.785653 -283.902444 
L 489.071758 -285.081401 
L 494.357864 -284.394665 
L 499.643969 -284.151459 
L 504.930075 -282.503584 
L 510.216181 -280.940367 
L 515.502286 -282.22744 
L 520.788392 -282.559914 
L 526.074497 -281.421845 
L 531.360603 -279.265046 
L 536.646708 -283.654009 
L 541.932814 -277.917473 
L 547.218919 -279.294015 
L 552.505025 -278.572853 
L 557.79113 -281.130958 
L 563.077236 -277.329154 
L 568.363342 -276.073876 
L 573.649447 -277.008892 
L 578.935553 -276.136047 
L 584.221658 -276.710551 
L 589.507764 -276.302652 
L 594.793869 -274.034107 
L 600.079975 -271.027252 
L 605.36608 -275.676252 
L 610.652186 -271.479672 
L 615.938291 -270.572963 
L 621.224397 -270.057098 
L 626.510502 -270.203454 
L 631.796608 -270.914007 
L 637.082714 -270.222663 
L 642.368819 -268.158667 
L 642.368819 -310.199609 
L 642.368819 -310.199609 
L 637.082714 -310.258308 
L 631.796608 -310.188451 
L 626.510502 -310.214259 
L 621.224397 -309.194961 
L 615.938291 -310.23553 
L 610.652186 -310.068881 
L 605.36608 -310.247709 
L 600.079975 -310.240244 
L 594.793869 -310.265278 
L 589.507764 -310.275885 
L 584.221658 -310.306036 
L 578.935553 -310.25378 
L 573.649447 -310.199255 
L 568.363342 -310.275696 
L 563.077236 -310.306724 
L 557.79113 -310.319886 
L 552.505025 -310.335739 
L 547.218919 -310.271678 
L 541.932814 -310.307726 
L 536.646708 -310.366042 
L 531.360603 -310.349869 
L 526.074497 -310.366526 
L 520.788392 -310.274556 
L 515.502286 -310.37562 
L 510.216181 -310.424795 
L 504.930075 -310.447465 
L 499.643969 -310.445157 
L 494.357864 -310.457758 
L 489.071758 -310.511085 
L 483.785653 -310.475794 
L 478.499547 -310.519182 
L 473.213442 -310.537951 
L 467.927336 -310.4902 
L 462.641231 -310.503145 
L 457.355125 -310.539061 
L 452.06902 -310.534938 
L 446.782914 -310.541012 
L 441.496808 -310.567422 
L 436.210703 -310.570262 
L 430.924597 -310.503533 
L 425.638492 -310.528502 
L 420.352386 -310.602213 
L 415.066281 -310.565779 
L 409.780175 -310.611978 
L 404.49407 -310.64881 
L 399.207964 -310.622907 
L 393.921859 -310.655302 
L 388.635753 -310.67637 
L 383.349647 -310.689421 
z
" style="stroke: #707b90; stroke-opacity: 0.2; stroke-width: 2.5"/>
    </defs>
    <g clip-path="url(#p24efe6f46c)">
     <use xlink:href="#m770c9acbea" x="0" y="348.48" style="fill: #707b90; fill-opacity: 0.2; stroke: #707b90; stroke-opacity: 0.2; stroke-width: 2.5"/>
    </g>
   </g>
   <g id="PolyCollection_4">
    <defs>
     <path id="m27b71dd801" d="M 383.349647 -254.542657 
L 383.349647 -235.262572 
L 388.635753 -251.799846 
L 393.921859 -235.712385 
L 399.207964 -253.140403 
L 404.49407 -245.869209 
L 409.780175 -243.051807 
L 415.066281 -252.499015 
L 420.352386 -237.363436 
L 425.638492 -232.110123 
L 430.924597 -252.792131 
L 436.210703 -249.943929 
L 441.496808 -247.209996 
L 446.782914 -251.691112 
L 452.06902 -249.646818 
L 457.355125 -248.217725 
L 462.641231 -251.354335 
L 467.927336 -250.615068 
L 473.213442 -250.934577 
L 478.499547 -246.6022 
L 483.785653 -246.579731 
L 489.071758 -257.954301 
L 494.357864 -244.261622 
L 499.643969 -247.936123 
L 504.930075 -249.61823 
L 510.216181 -251.12027 
L 515.502286 -251.541954 
L 520.788392 -249.480584 
L 526.074497 -251.706 
L 531.360603 -258.716472 
L 536.646708 -247.896856 
L 541.932814 -252.688836 
L 547.218919 -251.789881 
L 552.505025 -252.12975 
L 557.79113 -250.477511 
L 563.077236 -249.688584 
L 568.363342 -255.947917 
L 573.649447 -250.759942 
L 578.935553 -245.777988 
L 584.221658 -247.809978 
L 589.507764 -245.601404 
L 594.793869 -247.146747 
L 600.079975 -247.998629 
L 605.36608 -248.50806 
L 610.652186 -249.741043 
L 615.938291 -243.676733 
L 621.224397 -248.6038 
L 626.510502 -246.765094 
L 631.796608 -243.750336 
L 637.082714 -249.350442 
L 642.368819 -250.800737 
L 642.368819 -252.867475 
L 642.368819 -252.867475 
L 637.082714 -256.526842 
L 631.796608 -244.018567 
L 626.510502 -249.759169 
L 621.224397 -251.876046 
L 615.938291 -248.30887 
L 610.652186 -249.854648 
L 605.36608 -250.516357 
L 600.079975 -254.863996 
L 594.793869 -250.006535 
L 589.507764 -253.700725 
L 584.221658 -259.163193 
L 578.935553 -255.091139 
L 573.649447 -253.094522 
L 568.363342 -257.795106 
L 563.077236 -261.16318 
L 557.79113 -253.284575 
L 552.505025 -258.704148 
L 547.218919 -258.615538 
L 541.932814 -254.757195 
L 536.646708 -252.474419 
L 531.360603 -259.151016 
L 526.074497 -255.690546 
L 520.788392 -261.089434 
L 515.502286 -253.611466 
L 510.216181 -257.86698 
L 504.930075 -253.926993 
L 499.643969 -258.730569 
L 494.357864 -261.153977 
L 489.071758 -261.066116 
L 483.785653 -252.395518 
L 478.499547 -255.443342 
L 473.213442 -261.533423 
L 467.927336 -255.806146 
L 462.641231 -263.134412 
L 457.355125 -262.07114 
L 452.06902 -260.449992 
L 446.782914 -262.88466 
L 441.496808 -262.955128 
L 436.210703 -259.918118 
L 430.924597 -262.683768 
L 425.638492 -258.715351 
L 420.352386 -260.638685 
L 415.066281 -269.606134 
L 409.780175 -266.809693 
L 404.49407 -264.685099 
L 399.207964 -265.263937 
L 393.921859 -260.13905 
L 388.635753 -270.084333 
L 383.349647 -254.542657 
z
" style="stroke: #cbdede; stroke-opacity: 0.2; stroke-width: 2.5"/>
    </defs>
    <g clip-path="url(#p24efe6f46c)">
     <use xlink:href="#m27b71dd801" x="0" y="348.48" style="fill: #cbdede; fill-opacity: 0.2; stroke: #cbdede; stroke-opacity: 0.2; stroke-width: 2.5"/>
    </g>
   </g>
   <g id="matplotlib.axis_3">
    <g id="xtick_4">
     <g id="line2d_12">
      <g>
       <use xlink:href="#m71b180d679" x="383.349647" y="294.1738" style="stroke: #000000; stroke-width: 2"/>
      </g>
     </g>
     <g id="text_13">
      <!-- 0 -->
      <g transform="translate(378.544997 318.0425)scale(0.1728 -0.1728)">
       <use xlink:href="#ArialMT-30"/>
      </g>
     </g>
    </g>
    <g id="xtick_5">
     <g id="line2d_13">
      <g>
       <use xlink:href="#m71b180d679" x="489.071758" y="294.1738" style="stroke: #000000; stroke-width: 2"/>
      </g>
     </g>
     <g id="text_14">
      <!-- 20 -->
      <g transform="translate(479.462458 318.0425)scale(0.1728 -0.1728)">
       <use xlink:href="#ArialMT-32"/>
       <use xlink:href="#ArialMT-30" x="55.615234"/>
      </g>
     </g>
    </g>
    <g id="xtick_6">
     <g id="line2d_14">
      <g>
       <use xlink:href="#m71b180d679" x="594.793869" y="294.1738" style="stroke: #000000; stroke-width: 2"/>
      </g>
     </g>
     <g id="text_15">
      <!-- 40 -->
      <g transform="translate(585.184569 318.0425)scale(0.1728 -0.1728)">
       <use xlink:href="#ArialMT-34"/>
       <use xlink:href="#ArialMT-30" x="55.615234"/>
      </g>
     </g>
    </g>
    <g id="text_16">
     <!-- Epoch -->
     <g transform="translate(488.362133 337.8456)scale(0.1728 -0.1728)">
      <use xlink:href="#ArialMT-45"/>
      <use xlink:href="#ArialMT-70" x="66.699219"/>
      <use xlink:href="#ArialMT-6f" x="122.314453"/>
      <use xlink:href="#ArialMT-63" x="177.929688"/>
      <use xlink:href="#ArialMT-68" x="227.929688"/>
     </g>
    </g>
   </g>
   <g id="matplotlib.axis_4">
    <g id="ytick_7">
     <g id="line2d_15">
      <g>
       <use xlink:href="#m5e79e0cd1b" x="370.398689" y="266.242089" style="stroke: #000000; stroke-width: 2"/>
      </g>
     </g>
    </g>
    <g id="ytick_8">
     <g id="line2d_16">
      <g>
       <use xlink:href="#m5e79e0cd1b" x="370.398689" y="220.546593" style="stroke: #000000; stroke-width: 2"/>
      </g>
     </g>
    </g>
    <g id="ytick_9">
     <g id="line2d_17">
      <g>
       <use xlink:href="#m5e79e0cd1b" x="370.398689" y="174.851098" style="stroke: #000000; stroke-width: 2"/>
      </g>
     </g>
    </g>
    <g id="ytick_10">
     <g id="line2d_18">
      <g>
       <use xlink:href="#m5e79e0cd1b" x="370.398689" y="129.155602" style="stroke: #000000; stroke-width: 2"/>
      </g>
     </g>
    </g>
    <g id="ytick_11">
     <g id="line2d_19">
      <g>
       <use xlink:href="#m5e79e0cd1b" x="370.398689" y="83.460107" style="stroke: #000000; stroke-width: 2"/>
      </g>
     </g>
    </g>
    <g id="ytick_12">
     <g id="line2d_20">
      <g>
       <use xlink:href="#m5e79e0cd1b" x="370.398689" y="37.764611" style="stroke: #000000; stroke-width: 2"/>
      </g>
     </g>
    </g>
   </g>
   <g id="line2d_21">
    <path d="M 383.349647 42.415996 
L 388.635753 44.786823 
L 393.921859 46.644085 
L 399.207964 49.705115 
L 404.49407 48.445322 
L 409.780175 45.153414 
L 415.066281 50.484171 
L 420.352386 48.874517 
L 425.638492 49.877827 
L 430.924597 51.507907 
L 436.210703 49.533788 
L 441.496808 50.083326 
L 446.782914 49.516208 
L 452.06902 48.474712 
L 457.355125 49.301393 
L 462.641231 50.095956 
L 467.927336 50.098386 
L 473.213442 49.705177 
L 478.499547 52.927961 
L 483.785653 51.290881 
L 489.071758 50.683757 
L 494.357864 51.053789 
L 499.643969 51.181692 
L 504.930075 52.004475 
L 510.216181 52.797419 
L 515.502286 52.17847 
L 520.788392 52.062765 
L 526.074497 52.585814 
L 531.360603 53.672542 
L 536.646708 51.469974 
L 541.932814 54.3674 
L 547.218919 53.697153 
L 552.505025 54.025704 
L 557.79113 52.754578 
L 563.077236 54.662061 
L 568.363342 55.305214 
L 573.649447 54.875926 
L 578.935553 55.285087 
L 584.221658 54.971707 
L 589.507764 55.190731 
L 594.793869 56.330308 
L 600.079975 57.846252 
L 605.36608 55.518019 
L 610.652186 57.705724 
L 615.938291 58.075753 
L 621.224397 58.85397 
L 626.510502 58.271144 
L 631.796608 57.928771 
L 637.082714 58.239515 
L 642.368819 59.300862 
" clip-path="url(#p24efe6f46c)" style="fill: none; stroke: #707b90; stroke-width: 2.5; stroke-linecap: square"/>
   </g>
   <g id="line2d_22">
    <path d="M 383.349647 103.577386 
L 388.635753 87.537911 
L 393.921859 100.554283 
L 399.207964 89.27783 
L 404.49407 93.202846 
L 409.780175 93.54925 
L 415.066281 87.427425 
L 420.352386 99.478939 
L 425.638492 103.067263 
L 430.924597 90.742051 
L 436.210703 93.548976 
L 441.496808 93.397438 
L 446.782914 91.192114 
L 452.06902 93.431595 
L 457.355125 93.335567 
L 462.641231 91.235626 
L 467.927336 95.269393 
L 473.213442 92.246 
L 478.499547 97.457229 
L 483.785653 98.992376 
L 489.071758 88.969792 
L 494.357864 95.772201 
L 499.643969 95.146654 
L 504.930075 96.707388 
L 510.216181 93.986375 
L 515.502286 95.90329 
L 520.788392 93.194991 
L 526.074497 94.781727 
L 531.360603 89.546256 
L 536.646708 98.294362 
L 541.932814 94.756984 
L 547.218919 93.277291 
L 552.505025 93.063051 
L 557.79113 96.598957 
L 563.077236 93.054118 
L 568.363342 91.608489 
L 573.649447 96.552768 
L 578.935553 98.045437 
L 584.221658 94.993415 
L 589.507764 98.828935 
L 594.793869 99.903359 
L 600.079975 97.048687 
L 605.36608 98.967791 
L 610.652186 98.682155 
L 615.938291 102.487198 
L 621.224397 98.240077 
L 626.510502 100.217869 
L 631.796608 104.595548 
L 637.082714 95.541358 
L 642.368819 96.645894 
" clip-path="url(#p24efe6f46c)" style="fill: none; stroke: #cbdede; stroke-width: 2.5; stroke-linecap: square"/>
   </g>
   <g id="patch_6">
    <path d="M 370.398689 294.1738 
L 370.398689 25.5687 
" style="fill: none; stroke: #000000; stroke-width: 1.5; stroke-linejoin: miter; stroke-linecap: square"/>
   </g>
   <g id="patch_7">
    <path d="M 370.398689 294.1738 
L 655.319778 294.1738 
" style="fill: none; stroke: #000000; stroke-width: 1.5; stroke-linejoin: miter; stroke-linecap: square"/>
   </g>
   <g id="text_17">
    <!-- $\epsilon$: 0.5 -->
    <g transform="translate(491.345633 19.5687)scale(0.1728 -0.1728)">
     <use xlink:href="#DejaVuSans-Oblique-3b5" transform="translate(0 0.125)"/>
     <use xlink:href="#ArialMT-3a" transform="translate(54.052734 0.125)"/>
     <use xlink:href="#ArialMT-20" transform="translate(81.835938 0.125)"/>
     <use xlink:href="#ArialMT-30" transform="translate(109.619141 0.125)"/>
     <use xlink:href="#ArialMT-2e" transform="translate(165.234375 0.125)"/>
     <use xlink:href="#ArialMT-35" transform="translate(193.017578 0.125)"/>
    </g>
   </g>
  </g>
  <g id="axes_3">
   <g id="patch_8">
    <path d="M 676.279778 294.1738 
L 961.200867 294.1738 
L 961.200867 25.5687 
L 676.279778 25.5687 
z
" style="fill: #ffffff"/>
   </g>
   <g id="PolyCollection_5">
    <defs>
     <path id="m0d253156f9" d="M 689.230736 -310.673697 
L 689.230736 -293.649062 
L 694.516842 -289.631832 
L 699.802947 -279.323544 
L 705.089053 -273.075581 
L 710.375158 -265.106912 
L 715.661264 -265.166165 
L 720.94737 -262.721967 
L 726.233475 -269.474805 
L 731.519581 -268.495017 
L 736.805686 -254.275115 
L 742.091792 -253.456587 
L 747.377897 -260.270985 
L 752.664003 -258.337307 
L 757.950108 -261.491163 
L 763.236214 -250.870465 
L 768.522319 -255.927584 
L 773.808425 -250.511056 
L 779.094531 -260.625931 
L 784.380636 -256.653416 
L 789.666742 -258.347526 
L 794.952847 -250.309624 
L 800.238953 -250.399947 
L 805.525058 -247.021065 
L 810.811164 -244.961608 
L 816.097269 -242.504305 
L 821.383375 -244.028589 
L 826.66948 -243.277767 
L 831.955586 -246.879464 
L 837.241692 -242.685715 
L 842.527797 -249.985833 
L 847.813903 -243.650855 
L 853.100008 -245.754225 
L 858.386114 -248.016341 
L 863.672219 -249.668148 
L 868.958325 -252.46088 
L 874.24443 -246.938934 
L 879.530536 -251.634873 
L 884.816641 -242.176237 
L 890.102747 -246.226905 
L 895.388853 -247.604398 
L 900.674958 -242.917431 
L 905.961064 -243.861322 
L 911.247169 -247.569822 
L 916.533275 -243.149018 
L 921.81938 -238.330063 
L 927.105486 -236.907592 
L 932.391591 -240.181316 
L 937.677697 -242.602259 
L 942.963802 -243.659139 
L 948.249908 -239.514549 
L 948.249908 -308.094391 
L 948.249908 -308.094391 
L 942.963802 -308.04046 
L 937.677697 -308.508835 
L 932.391591 -308.309197 
L 927.105486 -308.055601 
L 921.81938 -308.407755 
L 916.533275 -308.636717 
L 911.247169 -308.446498 
L 905.961064 -308.746108 
L 900.674958 -308.107478 
L 895.388853 -308.689714 
L 890.102747 -308.880776 
L 884.816641 -309.007698 
L 879.530536 -308.554068 
L 874.24443 -308.576427 
L 868.958325 -309.213655 
L 863.672219 -309.181328 
L 858.386114 -309.064045 
L 853.100008 -309.116211 
L 847.813903 -308.79449 
L 842.527797 -308.953011 
L 837.241692 -309.118618 
L 831.955586 -309.076132 
L 826.66948 -309.134079 
L 821.383375 -309.160341 
L 816.097269 -309.383844 
L 810.811164 -309.321889 
L 805.525058 -309.481492 
L 800.238953 -309.202203 
L 794.952847 -309.880785 
L 789.666742 -309.794813 
L 784.380636 -309.410499 
L 779.094531 -309.43519 
L 773.808425 -309.416275 
L 768.522319 -309.675518 
L 763.236214 -310.015328 
L 757.950108 -310.105471 
L 752.664003 -310.254413 
L 747.377897 -309.928983 
L 742.091792 -309.979412 
L 736.805686 -309.840266 
L 731.519581 -309.412597 
L 726.233475 -310.527742 
L 720.94737 -310.412473 
L 715.661264 -310.517584 
L 710.375158 -310.502276 
L 705.089053 -310.586033 
L 699.802947 -310.51788 
L 694.516842 -310.654743 
L 689.230736 -310.673697 
z
" style="stroke: #707b90; stroke-opacity: 0.2; stroke-width: 2.5"/>
    </defs>
    <g clip-path="url(#p204ccee4cc)">
     <use xlink:href="#m0d253156f9" x="0" y="348.48" style="fill: #707b90; fill-opacity: 0.2; stroke: #707b90; stroke-opacity: 0.2; stroke-width: 2.5"/>
    </g>
   </g>
   <g id="PolyCollection_6">
    <defs>
     <path id="m30f536e274" d="M 689.230736 -235.472138 
L 689.230736 -205.46062 
L 694.516842 -223.838411 
L 699.802947 -199.111413 
L 705.089053 -232.071885 
L 710.375158 -216.771495 
L 715.661264 -220.7543 
L 720.94737 -229.128943 
L 726.233475 -206.36622 
L 731.519581 -191.589763 
L 736.805686 -232.55365 
L 742.091792 -224.360628 
L 747.377897 -221.636488 
L 752.664003 -232.33578 
L 757.950108 -225.778533 
L 763.236214 -228.129902 
L 768.522319 -226.151873 
L 773.808425 -226.884995 
L 779.094531 -228.650492 
L 784.380636 -220.136987 
L 789.666742 -216.606926 
L 794.952847 -236.420114 
L 800.238953 -219.201615 
L 805.525058 -221.394996 
L 810.811164 -220.408867 
L 816.097269 -228.764928 
L 821.383375 -223.724451 
L 826.66948 -217.7761 
L 831.955586 -222.544504 
L 837.241692 -233.33147 
L 842.527797 -217.834768 
L 847.813903 -224.196823 
L 853.100008 -222.805098 
L 858.386114 -218.839326 
L 863.672219 -224.294301 
L 868.958325 -225.9771 
L 874.24443 -230.083563 
L 879.530536 -222.917191 
L 884.816641 -212.723204 
L 890.102747 -214.360036 
L 895.388853 -213.342399 
L 900.674958 -216.829454 
L 905.961064 -213.584724 
L 911.247169 -219.593941 
L 916.533275 -223.853755 
L 921.81938 -210.359354 
L 927.105486 -223.280393 
L 932.391591 -216.234383 
L 937.677697 -214.368672 
L 942.963802 -224.122615 
L 948.249908 -220.830021 
L 948.249908 -223.427302 
L 948.249908 -223.427302 
L 942.963802 -230.728757 
L 937.677697 -220.700028 
L 932.391591 -227.439827 
L 927.105486 -227.409229 
L 921.81938 -226.979131 
L 916.533275 -226.553991 
L 911.247169 -225.438916 
L 905.961064 -230.171795 
L 900.674958 -223.061393 
L 895.388853 -228.587849 
L 890.102747 -239.257058 
L 884.816641 -227.404598 
L 879.530536 -232.222095 
L 874.24443 -230.459393 
L 868.958325 -236.864947 
L 863.672219 -231.502174 
L 858.386114 -234.760817 
L 853.100008 -237.883032 
L 847.813903 -228.045582 
L 842.527797 -232.675713 
L 837.241692 -236.819246 
L 831.955586 -234.669893 
L 826.66948 -233.909848 
L 821.383375 -228.561598 
L 816.097269 -233.309121 
L 810.811164 -224.35968 
L 805.525058 -235.145131 
L 800.238953 -240.818026 
L 794.952847 -238.313466 
L 789.666742 -228.91573 
L 784.380636 -229.998459 
L 779.094531 -237.699689 
L 773.808425 -228.721189 
L 768.522319 -240.347199 
L 763.236214 -235.498986 
L 757.950108 -239.727583 
L 752.664003 -240.749141 
L 747.377897 -241.1676 
L 742.091792 -236.385866 
L 736.805686 -237.577947 
L 731.519581 -237.896699 
L 726.233475 -240.58273 
L 720.94737 -251.928299 
L 715.661264 -253.151138 
L 710.375158 -249.436182 
L 705.089053 -248.159301 
L 699.802947 -236.44703 
L 694.516842 -250.598496 
L 689.230736 -235.472138 
z
" style="stroke: #cbdede; stroke-opacity: 0.2; stroke-width: 2.5"/>
    </defs>
    <g clip-path="url(#p204ccee4cc)">
     <use xlink:href="#m30f536e274" x="0" y="348.48" style="fill: #cbdede; fill-opacity: 0.2; stroke: #cbdede; stroke-opacity: 0.2; stroke-width: 2.5"/>
    </g>
   </g>
   <g id="matplotlib.axis_5">
    <g id="xtick_7">
     <g id="line2d_23">
      <g>
       <use xlink:href="#m71b180d679" x="689.230736" y="294.1738" style="stroke: #000000; stroke-width: 2"/>
      </g>
     </g>
     <g id="text_18">
      <!-- 0 -->
      <g transform="translate(684.426086 318.0425)scale(0.1728 -0.1728)">
       <use xlink:href="#ArialMT-30"/>
      </g>
     </g>
    </g>
    <g id="xtick_8">
     <g id="line2d_24">
      <g>
       <use xlink:href="#m71b180d679" x="794.952847" y="294.1738" style="stroke: #000000; stroke-width: 2"/>
      </g>
     </g>
     <g id="text_19">
      <!-- 20 -->
      <g transform="translate(785.343547 318.0425)scale(0.1728 -0.1728)">
       <use xlink:href="#ArialMT-32"/>
       <use xlink:href="#ArialMT-30" x="55.615234"/>
      </g>
     </g>
    </g>
    <g id="xtick_9">
     <g id="line2d_25">
      <g>
       <use xlink:href="#m71b180d679" x="900.674958" y="294.1738" style="stroke: #000000; stroke-width: 2"/>
      </g>
     </g>
     <g id="text_20">
      <!-- 40 -->
      <g transform="translate(891.065658 318.0425)scale(0.1728 -0.1728)">
       <use xlink:href="#ArialMT-34"/>
       <use xlink:href="#ArialMT-30" x="55.615234"/>
      </g>
     </g>
    </g>
    <g id="text_21">
     <!-- Epoch -->
     <g transform="translate(794.243222 337.8456)scale(0.1728 -0.1728)">
      <use xlink:href="#ArialMT-45"/>
      <use xlink:href="#ArialMT-70" x="66.699219"/>
      <use xlink:href="#ArialMT-6f" x="122.314453"/>
      <use xlink:href="#ArialMT-63" x="177.929688"/>
      <use xlink:href="#ArialMT-68" x="227.929688"/>
     </g>
    </g>
   </g>
   <g id="matplotlib.axis_6">
    <g id="ytick_13">
     <g id="line2d_26">
      <g>
       <use xlink:href="#m5e79e0cd1b" x="676.279778" y="266.242089" style="stroke: #000000; stroke-width: 2"/>
      </g>
     </g>
    </g>
    <g id="ytick_14">
     <g id="line2d_27">
      <g>
       <use xlink:href="#m5e79e0cd1b" x="676.279778" y="220.546593" style="stroke: #000000; stroke-width: 2"/>
      </g>
     </g>
    </g>
    <g id="ytick_15">
     <g id="line2d_28">
      <g>
       <use xlink:href="#m5e79e0cd1b" x="676.279778" y="174.851098" style="stroke: #000000; stroke-width: 2"/>
      </g>
     </g>
    </g>
    <g id="ytick_16">
     <g id="line2d_29">
      <g>
       <use xlink:href="#m5e79e0cd1b" x="676.279778" y="129.155602" style="stroke: #000000; stroke-width: 2"/>
      </g>
     </g>
    </g>
    <g id="ytick_17">
     <g id="line2d_30">
      <g>
       <use xlink:href="#m5e79e0cd1b" x="676.279778" y="83.460107" style="stroke: #000000; stroke-width: 2"/>
      </g>
     </g>
    </g>
    <g id="ytick_18">
     <g id="line2d_31">
      <g>
       <use xlink:href="#m5e79e0cd1b" x="676.279778" y="37.764611" style="stroke: #000000; stroke-width: 2"/>
      </g>
     </g>
    </g>
   </g>
   <g id="line2d_32">
    <path d="M 689.230736 46.31862 
L 694.516842 48.336713 
L 699.802947 53.559288 
L 705.089053 56.649193 
L 710.375158 60.675406 
L 715.661264 60.638125 
L 720.94737 61.91278 
L 726.233475 58.478727 
L 731.519581 59.526193 
L 736.805686 66.422309 
L 742.091792 66.762001 
L 747.377897 63.380016 
L 752.664003 64.18414 
L 757.950108 62.681683 
L 763.236214 68.037103 
L 768.522319 65.678449 
L 773.808425 68.516334 
L 779.094531 63.449439 
L 784.380636 65.448043 
L 789.666742 64.40883 
L 794.952847 68.384795 
L 800.238953 68.678925 
L 805.525058 70.228722 
L 810.811164 71.338251 
L 816.097269 72.535925 
L 821.383375 71.885535 
L 826.66948 72.274077 
L 831.955586 70.502202 
L 837.241692 72.577834 
L 842.527797 69.010578 
L 847.813903 72.257327 
L 853.100008 71.044782 
L 858.386114 69.939807 
L 863.672219 69.055262 
L 868.958325 67.642733 
L 874.24443 70.722319 
L 879.530536 68.385529 
L 884.816641 72.888032 
L 890.102747 70.92616 
L 895.388853 70.332944 
L 900.674958 72.967546 
L 905.961064 72.176285 
L 911.247169 70.47184 
L 916.533275 72.587133 
L 921.81938 75.111091 
L 927.105486 75.998403 
L 932.391591 74.234744 
L 937.677697 72.924453 
L 942.963802 72.6302 
L 948.249908 74.67553 
" clip-path="url(#p204ccee4cc)" style="fill: none; stroke: #707b90; stroke-width: 2.5; stroke-linecap: square"/>
   </g>
   <g id="line2d_33">
    <path d="M 689.230736 128.013621 
L 694.516842 111.261547 
L 699.802947 130.700779 
L 705.089053 108.364407 
L 710.375158 115.376161 
L 715.661264 111.527281 
L 720.94737 107.951379 
L 726.233475 125.005525 
L 731.519581 133.736769 
L 736.805686 113.414201 
L 742.091792 118.106753 
L 747.377897 117.077956 
L 752.664003 111.93754 
L 757.950108 115.726942 
L 763.236214 116.665556 
L 768.522319 115.230464 
L 773.808425 120.676908 
L 779.094531 115.304909 
L 784.380636 123.412277 
L 789.666742 125.718672 
L 794.952847 111.11321 
L 800.238953 118.470179 
L 805.525058 120.209937 
L 810.811164 126.095726 
L 816.097269 117.442976 
L 821.383375 122.336975 
L 826.66948 122.637026 
L 831.955586 119.872802 
L 837.241692 113.404642 
L 842.527797 123.224759 
L 847.813903 122.358798 
L 853.100008 118.135935 
L 858.386114 121.679929 
L 863.672219 120.581762 
L 868.958325 117.058977 
L 874.24443 118.208522 
L 879.530536 120.910357 
L 884.816641 128.416099 
L 890.102747 121.671453 
L 895.388853 127.514876 
L 900.674958 128.534577 
L 905.961064 126.601741 
L 911.247169 125.963571 
L 916.533275 123.276127 
L 921.81938 129.810757 
L 927.105486 123.135189 
L 932.391591 126.642895 
L 937.677697 130.94565 
L 942.963802 121.054314 
L 948.249908 126.351338 
" clip-path="url(#p204ccee4cc)" style="fill: none; stroke: #cbdede; stroke-width: 2.5; stroke-linecap: square"/>
   </g>
   <g id="patch_9">
    <path d="M 676.279778 294.1738 
L 676.279778 25.5687 
" style="fill: none; stroke: #000000; stroke-width: 1.5; stroke-linejoin: miter; stroke-linecap: square"/>
   </g>
   <g id="patch_10">
    <path d="M 676.279778 294.1738 
L 961.200867 294.1738 
" style="fill: none; stroke: #000000; stroke-width: 1.5; stroke-linejoin: miter; stroke-linecap: square"/>
   </g>
   <g id="text_22">
    <!-- $\epsilon$: 0.75 -->
    <g transform="translate(792.388322 19.5687)scale(0.1728 -0.1728)">
     <use xlink:href="#DejaVuSans-Oblique-3b5" transform="translate(0 0.125)"/>
     <use xlink:href="#ArialMT-3a" transform="translate(54.052734 0.125)"/>
     <use xlink:href="#ArialMT-20" transform="translate(81.835938 0.125)"/>
     <use xlink:href="#ArialMT-30" transform="translate(109.619141 0.125)"/>
     <use xlink:href="#ArialMT-2e" transform="translate(165.234375 0.125)"/>
     <use xlink:href="#ArialMT-37" transform="translate(193.017578 0.125)"/>
     <use xlink:href="#ArialMT-35" transform="translate(248.632812 0.125)"/>
    </g>
   </g>
  </g>
  <g id="axes_4">
   <g id="patch_11">
    <path d="M 982.160867 294.1738 
L 1267.081955 294.1738 
L 1267.081955 25.5687 
L 982.160867 25.5687 
z
" style="fill: #ffffff"/>
   </g>
   <g id="PolyCollection_7">
    <defs>
     <path id="m38791321e7" d="M 995.111825 -308.053249 
L 995.111825 -213.948475 
L 1000.397931 -173.336585 
L 1005.684036 -136.289418 
L 1010.970142 -108.253773 
L 1016.256247 -119.063021 
L 1021.542353 -87.835071 
L 1026.828458 -100.473019 
L 1032.114564 -66.515523 
L 1037.40067 -95.21637 
L 1042.686775 -136.064445 
L 1047.972881 -109.805406 
L 1053.258986 -109.773049 
L 1058.545092 -110.504453 
L 1063.831197 -93.365582 
L 1069.117303 -120.512716 
L 1074.403408 -108.872277 
L 1079.689514 -94.966339 
L 1084.975619 -119.502752 
L 1090.261725 -90.615005 
L 1095.547831 -115.972912 
L 1100.833936 -71.943658 
L 1106.120042 -99.498548 
L 1111.406147 -115.829373 
L 1116.692253 -106.575817 
L 1121.978358 -118.482502 
L 1127.264464 -106.414826 
L 1132.550569 -116.667744 
L 1137.836675 -123.805871 
L 1143.12278 -98.523217 
L 1148.408886 -115.599493 
L 1153.694992 -110.290382 
L 1158.981097 -96.805819 
L 1164.267203 -110.858616 
L 1169.553308 -119.121807 
L 1174.839414 -133.981885 
L 1180.125519 -126.870522 
L 1185.411625 -143.540384 
L 1190.69773 -150.609516 
L 1195.983836 -149.537809 
L 1201.269941 -176.02538 
L 1206.556047 -125.47119 
L 1211.842152 -135.110346 
L 1217.128258 -132.738785 
L 1222.414364 -117.521405 
L 1227.700469 -109.227134 
L 1232.986575 -141.700233 
L 1238.27268 -122.046109 
L 1243.558786 -132.293938 
L 1248.844891 -113.515715 
L 1254.130997 -147.48458 
L 1254.130997 -232.231484 
L 1254.130997 -232.231484 
L 1248.844891 -251.331108 
L 1243.558786 -241.267737 
L 1238.27268 -244.346398 
L 1232.986575 -240.974674 
L 1227.700469 -238.501883 
L 1222.414364 -243.755712 
L 1217.128258 -241.090466 
L 1211.842152 -243.932006 
L 1206.556047 -247.410825 
L 1201.269941 -248.544384 
L 1195.983836 -254.109146 
L 1190.69773 -245.703175 
L 1185.411625 -252.371586 
L 1180.125519 -245.512601 
L 1174.839414 -251.554034 
L 1169.553308 -252.400086 
L 1164.267203 -255.788612 
L 1158.981097 -258.581305 
L 1153.694992 -263.250351 
L 1148.408886 -266.10411 
L 1143.12278 -257.84386 
L 1137.836675 -263.493549 
L 1132.550569 -270.409079 
L 1127.264464 -265.135978 
L 1121.978358 -272.038733 
L 1116.692253 -263.982301 
L 1111.406147 -280.620151 
L 1106.120042 -281.132368 
L 1100.833936 -278.243875 
L 1095.547831 -277.497053 
L 1090.261725 -283.460258 
L 1084.975619 -289.457567 
L 1079.689514 -287.633528 
L 1074.403408 -291.874685 
L 1069.117303 -293.717865 
L 1063.831197 -294.175648 
L 1058.545092 -295.810334 
L 1053.258986 -300.879977 
L 1047.972881 -299.898841 
L 1042.686775 -302.672626 
L 1037.40067 -300.787928 
L 1032.114564 -305.302206 
L 1026.828458 -303.244535 
L 1021.542353 -305.229995 
L 1016.256247 -305.782517 
L 1010.970142 -306.383936 
L 1005.684036 -306.954003 
L 1000.397931 -307.754162 
L 995.111825 -308.053249 
z
" style="stroke: #707b90; stroke-opacity: 0.2; stroke-width: 2.5"/>
    </defs>
    <g clip-path="url(#p8799477a57)">
     <use xlink:href="#m38791321e7" x="0" y="348.48" style="fill: #707b90; fill-opacity: 0.2; stroke: #707b90; stroke-opacity: 0.2; stroke-width: 2.5"/>
    </g>
   </g>
   <g id="PolyCollection_8">
    <defs>
     <path id="m8124a62ef1" d="M 995.111825 -211.025356 
L 995.111825 -171.918451 
L 1000.397931 -191.938835 
L 1005.684036 -166.058138 
L 1010.970142 -211.81198 
L 1016.256247 -191.52937 
L 1021.542353 -199.461717 
L 1026.828458 -204.566483 
L 1032.114564 -180.905342 
L 1037.40067 -156.573411 
L 1042.686775 -212.772452 
L 1047.972881 -194.931871 
L 1053.258986 -198.833399 
L 1058.545092 -212.139702 
L 1063.831197 -197.671194 
L 1069.117303 -210.856468 
L 1074.403408 -202.629619 
L 1079.689514 -207.479268 
L 1084.975619 -206.675783 
L 1090.261725 -192.386187 
L 1095.547831 -194.623227 
L 1100.833936 -205.612656 
L 1106.120042 -196.099951 
L 1111.406147 -189.716732 
L 1116.692253 -197.503703 
L 1121.978358 -204.907636 
L 1127.264464 -200.908909 
L 1132.550569 -194.133048 
L 1137.836675 -194.317867 
L 1143.12278 -197.522547 
L 1148.408886 -188.557949 
L 1153.694992 -200.268074 
L 1158.981097 -189.48351 
L 1164.267203 -193.423329 
L 1169.553308 -195.976771 
L 1174.839414 -200.903737 
L 1180.125519 -195.808653 
L 1185.411625 -196.133114 
L 1190.69773 -180.977966 
L 1195.983836 -177.81149 
L 1201.269941 -187.961993 
L 1206.556047 -189.579457 
L 1211.842152 -179.907642 
L 1217.128258 -192.162106 
L 1222.414364 -201.193467 
L 1227.700469 -175.762465 
L 1232.986575 -196.221356 
L 1238.27268 -184.774392 
L 1243.558786 -190.909071 
L 1248.844891 -196.658519 
L 1254.130997 -187.093742 
L 1254.130997 -202.539151 
L 1254.130997 -202.539151 
L 1248.844891 -204.821862 
L 1243.558786 -191.699223 
L 1238.27268 -204.020107 
L 1232.986575 -199.155753 
L 1227.700469 -210.900178 
L 1222.414364 -203.299974 
L 1217.128258 -199.790033 
L 1211.842152 -201.251567 
L 1206.556047 -193.201258 
L 1201.269941 -204.939937 
L 1195.983836 -215.114462 
L 1190.69773 -197.391724 
L 1185.411625 -207.449699 
L 1180.125519 -200.417198 
L 1174.839414 -211.495897 
L 1169.553308 -197.899724 
L 1164.267203 -211.624523 
L 1158.981097 -214.337184 
L 1153.694992 -200.915924 
L 1148.408886 -212.471628 
L 1143.12278 -222.611017 
L 1137.836675 -206.006467 
L 1132.550569 -210.881824 
L 1127.264464 -207.752141 
L 1121.978358 -209.915626 
L 1116.692253 -200.839554 
L 1111.406147 -214.73038 
L 1106.120042 -222.653435 
L 1100.833936 -223.708951 
L 1095.547831 -206.008289 
L 1090.261725 -207.857473 
L 1084.975619 -210.03687 
L 1079.689514 -208.874705 
L 1074.403408 -219.156643 
L 1069.117303 -221.12886 
L 1063.831197 -221.043478 
L 1058.545092 -214.341217 
L 1053.258986 -227.287432 
L 1047.972881 -221.68409 
L 1042.686775 -214.061247 
L 1037.40067 -214.234452 
L 1032.114564 -220.860813 
L 1026.828458 -229.039884 
L 1021.542353 -243.65183 
L 1016.256247 -230.154109 
L 1010.970142 -228.413651 
L 1005.684036 -209.213268 
L 1000.397931 -227.791244 
L 995.111825 -211.025356 
z
" style="stroke: #cbdede; stroke-opacity: 0.2; stroke-width: 2.5"/>
    </defs>
    <g clip-path="url(#p8799477a57)">
     <use xlink:href="#m8124a62ef1" x="0" y="348.48" style="fill: #cbdede; fill-opacity: 0.2; stroke: #cbdede; stroke-opacity: 0.2; stroke-width: 2.5"/>
    </g>
   </g>
   <g id="matplotlib.axis_7">
    <g id="xtick_10">
     <g id="line2d_34">
      <g>
       <use xlink:href="#m71b180d679" x="995.111825" y="294.1738" style="stroke: #000000; stroke-width: 2"/>
      </g>
     </g>
     <g id="text_23">
      <!-- 0 -->
      <g transform="translate(990.307175 318.0425)scale(0.1728 -0.1728)">
       <use xlink:href="#ArialMT-30"/>
      </g>
     </g>
    </g>
    <g id="xtick_11">
     <g id="line2d_35">
      <g>
       <use xlink:href="#m71b180d679" x="1100.833936" y="294.1738" style="stroke: #000000; stroke-width: 2"/>
      </g>
     </g>
     <g id="text_24">
      <!-- 20 -->
      <g transform="translate(1091.224636 318.0425)scale(0.1728 -0.1728)">
       <use xlink:href="#ArialMT-32"/>
       <use xlink:href="#ArialMT-30" x="55.615234"/>
      </g>
     </g>
    </g>
    <g id="xtick_12">
     <g id="line2d_36">
      <g>
       <use xlink:href="#m71b180d679" x="1206.556047" y="294.1738" style="stroke: #000000; stroke-width: 2"/>
      </g>
     </g>
     <g id="text_25">
      <!-- 40 -->
      <g transform="translate(1196.946747 318.0425)scale(0.1728 -0.1728)">
       <use xlink:href="#ArialMT-34"/>
       <use xlink:href="#ArialMT-30" x="55.615234"/>
      </g>
     </g>
    </g>
    <g id="text_26">
     <!-- Epoch -->
     <g transform="translate(1100.124311 337.8456)scale(0.1728 -0.1728)">
      <use xlink:href="#ArialMT-45"/>
      <use xlink:href="#ArialMT-70" x="66.699219"/>
      <use xlink:href="#ArialMT-6f" x="122.314453"/>
      <use xlink:href="#ArialMT-63" x="177.929688"/>
      <use xlink:href="#ArialMT-68" x="227.929688"/>
     </g>
    </g>
   </g>
   <g id="matplotlib.axis_8">
    <g id="ytick_19">
     <g id="line2d_37">
      <g>
       <use xlink:href="#m5e79e0cd1b" x="982.160867" y="266.242089" style="stroke: #000000; stroke-width: 2"/>
      </g>
     </g>
    </g>
    <g id="ytick_20">
     <g id="line2d_38">
      <g>
       <use xlink:href="#m5e79e0cd1b" x="982.160867" y="220.546593" style="stroke: #000000; stroke-width: 2"/>
      </g>
     </g>
    </g>
    <g id="ytick_21">
     <g id="line2d_39">
      <g>
       <use xlink:href="#m5e79e0cd1b" x="982.160867" y="174.851098" style="stroke: #000000; stroke-width: 2"/>
      </g>
     </g>
    </g>
    <g id="ytick_22">
     <g id="line2d_40">
      <g>
       <use xlink:href="#m5e79e0cd1b" x="982.160867" y="129.155602" style="stroke: #000000; stroke-width: 2"/>
      </g>
     </g>
    </g>
    <g id="ytick_23">
     <g id="line2d_41">
      <g>
       <use xlink:href="#m5e79e0cd1b" x="982.160867" y="83.460107" style="stroke: #000000; stroke-width: 2"/>
      </g>
     </g>
    </g>
    <g id="ytick_24">
     <g id="line2d_42">
      <g>
       <use xlink:href="#m5e79e0cd1b" x="982.160867" y="37.764611" style="stroke: #000000; stroke-width: 2"/>
      </g>
     </g>
    </g>
   </g>
   <g id="line2d_43">
    <path d="M 995.111825 87.479138 
L 1000.397931 107.934626 
L 1005.684036 126.858289 
L 1010.970142 141.161145 
L 1016.256247 136.057231 
L 1021.542353 151.947467 
L 1026.828458 146.621223 
L 1032.114564 162.571136 
L 1037.40067 150.477851 
L 1042.686775 129.111464 
L 1047.972881 143.627877 
L 1053.258986 143.153487 
L 1058.545092 145.322606 
L 1063.831197 154.709385 
L 1069.117303 141.36471 
L 1074.403408 148.106519 
L 1079.689514 157.180067 
L 1084.975619 143.99984 
L 1090.261725 161.442368 
L 1095.547831 151.745018 
L 1100.833936 173.386233 
L 1106.120042 158.164542 
L 1111.406147 150.255238 
L 1116.692253 163.200941 
L 1121.978358 153.219383 
L 1127.264464 162.704598 
L 1132.550569 154.941588 
L 1137.836675 154.83029 
L 1143.12278 170.296461 
L 1148.408886 157.628199 
L 1153.694992 161.709633 
L 1158.981097 170.786438 
L 1164.267203 165.156386 
L 1169.553308 162.719054 
L 1174.839414 155.712041 
L 1180.125519 162.288439 
L 1185.411625 150.524015 
L 1190.69773 150.323655 
L 1195.983836 146.656522 
L 1201.269941 136.195118 
L 1206.556047 162.038993 
L 1211.842152 158.958824 
L 1217.128258 161.565375 
L 1222.414364 167.841442 
L 1227.700469 174.615491 
L 1232.986575 157.142546 
L 1238.27268 165.283747 
L 1243.558786 161.699163 
L 1248.844891 166.056588 
L 1254.130997 158.621968 
" clip-path="url(#p8799477a57)" style="fill: none; stroke: #707b90; stroke-width: 2.5; stroke-linecap: square"/>
   </g>
   <g id="line2d_44">
    <path d="M 995.111825 157.008096 
L 1000.397931 138.614961 
L 1005.684036 160.844297 
L 1010.970142 128.367184 
L 1016.256247 137.638261 
L 1021.542353 126.923227 
L 1026.828458 131.676816 
L 1032.114564 147.596923 
L 1037.40067 163.076069 
L 1042.686775 135.06315 
L 1047.972881 140.17202 
L 1053.258986 135.419585 
L 1058.545092 135.23954 
L 1063.831197 139.122664 
L 1069.117303 132.487336 
L 1074.403408 137.586869 
L 1079.689514 140.303014 
L 1084.975619 140.123674 
L 1090.261725 148.35817 
L 1095.547831 148.164242 
L 1100.833936 133.819196 
L 1106.120042 139.103307 
L 1111.406147 146.256444 
L 1116.692253 149.308372 
L 1121.978358 141.068369 
L 1127.264464 144.149475 
L 1132.550569 145.972564 
L 1137.836675 148.317833 
L 1143.12278 138.413218 
L 1148.408886 147.965212 
L 1153.694992 147.888001 
L 1158.981097 146.569653 
L 1164.267203 145.956074 
L 1169.553308 151.541753 
L 1174.839414 142.280183 
L 1180.125519 150.367074 
L 1185.411625 146.688594 
L 1190.69773 159.295155 
L 1195.983836 152.017024 
L 1201.269941 152.029035 
L 1206.556047 157.089642 
L 1211.842152 157.900396 
L 1217.128258 152.50393 
L 1222.414364 146.233279 
L 1227.700469 155.148678 
L 1232.986575 150.791445 
L 1238.27268 154.08275 
L 1243.558786 157.175853 
L 1248.844891 147.739809 
L 1254.130997 153.663554 
" clip-path="url(#p8799477a57)" style="fill: none; stroke: #cbdede; stroke-width: 2.5; stroke-linecap: square"/>
   </g>
   <g id="patch_12">
    <path d="M 982.160867 294.1738 
L 982.160867 25.5687 
" style="fill: none; stroke: #000000; stroke-width: 1.5; stroke-linejoin: miter; stroke-linecap: square"/>
   </g>
   <g id="patch_13">
    <path d="M 982.160867 294.1738 
L 1267.081955 294.1738 
" style="fill: none; stroke: #000000; stroke-width: 1.5; stroke-linejoin: miter; stroke-linecap: square"/>
   </g>
   <g id="text_27">
    <!-- $\epsilon$: 1 -->
    <g transform="translate(1110.279011 19.5687)scale(0.1728 -0.1728)">
     <use xlink:href="#DejaVuSans-Oblique-3b5" transform="translate(0 0.125)"/>
     <use xlink:href="#ArialMT-3a" transform="translate(54.052734 0.125)"/>
     <use xlink:href="#ArialMT-20" transform="translate(81.835938 0.125)"/>
     <use xlink:href="#ArialMT-31" transform="translate(109.619141 0.125)"/>
    </g>
   </g>
   <g id="legend_1">
    <g id="line2d_45">
     <path d="M 1296.88001 146.06885 
L 1314.16001 146.06885 
L 1331.44001 146.06885 
" style="fill: none; stroke: #707b90; stroke-width: 2.5; stroke-linecap: square"/>
    </g>
    <g id="text_28">
     <!-- I-Norm -->
     <g transform="translate(1345.26401 152.11685)scale(0.1728 -0.1728)">
      <defs>
       <path id="ArialMT-49" d="M 597 0 
L 597 4581 
L 1203 4581 
L 1203 0 
L 597 0 
z
" transform="scale(0.015625)"/>
       <path id="ArialMT-2d" d="M 203 1375 
L 203 1941 
L 1931 1941 
L 1931 1375 
L 203 1375 
z
" transform="scale(0.015625)"/>
      </defs>
      <use xlink:href="#ArialMT-49"/>
      <use xlink:href="#ArialMT-2d" x="27.783203"/>
      <use xlink:href="#ArialMT-4e" x="61.083984"/>
      <use xlink:href="#ArialMT-6f" x="133.300781"/>
      <use xlink:href="#ArialMT-72" x="188.916016"/>
      <use xlink:href="#ArialMT-6d" x="222.216797"/>
     </g>
    </g>
    <g id="line2d_46">
     <path d="M 1296.88001 170.51195 
L 1314.16001 170.51195 
L 1331.44001 170.51195 
" style="fill: none; stroke: #cbdede; stroke-width: 2.5; stroke-linecap: square"/>
    </g>
    <g id="text_29">
     <!-- No Norm -->
     <g transform="translate(1345.26401 176.55995)scale(0.1728 -0.1728)">
      <use xlink:href="#ArialMT-4e"/>
      <use xlink:href="#ArialMT-6f" x="72.216797"/>
      <use xlink:href="#ArialMT-20" x="127.832031"/>
      <use xlink:href="#ArialMT-4e" x="155.615234"/>
      <use xlink:href="#ArialMT-6f" x="227.832031"/>
      <use xlink:href="#ArialMT-72" x="283.447266"/>
      <use xlink:href="#ArialMT-6d" x="316.748047"/>
     </g>
    </g>
   </g>
  </g>
 </g>
 <defs>
  <clipPath id="pa6fd4ca24e">
   <rect x="64.5176" y="25.5687" width="284.921089" height="268.6051"/>
  </clipPath>
  <clipPath id="p24efe6f46c">
   <rect x="370.398689" y="25.5687" width="284.921089" height="268.6051"/>
  </clipPath>
  <clipPath id="p204ccee4cc">
   <rect x="676.279778" y="25.5687" width="284.921089" height="268.6051"/>
  </clipPath>
  <clipPath id="p8799477a57">
   <rect x="982.160867" y="25.5687" width="284.921089" height="268.6051"/>
  </clipPath>
 </defs>
</svg>
